G04*
G04 #@! TF.GenerationSoftware,Altium Limited,Altium Designer,23.3.1 (30)*
G04*
G04 Layer_Color=8388736*
%FSLAX26Y26*%
%MOIN*%
G70*
G04*
G04 #@! TF.SameCoordinates,A73F04FC-B1A5-4ADC-8500-56C492F8F9A9*
G04*
G04*
G04 #@! TF.FilePolarity,Negative*
G04*
G01*
G75*
%ADD13C,0.007874*%
%ADD22C,0.078740*%
G04:AMPARAMS|DCode=23|XSize=66.929mil|YSize=28.74mil|CornerRadius=6.545mil|HoleSize=0mil|Usage=FLASHONLY|Rotation=270.000|XOffset=0mil|YOffset=0mil|HoleType=Round|Shape=RoundedRectangle|*
%AMROUNDEDRECTD23*
21,1,0.066929,0.015650,0,0,270.0*
21,1,0.053839,0.028740,0,0,270.0*
1,1,0.013090,-0.007825,-0.026919*
1,1,0.013090,-0.007825,0.026919*
1,1,0.013090,0.007825,0.026919*
1,1,0.013090,0.007825,-0.026919*
%
%ADD23ROUNDEDRECTD23*%
%ADD24R,0.137795X0.107874*%
%ADD25R,0.082677X0.048032*%
G04:AMPARAMS|DCode=26|XSize=47.874mil|YSize=62.874mil|CornerRadius=8.937mil|HoleSize=0mil|Usage=FLASHONLY|Rotation=180.000|XOffset=0mil|YOffset=0mil|HoleType=Round|Shape=RoundedRectangle|*
%AMROUNDEDRECTD26*
21,1,0.047874,0.045000,0,0,180.0*
21,1,0.030000,0.062874,0,0,180.0*
1,1,0.017874,-0.015000,0.022500*
1,1,0.017874,0.015000,0.022500*
1,1,0.017874,0.015000,-0.022500*
1,1,0.017874,-0.015000,-0.022500*
%
%ADD26ROUNDEDRECTD26*%
%ADD27C,0.086614*%
%ADD28C,0.094488*%
%ADD29C,0.039496*%
D13*
X1569558Y-1502953D02*
X1530201D01*
Y-1483274D01*
X1536760Y-1476714D01*
X1549879D01*
X1556439Y-1483274D01*
Y-1502953D01*
X1536760Y-1437357D02*
X1530201Y-1443917D01*
Y-1457036D01*
X1536760Y-1463595D01*
X1562998D01*
X1569558Y-1457036D01*
Y-1443917D01*
X1562998Y-1437357D01*
X1530201Y-1424238D02*
X1569558D01*
Y-1404559D01*
X1562998Y-1398000D01*
X1556439D01*
X1549879Y-1404559D01*
Y-1424238D01*
Y-1404559D01*
X1543320Y-1398000D01*
X1536760D01*
X1530201Y-1404559D01*
Y-1424238D01*
Y-1345523D02*
X1569558D01*
Y-1325844D01*
X1562998Y-1319285D01*
X1556439D01*
X1549879D01*
X1543320Y-1325844D01*
Y-1345523D01*
Y-1306166D02*
X1562998D01*
X1569558Y-1299606D01*
Y-1279927D01*
X1576118D01*
X1582677Y-1286487D01*
Y-1293046D01*
X1569558Y-1279927D02*
X1543320D01*
X1530201Y-1227451D02*
X1569558D01*
Y-1207772D01*
X1562998Y-1201213D01*
X1556439D01*
X1549879Y-1207772D01*
Y-1227451D01*
Y-1207772D01*
X1543320Y-1201213D01*
X1536760D01*
X1530201Y-1207772D01*
Y-1227451D01*
X1569558Y-1168415D02*
Y-1181534D01*
X1562998Y-1188093D01*
X1549879D01*
X1543320Y-1181534D01*
Y-1168415D01*
X1549879Y-1161855D01*
X1556439D01*
Y-1188093D01*
X1569558Y-1148736D02*
X1543320D01*
Y-1129057D01*
X1549879Y-1122498D01*
X1569558D01*
X1530201Y-1070021D02*
X1569558D01*
X1556439D01*
X1530201Y-1043783D01*
X1549879Y-1063462D01*
X1569558Y-1043783D01*
X1543320Y-1024104D02*
Y-1010985D01*
X1549879Y-1004426D01*
X1569558D01*
Y-1024104D01*
X1562998Y-1030664D01*
X1556439Y-1024104D01*
Y-1004426D01*
X1543320Y-991306D02*
Y-965068D01*
X1569558Y-991306D01*
Y-965068D01*
Y-932270D02*
Y-945389D01*
X1562998Y-951949D01*
X1549879D01*
X1543320Y-945389D01*
Y-932270D01*
X1549879Y-925711D01*
X1556439D01*
Y-951949D01*
X1569558Y-912592D02*
X1543320D01*
Y-906032D01*
X1549879Y-899472D01*
X1569558D01*
X1549879D01*
X1543320Y-892913D01*
X1549879Y-886353D01*
X1569558D01*
Y-873234D02*
Y-860115D01*
Y-866675D01*
X1543320D01*
Y-873234D01*
X1569558Y-794519D02*
X1536760D01*
X1549879D01*
Y-801079D01*
Y-787960D01*
Y-794519D01*
X1536760D01*
X1530201Y-787960D01*
X1569558Y-761722D02*
Y-748602D01*
X1562998Y-742043D01*
X1549879D01*
X1543320Y-748602D01*
Y-761722D01*
X1549879Y-768281D01*
X1562998D01*
X1569558Y-761722D01*
X1543320Y-728924D02*
X1569558D01*
X1556439D01*
X1549879Y-722364D01*
X1543320Y-715805D01*
Y-709245D01*
X1569558Y-650209D02*
X1530201D01*
X1543320Y-637090D01*
X1530201Y-623971D01*
X1569558D01*
X1536760Y-584613D02*
X1530201Y-591173D01*
Y-604292D01*
X1536760Y-610852D01*
X1543320D01*
X1549879Y-604292D01*
Y-591173D01*
X1556439Y-584613D01*
X1562998D01*
X1569558Y-591173D01*
Y-604292D01*
X1562998Y-610852D01*
X1530201Y-571494D02*
X1569558D01*
Y-551816D01*
X1562998Y-545256D01*
X1536760D01*
X1530201Y-551816D01*
Y-571494D01*
X1536760Y-466541D02*
X1530201Y-473101D01*
Y-486220D01*
X1536760Y-492779D01*
X1562998D01*
X1569558Y-486220D01*
Y-473101D01*
X1562998Y-466541D01*
X1549879D01*
Y-479660D01*
X1543320Y-453422D02*
X1569558D01*
X1556439D01*
X1549879Y-446862D01*
X1543320Y-440303D01*
Y-433743D01*
X1569558Y-407505D02*
Y-394386D01*
X1562998Y-387826D01*
X1549879D01*
X1543320Y-394386D01*
Y-407505D01*
X1549879Y-414065D01*
X1562998D01*
X1569558Y-407505D01*
X1543320Y-374707D02*
X1562998D01*
X1569558Y-368148D01*
Y-348469D01*
X1543320D01*
X1582677Y-335350D02*
X1543320D01*
Y-315671D01*
X1549879Y-309112D01*
X1562998D01*
X1569558Y-315671D01*
Y-335350D01*
X1556439Y-236956D02*
X1549879D01*
Y-243516D01*
X1556439D01*
Y-236956D01*
X1549879Y-230397D01*
X1536760D01*
X1530201Y-236956D01*
Y-250075D01*
X1536760Y-256635D01*
X1562998D01*
X1569558Y-250075D01*
Y-230397D01*
X1530201Y-177920D02*
X1562998D01*
X1569558Y-171361D01*
Y-158242D01*
X1562998Y-151682D01*
X1530201D01*
X1536760Y-112325D02*
X1530201Y-118884D01*
Y-132003D01*
X1536760Y-138563D01*
X1562998D01*
X1569558Y-132003D01*
Y-118884D01*
X1562998Y-112325D01*
X1530201Y-99205D02*
X1569558D01*
Y-72967D01*
D22*
X-827756Y1549213D02*
D03*
X-984Y-1537402D02*
D03*
X823819Y1551181D02*
D03*
D23*
X-1165551Y-1505904D02*
D03*
X-1215551D02*
D03*
X-1265551D02*
D03*
X-1315551D02*
D03*
Y-1281888D02*
D03*
X-1265551D02*
D03*
X-1215551D02*
D03*
X-1165551D02*
D03*
X487992Y1198426D02*
D03*
X437992D02*
D03*
X387992D02*
D03*
X337992D02*
D03*
Y974410D02*
D03*
X387992D02*
D03*
X437992D02*
D03*
X487992D02*
D03*
X1314765D02*
D03*
X1264765D02*
D03*
X1214765D02*
D03*
X1164765D02*
D03*
Y1198426D02*
D03*
X1214765D02*
D03*
X1264765D02*
D03*
X1314765D02*
D03*
X-1166575Y1599381D02*
D03*
X-1216575D02*
D03*
X-1266575D02*
D03*
X-1316575D02*
D03*
Y1375365D02*
D03*
X-1266575D02*
D03*
X-1216575D02*
D03*
X-1166575D02*
D03*
X-339803D02*
D03*
X-389803D02*
D03*
X-439803D02*
D03*
X-489803D02*
D03*
Y1599381D02*
D03*
X-439803D02*
D03*
X-389803D02*
D03*
X-339803D02*
D03*
X486968D02*
D03*
X436968D02*
D03*
X386968D02*
D03*
X336968D02*
D03*
Y1375365D02*
D03*
X386968D02*
D03*
X436968D02*
D03*
X486968D02*
D03*
X1313742D02*
D03*
X1263742D02*
D03*
X1213742D02*
D03*
X1163742D02*
D03*
Y1599381D02*
D03*
X1213742D02*
D03*
X1263742D02*
D03*
X1313742D02*
D03*
X-338780Y-1281888D02*
D03*
X-388780D02*
D03*
X-438780D02*
D03*
X-488780D02*
D03*
Y-1505904D02*
D03*
X-438780D02*
D03*
X-388780D02*
D03*
X-338780D02*
D03*
X487992D02*
D03*
X437992D02*
D03*
X387992D02*
D03*
X337992D02*
D03*
Y-1281888D02*
D03*
X387992D02*
D03*
X437992D02*
D03*
X487992D02*
D03*
X1314765D02*
D03*
X1264765D02*
D03*
X1214765D02*
D03*
X1164765D02*
D03*
Y-1505904D02*
D03*
X1214765D02*
D03*
X1264765D02*
D03*
X1314765D02*
D03*
X-1165551Y-1092518D02*
D03*
X-1215551D02*
D03*
X-1265551D02*
D03*
X-1315551D02*
D03*
Y-868503D02*
D03*
X-1265551D02*
D03*
X-1215551D02*
D03*
X-1165551D02*
D03*
X-338780D02*
D03*
X-388780D02*
D03*
X-438780D02*
D03*
X-488780D02*
D03*
Y-1092518D02*
D03*
X-438780D02*
D03*
X-388780D02*
D03*
X-338780D02*
D03*
X487992D02*
D03*
X437992D02*
D03*
X387992D02*
D03*
X337992D02*
D03*
Y-868503D02*
D03*
X387992D02*
D03*
X437992D02*
D03*
X487992D02*
D03*
X1314765D02*
D03*
X1264765D02*
D03*
X1214765D02*
D03*
X1164765D02*
D03*
Y-1092518D02*
D03*
X1214765D02*
D03*
X1264765D02*
D03*
X1314765D02*
D03*
X-1165551Y-679133D02*
D03*
X-1215551D02*
D03*
X-1265551D02*
D03*
X-1315551D02*
D03*
Y-455117D02*
D03*
X-1265551D02*
D03*
X-1215551D02*
D03*
X-1165551D02*
D03*
X-338780D02*
D03*
X-388780D02*
D03*
X-438780D02*
D03*
X-488780D02*
D03*
Y-679133D02*
D03*
X-438780D02*
D03*
X-388780D02*
D03*
X-338780D02*
D03*
X487992D02*
D03*
X437992D02*
D03*
X387992D02*
D03*
X337992D02*
D03*
Y-455117D02*
D03*
X387992D02*
D03*
X437992D02*
D03*
X487992D02*
D03*
X1314765D02*
D03*
X1264765D02*
D03*
X1214765D02*
D03*
X1164765D02*
D03*
Y-679133D02*
D03*
X1214765D02*
D03*
X1264765D02*
D03*
X1314765D02*
D03*
X-1165551Y-265747D02*
D03*
X-1215551D02*
D03*
X-1265551D02*
D03*
X-1315551D02*
D03*
Y-41731D02*
D03*
X-1265551D02*
D03*
X-1215551D02*
D03*
X-1165551D02*
D03*
X-338780D02*
D03*
X-388780D02*
D03*
X-438780D02*
D03*
X-488780D02*
D03*
Y-265747D02*
D03*
X-438780D02*
D03*
X-388780D02*
D03*
X-338780D02*
D03*
X487992D02*
D03*
X437992D02*
D03*
X387992D02*
D03*
X337992D02*
D03*
Y-41731D02*
D03*
X387992D02*
D03*
X437992D02*
D03*
X487992D02*
D03*
X1314765D02*
D03*
X1264765D02*
D03*
X1214765D02*
D03*
X1164765D02*
D03*
Y-265747D02*
D03*
X1214765D02*
D03*
X1264765D02*
D03*
X1314765D02*
D03*
X-1165551Y147639D02*
D03*
X-1215551D02*
D03*
X-1265551D02*
D03*
X-1315551D02*
D03*
Y371654D02*
D03*
X-1265551D02*
D03*
X-1215551D02*
D03*
X-1165551D02*
D03*
X-338780D02*
D03*
X-388780D02*
D03*
X-438780D02*
D03*
X-488780D02*
D03*
Y147639D02*
D03*
X-438780D02*
D03*
X-388780D02*
D03*
X-338780D02*
D03*
X487992D02*
D03*
X437992D02*
D03*
X387992D02*
D03*
X337992D02*
D03*
Y371654D02*
D03*
X387992D02*
D03*
X437992D02*
D03*
X487992D02*
D03*
X1314765D02*
D03*
X1264765D02*
D03*
X1214765D02*
D03*
X1164765D02*
D03*
Y147639D02*
D03*
X1214765D02*
D03*
X1264765D02*
D03*
X1314765D02*
D03*
X-1165551Y561024D02*
D03*
X-1215551D02*
D03*
X-1265551D02*
D03*
X-1315551D02*
D03*
Y785040D02*
D03*
X-1265551D02*
D03*
X-1215551D02*
D03*
X-1165551D02*
D03*
X-338780D02*
D03*
X-388780D02*
D03*
X-438780D02*
D03*
X-488780D02*
D03*
Y561024D02*
D03*
X-438780D02*
D03*
X-388780D02*
D03*
X-338780D02*
D03*
X487992D02*
D03*
X437992D02*
D03*
X387992D02*
D03*
X337992D02*
D03*
Y785040D02*
D03*
X387992D02*
D03*
X437992D02*
D03*
X487992D02*
D03*
X1314765D02*
D03*
X1264765D02*
D03*
X1214765D02*
D03*
X1164765D02*
D03*
Y561024D02*
D03*
X1214765D02*
D03*
X1264765D02*
D03*
X1314765D02*
D03*
X-1165551Y974410D02*
D03*
X-1215551D02*
D03*
X-1265551D02*
D03*
X-1315551D02*
D03*
Y1198426D02*
D03*
X-1265551D02*
D03*
X-1215551D02*
D03*
X-1165551D02*
D03*
X-338780D02*
D03*
X-388780D02*
D03*
X-438780D02*
D03*
X-488780D02*
D03*
Y974410D02*
D03*
X-438780D02*
D03*
X-388780D02*
D03*
X-338780D02*
D03*
D24*
X-1240551Y-1393896D02*
D03*
X412992Y1086418D02*
D03*
X1239765D02*
D03*
X-1241575Y1487373D02*
D03*
X-414803D02*
D03*
X411968D02*
D03*
X1238742D02*
D03*
X-413780Y-1393896D02*
D03*
X412992D02*
D03*
X1239765D02*
D03*
X-1240551Y-980511D02*
D03*
X-413780D02*
D03*
X412992D02*
D03*
X1239765D02*
D03*
X-1240551Y-567125D02*
D03*
X-413780D02*
D03*
X412992D02*
D03*
X1239765D02*
D03*
X-1240551Y-153739D02*
D03*
X-413780D02*
D03*
X412992D02*
D03*
X1239765D02*
D03*
X-1240551Y259647D02*
D03*
X-413780D02*
D03*
X412992D02*
D03*
X1239765D02*
D03*
X-1240551Y673032D02*
D03*
X-413780D02*
D03*
X412992D02*
D03*
X1239765D02*
D03*
X-1240551Y1086418D02*
D03*
X-413780D02*
D03*
D25*
X-714039Y1074803D02*
D03*
Y674803D02*
D03*
Y774803D02*
D03*
Y874803D02*
D03*
Y974803D02*
D03*
Y1174803D02*
D03*
X-941890D02*
D03*
X-714039Y1274803D02*
D03*
X-941890D02*
D03*
X-714039Y374803D02*
D03*
X-941890D02*
D03*
X-714039Y474803D02*
D03*
X-941890D02*
D03*
X-714039Y574803D02*
D03*
X-941890D02*
D03*
Y674803D02*
D03*
Y774803D02*
D03*
Y874803D02*
D03*
Y974803D02*
D03*
Y1074803D02*
D03*
Y-577953D02*
D03*
Y-677953D02*
D03*
Y-777953D02*
D03*
Y-877953D02*
D03*
Y-977953D02*
D03*
Y-1077953D02*
D03*
X-714039D02*
D03*
X-941890Y-1177953D02*
D03*
X-714039D02*
D03*
X-941890Y-1277953D02*
D03*
X-714039D02*
D03*
X-941890Y-377953D02*
D03*
X-714039D02*
D03*
X-941890Y-477953D02*
D03*
X-714039D02*
D03*
Y-677953D02*
D03*
Y-777953D02*
D03*
Y-877953D02*
D03*
Y-977953D02*
D03*
Y-577953D02*
D03*
X940488Y1074803D02*
D03*
Y674803D02*
D03*
Y774803D02*
D03*
Y874803D02*
D03*
Y974803D02*
D03*
Y1174803D02*
D03*
X712638D02*
D03*
X940488Y1274803D02*
D03*
X712638D02*
D03*
X940488Y374803D02*
D03*
X712638D02*
D03*
X940488Y474803D02*
D03*
X712638D02*
D03*
X940488Y574803D02*
D03*
X712638D02*
D03*
Y674803D02*
D03*
Y774803D02*
D03*
Y874803D02*
D03*
Y974803D02*
D03*
Y1074803D02*
D03*
X712716Y-577953D02*
D03*
Y-677953D02*
D03*
Y-777953D02*
D03*
Y-877953D02*
D03*
Y-977953D02*
D03*
Y-1077953D02*
D03*
X940567D02*
D03*
X712716Y-1177953D02*
D03*
X940567D02*
D03*
X712716Y-1277953D02*
D03*
X940567D02*
D03*
X712716Y-377953D02*
D03*
X940567D02*
D03*
X712716Y-477953D02*
D03*
X940567D02*
D03*
Y-677953D02*
D03*
Y-777953D02*
D03*
Y-877953D02*
D03*
Y-977953D02*
D03*
Y-577953D02*
D03*
D26*
X1230946Y1295276D02*
D03*
X1150946D02*
D03*
X404174D02*
D03*
X324174D02*
D03*
X-422598D02*
D03*
X-502598D02*
D03*
X-1249369D02*
D03*
X-1329369D02*
D03*
X1230946Y881890D02*
D03*
X1150946D02*
D03*
X404174D02*
D03*
X324174D02*
D03*
X-422598D02*
D03*
X-502598D02*
D03*
X-1249369D02*
D03*
X-1329369D02*
D03*
X1230946Y468504D02*
D03*
X1150946D02*
D03*
X404174D02*
D03*
X324174D02*
D03*
X-422598D02*
D03*
X-502598D02*
D03*
X-1249369D02*
D03*
X-1329369D02*
D03*
X1230946Y55118D02*
D03*
X1150946D02*
D03*
X404174D02*
D03*
X324174D02*
D03*
X-422598D02*
D03*
X-502598D02*
D03*
X-1249369D02*
D03*
X-1329369D02*
D03*
X1230946Y-358268D02*
D03*
X1150946D02*
D03*
X404174D02*
D03*
X324174D02*
D03*
X-422598D02*
D03*
X-502598D02*
D03*
X-1249369D02*
D03*
X-1329369D02*
D03*
X1230946Y-771654D02*
D03*
X1150946D02*
D03*
X404174D02*
D03*
X324174D02*
D03*
X-422598D02*
D03*
X-502598D02*
D03*
X-1249369D02*
D03*
X-1329369D02*
D03*
X1230946Y-1185040D02*
D03*
X1150946D02*
D03*
X404174D02*
D03*
X324174D02*
D03*
X-422598D02*
D03*
X-502598D02*
D03*
X-1249369D02*
D03*
X-1329369D02*
D03*
X1230946Y-1598426D02*
D03*
X1150946D02*
D03*
X404174D02*
D03*
X324174D02*
D03*
X-422598D02*
D03*
X-502598D02*
D03*
X-1249369D02*
D03*
X-1329369D02*
D03*
D27*
X-1446849Y-1348424D02*
D03*
Y-1545276D02*
D03*
X-1033465Y-1348424D02*
D03*
Y-1545276D02*
D03*
X620079Y1131890D02*
D03*
Y935040D02*
D03*
X1446851D02*
D03*
Y1131890D02*
D03*
X-1033465Y1545276D02*
D03*
Y1348426D02*
D03*
X-206693D02*
D03*
Y1545276D02*
D03*
X620079D02*
D03*
Y1348426D02*
D03*
X1446851D02*
D03*
Y1545276D02*
D03*
X-206693Y-1348424D02*
D03*
Y-1545276D02*
D03*
X620079D02*
D03*
Y-1348424D02*
D03*
X1446851D02*
D03*
Y-1545276D02*
D03*
X-1033465Y-1131890D02*
D03*
Y-935040D02*
D03*
X-206693D02*
D03*
Y-1131890D02*
D03*
X620079D02*
D03*
Y-935040D02*
D03*
X1446851D02*
D03*
Y-1131890D02*
D03*
X-1033465Y-718504D02*
D03*
Y-521654D02*
D03*
X-206693D02*
D03*
Y-718504D02*
D03*
X620079D02*
D03*
Y-521654D02*
D03*
X1446851D02*
D03*
Y-718504D02*
D03*
X-1033465Y-305118D02*
D03*
Y-108268D02*
D03*
X-206693D02*
D03*
Y-305118D02*
D03*
X620079D02*
D03*
Y-108268D02*
D03*
X1446851D02*
D03*
Y-305118D02*
D03*
X-1033465Y108268D02*
D03*
Y305118D02*
D03*
X-206693D02*
D03*
Y108268D02*
D03*
X620079D02*
D03*
Y305118D02*
D03*
X1446851D02*
D03*
Y108268D02*
D03*
X-1033465Y521654D02*
D03*
Y718504D02*
D03*
X-206693D02*
D03*
Y521654D02*
D03*
X620079D02*
D03*
Y718504D02*
D03*
X1446851D02*
D03*
Y521654D02*
D03*
X-1033465Y935040D02*
D03*
Y1131890D02*
D03*
X-206693D02*
D03*
Y935040D02*
D03*
X206693D02*
D03*
Y1131890D02*
D03*
X1033465D02*
D03*
Y935040D02*
D03*
X-1446849Y1348426D02*
D03*
Y1545276D02*
D03*
X-620079D02*
D03*
Y1348426D02*
D03*
X206693D02*
D03*
Y1545276D02*
D03*
X1033465D02*
D03*
Y1348426D02*
D03*
X-620079Y-1545276D02*
D03*
Y-1348424D02*
D03*
X206693D02*
D03*
Y-1545276D02*
D03*
X1033465D02*
D03*
Y-1348424D02*
D03*
X-1446849Y-935040D02*
D03*
Y-1131890D02*
D03*
X-620079D02*
D03*
Y-935040D02*
D03*
X206693D02*
D03*
Y-1131890D02*
D03*
X1033465D02*
D03*
Y-935040D02*
D03*
X-1446849Y-521654D02*
D03*
Y-718504D02*
D03*
X-620079D02*
D03*
Y-521654D02*
D03*
X206693D02*
D03*
Y-718504D02*
D03*
X1033465D02*
D03*
Y-521654D02*
D03*
X-1446849Y-108268D02*
D03*
Y-305118D02*
D03*
X-620079D02*
D03*
Y-108268D02*
D03*
X206693D02*
D03*
Y-305118D02*
D03*
X1033465D02*
D03*
Y-108268D02*
D03*
X-1446849Y305118D02*
D03*
Y108268D02*
D03*
X-620079D02*
D03*
Y305118D02*
D03*
X206693D02*
D03*
Y108268D02*
D03*
X1033465D02*
D03*
Y305118D02*
D03*
X-1446849Y718504D02*
D03*
Y521654D02*
D03*
X-620079D02*
D03*
Y718504D02*
D03*
X206693D02*
D03*
Y521654D02*
D03*
X1033465D02*
D03*
Y718504D02*
D03*
X-1446849Y1131890D02*
D03*
Y935040D02*
D03*
X-620079D02*
D03*
Y1131890D02*
D03*
D28*
X826772Y0D02*
D03*
X0Y826772D02*
D03*
Y-826772D02*
D03*
Y0D02*
D03*
X-826772D02*
D03*
D29*
X-1270551Y-1422896D02*
D03*
Y-1365896D02*
D03*
X-1206551D02*
D03*
Y-1422896D02*
D03*
X446992Y1057418D02*
D03*
Y1114418D02*
D03*
X382992D02*
D03*
Y1057418D02*
D03*
X1209765D02*
D03*
Y1114418D02*
D03*
X1273765D02*
D03*
Y1057418D02*
D03*
X-1207575Y1458373D02*
D03*
Y1515373D02*
D03*
X-1271575D02*
D03*
Y1458373D02*
D03*
X-444803D02*
D03*
Y1515373D02*
D03*
X-380803D02*
D03*
Y1458373D02*
D03*
X445968D02*
D03*
Y1515373D02*
D03*
X381968D02*
D03*
Y1458373D02*
D03*
X1208742D02*
D03*
Y1515373D02*
D03*
X1272742D02*
D03*
Y1458373D02*
D03*
X-379780Y-1422896D02*
D03*
Y-1365896D02*
D03*
X-443780D02*
D03*
Y-1422896D02*
D03*
X382992D02*
D03*
Y-1365896D02*
D03*
X446992D02*
D03*
Y-1422896D02*
D03*
X1273765D02*
D03*
Y-1365896D02*
D03*
X1209765D02*
D03*
Y-1422896D02*
D03*
X-1270551Y-1009511D02*
D03*
Y-952511D02*
D03*
X-1206551D02*
D03*
Y-1009511D02*
D03*
X-379780D02*
D03*
Y-952511D02*
D03*
X-443780D02*
D03*
Y-1009511D02*
D03*
X382992D02*
D03*
Y-952511D02*
D03*
X446992D02*
D03*
Y-1009511D02*
D03*
X1273765D02*
D03*
Y-952511D02*
D03*
X1209765D02*
D03*
Y-1009511D02*
D03*
X-1270551Y-596125D02*
D03*
Y-539125D02*
D03*
X-1206551D02*
D03*
Y-596125D02*
D03*
X-379780D02*
D03*
Y-539125D02*
D03*
X-443780D02*
D03*
Y-596125D02*
D03*
X382992D02*
D03*
Y-539125D02*
D03*
X446992D02*
D03*
Y-596125D02*
D03*
X1273765D02*
D03*
Y-539125D02*
D03*
X1209765D02*
D03*
Y-596125D02*
D03*
X-1270551Y-182739D02*
D03*
Y-125739D02*
D03*
X-1206551D02*
D03*
Y-182739D02*
D03*
X-379780D02*
D03*
Y-125739D02*
D03*
X-443780D02*
D03*
Y-182739D02*
D03*
X382992D02*
D03*
Y-125739D02*
D03*
X446992D02*
D03*
Y-182739D02*
D03*
X1273765D02*
D03*
Y-125739D02*
D03*
X1209765D02*
D03*
Y-182739D02*
D03*
X-1270551Y230647D02*
D03*
Y287647D02*
D03*
X-1206551D02*
D03*
Y230647D02*
D03*
X-379780D02*
D03*
Y287647D02*
D03*
X-443780D02*
D03*
Y230647D02*
D03*
X382992D02*
D03*
Y287647D02*
D03*
X446992D02*
D03*
Y230647D02*
D03*
X1273765D02*
D03*
Y287647D02*
D03*
X1209765D02*
D03*
Y230647D02*
D03*
X-1270551Y644032D02*
D03*
Y701032D02*
D03*
X-1206551D02*
D03*
Y644032D02*
D03*
X-379780D02*
D03*
Y701032D02*
D03*
X-443780D02*
D03*
Y644032D02*
D03*
X382992D02*
D03*
Y701032D02*
D03*
X446992D02*
D03*
Y644032D02*
D03*
X1273765D02*
D03*
Y701032D02*
D03*
X1209765D02*
D03*
Y644032D02*
D03*
X-1270551Y1057418D02*
D03*
Y1114418D02*
D03*
X-1206551D02*
D03*
Y1057418D02*
D03*
X-379780D02*
D03*
Y1114418D02*
D03*
X-443780D02*
D03*
Y1057418D02*
D03*
M02*
