G04*
G04 #@! TF.GenerationSoftware,Altium Limited,Altium Designer,23.3.1 (30)*
G04*
G04 Layer_Physical_Order=4*
G04 Layer_Color=16711680*
%FSLAX26Y26*%
%MOIN*%
G70*
G04*
G04 #@! TF.SameCoordinates,A73F04FC-B1A5-4ADC-8500-56C492F8F9A9*
G04*
G04*
G04 #@! TF.FilePolarity,Positive*
G04*
G01*
G75*
%ADD28C,0.094488*%
%ADD30C,0.011811*%
%ADD33C,0.078740*%
%ADD34C,0.031496*%
%ADD35C,0.055118*%
G36*
X1558071Y-1585630D02*
X1480381D01*
X1478310Y-1580630D01*
X1484655Y-1574285D01*
X1490875Y-1563512D01*
X1494095Y-1551496D01*
Y-1539056D01*
X1490875Y-1527041D01*
X1484655Y-1516268D01*
X1475859Y-1507472D01*
X1465086Y-1501252D01*
X1453070Y-1498032D01*
X1440631D01*
X1428615Y-1501252D01*
X1417842Y-1507472D01*
X1409046Y-1516268D01*
X1402826Y-1527041D01*
X1399607Y-1539056D01*
Y-1551496D01*
X1402826Y-1563512D01*
X1409046Y-1574285D01*
X1415391Y-1580630D01*
X1413320Y-1585630D01*
X1285426D01*
X1282648Y-1581473D01*
X1283465Y-1579502D01*
Y-1570104D01*
X1279868Y-1561422D01*
X1273223Y-1554777D01*
X1264541Y-1551181D01*
X1255144D01*
X1246462Y-1554777D01*
X1239817Y-1561422D01*
X1236220Y-1570104D01*
Y-1579502D01*
X1237037Y-1581473D01*
X1234259Y-1585630D01*
X1066995D01*
X1064924Y-1580630D01*
X1071269Y-1574285D01*
X1077489Y-1563512D01*
X1080709Y-1551496D01*
Y-1539056D01*
X1077489Y-1527041D01*
X1071269Y-1516268D01*
X1062473Y-1507472D01*
X1051700Y-1501252D01*
X1039684Y-1498032D01*
X1027245D01*
X1015229Y-1501252D01*
X1004456Y-1507472D01*
X995660Y-1516268D01*
X989440Y-1527041D01*
X986221Y-1539056D01*
Y-1551496D01*
X989440Y-1563512D01*
X995660Y-1574285D01*
X1002005Y-1580630D01*
X999934Y-1585630D01*
X653609D01*
X651538Y-1580630D01*
X657883Y-1574285D01*
X664103Y-1563512D01*
X667323Y-1551496D01*
Y-1539056D01*
X664103Y-1527041D01*
X657883Y-1516268D01*
X649087Y-1507472D01*
X638314Y-1501252D01*
X626298Y-1498032D01*
X613859D01*
X601843Y-1501252D01*
X591070Y-1507472D01*
X582274Y-1516268D01*
X576054Y-1527041D01*
X572835Y-1539056D01*
Y-1551496D01*
X576054Y-1563512D01*
X582274Y-1574285D01*
X588619Y-1580630D01*
X586548Y-1585630D01*
X458655D01*
X455877Y-1581473D01*
X456693Y-1579502D01*
Y-1570104D01*
X453097Y-1561422D01*
X446452Y-1554777D01*
X437770Y-1551181D01*
X428372D01*
X419690Y-1554777D01*
X413045Y-1561422D01*
X409449Y-1570104D01*
Y-1579502D01*
X410265Y-1581473D01*
X407487Y-1585630D01*
X240223D01*
X238152Y-1580630D01*
X244497Y-1574285D01*
X250717Y-1563512D01*
X253937Y-1551496D01*
Y-1539056D01*
X250717Y-1527041D01*
X244497Y-1516268D01*
X235701Y-1507472D01*
X224928Y-1501252D01*
X212912Y-1498032D01*
X200473D01*
X188457Y-1501252D01*
X177684Y-1507472D01*
X168888Y-1516268D01*
X162668Y-1527041D01*
X159448Y-1539056D01*
Y-1551496D01*
X162668Y-1563512D01*
X168888Y-1574285D01*
X175233Y-1580630D01*
X173162Y-1585630D01*
X-173163D01*
X-175234Y-1580630D01*
X-168889Y-1574285D01*
X-162669Y-1563512D01*
X-159449Y-1551496D01*
Y-1539056D01*
X-162669Y-1527041D01*
X-168889Y-1516268D01*
X-177685Y-1507472D01*
X-188458Y-1501252D01*
X-200474Y-1498032D01*
X-212913D01*
X-224929Y-1501252D01*
X-235702Y-1507472D01*
X-244498Y-1516268D01*
X-250718Y-1527041D01*
X-253938Y-1539056D01*
Y-1551496D01*
X-250718Y-1563512D01*
X-244498Y-1574285D01*
X-238153Y-1580630D01*
X-240224Y-1585630D01*
X-368117D01*
X-370895Y-1581473D01*
X-370079Y-1579502D01*
Y-1570104D01*
X-373675Y-1561422D01*
X-380320Y-1554777D01*
X-389002Y-1551181D01*
X-398399D01*
X-407082Y-1554777D01*
X-413727Y-1561422D01*
X-417323Y-1570104D01*
Y-1579502D01*
X-416507Y-1581473D01*
X-419284Y-1585630D01*
X-586549D01*
X-588620Y-1580630D01*
X-582275Y-1574285D01*
X-576055Y-1563512D01*
X-572835Y-1551496D01*
Y-1539056D01*
X-576055Y-1527041D01*
X-582275Y-1516268D01*
X-591071Y-1507472D01*
X-601844Y-1501252D01*
X-613860Y-1498032D01*
X-626299D01*
X-638315Y-1501252D01*
X-649088Y-1507472D01*
X-657884Y-1516268D01*
X-664104Y-1527041D01*
X-667323Y-1539056D01*
Y-1551496D01*
X-664104Y-1563512D01*
X-657884Y-1574285D01*
X-651539Y-1580630D01*
X-653610Y-1585630D01*
X-999935D01*
X-1002006Y-1580630D01*
X-995661Y-1574285D01*
X-989441Y-1563512D01*
X-986221Y-1551496D01*
Y-1539056D01*
X-989441Y-1527041D01*
X-995661Y-1516268D01*
X-1004457Y-1507472D01*
X-1015230Y-1501252D01*
X-1027246Y-1498032D01*
X-1039685D01*
X-1051701Y-1501252D01*
X-1062474Y-1507472D01*
X-1071270Y-1516268D01*
X-1077490Y-1527041D01*
X-1080709Y-1539056D01*
Y-1551496D01*
X-1077490Y-1563512D01*
X-1071270Y-1574285D01*
X-1064925Y-1580630D01*
X-1066996Y-1585630D01*
X-1196850D01*
Y-1579947D01*
X-1200447Y-1571265D01*
X-1207092Y-1564620D01*
X-1215774Y-1561024D01*
X-1225171D01*
X-1233853Y-1564620D01*
X-1240498Y-1571265D01*
X-1244094Y-1579947D01*
Y-1585630D01*
X-1413319D01*
X-1415390Y-1580630D01*
X-1409045Y-1574285D01*
X-1402825Y-1563512D01*
X-1399605Y-1551496D01*
Y-1539056D01*
X-1402825Y-1527041D01*
X-1409045Y-1516268D01*
X-1417841Y-1507472D01*
X-1428614Y-1501252D01*
X-1440630Y-1498032D01*
X-1453069D01*
X-1465085Y-1501252D01*
X-1475858Y-1507472D01*
X-1484654Y-1516268D01*
X-1490874Y-1527041D01*
X-1494093Y-1539056D01*
Y-1551496D01*
X-1490874Y-1563512D01*
X-1484654Y-1574285D01*
X-1478309Y-1580630D01*
X-1480380Y-1585630D01*
X-1556188D01*
X-1557132Y1584062D01*
X-1553597Y1587598D01*
X-1481418D01*
X-1479347Y1582598D01*
X-1486355Y1575590D01*
X-1492855Y1564332D01*
X-1495324Y1555118D01*
X-1446849D01*
X-1398375D01*
X-1400844Y1564332D01*
X-1407343Y1575590D01*
X-1414352Y1582598D01*
X-1412281Y1587598D01*
X-1379183D01*
X-1377309Y1583076D01*
X-1371333Y1577100D01*
Y1443898D01*
X-1371444D01*
X-1369924Y1428462D01*
X-1365421Y1413619D01*
X-1358110Y1399940D01*
X-1348270Y1387951D01*
X-1336280Y1378111D01*
X-1322601Y1370799D01*
X-1307759Y1366297D01*
X-1292323Y1364776D01*
Y1364888D01*
X-1218504D01*
X-1217908Y1365006D01*
X-1202008Y1363440D01*
X-1186147Y1358628D01*
X-1171529Y1350815D01*
X-1158716Y1340300D01*
X-1148201Y1327487D01*
X-1140387Y1312869D01*
X-1135576Y1297007D01*
X-1134436Y1285436D01*
X-1134254Y1280512D01*
X-1134254D01*
X-1132676Y1264497D01*
X-1128005Y1249098D01*
X-1120419Y1234906D01*
X-1110210Y1222467D01*
X-1097771Y1212258D01*
X-1083579Y1204672D01*
X-1068180Y1200001D01*
X-1052165Y1198424D01*
Y1198549D01*
X-1027231D01*
X-1021255Y1192573D01*
X-1012573Y1188976D01*
X-1003175D01*
X-994493Y1192573D01*
X-987848Y1199218D01*
X-984252Y1207900D01*
Y1217297D01*
X-987848Y1225979D01*
X-994493Y1232624D01*
X-1003175Y1236220D01*
X-1012573D01*
X-1021255Y1232624D01*
X-1027231Y1226648D01*
X-1052165D01*
X-1052870Y1226508D01*
X-1066167Y1228258D01*
X-1079214Y1233663D01*
X-1090417Y1242260D01*
X-1099014Y1253463D01*
X-1104419Y1266511D01*
X-1105622Y1275649D01*
X-1105952Y1280512D01*
X-1105952D01*
X-1107338Y1298119D01*
X-1111461Y1315292D01*
X-1118220Y1331609D01*
X-1127448Y1346668D01*
X-1138918Y1360098D01*
X-1152348Y1371568D01*
X-1167407Y1380796D01*
X-1183724Y1387555D01*
X-1200897Y1391678D01*
X-1218504Y1393063D01*
Y1392986D01*
X-1292323D01*
X-1292950Y1392862D01*
X-1305553Y1394521D01*
X-1317882Y1399628D01*
X-1328469Y1407752D01*
X-1336593Y1418338D01*
X-1341699Y1430667D01*
X-1343359Y1443271D01*
X-1343234Y1443898D01*
Y1577100D01*
X-1337258Y1583076D01*
X-1335384Y1587598D01*
X-1232017D01*
X-1230884Y1585175D01*
X-1230484Y1582598D01*
X-1236581Y1576502D01*
X-1240177Y1567820D01*
Y1558422D01*
X-1236581Y1549740D01*
X-1229936Y1543095D01*
X-1221254Y1539499D01*
X-1211856D01*
X-1203174Y1543095D01*
X-1199295Y1546974D01*
X-1175452D01*
X-1175120Y1547040D01*
X-1168241Y1545672D01*
X-1162128Y1541587D01*
X-1158043Y1535474D01*
X-1157538Y1532933D01*
X-1156741Y1528263D01*
X-1156442Y1524716D01*
X-1156150Y1523499D01*
X-1152319Y1507542D01*
X-1145560Y1491225D01*
X-1136332Y1476167D01*
X-1124862Y1462737D01*
X-1111432Y1451267D01*
X-1096373Y1442039D01*
X-1080056Y1435280D01*
X-1062883Y1431157D01*
X-1045276Y1429771D01*
Y1429848D01*
X-991732D01*
X-991111Y1429972D01*
X-974928Y1428378D01*
X-958770Y1423476D01*
X-943878Y1415516D01*
X-930825Y1404804D01*
X-920113Y1391752D01*
X-912154Y1376860D01*
X-907252Y1360702D01*
X-905658Y1344519D01*
X-905782Y1343898D01*
Y1135499D01*
X-908805Y1132475D01*
X-912402Y1123793D01*
Y1114396D01*
X-908805Y1105714D01*
X-902160Y1099069D01*
X-893478Y1095473D01*
X-884081D01*
X-875399Y1099069D01*
X-868754Y1105714D01*
X-865158Y1114396D01*
Y1123793D01*
X-868754Y1132475D01*
X-875399Y1139120D01*
X-877683Y1140066D01*
Y1343898D01*
X-877601D01*
X-879006Y1361752D01*
X-883187Y1379166D01*
X-890041Y1395712D01*
X-899398Y1410982D01*
X-911029Y1424601D01*
X-924648Y1436232D01*
X-939918Y1445589D01*
X-956464Y1452443D01*
X-973878Y1456624D01*
X-991732Y1458029D01*
Y1457947D01*
X-1045276D01*
X-1045871Y1457829D01*
X-1061771Y1459395D01*
X-1077633Y1464206D01*
X-1092251Y1472020D01*
X-1105063Y1482535D01*
X-1115579Y1495348D01*
X-1123392Y1509966D01*
X-1128204Y1525827D01*
X-1129233Y1536281D01*
X-1129563Y1536258D01*
X-1130110Y1540412D01*
X-1134799Y1551734D01*
X-1142259Y1561456D01*
X-1151981Y1568916D01*
X-1163303Y1573605D01*
X-1175452Y1575205D01*
Y1575073D01*
X-1195937D01*
X-1196529Y1576502D01*
X-1202626Y1582598D01*
X-1202226Y1585175D01*
X-1201093Y1587598D01*
X-1068034D01*
X-1065963Y1582598D01*
X-1072971Y1575590D01*
X-1079471Y1564332D01*
X-1081940Y1555118D01*
X-1033465D01*
X-984991D01*
X-987460Y1564332D01*
X-993960Y1575590D01*
X-1000968Y1582598D01*
X-998897Y1587598D01*
X-794984D01*
X-792679Y1582598D01*
X-801389Y1572400D01*
X-810747Y1557130D01*
X-817600Y1540583D01*
X-821781Y1523169D01*
X-823186Y1505315D01*
X-823105D01*
Y1130578D01*
X-829081Y1124601D01*
X-832677Y1115919D01*
Y1106522D01*
X-829081Y1097840D01*
X-822436Y1091195D01*
X-813754Y1087599D01*
X-804356D01*
X-795674Y1091195D01*
X-789029Y1097840D01*
X-785433Y1106522D01*
Y1115919D01*
X-789029Y1124601D01*
X-795006Y1130578D01*
Y1505315D01*
X-795129Y1505936D01*
X-793535Y1522119D01*
X-788634Y1538278D01*
X-780674Y1553169D01*
X-769962Y1566222D01*
X-756909Y1576934D01*
X-742018Y1584894D01*
X-733101Y1587598D01*
X-654648D01*
X-652577Y1582598D01*
X-659585Y1575590D01*
X-666085Y1564332D01*
X-668554Y1555118D01*
X-620079D01*
X-571605D01*
X-574074Y1564332D01*
X-580573Y1575590D01*
X-587582Y1582598D01*
X-585511Y1587598D01*
X-546202D01*
X-543893Y1585289D01*
X-535210Y1581693D01*
X-525813D01*
X-517131Y1585289D01*
X-514822Y1587598D01*
X-506367D01*
X-505152Y1582748D01*
X-510173Y1580065D01*
X-522612Y1569856D01*
X-532821Y1557417D01*
X-540407Y1543225D01*
X-545078Y1527826D01*
X-546655Y1511811D01*
X-546655D01*
X-546972Y1506942D01*
X-548039Y1498838D01*
X-553047Y1486748D01*
X-561013Y1476367D01*
X-571394Y1468401D01*
X-583483Y1463393D01*
X-595855Y1461764D01*
X-596457Y1461884D01*
X-620079D01*
Y1462062D01*
X-630123Y1461072D01*
X-630632Y1461174D01*
X-632138Y1460874D01*
X-638216Y1460275D01*
X-655656Y1454985D01*
X-671729Y1446394D01*
X-685817Y1434832D01*
X-697378Y1420744D01*
X-705969Y1404671D01*
X-711260Y1387231D01*
X-713046Y1369094D01*
X-712868D01*
Y1343959D01*
X-717868Y1343301D01*
X-718950Y1347338D01*
X-723615Y1355418D01*
X-730212Y1362015D01*
X-738292Y1366680D01*
X-747304Y1369094D01*
X-756633D01*
X-765645Y1366680D01*
X-773725Y1362015D01*
X-780322Y1355418D01*
X-784987Y1347338D01*
X-787402Y1338326D01*
Y1328997D01*
X-784987Y1319985D01*
X-780322Y1311905D01*
X-773725Y1305308D01*
X-765645Y1300643D01*
X-756633Y1298228D01*
X-747304D01*
X-738292Y1300643D01*
X-730212Y1305308D01*
X-723615Y1311905D01*
X-718950Y1319985D01*
X-717868Y1324022D01*
X-712868Y1323364D01*
Y1239830D01*
X-718845Y1233853D01*
X-722441Y1225171D01*
Y1215774D01*
X-718845Y1207092D01*
X-712200Y1200447D01*
X-703518Y1196850D01*
X-703407D01*
X-702154Y1191850D01*
X-705308Y1190165D01*
X-719696Y1178357D01*
X-731503Y1163969D01*
X-740277Y1147554D01*
X-745680Y1129743D01*
X-747504Y1111220D01*
X-747317D01*
Y982284D01*
X-747177Y981579D01*
X-748928Y968282D01*
X-754332Y955235D01*
X-762929Y944031D01*
X-774133Y935434D01*
X-784532Y931127D01*
X-787800Y934396D01*
X-796482Y937992D01*
X-805880D01*
X-814562Y934396D01*
X-821207Y927751D01*
X-824803Y919069D01*
Y909671D01*
X-821207Y900989D01*
X-814562Y894344D01*
X-805880Y890748D01*
X-796482D01*
X-787800Y894344D01*
X-781155Y900989D01*
X-780208Y903277D01*
X-769767Y906444D01*
X-755575Y914030D01*
X-743136Y924238D01*
X-732927Y936678D01*
X-725341Y950870D01*
X-720670Y966269D01*
X-719093Y982284D01*
X-719218D01*
Y1111220D01*
X-719279Y1111528D01*
X-718027Y1124243D01*
X-714229Y1136765D01*
X-708060Y1148305D01*
X-699759Y1158420D01*
X-689644Y1166722D01*
X-678103Y1172890D01*
X-665582Y1176688D01*
X-652866Y1177941D01*
X-652559Y1177880D01*
X-648822D01*
X-647528Y1173050D01*
X-650393Y1171396D01*
X-659585Y1162204D01*
X-666085Y1150946D01*
X-668554Y1141732D01*
X-620079D01*
X-571605D01*
X-574074Y1150946D01*
X-580573Y1162204D01*
X-589765Y1171396D01*
X-592631Y1173050D01*
X-591337Y1177880D01*
X-549869D01*
X-543893Y1171903D01*
X-535210Y1168307D01*
X-525813D01*
X-517131Y1171903D01*
X-510486Y1178548D01*
X-506890Y1187230D01*
Y1196628D01*
X-510486Y1205310D01*
X-517131Y1211955D01*
X-525813Y1215551D01*
X-535210D01*
X-543893Y1211955D01*
X-549869Y1205979D01*
X-652559D01*
Y1206166D01*
X-671082Y1204341D01*
X-675948Y1202865D01*
X-678420Y1206538D01*
X-678729Y1207247D01*
X-675197Y1215774D01*
Y1225171D01*
X-678793Y1233853D01*
X-684769Y1239830D01*
Y1369094D01*
X-684824Y1369370D01*
X-683607Y1381731D01*
X-679921Y1393882D01*
X-673935Y1405080D01*
X-665880Y1414896D01*
X-656064Y1422951D01*
X-644866Y1428937D01*
X-632715Y1432622D01*
X-628724Y1433016D01*
X-620354Y1433840D01*
X-620079Y1433785D01*
X-596457D01*
Y1433679D01*
X-581214Y1435180D01*
X-566557Y1439626D01*
X-553049Y1446847D01*
X-541209Y1456563D01*
X-531492Y1468403D01*
X-524272Y1481911D01*
X-519826Y1496568D01*
X-518325Y1511811D01*
X-518324D01*
X-518022Y1516686D01*
X-516820Y1525812D01*
X-511416Y1538859D01*
X-502819Y1550063D01*
X-491615Y1558660D01*
X-478568Y1564064D01*
X-465271Y1565815D01*
X-464567Y1565675D01*
X-408137D01*
X-402160Y1559699D01*
X-393478Y1556102D01*
X-384081D01*
X-375399Y1559699D01*
X-368754Y1566344D01*
X-365157Y1575026D01*
Y1584423D01*
X-363036Y1587598D01*
X-241262D01*
X-239191Y1582598D01*
X-246199Y1575590D01*
X-252699Y1564332D01*
X-255168Y1555118D01*
X-206693D01*
X-158219D01*
X-160688Y1564332D01*
X-167188Y1575590D01*
X-174196Y1582598D01*
X-172125Y1587598D01*
X172124D01*
X174195Y1582598D01*
X167187Y1575590D01*
X160687Y1564332D01*
X158218Y1555118D01*
X206693D01*
X255167D01*
X252698Y1564332D01*
X246198Y1575590D01*
X239190Y1582598D01*
X241261Y1587598D01*
X280570D01*
X282211Y1585958D01*
Y1443898D01*
X282100D01*
X283620Y1428462D01*
X288122Y1413619D01*
X295434Y1399940D01*
X305274Y1387951D01*
X317263Y1378111D01*
X330942Y1370799D01*
X345785Y1366297D01*
X361221Y1364776D01*
Y1364888D01*
X435040D01*
X435635Y1365006D01*
X451535Y1363440D01*
X467397Y1358628D01*
X482015Y1350815D01*
X494828Y1340300D01*
X505343Y1327487D01*
X513156Y1312869D01*
X517968Y1297007D01*
X519107Y1285436D01*
X519290Y1280512D01*
X519290D01*
X520867Y1264497D01*
X525539Y1249098D01*
X533125Y1234906D01*
X543333Y1222467D01*
X555773Y1212258D01*
X569965Y1204672D01*
X585364Y1200001D01*
X601378Y1198424D01*
Y1198549D01*
X626312D01*
X632289Y1192573D01*
X640971Y1188976D01*
X650368D01*
X659050Y1192573D01*
X665695Y1199218D01*
X669292Y1207900D01*
Y1217297D01*
X665695Y1225979D01*
X659050Y1232624D01*
X650368Y1236220D01*
X640971D01*
X632289Y1232624D01*
X626312Y1226648D01*
X601378D01*
X600674Y1226508D01*
X587377Y1228258D01*
X574330Y1233663D01*
X563126Y1242260D01*
X554529Y1253463D01*
X549125Y1266511D01*
X547922Y1275649D01*
X547591Y1280512D01*
X547591D01*
X546206Y1298119D01*
X542083Y1315292D01*
X535324Y1331609D01*
X526096Y1346668D01*
X514626Y1360098D01*
X501196Y1371568D01*
X486137Y1380796D01*
X469820Y1387555D01*
X452647Y1391678D01*
X435040Y1393063D01*
Y1392986D01*
X361221D01*
X360594Y1392862D01*
X347990Y1394521D01*
X335662Y1399628D01*
X325075Y1407752D01*
X316951Y1418338D01*
X311844Y1430667D01*
X310185Y1443271D01*
X310310Y1443898D01*
Y1585958D01*
X311950Y1587598D01*
X412249D01*
X414370Y1584423D01*
Y1575026D01*
X417967Y1566344D01*
X424612Y1559699D01*
X433294Y1556102D01*
X442691D01*
X451373Y1559699D01*
X457349Y1565675D01*
X479331D01*
X479552Y1565719D01*
X485664Y1564503D01*
X491034Y1560915D01*
X494622Y1555546D01*
X495837Y1549434D01*
X495793Y1549213D01*
Y1542323D01*
X495716D01*
X497102Y1524716D01*
X501225Y1507542D01*
X507984Y1491225D01*
X517212Y1476167D01*
X528682Y1462737D01*
X542112Y1451267D01*
X557171Y1442039D01*
X573488Y1435280D01*
X590661Y1431157D01*
X608268Y1429771D01*
Y1429848D01*
X661811D01*
X662433Y1429972D01*
X678615Y1428378D01*
X694774Y1423476D01*
X709665Y1415516D01*
X722718Y1404804D01*
X733430Y1391752D01*
X741390Y1376860D01*
X746292Y1360702D01*
X747885Y1344519D01*
X747762Y1343898D01*
Y1135499D01*
X744738Y1132475D01*
X741142Y1123793D01*
Y1114396D01*
X744738Y1105714D01*
X751383Y1099069D01*
X760065Y1095473D01*
X769463D01*
X778145Y1099069D01*
X784790Y1105714D01*
X788386Y1114396D01*
Y1123793D01*
X784790Y1132475D01*
X778145Y1139120D01*
X775861Y1140066D01*
Y1343898D01*
X775943D01*
X774538Y1361752D01*
X770357Y1379166D01*
X763503Y1395712D01*
X754145Y1410982D01*
X742514Y1424601D01*
X728896Y1436232D01*
X713626Y1445589D01*
X697080Y1452443D01*
X679665Y1456624D01*
X661811Y1458029D01*
Y1457947D01*
X608268D01*
X607673Y1457829D01*
X591773Y1459395D01*
X575911Y1464206D01*
X561293Y1472020D01*
X548480Y1482535D01*
X537965Y1495348D01*
X530151Y1509966D01*
X525340Y1525827D01*
X523774Y1541727D01*
X523892Y1542323D01*
Y1549213D01*
X524005D01*
X522482Y1560775D01*
X518019Y1571549D01*
X510920Y1580802D01*
X508232Y1582864D01*
X509840Y1587598D01*
X585510D01*
X587581Y1582598D01*
X580573Y1575590D01*
X574073Y1564332D01*
X571604Y1555118D01*
X620079D01*
X668553D01*
X666084Y1564332D01*
X659585Y1575590D01*
X652576Y1582598D01*
X654647Y1587598D01*
X858560D01*
X860865Y1582598D01*
X852154Y1572400D01*
X842797Y1557130D01*
X835943Y1540583D01*
X831762Y1523169D01*
X830357Y1505315D01*
X830439D01*
Y1130578D01*
X824463Y1124601D01*
X820866Y1115919D01*
Y1106522D01*
X824463Y1097840D01*
X831108Y1091195D01*
X839790Y1087599D01*
X849187D01*
X857869Y1091195D01*
X864514Y1097840D01*
X868111Y1106522D01*
Y1115919D01*
X864514Y1124601D01*
X858538Y1130578D01*
Y1505315D01*
X858414Y1505936D01*
X860008Y1522119D01*
X864910Y1538278D01*
X872870Y1553169D01*
X883582Y1566222D01*
X896634Y1576934D01*
X911526Y1584894D01*
X920442Y1587598D01*
X998896D01*
X1000967Y1582598D01*
X993959Y1575590D01*
X987459Y1564332D01*
X984990Y1555118D01*
X1033465D01*
X1081939D01*
X1079470Y1564332D01*
X1072970Y1575590D01*
X1065962Y1582598D01*
X1068033Y1587598D01*
X1107342D01*
X1109651Y1585289D01*
X1118333Y1581693D01*
X1127731D01*
X1136413Y1585289D01*
X1138722Y1587598D01*
X1147176D01*
X1148391Y1582748D01*
X1143371Y1580065D01*
X1130932Y1569856D01*
X1120723Y1557417D01*
X1113137Y1543225D01*
X1108466Y1527826D01*
X1106889Y1511811D01*
X1106888D01*
X1106572Y1506942D01*
X1105505Y1498838D01*
X1100497Y1486748D01*
X1092531Y1476367D01*
X1082150Y1468401D01*
X1070060Y1463393D01*
X1057688Y1461764D01*
X1057087Y1461884D01*
X1033465D01*
Y1462062D01*
X1023421Y1461072D01*
X1022912Y1461174D01*
X1021406Y1460874D01*
X1015328Y1460275D01*
X997888Y1454985D01*
X981815Y1446394D01*
X967727Y1434832D01*
X956165Y1420744D01*
X947574Y1404671D01*
X942284Y1387231D01*
X940497Y1369094D01*
X940675D01*
Y1347625D01*
X935675Y1346967D01*
X935576Y1347338D01*
X930911Y1355418D01*
X924314Y1362015D01*
X916234Y1366680D01*
X907222Y1369094D01*
X897893D01*
X888881Y1366680D01*
X880801Y1362015D01*
X874204Y1355418D01*
X869539Y1347338D01*
X867125Y1338326D01*
Y1328997D01*
X869539Y1319985D01*
X874204Y1311905D01*
X880801Y1305308D01*
X888881Y1300643D01*
X897893Y1298228D01*
X907222D01*
X916234Y1300643D01*
X924314Y1305308D01*
X930911Y1311905D01*
X935576Y1319985D01*
X935675Y1320356D01*
X940675Y1319697D01*
Y1239830D01*
X934699Y1233853D01*
X931103Y1225171D01*
Y1215774D01*
X934699Y1207092D01*
X941344Y1200447D01*
X950026Y1196850D01*
X950137D01*
X951390Y1191850D01*
X948236Y1190165D01*
X933848Y1178357D01*
X922040Y1163969D01*
X913266Y1147554D01*
X907864Y1129743D01*
X906039Y1111220D01*
X906226D01*
Y982284D01*
X906366Y981579D01*
X904616Y968282D01*
X899212Y955235D01*
X890615Y944031D01*
X879411Y935434D01*
X869012Y931127D01*
X865743Y934396D01*
X857061Y937992D01*
X847664D01*
X838982Y934396D01*
X832337Y927751D01*
X828740Y919069D01*
Y909671D01*
X832337Y900989D01*
X838982Y894344D01*
X847664Y890748D01*
X857061D01*
X865743Y894344D01*
X872388Y900989D01*
X873336Y903277D01*
X883776Y906444D01*
X897968Y914030D01*
X910408Y924238D01*
X920616Y936678D01*
X928202Y950870D01*
X932873Y966269D01*
X934451Y982284D01*
X934325D01*
Y1111220D01*
X934264Y1111528D01*
X935517Y1124243D01*
X939315Y1136765D01*
X945484Y1148305D01*
X953785Y1158420D01*
X963900Y1166722D01*
X975440Y1172890D01*
X987962Y1176688D01*
X1000677Y1177941D01*
X1000985Y1177880D01*
X1004722D01*
X1006016Y1173050D01*
X1003151Y1171396D01*
X993959Y1162204D01*
X987459Y1150946D01*
X984990Y1141732D01*
X1033465D01*
X1081939D01*
X1079470Y1150946D01*
X1072970Y1162204D01*
X1063778Y1171396D01*
X1060913Y1173050D01*
X1062207Y1177880D01*
X1103675D01*
X1109651Y1171903D01*
X1118333Y1168307D01*
X1127731D01*
X1136413Y1171903D01*
X1143058Y1178548D01*
X1146654Y1187230D01*
Y1196628D01*
X1143058Y1205310D01*
X1136413Y1211955D01*
X1127731Y1215551D01*
X1118333D01*
X1109651Y1211955D01*
X1103675Y1205979D01*
X1000985D01*
Y1206166D01*
X982462Y1204341D01*
X977595Y1202865D01*
X975123Y1206538D01*
X974815Y1207247D01*
X978347Y1215774D01*
Y1225171D01*
X974750Y1233853D01*
X968774Y1239830D01*
Y1369094D01*
X968719Y1369370D01*
X969937Y1381731D01*
X973623Y1393882D01*
X979609Y1405080D01*
X987664Y1414896D01*
X997479Y1422951D01*
X1008678Y1428937D01*
X1020828Y1432622D01*
X1024820Y1433016D01*
X1033189Y1433840D01*
X1033465Y1433785D01*
X1057087D01*
Y1433679D01*
X1072330Y1435180D01*
X1086987Y1439626D01*
X1100495Y1446847D01*
X1112335Y1456563D01*
X1122051Y1468403D01*
X1129272Y1481911D01*
X1133718Y1496568D01*
X1135219Y1511811D01*
X1135219D01*
X1135522Y1516686D01*
X1136723Y1525812D01*
X1142128Y1538859D01*
X1150725Y1550063D01*
X1161928Y1558660D01*
X1174975Y1564064D01*
X1188273Y1565815D01*
X1188977Y1565675D01*
X1245407D01*
X1251383Y1559699D01*
X1260065Y1556102D01*
X1269463D01*
X1278145Y1559699D01*
X1284790Y1566344D01*
X1288386Y1575026D01*
Y1584423D01*
X1290508Y1587598D01*
X1412282D01*
X1414353Y1582598D01*
X1407345Y1575590D01*
X1400845Y1564332D01*
X1398376Y1555118D01*
X1446851D01*
X1495325D01*
X1492856Y1564332D01*
X1486357Y1575590D01*
X1479348Y1582598D01*
X1481419Y1587598D01*
X1558071D01*
Y-1585630D01*
D02*
G37*
%LPC*%
G36*
X668553Y1535433D02*
X629921D01*
Y1496801D01*
X639135Y1499270D01*
X650393Y1505770D01*
X659585Y1514962D01*
X666084Y1526220D01*
X668553Y1535433D01*
D02*
G37*
G36*
X255167D02*
X216535D01*
Y1496801D01*
X225749Y1499270D01*
X237006Y1505770D01*
X246198Y1514962D01*
X252698Y1526220D01*
X255167Y1535433D01*
D02*
G37*
G36*
X1495325D02*
X1456693D01*
Y1496801D01*
X1465907Y1499270D01*
X1477165Y1505770D01*
X1486357Y1514962D01*
X1492856Y1526220D01*
X1495325Y1535433D01*
D02*
G37*
G36*
X1081939D02*
X1043307D01*
Y1496801D01*
X1052521Y1499270D01*
X1063778Y1505770D01*
X1072970Y1514962D01*
X1079470Y1526220D01*
X1081939Y1535433D01*
D02*
G37*
G36*
X-158219D02*
X-196851D01*
Y1496801D01*
X-187637Y1499270D01*
X-176380Y1505770D01*
X-167188Y1514962D01*
X-160688Y1526220D01*
X-158219Y1535433D01*
D02*
G37*
G36*
X-571605D02*
X-610237D01*
Y1496801D01*
X-601023Y1499270D01*
X-589765Y1505770D01*
X-580573Y1514962D01*
X-574074Y1526220D01*
X-571605Y1535433D01*
D02*
G37*
G36*
X-1398375D02*
X-1437007D01*
Y1496801D01*
X-1427793Y1499270D01*
X-1416535Y1505770D01*
X-1407343Y1514962D01*
X-1400844Y1526220D01*
X-1398375Y1535433D01*
D02*
G37*
G36*
X-984991D02*
X-1023623D01*
Y1496801D01*
X-1014409Y1499270D01*
X-1003152Y1505770D01*
X-993960Y1514962D01*
X-987460Y1526220D01*
X-984991Y1535433D01*
D02*
G37*
G36*
X-1043308D02*
X-1081940D01*
X-1079471Y1526220D01*
X-1072971Y1514962D01*
X-1063779Y1505770D01*
X-1052522Y1499270D01*
X-1043308Y1496801D01*
Y1535433D01*
D02*
G37*
G36*
X1437008D02*
X1398376D01*
X1400845Y1526220D01*
X1407345Y1514962D01*
X1416537Y1505770D01*
X1427794Y1499270D01*
X1437008Y1496801D01*
Y1535433D01*
D02*
G37*
G36*
X1023622D02*
X984990D01*
X987459Y1526220D01*
X993959Y1514962D01*
X1003151Y1505770D01*
X1014409Y1499270D01*
X1023622Y1496801D01*
Y1535433D01*
D02*
G37*
G36*
X-216536D02*
X-255168D01*
X-252699Y1526220D01*
X-246199Y1514962D01*
X-237007Y1505770D01*
X-225750Y1499270D01*
X-216536Y1496801D01*
Y1535433D01*
D02*
G37*
G36*
X-629922D02*
X-668554D01*
X-666085Y1526220D01*
X-659585Y1514962D01*
X-650393Y1505770D01*
X-639135Y1499270D01*
X-629922Y1496801D01*
Y1535433D01*
D02*
G37*
G36*
X-1456692D02*
X-1495324D01*
X-1492855Y1526220D01*
X-1486355Y1514962D01*
X-1477163Y1505770D01*
X-1465906Y1499270D01*
X-1456692Y1496801D01*
Y1535433D01*
D02*
G37*
G36*
X610236D02*
X571604D01*
X574073Y1526220D01*
X580573Y1514962D01*
X589765Y1505770D01*
X601023Y1499270D01*
X610236Y1496801D01*
Y1535433D01*
D02*
G37*
G36*
X196850D02*
X158218D01*
X160687Y1526220D01*
X167187Y1514962D01*
X176379Y1505770D01*
X187637Y1499270D01*
X196850Y1496801D01*
Y1535433D01*
D02*
G37*
G36*
X1453070Y1395670D02*
X1440631D01*
X1428615Y1392450D01*
X1417842Y1386230D01*
X1409046Y1377434D01*
X1402826Y1366661D01*
X1399607Y1354646D01*
Y1342206D01*
X1402826Y1330190D01*
X1409046Y1319417D01*
X1417842Y1310621D01*
X1428615Y1304401D01*
X1440631Y1301182D01*
X1453070D01*
X1465086Y1304401D01*
X1475859Y1310621D01*
X1484655Y1319417D01*
X1490875Y1330190D01*
X1494095Y1342206D01*
Y1354646D01*
X1490875Y1366661D01*
X1484655Y1377434D01*
X1475859Y1386230D01*
X1465086Y1392450D01*
X1453070Y1395670D01*
D02*
G37*
G36*
X1039684D02*
X1027245D01*
X1015229Y1392450D01*
X1004456Y1386230D01*
X995660Y1377434D01*
X989440Y1366661D01*
X986221Y1354646D01*
Y1342206D01*
X989440Y1330190D01*
X995660Y1319417D01*
X1004456Y1310621D01*
X1015229Y1304401D01*
X1027245Y1301182D01*
X1039684D01*
X1051700Y1304401D01*
X1062473Y1310621D01*
X1071269Y1319417D01*
X1077489Y1330190D01*
X1080709Y1342206D01*
Y1354646D01*
X1077489Y1366661D01*
X1071269Y1377434D01*
X1062473Y1386230D01*
X1051700Y1392450D01*
X1039684Y1395670D01*
D02*
G37*
G36*
X626298D02*
X613859D01*
X601843Y1392450D01*
X591070Y1386230D01*
X582274Y1377434D01*
X576054Y1366661D01*
X572835Y1354646D01*
Y1342206D01*
X576054Y1330190D01*
X582274Y1319417D01*
X591070Y1310621D01*
X601843Y1304401D01*
X613859Y1301182D01*
X626298D01*
X638314Y1304401D01*
X649087Y1310621D01*
X657883Y1319417D01*
X664103Y1330190D01*
X667323Y1342206D01*
Y1354646D01*
X664103Y1366661D01*
X657883Y1377434D01*
X649087Y1386230D01*
X638314Y1392450D01*
X626298Y1395670D01*
D02*
G37*
G36*
X212912D02*
X200473D01*
X188457Y1392450D01*
X177684Y1386230D01*
X168888Y1377434D01*
X162668Y1366661D01*
X159448Y1354646D01*
Y1342206D01*
X162668Y1330190D01*
X168888Y1319417D01*
X177684Y1310621D01*
X188457Y1304401D01*
X200473Y1301182D01*
X212912D01*
X224928Y1304401D01*
X235701Y1310621D01*
X244497Y1319417D01*
X250717Y1330190D01*
X253937Y1342206D01*
Y1354646D01*
X250717Y1366661D01*
X244497Y1377434D01*
X235701Y1386230D01*
X224928Y1392450D01*
X212912Y1395670D01*
D02*
G37*
G36*
X-200474D02*
X-212913D01*
X-224929Y1392450D01*
X-235702Y1386230D01*
X-244498Y1377434D01*
X-250718Y1366661D01*
X-253938Y1354646D01*
Y1342206D01*
X-250718Y1330190D01*
X-244498Y1319417D01*
X-235702Y1310621D01*
X-224929Y1304401D01*
X-212913Y1301182D01*
X-200474D01*
X-188458Y1304401D01*
X-177685Y1310621D01*
X-168889Y1319417D01*
X-162669Y1330190D01*
X-159449Y1342206D01*
Y1354646D01*
X-162669Y1366661D01*
X-168889Y1377434D01*
X-177685Y1386230D01*
X-188458Y1392450D01*
X-200474Y1395670D01*
D02*
G37*
G36*
X-613860D02*
X-626299D01*
X-638315Y1392450D01*
X-649088Y1386230D01*
X-657884Y1377434D01*
X-664104Y1366661D01*
X-667323Y1354646D01*
Y1342206D01*
X-664104Y1330190D01*
X-657884Y1319417D01*
X-649088Y1310621D01*
X-638315Y1304401D01*
X-626299Y1301182D01*
X-613860D01*
X-601844Y1304401D01*
X-591071Y1310621D01*
X-582275Y1319417D01*
X-576055Y1330190D01*
X-572835Y1342206D01*
Y1354646D01*
X-576055Y1366661D01*
X-582275Y1377434D01*
X-591071Y1386230D01*
X-601844Y1392450D01*
X-613860Y1395670D01*
D02*
G37*
G36*
X-1027246D02*
X-1039685D01*
X-1051701Y1392450D01*
X-1062474Y1386230D01*
X-1071270Y1377434D01*
X-1077490Y1366661D01*
X-1080709Y1354646D01*
Y1342206D01*
X-1077490Y1330190D01*
X-1071270Y1319417D01*
X-1062474Y1310621D01*
X-1051701Y1304401D01*
X-1039685Y1301182D01*
X-1027246D01*
X-1015230Y1304401D01*
X-1004457Y1310621D01*
X-995661Y1319417D01*
X-989441Y1330190D01*
X-986221Y1342206D01*
Y1354646D01*
X-989441Y1366661D01*
X-995661Y1377434D01*
X-1004457Y1386230D01*
X-1015230Y1392450D01*
X-1027246Y1395670D01*
D02*
G37*
G36*
X-1440630D02*
X-1453069D01*
X-1465085Y1392450D01*
X-1475858Y1386230D01*
X-1484654Y1377434D01*
X-1490874Y1366661D01*
X-1494093Y1354646D01*
Y1342206D01*
X-1490874Y1330190D01*
X-1484654Y1319417D01*
X-1475858Y1310621D01*
X-1465085Y1304401D01*
X-1453069Y1301182D01*
X-1440630D01*
X-1428614Y1304401D01*
X-1417841Y1310621D01*
X-1409045Y1319417D01*
X-1402825Y1330190D01*
X-1399605Y1342206D01*
Y1354646D01*
X-1402825Y1366661D01*
X-1409045Y1377434D01*
X-1417841Y1386230D01*
X-1428614Y1392450D01*
X-1440630Y1395670D01*
D02*
G37*
G36*
X1277337Y1311024D02*
X1267939D01*
X1259257Y1307427D01*
X1252612Y1300782D01*
X1249016Y1292100D01*
Y1282703D01*
X1252612Y1274021D01*
X1259257Y1267376D01*
X1267939Y1263780D01*
X1277337D01*
X1286019Y1267376D01*
X1292664Y1274021D01*
X1296260Y1282703D01*
Y1292100D01*
X1292664Y1300782D01*
X1286019Y1307427D01*
X1277337Y1311024D01*
D02*
G37*
G36*
X450565D02*
X441168D01*
X432486Y1307427D01*
X425841Y1300782D01*
X422244Y1292100D01*
Y1282703D01*
X425841Y1274021D01*
X432486Y1267376D01*
X441168Y1263780D01*
X450565D01*
X459247Y1267376D01*
X465892Y1274021D01*
X469488Y1282703D01*
Y1292100D01*
X465892Y1300782D01*
X459247Y1307427D01*
X450565Y1311024D01*
D02*
G37*
G36*
X-376207D02*
X-385604D01*
X-394286Y1307427D01*
X-400931Y1300782D01*
X-404527Y1292100D01*
Y1282703D01*
X-400931Y1274021D01*
X-394286Y1267376D01*
X-385604Y1263780D01*
X-376207D01*
X-367525Y1267376D01*
X-360880Y1274021D01*
X-357283Y1282703D01*
Y1292100D01*
X-360880Y1300782D01*
X-367525Y1307427D01*
X-376207Y1311024D01*
D02*
G37*
G36*
X-1202978D02*
X-1212376D01*
X-1221058Y1307427D01*
X-1227703Y1300782D01*
X-1231299Y1292100D01*
Y1282703D01*
X-1227703Y1274021D01*
X-1221058Y1267376D01*
X-1212376Y1263780D01*
X-1202978D01*
X-1194296Y1267376D01*
X-1187651Y1274021D01*
X-1184055Y1282703D01*
Y1292100D01*
X-1187651Y1300782D01*
X-1194296Y1307427D01*
X-1202978Y1311024D01*
D02*
G37*
G36*
X1269463Y1189960D02*
X1260065D01*
X1251383Y1186364D01*
X1245407Y1180388D01*
X1216536D01*
Y1180444D01*
X1200010Y1179143D01*
X1183891Y1175273D01*
X1168576Y1168930D01*
X1154442Y1160268D01*
X1141836Y1149502D01*
X1131071Y1136897D01*
X1122409Y1122763D01*
X1116065Y1107448D01*
X1112196Y1091329D01*
X1110895Y1074803D01*
X1110895D01*
X1110528Y1069955D01*
X1109391Y1061316D01*
X1104185Y1048748D01*
X1095904Y1037955D01*
X1085111Y1029674D01*
X1072543Y1024468D01*
X1059708Y1022778D01*
X1059055Y1022908D01*
X1019357D01*
X1013381Y1028884D01*
X1004699Y1032480D01*
X995302D01*
X986620Y1028884D01*
X979975Y1022239D01*
X976378Y1013557D01*
Y1004160D01*
X979975Y995477D01*
X986620Y988832D01*
X995302Y985236D01*
X1004699D01*
X1013381Y988832D01*
X1019357Y994809D01*
X1059055D01*
Y994693D01*
X1074684Y996232D01*
X1089712Y1000791D01*
X1103562Y1008194D01*
X1115702Y1018157D01*
X1125665Y1030296D01*
X1133068Y1044146D01*
X1137626Y1059174D01*
X1139166Y1074803D01*
X1139166D01*
X1139389Y1079710D01*
X1140398Y1089948D01*
X1144815Y1104511D01*
X1151989Y1117932D01*
X1161643Y1129696D01*
X1173407Y1139350D01*
X1186828Y1146524D01*
X1201391Y1150941D01*
X1216052Y1152385D01*
X1216536Y1152289D01*
X1245407D01*
X1251383Y1146313D01*
X1260065Y1142716D01*
X1269463D01*
X1278145Y1146313D01*
X1284790Y1152958D01*
X1288386Y1161640D01*
Y1171037D01*
X1284790Y1179719D01*
X1278145Y1186364D01*
X1269463Y1189960D01*
D02*
G37*
G36*
X-384081D02*
X-393478D01*
X-402160Y1186364D01*
X-408137Y1180388D01*
X-437008D01*
Y1180444D01*
X-453534Y1179143D01*
X-469653Y1175273D01*
X-484968Y1168930D01*
X-499102Y1160268D01*
X-511707Y1149502D01*
X-522473Y1136897D01*
X-531134Y1122763D01*
X-537478Y1107448D01*
X-541348Y1091329D01*
X-542649Y1074803D01*
X-542649D01*
X-543015Y1069955D01*
X-544153Y1061316D01*
X-549359Y1048748D01*
X-557640Y1037955D01*
X-568433Y1029674D01*
X-581001Y1024468D01*
X-593835Y1022778D01*
X-594488Y1022908D01*
X-634186D01*
X-640163Y1028884D01*
X-648845Y1032480D01*
X-658242D01*
X-666924Y1028884D01*
X-673569Y1022239D01*
X-677165Y1013557D01*
Y1004160D01*
X-673569Y995477D01*
X-666924Y988832D01*
X-658242Y985236D01*
X-648845D01*
X-640163Y988832D01*
X-634186Y994809D01*
X-594488D01*
Y994693D01*
X-578859Y996232D01*
X-563831Y1000791D01*
X-549981Y1008194D01*
X-537842Y1018157D01*
X-527879Y1030296D01*
X-520476Y1044146D01*
X-515917Y1059174D01*
X-514378Y1074803D01*
X-514378D01*
X-514154Y1079710D01*
X-513146Y1089948D01*
X-508728Y1104511D01*
X-501555Y1117932D01*
X-491900Y1129696D01*
X-480137Y1139350D01*
X-466716Y1146524D01*
X-452153Y1150941D01*
X-437491Y1152385D01*
X-437008Y1152289D01*
X-408137D01*
X-402160Y1146313D01*
X-393478Y1142716D01*
X-384081D01*
X-375399Y1146313D01*
X-368754Y1152958D01*
X-365157Y1161640D01*
Y1171037D01*
X-368754Y1179719D01*
X-375399Y1186364D01*
X-384081Y1189960D01*
D02*
G37*
G36*
X1456693Y1180364D02*
Y1141732D01*
X1495325D01*
X1492856Y1150946D01*
X1486357Y1162204D01*
X1477165Y1171396D01*
X1465907Y1177895D01*
X1456693Y1180364D01*
D02*
G37*
G36*
X629921D02*
Y1141732D01*
X668553D01*
X666084Y1150946D01*
X659585Y1162204D01*
X650393Y1171396D01*
X639135Y1177895D01*
X629921Y1180364D01*
D02*
G37*
G36*
X216535D02*
Y1141732D01*
X255167D01*
X252698Y1150946D01*
X246198Y1162204D01*
X237006Y1171396D01*
X225749Y1177895D01*
X216535Y1180364D01*
D02*
G37*
G36*
X-196851D02*
Y1141732D01*
X-158219D01*
X-160688Y1150946D01*
X-167188Y1162204D01*
X-176380Y1171396D01*
X-187637Y1177895D01*
X-196851Y1180364D01*
D02*
G37*
G36*
X-1023623D02*
Y1141732D01*
X-984991D01*
X-987460Y1150946D01*
X-993960Y1162204D01*
X-1003152Y1171396D01*
X-1014409Y1177895D01*
X-1023623Y1180364D01*
D02*
G37*
G36*
X-1437007D02*
Y1141732D01*
X-1398375D01*
X-1400844Y1150946D01*
X-1407343Y1162204D01*
X-1416535Y1171396D01*
X-1427793Y1177895D01*
X-1437007Y1180364D01*
D02*
G37*
G36*
X1437008D02*
X1427794Y1177895D01*
X1416537Y1171396D01*
X1407345Y1162204D01*
X1400845Y1150946D01*
X1398376Y1141732D01*
X1437008D01*
Y1180364D01*
D02*
G37*
G36*
X610236D02*
X601023Y1177895D01*
X589765Y1171396D01*
X580573Y1162204D01*
X574073Y1150946D01*
X571604Y1141732D01*
X610236D01*
Y1180364D01*
D02*
G37*
G36*
X-216536D02*
X-225750Y1177895D01*
X-237007Y1171396D01*
X-246199Y1162204D01*
X-252699Y1150946D01*
X-255168Y1141732D01*
X-216536D01*
Y1180364D01*
D02*
G37*
G36*
X-1043308D02*
X-1052522Y1177895D01*
X-1063779Y1171396D01*
X-1072971Y1162204D01*
X-1079471Y1150946D01*
X-1081940Y1141732D01*
X-1043308D01*
Y1180364D01*
D02*
G37*
G36*
X-1456692D02*
X-1465906Y1177895D01*
X-1477163Y1171396D01*
X-1486355Y1162204D01*
X-1492855Y1150946D01*
X-1495324Y1141732D01*
X-1456692D01*
Y1180364D01*
D02*
G37*
G36*
X196850D02*
X187637Y1177895D01*
X176379Y1171396D01*
X167187Y1162204D01*
X160687Y1150946D01*
X158218Y1141732D01*
X196850D01*
Y1180364D01*
D02*
G37*
G36*
X668553Y1122047D02*
X629921D01*
Y1083415D01*
X639135Y1085884D01*
X650393Y1092384D01*
X659585Y1101576D01*
X666084Y1112834D01*
X668553Y1122047D01*
D02*
G37*
G36*
X255167D02*
X216535D01*
Y1083415D01*
X225749Y1085884D01*
X237006Y1092384D01*
X246198Y1101576D01*
X252698Y1112834D01*
X255167Y1122047D01*
D02*
G37*
G36*
X1495325D02*
X1456693D01*
Y1083415D01*
X1465907Y1085884D01*
X1477165Y1092384D01*
X1486357Y1101576D01*
X1492856Y1112834D01*
X1495325Y1122047D01*
D02*
G37*
G36*
X1081939D02*
X1043307D01*
Y1083415D01*
X1052521Y1085884D01*
X1063778Y1092384D01*
X1072970Y1101576D01*
X1079470Y1112834D01*
X1081939Y1122047D01*
D02*
G37*
G36*
X-158219D02*
X-196851D01*
Y1083415D01*
X-187637Y1085884D01*
X-176380Y1092384D01*
X-167188Y1101576D01*
X-160688Y1112834D01*
X-158219Y1122047D01*
D02*
G37*
G36*
X-571605D02*
X-610237D01*
Y1083415D01*
X-601023Y1085884D01*
X-589765Y1092384D01*
X-580573Y1101576D01*
X-574074Y1112834D01*
X-571605Y1122047D01*
D02*
G37*
G36*
X-984991D02*
X-1023623D01*
Y1083415D01*
X-1014409Y1085884D01*
X-1003152Y1092384D01*
X-993960Y1101576D01*
X-987460Y1112834D01*
X-984991Y1122047D01*
D02*
G37*
G36*
X-1398375D02*
X-1437007D01*
Y1083415D01*
X-1427793Y1085884D01*
X-1416535Y1092384D01*
X-1407343Y1101576D01*
X-1400844Y1112834D01*
X-1398375Y1122047D01*
D02*
G37*
G36*
X-1043308D02*
X-1081940D01*
X-1079471Y1112834D01*
X-1072971Y1101576D01*
X-1063779Y1092384D01*
X-1052522Y1085884D01*
X-1043308Y1083415D01*
Y1122047D01*
D02*
G37*
G36*
X1437008D02*
X1398376D01*
X1400845Y1112834D01*
X1407345Y1101576D01*
X1416537Y1092384D01*
X1427794Y1085884D01*
X1437008Y1083415D01*
Y1122047D01*
D02*
G37*
G36*
X1023622D02*
X984990D01*
X987459Y1112834D01*
X993959Y1101576D01*
X1003151Y1092384D01*
X1014409Y1085884D01*
X1023622Y1083415D01*
Y1122047D01*
D02*
G37*
G36*
X-216536D02*
X-255168D01*
X-252699Y1112834D01*
X-246199Y1101576D01*
X-237007Y1092384D01*
X-225750Y1085884D01*
X-216536Y1083415D01*
Y1122047D01*
D02*
G37*
G36*
X-629922D02*
X-668554D01*
X-666085Y1112834D01*
X-659585Y1101576D01*
X-650393Y1092384D01*
X-639135Y1085884D01*
X-629922Y1083415D01*
Y1122047D01*
D02*
G37*
G36*
X-1456692D02*
X-1495324D01*
X-1492855Y1112834D01*
X-1486355Y1101576D01*
X-1477163Y1092384D01*
X-1465906Y1085884D01*
X-1456692Y1083415D01*
Y1122047D01*
D02*
G37*
G36*
X610236D02*
X571604D01*
X574073Y1112834D01*
X580573Y1101576D01*
X589765Y1092384D01*
X601023Y1085884D01*
X610236Y1083415D01*
Y1122047D01*
D02*
G37*
G36*
X196850D02*
X158218D01*
X160687Y1112834D01*
X167187Y1101576D01*
X176379Y1092384D01*
X187637Y1085884D01*
X196850Y1083415D01*
Y1122047D01*
D02*
G37*
G36*
X300959Y1215551D02*
X291561D01*
X282879Y1211955D01*
X276234Y1205310D01*
X272638Y1196628D01*
Y1187230D01*
X276234Y1178548D01*
X282211Y1172572D01*
Y1062992D01*
X282166D01*
X283421Y1050258D01*
X287135Y1038013D01*
X293167Y1026727D01*
X301285Y1016836D01*
X311176Y1008718D01*
X322462Y1002686D01*
X334707Y998971D01*
X347441Y997717D01*
Y997761D01*
X627297D01*
X633273Y991785D01*
X641955Y988189D01*
X651352D01*
X660035Y991785D01*
X666680Y998430D01*
X670276Y1007112D01*
Y1016510D01*
X666680Y1025192D01*
X660035Y1031837D01*
X651352Y1035433D01*
X641955D01*
X633273Y1031837D01*
X627297Y1025861D01*
X347441D01*
X347174Y1025807D01*
X337808Y1027040D01*
X328831Y1030759D01*
X321123Y1036674D01*
X315208Y1044382D01*
X311489Y1053359D01*
X310256Y1062725D01*
X310310Y1062992D01*
Y1172572D01*
X316286Y1178548D01*
X319882Y1187230D01*
Y1196628D01*
X316286Y1205310D01*
X309641Y1211955D01*
X300959Y1215551D01*
D02*
G37*
G36*
X-1352585D02*
X-1361982D01*
X-1370664Y1211955D01*
X-1377309Y1205310D01*
X-1380906Y1196628D01*
Y1187230D01*
X-1377309Y1178548D01*
X-1371333Y1172572D01*
Y1062992D01*
X-1371377D01*
X-1370123Y1050258D01*
X-1366409Y1038013D01*
X-1360377Y1026727D01*
X-1352259Y1016836D01*
X-1342367Y1008718D01*
X-1331082Y1002686D01*
X-1318837Y998971D01*
X-1306102Y997717D01*
Y997761D01*
X-1026247D01*
X-1020271Y991785D01*
X-1011588Y988189D01*
X-1002191D01*
X-993509Y991785D01*
X-986864Y998430D01*
X-983268Y1007112D01*
Y1016510D01*
X-986864Y1025192D01*
X-993509Y1031837D01*
X-1002191Y1035433D01*
X-1011588D01*
X-1020271Y1031837D01*
X-1026247Y1025861D01*
X-1306102D01*
X-1306370Y1025807D01*
X-1315736Y1027040D01*
X-1324712Y1030759D01*
X-1332421Y1036674D01*
X-1338336Y1044382D01*
X-1342054Y1053359D01*
X-1343287Y1062725D01*
X-1343234Y1062992D01*
Y1172572D01*
X-1337258Y1178548D01*
X-1333661Y1187230D01*
Y1196628D01*
X-1337258Y1205310D01*
X-1343903Y1211955D01*
X-1352585Y1215551D01*
D02*
G37*
G36*
X442691Y1189960D02*
X433294D01*
X424612Y1186364D01*
X417967Y1179719D01*
X414370Y1171037D01*
Y1161640D01*
X417967Y1152958D01*
X424612Y1146313D01*
X433294Y1142716D01*
X442691D01*
X451373Y1146313D01*
X457349Y1152289D01*
X488189D01*
X488362Y1152323D01*
X494139Y1151174D01*
X499183Y1147804D01*
X502553Y1142761D01*
X503702Y1136984D01*
X503667Y1136811D01*
Y1119094D01*
X503594D01*
X504963Y1105202D01*
X509015Y1091844D01*
X515595Y1079533D01*
X524451Y1068742D01*
X535242Y1059886D01*
X547553Y1053306D01*
X560911Y1049254D01*
X574803Y1047886D01*
Y1047958D01*
X681496D01*
X682118Y1048082D01*
X698301Y1046488D01*
X714459Y1041586D01*
X729351Y1033627D01*
X742403Y1022915D01*
X753115Y1009862D01*
X761075Y994971D01*
X765976Y978812D01*
X767570Y962629D01*
X767447Y962008D01*
Y933727D01*
X761471Y927751D01*
X757874Y919069D01*
Y909671D01*
X761471Y900989D01*
X768115Y894344D01*
X776798Y890748D01*
X786195D01*
X794877Y894344D01*
X801522Y900989D01*
X805118Y909671D01*
Y919069D01*
X801522Y927751D01*
X795546Y933727D01*
Y962008D01*
X795628D01*
X794222Y979862D01*
X790042Y997276D01*
X783188Y1013822D01*
X773831Y1029093D01*
X762199Y1042711D01*
X748581Y1054342D01*
X733311Y1063700D01*
X716765Y1070553D01*
X699350Y1074734D01*
X681496Y1076139D01*
Y1076057D01*
X574803D01*
X574382Y1075974D01*
X563629Y1077389D01*
X553215Y1081703D01*
X544273Y1088564D01*
X537412Y1097506D01*
X533098Y1107920D01*
X531682Y1118673D01*
X531766Y1119094D01*
Y1136811D01*
X531870D01*
X530382Y1148116D01*
X526018Y1158651D01*
X519076Y1167698D01*
X510030Y1174640D01*
X499495Y1179003D01*
X488189Y1180492D01*
Y1180388D01*
X457349D01*
X451373Y1186364D01*
X442691Y1189960D01*
D02*
G37*
G36*
X-1210852D02*
X-1220250D01*
X-1228932Y1186364D01*
X-1235577Y1179719D01*
X-1239173Y1171037D01*
Y1161640D01*
X-1235577Y1152958D01*
X-1228932Y1146313D01*
X-1220250Y1142716D01*
X-1210852D01*
X-1202170Y1146313D01*
X-1196194Y1152289D01*
X-1165354D01*
X-1165182Y1152323D01*
X-1159405Y1151174D01*
X-1154361Y1147804D01*
X-1150991Y1142761D01*
X-1149842Y1136984D01*
X-1149876Y1136811D01*
Y1119094D01*
X-1149949D01*
X-1148581Y1105202D01*
X-1144529Y1091844D01*
X-1137948Y1079533D01*
X-1129093Y1068742D01*
X-1118302Y1059886D01*
X-1105991Y1053306D01*
X-1092632Y1049254D01*
X-1078740Y1047886D01*
Y1047958D01*
X-972047D01*
X-971426Y1048082D01*
X-955243Y1046488D01*
X-939085Y1041586D01*
X-924193Y1033627D01*
X-911140Y1022915D01*
X-900428Y1009862D01*
X-892469Y994971D01*
X-887567Y978812D01*
X-885973Y962629D01*
X-886097Y962008D01*
Y933727D01*
X-892073Y927751D01*
X-895669Y919069D01*
Y909671D01*
X-892073Y900989D01*
X-885428Y894344D01*
X-876746Y890748D01*
X-867349D01*
X-858667Y894344D01*
X-852021Y900989D01*
X-848425Y909671D01*
Y919069D01*
X-852021Y927751D01*
X-857998Y933727D01*
Y962008D01*
X-857916D01*
X-859321Y979862D01*
X-863502Y997276D01*
X-870356Y1013822D01*
X-879713Y1029093D01*
X-891344Y1042711D01*
X-904963Y1054342D01*
X-920233Y1063700D01*
X-936779Y1070553D01*
X-954193Y1074734D01*
X-972047Y1076139D01*
Y1076057D01*
X-1078740D01*
X-1079162Y1075974D01*
X-1089915Y1077389D01*
X-1100328Y1081703D01*
X-1109271Y1088564D01*
X-1116132Y1097506D01*
X-1120446Y1107920D01*
X-1121861Y1118673D01*
X-1121777Y1119094D01*
Y1136811D01*
X-1121674D01*
X-1123162Y1148116D01*
X-1127526Y1158651D01*
X-1134467Y1167698D01*
X-1143514Y1174640D01*
X-1154049Y1179003D01*
X-1165354Y1180492D01*
Y1180388D01*
X-1196194D01*
X-1202170Y1186364D01*
X-1210852Y1189960D01*
D02*
G37*
G36*
X1453070Y982284D02*
X1440631D01*
X1428615Y979064D01*
X1417842Y972845D01*
X1409046Y964048D01*
X1402826Y953275D01*
X1399607Y941260D01*
Y928820D01*
X1402826Y916804D01*
X1409046Y906031D01*
X1417842Y897235D01*
X1428615Y891015D01*
X1440631Y887796D01*
X1453070D01*
X1465086Y891015D01*
X1475859Y897235D01*
X1484655Y906031D01*
X1490875Y916804D01*
X1494095Y928820D01*
Y941260D01*
X1490875Y953275D01*
X1484655Y964048D01*
X1475859Y972845D01*
X1465086Y979064D01*
X1453070Y982284D01*
D02*
G37*
G36*
X1039684D02*
X1027245D01*
X1015229Y979064D01*
X1004456Y972845D01*
X995660Y964048D01*
X989440Y953275D01*
X986221Y941260D01*
Y928820D01*
X989440Y916804D01*
X995660Y906031D01*
X1004456Y897235D01*
X1015229Y891015D01*
X1027245Y887796D01*
X1039684D01*
X1051700Y891015D01*
X1062473Y897235D01*
X1071269Y906031D01*
X1077489Y916804D01*
X1080709Y928820D01*
Y941260D01*
X1077489Y953275D01*
X1071269Y964048D01*
X1062473Y972845D01*
X1051700Y979064D01*
X1039684Y982284D01*
D02*
G37*
G36*
X626298D02*
X613859D01*
X601843Y979064D01*
X591070Y972845D01*
X582274Y964048D01*
X576054Y953275D01*
X572835Y941260D01*
Y928820D01*
X576054Y916804D01*
X582274Y906031D01*
X591070Y897235D01*
X601843Y891015D01*
X613859Y887796D01*
X626298D01*
X638314Y891015D01*
X649087Y897235D01*
X657883Y906031D01*
X664103Y916804D01*
X667323Y928820D01*
Y941260D01*
X664103Y953275D01*
X657883Y964048D01*
X649087Y972845D01*
X638314Y979064D01*
X626298Y982284D01*
D02*
G37*
G36*
X212912D02*
X200473D01*
X188457Y979064D01*
X177684Y972845D01*
X168888Y964048D01*
X162668Y953275D01*
X159448Y941260D01*
Y928820D01*
X162668Y916804D01*
X168888Y906031D01*
X177684Y897235D01*
X188457Y891015D01*
X200473Y887796D01*
X212912D01*
X224928Y891015D01*
X235701Y897235D01*
X244497Y906031D01*
X250717Y916804D01*
X253937Y928820D01*
Y941260D01*
X250717Y953275D01*
X244497Y964048D01*
X235701Y972845D01*
X224928Y979064D01*
X212912Y982284D01*
D02*
G37*
G36*
X-200474D02*
X-212913D01*
X-224929Y979064D01*
X-235702Y972845D01*
X-244498Y964048D01*
X-250718Y953275D01*
X-253938Y941260D01*
Y928820D01*
X-250718Y916804D01*
X-244498Y906031D01*
X-235702Y897235D01*
X-224929Y891015D01*
X-212913Y887796D01*
X-200474D01*
X-188458Y891015D01*
X-177685Y897235D01*
X-168889Y906031D01*
X-162669Y916804D01*
X-159449Y928820D01*
Y941260D01*
X-162669Y953275D01*
X-168889Y964048D01*
X-177685Y972845D01*
X-188458Y979064D01*
X-200474Y982284D01*
D02*
G37*
G36*
X-613860D02*
X-626299D01*
X-638315Y979064D01*
X-649088Y972845D01*
X-657884Y964048D01*
X-664104Y953275D01*
X-667323Y941260D01*
Y928820D01*
X-664104Y916804D01*
X-657884Y906031D01*
X-649088Y897235D01*
X-638315Y891015D01*
X-626299Y887796D01*
X-613860D01*
X-601844Y891015D01*
X-591071Y897235D01*
X-582275Y906031D01*
X-576055Y916804D01*
X-572835Y928820D01*
Y941260D01*
X-576055Y953275D01*
X-582275Y964048D01*
X-591071Y972845D01*
X-601844Y979064D01*
X-613860Y982284D01*
D02*
G37*
G36*
X-1027246D02*
X-1039685D01*
X-1051701Y979064D01*
X-1062474Y972845D01*
X-1071270Y964048D01*
X-1077490Y953275D01*
X-1080709Y941260D01*
Y928820D01*
X-1077490Y916804D01*
X-1071270Y906031D01*
X-1062474Y897235D01*
X-1051701Y891015D01*
X-1039685Y887796D01*
X-1027246D01*
X-1015230Y891015D01*
X-1004457Y897235D01*
X-995661Y906031D01*
X-989441Y916804D01*
X-986221Y928820D01*
Y941260D01*
X-989441Y953275D01*
X-995661Y964048D01*
X-1004457Y972845D01*
X-1015230Y979064D01*
X-1027246Y982284D01*
D02*
G37*
G36*
X-1440630D02*
X-1453069D01*
X-1465085Y979064D01*
X-1475858Y972845D01*
X-1484654Y964048D01*
X-1490874Y953275D01*
X-1494093Y941260D01*
Y928820D01*
X-1490874Y916804D01*
X-1484654Y906031D01*
X-1475858Y897235D01*
X-1465085Y891015D01*
X-1453069Y887796D01*
X-1440630D01*
X-1428614Y891015D01*
X-1417841Y897235D01*
X-1409045Y906031D01*
X-1402825Y916804D01*
X-1399605Y928820D01*
Y941260D01*
X-1402825Y953275D01*
X-1409045Y964048D01*
X-1417841Y972845D01*
X-1428614Y979064D01*
X-1440630Y982284D01*
D02*
G37*
G36*
X1277337Y897638D02*
X1267939D01*
X1259257Y894042D01*
X1252612Y887396D01*
X1249016Y878714D01*
Y869317D01*
X1252612Y860635D01*
X1259257Y853990D01*
X1267939Y850394D01*
X1277337D01*
X1286019Y853990D01*
X1292664Y860635D01*
X1296260Y869317D01*
Y878714D01*
X1292664Y887396D01*
X1286019Y894042D01*
X1277337Y897638D01*
D02*
G37*
G36*
X450565D02*
X441168D01*
X432486Y894042D01*
X425841Y887396D01*
X422244Y878714D01*
Y869317D01*
X425841Y860635D01*
X432486Y853990D01*
X441168Y850394D01*
X450565D01*
X459247Y853990D01*
X465892Y860635D01*
X469488Y869317D01*
Y878714D01*
X465892Y887396D01*
X459247Y894042D01*
X450565Y897638D01*
D02*
G37*
G36*
X-376207D02*
X-385604D01*
X-394286Y894042D01*
X-400931Y887396D01*
X-404527Y878714D01*
Y869317D01*
X-400931Y860635D01*
X-394286Y853990D01*
X-385604Y850394D01*
X-376207D01*
X-367525Y853990D01*
X-360880Y860635D01*
X-357283Y869317D01*
Y878714D01*
X-360880Y887396D01*
X-367525Y894042D01*
X-376207Y897638D01*
D02*
G37*
G36*
X-1202978D02*
X-1212376D01*
X-1221058Y894042D01*
X-1227703Y887396D01*
X-1231299Y878714D01*
Y869317D01*
X-1227703Y860635D01*
X-1221058Y853990D01*
X-1212376Y850394D01*
X-1202978D01*
X-1194296Y853990D01*
X-1187651Y860635D01*
X-1184055Y869317D01*
Y878714D01*
X-1187651Y887396D01*
X-1194296Y894042D01*
X-1202978Y897638D01*
D02*
G37*
G36*
X0Y901945D02*
X-14666Y900501D01*
X-28768Y896223D01*
X-41764Y889276D01*
X-53156Y879927D01*
X-62505Y868536D01*
X-69451Y855539D01*
X-73729Y841437D01*
X-75174Y826772D01*
X-73729Y812106D01*
X-69451Y798004D01*
X-62505Y785007D01*
X-53156Y773616D01*
X-41764Y764267D01*
X-28768Y757320D01*
X-14666Y753042D01*
X0Y751598D01*
X14666Y753042D01*
X28768Y757320D01*
X41764Y764267D01*
X53156Y773616D01*
X62505Y785007D01*
X69451Y798004D01*
X73729Y812106D01*
X75174Y826772D01*
X73729Y841437D01*
X69451Y855539D01*
X62505Y868536D01*
X53156Y879927D01*
X41764Y889276D01*
X28768Y896223D01*
X14666Y900501D01*
X0Y901945D01*
D02*
G37*
G36*
X1456693Y766978D02*
Y728346D01*
X1495325D01*
X1492856Y737560D01*
X1486357Y748818D01*
X1477165Y758010D01*
X1465907Y764509D01*
X1456693Y766978D01*
D02*
G37*
G36*
X1043307D02*
Y728346D01*
X1081939D01*
X1079470Y737560D01*
X1072970Y748818D01*
X1063778Y758010D01*
X1052521Y764509D01*
X1043307Y766978D01*
D02*
G37*
G36*
X629921D02*
Y728346D01*
X668553D01*
X666084Y737560D01*
X659585Y748818D01*
X650393Y758010D01*
X639135Y764509D01*
X629921Y766978D01*
D02*
G37*
G36*
X216535D02*
Y728346D01*
X255167D01*
X252698Y737560D01*
X246198Y748818D01*
X237006Y758010D01*
X225749Y764509D01*
X216535Y766978D01*
D02*
G37*
G36*
X-196851D02*
Y728346D01*
X-158219D01*
X-160688Y737560D01*
X-167188Y748818D01*
X-176380Y758010D01*
X-187637Y764509D01*
X-196851Y766978D01*
D02*
G37*
G36*
X-610237D02*
Y728346D01*
X-571605D01*
X-574074Y737560D01*
X-580573Y748818D01*
X-589765Y758010D01*
X-601023Y764509D01*
X-610237Y766978D01*
D02*
G37*
G36*
X-1023623D02*
Y728346D01*
X-984991D01*
X-987460Y737560D01*
X-993960Y748818D01*
X-1003152Y758010D01*
X-1014409Y764509D01*
X-1023623Y766978D01*
D02*
G37*
G36*
X-1437007D02*
Y728346D01*
X-1398375D01*
X-1400844Y737560D01*
X-1407343Y748818D01*
X-1416535Y758010D01*
X-1427793Y764509D01*
X-1437007Y766978D01*
D02*
G37*
G36*
X1437008D02*
X1427794Y764509D01*
X1416537Y758010D01*
X1407345Y748818D01*
X1400845Y737560D01*
X1398376Y728346D01*
X1437008D01*
Y766978D01*
D02*
G37*
G36*
X1023622D02*
X1014409Y764509D01*
X1003151Y758010D01*
X993959Y748818D01*
X987459Y737560D01*
X984990Y728346D01*
X1023622D01*
Y766978D01*
D02*
G37*
G36*
X610236D02*
X601023Y764509D01*
X589765Y758010D01*
X580573Y748818D01*
X574073Y737560D01*
X571604Y728346D01*
X610236D01*
Y766978D01*
D02*
G37*
G36*
X196850D02*
X187637Y764509D01*
X176379Y758010D01*
X167187Y748818D01*
X160687Y737560D01*
X158218Y728346D01*
X196850D01*
Y766978D01*
D02*
G37*
G36*
X-216536D02*
X-225750Y764509D01*
X-237007Y758010D01*
X-246199Y748818D01*
X-252699Y737560D01*
X-255168Y728346D01*
X-216536D01*
Y766978D01*
D02*
G37*
G36*
X-629922D02*
X-639135Y764509D01*
X-650393Y758010D01*
X-659585Y748818D01*
X-666085Y737560D01*
X-668554Y728346D01*
X-629922D01*
Y766978D01*
D02*
G37*
G36*
X-1043308D02*
X-1052522Y764509D01*
X-1063779Y758010D01*
X-1072971Y748818D01*
X-1079471Y737560D01*
X-1081940Y728346D01*
X-1043308D01*
Y766978D01*
D02*
G37*
G36*
X-1456692D02*
X-1465906Y764509D01*
X-1477163Y758010D01*
X-1486355Y748818D01*
X-1492855Y737560D01*
X-1495324Y728346D01*
X-1456692D01*
Y766978D01*
D02*
G37*
G36*
X668553Y708661D02*
X629921D01*
Y670029D01*
X639135Y672498D01*
X650393Y678998D01*
X659585Y688190D01*
X666084Y699448D01*
X668553Y708661D01*
D02*
G37*
G36*
X255167D02*
X216535D01*
Y670029D01*
X225749Y672498D01*
X237006Y678998D01*
X246198Y688190D01*
X252698Y699448D01*
X255167Y708661D01*
D02*
G37*
G36*
X1495325D02*
X1456693D01*
Y670029D01*
X1465907Y672498D01*
X1477165Y678998D01*
X1486357Y688190D01*
X1492856Y699448D01*
X1495325Y708661D01*
D02*
G37*
G36*
X1081939D02*
X1043307D01*
Y670029D01*
X1052521Y672498D01*
X1063778Y678998D01*
X1072970Y688190D01*
X1079470Y699448D01*
X1081939Y708661D01*
D02*
G37*
G36*
X-158219D02*
X-196851D01*
Y670029D01*
X-187637Y672498D01*
X-176380Y678998D01*
X-167188Y688190D01*
X-160688Y699448D01*
X-158219Y708661D01*
D02*
G37*
G36*
X-571605D02*
X-610237D01*
Y670029D01*
X-601023Y672498D01*
X-589765Y678998D01*
X-580573Y688190D01*
X-574074Y699448D01*
X-571605Y708661D01*
D02*
G37*
G36*
X-984991D02*
X-1023623D01*
Y670029D01*
X-1014409Y672498D01*
X-1003152Y678998D01*
X-993960Y688190D01*
X-987460Y699448D01*
X-984991Y708661D01*
D02*
G37*
G36*
X-1398375D02*
X-1437007D01*
Y670029D01*
X-1427793Y672498D01*
X-1416535Y678998D01*
X-1407343Y688190D01*
X-1400844Y699448D01*
X-1398375Y708661D01*
D02*
G37*
G36*
X1437008D02*
X1398376D01*
X1400845Y699448D01*
X1407345Y688190D01*
X1416537Y678998D01*
X1427794Y672498D01*
X1437008Y670029D01*
Y708661D01*
D02*
G37*
G36*
X1023622D02*
X984990D01*
X987459Y699448D01*
X993959Y688190D01*
X1003151Y678998D01*
X1014409Y672498D01*
X1023622Y670029D01*
Y708661D01*
D02*
G37*
G36*
X-216536D02*
X-255168D01*
X-252699Y699448D01*
X-246199Y688190D01*
X-237007Y678998D01*
X-225750Y672498D01*
X-216536Y670029D01*
Y708661D01*
D02*
G37*
G36*
X-629922D02*
X-668554D01*
X-666085Y699448D01*
X-659585Y688190D01*
X-650393Y678998D01*
X-639135Y672498D01*
X-629922Y670029D01*
Y708661D01*
D02*
G37*
G36*
X-1043308D02*
X-1081940D01*
X-1079471Y699448D01*
X-1072971Y688190D01*
X-1063779Y678998D01*
X-1052522Y672498D01*
X-1043308Y670029D01*
Y708661D01*
D02*
G37*
G36*
X-1456692D02*
X-1495324D01*
X-1492855Y699448D01*
X-1486355Y688190D01*
X-1477163Y678998D01*
X-1465906Y672498D01*
X-1456692Y670029D01*
Y708661D01*
D02*
G37*
G36*
X610236D02*
X571604D01*
X574073Y699448D01*
X580573Y688190D01*
X589765Y678998D01*
X601023Y672498D01*
X610236Y670029D01*
Y708661D01*
D02*
G37*
G36*
X196850D02*
X158218D01*
X160687Y699448D01*
X167187Y688190D01*
X176379Y678998D01*
X187637Y672498D01*
X196850Y670029D01*
Y708661D01*
D02*
G37*
G36*
X624778Y614173D02*
X615380D01*
X606698Y610577D01*
X600722Y604601D01*
X433662D01*
Y604683D01*
X415808Y603277D01*
X398393Y599096D01*
X381847Y592243D01*
X366577Y582885D01*
X352959Y571254D01*
X341327Y557636D01*
X331970Y542366D01*
X325116Y525820D01*
X320935Y508405D01*
X319530Y490551D01*
X319612D01*
Y402559D01*
X319724Y401998D01*
X318041Y393537D01*
X314129Y387683D01*
X309641Y385183D01*
X300959Y388779D01*
X291561D01*
X282879Y385183D01*
X276234Y378538D01*
X272638Y369856D01*
Y360459D01*
X276234Y351776D01*
X282879Y345132D01*
X291561Y341535D01*
X300959D01*
X309641Y345132D01*
X316286Y351776D01*
X318126Y356218D01*
X322071Y357852D01*
X332763Y366056D01*
X340967Y376748D01*
X346124Y389198D01*
X347883Y402559D01*
X347711D01*
Y490551D01*
X347588Y491173D01*
X349182Y507355D01*
X354083Y523514D01*
X362043Y538405D01*
X372755Y551458D01*
X385808Y562170D01*
X400699Y570130D01*
X416858Y575031D01*
X433040Y576625D01*
X433662Y576502D01*
X600722D01*
X605412Y571811D01*
X604567Y566408D01*
X601843Y565678D01*
X591070Y559458D01*
X582274Y550662D01*
X576054Y539889D01*
X572835Y527874D01*
Y515434D01*
X576054Y503418D01*
X582274Y492645D01*
X591070Y483849D01*
X601843Y477629D01*
X613859Y474410D01*
X626298D01*
X638314Y477629D01*
X649087Y483849D01*
X657883Y492645D01*
X664103Y503418D01*
X667323Y515434D01*
Y527874D01*
X664103Y539889D01*
X657883Y550662D01*
X649087Y559458D01*
X638314Y565678D01*
X635591Y566408D01*
X634745Y571811D01*
X640105Y577170D01*
X643701Y585852D01*
Y595250D01*
X640105Y603932D01*
X633460Y610577D01*
X624778Y614173D01*
D02*
G37*
G36*
X-1028766D02*
X-1038163D01*
X-1046845Y610577D01*
X-1052822Y604601D01*
X-1219882D01*
Y604683D01*
X-1237736Y603277D01*
X-1255150Y599096D01*
X-1271696Y592243D01*
X-1286967Y582885D01*
X-1300585Y571254D01*
X-1312216Y557636D01*
X-1321574Y542366D01*
X-1328427Y525820D01*
X-1332608Y508405D01*
X-1334013Y490551D01*
X-1333931D01*
Y402559D01*
X-1333820Y401998D01*
X-1335503Y393537D01*
X-1339414Y387683D01*
X-1343903Y385183D01*
X-1352585Y388779D01*
X-1361982D01*
X-1370664Y385183D01*
X-1377309Y378538D01*
X-1380906Y369856D01*
Y360459D01*
X-1377309Y351776D01*
X-1370664Y345132D01*
X-1361982Y341535D01*
X-1352585D01*
X-1343903Y345132D01*
X-1337258Y351776D01*
X-1335418Y356218D01*
X-1331472Y357852D01*
X-1320781Y366056D01*
X-1312577Y376748D01*
X-1307420Y389198D01*
X-1305661Y402559D01*
X-1305832D01*
Y490551D01*
X-1305956Y491173D01*
X-1304362Y507355D01*
X-1299460Y523514D01*
X-1291501Y538405D01*
X-1280789Y551458D01*
X-1267736Y562170D01*
X-1252844Y570130D01*
X-1236686Y575031D01*
X-1220503Y576625D01*
X-1219882Y576502D01*
X-1052822D01*
X-1048131Y571811D01*
X-1048977Y566408D01*
X-1051701Y565678D01*
X-1062474Y559458D01*
X-1071270Y550662D01*
X-1077490Y539889D01*
X-1080709Y527874D01*
Y515434D01*
X-1077490Y503418D01*
X-1071270Y492645D01*
X-1062474Y483849D01*
X-1051701Y477629D01*
X-1039685Y474410D01*
X-1027246D01*
X-1015230Y477629D01*
X-1004457Y483849D01*
X-995661Y492645D01*
X-989441Y503418D01*
X-986221Y515434D01*
Y527874D01*
X-989441Y539889D01*
X-995661Y550662D01*
X-1004457Y559458D01*
X-1015230Y565678D01*
X-1017953Y566408D01*
X-1018798Y571811D01*
X-1013439Y577170D01*
X-1009843Y585852D01*
Y595250D01*
X-1013439Y603932D01*
X-1020084Y610577D01*
X-1028766Y614173D01*
D02*
G37*
G36*
X1453070Y568898D02*
X1440631D01*
X1428615Y565678D01*
X1417842Y559458D01*
X1409046Y550662D01*
X1402826Y539889D01*
X1399607Y527874D01*
Y515434D01*
X1402826Y503418D01*
X1409046Y492645D01*
X1417842Y483849D01*
X1428615Y477629D01*
X1440631Y474410D01*
X1453070D01*
X1465086Y477629D01*
X1475859Y483849D01*
X1484655Y492645D01*
X1490875Y503418D01*
X1494095Y515434D01*
Y527874D01*
X1490875Y539889D01*
X1484655Y550662D01*
X1475859Y559458D01*
X1465086Y565678D01*
X1453070Y568898D01*
D02*
G37*
G36*
X1039684D02*
X1027245D01*
X1015229Y565678D01*
X1004456Y559458D01*
X995660Y550662D01*
X989440Y539889D01*
X986221Y527874D01*
Y515434D01*
X989440Y503418D01*
X995660Y492645D01*
X1004456Y483849D01*
X1015229Y477629D01*
X1027245Y474410D01*
X1039684D01*
X1051700Y477629D01*
X1062473Y483849D01*
X1071269Y492645D01*
X1077489Y503418D01*
X1080709Y515434D01*
Y527874D01*
X1077489Y539889D01*
X1071269Y550662D01*
X1062473Y559458D01*
X1051700Y565678D01*
X1039684Y568898D01*
D02*
G37*
G36*
X212912D02*
X200473D01*
X188457Y565678D01*
X177684Y559458D01*
X168888Y550662D01*
X162668Y539889D01*
X159448Y527874D01*
Y515434D01*
X162668Y503418D01*
X168888Y492645D01*
X177684Y483849D01*
X188457Y477629D01*
X200473Y474410D01*
X212912D01*
X224928Y477629D01*
X235701Y483849D01*
X244497Y492645D01*
X250717Y503418D01*
X253937Y515434D01*
Y527874D01*
X250717Y539889D01*
X244497Y550662D01*
X235701Y559458D01*
X224928Y565678D01*
X212912Y568898D01*
D02*
G37*
G36*
X-200474D02*
X-212913D01*
X-224929Y565678D01*
X-235702Y559458D01*
X-244498Y550662D01*
X-250718Y539889D01*
X-253938Y527874D01*
Y515434D01*
X-250718Y503418D01*
X-244498Y492645D01*
X-235702Y483849D01*
X-224929Y477629D01*
X-212913Y474410D01*
X-200474D01*
X-188458Y477629D01*
X-177685Y483849D01*
X-168889Y492645D01*
X-162669Y503418D01*
X-159449Y515434D01*
Y527874D01*
X-162669Y539889D01*
X-168889Y550662D01*
X-177685Y559458D01*
X-188458Y565678D01*
X-200474Y568898D01*
D02*
G37*
G36*
X-613860D02*
X-626299D01*
X-638315Y565678D01*
X-649088Y559458D01*
X-657884Y550662D01*
X-664104Y539889D01*
X-667323Y527874D01*
Y515434D01*
X-664104Y503418D01*
X-657884Y492645D01*
X-649088Y483849D01*
X-638315Y477629D01*
X-626299Y474410D01*
X-613860D01*
X-601844Y477629D01*
X-591071Y483849D01*
X-582275Y492645D01*
X-576055Y503418D01*
X-572835Y515434D01*
Y527874D01*
X-576055Y539889D01*
X-582275Y550662D01*
X-591071Y559458D01*
X-601844Y565678D01*
X-613860Y568898D01*
D02*
G37*
G36*
X-1440630D02*
X-1453069D01*
X-1465085Y565678D01*
X-1475858Y559458D01*
X-1484654Y550662D01*
X-1490874Y539889D01*
X-1494093Y527874D01*
Y515434D01*
X-1490874Y503418D01*
X-1484654Y492645D01*
X-1475858Y483849D01*
X-1465085Y477629D01*
X-1453069Y474410D01*
X-1440630D01*
X-1428614Y477629D01*
X-1417841Y483849D01*
X-1409045Y492645D01*
X-1402825Y503418D01*
X-1399605Y515434D01*
Y527874D01*
X-1402825Y539889D01*
X-1409045Y550662D01*
X-1417841Y559458D01*
X-1428614Y565678D01*
X-1440630Y568898D01*
D02*
G37*
G36*
X1277337Y484252D02*
X1267939D01*
X1259257Y480656D01*
X1252612Y474011D01*
X1249016Y465329D01*
Y455931D01*
X1252612Y447249D01*
X1259257Y440604D01*
X1267939Y437008D01*
X1277337D01*
X1286019Y440604D01*
X1292664Y447249D01*
X1296260Y455931D01*
Y465329D01*
X1292664Y474011D01*
X1286019Y480656D01*
X1277337Y484252D01*
D02*
G37*
G36*
X450565D02*
X441168D01*
X432486Y480656D01*
X425841Y474011D01*
X422244Y465329D01*
Y455931D01*
X425841Y447249D01*
X432486Y440604D01*
X441168Y437008D01*
X450565D01*
X459247Y440604D01*
X465892Y447249D01*
X469488Y455931D01*
Y465329D01*
X465892Y474011D01*
X459247Y480656D01*
X450565Y484252D01*
D02*
G37*
G36*
X-376207D02*
X-385604D01*
X-394286Y480656D01*
X-400931Y474011D01*
X-404527Y465329D01*
Y455931D01*
X-400931Y447249D01*
X-394286Y440604D01*
X-385604Y437008D01*
X-376207D01*
X-367525Y440604D01*
X-360880Y447249D01*
X-357283Y455931D01*
Y465329D01*
X-360880Y474011D01*
X-367525Y480656D01*
X-376207Y484252D01*
D02*
G37*
G36*
X-1202978D02*
X-1212376D01*
X-1221058Y480656D01*
X-1227703Y474011D01*
X-1231299Y465329D01*
Y455931D01*
X-1227703Y447249D01*
X-1221058Y440604D01*
X-1212376Y437008D01*
X-1202978D01*
X-1194296Y440604D01*
X-1187651Y447249D01*
X-1184055Y455931D01*
Y465329D01*
X-1187651Y474011D01*
X-1194296Y480656D01*
X-1202978Y484252D01*
D02*
G37*
G36*
X1027337Y627953D02*
X1017939D01*
X1009257Y624356D01*
X1002612Y617712D01*
X999016Y609029D01*
Y599632D01*
X1002612Y590950D01*
X1009257Y584305D01*
X1017939Y580709D01*
X1027337D01*
X1036019Y584305D01*
X1041995Y590281D01*
X1115552D01*
X1116173Y590405D01*
X1132356Y588811D01*
X1148514Y583909D01*
X1163406Y575950D01*
X1176458Y565238D01*
X1187170Y552185D01*
X1195130Y537293D01*
X1200032Y521135D01*
X1201626Y504952D01*
X1201502Y504331D01*
Y388779D01*
X1201467D01*
X1202683Y376431D01*
X1206285Y364557D01*
X1212135Y353613D01*
X1220006Y344022D01*
X1229598Y336150D01*
X1240542Y330301D01*
X1243392Y329436D01*
X1244738Y326186D01*
X1251383Y319541D01*
X1260065Y315945D01*
X1269463D01*
X1278145Y319541D01*
X1284790Y326186D01*
X1288386Y334868D01*
Y344265D01*
X1284790Y352947D01*
X1278145Y359592D01*
X1269463Y363189D01*
X1260065D01*
X1251383Y359592D01*
X1249204Y357413D01*
X1247147Y358265D01*
X1239850Y363865D01*
X1234250Y371162D01*
X1230730Y379660D01*
X1229558Y388563D01*
X1229601Y388779D01*
Y504331D01*
X1229683D01*
X1228278Y522185D01*
X1224097Y539599D01*
X1217243Y556145D01*
X1207886Y571415D01*
X1196255Y585034D01*
X1182636Y596665D01*
X1167366Y606022D01*
X1150820Y612876D01*
X1133406Y617057D01*
X1115552Y618462D01*
Y618380D01*
X1041995D01*
X1036019Y624356D01*
X1027337Y627953D01*
D02*
G37*
G36*
X-626207D02*
X-635604D01*
X-644286Y624356D01*
X-650931Y617712D01*
X-654528Y609029D01*
Y599632D01*
X-650931Y590950D01*
X-644286Y584305D01*
X-635604Y580709D01*
X-626207D01*
X-617525Y584305D01*
X-611548Y590281D01*
X-537992D01*
X-537371Y590405D01*
X-521188Y588811D01*
X-505029Y583909D01*
X-490138Y575950D01*
X-477085Y565238D01*
X-466373Y552185D01*
X-458413Y537293D01*
X-453512Y521135D01*
X-451918Y504952D01*
X-452042Y504331D01*
Y388779D01*
X-452076D01*
X-450860Y376431D01*
X-447258Y364557D01*
X-441409Y353613D01*
X-433537Y344022D01*
X-423945Y336150D01*
X-413002Y330301D01*
X-410151Y329436D01*
X-408805Y326186D01*
X-402160Y319541D01*
X-393478Y315945D01*
X-384081D01*
X-375399Y319541D01*
X-368754Y326186D01*
X-365157Y334868D01*
Y344265D01*
X-368754Y352947D01*
X-375399Y359592D01*
X-384081Y363189D01*
X-393478D01*
X-402160Y359592D01*
X-404339Y357413D01*
X-406397Y358265D01*
X-413694Y363865D01*
X-419293Y371162D01*
X-422813Y379660D01*
X-423986Y388563D01*
X-423943Y388779D01*
Y504331D01*
X-423861D01*
X-425266Y522185D01*
X-429447Y539599D01*
X-436300Y556145D01*
X-445658Y571415D01*
X-457289Y585034D01*
X-470907Y596665D01*
X-486178Y606022D01*
X-502724Y612876D01*
X-520138Y617057D01*
X-537992Y618462D01*
Y618380D01*
X-611548D01*
X-617525Y624356D01*
X-626207Y627953D01*
D02*
G37*
G36*
X1456693Y353592D02*
Y314960D01*
X1495325D01*
X1492856Y324174D01*
X1486357Y335432D01*
X1477165Y344624D01*
X1465907Y351123D01*
X1456693Y353592D01*
D02*
G37*
G36*
X1043307D02*
Y314960D01*
X1081939D01*
X1079470Y324174D01*
X1072970Y335432D01*
X1063778Y344624D01*
X1052521Y351123D01*
X1043307Y353592D01*
D02*
G37*
G36*
X629921D02*
Y314960D01*
X668553D01*
X666084Y324174D01*
X659585Y335432D01*
X650393Y344624D01*
X639135Y351123D01*
X629921Y353592D01*
D02*
G37*
G36*
X216535D02*
Y314960D01*
X255167D01*
X252698Y324174D01*
X246198Y335432D01*
X237006Y344624D01*
X225749Y351123D01*
X216535Y353592D01*
D02*
G37*
G36*
X-196851D02*
Y314960D01*
X-158219D01*
X-160688Y324174D01*
X-167188Y335432D01*
X-176380Y344624D01*
X-187637Y351123D01*
X-196851Y353592D01*
D02*
G37*
G36*
X-610237D02*
Y314960D01*
X-571605D01*
X-574074Y324174D01*
X-580573Y335432D01*
X-589765Y344624D01*
X-601023Y351123D01*
X-610237Y353592D01*
D02*
G37*
G36*
X-1023623D02*
Y314960D01*
X-984991D01*
X-987460Y324174D01*
X-993960Y335432D01*
X-1003152Y344624D01*
X-1014409Y351123D01*
X-1023623Y353592D01*
D02*
G37*
G36*
X-1437007D02*
Y314960D01*
X-1398375D01*
X-1400844Y324174D01*
X-1407343Y335432D01*
X-1416535Y344624D01*
X-1427793Y351123D01*
X-1437007Y353592D01*
D02*
G37*
G36*
X-216536D02*
X-225750Y351123D01*
X-237007Y344624D01*
X-246199Y335432D01*
X-252699Y324174D01*
X-255168Y314960D01*
X-216536D01*
Y353592D01*
D02*
G37*
G36*
X-629922D02*
X-639135Y351123D01*
X-650393Y344624D01*
X-659585Y335432D01*
X-666085Y324174D01*
X-668554Y314960D01*
X-629922D01*
Y353592D01*
D02*
G37*
G36*
X-1456692D02*
X-1465906Y351123D01*
X-1477163Y344624D01*
X-1486355Y335432D01*
X-1492855Y324174D01*
X-1495324Y314960D01*
X-1456692D01*
Y353592D01*
D02*
G37*
G36*
X-1043308D02*
X-1052522Y351123D01*
X-1063779Y344624D01*
X-1072971Y335432D01*
X-1079471Y324174D01*
X-1081940Y314960D01*
X-1043308D01*
Y353592D01*
D02*
G37*
G36*
X1437008D02*
X1427794Y351123D01*
X1416537Y344624D01*
X1407345Y335432D01*
X1400845Y324174D01*
X1398376Y314960D01*
X1437008D01*
Y353592D01*
D02*
G37*
G36*
X1023622D02*
X1014409Y351123D01*
X1003151Y344624D01*
X993959Y335432D01*
X987459Y324174D01*
X984990Y314960D01*
X1023622D01*
Y353592D01*
D02*
G37*
G36*
X610236D02*
X601023Y351123D01*
X589765Y344624D01*
X580573Y335432D01*
X574073Y324174D01*
X571604Y314960D01*
X610236D01*
Y353592D01*
D02*
G37*
G36*
X196850D02*
X187637Y351123D01*
X176379Y344624D01*
X167187Y335432D01*
X160687Y324174D01*
X158218Y314960D01*
X196850D01*
Y353592D01*
D02*
G37*
G36*
X922970Y350394D02*
X913641D01*
X904629Y347979D01*
X896549Y343314D01*
X889952Y336717D01*
X885287Y328637D01*
X882872Y319625D01*
Y310296D01*
X885287Y301284D01*
X889952Y293204D01*
X896549Y286607D01*
X904629Y281942D01*
X913641Y279528D01*
X922970D01*
X931982Y281942D01*
X940062Y286607D01*
X946659Y293204D01*
X951324Y301284D01*
X953739Y310296D01*
Y319625D01*
X951324Y328637D01*
X946659Y336717D01*
X940062Y343314D01*
X931982Y347979D01*
X922970Y350394D01*
D02*
G37*
G36*
X-731556D02*
X-740885D01*
X-749897Y347979D01*
X-757977Y343314D01*
X-764574Y336717D01*
X-769239Y328637D01*
X-771654Y319625D01*
Y310296D01*
X-769239Y301284D01*
X-764574Y293204D01*
X-757977Y286607D01*
X-749897Y281942D01*
X-740885Y279528D01*
X-731556D01*
X-722544Y281942D01*
X-714464Y286607D01*
X-707867Y293204D01*
X-703202Y301284D01*
X-700788Y310296D01*
Y319625D01*
X-703202Y328637D01*
X-707867Y336717D01*
X-714464Y343314D01*
X-722544Y347979D01*
X-731556Y350394D01*
D02*
G37*
G36*
X1081939Y295275D02*
X1043307D01*
Y256643D01*
X1052521Y259112D01*
X1063778Y265612D01*
X1072970Y274804D01*
X1079470Y286062D01*
X1081939Y295275D01*
D02*
G37*
G36*
X668553D02*
X629921D01*
Y256643D01*
X639135Y259112D01*
X650393Y265612D01*
X659585Y274804D01*
X666084Y286062D01*
X668553Y295275D01*
D02*
G37*
G36*
X255167D02*
X216535D01*
Y256643D01*
X225749Y259112D01*
X237006Y265612D01*
X246198Y274804D01*
X252698Y286062D01*
X255167Y295275D01*
D02*
G37*
G36*
X-984991D02*
X-1023623D01*
Y256643D01*
X-1014409Y259112D01*
X-1003152Y265612D01*
X-993960Y274804D01*
X-987460Y286062D01*
X-984991Y295275D01*
D02*
G37*
G36*
X-571605D02*
X-610237D01*
Y256643D01*
X-601023Y259112D01*
X-589765Y265612D01*
X-580573Y274804D01*
X-574074Y286062D01*
X-571605Y295275D01*
D02*
G37*
G36*
X1495325D02*
X1456693D01*
Y256643D01*
X1465907Y259112D01*
X1477165Y265612D01*
X1486357Y274804D01*
X1492856Y286062D01*
X1495325Y295275D01*
D02*
G37*
G36*
X-158219D02*
X-196851D01*
Y256643D01*
X-187637Y259112D01*
X-176380Y265612D01*
X-167188Y274804D01*
X-160688Y286062D01*
X-158219Y295275D01*
D02*
G37*
G36*
X-1398375D02*
X-1437007D01*
Y256643D01*
X-1427793Y259112D01*
X-1416535Y265612D01*
X-1407343Y274804D01*
X-1400844Y286062D01*
X-1398375Y295275D01*
D02*
G37*
G36*
X1437008D02*
X1398376D01*
X1400845Y286062D01*
X1407345Y274804D01*
X1416537Y265612D01*
X1427794Y259112D01*
X1437008Y256643D01*
Y295275D01*
D02*
G37*
G36*
X-216536D02*
X-255168D01*
X-252699Y286062D01*
X-246199Y274804D01*
X-237007Y265612D01*
X-225750Y259112D01*
X-216536Y256643D01*
Y295275D01*
D02*
G37*
G36*
X-1456692D02*
X-1495324D01*
X-1492855Y286062D01*
X-1486355Y274804D01*
X-1477163Y265612D01*
X-1465906Y259112D01*
X-1456692Y256643D01*
Y295275D01*
D02*
G37*
G36*
X-629922D02*
X-668554D01*
X-666085Y286062D01*
X-659585Y274804D01*
X-650393Y265612D01*
X-639135Y259112D01*
X-629922Y256643D01*
Y295275D01*
D02*
G37*
G36*
X1023622D02*
X984990D01*
X987459Y286062D01*
X993959Y274804D01*
X1003151Y265612D01*
X1014409Y259112D01*
X1023622Y256643D01*
Y295275D01*
D02*
G37*
G36*
X610236D02*
X571604D01*
X574073Y286062D01*
X580573Y274804D01*
X589765Y265612D01*
X601023Y259112D01*
X610236Y256643D01*
Y295275D01*
D02*
G37*
G36*
X196850D02*
X158218D01*
X160687Y286062D01*
X167187Y274804D01*
X176379Y265612D01*
X187637Y259112D01*
X196850Y256643D01*
Y295275D01*
D02*
G37*
G36*
X-1043308D02*
X-1081940D01*
X-1079471Y286062D01*
X-1072971Y274804D01*
X-1063779Y265612D01*
X-1052522Y259112D01*
X-1043308Y256643D01*
Y295275D01*
D02*
G37*
G36*
X1453070Y155512D02*
X1440631D01*
X1428615Y152292D01*
X1417842Y146072D01*
X1409046Y137276D01*
X1402826Y126503D01*
X1399607Y114488D01*
Y102048D01*
X1402826Y90032D01*
X1409046Y79259D01*
X1417842Y70463D01*
X1428615Y64243D01*
X1440631Y61024D01*
X1453070D01*
X1465086Y64243D01*
X1475859Y70463D01*
X1484655Y79259D01*
X1490875Y90032D01*
X1494095Y102048D01*
Y114488D01*
X1490875Y126503D01*
X1484655Y137276D01*
X1475859Y146072D01*
X1465086Y152292D01*
X1453070Y155512D01*
D02*
G37*
G36*
X1039684D02*
X1027245D01*
X1015229Y152292D01*
X1004456Y146072D01*
X995660Y137276D01*
X989440Y126503D01*
X986221Y114488D01*
Y102048D01*
X989440Y90032D01*
X995660Y79259D01*
X1004456Y70463D01*
X1015229Y64243D01*
X1027245Y61024D01*
X1039684D01*
X1051700Y64243D01*
X1062473Y70463D01*
X1071269Y79259D01*
X1077489Y90032D01*
X1080709Y102048D01*
Y114488D01*
X1077489Y126503D01*
X1071269Y137276D01*
X1062473Y146072D01*
X1051700Y152292D01*
X1039684Y155512D01*
D02*
G37*
G36*
X626298D02*
X613859D01*
X601843Y152292D01*
X591070Y146072D01*
X582274Y137276D01*
X576054Y126503D01*
X572835Y114488D01*
Y102048D01*
X576054Y90032D01*
X582274Y79259D01*
X591070Y70463D01*
X601843Y64243D01*
X613859Y61024D01*
X626298D01*
X638314Y64243D01*
X649087Y70463D01*
X657883Y79259D01*
X664103Y90032D01*
X667323Y102048D01*
Y114488D01*
X664103Y126503D01*
X657883Y137276D01*
X649087Y146072D01*
X638314Y152292D01*
X626298Y155512D01*
D02*
G37*
G36*
X212912D02*
X200473D01*
X188457Y152292D01*
X177684Y146072D01*
X168888Y137276D01*
X162668Y126503D01*
X159448Y114488D01*
Y102048D01*
X162668Y90032D01*
X168888Y79259D01*
X177684Y70463D01*
X188457Y64243D01*
X200473Y61024D01*
X212912D01*
X224928Y64243D01*
X235701Y70463D01*
X244497Y79259D01*
X250717Y90032D01*
X253937Y102048D01*
Y114488D01*
X250717Y126503D01*
X244497Y137276D01*
X235701Y146072D01*
X224928Y152292D01*
X212912Y155512D01*
D02*
G37*
G36*
X-200474D02*
X-212913D01*
X-224929Y152292D01*
X-235702Y146072D01*
X-244498Y137276D01*
X-250718Y126503D01*
X-253938Y114488D01*
Y102048D01*
X-250718Y90032D01*
X-244498Y79259D01*
X-235702Y70463D01*
X-224929Y64243D01*
X-212913Y61024D01*
X-200474D01*
X-188458Y64243D01*
X-177685Y70463D01*
X-168889Y79259D01*
X-162669Y90032D01*
X-159449Y102048D01*
Y114488D01*
X-162669Y126503D01*
X-168889Y137276D01*
X-177685Y146072D01*
X-188458Y152292D01*
X-200474Y155512D01*
D02*
G37*
G36*
X-613860D02*
X-626299D01*
X-638315Y152292D01*
X-649088Y146072D01*
X-657884Y137276D01*
X-664104Y126503D01*
X-667323Y114488D01*
Y102048D01*
X-664104Y90032D01*
X-657884Y79259D01*
X-649088Y70463D01*
X-638315Y64243D01*
X-626299Y61024D01*
X-613860D01*
X-601844Y64243D01*
X-591071Y70463D01*
X-582275Y79259D01*
X-576055Y90032D01*
X-572835Y102048D01*
Y114488D01*
X-576055Y126503D01*
X-582275Y137276D01*
X-591071Y146072D01*
X-601844Y152292D01*
X-613860Y155512D01*
D02*
G37*
G36*
X-1027246D02*
X-1039685D01*
X-1051701Y152292D01*
X-1062474Y146072D01*
X-1071270Y137276D01*
X-1077490Y126503D01*
X-1080709Y114488D01*
Y102048D01*
X-1077490Y90032D01*
X-1071270Y79259D01*
X-1062474Y70463D01*
X-1051701Y64243D01*
X-1039685Y61024D01*
X-1027246D01*
X-1015230Y64243D01*
X-1004457Y70463D01*
X-995661Y79259D01*
X-989441Y90032D01*
X-986221Y102048D01*
Y114488D01*
X-989441Y126503D01*
X-995661Y137276D01*
X-1004457Y146072D01*
X-1015230Y152292D01*
X-1027246Y155512D01*
D02*
G37*
G36*
X-1440630D02*
X-1453069D01*
X-1465085Y152292D01*
X-1475858Y146072D01*
X-1484654Y137276D01*
X-1490874Y126503D01*
X-1494093Y114488D01*
Y102048D01*
X-1490874Y90032D01*
X-1484654Y79259D01*
X-1475858Y70463D01*
X-1465085Y64243D01*
X-1453069Y61024D01*
X-1440630D01*
X-1428614Y64243D01*
X-1417841Y70463D01*
X-1409045Y79259D01*
X-1402825Y90032D01*
X-1399605Y102048D01*
Y114488D01*
X-1402825Y126503D01*
X-1409045Y137276D01*
X-1417841Y146072D01*
X-1428614Y152292D01*
X-1440630Y155512D01*
D02*
G37*
G36*
X1277337Y70866D02*
X1267939D01*
X1259257Y67270D01*
X1252612Y60625D01*
X1249016Y51943D01*
Y42545D01*
X1252612Y33863D01*
X1259257Y27218D01*
X1267939Y23622D01*
X1277337D01*
X1286019Y27218D01*
X1292664Y33863D01*
X1296260Y42545D01*
Y51943D01*
X1292664Y60625D01*
X1286019Y67270D01*
X1277337Y70866D01*
D02*
G37*
G36*
X450565D02*
X441168D01*
X432486Y67270D01*
X425841Y60625D01*
X422244Y51943D01*
Y42545D01*
X425841Y33863D01*
X432486Y27218D01*
X441168Y23622D01*
X450565D01*
X459247Y27218D01*
X465892Y33863D01*
X469488Y42545D01*
Y51943D01*
X465892Y60625D01*
X459247Y67270D01*
X450565Y70866D01*
D02*
G37*
G36*
X-376207D02*
X-385604D01*
X-394286Y67270D01*
X-400931Y60625D01*
X-404527Y51943D01*
Y42545D01*
X-400931Y33863D01*
X-394286Y27218D01*
X-385604Y23622D01*
X-376207D01*
X-367525Y27218D01*
X-360880Y33863D01*
X-357283Y42545D01*
Y51943D01*
X-360880Y60625D01*
X-367525Y67270D01*
X-376207Y70866D01*
D02*
G37*
G36*
X-1202978D02*
X-1212376D01*
X-1221058Y67270D01*
X-1227703Y60625D01*
X-1231299Y51943D01*
Y42545D01*
X-1227703Y33863D01*
X-1221058Y27218D01*
X-1212376Y23622D01*
X-1202978D01*
X-1194296Y27218D01*
X-1187651Y33863D01*
X-1184055Y42545D01*
Y51943D01*
X-1187651Y60625D01*
X-1194296Y67270D01*
X-1202978Y70866D01*
D02*
G37*
G36*
X1269463Y-50197D02*
X1260065D01*
X1251383Y-53793D01*
X1245407Y-59770D01*
X1188977D01*
Y-59644D01*
X1172962Y-61222D01*
X1157563Y-65893D01*
X1143371Y-73479D01*
X1130932Y-83688D01*
X1120723Y-96127D01*
X1113137Y-110319D01*
X1108466Y-125718D01*
X1106889Y-141732D01*
X1106888D01*
X1106572Y-146601D01*
X1105505Y-154706D01*
X1100497Y-166795D01*
X1092531Y-177177D01*
X1082150Y-185143D01*
X1070060Y-190150D01*
X1057688Y-191779D01*
X1057087Y-191660D01*
X1033465D01*
Y-191482D01*
X1023421Y-192471D01*
X1022912Y-192370D01*
X1021406Y-192670D01*
X1015328Y-193268D01*
X997888Y-198559D01*
X981815Y-207150D01*
X967727Y-218711D01*
X956165Y-232799D01*
X947574Y-248872D01*
X942284Y-266312D01*
X940497Y-284449D01*
X940675D01*
Y-304832D01*
X935675Y-305490D01*
X935656Y-305418D01*
X930991Y-297338D01*
X924394Y-290741D01*
X916314Y-286076D01*
X907302Y-283662D01*
X897973D01*
X888961Y-286076D01*
X880881Y-290741D01*
X874284Y-297338D01*
X869619Y-305418D01*
X867205Y-314430D01*
Y-323759D01*
X869619Y-332771D01*
X874284Y-340851D01*
X880881Y-347448D01*
X888961Y-352113D01*
X897973Y-354528D01*
X907302D01*
X916314Y-352113D01*
X924394Y-347448D01*
X930991Y-340851D01*
X935656Y-332771D01*
X935675Y-332699D01*
X940675Y-333357D01*
Y-413714D01*
X934699Y-419690D01*
X931103Y-428373D01*
Y-437770D01*
X934699Y-446452D01*
X941344Y-453097D01*
X950026Y-456693D01*
X950137D01*
X951390Y-461693D01*
X948236Y-463379D01*
X933848Y-475187D01*
X922040Y-489574D01*
X913266Y-505989D01*
X907864Y-523800D01*
X906039Y-542323D01*
X906226D01*
Y-671260D01*
X906366Y-671964D01*
X904616Y-685261D01*
X899212Y-698308D01*
X890615Y-709512D01*
X879411Y-718109D01*
X869012Y-722417D01*
X865743Y-719148D01*
X857061Y-715552D01*
X847664D01*
X838982Y-719148D01*
X832337Y-725793D01*
X828740Y-734475D01*
Y-743872D01*
X832337Y-752554D01*
X838982Y-759199D01*
X847664Y-762795D01*
X857061D01*
X865743Y-759199D01*
X872388Y-752554D01*
X873336Y-750267D01*
X883776Y-747100D01*
X897968Y-739514D01*
X910408Y-729305D01*
X920616Y-716866D01*
X928202Y-702674D01*
X932873Y-687275D01*
X934451Y-671260D01*
X934325D01*
Y-542323D01*
X934264Y-542016D01*
X935517Y-529301D01*
X939315Y-516779D01*
X945484Y-505238D01*
X953785Y-495123D01*
X963900Y-486822D01*
X975440Y-480654D01*
X987962Y-476855D01*
X1000677Y-475603D01*
X1000985Y-475664D01*
X1004722D01*
X1006017Y-480494D01*
X1003151Y-482148D01*
X993959Y-491340D01*
X987459Y-502598D01*
X984990Y-511812D01*
X1033465D01*
X1081939D01*
X1079470Y-502598D01*
X1072970Y-491340D01*
X1063778Y-482148D01*
X1060913Y-480494D01*
X1062207Y-475664D01*
X1103675D01*
X1109651Y-481640D01*
X1118333Y-485236D01*
X1127731D01*
X1136413Y-481640D01*
X1143058Y-474995D01*
X1146654Y-466313D01*
Y-456916D01*
X1143058Y-448234D01*
X1136413Y-441589D01*
X1127731Y-437993D01*
X1118333D01*
X1109651Y-441589D01*
X1103675Y-447565D01*
X1000985D01*
Y-447378D01*
X982462Y-449202D01*
X977595Y-450678D01*
X975123Y-447005D01*
X974815Y-446297D01*
X978347Y-437770D01*
Y-428373D01*
X974750Y-419690D01*
X968774Y-413714D01*
Y-284449D01*
X968719Y-284174D01*
X969937Y-271813D01*
X973623Y-259662D01*
X979609Y-248464D01*
X987664Y-238648D01*
X997479Y-230593D01*
X1008678Y-224607D01*
X1020828Y-220921D01*
X1024820Y-220528D01*
X1033189Y-219704D01*
X1033465Y-219758D01*
X1057087D01*
Y-219865D01*
X1072330Y-218363D01*
X1086987Y-213917D01*
X1100495Y-206697D01*
X1112335Y-196980D01*
X1122051Y-185141D01*
X1129272Y-171632D01*
X1133718Y-156975D01*
X1135219Y-141733D01*
X1135219D01*
X1135522Y-136858D01*
X1136723Y-127731D01*
X1142128Y-114684D01*
X1150725Y-103481D01*
X1161928Y-94883D01*
X1174975Y-89479D01*
X1188273Y-87729D01*
X1188977Y-87869D01*
X1245407D01*
X1251383Y-93845D01*
X1260065Y-97441D01*
X1269463D01*
X1278145Y-93845D01*
X1284790Y-87200D01*
X1288386Y-78518D01*
Y-69121D01*
X1284790Y-60438D01*
X1278145Y-53793D01*
X1269463Y-50197D01*
D02*
G37*
G36*
X-384081D02*
X-393478D01*
X-402160Y-53793D01*
X-408137Y-59770D01*
X-464567D01*
Y-59644D01*
X-480582Y-61222D01*
X-495981Y-65893D01*
X-510173Y-73479D01*
X-522612Y-83688D01*
X-532821Y-96127D01*
X-540407Y-110319D01*
X-545078Y-125718D01*
X-546655Y-141732D01*
X-546655D01*
X-546972Y-146601D01*
X-548039Y-154706D01*
X-553047Y-166795D01*
X-561013Y-177177D01*
X-571394Y-185143D01*
X-583483Y-190150D01*
X-595855Y-191779D01*
X-596457Y-191660D01*
X-620079D01*
Y-191482D01*
X-630123Y-192471D01*
X-630632Y-192370D01*
X-632138Y-192670D01*
X-638216Y-193268D01*
X-655656Y-198559D01*
X-671729Y-207150D01*
X-685817Y-218711D01*
X-697378Y-232799D01*
X-705969Y-248872D01*
X-711260Y-266312D01*
X-713046Y-284449D01*
X-712868D01*
Y-308797D01*
X-717868Y-309455D01*
X-718950Y-305418D01*
X-723615Y-297338D01*
X-730212Y-290741D01*
X-738292Y-286076D01*
X-747304Y-283662D01*
X-756633D01*
X-765645Y-286076D01*
X-773725Y-290741D01*
X-780322Y-297338D01*
X-784987Y-305418D01*
X-787402Y-314430D01*
Y-323759D01*
X-784987Y-332771D01*
X-780322Y-340851D01*
X-773725Y-347448D01*
X-765645Y-352113D01*
X-756633Y-354528D01*
X-747304D01*
X-738292Y-352113D01*
X-730212Y-347448D01*
X-723615Y-340851D01*
X-718950Y-332771D01*
X-717868Y-328734D01*
X-712868Y-329392D01*
Y-413714D01*
X-718845Y-419690D01*
X-722441Y-428373D01*
Y-437770D01*
X-718845Y-446452D01*
X-712200Y-453097D01*
X-703518Y-456693D01*
X-703407D01*
X-702154Y-461693D01*
X-705308Y-463379D01*
X-719696Y-475187D01*
X-731503Y-489574D01*
X-740277Y-505989D01*
X-745680Y-523800D01*
X-747504Y-542323D01*
X-747317D01*
Y-671260D01*
X-747177Y-671964D01*
X-748928Y-685261D01*
X-754332Y-698308D01*
X-762929Y-709512D01*
X-774133Y-718109D01*
X-784532Y-722417D01*
X-787800Y-719148D01*
X-796482Y-715552D01*
X-805880D01*
X-814562Y-719148D01*
X-821207Y-725793D01*
X-824803Y-734475D01*
Y-743872D01*
X-821207Y-752554D01*
X-814562Y-759199D01*
X-805880Y-762795D01*
X-796482D01*
X-787800Y-759199D01*
X-781155Y-752554D01*
X-780208Y-750267D01*
X-769767Y-747100D01*
X-755575Y-739514D01*
X-743136Y-729305D01*
X-732927Y-716866D01*
X-725341Y-702674D01*
X-720670Y-687275D01*
X-719093Y-671260D01*
X-719218D01*
Y-542323D01*
X-719279Y-542016D01*
X-718027Y-529301D01*
X-714229Y-516779D01*
X-708060Y-505238D01*
X-699759Y-495123D01*
X-689644Y-486822D01*
X-678103Y-480654D01*
X-665582Y-476855D01*
X-652866Y-475603D01*
X-652559Y-475664D01*
X-648822D01*
X-647527Y-480494D01*
X-650393Y-482148D01*
X-659585Y-491340D01*
X-666085Y-502598D01*
X-668554Y-511812D01*
X-620079D01*
X-571605D01*
X-574074Y-502598D01*
X-580573Y-491340D01*
X-589765Y-482148D01*
X-592631Y-480494D01*
X-591337Y-475664D01*
X-549869D01*
X-543893Y-481640D01*
X-535210Y-485236D01*
X-525813D01*
X-517131Y-481640D01*
X-510486Y-474995D01*
X-506890Y-466313D01*
Y-456916D01*
X-510486Y-448234D01*
X-517131Y-441589D01*
X-525813Y-437993D01*
X-535210D01*
X-543893Y-441589D01*
X-549869Y-447565D01*
X-652559D01*
Y-447378D01*
X-671082Y-449202D01*
X-675948Y-450678D01*
X-678420Y-447005D01*
X-678729Y-446297D01*
X-675197Y-437770D01*
Y-428373D01*
X-678793Y-419690D01*
X-684769Y-413714D01*
Y-284449D01*
X-684824Y-284174D01*
X-683607Y-271813D01*
X-679921Y-259662D01*
X-673935Y-248464D01*
X-665880Y-238648D01*
X-656064Y-230593D01*
X-644866Y-224607D01*
X-632715Y-220921D01*
X-628724Y-220528D01*
X-620354Y-219704D01*
X-620079Y-219758D01*
X-596457D01*
Y-219865D01*
X-581214Y-218363D01*
X-566557Y-213917D01*
X-553049Y-206697D01*
X-541209Y-196980D01*
X-531492Y-185141D01*
X-524272Y-171632D01*
X-519826Y-156975D01*
X-518325Y-141733D01*
X-518324D01*
X-518022Y-136858D01*
X-516820Y-127731D01*
X-511416Y-114684D01*
X-502819Y-103481D01*
X-491615Y-94883D01*
X-478568Y-89479D01*
X-465271Y-87729D01*
X-464567Y-87869D01*
X-408137D01*
X-402160Y-93845D01*
X-393478Y-97441D01*
X-384081D01*
X-375399Y-93845D01*
X-368754Y-87200D01*
X-365157Y-78518D01*
Y-69121D01*
X-368754Y-60438D01*
X-375399Y-53793D01*
X-384081Y-50197D01*
D02*
G37*
G36*
X826772Y75174D02*
X812106Y73729D01*
X798004Y69451D01*
X785007Y62505D01*
X773616Y53156D01*
X764267Y41764D01*
X757320Y28768D01*
X753042Y14666D01*
X751598Y0D01*
X753042Y-14666D01*
X757320Y-28768D01*
X764267Y-41764D01*
X773616Y-53156D01*
X785007Y-62505D01*
X798004Y-69451D01*
X812106Y-73729D01*
X826772Y-75174D01*
X841437Y-73729D01*
X855539Y-69451D01*
X855587Y-69426D01*
X858776Y-73391D01*
X852154Y-81144D01*
X842797Y-96414D01*
X835943Y-112960D01*
X831762Y-130375D01*
X830357Y-148229D01*
X830439D01*
Y-522966D01*
X824463Y-528942D01*
X820866Y-537624D01*
Y-547022D01*
X824463Y-555704D01*
X831108Y-562349D01*
X839790Y-565945D01*
X849187D01*
X857869Y-562349D01*
X864514Y-555704D01*
X868111Y-547022D01*
Y-537624D01*
X864514Y-528942D01*
X858538Y-522966D01*
Y-148229D01*
X858414Y-147607D01*
X860008Y-131424D01*
X864910Y-115266D01*
X872870Y-100374D01*
X883582Y-87322D01*
X896634Y-76610D01*
X911526Y-68650D01*
X927684Y-63748D01*
X943867Y-62154D01*
X944489Y-62278D01*
X1004722D01*
X1006016Y-67108D01*
X1003151Y-68762D01*
X993959Y-77954D01*
X987459Y-89212D01*
X984990Y-98426D01*
X1033465D01*
X1081939D01*
X1079470Y-89212D01*
X1072970Y-77954D01*
X1063778Y-68762D01*
X1060913Y-67108D01*
X1062207Y-62278D01*
X1103675D01*
X1109651Y-68254D01*
X1118333Y-71851D01*
X1127731D01*
X1136413Y-68254D01*
X1143058Y-61609D01*
X1146654Y-52927D01*
Y-43530D01*
X1143058Y-34848D01*
X1136413Y-28203D01*
X1127731Y-24607D01*
X1118333D01*
X1109651Y-28203D01*
X1103675Y-34179D01*
X944489D01*
Y-34097D01*
X926634Y-35502D01*
X909220Y-39683D01*
X892674Y-46537D01*
X890971Y-47580D01*
X887641Y-43757D01*
X889276Y-41764D01*
X896223Y-28768D01*
X900501Y-14666D01*
X901945Y0D01*
X900501Y14666D01*
X896223Y28768D01*
X889276Y41764D01*
X879927Y53156D01*
X868536Y62505D01*
X855539Y69451D01*
X841437Y73729D01*
X826772Y75174D01*
D02*
G37*
G36*
X-826772D02*
X-841437Y73729D01*
X-855539Y69451D01*
X-868536Y62505D01*
X-879928Y53156D01*
X-889276Y41764D01*
X-896223Y28768D01*
X-900501Y14666D01*
X-901945Y0D01*
X-900501Y-14666D01*
X-896223Y-28768D01*
X-889276Y-41764D01*
X-879928Y-53156D01*
X-868536Y-62505D01*
X-855539Y-69451D01*
X-841437Y-73729D01*
X-826772Y-75174D01*
X-812106Y-73729D01*
X-798004Y-69451D01*
X-797957Y-69426D01*
X-794768Y-73391D01*
X-801389Y-81144D01*
X-810747Y-96414D01*
X-817600Y-112960D01*
X-821781Y-130375D01*
X-823186Y-148229D01*
X-823105D01*
Y-522966D01*
X-829081Y-528942D01*
X-832677Y-537624D01*
Y-547022D01*
X-829081Y-555704D01*
X-822436Y-562349D01*
X-813754Y-565945D01*
X-804356D01*
X-795674Y-562349D01*
X-789029Y-555704D01*
X-785433Y-547022D01*
Y-537624D01*
X-789029Y-528942D01*
X-795006Y-522966D01*
Y-148229D01*
X-795129Y-147607D01*
X-793535Y-131424D01*
X-788634Y-115266D01*
X-780674Y-100374D01*
X-769962Y-87322D01*
X-756909Y-76610D01*
X-742018Y-68650D01*
X-725859Y-63748D01*
X-709677Y-62154D01*
X-709055Y-62278D01*
X-648822D01*
X-647528Y-67108D01*
X-650393Y-68762D01*
X-659585Y-77954D01*
X-666085Y-89212D01*
X-668554Y-98426D01*
X-620079D01*
X-571605D01*
X-574074Y-89212D01*
X-580573Y-77954D01*
X-589765Y-68762D01*
X-592631Y-67108D01*
X-591337Y-62278D01*
X-549869D01*
X-543893Y-68254D01*
X-535210Y-71851D01*
X-525813D01*
X-517131Y-68254D01*
X-510486Y-61609D01*
X-506890Y-52927D01*
Y-43530D01*
X-510486Y-34848D01*
X-517131Y-28203D01*
X-525813Y-24607D01*
X-535210D01*
X-543893Y-28203D01*
X-549869Y-34179D01*
X-709055D01*
Y-34097D01*
X-726909Y-35502D01*
X-744324Y-39683D01*
X-760870Y-46537D01*
X-762572Y-47580D01*
X-765902Y-43757D01*
X-764267Y-41764D01*
X-757320Y-28768D01*
X-753043Y-14666D01*
X-751598Y0D01*
X-753043Y14666D01*
X-757320Y28768D01*
X-764267Y41764D01*
X-773616Y53156D01*
X-785008Y62505D01*
X-798004Y69451D01*
X-812106Y73729D01*
X-826772Y75174D01*
D02*
G37*
G36*
X0D02*
X-14666Y73729D01*
X-28768Y69451D01*
X-41764Y62505D01*
X-53156Y53156D01*
X-62505Y41764D01*
X-69451Y28768D01*
X-73729Y14666D01*
X-75174Y0D01*
X-73729Y-14666D01*
X-69451Y-28768D01*
X-62505Y-41764D01*
X-53156Y-53156D01*
X-41764Y-62505D01*
X-28768Y-69451D01*
X-14666Y-73729D01*
X0Y-75174D01*
X14666Y-73729D01*
X28768Y-69451D01*
X41764Y-62505D01*
X53156Y-53156D01*
X62505Y-41764D01*
X69451Y-28768D01*
X73729Y-14666D01*
X75174Y0D01*
X73729Y14666D01*
X69451Y28768D01*
X62505Y41764D01*
X53156Y53156D01*
X41764Y62505D01*
X28768Y69451D01*
X14666Y73729D01*
X0Y75174D01*
D02*
G37*
G36*
X1456693Y-59794D02*
Y-98426D01*
X1495325D01*
X1492856Y-89212D01*
X1486357Y-77954D01*
X1477165Y-68762D01*
X1465907Y-62263D01*
X1456693Y-59794D01*
D02*
G37*
G36*
X629921D02*
Y-98426D01*
X668553D01*
X666084Y-89212D01*
X659585Y-77954D01*
X650393Y-68762D01*
X639135Y-62263D01*
X629921Y-59794D01*
D02*
G37*
G36*
X216535D02*
Y-98426D01*
X255167D01*
X252698Y-89212D01*
X246198Y-77954D01*
X237006Y-68762D01*
X225749Y-62263D01*
X216535Y-59794D01*
D02*
G37*
G36*
X-196851D02*
Y-98426D01*
X-158219D01*
X-160688Y-89212D01*
X-167188Y-77954D01*
X-176380Y-68762D01*
X-187637Y-62263D01*
X-196851Y-59794D01*
D02*
G37*
G36*
X-1023623D02*
Y-98426D01*
X-984991D01*
X-987460Y-89212D01*
X-993960Y-77954D01*
X-1003152Y-68762D01*
X-1014409Y-62263D01*
X-1023623Y-59794D01*
D02*
G37*
G36*
X-1437007D02*
Y-98426D01*
X-1398375D01*
X-1400844Y-89212D01*
X-1407343Y-77954D01*
X-1416535Y-68762D01*
X-1427793Y-62263D01*
X-1437007Y-59794D01*
D02*
G37*
G36*
X1437008D02*
X1427794Y-62263D01*
X1416537Y-68762D01*
X1407345Y-77954D01*
X1400845Y-89212D01*
X1398376Y-98426D01*
X1437008D01*
Y-59794D01*
D02*
G37*
G36*
X610236D02*
X601023Y-62263D01*
X589765Y-68762D01*
X580573Y-77954D01*
X574073Y-89212D01*
X571604Y-98426D01*
X610236D01*
Y-59794D01*
D02*
G37*
G36*
X196850D02*
X187637Y-62263D01*
X176379Y-68762D01*
X167187Y-77954D01*
X160687Y-89212D01*
X158218Y-98426D01*
X196850D01*
Y-59794D01*
D02*
G37*
G36*
X-216536D02*
X-225750Y-62263D01*
X-237007Y-68762D01*
X-246199Y-77954D01*
X-252699Y-89212D01*
X-255168Y-98426D01*
X-216536D01*
Y-59794D01*
D02*
G37*
G36*
X-1456692D02*
X-1465906Y-62263D01*
X-1477163Y-68762D01*
X-1486355Y-77954D01*
X-1492855Y-89212D01*
X-1495324Y-98426D01*
X-1456692D01*
Y-59794D01*
D02*
G37*
G36*
X-1043308D02*
X-1052522Y-62263D01*
X-1063779Y-68762D01*
X-1072971Y-77954D01*
X-1079471Y-89212D01*
X-1081940Y-98426D01*
X-1043308D01*
Y-59794D01*
D02*
G37*
G36*
X1081939Y-118111D02*
X1043307D01*
Y-156743D01*
X1052521Y-154274D01*
X1063778Y-147774D01*
X1072970Y-138582D01*
X1079470Y-127324D01*
X1081939Y-118111D01*
D02*
G37*
G36*
X668553D02*
X629921D01*
Y-156743D01*
X639135Y-154274D01*
X650393Y-147774D01*
X659585Y-138582D01*
X666084Y-127324D01*
X668553Y-118111D01*
D02*
G37*
G36*
X255167D02*
X216535D01*
Y-156743D01*
X225749Y-154274D01*
X237006Y-147774D01*
X246198Y-138582D01*
X252698Y-127324D01*
X255167Y-118111D01*
D02*
G37*
G36*
X-984991D02*
X-1023623D01*
Y-156743D01*
X-1014409Y-154274D01*
X-1003152Y-147774D01*
X-993960Y-138582D01*
X-987460Y-127324D01*
X-984991Y-118111D01*
D02*
G37*
G36*
X-571605D02*
X-610237D01*
Y-156743D01*
X-601023Y-154274D01*
X-589765Y-147774D01*
X-580573Y-138582D01*
X-574074Y-127324D01*
X-571605Y-118111D01*
D02*
G37*
G36*
X1495325D02*
X1456693D01*
Y-156743D01*
X1465907Y-154274D01*
X1477165Y-147774D01*
X1486357Y-138582D01*
X1492856Y-127324D01*
X1495325Y-118111D01*
D02*
G37*
G36*
X-1398375D02*
X-1437007D01*
Y-156743D01*
X-1427793Y-154274D01*
X-1416535Y-147774D01*
X-1407343Y-138582D01*
X-1400844Y-127324D01*
X-1398375Y-118111D01*
D02*
G37*
G36*
X-158219D02*
X-196851D01*
Y-156743D01*
X-187637Y-154274D01*
X-176380Y-147774D01*
X-167188Y-138582D01*
X-160688Y-127324D01*
X-158219Y-118111D01*
D02*
G37*
G36*
X-216536D02*
X-255168D01*
X-252699Y-127324D01*
X-246199Y-138582D01*
X-237007Y-147774D01*
X-225750Y-154274D01*
X-216536Y-156743D01*
Y-118111D01*
D02*
G37*
G36*
X-1456692D02*
X-1495324D01*
X-1492855Y-127324D01*
X-1486355Y-138582D01*
X-1477163Y-147774D01*
X-1465906Y-154274D01*
X-1456692Y-156743D01*
Y-118111D01*
D02*
G37*
G36*
X1437008D02*
X1398376D01*
X1400845Y-127324D01*
X1407345Y-138582D01*
X1416537Y-147774D01*
X1427794Y-154274D01*
X1437008Y-156743D01*
Y-118111D01*
D02*
G37*
G36*
X-629922D02*
X-668554D01*
X-666085Y-127324D01*
X-659585Y-138582D01*
X-650393Y-147774D01*
X-639135Y-154274D01*
X-629922Y-156743D01*
Y-118111D01*
D02*
G37*
G36*
X-1043308D02*
X-1081940D01*
X-1079471Y-127324D01*
X-1072971Y-138582D01*
X-1063779Y-147774D01*
X-1052522Y-154274D01*
X-1043308Y-156743D01*
Y-118111D01*
D02*
G37*
G36*
X1023622D02*
X984990D01*
X987459Y-127324D01*
X993959Y-138582D01*
X1003151Y-147774D01*
X1014409Y-154274D01*
X1023622Y-156743D01*
Y-118111D01*
D02*
G37*
G36*
X610236D02*
X571604D01*
X574073Y-127324D01*
X580573Y-138582D01*
X589765Y-147774D01*
X601023Y-154274D01*
X610236Y-156743D01*
Y-118111D01*
D02*
G37*
G36*
X196850D02*
X158218D01*
X160687Y-127324D01*
X167187Y-138582D01*
X176379Y-147774D01*
X187637Y-154274D01*
X196850Y-156743D01*
Y-118111D01*
D02*
G37*
G36*
X1453070Y-257874D02*
X1440631D01*
X1428615Y-261094D01*
X1417842Y-267313D01*
X1409046Y-276110D01*
X1402826Y-286883D01*
X1399607Y-298898D01*
Y-311338D01*
X1402826Y-323354D01*
X1409046Y-334127D01*
X1417842Y-342923D01*
X1428615Y-349143D01*
X1440631Y-352362D01*
X1453070D01*
X1465086Y-349143D01*
X1475859Y-342923D01*
X1484655Y-334127D01*
X1490875Y-323354D01*
X1494095Y-311338D01*
Y-298898D01*
X1490875Y-286883D01*
X1484655Y-276110D01*
X1475859Y-267313D01*
X1465086Y-261094D01*
X1453070Y-257874D01*
D02*
G37*
G36*
X1039684D02*
X1027245D01*
X1015229Y-261094D01*
X1004456Y-267313D01*
X995660Y-276110D01*
X989440Y-286883D01*
X986221Y-298898D01*
Y-311338D01*
X989440Y-323354D01*
X995660Y-334127D01*
X1004456Y-342923D01*
X1015229Y-349143D01*
X1027245Y-352362D01*
X1039684D01*
X1051700Y-349143D01*
X1062473Y-342923D01*
X1071269Y-334127D01*
X1077489Y-323354D01*
X1080709Y-311338D01*
Y-298898D01*
X1077489Y-286883D01*
X1071269Y-276110D01*
X1062473Y-267313D01*
X1051700Y-261094D01*
X1039684Y-257874D01*
D02*
G37*
G36*
X626298D02*
X613859D01*
X601843Y-261094D01*
X591070Y-267313D01*
X582274Y-276110D01*
X576054Y-286883D01*
X572835Y-298898D01*
Y-311338D01*
X576054Y-323354D01*
X582274Y-334127D01*
X591070Y-342923D01*
X601843Y-349143D01*
X613859Y-352362D01*
X626298D01*
X638314Y-349143D01*
X649087Y-342923D01*
X657883Y-334127D01*
X664103Y-323354D01*
X667323Y-311338D01*
Y-298898D01*
X664103Y-286883D01*
X657883Y-276110D01*
X649087Y-267313D01*
X638314Y-261094D01*
X626298Y-257874D01*
D02*
G37*
G36*
X212912D02*
X200473D01*
X188457Y-261094D01*
X177684Y-267313D01*
X168888Y-276110D01*
X162668Y-286883D01*
X159448Y-298898D01*
Y-311338D01*
X162668Y-323354D01*
X168888Y-334127D01*
X177684Y-342923D01*
X188457Y-349143D01*
X200473Y-352362D01*
X212912D01*
X224928Y-349143D01*
X235701Y-342923D01*
X244497Y-334127D01*
X250717Y-323354D01*
X253937Y-311338D01*
Y-298898D01*
X250717Y-286883D01*
X244497Y-276110D01*
X235701Y-267313D01*
X224928Y-261094D01*
X212912Y-257874D01*
D02*
G37*
G36*
X-200474D02*
X-212913D01*
X-224929Y-261094D01*
X-235702Y-267313D01*
X-244498Y-276110D01*
X-250718Y-286883D01*
X-253938Y-298898D01*
Y-311338D01*
X-250718Y-323354D01*
X-244498Y-334127D01*
X-235702Y-342923D01*
X-224929Y-349143D01*
X-212913Y-352362D01*
X-200474D01*
X-188458Y-349143D01*
X-177685Y-342923D01*
X-168889Y-334127D01*
X-162669Y-323354D01*
X-159449Y-311338D01*
Y-298898D01*
X-162669Y-286883D01*
X-168889Y-276110D01*
X-177685Y-267313D01*
X-188458Y-261094D01*
X-200474Y-257874D01*
D02*
G37*
G36*
X-613860D02*
X-626299D01*
X-638315Y-261094D01*
X-649088Y-267313D01*
X-657884Y-276110D01*
X-664104Y-286883D01*
X-667323Y-298898D01*
Y-311338D01*
X-664104Y-323354D01*
X-657884Y-334127D01*
X-649088Y-342923D01*
X-638315Y-349143D01*
X-626299Y-352362D01*
X-613860D01*
X-601844Y-349143D01*
X-591071Y-342923D01*
X-582275Y-334127D01*
X-576055Y-323354D01*
X-572835Y-311338D01*
Y-298898D01*
X-576055Y-286883D01*
X-582275Y-276110D01*
X-591071Y-267313D01*
X-601844Y-261094D01*
X-613860Y-257874D01*
D02*
G37*
G36*
X-1027246D02*
X-1039685D01*
X-1051701Y-261094D01*
X-1062474Y-267313D01*
X-1071270Y-276110D01*
X-1077490Y-286883D01*
X-1080709Y-298898D01*
Y-311338D01*
X-1077490Y-323354D01*
X-1071270Y-334127D01*
X-1062474Y-342923D01*
X-1051701Y-349143D01*
X-1039685Y-352362D01*
X-1027246D01*
X-1015230Y-349143D01*
X-1004457Y-342923D01*
X-995661Y-334127D01*
X-989441Y-323354D01*
X-986221Y-311338D01*
Y-298898D01*
X-989441Y-286883D01*
X-995661Y-276110D01*
X-1004457Y-267313D01*
X-1015230Y-261094D01*
X-1027246Y-257874D01*
D02*
G37*
G36*
X-1440630D02*
X-1453069D01*
X-1465085Y-261094D01*
X-1475858Y-267313D01*
X-1484654Y-276110D01*
X-1490874Y-286883D01*
X-1494093Y-298898D01*
Y-311338D01*
X-1490874Y-323354D01*
X-1484654Y-334127D01*
X-1475858Y-342923D01*
X-1465085Y-349143D01*
X-1453069Y-352362D01*
X-1440630D01*
X-1428614Y-349143D01*
X-1417841Y-342923D01*
X-1409045Y-334127D01*
X-1402825Y-323354D01*
X-1399605Y-311338D01*
Y-298898D01*
X-1402825Y-286883D01*
X-1409045Y-276110D01*
X-1417841Y-267313D01*
X-1428614Y-261094D01*
X-1440630Y-257874D01*
D02*
G37*
G36*
X1277337Y-342520D02*
X1267939D01*
X1259257Y-346116D01*
X1252612Y-352761D01*
X1249016Y-361443D01*
Y-370841D01*
X1252612Y-379523D01*
X1259257Y-386168D01*
X1267939Y-389764D01*
X1277337D01*
X1286019Y-386168D01*
X1292664Y-379523D01*
X1296260Y-370841D01*
Y-361443D01*
X1292664Y-352761D01*
X1286019Y-346116D01*
X1277337Y-342520D01*
D02*
G37*
G36*
X450565D02*
X441168D01*
X432486Y-346116D01*
X425841Y-352761D01*
X422244Y-361443D01*
Y-370841D01*
X425841Y-379523D01*
X432486Y-386168D01*
X441168Y-389764D01*
X450565D01*
X459247Y-386168D01*
X465892Y-379523D01*
X469488Y-370841D01*
Y-361443D01*
X465892Y-352761D01*
X459247Y-346116D01*
X450565Y-342520D01*
D02*
G37*
G36*
X-376207D02*
X-385604D01*
X-394286Y-346116D01*
X-400931Y-352761D01*
X-404527Y-361443D01*
Y-370841D01*
X-400931Y-379523D01*
X-394286Y-386168D01*
X-385604Y-389764D01*
X-376207D01*
X-367525Y-386168D01*
X-360880Y-379523D01*
X-357283Y-370841D01*
Y-361443D01*
X-360880Y-352761D01*
X-367525Y-346116D01*
X-376207Y-342520D01*
D02*
G37*
G36*
X-1202978D02*
X-1212376D01*
X-1221058Y-346116D01*
X-1227703Y-352761D01*
X-1231299Y-361443D01*
Y-370841D01*
X-1227703Y-379523D01*
X-1221058Y-386168D01*
X-1212376Y-389764D01*
X-1202978D01*
X-1194296Y-386168D01*
X-1187651Y-379523D01*
X-1184055Y-370841D01*
Y-361443D01*
X-1187651Y-352761D01*
X-1194296Y-346116D01*
X-1202978Y-342520D01*
D02*
G37*
G36*
X300959Y-24607D02*
X291561D01*
X282879Y-28203D01*
X276234Y-34848D01*
X272638Y-43530D01*
Y-52927D01*
X276234Y-61609D01*
X282211Y-67586D01*
Y-209646D01*
X282100D01*
X283620Y-225082D01*
X288122Y-239924D01*
X295434Y-253603D01*
X305274Y-265593D01*
X317263Y-275433D01*
X330942Y-282744D01*
X345785Y-287247D01*
X361221Y-288767D01*
Y-288656D01*
X435040D01*
X435635Y-288538D01*
X451535Y-290104D01*
X467397Y-294915D01*
X482015Y-302729D01*
X494828Y-313244D01*
X505343Y-326057D01*
X513156Y-340675D01*
X517968Y-356536D01*
X519107Y-368107D01*
X519290Y-373032D01*
X519290D01*
X520867Y-389046D01*
X525539Y-404446D01*
X533125Y-418638D01*
X543333Y-431077D01*
X555773Y-441286D01*
X569965Y-448871D01*
X585364Y-453543D01*
X601378Y-455120D01*
Y-454995D01*
X626312D01*
X632289Y-460971D01*
X640971Y-464567D01*
X650368D01*
X659050Y-460971D01*
X665695Y-454326D01*
X669292Y-445644D01*
Y-436247D01*
X665695Y-427564D01*
X659050Y-420919D01*
X650368Y-417323D01*
X640971D01*
X632289Y-420919D01*
X626312Y-426896D01*
X601378D01*
X600674Y-427036D01*
X587377Y-425285D01*
X574330Y-419881D01*
X563126Y-411284D01*
X554529Y-400080D01*
X549125Y-387033D01*
X547922Y-377895D01*
X547591Y-373032D01*
X547591D01*
X546206Y-355425D01*
X542083Y-338251D01*
X535324Y-321934D01*
X526096Y-306876D01*
X514626Y-293446D01*
X501196Y-281976D01*
X486137Y-272748D01*
X469820Y-265989D01*
X452647Y-261866D01*
X435040Y-260480D01*
Y-260557D01*
X361221D01*
X360594Y-260682D01*
X347990Y-259023D01*
X335662Y-253916D01*
X325075Y-245792D01*
X316951Y-235205D01*
X311844Y-222876D01*
X310185Y-210273D01*
X310310Y-209646D01*
Y-67586D01*
X316286Y-61609D01*
X319882Y-52927D01*
Y-43530D01*
X316286Y-34848D01*
X309641Y-28203D01*
X300959Y-24607D01*
D02*
G37*
G36*
X-1352585D02*
X-1361982D01*
X-1370664Y-28203D01*
X-1377309Y-34848D01*
X-1380906Y-43530D01*
Y-52927D01*
X-1377309Y-61609D01*
X-1371333Y-67586D01*
Y-209646D01*
X-1371444D01*
X-1369924Y-225082D01*
X-1365421Y-239924D01*
X-1358110Y-253603D01*
X-1348270Y-265593D01*
X-1336280Y-275433D01*
X-1322601Y-282744D01*
X-1307759Y-287247D01*
X-1292323Y-288767D01*
Y-288656D01*
X-1218504D01*
X-1217908Y-288538D01*
X-1202008Y-290104D01*
X-1186147Y-294915D01*
X-1171529Y-302729D01*
X-1158716Y-313244D01*
X-1148201Y-326057D01*
X-1140387Y-340675D01*
X-1135576Y-356536D01*
X-1134436Y-368107D01*
X-1134254Y-373032D01*
X-1134254D01*
X-1132676Y-389046D01*
X-1128005Y-404446D01*
X-1120419Y-418638D01*
X-1110210Y-431077D01*
X-1097771Y-441286D01*
X-1083579Y-448871D01*
X-1068180Y-453543D01*
X-1052165Y-455120D01*
Y-454995D01*
X-1027231D01*
X-1021255Y-460971D01*
X-1012573Y-464567D01*
X-1003175D01*
X-994493Y-460971D01*
X-987848Y-454326D01*
X-984252Y-445644D01*
Y-436247D01*
X-987848Y-427564D01*
X-994493Y-420919D01*
X-1003175Y-417323D01*
X-1012573D01*
X-1021255Y-420919D01*
X-1027231Y-426896D01*
X-1052165D01*
X-1052870Y-427036D01*
X-1066167Y-425285D01*
X-1079214Y-419881D01*
X-1090417Y-411284D01*
X-1099014Y-400080D01*
X-1104419Y-387033D01*
X-1105622Y-377895D01*
X-1105952Y-373032D01*
X-1105952D01*
X-1107338Y-355425D01*
X-1111461Y-338251D01*
X-1118220Y-321934D01*
X-1127448Y-306876D01*
X-1138918Y-293446D01*
X-1152348Y-281976D01*
X-1167407Y-272748D01*
X-1183724Y-265989D01*
X-1200897Y-261866D01*
X-1218504Y-260480D01*
Y-260557D01*
X-1292323D01*
X-1292950Y-260682D01*
X-1305553Y-259023D01*
X-1317882Y-253916D01*
X-1328469Y-245792D01*
X-1336593Y-235205D01*
X-1341699Y-222876D01*
X-1343359Y-210273D01*
X-1343234Y-209646D01*
Y-67586D01*
X-1337258Y-61609D01*
X-1333661Y-52927D01*
Y-43530D01*
X-1337258Y-34848D01*
X-1343903Y-28203D01*
X-1352585Y-24607D01*
D02*
G37*
G36*
X1269463Y-463583D02*
X1260065D01*
X1251383Y-467179D01*
X1245407Y-473156D01*
X1216536D01*
Y-473100D01*
X1200010Y-474401D01*
X1183891Y-478270D01*
X1168576Y-484614D01*
X1154442Y-493276D01*
X1141836Y-504041D01*
X1131071Y-516646D01*
X1122409Y-530781D01*
X1116065Y-546096D01*
X1112196Y-562215D01*
X1110895Y-578740D01*
X1110895D01*
X1110528Y-583589D01*
X1109391Y-592228D01*
X1104185Y-604796D01*
X1095904Y-615589D01*
X1085111Y-623870D01*
X1072543Y-629076D01*
X1059708Y-630766D01*
X1059055Y-630636D01*
X1019357D01*
X1013381Y-624659D01*
X1004699Y-621063D01*
X995302D01*
X986620Y-624659D01*
X979975Y-631304D01*
X976378Y-639987D01*
Y-649384D01*
X979975Y-658066D01*
X986620Y-664711D01*
X995302Y-668307D01*
X1004699D01*
X1013381Y-664711D01*
X1019357Y-658735D01*
X1059055D01*
Y-658851D01*
X1074684Y-657311D01*
X1089712Y-652753D01*
X1103562Y-645350D01*
X1115702Y-635387D01*
X1125665Y-623247D01*
X1133068Y-609397D01*
X1137626Y-594369D01*
X1139166Y-578741D01*
X1139166D01*
X1139389Y-573833D01*
X1140398Y-563596D01*
X1144815Y-549033D01*
X1151989Y-535612D01*
X1161643Y-523848D01*
X1173407Y-514194D01*
X1186828Y-507020D01*
X1201391Y-502602D01*
X1216052Y-501158D01*
X1216536Y-501255D01*
X1245407D01*
X1251383Y-507231D01*
X1260065Y-510827D01*
X1269463D01*
X1278145Y-507231D01*
X1284790Y-500586D01*
X1288386Y-491904D01*
Y-482506D01*
X1284790Y-473824D01*
X1278145Y-467179D01*
X1269463Y-463583D01*
D02*
G37*
G36*
X-384081D02*
X-393478D01*
X-402160Y-467179D01*
X-408137Y-473156D01*
X-437008D01*
Y-473100D01*
X-453534Y-474401D01*
X-469653Y-478270D01*
X-484968Y-484614D01*
X-499102Y-493276D01*
X-511707Y-504041D01*
X-522473Y-516646D01*
X-531134Y-530781D01*
X-537478Y-546096D01*
X-541348Y-562215D01*
X-542649Y-578740D01*
X-542649D01*
X-543015Y-583589D01*
X-544153Y-592228D01*
X-549359Y-604796D01*
X-557640Y-615589D01*
X-568433Y-623870D01*
X-581001Y-629076D01*
X-593835Y-630766D01*
X-594488Y-630636D01*
X-634186D01*
X-640163Y-624659D01*
X-648845Y-621063D01*
X-658242D01*
X-666924Y-624659D01*
X-673569Y-631304D01*
X-677165Y-639987D01*
Y-649384D01*
X-673569Y-658066D01*
X-666924Y-664711D01*
X-658242Y-668307D01*
X-648845D01*
X-640163Y-664711D01*
X-634186Y-658735D01*
X-594488D01*
Y-658851D01*
X-578859Y-657311D01*
X-563831Y-652753D01*
X-549981Y-645350D01*
X-537842Y-635387D01*
X-527879Y-623247D01*
X-520476Y-609397D01*
X-515917Y-594369D01*
X-514378Y-578741D01*
X-514378D01*
X-514154Y-573833D01*
X-513146Y-563596D01*
X-508728Y-549033D01*
X-501555Y-535612D01*
X-491900Y-523848D01*
X-480137Y-514194D01*
X-466716Y-507020D01*
X-452153Y-502602D01*
X-437491Y-501158D01*
X-437008Y-501255D01*
X-408137D01*
X-402160Y-507231D01*
X-393478Y-510827D01*
X-384081D01*
X-375399Y-507231D01*
X-368754Y-500586D01*
X-365157Y-491904D01*
Y-482506D01*
X-368754Y-473824D01*
X-375399Y-467179D01*
X-384081Y-463583D01*
D02*
G37*
G36*
X1456693Y-473180D02*
Y-511812D01*
X1495325D01*
X1492856Y-502598D01*
X1486357Y-491340D01*
X1477165Y-482148D01*
X1465907Y-475649D01*
X1456693Y-473180D01*
D02*
G37*
G36*
X629921D02*
Y-511812D01*
X668553D01*
X666084Y-502598D01*
X659585Y-491340D01*
X650393Y-482148D01*
X639135Y-475649D01*
X629921Y-473180D01*
D02*
G37*
G36*
X216535D02*
Y-511812D01*
X255167D01*
X252698Y-502598D01*
X246198Y-491340D01*
X237006Y-482148D01*
X225749Y-475649D01*
X216535Y-473180D01*
D02*
G37*
G36*
X-196851D02*
Y-511812D01*
X-158219D01*
X-160688Y-502598D01*
X-167188Y-491340D01*
X-176380Y-482148D01*
X-187637Y-475649D01*
X-196851Y-473180D01*
D02*
G37*
G36*
X-1023623D02*
Y-511812D01*
X-984991D01*
X-987460Y-502598D01*
X-993960Y-491340D01*
X-1003152Y-482148D01*
X-1014409Y-475649D01*
X-1023623Y-473180D01*
D02*
G37*
G36*
X-1437007D02*
Y-511812D01*
X-1398375D01*
X-1400844Y-502598D01*
X-1407343Y-491340D01*
X-1416535Y-482148D01*
X-1427793Y-475649D01*
X-1437007Y-473180D01*
D02*
G37*
G36*
X1437008D02*
X1427794Y-475649D01*
X1416537Y-482148D01*
X1407345Y-491340D01*
X1400845Y-502598D01*
X1398376Y-511812D01*
X1437008D01*
Y-473180D01*
D02*
G37*
G36*
X610236D02*
X601023Y-475649D01*
X589765Y-482148D01*
X580573Y-491340D01*
X574073Y-502598D01*
X571604Y-511812D01*
X610236D01*
Y-473180D01*
D02*
G37*
G36*
X196850D02*
X187637Y-475649D01*
X176379Y-482148D01*
X167187Y-491340D01*
X160687Y-502598D01*
X158218Y-511812D01*
X196850D01*
Y-473180D01*
D02*
G37*
G36*
X-216536D02*
X-225750Y-475649D01*
X-237007Y-482148D01*
X-246199Y-491340D01*
X-252699Y-502598D01*
X-255168Y-511812D01*
X-216536D01*
Y-473180D01*
D02*
G37*
G36*
X-1456692D02*
X-1465906Y-475649D01*
X-1477163Y-482148D01*
X-1486355Y-491340D01*
X-1492855Y-502598D01*
X-1495324Y-511812D01*
X-1456692D01*
Y-473180D01*
D02*
G37*
G36*
X-1043308D02*
X-1052522Y-475649D01*
X-1063779Y-482148D01*
X-1072971Y-491340D01*
X-1079471Y-502598D01*
X-1081940Y-511812D01*
X-1043308D01*
Y-473180D01*
D02*
G37*
G36*
X442691Y-50197D02*
X433294D01*
X424612Y-53793D01*
X417967Y-60438D01*
X414370Y-69121D01*
Y-78518D01*
X417967Y-87200D01*
X424612Y-93845D01*
X433294Y-97441D01*
X442691D01*
X451373Y-93845D01*
X457349Y-87869D01*
X479331D01*
X479552Y-87825D01*
X485664Y-89040D01*
X491034Y-92628D01*
X494622Y-97998D01*
X495837Y-104110D01*
X495793Y-104331D01*
Y-111221D01*
X495716D01*
X497102Y-128828D01*
X501225Y-146001D01*
X507984Y-162318D01*
X517212Y-177377D01*
X528682Y-190807D01*
X542112Y-202277D01*
X557171Y-211505D01*
X573488Y-218264D01*
X590661Y-222387D01*
X608268Y-223773D01*
Y-223696D01*
X661811D01*
X662433Y-223572D01*
X678615Y-225166D01*
X694774Y-230067D01*
X709665Y-238027D01*
X722718Y-248739D01*
X733430Y-261792D01*
X741390Y-276683D01*
X746292Y-292842D01*
X747885Y-309025D01*
X747762Y-309646D01*
Y-518045D01*
X744738Y-521068D01*
X741142Y-529750D01*
Y-539148D01*
X744738Y-547830D01*
X751383Y-554475D01*
X760065Y-558071D01*
X769463D01*
X778145Y-554475D01*
X784790Y-547830D01*
X788386Y-539148D01*
Y-529750D01*
X784790Y-521068D01*
X778145Y-514423D01*
X775861Y-513477D01*
Y-309646D01*
X775943D01*
X774538Y-291792D01*
X770357Y-274377D01*
X763503Y-257832D01*
X754145Y-242561D01*
X742514Y-228943D01*
X728896Y-217312D01*
X713626Y-207954D01*
X697080Y-201101D01*
X679665Y-196920D01*
X661811Y-195515D01*
Y-195596D01*
X608268D01*
X607673Y-195715D01*
X591773Y-194149D01*
X575911Y-189337D01*
X561293Y-181524D01*
X548480Y-171009D01*
X537965Y-158196D01*
X530151Y-143578D01*
X525340Y-127716D01*
X523774Y-111816D01*
X523892Y-111221D01*
Y-104331D01*
X524005D01*
X522482Y-92769D01*
X518019Y-81994D01*
X510920Y-72742D01*
X501668Y-65643D01*
X490893Y-61180D01*
X479331Y-59657D01*
Y-59770D01*
X457349D01*
X451373Y-53793D01*
X442691Y-50197D01*
D02*
G37*
G36*
X-1210852D02*
X-1220250D01*
X-1228932Y-53793D01*
X-1235577Y-60438D01*
X-1239173Y-69121D01*
Y-78518D01*
X-1235577Y-87200D01*
X-1228932Y-93845D01*
X-1220250Y-97441D01*
X-1210852D01*
X-1202170Y-93845D01*
X-1196194Y-87869D01*
X-1174213D01*
X-1173991Y-87825D01*
X-1167879Y-89040D01*
X-1162510Y-92628D01*
X-1158922Y-97998D01*
X-1157706Y-104110D01*
X-1157750Y-104331D01*
Y-111221D01*
X-1157827D01*
X-1156442Y-128828D01*
X-1152319Y-146001D01*
X-1145560Y-162318D01*
X-1136332Y-177377D01*
X-1124862Y-190807D01*
X-1111432Y-202277D01*
X-1096373Y-211505D01*
X-1080056Y-218264D01*
X-1062883Y-222387D01*
X-1045276Y-223773D01*
Y-223696D01*
X-991732D01*
X-991111Y-223572D01*
X-974928Y-225166D01*
X-958770Y-230067D01*
X-943878Y-238027D01*
X-930825Y-248739D01*
X-920113Y-261792D01*
X-912154Y-276683D01*
X-907252Y-292842D01*
X-905658Y-309025D01*
X-905782Y-309646D01*
Y-518045D01*
X-908805Y-521068D01*
X-912402Y-529750D01*
Y-539148D01*
X-908805Y-547830D01*
X-902160Y-554475D01*
X-893478Y-558071D01*
X-884081D01*
X-875399Y-554475D01*
X-868754Y-547830D01*
X-865158Y-539148D01*
Y-529750D01*
X-868754Y-521068D01*
X-875399Y-514423D01*
X-877683Y-513477D01*
Y-309646D01*
X-877601D01*
X-879006Y-291792D01*
X-883187Y-274377D01*
X-890041Y-257832D01*
X-899398Y-242561D01*
X-911029Y-228943D01*
X-924648Y-217312D01*
X-939918Y-207954D01*
X-956464Y-201101D01*
X-973878Y-196920D01*
X-991732Y-195515D01*
Y-195596D01*
X-1045276D01*
X-1045871Y-195715D01*
X-1061771Y-194149D01*
X-1077633Y-189337D01*
X-1092251Y-181524D01*
X-1105063Y-171009D01*
X-1115579Y-158196D01*
X-1123392Y-143578D01*
X-1128204Y-127716D01*
X-1129770Y-111816D01*
X-1129651Y-111221D01*
Y-104331D01*
X-1129539D01*
X-1131061Y-92769D01*
X-1135524Y-81994D01*
X-1142624Y-72742D01*
X-1151876Y-65643D01*
X-1162650Y-61180D01*
X-1174213Y-59657D01*
Y-59770D01*
X-1196194D01*
X-1202170Y-53793D01*
X-1210852Y-50197D01*
D02*
G37*
G36*
X1081939Y-531497D02*
X1043307D01*
Y-570129D01*
X1052521Y-567660D01*
X1063778Y-561160D01*
X1072970Y-551968D01*
X1079470Y-540710D01*
X1081939Y-531497D01*
D02*
G37*
G36*
X668553D02*
X629921D01*
Y-570129D01*
X639135Y-567660D01*
X650393Y-561160D01*
X659585Y-551968D01*
X666084Y-540710D01*
X668553Y-531497D01*
D02*
G37*
G36*
X255167D02*
X216535D01*
Y-570129D01*
X225749Y-567660D01*
X237006Y-561160D01*
X246198Y-551968D01*
X252698Y-540710D01*
X255167Y-531497D01*
D02*
G37*
G36*
X-984991D02*
X-1023623D01*
Y-570129D01*
X-1014409Y-567660D01*
X-1003152Y-561160D01*
X-993960Y-551968D01*
X-987460Y-540710D01*
X-984991Y-531497D01*
D02*
G37*
G36*
X-571605D02*
X-610237D01*
Y-570129D01*
X-601023Y-567660D01*
X-589765Y-561160D01*
X-580573Y-551968D01*
X-574074Y-540710D01*
X-571605Y-531497D01*
D02*
G37*
G36*
X1495325D02*
X1456693D01*
Y-570129D01*
X1465907Y-567660D01*
X1477165Y-561160D01*
X1486357Y-551968D01*
X1492856Y-540710D01*
X1495325Y-531497D01*
D02*
G37*
G36*
X-158219D02*
X-196851D01*
Y-570129D01*
X-187637Y-567660D01*
X-176380Y-561160D01*
X-167188Y-551968D01*
X-160688Y-540710D01*
X-158219Y-531497D01*
D02*
G37*
G36*
X-1398375D02*
X-1437007D01*
Y-570129D01*
X-1427793Y-567660D01*
X-1416535Y-561160D01*
X-1407343Y-551968D01*
X-1400844Y-540710D01*
X-1398375Y-531497D01*
D02*
G37*
G36*
X1437008D02*
X1398376D01*
X1400845Y-540710D01*
X1407345Y-551968D01*
X1416537Y-561160D01*
X1427794Y-567660D01*
X1437008Y-570129D01*
Y-531497D01*
D02*
G37*
G36*
X-216536D02*
X-255168D01*
X-252699Y-540710D01*
X-246199Y-551968D01*
X-237007Y-561160D01*
X-225750Y-567660D01*
X-216536Y-570129D01*
Y-531497D01*
D02*
G37*
G36*
X-1456692D02*
X-1495324D01*
X-1492855Y-540710D01*
X-1486355Y-551968D01*
X-1477163Y-561160D01*
X-1465906Y-567660D01*
X-1456692Y-570129D01*
Y-531497D01*
D02*
G37*
G36*
X-629922D02*
X-668554D01*
X-666085Y-540710D01*
X-659585Y-551968D01*
X-650393Y-561160D01*
X-639135Y-567660D01*
X-629922Y-570129D01*
Y-531497D01*
D02*
G37*
G36*
X1023622D02*
X984990D01*
X987459Y-540710D01*
X993959Y-551968D01*
X1003151Y-561160D01*
X1014409Y-567660D01*
X1023622Y-570129D01*
Y-531497D01*
D02*
G37*
G36*
X610236D02*
X571604D01*
X574073Y-540710D01*
X580573Y-551968D01*
X589765Y-561160D01*
X601023Y-567660D01*
X610236Y-570129D01*
Y-531497D01*
D02*
G37*
G36*
X196850D02*
X158218D01*
X160687Y-540710D01*
X167187Y-551968D01*
X176379Y-561160D01*
X187637Y-567660D01*
X196850Y-570129D01*
Y-531497D01*
D02*
G37*
G36*
X-1043308D02*
X-1081940D01*
X-1079471Y-540710D01*
X-1072971Y-551968D01*
X-1063779Y-561160D01*
X-1052522Y-567660D01*
X-1043308Y-570129D01*
Y-531497D01*
D02*
G37*
G36*
X-1352585Y-437993D02*
X-1361982D01*
X-1370664Y-441589D01*
X-1377309Y-448234D01*
X-1380906Y-456916D01*
Y-466313D01*
X-1377309Y-474995D01*
X-1371333Y-480972D01*
Y-590552D01*
X-1371377D01*
X-1370123Y-603286D01*
X-1366409Y-615531D01*
X-1360377Y-626816D01*
X-1352259Y-636708D01*
X-1342367Y-644826D01*
X-1331082Y-650858D01*
X-1318837Y-654572D01*
X-1306102Y-655826D01*
Y-655782D01*
X-1031168D01*
X-1027160Y-659790D01*
X-1018478Y-663386D01*
X-1009081D01*
X-1000399Y-659790D01*
X-993754Y-653145D01*
X-990158Y-644462D01*
Y-635065D01*
X-993754Y-626383D01*
X-1000399Y-619738D01*
X-1009081Y-616142D01*
X-1018478D01*
X-1027160Y-619738D01*
X-1033805Y-626383D01*
X-1034344Y-627683D01*
X-1306102D01*
X-1306370Y-627736D01*
X-1315736Y-626503D01*
X-1324712Y-622785D01*
X-1332421Y-616870D01*
X-1338336Y-609162D01*
X-1342054Y-600185D01*
X-1343287Y-590819D01*
X-1343234Y-590552D01*
Y-480972D01*
X-1337258Y-474995D01*
X-1333661Y-466313D01*
Y-456916D01*
X-1337258Y-448234D01*
X-1343903Y-441589D01*
X-1352585Y-437993D01*
D02*
G37*
G36*
X300959D02*
X291561D01*
X282879Y-441589D01*
X276234Y-448234D01*
X272638Y-456916D01*
Y-466313D01*
X276234Y-474995D01*
X282211Y-480972D01*
Y-590552D01*
X282166D01*
X283421Y-603286D01*
X287135Y-615531D01*
X293167Y-626816D01*
X301285Y-636708D01*
X311176Y-644826D01*
X322462Y-650858D01*
X334707Y-654572D01*
X347441Y-655826D01*
Y-655782D01*
X627297D01*
X633273Y-661758D01*
X641955Y-665355D01*
X651352D01*
X660035Y-661758D01*
X666680Y-655113D01*
X670276Y-646431D01*
Y-637034D01*
X666680Y-628352D01*
X660035Y-621707D01*
X651352Y-618111D01*
X641955D01*
X633273Y-621707D01*
X627297Y-627683D01*
X347441D01*
X347174Y-627736D01*
X337808Y-626503D01*
X328831Y-622785D01*
X321123Y-616870D01*
X315208Y-609162D01*
X311489Y-600185D01*
X310256Y-590819D01*
X310310Y-590552D01*
Y-480972D01*
X316286Y-474995D01*
X319882Y-466313D01*
Y-456916D01*
X316286Y-448234D01*
X309641Y-441589D01*
X300959Y-437993D01*
D02*
G37*
G36*
X442691Y-463583D02*
X433294D01*
X424612Y-467179D01*
X417967Y-473824D01*
X414370Y-482506D01*
Y-491904D01*
X417967Y-500586D01*
X424612Y-507231D01*
X433294Y-510827D01*
X442691D01*
X451373Y-507231D01*
X457349Y-501255D01*
X488189D01*
X488362Y-501220D01*
X494139Y-502369D01*
X499183Y-505739D01*
X502553Y-510783D01*
X503702Y-516560D01*
X503667Y-516733D01*
Y-534449D01*
X503594D01*
X504963Y-548341D01*
X509015Y-561700D01*
X515595Y-574011D01*
X524451Y-584802D01*
X535242Y-593657D01*
X547553Y-600238D01*
X560911Y-604290D01*
X574803Y-605658D01*
Y-605585D01*
X681496D01*
X682118Y-605462D01*
X698301Y-607056D01*
X714459Y-611957D01*
X729351Y-619917D01*
X742403Y-630629D01*
X753115Y-643682D01*
X761075Y-658573D01*
X765976Y-674731D01*
X767570Y-690914D01*
X767447Y-691536D01*
Y-719816D01*
X761471Y-725793D01*
X757874Y-734475D01*
Y-743872D01*
X761471Y-752554D01*
X768115Y-759199D01*
X776798Y-762795D01*
X786195D01*
X794877Y-759199D01*
X801522Y-752554D01*
X805118Y-743872D01*
Y-734475D01*
X801522Y-725793D01*
X795546Y-719816D01*
Y-691536D01*
X795628D01*
X794222Y-673682D01*
X790042Y-656267D01*
X783188Y-639721D01*
X773831Y-624451D01*
X762199Y-610833D01*
X748581Y-599202D01*
X733311Y-589844D01*
X716765Y-582990D01*
X699350Y-578809D01*
X681496Y-577404D01*
Y-577486D01*
X574803D01*
X574382Y-577570D01*
X563629Y-576154D01*
X553215Y-571841D01*
X544273Y-564980D01*
X537412Y-556037D01*
X533098Y-545624D01*
X531682Y-534871D01*
X531766Y-534449D01*
Y-516733D01*
X531870D01*
X530382Y-505427D01*
X526018Y-494892D01*
X519076Y-485846D01*
X510030Y-478904D01*
X499495Y-474540D01*
X488189Y-473052D01*
Y-473156D01*
X457349D01*
X451373Y-467179D01*
X442691Y-463583D01*
D02*
G37*
G36*
X-1210852D02*
X-1220250D01*
X-1228932Y-467179D01*
X-1235577Y-473824D01*
X-1239173Y-482506D01*
Y-491904D01*
X-1235577Y-500586D01*
X-1228932Y-507231D01*
X-1220250Y-510827D01*
X-1210852D01*
X-1202170Y-507231D01*
X-1196194Y-501255D01*
X-1165354D01*
X-1165182Y-501220D01*
X-1159405Y-502369D01*
X-1154361Y-505739D01*
X-1150991Y-510783D01*
X-1149842Y-516560D01*
X-1149876Y-516733D01*
Y-534449D01*
X-1149949D01*
X-1148581Y-548341D01*
X-1144529Y-561700D01*
X-1137948Y-574011D01*
X-1129093Y-584802D01*
X-1118302Y-593657D01*
X-1105991Y-600238D01*
X-1092632Y-604290D01*
X-1078740Y-605658D01*
Y-605585D01*
X-972047D01*
X-971426Y-605462D01*
X-955243Y-607056D01*
X-939085Y-611957D01*
X-924193Y-619917D01*
X-911140Y-630629D01*
X-900428Y-643682D01*
X-892469Y-658573D01*
X-887567Y-674731D01*
X-885973Y-690914D01*
X-886097Y-691536D01*
Y-719816D01*
X-892073Y-725793D01*
X-895669Y-734475D01*
Y-743872D01*
X-892073Y-752554D01*
X-885428Y-759199D01*
X-876746Y-762795D01*
X-867349D01*
X-858667Y-759199D01*
X-852021Y-752554D01*
X-848425Y-743872D01*
Y-734475D01*
X-852021Y-725793D01*
X-857998Y-719816D01*
Y-691536D01*
X-857916D01*
X-859321Y-673682D01*
X-863502Y-656267D01*
X-870356Y-639721D01*
X-879713Y-624451D01*
X-891344Y-610833D01*
X-904963Y-599202D01*
X-920233Y-589844D01*
X-936779Y-582990D01*
X-954193Y-578809D01*
X-972047Y-577404D01*
Y-577486D01*
X-1078740D01*
X-1079162Y-577570D01*
X-1089915Y-576154D01*
X-1100328Y-571841D01*
X-1109271Y-564980D01*
X-1116132Y-556037D01*
X-1120446Y-545624D01*
X-1121861Y-534871D01*
X-1121777Y-534449D01*
Y-516733D01*
X-1121674D01*
X-1123162Y-505427D01*
X-1127526Y-494892D01*
X-1134467Y-485846D01*
X-1143514Y-478904D01*
X-1154049Y-474540D01*
X-1165354Y-473052D01*
Y-473156D01*
X-1196194D01*
X-1202170Y-467179D01*
X-1210852Y-463583D01*
D02*
G37*
G36*
X1453070Y-671260D02*
X1440631D01*
X1428615Y-674480D01*
X1417842Y-680699D01*
X1409046Y-689496D01*
X1402826Y-700269D01*
X1399607Y-712284D01*
Y-724724D01*
X1402826Y-736740D01*
X1409046Y-747513D01*
X1417842Y-756309D01*
X1428615Y-762529D01*
X1440631Y-765748D01*
X1453070D01*
X1465086Y-762529D01*
X1475859Y-756309D01*
X1484655Y-747513D01*
X1490875Y-736740D01*
X1494095Y-724724D01*
Y-712284D01*
X1490875Y-700269D01*
X1484655Y-689496D01*
X1475859Y-680699D01*
X1465086Y-674480D01*
X1453070Y-671260D01*
D02*
G37*
G36*
X1039684D02*
X1027245D01*
X1015229Y-674480D01*
X1004456Y-680699D01*
X995660Y-689496D01*
X989440Y-700269D01*
X986221Y-712284D01*
Y-724724D01*
X989440Y-736740D01*
X995660Y-747513D01*
X1004456Y-756309D01*
X1015229Y-762529D01*
X1027245Y-765748D01*
X1039684D01*
X1051700Y-762529D01*
X1062473Y-756309D01*
X1071269Y-747513D01*
X1077489Y-736740D01*
X1080709Y-724724D01*
Y-712284D01*
X1077489Y-700269D01*
X1071269Y-689496D01*
X1062473Y-680699D01*
X1051700Y-674480D01*
X1039684Y-671260D01*
D02*
G37*
G36*
X626298D02*
X613859D01*
X601843Y-674480D01*
X591070Y-680699D01*
X582274Y-689496D01*
X576054Y-700269D01*
X572835Y-712284D01*
Y-724724D01*
X576054Y-736740D01*
X582274Y-747513D01*
X591070Y-756309D01*
X601843Y-762529D01*
X613859Y-765748D01*
X626298D01*
X638314Y-762529D01*
X649087Y-756309D01*
X657883Y-747513D01*
X664103Y-736740D01*
X667323Y-724724D01*
Y-712284D01*
X664103Y-700269D01*
X657883Y-689496D01*
X649087Y-680699D01*
X638314Y-674480D01*
X626298Y-671260D01*
D02*
G37*
G36*
X212912D02*
X200473D01*
X188457Y-674480D01*
X177684Y-680699D01*
X168888Y-689496D01*
X162668Y-700269D01*
X159448Y-712284D01*
Y-724724D01*
X162668Y-736740D01*
X168888Y-747513D01*
X177684Y-756309D01*
X188457Y-762529D01*
X200473Y-765748D01*
X212912D01*
X224928Y-762529D01*
X235701Y-756309D01*
X244497Y-747513D01*
X250717Y-736740D01*
X253937Y-724724D01*
Y-712284D01*
X250717Y-700269D01*
X244497Y-689496D01*
X235701Y-680699D01*
X224928Y-674480D01*
X212912Y-671260D01*
D02*
G37*
G36*
X-200474D02*
X-212913D01*
X-224929Y-674480D01*
X-235702Y-680699D01*
X-244498Y-689496D01*
X-250718Y-700269D01*
X-253938Y-712284D01*
Y-724724D01*
X-250718Y-736740D01*
X-244498Y-747513D01*
X-235702Y-756309D01*
X-224929Y-762529D01*
X-212913Y-765748D01*
X-200474D01*
X-188458Y-762529D01*
X-177685Y-756309D01*
X-168889Y-747513D01*
X-162669Y-736740D01*
X-159449Y-724724D01*
Y-712284D01*
X-162669Y-700269D01*
X-168889Y-689496D01*
X-177685Y-680699D01*
X-188458Y-674480D01*
X-200474Y-671260D01*
D02*
G37*
G36*
X-613860D02*
X-626299D01*
X-638315Y-674480D01*
X-649088Y-680699D01*
X-657884Y-689496D01*
X-664104Y-700269D01*
X-667323Y-712284D01*
Y-724724D01*
X-664104Y-736740D01*
X-657884Y-747513D01*
X-649088Y-756309D01*
X-638315Y-762529D01*
X-626299Y-765748D01*
X-613860D01*
X-601844Y-762529D01*
X-591071Y-756309D01*
X-582275Y-747513D01*
X-576055Y-736740D01*
X-572835Y-724724D01*
Y-712284D01*
X-576055Y-700269D01*
X-582275Y-689496D01*
X-591071Y-680699D01*
X-601844Y-674480D01*
X-613860Y-671260D01*
D02*
G37*
G36*
X-1027246D02*
X-1039685D01*
X-1051701Y-674480D01*
X-1062474Y-680699D01*
X-1071270Y-689496D01*
X-1077490Y-700269D01*
X-1080709Y-712284D01*
Y-724724D01*
X-1077490Y-736740D01*
X-1071270Y-747513D01*
X-1062474Y-756309D01*
X-1051701Y-762529D01*
X-1039685Y-765748D01*
X-1027246D01*
X-1015230Y-762529D01*
X-1004457Y-756309D01*
X-995661Y-747513D01*
X-989441Y-736740D01*
X-986221Y-724724D01*
Y-712284D01*
X-989441Y-700269D01*
X-995661Y-689496D01*
X-1004457Y-680699D01*
X-1015230Y-674480D01*
X-1027246Y-671260D01*
D02*
G37*
G36*
X-1440630D02*
X-1453069D01*
X-1465085Y-674480D01*
X-1475858Y-680699D01*
X-1484654Y-689496D01*
X-1490874Y-700269D01*
X-1494093Y-712284D01*
Y-724724D01*
X-1490874Y-736740D01*
X-1484654Y-747513D01*
X-1475858Y-756309D01*
X-1465085Y-762529D01*
X-1453069Y-765748D01*
X-1440630D01*
X-1428614Y-762529D01*
X-1417841Y-756309D01*
X-1409045Y-747513D01*
X-1402825Y-736740D01*
X-1399605Y-724724D01*
Y-712284D01*
X-1402825Y-700269D01*
X-1409045Y-689496D01*
X-1417841Y-680699D01*
X-1428614Y-674480D01*
X-1440630Y-671260D01*
D02*
G37*
G36*
X1277337Y-755906D02*
X1267939D01*
X1259257Y-759502D01*
X1252612Y-766147D01*
X1249016Y-774829D01*
Y-784227D01*
X1252612Y-792909D01*
X1259257Y-799554D01*
X1267939Y-803150D01*
X1277337D01*
X1286019Y-799554D01*
X1292664Y-792909D01*
X1296260Y-784227D01*
Y-774829D01*
X1292664Y-766147D01*
X1286019Y-759502D01*
X1277337Y-755906D01*
D02*
G37*
G36*
X450565D02*
X441168D01*
X432486Y-759502D01*
X425841Y-766147D01*
X422244Y-774829D01*
Y-784227D01*
X425841Y-792909D01*
X432486Y-799554D01*
X441168Y-803150D01*
X450565D01*
X459247Y-799554D01*
X465892Y-792909D01*
X469488Y-784227D01*
Y-774829D01*
X465892Y-766147D01*
X459247Y-759502D01*
X450565Y-755906D01*
D02*
G37*
G36*
X-376207D02*
X-385604D01*
X-394286Y-759502D01*
X-400931Y-766147D01*
X-404527Y-774829D01*
Y-784227D01*
X-400931Y-792909D01*
X-394286Y-799554D01*
X-385604Y-803150D01*
X-376207D01*
X-367525Y-799554D01*
X-360880Y-792909D01*
X-357283Y-784227D01*
Y-774829D01*
X-360880Y-766147D01*
X-367525Y-759502D01*
X-376207Y-755906D01*
D02*
G37*
G36*
X-1202978D02*
X-1212376D01*
X-1221058Y-759502D01*
X-1227703Y-766147D01*
X-1231299Y-774829D01*
Y-784227D01*
X-1227703Y-792909D01*
X-1221058Y-799554D01*
X-1212376Y-803150D01*
X-1202978D01*
X-1194296Y-799554D01*
X-1187651Y-792909D01*
X-1184055Y-784227D01*
Y-774829D01*
X-1187651Y-766147D01*
X-1194296Y-759502D01*
X-1202978Y-755906D01*
D02*
G37*
G36*
X0Y-751598D02*
X-14666Y-753043D01*
X-28768Y-757320D01*
X-41764Y-764267D01*
X-53156Y-773616D01*
X-62505Y-785008D01*
X-69451Y-798004D01*
X-73729Y-812106D01*
X-75174Y-826772D01*
X-73729Y-841437D01*
X-69451Y-855539D01*
X-62505Y-868536D01*
X-53156Y-879928D01*
X-41764Y-889276D01*
X-28768Y-896223D01*
X-14666Y-900501D01*
X0Y-901945D01*
X14666Y-900501D01*
X28768Y-896223D01*
X41764Y-889276D01*
X53156Y-879928D01*
X62505Y-868536D01*
X69451Y-855539D01*
X73729Y-841437D01*
X75174Y-826772D01*
X73729Y-812106D01*
X69451Y-798004D01*
X62505Y-785008D01*
X53156Y-773616D01*
X41764Y-764267D01*
X28768Y-757320D01*
X14666Y-753043D01*
X0Y-751598D01*
D02*
G37*
G36*
X1456693Y-886566D02*
Y-925198D01*
X1495325D01*
X1492856Y-915984D01*
X1486357Y-904726D01*
X1477165Y-895534D01*
X1465907Y-889035D01*
X1456693Y-886566D01*
D02*
G37*
G36*
X1043307D02*
Y-925198D01*
X1081939D01*
X1079470Y-915984D01*
X1072970Y-904726D01*
X1063778Y-895534D01*
X1052521Y-889035D01*
X1043307Y-886566D01*
D02*
G37*
G36*
X629921D02*
Y-925198D01*
X668553D01*
X666084Y-915984D01*
X659585Y-904726D01*
X650393Y-895534D01*
X639135Y-889035D01*
X629921Y-886566D01*
D02*
G37*
G36*
X216535D02*
Y-925198D01*
X255167D01*
X252698Y-915984D01*
X246198Y-904726D01*
X237006Y-895534D01*
X225749Y-889035D01*
X216535Y-886566D01*
D02*
G37*
G36*
X-196851D02*
Y-925198D01*
X-158219D01*
X-160688Y-915984D01*
X-167188Y-904726D01*
X-176380Y-895534D01*
X-187637Y-889035D01*
X-196851Y-886566D01*
D02*
G37*
G36*
X-610237D02*
Y-925198D01*
X-571605D01*
X-574074Y-915984D01*
X-580573Y-904726D01*
X-589765Y-895534D01*
X-601023Y-889035D01*
X-610237Y-886566D01*
D02*
G37*
G36*
X-1023623D02*
Y-925198D01*
X-984991D01*
X-987460Y-915984D01*
X-993960Y-904726D01*
X-1003152Y-895534D01*
X-1014409Y-889035D01*
X-1023623Y-886566D01*
D02*
G37*
G36*
X-1437007D02*
Y-925198D01*
X-1398375D01*
X-1400844Y-915984D01*
X-1407343Y-904726D01*
X-1416535Y-895534D01*
X-1427793Y-889035D01*
X-1437007Y-886566D01*
D02*
G37*
G36*
X1437008D02*
X1427794Y-889035D01*
X1416537Y-895534D01*
X1407345Y-904726D01*
X1400845Y-915984D01*
X1398376Y-925198D01*
X1437008D01*
Y-886566D01*
D02*
G37*
G36*
X1023622D02*
X1014409Y-889035D01*
X1003151Y-895534D01*
X993959Y-904726D01*
X987459Y-915984D01*
X984990Y-925198D01*
X1023622D01*
Y-886566D01*
D02*
G37*
G36*
X610236D02*
X601023Y-889035D01*
X589765Y-895534D01*
X580573Y-904726D01*
X574073Y-915984D01*
X571604Y-925198D01*
X610236D01*
Y-886566D01*
D02*
G37*
G36*
X196850D02*
X187637Y-889035D01*
X176379Y-895534D01*
X167187Y-904726D01*
X160687Y-915984D01*
X158218Y-925198D01*
X196850D01*
Y-886566D01*
D02*
G37*
G36*
X-216536D02*
X-225750Y-889035D01*
X-237007Y-895534D01*
X-246199Y-904726D01*
X-252699Y-915984D01*
X-255168Y-925198D01*
X-216536D01*
Y-886566D01*
D02*
G37*
G36*
X-629922D02*
X-639135Y-889035D01*
X-650393Y-895534D01*
X-659585Y-904726D01*
X-666085Y-915984D01*
X-668554Y-925198D01*
X-629922D01*
Y-886566D01*
D02*
G37*
G36*
X-1456692D02*
X-1465906Y-889035D01*
X-1477163Y-895534D01*
X-1486355Y-904726D01*
X-1492855Y-915984D01*
X-1495324Y-925198D01*
X-1456692D01*
Y-886566D01*
D02*
G37*
G36*
X-1043308D02*
X-1052522Y-889035D01*
X-1063779Y-895534D01*
X-1072971Y-904726D01*
X-1079471Y-915984D01*
X-1081940Y-925198D01*
X-1043308D01*
Y-886566D01*
D02*
G37*
G36*
X1081939Y-944883D02*
X1043307D01*
Y-983515D01*
X1052521Y-981046D01*
X1063778Y-974546D01*
X1072970Y-965354D01*
X1079470Y-954096D01*
X1081939Y-944883D01*
D02*
G37*
G36*
X668553D02*
X629921D01*
Y-983515D01*
X639135Y-981046D01*
X650393Y-974546D01*
X659585Y-965354D01*
X666084Y-954096D01*
X668553Y-944883D01*
D02*
G37*
G36*
X255167D02*
X216535D01*
Y-983515D01*
X225749Y-981046D01*
X237006Y-974546D01*
X246198Y-965354D01*
X252698Y-954096D01*
X255167Y-944883D01*
D02*
G37*
G36*
X-984991D02*
X-1023623D01*
Y-983515D01*
X-1014409Y-981046D01*
X-1003152Y-974546D01*
X-993960Y-965354D01*
X-987460Y-954096D01*
X-984991Y-944883D01*
D02*
G37*
G36*
X-571605D02*
X-610237D01*
Y-983515D01*
X-601023Y-981046D01*
X-589765Y-974546D01*
X-580573Y-965354D01*
X-574074Y-954096D01*
X-571605Y-944883D01*
D02*
G37*
G36*
X1495325D02*
X1456693D01*
Y-983515D01*
X1465907Y-981046D01*
X1477165Y-974546D01*
X1486357Y-965354D01*
X1492856Y-954096D01*
X1495325Y-944883D01*
D02*
G37*
G36*
X-158219D02*
X-196851D01*
Y-983515D01*
X-187637Y-981046D01*
X-176380Y-974546D01*
X-167188Y-965354D01*
X-160688Y-954096D01*
X-158219Y-944883D01*
D02*
G37*
G36*
X-1398375D02*
X-1437007D01*
Y-983515D01*
X-1427793Y-981046D01*
X-1416535Y-974546D01*
X-1407343Y-965354D01*
X-1400844Y-954096D01*
X-1398375Y-944883D01*
D02*
G37*
G36*
X1437008D02*
X1398376D01*
X1400845Y-954096D01*
X1407345Y-965354D01*
X1416537Y-974546D01*
X1427794Y-981046D01*
X1437008Y-983515D01*
Y-944883D01*
D02*
G37*
G36*
X-216536D02*
X-255168D01*
X-252699Y-954096D01*
X-246199Y-965354D01*
X-237007Y-974546D01*
X-225750Y-981046D01*
X-216536Y-983515D01*
Y-944883D01*
D02*
G37*
G36*
X-1456692D02*
X-1495324D01*
X-1492855Y-954096D01*
X-1486355Y-965354D01*
X-1477163Y-974546D01*
X-1465906Y-981046D01*
X-1456692Y-983515D01*
Y-944883D01*
D02*
G37*
G36*
X-629922D02*
X-668554D01*
X-666085Y-954096D01*
X-659585Y-965354D01*
X-650393Y-974546D01*
X-639135Y-981046D01*
X-629922Y-983515D01*
Y-944883D01*
D02*
G37*
G36*
X1023622D02*
X984990D01*
X987459Y-954096D01*
X993959Y-965354D01*
X1003151Y-974546D01*
X1014409Y-981046D01*
X1023622Y-983515D01*
Y-944883D01*
D02*
G37*
G36*
X610236D02*
X571604D01*
X574073Y-954096D01*
X580573Y-965354D01*
X589765Y-974546D01*
X601023Y-981046D01*
X610236Y-983515D01*
Y-944883D01*
D02*
G37*
G36*
X196850D02*
X158218D01*
X160687Y-954096D01*
X167187Y-965354D01*
X176379Y-974546D01*
X187637Y-981046D01*
X196850Y-983515D01*
Y-944883D01*
D02*
G37*
G36*
X-1043308D02*
X-1081940D01*
X-1079471Y-954096D01*
X-1072971Y-965354D01*
X-1063779Y-974546D01*
X-1052522Y-981046D01*
X-1043308Y-983515D01*
Y-944883D01*
D02*
G37*
G36*
X624778Y-1039370D02*
X615380D01*
X606698Y-1042967D01*
X600722Y-1048943D01*
X433662D01*
Y-1048861D01*
X415808Y-1050266D01*
X398393Y-1054447D01*
X381847Y-1061301D01*
X366577Y-1070658D01*
X352959Y-1082289D01*
X341327Y-1095908D01*
X331970Y-1111178D01*
X325116Y-1127724D01*
X320935Y-1145138D01*
X319530Y-1162992D01*
X319612D01*
Y-1250985D01*
X319724Y-1251545D01*
X318041Y-1260006D01*
X314129Y-1265860D01*
X309641Y-1268361D01*
X300959Y-1264764D01*
X291561D01*
X282879Y-1268361D01*
X276234Y-1275005D01*
X272638Y-1283688D01*
Y-1293085D01*
X276234Y-1301767D01*
X282879Y-1308412D01*
X291561Y-1312008D01*
X300959D01*
X309641Y-1308412D01*
X316286Y-1301767D01*
X318126Y-1297326D01*
X322071Y-1295691D01*
X332763Y-1287487D01*
X340967Y-1276796D01*
X346124Y-1264346D01*
X347883Y-1250985D01*
X347711D01*
Y-1162992D01*
X347588Y-1162371D01*
X349182Y-1146188D01*
X354083Y-1130030D01*
X362043Y-1115138D01*
X372755Y-1102085D01*
X385808Y-1091373D01*
X400699Y-1083414D01*
X416858Y-1078512D01*
X433040Y-1076918D01*
X433662Y-1077042D01*
X600722D01*
X605413Y-1081733D01*
X604567Y-1087136D01*
X601843Y-1087866D01*
X591070Y-1094085D01*
X582274Y-1102882D01*
X576054Y-1113655D01*
X572835Y-1125670D01*
Y-1138110D01*
X576054Y-1150126D01*
X582274Y-1160899D01*
X591070Y-1169695D01*
X601843Y-1175915D01*
X613859Y-1179134D01*
X626298D01*
X638314Y-1175915D01*
X649087Y-1169695D01*
X657883Y-1160899D01*
X664103Y-1150126D01*
X667323Y-1138110D01*
Y-1125670D01*
X664103Y-1113655D01*
X657883Y-1102882D01*
X649087Y-1094085D01*
X638314Y-1087866D01*
X635590Y-1087136D01*
X634745Y-1081733D01*
X640105Y-1076373D01*
X643701Y-1067691D01*
Y-1058294D01*
X640105Y-1049612D01*
X633460Y-1042967D01*
X624778Y-1039370D01*
D02*
G37*
G36*
X-1028766D02*
X-1038163D01*
X-1046845Y-1042967D01*
X-1052822Y-1048943D01*
X-1219882D01*
Y-1048861D01*
X-1237736Y-1050266D01*
X-1255150Y-1054447D01*
X-1271696Y-1061301D01*
X-1286967Y-1070658D01*
X-1300585Y-1082289D01*
X-1312216Y-1095908D01*
X-1321574Y-1111178D01*
X-1328427Y-1127724D01*
X-1332608Y-1145138D01*
X-1334013Y-1162992D01*
X-1333931D01*
Y-1250985D01*
X-1333820Y-1251545D01*
X-1335503Y-1260006D01*
X-1339414Y-1265860D01*
X-1343903Y-1268361D01*
X-1352585Y-1264764D01*
X-1361982D01*
X-1370664Y-1268361D01*
X-1377309Y-1275005D01*
X-1380906Y-1283688D01*
Y-1293085D01*
X-1377309Y-1301767D01*
X-1370664Y-1308412D01*
X-1361982Y-1312008D01*
X-1352585D01*
X-1343903Y-1308412D01*
X-1337258Y-1301767D01*
X-1335418Y-1297326D01*
X-1331472Y-1295691D01*
X-1320781Y-1287487D01*
X-1312577Y-1276796D01*
X-1307420Y-1264346D01*
X-1305661Y-1250985D01*
X-1305832D01*
Y-1162992D01*
X-1305956Y-1162371D01*
X-1304362Y-1146188D01*
X-1299460Y-1130030D01*
X-1291501Y-1115138D01*
X-1280789Y-1102085D01*
X-1267736Y-1091373D01*
X-1252844Y-1083414D01*
X-1236686Y-1078512D01*
X-1220503Y-1076918D01*
X-1219882Y-1077042D01*
X-1052822D01*
X-1048131Y-1081733D01*
X-1048976Y-1087136D01*
X-1051701Y-1087866D01*
X-1062474Y-1094085D01*
X-1071270Y-1102882D01*
X-1077490Y-1113655D01*
X-1080709Y-1125670D01*
Y-1138110D01*
X-1077490Y-1150126D01*
X-1071270Y-1160899D01*
X-1062474Y-1169695D01*
X-1051701Y-1175915D01*
X-1039685Y-1179134D01*
X-1027246D01*
X-1015230Y-1175915D01*
X-1004457Y-1169695D01*
X-995661Y-1160899D01*
X-989441Y-1150126D01*
X-986221Y-1138110D01*
Y-1125670D01*
X-989441Y-1113655D01*
X-995661Y-1102882D01*
X-1004457Y-1094085D01*
X-1015230Y-1087866D01*
X-1017954Y-1087136D01*
X-1018799Y-1081733D01*
X-1013439Y-1076373D01*
X-1009843Y-1067691D01*
Y-1058294D01*
X-1013439Y-1049612D01*
X-1020084Y-1042967D01*
X-1028766Y-1039370D01*
D02*
G37*
G36*
X1453070Y-1084646D02*
X1440631D01*
X1428615Y-1087866D01*
X1417842Y-1094085D01*
X1409046Y-1102882D01*
X1402826Y-1113655D01*
X1399607Y-1125670D01*
Y-1138110D01*
X1402826Y-1150126D01*
X1409046Y-1160899D01*
X1417842Y-1169695D01*
X1428615Y-1175915D01*
X1440631Y-1179134D01*
X1453070D01*
X1465086Y-1175915D01*
X1475859Y-1169695D01*
X1484655Y-1160899D01*
X1490875Y-1150126D01*
X1494095Y-1138110D01*
Y-1125670D01*
X1490875Y-1113655D01*
X1484655Y-1102882D01*
X1475859Y-1094085D01*
X1465086Y-1087866D01*
X1453070Y-1084646D01*
D02*
G37*
G36*
X1039684D02*
X1027245D01*
X1015229Y-1087866D01*
X1004456Y-1094085D01*
X995660Y-1102882D01*
X989440Y-1113655D01*
X986221Y-1125670D01*
Y-1138110D01*
X989440Y-1150126D01*
X995660Y-1160899D01*
X1004456Y-1169695D01*
X1015229Y-1175915D01*
X1027245Y-1179134D01*
X1039684D01*
X1051700Y-1175915D01*
X1062473Y-1169695D01*
X1071269Y-1160899D01*
X1077489Y-1150126D01*
X1080709Y-1138110D01*
Y-1125670D01*
X1077489Y-1113655D01*
X1071269Y-1102882D01*
X1062473Y-1094085D01*
X1051700Y-1087866D01*
X1039684Y-1084646D01*
D02*
G37*
G36*
X212912D02*
X200473D01*
X188457Y-1087866D01*
X177684Y-1094085D01*
X168888Y-1102882D01*
X162668Y-1113655D01*
X159448Y-1125670D01*
Y-1138110D01*
X162668Y-1150126D01*
X168888Y-1160899D01*
X177684Y-1169695D01*
X188457Y-1175915D01*
X200473Y-1179134D01*
X212912D01*
X224928Y-1175915D01*
X235701Y-1169695D01*
X244497Y-1160899D01*
X250717Y-1150126D01*
X253937Y-1138110D01*
Y-1125670D01*
X250717Y-1113655D01*
X244497Y-1102882D01*
X235701Y-1094085D01*
X224928Y-1087866D01*
X212912Y-1084646D01*
D02*
G37*
G36*
X-200474D02*
X-212913D01*
X-224929Y-1087866D01*
X-235702Y-1094085D01*
X-244498Y-1102882D01*
X-250718Y-1113655D01*
X-253938Y-1125670D01*
Y-1138110D01*
X-250718Y-1150126D01*
X-244498Y-1160899D01*
X-235702Y-1169695D01*
X-224929Y-1175915D01*
X-212913Y-1179134D01*
X-200474D01*
X-188458Y-1175915D01*
X-177685Y-1169695D01*
X-168889Y-1160899D01*
X-162669Y-1150126D01*
X-159449Y-1138110D01*
Y-1125670D01*
X-162669Y-1113655D01*
X-168889Y-1102882D01*
X-177685Y-1094085D01*
X-188458Y-1087866D01*
X-200474Y-1084646D01*
D02*
G37*
G36*
X-613860D02*
X-626299D01*
X-638315Y-1087866D01*
X-649088Y-1094085D01*
X-657884Y-1102882D01*
X-664104Y-1113655D01*
X-667323Y-1125670D01*
Y-1138110D01*
X-664104Y-1150126D01*
X-657884Y-1160899D01*
X-649088Y-1169695D01*
X-638315Y-1175915D01*
X-626299Y-1179134D01*
X-613860D01*
X-601844Y-1175915D01*
X-591071Y-1169695D01*
X-582275Y-1160899D01*
X-576055Y-1150126D01*
X-572835Y-1138110D01*
Y-1125670D01*
X-576055Y-1113655D01*
X-582275Y-1102882D01*
X-591071Y-1094085D01*
X-601844Y-1087866D01*
X-613860Y-1084646D01*
D02*
G37*
G36*
X-1440630D02*
X-1453069D01*
X-1465085Y-1087866D01*
X-1475858Y-1094085D01*
X-1484654Y-1102882D01*
X-1490874Y-1113655D01*
X-1494093Y-1125670D01*
Y-1138110D01*
X-1490874Y-1150126D01*
X-1484654Y-1160899D01*
X-1475858Y-1169695D01*
X-1465085Y-1175915D01*
X-1453069Y-1179134D01*
X-1440630D01*
X-1428614Y-1175915D01*
X-1417841Y-1169695D01*
X-1409045Y-1160899D01*
X-1402825Y-1150126D01*
X-1399605Y-1138110D01*
Y-1125670D01*
X-1402825Y-1113655D01*
X-1409045Y-1102882D01*
X-1417841Y-1094085D01*
X-1428614Y-1087866D01*
X-1440630Y-1084646D01*
D02*
G37*
G36*
X1277337Y-1169292D02*
X1267939D01*
X1259257Y-1172888D01*
X1252612Y-1179533D01*
X1249016Y-1188215D01*
Y-1197612D01*
X1252612Y-1206295D01*
X1259257Y-1212940D01*
X1267939Y-1216536D01*
X1277337D01*
X1286019Y-1212940D01*
X1292664Y-1206295D01*
X1296260Y-1197612D01*
Y-1188215D01*
X1292664Y-1179533D01*
X1286019Y-1172888D01*
X1277337Y-1169292D01*
D02*
G37*
G36*
X450565D02*
X441168D01*
X432486Y-1172888D01*
X425841Y-1179533D01*
X422244Y-1188215D01*
Y-1197612D01*
X425841Y-1206295D01*
X432486Y-1212940D01*
X441168Y-1216536D01*
X450565D01*
X459247Y-1212940D01*
X465892Y-1206295D01*
X469488Y-1197612D01*
Y-1188215D01*
X465892Y-1179533D01*
X459247Y-1172888D01*
X450565Y-1169292D01*
D02*
G37*
G36*
X-376207D02*
X-385604D01*
X-394286Y-1172888D01*
X-400931Y-1179533D01*
X-404527Y-1188215D01*
Y-1197612D01*
X-400931Y-1206295D01*
X-394286Y-1212940D01*
X-385604Y-1216536D01*
X-376207D01*
X-367525Y-1212940D01*
X-360880Y-1206295D01*
X-357283Y-1197612D01*
Y-1188215D01*
X-360880Y-1179533D01*
X-367525Y-1172888D01*
X-376207Y-1169292D01*
D02*
G37*
G36*
X-1202978D02*
X-1212376D01*
X-1221058Y-1172888D01*
X-1227703Y-1179533D01*
X-1231299Y-1188215D01*
Y-1197612D01*
X-1227703Y-1206295D01*
X-1221058Y-1212940D01*
X-1212376Y-1216536D01*
X-1202978D01*
X-1194296Y-1212940D01*
X-1187651Y-1206295D01*
X-1184055Y-1197612D01*
Y-1188215D01*
X-1187651Y-1179533D01*
X-1194296Y-1172888D01*
X-1202978Y-1169292D01*
D02*
G37*
G36*
X1027337Y-1025591D02*
X1017939D01*
X1009257Y-1029187D01*
X1002612Y-1035832D01*
X999016Y-1044514D01*
Y-1053912D01*
X1002612Y-1062594D01*
X1009257Y-1069239D01*
X1017939Y-1072835D01*
X1027337D01*
X1036019Y-1069239D01*
X1041995Y-1063262D01*
X1115552D01*
X1116173Y-1063139D01*
X1132356Y-1064733D01*
X1148514Y-1069634D01*
X1163406Y-1077594D01*
X1176458Y-1088306D01*
X1187170Y-1101359D01*
X1195130Y-1116250D01*
X1200032Y-1132409D01*
X1201626Y-1148591D01*
X1201502Y-1149213D01*
Y-1264764D01*
X1201467D01*
X1202683Y-1277113D01*
X1206285Y-1288987D01*
X1212135Y-1299930D01*
X1220006Y-1309522D01*
X1229598Y-1317394D01*
X1240542Y-1323243D01*
X1243392Y-1324108D01*
X1244738Y-1327358D01*
X1251383Y-1334003D01*
X1260065Y-1337599D01*
X1269463D01*
X1278145Y-1334003D01*
X1284790Y-1327358D01*
X1288386Y-1318676D01*
Y-1309278D01*
X1284790Y-1300596D01*
X1278145Y-1293951D01*
X1269463Y-1290355D01*
X1260065D01*
X1251383Y-1293951D01*
X1249204Y-1296130D01*
X1247147Y-1295278D01*
X1239850Y-1289679D01*
X1234250Y-1282381D01*
X1230730Y-1273884D01*
X1229558Y-1264980D01*
X1229601Y-1264764D01*
Y-1149213D01*
X1229683D01*
X1228278Y-1131359D01*
X1224097Y-1113944D01*
X1217243Y-1097398D01*
X1207886Y-1082128D01*
X1196255Y-1068510D01*
X1182636Y-1056879D01*
X1167366Y-1047521D01*
X1150820Y-1040668D01*
X1133406Y-1036487D01*
X1115552Y-1035082D01*
Y-1035163D01*
X1041995D01*
X1036019Y-1029187D01*
X1027337Y-1025591D01*
D02*
G37*
G36*
X-626207D02*
X-635604D01*
X-644286Y-1029187D01*
X-650931Y-1035832D01*
X-654528Y-1044514D01*
Y-1053912D01*
X-650931Y-1062594D01*
X-644286Y-1069239D01*
X-635604Y-1072835D01*
X-626207D01*
X-617525Y-1069239D01*
X-611548Y-1063262D01*
X-537992D01*
X-537371Y-1063139D01*
X-521188Y-1064733D01*
X-505029Y-1069634D01*
X-490138Y-1077594D01*
X-477085Y-1088306D01*
X-466373Y-1101359D01*
X-458413Y-1116250D01*
X-453512Y-1132409D01*
X-451918Y-1148591D01*
X-452042Y-1149213D01*
Y-1264764D01*
X-452076D01*
X-450860Y-1277113D01*
X-447258Y-1288987D01*
X-441409Y-1299930D01*
X-433537Y-1309522D01*
X-423945Y-1317394D01*
X-413002Y-1323243D01*
X-410151Y-1324108D01*
X-408805Y-1327358D01*
X-402160Y-1334003D01*
X-393478Y-1337599D01*
X-384081D01*
X-375399Y-1334003D01*
X-368754Y-1327358D01*
X-365157Y-1318676D01*
Y-1309278D01*
X-368754Y-1300596D01*
X-375399Y-1293951D01*
X-384081Y-1290355D01*
X-393478D01*
X-402160Y-1293951D01*
X-404339Y-1296130D01*
X-406397Y-1295278D01*
X-413694Y-1289679D01*
X-419293Y-1282381D01*
X-422813Y-1273884D01*
X-423986Y-1264980D01*
X-423943Y-1264764D01*
Y-1149213D01*
X-423861D01*
X-425266Y-1131359D01*
X-429447Y-1113944D01*
X-436300Y-1097398D01*
X-445658Y-1082128D01*
X-457289Y-1068510D01*
X-470907Y-1056879D01*
X-486178Y-1047521D01*
X-502724Y-1040668D01*
X-520138Y-1036487D01*
X-537992Y-1035082D01*
Y-1035163D01*
X-611548D01*
X-617525Y-1029187D01*
X-626207Y-1025591D01*
D02*
G37*
G36*
X1456693Y-1299950D02*
Y-1338582D01*
X1495325D01*
X1492856Y-1329368D01*
X1486357Y-1318110D01*
X1477165Y-1308918D01*
X1465907Y-1302419D01*
X1456693Y-1299950D01*
D02*
G37*
G36*
X1043307D02*
Y-1338582D01*
X1081939D01*
X1079470Y-1329368D01*
X1072970Y-1318110D01*
X1063778Y-1308918D01*
X1052521Y-1302419D01*
X1043307Y-1299950D01*
D02*
G37*
G36*
X629921D02*
Y-1338582D01*
X668553D01*
X666084Y-1329368D01*
X659585Y-1318110D01*
X650393Y-1308918D01*
X639135Y-1302419D01*
X629921Y-1299950D01*
D02*
G37*
G36*
X216535D02*
Y-1338582D01*
X255167D01*
X252698Y-1329368D01*
X246198Y-1318110D01*
X237006Y-1308918D01*
X225749Y-1302419D01*
X216535Y-1299950D01*
D02*
G37*
G36*
X-196851D02*
Y-1338582D01*
X-158219D01*
X-160688Y-1329368D01*
X-167188Y-1318110D01*
X-176380Y-1308918D01*
X-187637Y-1302419D01*
X-196851Y-1299950D01*
D02*
G37*
G36*
X-610237D02*
Y-1338582D01*
X-571605D01*
X-574074Y-1329368D01*
X-580573Y-1318110D01*
X-589765Y-1308918D01*
X-601023Y-1302419D01*
X-610237Y-1299950D01*
D02*
G37*
G36*
X-1023623D02*
Y-1338582D01*
X-984991D01*
X-987460Y-1329368D01*
X-993960Y-1318110D01*
X-1003152Y-1308918D01*
X-1014409Y-1302419D01*
X-1023623Y-1299950D01*
D02*
G37*
G36*
X-1437007D02*
Y-1338582D01*
X-1398375D01*
X-1400844Y-1329368D01*
X-1407343Y-1318110D01*
X-1416535Y-1308918D01*
X-1427793Y-1302419D01*
X-1437007Y-1299950D01*
D02*
G37*
G36*
X-216536D02*
X-225750Y-1302419D01*
X-237007Y-1308918D01*
X-246199Y-1318110D01*
X-252699Y-1329368D01*
X-255168Y-1338582D01*
X-216536D01*
Y-1299950D01*
D02*
G37*
G36*
X-629922D02*
X-639135Y-1302419D01*
X-650393Y-1308918D01*
X-659585Y-1318110D01*
X-666085Y-1329368D01*
X-668554Y-1338582D01*
X-629922D01*
Y-1299950D01*
D02*
G37*
G36*
X-1456692D02*
X-1465906Y-1302419D01*
X-1477163Y-1308918D01*
X-1486355Y-1318110D01*
X-1492855Y-1329368D01*
X-1495324Y-1338582D01*
X-1456692D01*
Y-1299950D01*
D02*
G37*
G36*
X-1043308D02*
X-1052522Y-1302419D01*
X-1063779Y-1308918D01*
X-1072971Y-1318110D01*
X-1079471Y-1329368D01*
X-1081940Y-1338582D01*
X-1043308D01*
Y-1299950D01*
D02*
G37*
G36*
X1437008D02*
X1427794Y-1302419D01*
X1416537Y-1308918D01*
X1407345Y-1318110D01*
X1400845Y-1329368D01*
X1398376Y-1338582D01*
X1437008D01*
Y-1299950D01*
D02*
G37*
G36*
X1023622D02*
X1014409Y-1302419D01*
X1003151Y-1308918D01*
X993959Y-1318110D01*
X987459Y-1329368D01*
X984990Y-1338582D01*
X1023622D01*
Y-1299950D01*
D02*
G37*
G36*
X610236D02*
X601023Y-1302419D01*
X589765Y-1308918D01*
X580573Y-1318110D01*
X574073Y-1329368D01*
X571604Y-1338582D01*
X610236D01*
Y-1299950D01*
D02*
G37*
G36*
X196850D02*
X187637Y-1302419D01*
X176379Y-1308918D01*
X167187Y-1318110D01*
X160687Y-1329368D01*
X158218Y-1338582D01*
X196850D01*
Y-1299950D01*
D02*
G37*
G36*
X923050Y-1302362D02*
X913721D01*
X904709Y-1304777D01*
X896629Y-1309442D01*
X890032Y-1316039D01*
X885367Y-1324119D01*
X882952Y-1333131D01*
Y-1342460D01*
X885367Y-1351472D01*
X890032Y-1359552D01*
X896629Y-1366149D01*
X904709Y-1370814D01*
X913721Y-1373228D01*
X923050D01*
X932062Y-1370814D01*
X940142Y-1366149D01*
X946739Y-1359552D01*
X951404Y-1351472D01*
X953818Y-1342460D01*
Y-1333131D01*
X951404Y-1324119D01*
X946739Y-1316039D01*
X940142Y-1309442D01*
X932062Y-1304777D01*
X923050Y-1302362D01*
D02*
G37*
G36*
X-731556D02*
X-740885D01*
X-749897Y-1304777D01*
X-757977Y-1309442D01*
X-764574Y-1316039D01*
X-769239Y-1324119D01*
X-771654Y-1333131D01*
Y-1342460D01*
X-769239Y-1351472D01*
X-764574Y-1359552D01*
X-757977Y-1366149D01*
X-749897Y-1370814D01*
X-740885Y-1373228D01*
X-731556D01*
X-722544Y-1370814D01*
X-714464Y-1366149D01*
X-707867Y-1359552D01*
X-703202Y-1351472D01*
X-700788Y-1342460D01*
Y-1333131D01*
X-703202Y-1324119D01*
X-707867Y-1316039D01*
X-714464Y-1309442D01*
X-722544Y-1304777D01*
X-731556Y-1302362D01*
D02*
G37*
G36*
X668553Y-1358267D02*
X629921D01*
Y-1396899D01*
X639135Y-1394430D01*
X650393Y-1387930D01*
X659585Y-1378738D01*
X666084Y-1367480D01*
X668553Y-1358267D01*
D02*
G37*
G36*
X255167D02*
X216535D01*
Y-1396899D01*
X225749Y-1394430D01*
X237006Y-1387930D01*
X246198Y-1378738D01*
X252698Y-1367480D01*
X255167Y-1358267D01*
D02*
G37*
G36*
X-984991D02*
X-1023623D01*
Y-1396899D01*
X-1014409Y-1394430D01*
X-1003152Y-1387930D01*
X-993960Y-1378738D01*
X-987460Y-1367480D01*
X-984991Y-1358267D01*
D02*
G37*
G36*
X-571605D02*
X-610237D01*
Y-1396899D01*
X-601023Y-1394430D01*
X-589765Y-1387930D01*
X-580573Y-1378738D01*
X-574074Y-1367480D01*
X-571605Y-1358267D01*
D02*
G37*
G36*
X1495325D02*
X1456693D01*
Y-1396899D01*
X1465907Y-1394430D01*
X1477165Y-1387930D01*
X1486357Y-1378738D01*
X1492856Y-1367480D01*
X1495325Y-1358267D01*
D02*
G37*
G36*
X1081939D02*
X1043307D01*
Y-1396899D01*
X1052521Y-1394430D01*
X1063778Y-1387930D01*
X1072970Y-1378738D01*
X1079470Y-1367480D01*
X1081939Y-1358267D01*
D02*
G37*
G36*
X-158219D02*
X-196851D01*
Y-1396899D01*
X-187637Y-1394430D01*
X-176380Y-1387930D01*
X-167188Y-1378738D01*
X-160688Y-1367480D01*
X-158219Y-1358267D01*
D02*
G37*
G36*
X-1398375D02*
X-1437007D01*
Y-1396899D01*
X-1427793Y-1394430D01*
X-1416535Y-1387930D01*
X-1407343Y-1378738D01*
X-1400844Y-1367480D01*
X-1398375Y-1358267D01*
D02*
G37*
G36*
X1437008D02*
X1398376D01*
X1400845Y-1367480D01*
X1407345Y-1378738D01*
X1416537Y-1387930D01*
X1427794Y-1394430D01*
X1437008Y-1396899D01*
Y-1358267D01*
D02*
G37*
G36*
X-216536D02*
X-255168D01*
X-252699Y-1367480D01*
X-246199Y-1378738D01*
X-237007Y-1387930D01*
X-225750Y-1394430D01*
X-216536Y-1396899D01*
Y-1358267D01*
D02*
G37*
G36*
X-1456692D02*
X-1495324D01*
X-1492855Y-1367480D01*
X-1486355Y-1378738D01*
X-1477163Y-1387930D01*
X-1465906Y-1394430D01*
X-1456692Y-1396899D01*
Y-1358267D01*
D02*
G37*
G36*
X-629922D02*
X-668554D01*
X-666085Y-1367480D01*
X-659585Y-1378738D01*
X-650393Y-1387930D01*
X-639135Y-1394430D01*
X-629922Y-1396899D01*
Y-1358267D01*
D02*
G37*
G36*
X1023622D02*
X984990D01*
X987459Y-1367480D01*
X993959Y-1378738D01*
X1003151Y-1387930D01*
X1014409Y-1394430D01*
X1023622Y-1396899D01*
Y-1358267D01*
D02*
G37*
G36*
X610236D02*
X571604D01*
X574073Y-1367480D01*
X580573Y-1378738D01*
X589765Y-1387930D01*
X601023Y-1394430D01*
X610236Y-1396899D01*
Y-1358267D01*
D02*
G37*
G36*
X196850D02*
X158218D01*
X160687Y-1367480D01*
X167187Y-1378738D01*
X176379Y-1387930D01*
X187637Y-1394430D01*
X196850Y-1396899D01*
Y-1358267D01*
D02*
G37*
G36*
X-1043308D02*
X-1081940D01*
X-1079471Y-1367480D01*
X-1072971Y-1378738D01*
X-1063779Y-1387930D01*
X-1052522Y-1394430D01*
X-1043308Y-1396899D01*
Y-1358267D01*
D02*
G37*
%LPD*%
D28*
X826772Y0D02*
D03*
X0Y826772D02*
D03*
Y-826772D02*
D03*
Y0D02*
D03*
X-826772D02*
D03*
D30*
X-1142691Y1528263D02*
X-1143447Y1535258D01*
X-1147593Y1545501D01*
X-1154909Y1553782D01*
X-1164561Y1559160D01*
X-1175452Y1561024D01*
X-1143447Y1535259D02*
X-1142252Y1525500D01*
X-1140090Y1515909D01*
X-1136982Y1506582D01*
X-1132959Y1497611D01*
X-1128061Y1489086D01*
X-1122337Y1481093D01*
X-1115843Y1473710D01*
X-1108646Y1467012D01*
X-1100817Y1461066D01*
X-1092433Y1455930D01*
X-1083579Y1451657D01*
X-1074343Y1448288D01*
X-1064816Y1445857D01*
X-1055095Y1444389D01*
X-1045276Y1443898D01*
X1022912Y-206419D02*
X1012842Y-208458D01*
X1003122Y-211790D01*
X993920Y-216359D01*
X985391Y-222088D01*
X977680Y-228879D01*
X970919Y-236615D01*
X965223Y-245167D01*
X960689Y-254387D01*
X957395Y-264118D01*
X955395Y-274197D01*
X954725Y-284449D01*
X1033465Y-205709D02*
X1022912Y-206419D01*
X944489Y-48229D02*
X934687Y-48710D01*
X924980Y-50150D01*
X915460Y-52535D01*
X906220Y-55841D01*
X897349Y-60036D01*
X888932Y-65082D01*
X881049Y-70928D01*
X873778Y-77518D01*
X867188Y-84789D01*
X861341Y-92672D01*
X856296Y-101089D01*
X852101Y-109960D01*
X848794Y-119200D01*
X846410Y-128720D01*
X844970Y-138427D01*
X844489Y-148229D01*
X433662Y-1062992D02*
X423860Y-1063474D01*
X414153Y-1064914D01*
X404633Y-1067298D01*
X395393Y-1070604D01*
X386522Y-1074800D01*
X378105Y-1079845D01*
X370222Y-1085691D01*
X362951Y-1092282D01*
X356361Y-1099553D01*
X350515Y-1107435D01*
X345470Y-1115853D01*
X341274Y-1124724D01*
X337968Y-1133964D01*
X335583Y-1143483D01*
X334143Y-1153191D01*
X333662Y-1162992D01*
X296260Y-1288386D02*
X305940Y-1287112D01*
X314961Y-1283375D01*
X322707Y-1277432D01*
X328651Y-1269686D01*
X332387Y-1260665D01*
X333662Y-1250985D01*
X1215552Y-1264764D02*
X1216497Y-1274365D01*
X1219298Y-1283597D01*
X1223845Y-1292105D01*
X1229966Y-1299563D01*
X1237423Y-1305683D01*
X1245931Y-1310231D01*
X1255163Y-1313031D01*
X1264764Y-1313977D01*
X1215552Y-1149213D02*
X1215070Y-1139411D01*
X1213630Y-1129704D01*
X1211245Y-1120184D01*
X1207939Y-1110945D01*
X1203744Y-1102073D01*
X1198698Y-1093656D01*
X1192852Y-1085774D01*
X1186262Y-1078502D01*
X1178991Y-1071912D01*
X1171109Y-1066066D01*
X1162691Y-1061021D01*
X1153820Y-1056825D01*
X1144580Y-1053519D01*
X1135061Y-1051134D01*
X1125353Y-1049694D01*
X1115552Y-1049213D01*
X1216536Y-487205D02*
X1206287Y-487781D01*
X1196167Y-489500D01*
X1186303Y-492342D01*
X1176820Y-496270D01*
X1167836Y-501235D01*
X1159464Y-507175D01*
X1151810Y-514015D01*
X1144970Y-521669D01*
X1139030Y-530041D01*
X1134065Y-539025D01*
X1130137Y-548508D01*
X1127295Y-558372D01*
X1125576Y-568492D01*
X1125000Y-578740D01*
X1059055Y-644685D02*
X1069371Y-643873D01*
X1079434Y-641458D01*
X1088994Y-637498D01*
X1097817Y-632091D01*
X1105686Y-625370D01*
X1112406Y-617502D01*
X1117813Y-608679D01*
X1121773Y-599119D01*
X1124188Y-589057D01*
X1125000Y-578740D01*
X1000985Y-461615D02*
X991256Y-462203D01*
X981670Y-463960D01*
X972365Y-466859D01*
X963477Y-470859D01*
X955137Y-475901D01*
X947465Y-481912D01*
X940573Y-488803D01*
X934563Y-496475D01*
X929521Y-504816D01*
X925521Y-513703D01*
X922621Y-523008D01*
X920864Y-532595D01*
X920276Y-542323D01*
X852362Y-739173D02*
X862028Y-738482D01*
X871496Y-736423D01*
X880575Y-733036D01*
X889079Y-728393D01*
X896836Y-722586D01*
X903688Y-715734D01*
X909495Y-707977D01*
X914139Y-699472D01*
X917525Y-690394D01*
X919585Y-680925D01*
X920276Y-671260D01*
X781496Y-691536D02*
X781015Y-681734D01*
X779575Y-672027D01*
X777190Y-662507D01*
X773884Y-653267D01*
X769688Y-644396D01*
X764643Y-635979D01*
X758797Y-628096D01*
X752207Y-620825D01*
X744936Y-614235D01*
X737053Y-608389D01*
X728636Y-603344D01*
X719765Y-599148D01*
X710525Y-595842D01*
X701005Y-593457D01*
X691298Y-592017D01*
X681496Y-591536D01*
X517717Y-534449D02*
X518584Y-544362D01*
X521159Y-553974D01*
X525365Y-562992D01*
X531072Y-571144D01*
X538109Y-578180D01*
X546260Y-583888D01*
X555279Y-588093D01*
X564890Y-590668D01*
X574803Y-591536D01*
X517717Y-516733D02*
X516272Y-507608D01*
X512077Y-499377D01*
X505545Y-492844D01*
X497314Y-488650D01*
X488189Y-487205D01*
X296260Y-590552D02*
X297243Y-600536D01*
X300156Y-610138D01*
X304886Y-618986D01*
X311251Y-626742D01*
X319007Y-633107D01*
X327855Y-637837D01*
X337456Y-640749D01*
X347441Y-641733D01*
X1188977Y-73819D02*
X1179312Y-74510D01*
X1169843Y-76570D01*
X1160764Y-79956D01*
X1152260Y-84600D01*
X1144503Y-90407D01*
X1137651Y-97259D01*
X1131844Y-105016D01*
X1127200Y-113520D01*
X1123814Y-122599D01*
X1121755Y-132067D01*
X1121063Y-141733D01*
X1057087Y-205709D02*
X1067095Y-204921D01*
X1076857Y-202578D01*
X1086132Y-198736D01*
X1094691Y-193491D01*
X1102325Y-186971D01*
X1108845Y-179337D01*
X1114090Y-170777D01*
X1117932Y-161502D01*
X1120276Y-151741D01*
X1121063Y-141733D01*
X533465Y-373032D02*
X534156Y-382697D01*
X536216Y-392165D01*
X539602Y-401244D01*
X544246Y-409749D01*
X550053Y-417506D01*
X556904Y-424357D01*
X564662Y-430164D01*
X573166Y-434808D01*
X582245Y-438194D01*
X591713Y-440254D01*
X601378Y-440945D01*
X533465Y-373032D02*
X532926Y-362744D01*
X531314Y-352568D01*
X528648Y-342617D01*
X524956Y-332999D01*
X520278Y-323819D01*
X514667Y-315179D01*
X508184Y-307173D01*
X500899Y-299888D01*
X492893Y-293404D01*
X484252Y-287793D01*
X475073Y-283116D01*
X465455Y-279424D01*
X455503Y-276757D01*
X445328Y-275146D01*
X435040Y-274607D01*
X296260Y-209646D02*
X297060Y-219808D01*
X299440Y-229720D01*
X303340Y-239137D01*
X308666Y-247829D01*
X315287Y-255580D01*
X323038Y-262200D01*
X331729Y-267526D01*
X341147Y-271427D01*
X351059Y-273807D01*
X361221Y-274607D01*
X761811Y-309646D02*
X761330Y-299844D01*
X759890Y-290137D01*
X757505Y-280618D01*
X754199Y-271378D01*
X750003Y-262506D01*
X744958Y-254089D01*
X739112Y-246207D01*
X732522Y-238935D01*
X725251Y-232345D01*
X717368Y-226499D01*
X708951Y-221454D01*
X700080Y-217258D01*
X690840Y-213952D01*
X681320Y-211567D01*
X671613Y-210127D01*
X661811Y-209646D01*
X509843Y-111221D02*
X510382Y-121509D01*
X511994Y-131685D01*
X514660Y-141636D01*
X518352Y-151254D01*
X523029Y-160433D01*
X528640Y-169074D01*
X535124Y-177080D01*
X542409Y-184365D01*
X550415Y-190849D01*
X559055Y-196459D01*
X568235Y-201137D01*
X577853Y-204829D01*
X587804Y-207495D01*
X597980Y-209107D01*
X608268Y-209646D01*
X509843Y-104331D02*
X508349Y-94902D01*
X504016Y-86397D01*
X497265Y-79646D01*
X488760Y-75313D01*
X479331Y-73819D01*
X-1143701Y-104331D02*
X-1145194Y-94902D01*
X-1149528Y-86397D01*
X-1156278Y-79646D01*
X-1164784Y-75313D01*
X-1174213Y-73819D01*
X-1143701Y-111221D02*
X-1143162Y-121509D01*
X-1141550Y-131685D01*
X-1138883Y-141636D01*
X-1135191Y-151254D01*
X-1130514Y-160433D01*
X-1124903Y-169074D01*
X-1118420Y-177080D01*
X-1111135Y-184365D01*
X-1103129Y-190849D01*
X-1094488Y-196459D01*
X-1085309Y-201137D01*
X-1075691Y-204829D01*
X-1065739Y-207495D01*
X-1055564Y-209107D01*
X-1045276Y-209646D01*
X-891732Y-309646D02*
X-892214Y-299844D01*
X-893654Y-290137D01*
X-896038Y-280618D01*
X-899344Y-271378D01*
X-903540Y-262506D01*
X-908585Y-254089D01*
X-914431Y-246207D01*
X-921022Y-238935D01*
X-928293Y-232345D01*
X-936175Y-226499D01*
X-944593Y-221454D01*
X-953464Y-217258D01*
X-962704Y-213952D01*
X-972223Y-211567D01*
X-981931Y-210127D01*
X-991732Y-209646D01*
X-1357284Y-209646D02*
X-1356484Y-219808D01*
X-1354104Y-229720D01*
X-1350203Y-239137D01*
X-1344877Y-247829D01*
X-1338257Y-255580D01*
X-1330506Y-262200D01*
X-1321814Y-267526D01*
X-1312397Y-271427D01*
X-1302485Y-273807D01*
X-1292323Y-274607D01*
X-1120079Y-373032D02*
X-1120618Y-362744D01*
X-1122229Y-352568D01*
X-1124896Y-342617D01*
X-1128588Y-332999D01*
X-1133265Y-323819D01*
X-1138876Y-315179D01*
X-1145360Y-307173D01*
X-1152645Y-299888D01*
X-1160651Y-293404D01*
X-1169291Y-287793D01*
X-1178471Y-283116D01*
X-1188089Y-279424D01*
X-1198040Y-276757D01*
X-1208216Y-275146D01*
X-1218504Y-274607D01*
X-1120079Y-373032D02*
X-1119387Y-382697D01*
X-1117328Y-392165D01*
X-1113941Y-401244D01*
X-1109298Y-409749D01*
X-1103491Y-417506D01*
X-1096639Y-424357D01*
X-1088882Y-430164D01*
X-1080378Y-434808D01*
X-1071299Y-438194D01*
X-1061830Y-440254D01*
X-1052165Y-440945D01*
X-596457Y-205709D02*
X-586449Y-204921D01*
X-576687Y-202578D01*
X-567412Y-198736D01*
X-558852Y-193491D01*
X-551219Y-186971D01*
X-544699Y-179337D01*
X-539453Y-170777D01*
X-535611Y-161502D01*
X-533268Y-151741D01*
X-532480Y-141733D01*
X-464567Y-73819D02*
X-474232Y-74510D01*
X-483700Y-76570D01*
X-492779Y-79956D01*
X-501284Y-84600D01*
X-509041Y-90407D01*
X-515892Y-97259D01*
X-521699Y-105016D01*
X-526343Y-113520D01*
X-529729Y-122599D01*
X-531789Y-132067D01*
X-532480Y-141733D01*
X-1357284Y-590552D02*
X-1356300Y-600536D01*
X-1353388Y-610138D01*
X-1348658Y-618986D01*
X-1342293Y-626742D01*
X-1334537Y-633107D01*
X-1325689Y-637837D01*
X-1316087Y-640749D01*
X-1306102Y-641733D01*
X-1135827Y-516733D02*
X-1137272Y-507608D01*
X-1141466Y-499377D01*
X-1147998Y-492844D01*
X-1156230Y-488650D01*
X-1165354Y-487205D01*
X-1135827Y-534449D02*
X-1134959Y-544362D01*
X-1132384Y-553974D01*
X-1128179Y-562992D01*
X-1122471Y-571144D01*
X-1115435Y-578180D01*
X-1107284Y-583888D01*
X-1098265Y-588093D01*
X-1088653Y-590668D01*
X-1078740Y-591536D01*
X-872047Y-691536D02*
X-872529Y-681734D01*
X-873969Y-672027D01*
X-876353Y-662507D01*
X-879659Y-653267D01*
X-883855Y-644396D01*
X-888900Y-635979D01*
X-894746Y-628096D01*
X-901337Y-620825D01*
X-908608Y-614235D01*
X-916490Y-608389D01*
X-924908Y-603344D01*
X-933779Y-599148D01*
X-943019Y-595842D01*
X-952538Y-593457D01*
X-962246Y-592017D01*
X-972047Y-591536D01*
X-801181Y-739173D02*
X-791516Y-738482D01*
X-782048Y-736423D01*
X-772969Y-733036D01*
X-764464Y-728393D01*
X-756707Y-722586D01*
X-749856Y-715734D01*
X-744049Y-707977D01*
X-739405Y-699472D01*
X-736019Y-690394D01*
X-733959Y-680925D01*
X-733268Y-671260D01*
X-652559Y-461615D02*
X-662288Y-462203D01*
X-671874Y-463960D01*
X-681179Y-466859D01*
X-690066Y-470859D01*
X-698407Y-475901D01*
X-706079Y-481912D01*
X-712970Y-488803D01*
X-718981Y-496475D01*
X-724023Y-504816D01*
X-728023Y-513703D01*
X-730923Y-523008D01*
X-732679Y-532595D01*
X-733268Y-542323D01*
X-594488Y-644685D02*
X-584172Y-643873D01*
X-574110Y-641458D01*
X-564550Y-637498D01*
X-555727Y-632091D01*
X-547858Y-625370D01*
X-541138Y-617502D01*
X-535731Y-608679D01*
X-531771Y-599119D01*
X-529355Y-589057D01*
X-528543Y-578740D01*
X-437008Y-487205D02*
X-447257Y-487781D01*
X-457376Y-489500D01*
X-467240Y-492342D01*
X-476724Y-496270D01*
X-485708Y-501235D01*
X-494079Y-507175D01*
X-501733Y-514015D01*
X-508573Y-521669D01*
X-514513Y-530041D01*
X-519479Y-539025D01*
X-523407Y-548508D01*
X-526248Y-558372D01*
X-527968Y-568492D01*
X-528543Y-578740D01*
X-437992Y-1149213D02*
X-438474Y-1139411D01*
X-439914Y-1129704D01*
X-442298Y-1120184D01*
X-445604Y-1110945D01*
X-449800Y-1102073D01*
X-454845Y-1093656D01*
X-460691Y-1085774D01*
X-467281Y-1078502D01*
X-474553Y-1071912D01*
X-482435Y-1066066D01*
X-490852Y-1061021D01*
X-499724Y-1056825D01*
X-508964Y-1053519D01*
X-518483Y-1051134D01*
X-528190Y-1049694D01*
X-537992Y-1049213D01*
X-437992Y-1264764D02*
X-437046Y-1274365D01*
X-434246Y-1283597D01*
X-429698Y-1292105D01*
X-423578Y-1299563D01*
X-416120Y-1305683D01*
X-407612Y-1310231D01*
X-398380Y-1313031D01*
X-388779Y-1313977D01*
X-1357284Y-1288386D02*
X-1347603Y-1287112D01*
X-1338583Y-1283375D01*
X-1330837Y-1277432D01*
X-1324893Y-1269686D01*
X-1321156Y-1260665D01*
X-1319882Y-1250985D01*
X-1219882Y-1062992D02*
X-1229684Y-1063474D01*
X-1239391Y-1064914D01*
X-1248910Y-1067298D01*
X-1258150Y-1070604D01*
X-1267022Y-1074800D01*
X-1275439Y-1079845D01*
X-1283321Y-1085691D01*
X-1290593Y-1092282D01*
X-1297183Y-1099553D01*
X-1303029Y-1107435D01*
X-1308074Y-1115853D01*
X-1312270Y-1124724D01*
X-1315576Y-1133964D01*
X-1317960Y-1143483D01*
X-1319400Y-1153191D01*
X-1319882Y-1162992D01*
X-709055Y-48229D02*
X-718857Y-48710D01*
X-728564Y-50150D01*
X-738084Y-52535D01*
X-747323Y-55841D01*
X-756195Y-60036D01*
X-764612Y-65082D01*
X-772494Y-70928D01*
X-779766Y-77518D01*
X-786356Y-84789D01*
X-792202Y-92672D01*
X-797247Y-101089D01*
X-801443Y-109960D01*
X-804749Y-119200D01*
X-807134Y-128720D01*
X-808574Y-138427D01*
X-809055Y-148229D01*
X-620079Y-205709D02*
X-630632Y-206419D01*
X-640702Y-208458D01*
X-650421Y-211790D01*
X-659624Y-216359D01*
X-668153Y-222088D01*
X-675864Y-228879D01*
X-682624Y-236615D01*
X-688320Y-245167D01*
X-692854Y-254387D01*
X-696149Y-264118D01*
X-698149Y-274197D01*
X-698819Y-284449D01*
X509843Y1549213D02*
X508349Y1558641D01*
X504016Y1567147D01*
X497265Y1573897D01*
X488760Y1578231D01*
X479331Y1579724D01*
X509843Y1542323D02*
X510382Y1532035D01*
X511994Y1521859D01*
X514660Y1511908D01*
X518352Y1502290D01*
X523029Y1493110D01*
X528640Y1484470D01*
X535124Y1476464D01*
X542409Y1469179D01*
X550415Y1462695D01*
X559055Y1457084D01*
X568235Y1452407D01*
X577853Y1448715D01*
X587804Y1446048D01*
X597980Y1444437D01*
X608268Y1443898D01*
X761811Y1343898D02*
X761330Y1353699D01*
X759890Y1363407D01*
X757505Y1372926D01*
X754199Y1382166D01*
X750003Y1391037D01*
X744958Y1399455D01*
X739112Y1407337D01*
X732522Y1414608D01*
X725251Y1421199D01*
X717368Y1427045D01*
X708951Y1432090D01*
X700080Y1436286D01*
X690840Y1439592D01*
X681320Y1441976D01*
X671613Y1443416D01*
X661811Y1443898D01*
X296260Y1443898D02*
X297060Y1433736D01*
X299440Y1423824D01*
X303340Y1414406D01*
X308666Y1405715D01*
X315287Y1397964D01*
X323038Y1391343D01*
X331729Y1386017D01*
X341147Y1382116D01*
X351059Y1379737D01*
X361221Y1378937D01*
X533465Y1280512D02*
X532926Y1290800D01*
X531314Y1300976D01*
X528648Y1310927D01*
X524956Y1320545D01*
X520278Y1329724D01*
X514667Y1338365D01*
X508184Y1346371D01*
X500899Y1353656D01*
X492893Y1360139D01*
X484252Y1365751D01*
X475073Y1370428D01*
X465455Y1374120D01*
X455503Y1376786D01*
X445328Y1378398D01*
X435040Y1378937D01*
X533465Y1280512D02*
X534156Y1270847D01*
X536216Y1261378D01*
X539602Y1252300D01*
X544246Y1243795D01*
X550053Y1236038D01*
X556904Y1229186D01*
X564662Y1223379D01*
X573166Y1218736D01*
X582245Y1215349D01*
X591713Y1213290D01*
X601378Y1212598D01*
X1057087Y1447835D02*
X1067095Y1448622D01*
X1076857Y1450966D01*
X1086132Y1454808D01*
X1094691Y1460053D01*
X1102325Y1466573D01*
X1108845Y1474207D01*
X1114090Y1482766D01*
X1117932Y1492041D01*
X1120276Y1501803D01*
X1121063Y1511811D01*
X1188977Y1579724D02*
X1179312Y1579033D01*
X1169843Y1576973D01*
X1160764Y1573587D01*
X1152260Y1568943D01*
X1144503Y1563137D01*
X1137651Y1556285D01*
X1131844Y1548528D01*
X1127200Y1540023D01*
X1123814Y1530944D01*
X1121755Y1521476D01*
X1121063Y1511811D01*
X296260Y1062992D02*
X297243Y1053007D01*
X300156Y1043406D01*
X304886Y1034557D01*
X311251Y1026802D01*
X319007Y1020437D01*
X327855Y1015707D01*
X337456Y1012794D01*
X347441Y1011811D01*
X517717Y1136811D02*
X516272Y1145936D01*
X512077Y1154167D01*
X505545Y1160699D01*
X497314Y1164893D01*
X488189Y1166339D01*
X517717Y1119094D02*
X518584Y1109181D01*
X521159Y1099570D01*
X525365Y1090551D01*
X531072Y1082400D01*
X538109Y1075364D01*
X546260Y1069656D01*
X555279Y1065451D01*
X564890Y1062875D01*
X574803Y1062008D01*
X781496Y962008D02*
X781015Y971810D01*
X779575Y981517D01*
X777190Y991036D01*
X773884Y1000276D01*
X769688Y1009148D01*
X764643Y1017565D01*
X758797Y1025447D01*
X752207Y1032719D01*
X744936Y1039309D01*
X737053Y1045155D01*
X728636Y1050200D01*
X719765Y1054396D01*
X710525Y1057702D01*
X701005Y1060086D01*
X691298Y1061526D01*
X681496Y1062008D01*
X852362Y914370D02*
X862028Y915061D01*
X871496Y917121D01*
X880575Y920507D01*
X889079Y925151D01*
X896836Y930958D01*
X903688Y937810D01*
X909495Y945567D01*
X914139Y954071D01*
X917525Y963150D01*
X919585Y972619D01*
X920276Y982284D01*
X1000985Y1191929D02*
X991256Y1191341D01*
X981670Y1189584D01*
X972365Y1186684D01*
X963477Y1182684D01*
X955137Y1177642D01*
X947465Y1171632D01*
X940573Y1164740D01*
X934563Y1157068D01*
X929521Y1148728D01*
X925521Y1139840D01*
X922621Y1130535D01*
X920864Y1120949D01*
X920276Y1111220D01*
X1059055Y1008858D02*
X1069371Y1009670D01*
X1079434Y1012086D01*
X1088994Y1016046D01*
X1097817Y1021453D01*
X1105686Y1028173D01*
X1112406Y1036042D01*
X1117813Y1044865D01*
X1121773Y1054425D01*
X1124188Y1064487D01*
X1125000Y1074803D01*
X1216536Y1166339D02*
X1206287Y1165763D01*
X1196167Y1164043D01*
X1186303Y1161202D01*
X1176820Y1157274D01*
X1167836Y1152308D01*
X1159464Y1146368D01*
X1151810Y1139528D01*
X1144970Y1131874D01*
X1139030Y1123503D01*
X1134065Y1114519D01*
X1130137Y1105035D01*
X1127295Y1095172D01*
X1125576Y1085052D01*
X1125000Y1074803D01*
X1215552Y504331D02*
X1215070Y514132D01*
X1213630Y523840D01*
X1211245Y533359D01*
X1207939Y542599D01*
X1203744Y551470D01*
X1198698Y559888D01*
X1192852Y567770D01*
X1186262Y575041D01*
X1178991Y581632D01*
X1171109Y587478D01*
X1162691Y592523D01*
X1153820Y596719D01*
X1144580Y600025D01*
X1135061Y602409D01*
X1125353Y603849D01*
X1115552Y604331D01*
X1215552Y388779D02*
X1216497Y379178D01*
X1219298Y369947D01*
X1223845Y361438D01*
X1229966Y353981D01*
X1237423Y347861D01*
X1245931Y343313D01*
X1255163Y340512D01*
X1264764Y339567D01*
X296260Y365157D02*
X305940Y366432D01*
X314961Y370168D01*
X322707Y376112D01*
X328651Y383858D01*
X332387Y392879D01*
X333662Y402559D01*
X433662Y590551D02*
X423860Y590070D01*
X414153Y588630D01*
X404633Y586245D01*
X395393Y582939D01*
X386522Y578743D01*
X378105Y573698D01*
X370222Y567852D01*
X362951Y561262D01*
X356361Y553990D01*
X350515Y546108D01*
X345470Y537691D01*
X341274Y528819D01*
X337968Y519580D01*
X335583Y510060D01*
X334143Y500353D01*
X333662Y490551D01*
X944489Y1605315D02*
X934687Y1604833D01*
X924980Y1603393D01*
X915460Y1601009D01*
X906220Y1597703D01*
X897349Y1593507D01*
X888932Y1588462D01*
X881049Y1582616D01*
X873778Y1576026D01*
X867188Y1568754D01*
X861341Y1560872D01*
X856296Y1552455D01*
X852101Y1543583D01*
X848794Y1534343D01*
X846410Y1524824D01*
X844970Y1515117D01*
X844489Y1505315D01*
X1033465Y1447835D02*
X1022912Y1447124D01*
X1012842Y1445086D01*
X1003122Y1441754D01*
X993920Y1437184D01*
X985391Y1431455D01*
X977680Y1424665D01*
X970919Y1416928D01*
X965223Y1408377D01*
X960689Y1399157D01*
X957395Y1389425D01*
X955395Y1379347D01*
X954725Y1369094D01*
X-630632Y1447124D02*
X-640702Y1445086D01*
X-650421Y1441754D01*
X-659624Y1437184D01*
X-668153Y1431455D01*
X-675864Y1424665D01*
X-682624Y1416928D01*
X-688320Y1408377D01*
X-692854Y1399157D01*
X-696149Y1389425D01*
X-698149Y1379347D01*
X-698819Y1369094D01*
X-620079Y1447835D02*
X-630632Y1447124D01*
X-709055Y1605315D02*
X-718857Y1604833D01*
X-728564Y1603393D01*
X-738084Y1601009D01*
X-747323Y1597703D01*
X-756195Y1593507D01*
X-764612Y1588462D01*
X-772494Y1582616D01*
X-779766Y1576026D01*
X-786356Y1568754D01*
X-792202Y1560872D01*
X-797247Y1552455D01*
X-801443Y1543583D01*
X-804749Y1534343D01*
X-807134Y1524824D01*
X-808574Y1515117D01*
X-809055Y1505315D01*
X-1219882Y590551D02*
X-1229684Y590070D01*
X-1239391Y588630D01*
X-1248910Y586245D01*
X-1258150Y582939D01*
X-1267022Y578743D01*
X-1275439Y573698D01*
X-1283321Y567852D01*
X-1290593Y561262D01*
X-1297183Y553990D01*
X-1303029Y546108D01*
X-1308074Y537691D01*
X-1312270Y528819D01*
X-1315576Y519580D01*
X-1317960Y510060D01*
X-1319400Y500353D01*
X-1319882Y490551D01*
X-1357284Y365157D02*
X-1347603Y366432D01*
X-1338583Y370168D01*
X-1330837Y376112D01*
X-1324893Y383858D01*
X-1321156Y392879D01*
X-1319882Y402559D01*
X-437992Y388779D02*
X-437046Y379178D01*
X-434246Y369947D01*
X-429698Y361438D01*
X-423578Y353981D01*
X-416120Y347861D01*
X-407612Y343313D01*
X-398380Y340512D01*
X-388779Y339567D01*
X-437992Y504331D02*
X-438474Y514132D01*
X-439914Y523840D01*
X-442298Y533359D01*
X-445604Y542599D01*
X-449800Y551470D01*
X-454845Y559888D01*
X-460691Y567770D01*
X-467281Y575041D01*
X-474553Y581632D01*
X-482435Y587478D01*
X-490852Y592523D01*
X-499724Y596719D01*
X-508964Y600025D01*
X-518483Y602409D01*
X-528190Y603849D01*
X-537992Y604331D01*
X-437008Y1166339D02*
X-447257Y1165763D01*
X-457376Y1164043D01*
X-467240Y1161202D01*
X-476724Y1157274D01*
X-485708Y1152308D01*
X-494079Y1146368D01*
X-501733Y1139528D01*
X-508573Y1131874D01*
X-514513Y1123503D01*
X-519479Y1114519D01*
X-523407Y1105035D01*
X-526248Y1095172D01*
X-527968Y1085052D01*
X-528543Y1074803D01*
X-594488Y1008858D02*
X-584172Y1009670D01*
X-574110Y1012086D01*
X-564550Y1016046D01*
X-555727Y1021453D01*
X-547858Y1028173D01*
X-541138Y1036042D01*
X-535731Y1044865D01*
X-531771Y1054425D01*
X-529355Y1064487D01*
X-528543Y1074803D01*
X-652559Y1191929D02*
X-662288Y1191341D01*
X-671874Y1189584D01*
X-681179Y1186684D01*
X-690066Y1182684D01*
X-698407Y1177642D01*
X-706079Y1171632D01*
X-712970Y1164740D01*
X-718981Y1157068D01*
X-724023Y1148728D01*
X-728023Y1139840D01*
X-730923Y1130535D01*
X-732679Y1120949D01*
X-733268Y1111220D01*
X-801181Y914370D02*
X-791516Y915061D01*
X-782048Y917121D01*
X-772969Y920507D01*
X-764464Y925151D01*
X-756707Y930958D01*
X-749856Y937810D01*
X-744049Y945567D01*
X-739405Y954071D01*
X-736019Y963150D01*
X-733959Y972619D01*
X-733268Y982284D01*
X-872047Y962008D02*
X-872529Y971810D01*
X-873969Y981517D01*
X-876353Y991036D01*
X-879659Y1000276D01*
X-883855Y1009148D01*
X-888900Y1017565D01*
X-894746Y1025447D01*
X-901337Y1032719D01*
X-908608Y1039309D01*
X-916490Y1045155D01*
X-924908Y1050200D01*
X-933779Y1054396D01*
X-943019Y1057702D01*
X-952538Y1060086D01*
X-962246Y1061526D01*
X-972047Y1062008D01*
X-1135827Y1119094D02*
X-1134959Y1109181D01*
X-1132384Y1099570D01*
X-1128179Y1090551D01*
X-1122471Y1082400D01*
X-1115435Y1075364D01*
X-1107284Y1069656D01*
X-1098265Y1065451D01*
X-1088653Y1062875D01*
X-1078740Y1062008D01*
X-1135827Y1136811D02*
X-1137272Y1145936D01*
X-1141466Y1154167D01*
X-1147998Y1160699D01*
X-1156230Y1164893D01*
X-1165354Y1166339D01*
X-1357284Y1062992D02*
X-1356300Y1053007D01*
X-1353388Y1043406D01*
X-1348658Y1034557D01*
X-1342293Y1026802D01*
X-1334537Y1020437D01*
X-1325689Y1015707D01*
X-1316087Y1012794D01*
X-1306102Y1011811D01*
X-464567Y1579724D02*
X-474232Y1579033D01*
X-483700Y1576973D01*
X-492779Y1573587D01*
X-501284Y1568943D01*
X-509041Y1563137D01*
X-515892Y1556285D01*
X-521699Y1548528D01*
X-526343Y1540023D01*
X-529729Y1530944D01*
X-531789Y1521476D01*
X-532480Y1511811D01*
X-596457Y1447835D02*
X-586449Y1448622D01*
X-576687Y1450966D01*
X-567412Y1454808D01*
X-558852Y1460053D01*
X-551219Y1466573D01*
X-544699Y1474207D01*
X-539453Y1482766D01*
X-535611Y1492041D01*
X-533268Y1501803D01*
X-532480Y1511811D01*
X-1120079Y1280512D02*
X-1119387Y1270847D01*
X-1117328Y1261378D01*
X-1113941Y1252300D01*
X-1109298Y1243795D01*
X-1103491Y1236038D01*
X-1096639Y1229186D01*
X-1088882Y1223379D01*
X-1080378Y1218736D01*
X-1071299Y1215349D01*
X-1061830Y1213290D01*
X-1052165Y1212598D01*
X-1120079Y1280512D02*
X-1120618Y1290800D01*
X-1122229Y1300976D01*
X-1124896Y1310927D01*
X-1128588Y1320545D01*
X-1133265Y1329724D01*
X-1138876Y1338365D01*
X-1145360Y1346371D01*
X-1152645Y1353656D01*
X-1160651Y1360139D01*
X-1169291Y1365751D01*
X-1178471Y1370428D01*
X-1188089Y1374120D01*
X-1198040Y1376786D01*
X-1208216Y1378398D01*
X-1218504Y1378937D01*
X-1357284Y1443898D02*
X-1356484Y1433736D01*
X-1354104Y1423824D01*
X-1350203Y1414406D01*
X-1344877Y1405715D01*
X-1338257Y1397964D01*
X-1330506Y1391343D01*
X-1321814Y1386017D01*
X-1312397Y1382116D01*
X-1302485Y1379737D01*
X-1292323Y1378937D01*
X-891732Y1343898D02*
X-892214Y1353699D01*
X-893654Y1363407D01*
X-896038Y1372926D01*
X-899344Y1382166D01*
X-903540Y1391037D01*
X-908585Y1399455D01*
X-914431Y1407337D01*
X-921022Y1414608D01*
X-928293Y1421199D01*
X-936175Y1427045D01*
X-944593Y1432090D01*
X-953464Y1436286D01*
X-962704Y1439592D01*
X-972223Y1441976D01*
X-981931Y1443416D01*
X-991732Y1443898D01*
X-1214457Y1561024D02*
X-1175452D01*
X-1216555Y1563121D02*
X-1214457Y1561024D01*
X-1357284Y1443898D02*
Y1596457D01*
X-1306102Y-641733D02*
X-1015748D01*
X-1013779Y-639764D01*
X1033465Y-205709D02*
X1057087D01*
X954725Y-433071D02*
Y-284449D01*
X944489Y-48229D02*
X1123032D01*
X844489Y-542323D02*
Y-148229D01*
X437992Y-487205D02*
X488189D01*
X1188977Y-73819D02*
X1264764D01*
X601378Y-440945D02*
X645670D01*
X761811Y-531496D02*
Y-309646D01*
X347441Y-641733D02*
X646654D01*
X1000000Y-644685D02*
X1059055D01*
X781496Y-739173D02*
Y-691536D01*
X1022638Y-1049213D02*
X1115552D01*
X433662Y-1062992D02*
X620079D01*
X333662Y-1250985D02*
Y-1162992D01*
X1215552Y-1264764D02*
Y-1149213D01*
X1216536Y-487205D02*
X1264764D01*
X1000985Y-461615D02*
X1123032D01*
X920276Y-671260D02*
Y-542323D01*
X574803Y-591536D02*
X681496D01*
X517717Y-534449D02*
Y-516733D01*
X296260Y-590552D02*
Y-461615D01*
X761811Y-531496D02*
X764764Y-534449D01*
X361221Y-274607D02*
X435040D01*
X296260Y-209646D02*
Y-48229D01*
X608268Y-209646D02*
X661811D01*
X509843Y-111221D02*
Y-104331D01*
X437992Y-73819D02*
X479331D01*
X-1215551D02*
X-1174213D01*
X-1143701Y-111221D02*
Y-104331D01*
X-1045276Y-209646D02*
X-991732D01*
X-1357284Y-209646D02*
Y-48229D01*
X-1292323Y-274607D02*
X-1218504D01*
X-891732Y-531496D02*
X-888779Y-534449D01*
X-1357284Y-590552D02*
Y-461615D01*
X-1135827Y-534449D02*
Y-516733D01*
X-1078740Y-591536D02*
X-972047D01*
X-733268Y-671260D02*
Y-542323D01*
X-652559Y-461615D02*
X-530512D01*
X-437008Y-487205D02*
X-388779D01*
X-437992Y-1264764D02*
Y-1149213D01*
X-1319882Y-1250985D02*
Y-1162992D01*
X-1219882Y-1062992D02*
X-1033465D01*
X-630905Y-1049213D02*
X-537992D01*
X-872047Y-739173D02*
Y-691536D01*
X-653543Y-644685D02*
X-594488D01*
X-891732Y-531496D02*
Y-309646D01*
X-1052165Y-440945D02*
X-1007874D01*
X-464567Y-73819D02*
X-388779D01*
X-1215551Y-487205D02*
X-1165354D01*
X-809055Y-542323D02*
Y-148229D01*
X-709055Y-48229D02*
X-530512D01*
X-698819Y-433071D02*
Y-284449D01*
X-620079Y-205709D02*
X-596457D01*
X437992Y1579724D02*
X479331D01*
X509843Y1542323D02*
Y1549213D01*
X608268Y1443898D02*
X661811D01*
X296260Y1443898D02*
Y1605315D01*
X361221Y1378937D02*
X435040D01*
X761811Y1122047D02*
X764764Y1119094D01*
X296260Y1062992D02*
Y1191929D01*
X517717Y1119094D02*
Y1136811D01*
X574803Y1062008D02*
X681496D01*
X920276Y982284D02*
Y1111220D01*
X1000985Y1191929D02*
X1123032D01*
X1216536Y1166339D02*
X1264764D01*
X1215552Y388779D02*
Y504331D01*
X333662Y402559D02*
Y490551D01*
X433662Y590551D02*
X620079D01*
X1022638Y604331D02*
X1115552D01*
X781496Y914370D02*
Y962008D01*
X1000000Y1008858D02*
X1059055D01*
X347441Y1011811D02*
X646654D01*
X761811Y1122047D02*
Y1343898D01*
X601378Y1212598D02*
X645670D01*
X1188977Y1579724D02*
X1264764D01*
X437992Y1166339D02*
X488189D01*
X844489Y1111220D02*
Y1505315D01*
X944489Y1605315D02*
X1123032D01*
X954725Y1220472D02*
Y1369094D01*
X1033465Y1447835D02*
X1057087D01*
X-620079D02*
X-596457D01*
X-698819Y1220472D02*
Y1369094D01*
X-709055Y1605315D02*
X-530512D01*
X-809055Y1111220D02*
Y1505315D01*
X-1215551Y1166339D02*
X-1165354D01*
X-464567Y1579724D02*
X-388779D01*
X-1052165Y1212598D02*
X-1007874D01*
X-891732Y1122047D02*
Y1343898D01*
X-1306102Y1011811D02*
X-1006890D01*
X-653543Y1008858D02*
X-594488D01*
X-872047Y914370D02*
Y962008D01*
X-630905Y604331D02*
X-537992D01*
X-1219882Y590551D02*
X-1033465D01*
X-1319882Y402559D02*
Y490551D01*
X-437992Y388779D02*
Y504331D01*
X-437008Y1166339D02*
X-388779D01*
X-652559Y1191929D02*
X-530512D01*
X-733268Y982284D02*
Y1111220D01*
X-1078740Y1062008D02*
X-972047D01*
X-1135827Y1119094D02*
Y1136811D01*
X-1357284Y1062992D02*
Y1191929D01*
X-891732Y1122047D02*
X-888779Y1119094D01*
X-1292323Y1378937D02*
X-1218504D01*
X-1045276Y1443898D02*
X-991732D01*
D33*
X-1446849Y-1348424D02*
D03*
Y-1545276D02*
D03*
X-1033465Y-1348424D02*
D03*
Y-1545276D02*
D03*
X620079Y1131890D02*
D03*
Y935040D02*
D03*
X1446851D02*
D03*
Y1131890D02*
D03*
X-1033465Y1545276D02*
D03*
Y1348426D02*
D03*
X-206693D02*
D03*
Y1545276D02*
D03*
X620079D02*
D03*
Y1348426D02*
D03*
X1446851D02*
D03*
Y1545276D02*
D03*
X-206693Y-1348424D02*
D03*
Y-1545276D02*
D03*
X620079D02*
D03*
Y-1348424D02*
D03*
X1446851D02*
D03*
Y-1545276D02*
D03*
X-1033465Y-1131890D02*
D03*
Y-935040D02*
D03*
X-206693D02*
D03*
Y-1131890D02*
D03*
X620079D02*
D03*
Y-935040D02*
D03*
X1446851D02*
D03*
Y-1131890D02*
D03*
X-1033465Y-718504D02*
D03*
Y-521654D02*
D03*
X-206693D02*
D03*
Y-718504D02*
D03*
X620079D02*
D03*
Y-521654D02*
D03*
X1446851D02*
D03*
Y-718504D02*
D03*
X-1033465Y-305118D02*
D03*
Y-108268D02*
D03*
X-206693D02*
D03*
Y-305118D02*
D03*
X620079D02*
D03*
Y-108268D02*
D03*
X1446851D02*
D03*
Y-305118D02*
D03*
X-1033465Y108268D02*
D03*
Y305118D02*
D03*
X-206693D02*
D03*
Y108268D02*
D03*
X620079D02*
D03*
Y305118D02*
D03*
X1446851D02*
D03*
Y108268D02*
D03*
X-1033465Y521654D02*
D03*
Y718504D02*
D03*
X-206693D02*
D03*
Y521654D02*
D03*
X620079D02*
D03*
Y718504D02*
D03*
X1446851D02*
D03*
Y521654D02*
D03*
X-1033465Y935040D02*
D03*
Y1131890D02*
D03*
X-206693D02*
D03*
Y935040D02*
D03*
X206693D02*
D03*
Y1131890D02*
D03*
X1033465D02*
D03*
Y935040D02*
D03*
X-1446849Y1348426D02*
D03*
Y1545276D02*
D03*
X-620079D02*
D03*
Y1348426D02*
D03*
X206693D02*
D03*
Y1545276D02*
D03*
X1033465D02*
D03*
Y1348426D02*
D03*
X-620079Y-1545276D02*
D03*
Y-1348424D02*
D03*
X206693D02*
D03*
Y-1545276D02*
D03*
X1033465D02*
D03*
Y-1348424D02*
D03*
X-1446849Y-935040D02*
D03*
Y-1131890D02*
D03*
X-620079D02*
D03*
Y-935040D02*
D03*
X206693D02*
D03*
Y-1131890D02*
D03*
X1033465D02*
D03*
Y-935040D02*
D03*
X-1446849Y-521654D02*
D03*
Y-718504D02*
D03*
X-620079D02*
D03*
Y-521654D02*
D03*
X206693D02*
D03*
Y-718504D02*
D03*
X1033465D02*
D03*
Y-521654D02*
D03*
X-1446849Y-108268D02*
D03*
Y-305118D02*
D03*
X-620079D02*
D03*
Y-108268D02*
D03*
X206693D02*
D03*
Y-305118D02*
D03*
X1033465D02*
D03*
Y-108268D02*
D03*
X-1446849Y305118D02*
D03*
Y108268D02*
D03*
X-620079D02*
D03*
Y305118D02*
D03*
X206693D02*
D03*
Y108268D02*
D03*
X1033465D02*
D03*
Y305118D02*
D03*
X-1446849Y718504D02*
D03*
Y521654D02*
D03*
X-620079D02*
D03*
Y718504D02*
D03*
X206693D02*
D03*
Y521654D02*
D03*
X1033465D02*
D03*
Y718504D02*
D03*
X-1446849Y1131890D02*
D03*
Y935040D02*
D03*
X-620079D02*
D03*
Y1131890D02*
D03*
D34*
X-1216555Y1563121D02*
D03*
X-1357284Y1596457D02*
D03*
X-1270551Y-1422896D02*
D03*
Y-1365896D02*
D03*
X-1206551D02*
D03*
Y-1422896D02*
D03*
X446992Y1057418D02*
D03*
Y1114418D02*
D03*
X382992D02*
D03*
Y1057418D02*
D03*
X1209765D02*
D03*
Y1114418D02*
D03*
X1273765D02*
D03*
Y1057418D02*
D03*
X-1207575Y1458373D02*
D03*
Y1515373D02*
D03*
X-1271575D02*
D03*
Y1458373D02*
D03*
X-444803D02*
D03*
Y1515373D02*
D03*
X-380803D02*
D03*
Y1458373D02*
D03*
X445968D02*
D03*
Y1515373D02*
D03*
X381968D02*
D03*
Y1458373D02*
D03*
X1208742D02*
D03*
Y1515373D02*
D03*
X1272742D02*
D03*
Y1458373D02*
D03*
X-379780Y-1422896D02*
D03*
Y-1365896D02*
D03*
X-443780D02*
D03*
Y-1422896D02*
D03*
X382992D02*
D03*
Y-1365896D02*
D03*
X446992D02*
D03*
Y-1422896D02*
D03*
X1273765D02*
D03*
Y-1365896D02*
D03*
X1209765D02*
D03*
Y-1422896D02*
D03*
X-1270551Y-1009511D02*
D03*
Y-952511D02*
D03*
X-1206551D02*
D03*
Y-1009511D02*
D03*
X-379780D02*
D03*
Y-952511D02*
D03*
X-443780D02*
D03*
Y-1009511D02*
D03*
X382992D02*
D03*
Y-952511D02*
D03*
X446992D02*
D03*
Y-1009511D02*
D03*
X1273765D02*
D03*
Y-952511D02*
D03*
X1209765D02*
D03*
Y-1009511D02*
D03*
X-1270551Y-596125D02*
D03*
Y-539125D02*
D03*
X-1206551D02*
D03*
Y-596125D02*
D03*
X-379780D02*
D03*
Y-539125D02*
D03*
X-443780D02*
D03*
Y-596125D02*
D03*
X382992D02*
D03*
Y-539125D02*
D03*
X446992D02*
D03*
Y-596125D02*
D03*
X1273765D02*
D03*
Y-539125D02*
D03*
X1209765D02*
D03*
Y-596125D02*
D03*
X-1270551Y-182739D02*
D03*
Y-125739D02*
D03*
X-1206551D02*
D03*
Y-182739D02*
D03*
X-379780D02*
D03*
Y-125739D02*
D03*
X-443780D02*
D03*
Y-182739D02*
D03*
X382992D02*
D03*
Y-125739D02*
D03*
X446992D02*
D03*
Y-182739D02*
D03*
X1273765D02*
D03*
Y-125739D02*
D03*
X1209765D02*
D03*
Y-182739D02*
D03*
X-1270551Y230647D02*
D03*
Y287647D02*
D03*
X-1206551D02*
D03*
Y230647D02*
D03*
X-379780D02*
D03*
Y287647D02*
D03*
X-443780D02*
D03*
Y230647D02*
D03*
X382992D02*
D03*
Y287647D02*
D03*
X446992D02*
D03*
Y230647D02*
D03*
X1273765D02*
D03*
Y287647D02*
D03*
X1209765D02*
D03*
Y230647D02*
D03*
X-1270551Y644032D02*
D03*
Y701032D02*
D03*
X-1206551D02*
D03*
Y644032D02*
D03*
X-379780D02*
D03*
Y701032D02*
D03*
X-443780D02*
D03*
Y644032D02*
D03*
X382992D02*
D03*
Y701032D02*
D03*
X446992D02*
D03*
Y644032D02*
D03*
X1273765D02*
D03*
Y701032D02*
D03*
X1209765D02*
D03*
Y644032D02*
D03*
X-1270551Y1057418D02*
D03*
Y1114418D02*
D03*
X-1206551D02*
D03*
Y1057418D02*
D03*
X-379780D02*
D03*
Y1114418D02*
D03*
X-443780D02*
D03*
Y1057418D02*
D03*
X-1013779Y-639764D02*
D03*
X1259842Y-1574803D02*
D03*
X1122047D02*
D03*
X433071D02*
D03*
X295276D02*
D03*
X-393701D02*
D03*
X-531496D02*
D03*
X-1220472Y-1584646D02*
D03*
X-1358268Y-1574803D02*
D03*
X954725Y-433071D02*
D03*
X1022638Y-1049213D02*
D03*
X620079Y-1062992D02*
D03*
X852362Y-739173D02*
D03*
X781496D02*
D03*
X1000000Y-644685D02*
D03*
X844489Y-542323D02*
D03*
X764764Y-534449D02*
D03*
X646654Y-641733D02*
D03*
X645670Y-440945D02*
D03*
X1264764Y-1313977D02*
D03*
X296260Y-1288386D02*
D03*
X1123032Y-461615D02*
D03*
X1264764Y-487205D02*
D03*
X296260Y-461615D02*
D03*
X437992Y-487205D02*
D03*
X1123032Y-48229D02*
D03*
X1264764Y-73819D02*
D03*
X437992D02*
D03*
X296260Y-48229D02*
D03*
X-1357284D02*
D03*
X-1215551Y-73819D02*
D03*
X-388779D02*
D03*
X-530512Y-48229D02*
D03*
X-1215551Y-487205D02*
D03*
X-1357284Y-461615D02*
D03*
X-388779Y-487205D02*
D03*
X-530512Y-461615D02*
D03*
X-1357284Y-1288386D02*
D03*
X-388779Y-1313977D02*
D03*
X-1007874Y-440945D02*
D03*
X-888779Y-534449D02*
D03*
X-809055Y-542323D02*
D03*
X-653543Y-644685D02*
D03*
X-872047Y-739173D02*
D03*
X-801181D02*
D03*
X-1033465Y-1062992D02*
D03*
X-630905Y-1049213D02*
D03*
X-698819Y-433071D02*
D03*
X296260Y1605315D02*
D03*
X437992Y1579724D02*
D03*
X1264764D02*
D03*
X1123032Y1605315D02*
D03*
X437992Y1166339D02*
D03*
X296260Y1191929D02*
D03*
X1264764Y1166339D02*
D03*
X1123032Y1191929D02*
D03*
X296260Y365157D02*
D03*
X1264764Y339567D02*
D03*
X645670Y1212598D02*
D03*
X646654Y1011811D02*
D03*
X764764Y1119094D02*
D03*
X844489Y1111220D02*
D03*
X1000000Y1008858D02*
D03*
X781496Y914370D02*
D03*
X852362D02*
D03*
X620079Y590551D02*
D03*
X1022638Y604331D02*
D03*
X954725Y1220472D02*
D03*
X-698819D02*
D03*
X-630905Y604331D02*
D03*
X-1033465Y590551D02*
D03*
X-801181Y914370D02*
D03*
X-872047D02*
D03*
X-653543Y1008858D02*
D03*
X-809055Y1111220D02*
D03*
X-888779Y1119094D02*
D03*
X-1006890Y1011811D02*
D03*
X-1007874Y1212598D02*
D03*
X-550198Y-1195866D02*
D03*
X-380905Y-1192914D02*
D03*
X276574Y-1195866D02*
D03*
X445866Y-1192914D02*
D03*
X1103346Y-782480D02*
D03*
X1272638Y-779528D02*
D03*
X-550198Y-369094D02*
D03*
X-380905Y-366142D02*
D03*
X-550198Y-782480D02*
D03*
X-380905Y-779528D02*
D03*
X276574Y-782480D02*
D03*
X445866Y-779528D02*
D03*
X276574Y-369094D02*
D03*
X445866Y-366142D02*
D03*
X1103346Y44292D02*
D03*
X1272638Y47244D02*
D03*
X276574Y44292D02*
D03*
X445866Y47244D02*
D03*
X-550198Y44292D02*
D03*
X-380905Y47244D02*
D03*
X-388779Y339567D02*
D03*
X-1376969Y-1195866D02*
D03*
X-1207677Y-1192914D02*
D03*
X1103346Y-1195866D02*
D03*
X1272638Y-1192914D02*
D03*
X-1376969Y-782480D02*
D03*
X-1207677Y-779528D02*
D03*
X1103346Y-369094D02*
D03*
X1272638Y-366142D02*
D03*
X-1376969Y-369094D02*
D03*
X-1207677Y-366142D02*
D03*
X-1376969Y44292D02*
D03*
X-1207677Y47244D02*
D03*
X-1357284Y365157D02*
D03*
X1103346Y871064D02*
D03*
X1272638Y874016D02*
D03*
X1103346Y457678D02*
D03*
X1272638Y460630D02*
D03*
X276574Y871064D02*
D03*
X445866Y874016D02*
D03*
X276574Y457678D02*
D03*
X445866Y460630D02*
D03*
X-550198Y457678D02*
D03*
X-380905Y460630D02*
D03*
X-550198Y871064D02*
D03*
X-380905Y874016D02*
D03*
X-530512Y1191929D02*
D03*
X-388779Y1166339D02*
D03*
X-1376969Y457678D02*
D03*
X-1207677Y460630D02*
D03*
X-1376969Y871064D02*
D03*
X-1207677Y874016D02*
D03*
X-1357284Y1191929D02*
D03*
X-1215551Y1166339D02*
D03*
X1103346Y1284450D02*
D03*
X1272638Y1287402D02*
D03*
X276574Y1284450D02*
D03*
X445866Y1287402D02*
D03*
X-550198Y1284450D02*
D03*
X-380905Y1287402D02*
D03*
X-530512Y1605315D02*
D03*
X-388779Y1579724D02*
D03*
X-1207677Y1287402D02*
D03*
X-1376969Y1284450D02*
D03*
D35*
X902638Y-319095D02*
D03*
X918385Y-1337795D02*
D03*
X918306Y314961D02*
D03*
X902558Y1333661D02*
D03*
X-736221Y-1337795D02*
D03*
X-751968Y-319095D02*
D03*
Y1333661D02*
D03*
X-736221Y314961D02*
D03*
M02*
