M48
;Layer_Color=9474304
;FILE_FORMAT=2:4
INCH,TZ
;TYPE=PLATED
T1F00S00C0.0157
T2F00S00C0.0315
T3F00S00C0.0354
;TYPE=NON_PLATED
T4F00S00C0.0945
%
T01
X-13583Y-15748
X-12205Y-15846
X-5315Y-15748
X-3937
X2953
X4331
X11220
X12598
X12738Y-14229
Y-13659
X12648Y-13140
X12098Y-13659
Y-14229
X12726Y-11929
X11033Y-11959
X10226Y-10492
X12098Y-10095
Y-9525
X12738
Y-10095
X12726Y-7795
X11033Y-7825
X10000Y-6447
X8524Y-7392
X7815
X7648Y-5344
X8445Y-5423
X9547Y-4331
X11230Y-4616
X11033Y-3691
X12726Y-3661
X12648Y-4872
X12738Y-5391
Y-5961
X12098
Y-5391
Y-1827
Y-1257
X12738
Y-1827
X12648Y-738
X12726Y472
X11033Y443
X11230Y-482
X4380Y-738
X4470Y-1257
Y-1827
X3830
Y-1257
X2963Y-482
X2766Y443
X4459Y472
Y-3661
X4380Y-4872
X4470Y-5391
Y-5961
X3830
Y-5391
X2963Y-4616
X2766Y-3691
Y-7825
X4459Y-7795
X4470Y-9525
Y-10095
X3830
Y-9525
X4459Y-11929
X2766Y-11959
X2963Y-12884
X3830Y-13659
Y-14229
X4470
Y-13659
X6201Y-10630
X6467Y-6417
X6457Y-4409
X-3888Y-4872
X-3798Y-5391
Y-5961
X-4438
Y-5391
X-5305Y-4616
X-5502Y-3691
X-3809Y-3661
X-3798Y-1827
Y-1257
X-3888Y-738
X-4438Y-1257
Y-1827
X-5305Y-482
X-5502Y443
X-3809Y472
X-6988Y-4331
X-8091Y-5423
X-8888Y-5344
X-10079Y-4409
X-10138Y-6398
X-12066Y-5961
Y-5391
X-12156Y-4872
X-12706Y-5391
Y-5961
X-13573Y-4616
X-13770Y-3691
X-12077Y-3661
X-12066Y-1827
Y-1257
X-12156Y-738
X-12706Y-1257
Y-1827
X-13573Y-482
X-13770Y443
X-12077Y472
Y-7795
X-13770Y-7825
X-12706Y-9525
Y-10095
X-12066
Y-9525
X-12077Y-11929
X-13770Y-11959
X-13573Y-12884
X-12706Y-13659
Y-14229
X-12066
Y-13659
X-10335Y-10630
X-6309Y-10492
X-4438Y-10095
Y-9525
X-3798
Y-10095
X-3809Y-11929
X-3888Y-13140
X-3798Y-13659
Y-14229
X-4438
Y-13659
X-5502Y-11959
Y-7825
X-3809Y-7795
X-6535Y-6447
X-8012Y-7392
X-8720
X-12066Y2306
Y2876
X-12706
Y2306
X-13573Y3652
X-13770Y4577
X-12077Y4606
X-12066Y6440
Y7010
X-12706
Y6440
X-10335Y5906
X-6309Y6043
X-4438Y6440
Y7010
X-3798
Y6440
X-3809Y4606
X-3888Y3396
X-3798Y2876
Y2306
X-4438
Y2876
X-5502Y4577
Y8711
X-3809Y8740
X-3798Y10574
Y11144
X-3888Y11663
X-4438Y11144
Y10574
X-5305Y11919
X-5502Y12845
X-3809Y12874
X-3808Y14584
Y15154
X-4448
Y14584
X-3888Y15797
X-5305Y16053
X-6988Y12205
X-8091Y11112
X-8888Y11191
X-10079Y12126
X-10069Y10118
X-8720Y9144
X-8012
X-6535Y10089
X-12066Y10574
Y11144
X-12156Y11663
X-12706Y11144
Y10574
X-13573Y11919
X-13770Y12845
X-12077Y12874
X-12076Y14584
Y15154
X-12166Y15631
X-12716Y15154
Y14584
X-13573Y15965
X-13770Y8711
X-12077Y8740
X2766Y8711
X4459Y8740
X4470Y7010
Y6440
X3830
Y7010
X4459Y4606
X2766Y4577
X2963Y3652
X3830Y2876
Y2306
X4470
Y2876
X6201Y5906
X10226Y6043
X12098Y6440
Y7010
X12738
Y6440
X12726Y4606
X12648Y3396
X12738Y2876
Y2306
X12098
Y2876
X11033Y4577
Y8711
X12726Y8740
X12738Y10574
Y11144
X12648Y11663
X12098Y11144
Y10574
X11230Y11919
X11033Y12845
X12726Y12874
X12727Y14584
Y15154
X12087
Y14584
X12648Y15797
X11230Y16053
X9547Y12205
X8445Y11112
X7648Y11191
X6457Y12126
X6467Y10118
X7815Y9144
X8524
X10000Y10089
X4470Y10574
Y11144
X4380Y11663
X3830Y11144
Y10574
X2963Y11919
X2766Y12845
X4459Y12874
X4460Y14584
Y15154
X3820
Y14584
X4380Y15797
X2963Y16053
T02
X9184Y-13378
X9026Y-3191
X-7520
X-7362Y-13378
Y3150
X-7520Y13337
X9026
X9183Y3150
T03
X-14468Y-15453
X-10335
X-6201
X-2067
X2067
X6201
X10335
X14469
Y-13484
Y-11319
Y-9350
Y-7185
Y-5217
Y-3051
Y-1083
X10335
Y-3051
Y-5217
Y-7185
Y-9350
Y-11319
Y-13484
X6201
Y-11319
Y-9350
Y-7185
Y-5217
Y-3051
Y-1083
X2067
Y-3051
Y-5217
Y-7185
Y-9350
Y-11319
Y-13484
X-2067
Y-11319
Y-9350
Y-7185
Y-5217
Y-3051
Y-1083
X-6201
Y-3051
Y-5217
Y-7185
Y-9350
Y-11319
Y-13484
X-10335
Y-11319
Y-9350
Y-7185
Y-5217
Y-3051
Y-1083
X-14468
Y-3051
Y-5217
Y-7185
Y-9350
Y-11319
Y-13484
Y1083
Y3051
Y5217
Y7185
Y9350
Y11319
Y13484
Y15453
X-10335
Y13484
Y11319
Y9350
Y7185
Y5217
Y3051
Y1083
X-6201
Y3051
Y5217
Y7185
Y9350
Y11319
Y13484
Y15453
X-2067
Y13484
Y11319
Y9350
Y7185
Y5217
Y3051
Y1083
X2067
Y3051
Y5217
Y7185
Y9350
Y11319
Y13484
Y15453
X6201
Y13484
Y11319
Y9350
Y7185
Y5217
Y3051
Y1083
X10335
Y3051
Y5217
Y7185
Y9350
Y11319
Y13484
Y15453
X14469
Y13484
Y11319
Y9350
Y7185
Y5217
Y3051
Y1083
T04
X0Y-8268
Y0
X8268
X-8268
X0Y8268
M30
