G04*
G04 #@! TF.GenerationSoftware,Altium Limited,Altium Designer,23.3.1 (30)*
G04*
G04 Layer_Color=16711935*
%FSLAX26Y26*%
%MOIN*%
G70*
G04*
G04 #@! TF.SameCoordinates,A73F04FC-B1A5-4ADC-8500-56C492F8F9A9*
G04*
G04*
G04 #@! TF.FilePolarity,Negative*
G04*
G01*
G75*
%ADD27C,0.086614*%
%ADD28C,0.094488*%
D27*
X-1446849Y-1348424D02*
D03*
Y-1545276D02*
D03*
X-1033465Y-1348424D02*
D03*
Y-1545276D02*
D03*
X620079Y1131890D02*
D03*
Y935040D02*
D03*
X1446851D02*
D03*
Y1131890D02*
D03*
X-1033465Y1545276D02*
D03*
Y1348426D02*
D03*
X-206693D02*
D03*
Y1545276D02*
D03*
X620079D02*
D03*
Y1348426D02*
D03*
X1446851D02*
D03*
Y1545276D02*
D03*
X-206693Y-1348424D02*
D03*
Y-1545276D02*
D03*
X620079D02*
D03*
Y-1348424D02*
D03*
X1446851D02*
D03*
Y-1545276D02*
D03*
X-1033465Y-1131890D02*
D03*
Y-935040D02*
D03*
X-206693D02*
D03*
Y-1131890D02*
D03*
X620079D02*
D03*
Y-935040D02*
D03*
X1446851D02*
D03*
Y-1131890D02*
D03*
X-1033465Y-718504D02*
D03*
Y-521654D02*
D03*
X-206693D02*
D03*
Y-718504D02*
D03*
X620079D02*
D03*
Y-521654D02*
D03*
X1446851D02*
D03*
Y-718504D02*
D03*
X-1033465Y-305118D02*
D03*
Y-108268D02*
D03*
X-206693D02*
D03*
Y-305118D02*
D03*
X620079D02*
D03*
Y-108268D02*
D03*
X1446851D02*
D03*
Y-305118D02*
D03*
X-1033465Y108268D02*
D03*
Y305118D02*
D03*
X-206693D02*
D03*
Y108268D02*
D03*
X620079D02*
D03*
Y305118D02*
D03*
X1446851D02*
D03*
Y108268D02*
D03*
X-1033465Y521654D02*
D03*
Y718504D02*
D03*
X-206693D02*
D03*
Y521654D02*
D03*
X620079D02*
D03*
Y718504D02*
D03*
X1446851D02*
D03*
Y521654D02*
D03*
X-1033465Y935040D02*
D03*
Y1131890D02*
D03*
X-206693D02*
D03*
Y935040D02*
D03*
X206693D02*
D03*
Y1131890D02*
D03*
X1033465D02*
D03*
Y935040D02*
D03*
X-1446849Y1348426D02*
D03*
Y1545276D02*
D03*
X-620079D02*
D03*
Y1348426D02*
D03*
X206693D02*
D03*
Y1545276D02*
D03*
X1033465D02*
D03*
Y1348426D02*
D03*
X-620079Y-1545276D02*
D03*
Y-1348424D02*
D03*
X206693D02*
D03*
Y-1545276D02*
D03*
X1033465D02*
D03*
Y-1348424D02*
D03*
X-1446849Y-935040D02*
D03*
Y-1131890D02*
D03*
X-620079D02*
D03*
Y-935040D02*
D03*
X206693D02*
D03*
Y-1131890D02*
D03*
X1033465D02*
D03*
Y-935040D02*
D03*
X-1446849Y-521654D02*
D03*
Y-718504D02*
D03*
X-620079D02*
D03*
Y-521654D02*
D03*
X206693D02*
D03*
Y-718504D02*
D03*
X1033465D02*
D03*
Y-521654D02*
D03*
X-1446849Y-108268D02*
D03*
Y-305118D02*
D03*
X-620079D02*
D03*
Y-108268D02*
D03*
X206693D02*
D03*
Y-305118D02*
D03*
X1033465D02*
D03*
Y-108268D02*
D03*
X-1446849Y305118D02*
D03*
Y108268D02*
D03*
X-620079D02*
D03*
Y305118D02*
D03*
X206693D02*
D03*
Y108268D02*
D03*
X1033465D02*
D03*
Y305118D02*
D03*
X-1446849Y718504D02*
D03*
Y521654D02*
D03*
X-620079D02*
D03*
Y718504D02*
D03*
X206693D02*
D03*
Y521654D02*
D03*
X1033465D02*
D03*
Y718504D02*
D03*
X-1446849Y1131890D02*
D03*
Y935040D02*
D03*
X-620079D02*
D03*
Y1131890D02*
D03*
D28*
X826772Y0D02*
D03*
X0Y826772D02*
D03*
Y-826772D02*
D03*
Y0D02*
D03*
X-826772D02*
D03*
M02*
