G04*
G04 #@! TF.GenerationSoftware,Altium Limited,Altium Designer,23.3.1 (30)*
G04*
G04 Layer_Physical_Order=3*
G04 Layer_Color=16440176*
%FSLAX26Y26*%
%MOIN*%
G70*
G04*
G04 #@! TF.SameCoordinates,A73F04FC-B1A5-4ADC-8500-56C492F8F9A9*
G04*
G04*
G04 #@! TF.FilePolarity,Positive*
G04*
G01*
G75*
%ADD28C,0.094488*%
%ADD33C,0.078740*%
%ADD34C,0.031496*%
%ADD35C,0.055118*%
G36*
X1558071Y-1585630D02*
X1480381D01*
X1478310Y-1580630D01*
X1484655Y-1574285D01*
X1490875Y-1563512D01*
X1494095Y-1551496D01*
Y-1539056D01*
X1490875Y-1527041D01*
X1484655Y-1516268D01*
X1475859Y-1507472D01*
X1465086Y-1501252D01*
X1453070Y-1498032D01*
X1440631D01*
X1428615Y-1501252D01*
X1417842Y-1507472D01*
X1409046Y-1516268D01*
X1402826Y-1527041D01*
X1399607Y-1539056D01*
Y-1551496D01*
X1402826Y-1563512D01*
X1409046Y-1574285D01*
X1415391Y-1580630D01*
X1413320Y-1585630D01*
X1147631D01*
X1144853Y-1581473D01*
X1145669Y-1579502D01*
Y-1570104D01*
X1142073Y-1561422D01*
X1135428Y-1554777D01*
X1126746Y-1551181D01*
X1117349D01*
X1108666Y-1554777D01*
X1102021Y-1561422D01*
X1098425Y-1570104D01*
Y-1579502D01*
X1099241Y-1581473D01*
X1096464Y-1585630D01*
X1066995D01*
X1064924Y-1580630D01*
X1071269Y-1574285D01*
X1077489Y-1563512D01*
X1080709Y-1551496D01*
Y-1539056D01*
X1077489Y-1527041D01*
X1071269Y-1516268D01*
X1062473Y-1507472D01*
X1051700Y-1501252D01*
X1039684Y-1498032D01*
X1027245D01*
X1015229Y-1501252D01*
X1004456Y-1507472D01*
X995660Y-1516268D01*
X989440Y-1527041D01*
X986221Y-1539056D01*
Y-1551496D01*
X989440Y-1563512D01*
X995660Y-1574285D01*
X1002005Y-1580630D01*
X999934Y-1585630D01*
X653609D01*
X651538Y-1580630D01*
X657883Y-1574285D01*
X664103Y-1563512D01*
X667323Y-1551496D01*
Y-1539056D01*
X664103Y-1527041D01*
X657883Y-1516268D01*
X649087Y-1507472D01*
X638314Y-1501252D01*
X626298Y-1498032D01*
X613859D01*
X601843Y-1501252D01*
X591070Y-1507472D01*
X582274Y-1516268D01*
X576054Y-1527041D01*
X572835Y-1539056D01*
Y-1551496D01*
X576054Y-1563512D01*
X582274Y-1574285D01*
X588619Y-1580630D01*
X586548Y-1585630D01*
X320859D01*
X318081Y-1581473D01*
X318898Y-1579502D01*
Y-1570104D01*
X315301Y-1561422D01*
X308656Y-1554777D01*
X299974Y-1551181D01*
X290577D01*
X281895Y-1554777D01*
X275250Y-1561422D01*
X271654Y-1570104D01*
Y-1579502D01*
X272470Y-1581473D01*
X269692Y-1585630D01*
X240223D01*
X238152Y-1580630D01*
X244497Y-1574285D01*
X250717Y-1563512D01*
X253937Y-1551496D01*
Y-1539056D01*
X250717Y-1527041D01*
X244497Y-1516268D01*
X235701Y-1507472D01*
X224928Y-1501252D01*
X212912Y-1498032D01*
X200473D01*
X188457Y-1501252D01*
X177684Y-1507472D01*
X168888Y-1516268D01*
X162668Y-1527041D01*
X159448Y-1539056D01*
Y-1551496D01*
X162668Y-1563512D01*
X168888Y-1574285D01*
X175233Y-1580630D01*
X173162Y-1585630D01*
X-173163D01*
X-175234Y-1580630D01*
X-168889Y-1574285D01*
X-162669Y-1563512D01*
X-159449Y-1551496D01*
Y-1539056D01*
X-162669Y-1527041D01*
X-168889Y-1516268D01*
X-177685Y-1507472D01*
X-188458Y-1501252D01*
X-200474Y-1498032D01*
X-212913D01*
X-224929Y-1501252D01*
X-235702Y-1507472D01*
X-244498Y-1516268D01*
X-250718Y-1527041D01*
X-253938Y-1539056D01*
Y-1551496D01*
X-250718Y-1563512D01*
X-244498Y-1574285D01*
X-238153Y-1580630D01*
X-240224Y-1585630D01*
X-505912D01*
X-508690Y-1581473D01*
X-507874Y-1579502D01*
Y-1570104D01*
X-511470Y-1561422D01*
X-518115Y-1554777D01*
X-526797Y-1551181D01*
X-536195D01*
X-544877Y-1554777D01*
X-551522Y-1561422D01*
X-555118Y-1570104D01*
Y-1579502D01*
X-554302Y-1581473D01*
X-557080Y-1585630D01*
X-586549D01*
X-588620Y-1580630D01*
X-582275Y-1574285D01*
X-576055Y-1563512D01*
X-572835Y-1551496D01*
Y-1539056D01*
X-576055Y-1527041D01*
X-582275Y-1516268D01*
X-591071Y-1507472D01*
X-601844Y-1501252D01*
X-613860Y-1498032D01*
X-626299D01*
X-638315Y-1501252D01*
X-649088Y-1507472D01*
X-657884Y-1516268D01*
X-664104Y-1527041D01*
X-667323Y-1539056D01*
Y-1551496D01*
X-664104Y-1563512D01*
X-657884Y-1574285D01*
X-651539Y-1580630D01*
X-653610Y-1585630D01*
X-999935D01*
X-1002006Y-1580630D01*
X-995661Y-1574285D01*
X-989441Y-1563512D01*
X-986221Y-1551496D01*
Y-1539056D01*
X-989441Y-1527041D01*
X-995661Y-1516268D01*
X-1004457Y-1507472D01*
X-1015230Y-1501252D01*
X-1027246Y-1498032D01*
X-1039685D01*
X-1051701Y-1501252D01*
X-1062474Y-1507472D01*
X-1071270Y-1516268D01*
X-1077490Y-1527041D01*
X-1080709Y-1539056D01*
Y-1551496D01*
X-1077490Y-1563512D01*
X-1071270Y-1574285D01*
X-1064925Y-1580630D01*
X-1066996Y-1585630D01*
X-1332684D01*
X-1335462Y-1581473D01*
X-1334646Y-1579502D01*
Y-1570104D01*
X-1338242Y-1561422D01*
X-1344887Y-1554777D01*
X-1353569Y-1551181D01*
X-1362966D01*
X-1371649Y-1554777D01*
X-1378293Y-1561422D01*
X-1381890Y-1570104D01*
Y-1579502D01*
X-1381073Y-1581473D01*
X-1383851Y-1585630D01*
X-1413319D01*
X-1415390Y-1580630D01*
X-1409045Y-1574285D01*
X-1402825Y-1563512D01*
X-1399605Y-1551496D01*
Y-1539056D01*
X-1402825Y-1527041D01*
X-1409045Y-1516268D01*
X-1417841Y-1507472D01*
X-1428614Y-1501252D01*
X-1440630Y-1498032D01*
X-1453069D01*
X-1465085Y-1501252D01*
X-1475858Y-1507472D01*
X-1484654Y-1516268D01*
X-1490874Y-1527041D01*
X-1494093Y-1539056D01*
Y-1551496D01*
X-1490874Y-1563512D01*
X-1484654Y-1574285D01*
X-1478309Y-1580630D01*
X-1480380Y-1585630D01*
X-1556188D01*
X-1557132Y1584062D01*
X-1553597Y1587598D01*
X-1477069D01*
X-1476974Y1587244D01*
X-1476340Y1582598D01*
X-1484654Y1574284D01*
X-1490874Y1563511D01*
X-1494093Y1551496D01*
Y1539056D01*
X-1490874Y1527040D01*
X-1484654Y1516267D01*
X-1475858Y1507471D01*
X-1465085Y1501251D01*
X-1453069Y1498032D01*
X-1440630D01*
X-1428614Y1501251D01*
X-1417841Y1507471D01*
X-1409045Y1516267D01*
X-1402825Y1527040D01*
X-1399605Y1539056D01*
Y1551496D01*
X-1402825Y1563511D01*
X-1409045Y1574284D01*
X-1417359Y1582598D01*
X-1416725Y1587244D01*
X-1416630Y1587598D01*
X-1379183D01*
X-1377309Y1583076D01*
X-1370664Y1576431D01*
X-1361982Y1572835D01*
X-1352585D01*
X-1343903Y1576431D01*
X-1337258Y1583076D01*
X-1335384Y1587598D01*
X-1232017D01*
X-1230884Y1585175D01*
X-1230484Y1582598D01*
X-1236581Y1576502D01*
X-1240177Y1567820D01*
Y1558422D01*
X-1236581Y1549740D01*
X-1229936Y1543095D01*
X-1222688Y1540093D01*
X-1221924Y1538024D01*
X-1221590Y1535686D01*
X-1221679Y1534675D01*
X-1227600Y1528754D01*
X-1231197Y1520072D01*
Y1510674D01*
X-1227600Y1501992D01*
X-1220955Y1495347D01*
X-1212273Y1491751D01*
X-1202876D01*
X-1194194Y1495347D01*
X-1187549Y1501992D01*
X-1183953Y1510674D01*
Y1520072D01*
X-1187549Y1528754D01*
X-1194194Y1535399D01*
X-1201442Y1538401D01*
X-1202206Y1540471D01*
X-1202540Y1542808D01*
X-1202451Y1543819D01*
X-1196529Y1549740D01*
X-1192933Y1558422D01*
Y1567820D01*
X-1196529Y1576502D01*
X-1202626Y1582598D01*
X-1202226Y1585175D01*
X-1201093Y1587598D01*
X-1063685D01*
X-1063590Y1587244D01*
X-1062956Y1582598D01*
X-1071270Y1574284D01*
X-1077490Y1563511D01*
X-1080709Y1551496D01*
Y1539056D01*
X-1077490Y1527040D01*
X-1071270Y1516267D01*
X-1062474Y1507471D01*
X-1051701Y1501251D01*
X-1039685Y1498032D01*
X-1027246D01*
X-1015230Y1501251D01*
X-1004457Y1507471D01*
X-995661Y1516267D01*
X-989441Y1527040D01*
X-986221Y1539056D01*
Y1551496D01*
X-989441Y1563511D01*
X-995661Y1574284D01*
X-1003975Y1582598D01*
X-1003341Y1587244D01*
X-1003246Y1587598D01*
X-650299D01*
X-650204Y1587244D01*
X-649570Y1582598D01*
X-657884Y1574284D01*
X-664104Y1563511D01*
X-667323Y1551496D01*
Y1539056D01*
X-664104Y1527040D01*
X-657884Y1516267D01*
X-649088Y1507471D01*
X-638315Y1501251D01*
X-626299Y1498032D01*
X-613860D01*
X-601844Y1501251D01*
X-591071Y1507471D01*
X-582275Y1516267D01*
X-576055Y1527040D01*
X-572835Y1539056D01*
Y1551496D01*
X-576055Y1563511D01*
X-582275Y1574284D01*
X-590589Y1582598D01*
X-589955Y1587244D01*
X-589860Y1587598D01*
X-546202D01*
X-543893Y1585289D01*
X-535210Y1581693D01*
X-525813D01*
X-517131Y1585289D01*
X-514822Y1587598D01*
X-414523D01*
X-412401Y1584423D01*
Y1575026D01*
X-408805Y1566344D01*
X-402160Y1559699D01*
X-393478Y1556102D01*
X-384081D01*
X-375399Y1559699D01*
X-368754Y1566344D01*
X-365157Y1575026D01*
Y1584423D01*
X-363036Y1587598D01*
X-236913D01*
X-236818Y1587244D01*
X-236184Y1582598D01*
X-244498Y1574284D01*
X-250718Y1563511D01*
X-253938Y1551496D01*
Y1539056D01*
X-250718Y1527040D01*
X-244498Y1516267D01*
X-235702Y1507471D01*
X-224929Y1501251D01*
X-212913Y1498032D01*
X-200474D01*
X-188458Y1501251D01*
X-177685Y1507471D01*
X-168889Y1516267D01*
X-162669Y1527040D01*
X-159449Y1539056D01*
Y1551496D01*
X-162669Y1563511D01*
X-168889Y1574284D01*
X-177203Y1582598D01*
X-176569Y1587244D01*
X-176474Y1587598D01*
X176473D01*
X176568Y1587244D01*
X177202Y1582598D01*
X168888Y1574284D01*
X162668Y1563511D01*
X159448Y1551496D01*
Y1539056D01*
X162668Y1527040D01*
X168888Y1516267D01*
X177684Y1507471D01*
X188457Y1501251D01*
X200473Y1498032D01*
X212912D01*
X224928Y1501251D01*
X235701Y1507471D01*
X244497Y1516267D01*
X250717Y1527040D01*
X253937Y1539056D01*
Y1551496D01*
X250717Y1563511D01*
X244497Y1574284D01*
X236183Y1582598D01*
X236817Y1587244D01*
X236912Y1587598D01*
X280570D01*
X282879Y1585289D01*
X291561Y1581693D01*
X300959D01*
X309641Y1585289D01*
X311950Y1587598D01*
X412249D01*
X414370Y1584423D01*
Y1575026D01*
X417967Y1566344D01*
X424612Y1559699D01*
X433294Y1556102D01*
X442691D01*
X451373Y1559699D01*
X458018Y1566344D01*
X461614Y1575026D01*
Y1584423D01*
X463736Y1587598D01*
X589859D01*
X589954Y1587244D01*
X590588Y1582598D01*
X582274Y1574284D01*
X576054Y1563511D01*
X572835Y1551496D01*
Y1539056D01*
X576054Y1527040D01*
X582274Y1516267D01*
X591070Y1507471D01*
X601843Y1501251D01*
X613859Y1498032D01*
X626298D01*
X638314Y1501251D01*
X649087Y1507471D01*
X657883Y1516267D01*
X664103Y1527040D01*
X667323Y1539056D01*
Y1551496D01*
X664103Y1563511D01*
X657883Y1574284D01*
X649569Y1582598D01*
X650203Y1587244D01*
X650298Y1587598D01*
X1003245D01*
X1003340Y1587244D01*
X1003974Y1582598D01*
X995660Y1574284D01*
X989440Y1563511D01*
X986221Y1551496D01*
Y1539056D01*
X989440Y1527040D01*
X995660Y1516267D01*
X1004456Y1507471D01*
X1015229Y1501251D01*
X1027245Y1498032D01*
X1039684D01*
X1051700Y1501251D01*
X1062473Y1507471D01*
X1071269Y1516267D01*
X1077489Y1527040D01*
X1080709Y1539056D01*
Y1551496D01*
X1077489Y1563511D01*
X1071269Y1574284D01*
X1062955Y1582598D01*
X1063589Y1587244D01*
X1063684Y1587598D01*
X1107342D01*
X1109651Y1585289D01*
X1118333Y1581693D01*
X1127731D01*
X1136413Y1585289D01*
X1138722Y1587598D01*
X1239021D01*
X1241142Y1584423D01*
Y1575026D01*
X1244738Y1566344D01*
X1251383Y1559699D01*
X1260065Y1556102D01*
X1269463D01*
X1278145Y1559699D01*
X1284790Y1566344D01*
X1288386Y1575026D01*
Y1584423D01*
X1290508Y1587598D01*
X1416631D01*
X1416726Y1587244D01*
X1417360Y1582598D01*
X1409046Y1574284D01*
X1402826Y1563511D01*
X1399607Y1551496D01*
Y1539056D01*
X1402826Y1527040D01*
X1409046Y1516267D01*
X1417842Y1507471D01*
X1428615Y1501251D01*
X1440631Y1498032D01*
X1453070D01*
X1465086Y1501251D01*
X1475859Y1507471D01*
X1484655Y1516267D01*
X1490875Y1527040D01*
X1494095Y1539056D01*
Y1551496D01*
X1490875Y1563511D01*
X1484655Y1574284D01*
X1476341Y1582598D01*
X1476975Y1587244D01*
X1477070Y1587598D01*
X1558071D01*
Y-1585630D01*
D02*
G37*
%LPC*%
G36*
X1277440Y1538995D02*
X1268043D01*
X1259361Y1535399D01*
X1252716Y1528754D01*
X1249120Y1520072D01*
Y1510674D01*
X1252716Y1501992D01*
X1259361Y1495347D01*
X1268043Y1491751D01*
X1277440D01*
X1286122Y1495347D01*
X1292767Y1501992D01*
X1296364Y1510674D01*
Y1520072D01*
X1292767Y1528754D01*
X1286122Y1535399D01*
X1277440Y1538995D01*
D02*
G37*
G36*
X1213440D02*
X1204043D01*
X1195361Y1535399D01*
X1188716Y1528754D01*
X1185120Y1520072D01*
Y1510674D01*
X1188716Y1501992D01*
X1195361Y1495347D01*
X1204043Y1491751D01*
X1213440D01*
X1222122Y1495347D01*
X1228767Y1501992D01*
X1232364Y1510674D01*
Y1520072D01*
X1228767Y1528754D01*
X1222122Y1535399D01*
X1213440Y1538995D01*
D02*
G37*
G36*
X450667D02*
X441269D01*
X432587Y1535399D01*
X425942Y1528754D01*
X422346Y1520072D01*
Y1510674D01*
X425942Y1501992D01*
X432587Y1495347D01*
X441269Y1491751D01*
X450667D01*
X459349Y1495347D01*
X465994Y1501992D01*
X469590Y1510674D01*
Y1520072D01*
X465994Y1528754D01*
X459349Y1535399D01*
X450667Y1538995D01*
D02*
G37*
G36*
X386667D02*
X377269D01*
X368587Y1535399D01*
X361942Y1528754D01*
X358346Y1520072D01*
Y1510674D01*
X361942Y1501992D01*
X368587Y1495347D01*
X377269Y1491751D01*
X386667D01*
X395349Y1495347D01*
X401994Y1501992D01*
X405590Y1510674D01*
Y1520072D01*
X401994Y1528754D01*
X395349Y1535399D01*
X386667Y1538995D01*
D02*
G37*
G36*
X-376104D02*
X-385502D01*
X-394184Y1535399D01*
X-400829Y1528754D01*
X-404425Y1520072D01*
Y1510674D01*
X-400829Y1501992D01*
X-394184Y1495347D01*
X-385502Y1491751D01*
X-376104D01*
X-367422Y1495347D01*
X-360777Y1501992D01*
X-357181Y1510674D01*
Y1520072D01*
X-360777Y1528754D01*
X-367422Y1535399D01*
X-376104Y1538995D01*
D02*
G37*
G36*
X-440104D02*
X-449502D01*
X-458184Y1535399D01*
X-464829Y1528754D01*
X-468425Y1520072D01*
Y1510674D01*
X-464829Y1501992D01*
X-458184Y1495347D01*
X-449502Y1491751D01*
X-440104D01*
X-431422Y1495347D01*
X-424777Y1501992D01*
X-421181Y1510674D01*
Y1520072D01*
X-424777Y1528754D01*
X-431422Y1535399D01*
X-440104Y1538995D01*
D02*
G37*
G36*
X-1266876D02*
X-1276273D01*
X-1284955Y1535399D01*
X-1291600Y1528754D01*
X-1295197Y1520072D01*
Y1510674D01*
X-1291600Y1501992D01*
X-1284955Y1495347D01*
X-1276273Y1491751D01*
X-1266876D01*
X-1258194Y1495347D01*
X-1251549Y1501992D01*
X-1247953Y1510674D01*
Y1520072D01*
X-1251549Y1528754D01*
X-1258194Y1535399D01*
X-1266876Y1538995D01*
D02*
G37*
G36*
X1277440Y1481995D02*
X1268043D01*
X1259361Y1478399D01*
X1252716Y1471754D01*
X1249120Y1463072D01*
Y1453674D01*
X1252716Y1444992D01*
X1259361Y1438347D01*
X1268043Y1434751D01*
X1277440D01*
X1286122Y1438347D01*
X1292767Y1444992D01*
X1296364Y1453674D01*
Y1463072D01*
X1292767Y1471754D01*
X1286122Y1478399D01*
X1277440Y1481995D01*
D02*
G37*
G36*
X1213440D02*
X1204043D01*
X1195361Y1478399D01*
X1188716Y1471754D01*
X1185120Y1463072D01*
Y1453674D01*
X1188716Y1444992D01*
X1195361Y1438347D01*
X1204043Y1434751D01*
X1213440D01*
X1222122Y1438347D01*
X1228767Y1444992D01*
X1232364Y1453674D01*
Y1463072D01*
X1228767Y1471754D01*
X1222122Y1478399D01*
X1213440Y1481995D01*
D02*
G37*
G36*
X450667D02*
X441269D01*
X432587Y1478399D01*
X425942Y1471754D01*
X422346Y1463072D01*
Y1453674D01*
X425942Y1444992D01*
X432587Y1438347D01*
X441269Y1434751D01*
X450667D01*
X459349Y1438347D01*
X465994Y1444992D01*
X469590Y1453674D01*
Y1463072D01*
X465994Y1471754D01*
X459349Y1478399D01*
X450667Y1481995D01*
D02*
G37*
G36*
X386667D02*
X377269D01*
X368587Y1478399D01*
X361942Y1471754D01*
X358346Y1463072D01*
Y1453674D01*
X361942Y1444992D01*
X368587Y1438347D01*
X377269Y1434751D01*
X386667D01*
X395349Y1438347D01*
X401994Y1444992D01*
X405590Y1453674D01*
Y1463072D01*
X401994Y1471754D01*
X395349Y1478399D01*
X386667Y1481995D01*
D02*
G37*
G36*
X-376104D02*
X-385502D01*
X-394184Y1478399D01*
X-400829Y1471754D01*
X-404425Y1463072D01*
Y1453674D01*
X-400829Y1444992D01*
X-394184Y1438347D01*
X-385502Y1434751D01*
X-376104D01*
X-367422Y1438347D01*
X-360777Y1444992D01*
X-357181Y1453674D01*
Y1463072D01*
X-360777Y1471754D01*
X-367422Y1478399D01*
X-376104Y1481995D01*
D02*
G37*
G36*
X-440104D02*
X-449502D01*
X-458184Y1478399D01*
X-464829Y1471754D01*
X-468425Y1463072D01*
Y1453674D01*
X-464829Y1444992D01*
X-458184Y1438347D01*
X-449502Y1434751D01*
X-440104D01*
X-431422Y1438347D01*
X-424777Y1444992D01*
X-421181Y1453674D01*
Y1463072D01*
X-424777Y1471754D01*
X-431422Y1478399D01*
X-440104Y1481995D01*
D02*
G37*
G36*
X-1202876D02*
X-1212273D01*
X-1220955Y1478399D01*
X-1227600Y1471754D01*
X-1231197Y1463072D01*
Y1453674D01*
X-1227600Y1444992D01*
X-1220955Y1438347D01*
X-1212273Y1434751D01*
X-1202876D01*
X-1194194Y1438347D01*
X-1187549Y1444992D01*
X-1183953Y1453674D01*
Y1463072D01*
X-1187549Y1471754D01*
X-1194194Y1478399D01*
X-1202876Y1481995D01*
D02*
G37*
G36*
X-1266876D02*
X-1276273D01*
X-1284955Y1478399D01*
X-1291600Y1471754D01*
X-1295197Y1463072D01*
Y1453674D01*
X-1291600Y1444992D01*
X-1284955Y1438347D01*
X-1276273Y1434751D01*
X-1266876D01*
X-1258194Y1438347D01*
X-1251549Y1444992D01*
X-1247953Y1453674D01*
Y1463072D01*
X-1251549Y1471754D01*
X-1258194Y1478399D01*
X-1266876Y1481995D01*
D02*
G37*
G36*
X1453070Y1395670D02*
X1440631D01*
X1428615Y1392450D01*
X1417842Y1386230D01*
X1409046Y1377434D01*
X1402826Y1366661D01*
X1399607Y1354646D01*
Y1342206D01*
X1402826Y1330190D01*
X1409046Y1319417D01*
X1417842Y1310621D01*
X1428615Y1304401D01*
X1440631Y1301182D01*
X1453070D01*
X1465086Y1304401D01*
X1475859Y1310621D01*
X1484655Y1319417D01*
X1490875Y1330190D01*
X1494095Y1342206D01*
Y1354646D01*
X1490875Y1366661D01*
X1484655Y1377434D01*
X1475859Y1386230D01*
X1465086Y1392450D01*
X1453070Y1395670D01*
D02*
G37*
G36*
X1039684D02*
X1027245D01*
X1015229Y1392450D01*
X1004456Y1386230D01*
X995660Y1377434D01*
X989440Y1366661D01*
X986221Y1354646D01*
Y1342206D01*
X989440Y1330190D01*
X995660Y1319417D01*
X1004456Y1310621D01*
X1015229Y1304401D01*
X1027245Y1301182D01*
X1039684D01*
X1051700Y1304401D01*
X1062473Y1310621D01*
X1071269Y1319417D01*
X1077489Y1330190D01*
X1080709Y1342206D01*
Y1354646D01*
X1077489Y1366661D01*
X1071269Y1377434D01*
X1062473Y1386230D01*
X1051700Y1392450D01*
X1039684Y1395670D01*
D02*
G37*
G36*
X626298D02*
X613859D01*
X601843Y1392450D01*
X591070Y1386230D01*
X582274Y1377434D01*
X576054Y1366661D01*
X572835Y1354646D01*
Y1342206D01*
X576054Y1330190D01*
X582274Y1319417D01*
X591070Y1310621D01*
X601843Y1304401D01*
X613859Y1301182D01*
X626298D01*
X638314Y1304401D01*
X649087Y1310621D01*
X657883Y1319417D01*
X664103Y1330190D01*
X667323Y1342206D01*
Y1354646D01*
X664103Y1366661D01*
X657883Y1377434D01*
X649087Y1386230D01*
X638314Y1392450D01*
X626298Y1395670D01*
D02*
G37*
G36*
X212912D02*
X200473D01*
X188457Y1392450D01*
X177684Y1386230D01*
X168888Y1377434D01*
X162668Y1366661D01*
X159448Y1354646D01*
Y1342206D01*
X162668Y1330190D01*
X168888Y1319417D01*
X177684Y1310621D01*
X188457Y1304401D01*
X200473Y1301182D01*
X212912D01*
X224928Y1304401D01*
X235701Y1310621D01*
X244497Y1319417D01*
X250717Y1330190D01*
X253937Y1342206D01*
Y1354646D01*
X250717Y1366661D01*
X244497Y1377434D01*
X235701Y1386230D01*
X224928Y1392450D01*
X212912Y1395670D01*
D02*
G37*
G36*
X-200474D02*
X-212913D01*
X-224929Y1392450D01*
X-235702Y1386230D01*
X-244498Y1377434D01*
X-250718Y1366661D01*
X-253938Y1354646D01*
Y1342206D01*
X-250718Y1330190D01*
X-244498Y1319417D01*
X-235702Y1310621D01*
X-224929Y1304401D01*
X-212913Y1301182D01*
X-200474D01*
X-188458Y1304401D01*
X-177685Y1310621D01*
X-168889Y1319417D01*
X-162669Y1330190D01*
X-159449Y1342206D01*
Y1354646D01*
X-162669Y1366661D01*
X-168889Y1377434D01*
X-177685Y1386230D01*
X-188458Y1392450D01*
X-200474Y1395670D01*
D02*
G37*
G36*
X-613860D02*
X-626299D01*
X-638315Y1392450D01*
X-649088Y1386230D01*
X-657884Y1377434D01*
X-664104Y1366661D01*
X-667323Y1354646D01*
Y1342206D01*
X-664104Y1330190D01*
X-657884Y1319417D01*
X-649088Y1310621D01*
X-638315Y1304401D01*
X-626299Y1301182D01*
X-613860D01*
X-601844Y1304401D01*
X-591071Y1310621D01*
X-582275Y1319417D01*
X-576055Y1330190D01*
X-572835Y1342206D01*
Y1354646D01*
X-576055Y1366661D01*
X-582275Y1377434D01*
X-591071Y1386230D01*
X-601844Y1392450D01*
X-613860Y1395670D01*
D02*
G37*
G36*
X-1027246D02*
X-1039685D01*
X-1051701Y1392450D01*
X-1062474Y1386230D01*
X-1071270Y1377434D01*
X-1077490Y1366661D01*
X-1080709Y1354646D01*
Y1342206D01*
X-1077490Y1330190D01*
X-1071270Y1319417D01*
X-1062474Y1310621D01*
X-1051701Y1304401D01*
X-1039685Y1301182D01*
X-1027246D01*
X-1015230Y1304401D01*
X-1004457Y1310621D01*
X-995661Y1319417D01*
X-989441Y1330190D01*
X-986221Y1342206D01*
Y1354646D01*
X-989441Y1366661D01*
X-995661Y1377434D01*
X-1004457Y1386230D01*
X-1015230Y1392450D01*
X-1027246Y1395670D01*
D02*
G37*
G36*
X-1440630D02*
X-1453069D01*
X-1465085Y1392450D01*
X-1475858Y1386230D01*
X-1484654Y1377434D01*
X-1490874Y1366661D01*
X-1494093Y1354646D01*
Y1342206D01*
X-1490874Y1330190D01*
X-1484654Y1319417D01*
X-1475858Y1310621D01*
X-1465085Y1304401D01*
X-1453069Y1301182D01*
X-1440630D01*
X-1428614Y1304401D01*
X-1417841Y1310621D01*
X-1409045Y1319417D01*
X-1402825Y1330190D01*
X-1399605Y1342206D01*
Y1354646D01*
X-1402825Y1366661D01*
X-1409045Y1377434D01*
X-1417841Y1386230D01*
X-1428614Y1392450D01*
X-1440630Y1395670D01*
D02*
G37*
G36*
X1108045Y1308072D02*
X1098647D01*
X1089965Y1304476D01*
X1083320Y1297831D01*
X1079724Y1289149D01*
Y1279751D01*
X1083320Y1271069D01*
X1089965Y1264424D01*
X1098647Y1260828D01*
X1108045D01*
X1116727Y1264424D01*
X1123372Y1271069D01*
X1126968Y1279751D01*
Y1289149D01*
X1123372Y1297831D01*
X1116727Y1304476D01*
X1108045Y1308072D01*
D02*
G37*
G36*
X281273D02*
X271875D01*
X263193Y1304476D01*
X256548Y1297831D01*
X252952Y1289149D01*
Y1279751D01*
X256548Y1271069D01*
X263193Y1264424D01*
X271875Y1260828D01*
X281273D01*
X289955Y1264424D01*
X296600Y1271069D01*
X300196Y1279751D01*
Y1289149D01*
X296600Y1297831D01*
X289955Y1304476D01*
X281273Y1308072D01*
D02*
G37*
G36*
X-545499D02*
X-554896D01*
X-563578Y1304476D01*
X-570223Y1297831D01*
X-573820Y1289149D01*
Y1279751D01*
X-570223Y1271069D01*
X-563578Y1264424D01*
X-554896Y1260828D01*
X-545499D01*
X-536817Y1264424D01*
X-530172Y1271069D01*
X-526576Y1279751D01*
Y1289149D01*
X-530172Y1297831D01*
X-536817Y1304476D01*
X-545499Y1308072D01*
D02*
G37*
G36*
X-1372271D02*
X-1381668D01*
X-1390350Y1304476D01*
X-1396995Y1297831D01*
X-1400591Y1289149D01*
Y1279751D01*
X-1396995Y1271069D01*
X-1390350Y1264424D01*
X-1381668Y1260828D01*
X-1372271D01*
X-1363589Y1264424D01*
X-1356944Y1271069D01*
X-1353347Y1279751D01*
Y1289149D01*
X-1356944Y1297831D01*
X-1363589Y1304476D01*
X-1372271Y1308072D01*
D02*
G37*
G36*
X959423Y1244094D02*
X950026D01*
X941344Y1240498D01*
X934699Y1233853D01*
X931103Y1225171D01*
Y1215774D01*
X934699Y1207092D01*
X941344Y1200447D01*
X950026Y1196850D01*
X959423D01*
X968106Y1200447D01*
X974750Y1207092D01*
X978347Y1215774D01*
Y1225171D01*
X974750Y1233853D01*
X968106Y1240498D01*
X959423Y1244094D01*
D02*
G37*
G36*
X-694120D02*
X-703518D01*
X-712200Y1240498D01*
X-718845Y1233853D01*
X-722441Y1225171D01*
Y1215774D01*
X-718845Y1207092D01*
X-712200Y1200447D01*
X-703518Y1196850D01*
X-694120D01*
X-685438Y1200447D01*
X-678793Y1207092D01*
X-675197Y1215774D01*
Y1225171D01*
X-678793Y1233853D01*
X-685438Y1240498D01*
X-694120Y1244094D01*
D02*
G37*
G36*
X650368Y1236220D02*
X640971D01*
X632289Y1232624D01*
X625644Y1225979D01*
X622048Y1217297D01*
Y1207900D01*
X625644Y1199218D01*
X632289Y1192573D01*
X640971Y1188976D01*
X650368D01*
X659050Y1192573D01*
X665695Y1199218D01*
X669292Y1207900D01*
Y1217297D01*
X665695Y1225979D01*
X659050Y1232624D01*
X650368Y1236220D01*
D02*
G37*
G36*
X-1003175D02*
X-1012573D01*
X-1021255Y1232624D01*
X-1027900Y1225979D01*
X-1031496Y1217297D01*
Y1207900D01*
X-1027900Y1199218D01*
X-1021255Y1192573D01*
X-1012573Y1188976D01*
X-1003175D01*
X-994493Y1192573D01*
X-987848Y1199218D01*
X-984252Y1207900D01*
Y1217297D01*
X-987848Y1225979D01*
X-994493Y1232624D01*
X-1003175Y1236220D01*
D02*
G37*
G36*
X1127731Y1215551D02*
X1118333D01*
X1109651Y1211955D01*
X1103006Y1205310D01*
X1099410Y1196628D01*
Y1187230D01*
X1103006Y1178548D01*
X1109651Y1171903D01*
X1118333Y1168307D01*
X1127731D01*
X1136413Y1171903D01*
X1143058Y1178548D01*
X1146654Y1187230D01*
Y1196628D01*
X1143058Y1205310D01*
X1136413Y1211955D01*
X1127731Y1215551D01*
D02*
G37*
G36*
X300959D02*
X291561D01*
X282879Y1211955D01*
X276234Y1205310D01*
X272638Y1196628D01*
Y1187230D01*
X276234Y1178548D01*
X282879Y1171903D01*
X291561Y1168307D01*
X300959D01*
X309641Y1171903D01*
X316286Y1178548D01*
X319882Y1187230D01*
Y1196628D01*
X316286Y1205310D01*
X309641Y1211955D01*
X300959Y1215551D01*
D02*
G37*
G36*
X-525813D02*
X-535210D01*
X-543893Y1211955D01*
X-550538Y1205310D01*
X-554134Y1196628D01*
Y1187230D01*
X-550538Y1178548D01*
X-543893Y1171903D01*
X-535210Y1168307D01*
X-525813D01*
X-517131Y1171903D01*
X-510486Y1178548D01*
X-506890Y1187230D01*
Y1196628D01*
X-510486Y1205310D01*
X-517131Y1211955D01*
X-525813Y1215551D01*
D02*
G37*
G36*
X-1352585D02*
X-1361982D01*
X-1370664Y1211955D01*
X-1377309Y1205310D01*
X-1380906Y1196628D01*
Y1187230D01*
X-1377309Y1178548D01*
X-1370664Y1171903D01*
X-1361982Y1168307D01*
X-1352585D01*
X-1343903Y1171903D01*
X-1337258Y1178548D01*
X-1333661Y1187230D01*
Y1196628D01*
X-1337258Y1205310D01*
X-1343903Y1211955D01*
X-1352585Y1215551D01*
D02*
G37*
G36*
X769463Y1142716D02*
X760065D01*
X751383Y1139120D01*
X744738Y1132475D01*
X741142Y1123793D01*
Y1114396D01*
X744738Y1105714D01*
X751383Y1099069D01*
X760065Y1095473D01*
X769463D01*
X778145Y1099069D01*
X784790Y1105714D01*
X788386Y1114396D01*
Y1123793D01*
X784790Y1132475D01*
X778145Y1139120D01*
X769463Y1142716D01*
D02*
G37*
G36*
X-884081D02*
X-893478D01*
X-902160Y1139120D01*
X-908805Y1132475D01*
X-912402Y1123793D01*
Y1114396D01*
X-908805Y1105714D01*
X-902160Y1099069D01*
X-893478Y1095473D01*
X-884081D01*
X-875399Y1099069D01*
X-868754Y1105714D01*
X-865158Y1114396D01*
Y1123793D01*
X-868754Y1132475D01*
X-875399Y1139120D01*
X-884081Y1142716D01*
D02*
G37*
G36*
X1269463Y1189960D02*
X1260065D01*
X1251383Y1186364D01*
X1244738Y1179719D01*
X1241142Y1171037D01*
Y1161640D01*
X1244738Y1152958D01*
X1251383Y1146313D01*
X1260065Y1142716D01*
X1268285Y1142716D01*
X1269066Y1138040D01*
X1265675Y1136635D01*
X1260384Y1134444D01*
X1253739Y1127799D01*
X1250143Y1119117D01*
Y1109719D01*
X1253739Y1101037D01*
X1260384Y1094392D01*
X1269066Y1090796D01*
X1278464D01*
X1287146Y1094392D01*
X1293791Y1101037D01*
X1297387Y1109719D01*
Y1119117D01*
X1293791Y1127799D01*
X1287146Y1134444D01*
X1278464Y1138040D01*
X1270244Y1138040D01*
X1269463Y1142716D01*
X1272854Y1144121D01*
X1278145Y1146313D01*
X1284790Y1152958D01*
X1288386Y1161640D01*
Y1171037D01*
X1284790Y1179719D01*
X1278145Y1186364D01*
X1269463Y1189960D01*
D02*
G37*
G36*
X1214464Y1138040D02*
X1205066D01*
X1196384Y1134444D01*
X1189739Y1127799D01*
X1186143Y1119117D01*
Y1109719D01*
X1189739Y1101037D01*
X1196384Y1094392D01*
X1205066Y1090796D01*
X1214464D01*
X1223146Y1094392D01*
X1229791Y1101037D01*
X1233387Y1109719D01*
Y1119117D01*
X1229791Y1127799D01*
X1223146Y1134444D01*
X1214464Y1138040D01*
D02*
G37*
G36*
X442691Y1189960D02*
X433294D01*
X424612Y1186364D01*
X417967Y1179719D01*
X414370Y1171037D01*
Y1161640D01*
X417967Y1152958D01*
X424612Y1146313D01*
X433294Y1142716D01*
X441512Y1142716D01*
X442293Y1138040D01*
X438903Y1136636D01*
X433611Y1134444D01*
X426966Y1127799D01*
X423370Y1119117D01*
Y1109719D01*
X426966Y1101037D01*
X433611Y1094392D01*
X442293Y1090796D01*
X451690D01*
X460372Y1094392D01*
X467017Y1101037D01*
X470614Y1109719D01*
Y1119117D01*
X467017Y1127799D01*
X460372Y1134444D01*
X451690Y1138040D01*
X443472Y1138040D01*
X442691Y1142716D01*
X446081Y1144121D01*
X451373Y1146313D01*
X458018Y1152958D01*
X461614Y1161640D01*
Y1171037D01*
X458018Y1179719D01*
X451373Y1186364D01*
X442691Y1189960D01*
D02*
G37*
G36*
X387690Y1138040D02*
X378293D01*
X369611Y1134444D01*
X362966Y1127799D01*
X359370Y1119117D01*
Y1109719D01*
X362966Y1101037D01*
X369611Y1094392D01*
X378293Y1090796D01*
X387690D01*
X396372Y1094392D01*
X403017Y1101037D01*
X406614Y1109719D01*
Y1119117D01*
X403017Y1127799D01*
X396372Y1134444D01*
X387690Y1138040D01*
D02*
G37*
G36*
X-384081Y1189960D02*
X-393478D01*
X-402160Y1186364D01*
X-408805Y1179719D01*
X-412401Y1171037D01*
Y1161640D01*
X-408805Y1152958D01*
X-402160Y1146313D01*
X-393478Y1142716D01*
X-385259Y1142716D01*
X-384479Y1138040D01*
X-387869Y1136636D01*
X-393161Y1134444D01*
X-399806Y1127799D01*
X-403402Y1119117D01*
Y1109719D01*
X-399806Y1101037D01*
X-393161Y1094392D01*
X-384478Y1090796D01*
X-375081D01*
X-366399Y1094392D01*
X-359754Y1101037D01*
X-356158Y1109719D01*
Y1119117D01*
X-359754Y1127799D01*
X-366399Y1134444D01*
X-375081Y1138040D01*
X-383300Y1138040D01*
X-384080Y1142716D01*
X-380690Y1144121D01*
X-375399Y1146313D01*
X-368754Y1152958D01*
X-365157Y1161640D01*
Y1171037D01*
X-368754Y1179719D01*
X-375399Y1186364D01*
X-384081Y1189960D01*
D02*
G37*
G36*
X-439081Y1138040D02*
X-448478D01*
X-457161Y1134444D01*
X-463806Y1127799D01*
X-467402Y1119117D01*
Y1109719D01*
X-463806Y1101037D01*
X-457161Y1094392D01*
X-448478Y1090796D01*
X-439081D01*
X-430399Y1094392D01*
X-423754Y1101037D01*
X-420158Y1109719D01*
Y1119117D01*
X-423754Y1127799D01*
X-430399Y1134444D01*
X-439081Y1138040D01*
D02*
G37*
G36*
X-1210852Y1189960D02*
X-1220250D01*
X-1228932Y1186364D01*
X-1235577Y1179719D01*
X-1239173Y1171037D01*
Y1161640D01*
X-1235577Y1152958D01*
X-1228932Y1146313D01*
X-1220250Y1142716D01*
X-1212031Y1142716D01*
X-1211250Y1138040D01*
X-1214641Y1136636D01*
X-1219932Y1134444D01*
X-1226577Y1127799D01*
X-1230173Y1119117D01*
Y1109719D01*
X-1226577Y1101037D01*
X-1219932Y1094392D01*
X-1211250Y1090796D01*
X-1201852D01*
X-1193170Y1094392D01*
X-1186525Y1101037D01*
X-1182929Y1109719D01*
Y1119117D01*
X-1186525Y1127799D01*
X-1193170Y1134444D01*
X-1201852Y1138040D01*
X-1210072Y1138040D01*
X-1210852Y1142716D01*
X-1207462Y1144121D01*
X-1202170Y1146313D01*
X-1195525Y1152958D01*
X-1191929Y1161640D01*
Y1171037D01*
X-1195525Y1179719D01*
X-1202170Y1186364D01*
X-1210852Y1189960D01*
D02*
G37*
G36*
X-1265852Y1138040D02*
X-1275250D01*
X-1283932Y1134444D01*
X-1290577Y1127799D01*
X-1294173Y1119117D01*
Y1109719D01*
X-1290577Y1101037D01*
X-1283932Y1094392D01*
X-1275250Y1090796D01*
X-1265852D01*
X-1257170Y1094392D01*
X-1250525Y1101037D01*
X-1246929Y1109719D01*
Y1119117D01*
X-1250525Y1127799D01*
X-1257170Y1134444D01*
X-1265852Y1138040D01*
D02*
G37*
G36*
X849187Y1134842D02*
X839790D01*
X831108Y1131246D01*
X824463Y1124601D01*
X820866Y1115919D01*
Y1106522D01*
X824463Y1097840D01*
X831108Y1091195D01*
X839790Y1087599D01*
X849187D01*
X857869Y1091195D01*
X864514Y1097840D01*
X868111Y1106522D01*
Y1115919D01*
X864514Y1124601D01*
X857869Y1131246D01*
X849187Y1134842D01*
D02*
G37*
G36*
X-804356D02*
X-813754D01*
X-822436Y1131246D01*
X-829081Y1124601D01*
X-832677Y1115919D01*
Y1106522D01*
X-829081Y1097840D01*
X-822436Y1091195D01*
X-813754Y1087599D01*
X-804356D01*
X-795674Y1091195D01*
X-789029Y1097840D01*
X-785433Y1106522D01*
Y1115919D01*
X-789029Y1124601D01*
X-795674Y1131246D01*
X-804356Y1134842D01*
D02*
G37*
G36*
X1453070Y1179134D02*
X1440631D01*
X1428615Y1175914D01*
X1417842Y1169695D01*
X1409046Y1160898D01*
X1402826Y1150125D01*
X1399607Y1138110D01*
Y1125670D01*
X1402826Y1113654D01*
X1409046Y1102881D01*
X1417842Y1094085D01*
X1428615Y1087865D01*
X1440631Y1084646D01*
X1453070D01*
X1465086Y1087865D01*
X1475859Y1094085D01*
X1484655Y1102881D01*
X1490875Y1113654D01*
X1494095Y1125670D01*
Y1138110D01*
X1490875Y1150125D01*
X1484655Y1160898D01*
X1475859Y1169695D01*
X1465086Y1175914D01*
X1453070Y1179134D01*
D02*
G37*
G36*
X1039684D02*
X1027245D01*
X1015229Y1175914D01*
X1004456Y1169695D01*
X995660Y1160898D01*
X989440Y1150125D01*
X986221Y1138110D01*
Y1125670D01*
X989440Y1113654D01*
X995660Y1102881D01*
X1004456Y1094085D01*
X1015229Y1087865D01*
X1027245Y1084646D01*
X1039684D01*
X1051700Y1087865D01*
X1062473Y1094085D01*
X1071269Y1102881D01*
X1077489Y1113654D01*
X1080709Y1125670D01*
Y1138110D01*
X1077489Y1150125D01*
X1071269Y1160898D01*
X1062473Y1169695D01*
X1051700Y1175914D01*
X1039684Y1179134D01*
D02*
G37*
G36*
X626298D02*
X613859D01*
X601843Y1175914D01*
X591070Y1169695D01*
X582274Y1160898D01*
X576054Y1150125D01*
X572835Y1138110D01*
Y1125670D01*
X576054Y1113654D01*
X582274Y1102881D01*
X591070Y1094085D01*
X601843Y1087865D01*
X613859Y1084646D01*
X626298D01*
X638314Y1087865D01*
X649087Y1094085D01*
X657883Y1102881D01*
X664103Y1113654D01*
X667323Y1125670D01*
Y1138110D01*
X664103Y1150125D01*
X657883Y1160898D01*
X649087Y1169695D01*
X638314Y1175914D01*
X626298Y1179134D01*
D02*
G37*
G36*
X212912D02*
X200473D01*
X188457Y1175914D01*
X177684Y1169695D01*
X168888Y1160898D01*
X162668Y1150125D01*
X159448Y1138110D01*
Y1125670D01*
X162668Y1113654D01*
X168888Y1102881D01*
X177684Y1094085D01*
X188457Y1087865D01*
X200473Y1084646D01*
X212912D01*
X224928Y1087865D01*
X235701Y1094085D01*
X244497Y1102881D01*
X250717Y1113654D01*
X253937Y1125670D01*
Y1138110D01*
X250717Y1150125D01*
X244497Y1160898D01*
X235701Y1169695D01*
X224928Y1175914D01*
X212912Y1179134D01*
D02*
G37*
G36*
X-200474D02*
X-212913D01*
X-224929Y1175914D01*
X-235702Y1169695D01*
X-244498Y1160898D01*
X-250718Y1150125D01*
X-253938Y1138110D01*
Y1125670D01*
X-250718Y1113654D01*
X-244498Y1102881D01*
X-235702Y1094085D01*
X-224929Y1087865D01*
X-212913Y1084646D01*
X-200474D01*
X-188458Y1087865D01*
X-177685Y1094085D01*
X-168889Y1102881D01*
X-162669Y1113654D01*
X-159449Y1125670D01*
Y1138110D01*
X-162669Y1150125D01*
X-168889Y1160898D01*
X-177685Y1169695D01*
X-188458Y1175914D01*
X-200474Y1179134D01*
D02*
G37*
G36*
X-613860D02*
X-626299D01*
X-638315Y1175914D01*
X-649088Y1169695D01*
X-657884Y1160898D01*
X-664104Y1150125D01*
X-667323Y1138110D01*
Y1125670D01*
X-664104Y1113654D01*
X-657884Y1102881D01*
X-649088Y1094085D01*
X-638315Y1087865D01*
X-626299Y1084646D01*
X-613860D01*
X-601844Y1087865D01*
X-591071Y1094085D01*
X-582275Y1102881D01*
X-576055Y1113654D01*
X-572835Y1125670D01*
Y1138110D01*
X-576055Y1150125D01*
X-582275Y1160898D01*
X-591071Y1169695D01*
X-601844Y1175914D01*
X-613860Y1179134D01*
D02*
G37*
G36*
X-1027246D02*
X-1039685D01*
X-1051701Y1175914D01*
X-1062474Y1169695D01*
X-1071270Y1160898D01*
X-1077490Y1150125D01*
X-1080709Y1138110D01*
Y1125670D01*
X-1077490Y1113654D01*
X-1071270Y1102881D01*
X-1062474Y1094085D01*
X-1051701Y1087865D01*
X-1039685Y1084646D01*
X-1027246D01*
X-1015230Y1087865D01*
X-1004457Y1094085D01*
X-995661Y1102881D01*
X-989441Y1113654D01*
X-986221Y1125670D01*
Y1138110D01*
X-989441Y1150125D01*
X-995661Y1160898D01*
X-1004457Y1169695D01*
X-1015230Y1175914D01*
X-1027246Y1179134D01*
D02*
G37*
G36*
X-1440630D02*
X-1453069D01*
X-1465085Y1175914D01*
X-1475858Y1169695D01*
X-1484654Y1160898D01*
X-1490874Y1150125D01*
X-1494093Y1138110D01*
Y1125670D01*
X-1490874Y1113654D01*
X-1484654Y1102881D01*
X-1475858Y1094085D01*
X-1465085Y1087865D01*
X-1453069Y1084646D01*
X-1440630D01*
X-1428614Y1087865D01*
X-1417841Y1094085D01*
X-1409045Y1102881D01*
X-1402825Y1113654D01*
X-1399605Y1125670D01*
Y1138110D01*
X-1402825Y1150125D01*
X-1409045Y1160898D01*
X-1417841Y1169695D01*
X-1428614Y1175914D01*
X-1440630Y1179134D01*
D02*
G37*
G36*
X1278464Y1081040D02*
X1269066D01*
X1260384Y1077444D01*
X1253739Y1070799D01*
X1250143Y1062117D01*
Y1052719D01*
X1253739Y1044037D01*
X1260384Y1037392D01*
X1269066Y1033796D01*
X1278464D01*
X1287146Y1037392D01*
X1293791Y1044037D01*
X1297387Y1052719D01*
Y1062117D01*
X1293791Y1070799D01*
X1287146Y1077444D01*
X1278464Y1081040D01*
D02*
G37*
G36*
X1214464D02*
X1205066D01*
X1196384Y1077444D01*
X1189739Y1070799D01*
X1186143Y1062117D01*
Y1052719D01*
X1189739Y1044037D01*
X1196384Y1037392D01*
X1205066Y1033796D01*
X1214464D01*
X1223146Y1037392D01*
X1229791Y1044037D01*
X1233387Y1052719D01*
Y1062117D01*
X1229791Y1070799D01*
X1223146Y1077444D01*
X1214464Y1081040D01*
D02*
G37*
G36*
X451690D02*
X442293D01*
X433611Y1077444D01*
X426966Y1070799D01*
X423370Y1062117D01*
Y1052719D01*
X426966Y1044037D01*
X433611Y1037392D01*
X442293Y1033796D01*
X451690D01*
X460372Y1037392D01*
X467017Y1044037D01*
X470614Y1052719D01*
Y1062117D01*
X467017Y1070799D01*
X460372Y1077444D01*
X451690Y1081040D01*
D02*
G37*
G36*
X387690D02*
X378293D01*
X369611Y1077444D01*
X362966Y1070799D01*
X359370Y1062117D01*
Y1052719D01*
X362966Y1044037D01*
X369611Y1037392D01*
X378293Y1033796D01*
X387690D01*
X396372Y1037392D01*
X403017Y1044037D01*
X406614Y1052719D01*
Y1062117D01*
X403017Y1070799D01*
X396372Y1077444D01*
X387690Y1081040D01*
D02*
G37*
G36*
X-375081D02*
X-384478D01*
X-393161Y1077444D01*
X-399806Y1070799D01*
X-403402Y1062117D01*
Y1052719D01*
X-399806Y1044037D01*
X-393161Y1037392D01*
X-384478Y1033796D01*
X-375081D01*
X-366399Y1037392D01*
X-359754Y1044037D01*
X-356158Y1052719D01*
Y1062117D01*
X-359754Y1070799D01*
X-366399Y1077444D01*
X-375081Y1081040D01*
D02*
G37*
G36*
X-439081D02*
X-448478D01*
X-457161Y1077444D01*
X-463806Y1070799D01*
X-467402Y1062117D01*
Y1052719D01*
X-463806Y1044037D01*
X-457161Y1037392D01*
X-448478Y1033796D01*
X-439081D01*
X-430399Y1037392D01*
X-423754Y1044037D01*
X-420158Y1052719D01*
Y1062117D01*
X-423754Y1070799D01*
X-430399Y1077444D01*
X-439081Y1081040D01*
D02*
G37*
G36*
X-1201852D02*
X-1211250D01*
X-1219932Y1077444D01*
X-1226577Y1070799D01*
X-1230173Y1062117D01*
Y1052719D01*
X-1226577Y1044037D01*
X-1219932Y1037392D01*
X-1211250Y1033796D01*
X-1201852D01*
X-1193170Y1037392D01*
X-1186525Y1044037D01*
X-1182929Y1052719D01*
Y1062117D01*
X-1186525Y1070799D01*
X-1193170Y1077444D01*
X-1201852Y1081040D01*
D02*
G37*
G36*
X-1265852D02*
X-1275250D01*
X-1283932Y1077444D01*
X-1290577Y1070799D01*
X-1294173Y1062117D01*
Y1052719D01*
X-1290577Y1044037D01*
X-1283932Y1037392D01*
X-1275250Y1033796D01*
X-1265852D01*
X-1257170Y1037392D01*
X-1250525Y1044037D01*
X-1246929Y1052719D01*
Y1062117D01*
X-1250525Y1070799D01*
X-1257170Y1077444D01*
X-1265852Y1081040D01*
D02*
G37*
G36*
X651352Y1035433D02*
X641955D01*
X633273Y1031837D01*
X626628Y1025192D01*
X623032Y1016510D01*
Y1007112D01*
X626628Y998430D01*
X633273Y991785D01*
X641955Y988189D01*
X651352D01*
X660035Y991785D01*
X666680Y998430D01*
X670276Y1007112D01*
Y1016510D01*
X666680Y1025192D01*
X660035Y1031837D01*
X651352Y1035433D01*
D02*
G37*
G36*
X-1002191D02*
X-1011588D01*
X-1020271Y1031837D01*
X-1026916Y1025192D01*
X-1030512Y1016510D01*
Y1007112D01*
X-1026916Y998430D01*
X-1020271Y991785D01*
X-1011588Y988189D01*
X-1002191D01*
X-993509Y991785D01*
X-986864Y998430D01*
X-983268Y1007112D01*
Y1016510D01*
X-986864Y1025192D01*
X-993509Y1031837D01*
X-1002191Y1035433D01*
D02*
G37*
G36*
X1004699Y1032480D02*
X995302D01*
X986620Y1028884D01*
X979975Y1022239D01*
X976378Y1013557D01*
Y1004160D01*
X979975Y995477D01*
X986620Y988832D01*
X995302Y985236D01*
X1004699D01*
X1013381Y988832D01*
X1020026Y995477D01*
X1023622Y1004160D01*
Y1013557D01*
X1020026Y1022239D01*
X1013381Y1028884D01*
X1004699Y1032480D01*
D02*
G37*
G36*
X-648845D02*
X-658242D01*
X-666924Y1028884D01*
X-673569Y1022239D01*
X-677165Y1013557D01*
Y1004160D01*
X-673569Y995477D01*
X-666924Y988832D01*
X-658242Y985236D01*
X-648845D01*
X-640163Y988832D01*
X-633518Y995477D01*
X-629921Y1004160D01*
Y1013557D01*
X-633518Y1022239D01*
X-640163Y1028884D01*
X-648845Y1032480D01*
D02*
G37*
G36*
X857061Y937992D02*
X847664D01*
X838982Y934396D01*
X832337Y927751D01*
X828740Y919069D01*
Y909671D01*
X832337Y900989D01*
X838982Y894344D01*
X847664Y890748D01*
X857061D01*
X865743Y894344D01*
X872388Y900989D01*
X875985Y909671D01*
Y919069D01*
X872388Y927751D01*
X865743Y934396D01*
X857061Y937992D01*
D02*
G37*
G36*
X786195D02*
X776798D01*
X768115Y934396D01*
X761471Y927751D01*
X757874Y919069D01*
Y909671D01*
X761471Y900989D01*
X768115Y894344D01*
X776798Y890748D01*
X786195D01*
X794877Y894344D01*
X801522Y900989D01*
X805118Y909671D01*
Y919069D01*
X801522Y927751D01*
X794877Y934396D01*
X786195Y937992D01*
D02*
G37*
G36*
X-796482D02*
X-805880D01*
X-814562Y934396D01*
X-821207Y927751D01*
X-824803Y919069D01*
Y909671D01*
X-821207Y900989D01*
X-814562Y894344D01*
X-805880Y890748D01*
X-796482D01*
X-787800Y894344D01*
X-781155Y900989D01*
X-777559Y909671D01*
Y919069D01*
X-781155Y927751D01*
X-787800Y934396D01*
X-796482Y937992D01*
D02*
G37*
G36*
X-867349D02*
X-876746D01*
X-885428Y934396D01*
X-892073Y927751D01*
X-895669Y919069D01*
Y909671D01*
X-892073Y900989D01*
X-885428Y894344D01*
X-876746Y890748D01*
X-867349D01*
X-858667Y894344D01*
X-852021Y900989D01*
X-848425Y909671D01*
Y919069D01*
X-852021Y927751D01*
X-858667Y934396D01*
X-867349Y937992D01*
D02*
G37*
G36*
X1453070Y982284D02*
X1440631D01*
X1428615Y979064D01*
X1417842Y972845D01*
X1409046Y964048D01*
X1402826Y953275D01*
X1399607Y941260D01*
Y928820D01*
X1402826Y916804D01*
X1409046Y906031D01*
X1417842Y897235D01*
X1428615Y891015D01*
X1440631Y887796D01*
X1453070D01*
X1465086Y891015D01*
X1475859Y897235D01*
X1484655Y906031D01*
X1490875Y916804D01*
X1494095Y928820D01*
Y941260D01*
X1490875Y953275D01*
X1484655Y964048D01*
X1475859Y972845D01*
X1465086Y979064D01*
X1453070Y982284D01*
D02*
G37*
G36*
X1039684D02*
X1027245D01*
X1015229Y979064D01*
X1004456Y972845D01*
X995660Y964048D01*
X989440Y953275D01*
X986221Y941260D01*
Y928820D01*
X989440Y916804D01*
X995660Y906031D01*
X1004456Y897235D01*
X1015229Y891015D01*
X1027245Y887796D01*
X1039684D01*
X1051700Y891015D01*
X1062473Y897235D01*
X1071269Y906031D01*
X1077489Y916804D01*
X1080709Y928820D01*
Y941260D01*
X1077489Y953275D01*
X1071269Y964048D01*
X1062473Y972845D01*
X1051700Y979064D01*
X1039684Y982284D01*
D02*
G37*
G36*
X626298D02*
X613859D01*
X601843Y979064D01*
X591070Y972845D01*
X582274Y964048D01*
X576054Y953275D01*
X572835Y941260D01*
Y928820D01*
X576054Y916804D01*
X582274Y906031D01*
X591070Y897235D01*
X601843Y891015D01*
X613859Y887796D01*
X626298D01*
X638314Y891015D01*
X649087Y897235D01*
X657883Y906031D01*
X664103Y916804D01*
X667323Y928820D01*
Y941260D01*
X664103Y953275D01*
X657883Y964048D01*
X649087Y972845D01*
X638314Y979064D01*
X626298Y982284D01*
D02*
G37*
G36*
X212912D02*
X200473D01*
X188457Y979064D01*
X177684Y972845D01*
X168888Y964048D01*
X162668Y953275D01*
X159448Y941260D01*
Y928820D01*
X162668Y916804D01*
X168888Y906031D01*
X177684Y897235D01*
X188457Y891015D01*
X200473Y887796D01*
X212912D01*
X224928Y891015D01*
X235701Y897235D01*
X244497Y906031D01*
X250717Y916804D01*
X253937Y928820D01*
Y941260D01*
X250717Y953275D01*
X244497Y964048D01*
X235701Y972845D01*
X224928Y979064D01*
X212912Y982284D01*
D02*
G37*
G36*
X-200474D02*
X-212913D01*
X-224929Y979064D01*
X-235702Y972845D01*
X-244498Y964048D01*
X-250718Y953275D01*
X-253938Y941260D01*
Y928820D01*
X-250718Y916804D01*
X-244498Y906031D01*
X-235702Y897235D01*
X-224929Y891015D01*
X-212913Y887796D01*
X-200474D01*
X-188458Y891015D01*
X-177685Y897235D01*
X-168889Y906031D01*
X-162669Y916804D01*
X-159449Y928820D01*
Y941260D01*
X-162669Y953275D01*
X-168889Y964048D01*
X-177685Y972845D01*
X-188458Y979064D01*
X-200474Y982284D01*
D02*
G37*
G36*
X-613860D02*
X-626299D01*
X-638315Y979064D01*
X-649088Y972845D01*
X-657884Y964048D01*
X-664104Y953275D01*
X-667323Y941260D01*
Y928820D01*
X-664104Y916804D01*
X-657884Y906031D01*
X-649088Y897235D01*
X-638315Y891015D01*
X-626299Y887796D01*
X-613860D01*
X-601844Y891015D01*
X-591071Y897235D01*
X-582275Y906031D01*
X-576055Y916804D01*
X-572835Y928820D01*
Y941260D01*
X-576055Y953275D01*
X-582275Y964048D01*
X-591071Y972845D01*
X-601844Y979064D01*
X-613860Y982284D01*
D02*
G37*
G36*
X-1027246D02*
X-1039685D01*
X-1051701Y979064D01*
X-1062474Y972845D01*
X-1071270Y964048D01*
X-1077490Y953275D01*
X-1080709Y941260D01*
Y928820D01*
X-1077490Y916804D01*
X-1071270Y906031D01*
X-1062474Y897235D01*
X-1051701Y891015D01*
X-1039685Y887796D01*
X-1027246D01*
X-1015230Y891015D01*
X-1004457Y897235D01*
X-995661Y906031D01*
X-989441Y916804D01*
X-986221Y928820D01*
Y941260D01*
X-989441Y953275D01*
X-995661Y964048D01*
X-1004457Y972845D01*
X-1015230Y979064D01*
X-1027246Y982284D01*
D02*
G37*
G36*
X-1440630D02*
X-1453069D01*
X-1465085Y979064D01*
X-1475858Y972845D01*
X-1484654Y964048D01*
X-1490874Y953275D01*
X-1494093Y941260D01*
Y928820D01*
X-1490874Y916804D01*
X-1484654Y906031D01*
X-1475858Y897235D01*
X-1465085Y891015D01*
X-1453069Y887796D01*
X-1440630D01*
X-1428614Y891015D01*
X-1417841Y897235D01*
X-1409045Y906031D01*
X-1402825Y916804D01*
X-1399605Y928820D01*
Y941260D01*
X-1402825Y953275D01*
X-1409045Y964048D01*
X-1417841Y972845D01*
X-1428614Y979064D01*
X-1440630Y982284D01*
D02*
G37*
G36*
X1108045Y894686D02*
X1098647D01*
X1089965Y891090D01*
X1083320Y884445D01*
X1079724Y875763D01*
Y866365D01*
X1083320Y857683D01*
X1089965Y851038D01*
X1098647Y847442D01*
X1108045D01*
X1116727Y851038D01*
X1123372Y857683D01*
X1126968Y866365D01*
Y875763D01*
X1123372Y884445D01*
X1116727Y891090D01*
X1108045Y894686D01*
D02*
G37*
G36*
X281273D02*
X271875D01*
X263193Y891090D01*
X256548Y884445D01*
X252952Y875763D01*
Y866365D01*
X256548Y857683D01*
X263193Y851038D01*
X271875Y847442D01*
X281273D01*
X289955Y851038D01*
X296600Y857683D01*
X300196Y866365D01*
Y875763D01*
X296600Y884445D01*
X289955Y891090D01*
X281273Y894686D01*
D02*
G37*
G36*
X-545499D02*
X-554896D01*
X-563578Y891090D01*
X-570223Y884445D01*
X-573820Y875763D01*
Y866365D01*
X-570223Y857683D01*
X-563578Y851038D01*
X-554896Y847442D01*
X-545499D01*
X-536817Y851038D01*
X-530172Y857683D01*
X-526576Y866365D01*
Y875763D01*
X-530172Y884445D01*
X-536817Y891090D01*
X-545499Y894686D01*
D02*
G37*
G36*
X-1372271D02*
X-1381668D01*
X-1390350Y891090D01*
X-1396995Y884445D01*
X-1400591Y875763D01*
Y866365D01*
X-1396995Y857683D01*
X-1390350Y851038D01*
X-1381668Y847442D01*
X-1372271D01*
X-1363589Y851038D01*
X-1356944Y857683D01*
X-1353347Y866365D01*
Y875763D01*
X-1356944Y884445D01*
X-1363589Y891090D01*
X-1372271Y894686D01*
D02*
G37*
G36*
X0Y901945D02*
X-14666Y900501D01*
X-28768Y896223D01*
X-41764Y889276D01*
X-53156Y879927D01*
X-62505Y868536D01*
X-69451Y855539D01*
X-73729Y841437D01*
X-75174Y826772D01*
X-73729Y812106D01*
X-69451Y798004D01*
X-62505Y785007D01*
X-53156Y773616D01*
X-41764Y764267D01*
X-28768Y757320D01*
X-14666Y753042D01*
X0Y751598D01*
X14666Y753042D01*
X28768Y757320D01*
X41764Y764267D01*
X53156Y773616D01*
X62505Y785007D01*
X69451Y798004D01*
X73729Y812106D01*
X75174Y826772D01*
X73729Y841437D01*
X69451Y855539D01*
X62505Y868536D01*
X53156Y879927D01*
X41764Y889276D01*
X28768Y896223D01*
X14666Y900501D01*
X0Y901945D01*
D02*
G37*
G36*
X1278464Y724654D02*
X1269066D01*
X1260384Y721058D01*
X1253739Y714413D01*
X1250143Y705731D01*
Y696333D01*
X1253739Y687651D01*
X1260384Y681006D01*
X1269066Y677410D01*
X1278464D01*
X1287146Y681006D01*
X1293791Y687651D01*
X1297387Y696333D01*
Y705731D01*
X1293791Y714413D01*
X1287146Y721058D01*
X1278464Y724654D01*
D02*
G37*
G36*
X1214464D02*
X1205066D01*
X1196384Y721058D01*
X1189739Y714413D01*
X1186143Y705731D01*
Y696333D01*
X1189739Y687651D01*
X1196384Y681006D01*
X1205066Y677410D01*
X1214464D01*
X1223146Y681006D01*
X1229791Y687651D01*
X1233387Y696333D01*
Y705731D01*
X1229791Y714413D01*
X1223146Y721058D01*
X1214464Y724654D01*
D02*
G37*
G36*
X451690D02*
X442293D01*
X433611Y721058D01*
X426966Y714413D01*
X423370Y705731D01*
Y696333D01*
X426966Y687651D01*
X433611Y681006D01*
X442293Y677410D01*
X451690D01*
X460372Y681006D01*
X467017Y687651D01*
X470614Y696333D01*
Y705731D01*
X467017Y714413D01*
X460372Y721058D01*
X451690Y724654D01*
D02*
G37*
G36*
X387690D02*
X378293D01*
X369611Y721058D01*
X362966Y714413D01*
X359370Y705731D01*
Y696333D01*
X362966Y687651D01*
X369611Y681006D01*
X378293Y677410D01*
X387690D01*
X396372Y681006D01*
X403017Y687651D01*
X406614Y696333D01*
Y705731D01*
X403017Y714413D01*
X396372Y721058D01*
X387690Y724654D01*
D02*
G37*
G36*
X-375081D02*
X-384478D01*
X-393161Y721058D01*
X-399806Y714413D01*
X-403402Y705731D01*
Y696333D01*
X-399806Y687651D01*
X-393161Y681006D01*
X-384478Y677410D01*
X-375081D01*
X-366399Y681006D01*
X-359754Y687651D01*
X-356158Y696333D01*
Y705731D01*
X-359754Y714413D01*
X-366399Y721058D01*
X-375081Y724654D01*
D02*
G37*
G36*
X-439081D02*
X-448478D01*
X-457161Y721058D01*
X-463806Y714413D01*
X-467402Y705731D01*
Y696333D01*
X-463806Y687651D01*
X-457161Y681006D01*
X-448478Y677410D01*
X-439081D01*
X-430399Y681006D01*
X-423754Y687651D01*
X-420158Y696333D01*
Y705731D01*
X-423754Y714413D01*
X-430399Y721058D01*
X-439081Y724654D01*
D02*
G37*
G36*
X-1201852D02*
X-1211250D01*
X-1219932Y721058D01*
X-1226577Y714413D01*
X-1230173Y705731D01*
Y696333D01*
X-1226577Y687651D01*
X-1219932Y681006D01*
X-1211250Y677410D01*
X-1201852D01*
X-1193170Y681006D01*
X-1186525Y687651D01*
X-1182929Y696333D01*
Y705731D01*
X-1186525Y714413D01*
X-1193170Y721058D01*
X-1201852Y724654D01*
D02*
G37*
G36*
X-1265852D02*
X-1275250D01*
X-1283932Y721058D01*
X-1290577Y714413D01*
X-1294173Y705731D01*
Y696333D01*
X-1290577Y687651D01*
X-1283932Y681006D01*
X-1275250Y677410D01*
X-1265852D01*
X-1257170Y681006D01*
X-1250525Y687651D01*
X-1246929Y696333D01*
Y705731D01*
X-1250525Y714413D01*
X-1257170Y721058D01*
X-1265852Y724654D01*
D02*
G37*
G36*
X1453070Y765748D02*
X1440631D01*
X1428615Y762528D01*
X1417842Y756308D01*
X1409046Y747512D01*
X1402826Y736739D01*
X1399607Y724724D01*
Y712284D01*
X1402826Y700268D01*
X1409046Y689495D01*
X1417842Y680699D01*
X1428615Y674479D01*
X1440631Y671260D01*
X1453070D01*
X1465086Y674479D01*
X1475859Y680699D01*
X1484655Y689495D01*
X1490875Y700268D01*
X1494095Y712284D01*
Y724724D01*
X1490875Y736739D01*
X1484655Y747512D01*
X1475859Y756308D01*
X1465086Y762528D01*
X1453070Y765748D01*
D02*
G37*
G36*
X1039684D02*
X1027245D01*
X1015229Y762528D01*
X1004456Y756308D01*
X995660Y747512D01*
X989440Y736739D01*
X986221Y724724D01*
Y712284D01*
X989440Y700268D01*
X995660Y689495D01*
X1004456Y680699D01*
X1015229Y674479D01*
X1027245Y671260D01*
X1039684D01*
X1051700Y674479D01*
X1062473Y680699D01*
X1071269Y689495D01*
X1077489Y700268D01*
X1080709Y712284D01*
Y724724D01*
X1077489Y736739D01*
X1071269Y747512D01*
X1062473Y756308D01*
X1051700Y762528D01*
X1039684Y765748D01*
D02*
G37*
G36*
X626298D02*
X613859D01*
X601843Y762528D01*
X591070Y756308D01*
X582274Y747512D01*
X576054Y736739D01*
X572835Y724724D01*
Y712284D01*
X576054Y700268D01*
X582274Y689495D01*
X591070Y680699D01*
X601843Y674479D01*
X613859Y671260D01*
X626298D01*
X638314Y674479D01*
X649087Y680699D01*
X657883Y689495D01*
X664103Y700268D01*
X667323Y712284D01*
Y724724D01*
X664103Y736739D01*
X657883Y747512D01*
X649087Y756308D01*
X638314Y762528D01*
X626298Y765748D01*
D02*
G37*
G36*
X212912D02*
X200473D01*
X188457Y762528D01*
X177684Y756308D01*
X168888Y747512D01*
X162668Y736739D01*
X159448Y724724D01*
Y712284D01*
X162668Y700268D01*
X168888Y689495D01*
X177684Y680699D01*
X188457Y674479D01*
X200473Y671260D01*
X212912D01*
X224928Y674479D01*
X235701Y680699D01*
X244497Y689495D01*
X250717Y700268D01*
X253937Y712284D01*
Y724724D01*
X250717Y736739D01*
X244497Y747512D01*
X235701Y756308D01*
X224928Y762528D01*
X212912Y765748D01*
D02*
G37*
G36*
X-200474D02*
X-212913D01*
X-224929Y762528D01*
X-235702Y756308D01*
X-244498Y747512D01*
X-250718Y736739D01*
X-253938Y724724D01*
Y712284D01*
X-250718Y700268D01*
X-244498Y689495D01*
X-235702Y680699D01*
X-224929Y674479D01*
X-212913Y671260D01*
X-200474D01*
X-188458Y674479D01*
X-177685Y680699D01*
X-168889Y689495D01*
X-162669Y700268D01*
X-159449Y712284D01*
Y724724D01*
X-162669Y736739D01*
X-168889Y747512D01*
X-177685Y756308D01*
X-188458Y762528D01*
X-200474Y765748D01*
D02*
G37*
G36*
X-613860D02*
X-626299D01*
X-638315Y762528D01*
X-649088Y756308D01*
X-657884Y747512D01*
X-664104Y736739D01*
X-667323Y724724D01*
Y712284D01*
X-664104Y700268D01*
X-657884Y689495D01*
X-649088Y680699D01*
X-638315Y674479D01*
X-626299Y671260D01*
X-613860D01*
X-601844Y674479D01*
X-591071Y680699D01*
X-582275Y689495D01*
X-576055Y700268D01*
X-572835Y712284D01*
Y724724D01*
X-576055Y736739D01*
X-582275Y747512D01*
X-591071Y756308D01*
X-601844Y762528D01*
X-613860Y765748D01*
D02*
G37*
G36*
X-1027246D02*
X-1039685D01*
X-1051701Y762528D01*
X-1062474Y756308D01*
X-1071270Y747512D01*
X-1077490Y736739D01*
X-1080709Y724724D01*
Y712284D01*
X-1077490Y700268D01*
X-1071270Y689495D01*
X-1062474Y680699D01*
X-1051701Y674479D01*
X-1039685Y671260D01*
X-1027246D01*
X-1015230Y674479D01*
X-1004457Y680699D01*
X-995661Y689495D01*
X-989441Y700268D01*
X-986221Y712284D01*
Y724724D01*
X-989441Y736739D01*
X-995661Y747512D01*
X-1004457Y756308D01*
X-1015230Y762528D01*
X-1027246Y765748D01*
D02*
G37*
G36*
X-1440630D02*
X-1453069D01*
X-1465085Y762528D01*
X-1475858Y756308D01*
X-1484654Y747512D01*
X-1490874Y736739D01*
X-1494093Y724724D01*
Y712284D01*
X-1490874Y700268D01*
X-1484654Y689495D01*
X-1475858Y680699D01*
X-1465085Y674479D01*
X-1453069Y671260D01*
X-1440630D01*
X-1428614Y674479D01*
X-1417841Y680699D01*
X-1409045Y689495D01*
X-1402825Y700268D01*
X-1399605Y712284D01*
Y724724D01*
X-1402825Y736739D01*
X-1409045Y747512D01*
X-1417841Y756308D01*
X-1428614Y762528D01*
X-1440630Y765748D01*
D02*
G37*
G36*
X1278464Y667654D02*
X1269066D01*
X1260384Y664058D01*
X1253739Y657413D01*
X1250143Y648731D01*
Y639333D01*
X1253739Y630651D01*
X1260384Y624006D01*
X1269066Y620410D01*
X1278464D01*
X1287146Y624006D01*
X1293791Y630651D01*
X1297387Y639333D01*
Y648731D01*
X1293791Y657413D01*
X1287146Y664058D01*
X1278464Y667654D01*
D02*
G37*
G36*
X1214464D02*
X1205066D01*
X1196384Y664058D01*
X1189739Y657413D01*
X1186143Y648731D01*
Y639333D01*
X1189739Y630651D01*
X1196384Y624006D01*
X1205066Y620410D01*
X1214464D01*
X1223146Y624006D01*
X1229791Y630651D01*
X1233387Y639333D01*
Y648731D01*
X1229791Y657413D01*
X1223146Y664058D01*
X1214464Y667654D01*
D02*
G37*
G36*
X451690D02*
X442293D01*
X433611Y664058D01*
X426966Y657413D01*
X423370Y648731D01*
Y639333D01*
X426966Y630651D01*
X433611Y624006D01*
X442293Y620410D01*
X451690D01*
X460372Y624006D01*
X467017Y630651D01*
X470614Y639333D01*
Y648731D01*
X467017Y657413D01*
X460372Y664058D01*
X451690Y667654D01*
D02*
G37*
G36*
X387690D02*
X378293D01*
X369611Y664058D01*
X362966Y657413D01*
X359370Y648731D01*
Y639333D01*
X362966Y630651D01*
X369611Y624006D01*
X378293Y620410D01*
X387690D01*
X396372Y624006D01*
X403017Y630651D01*
X406614Y639333D01*
Y648731D01*
X403017Y657413D01*
X396372Y664058D01*
X387690Y667654D01*
D02*
G37*
G36*
X-375081D02*
X-384478D01*
X-393161Y664058D01*
X-399806Y657413D01*
X-403402Y648731D01*
Y639333D01*
X-399806Y630651D01*
X-393161Y624006D01*
X-384478Y620410D01*
X-375081D01*
X-366399Y624006D01*
X-359754Y630651D01*
X-356158Y639333D01*
Y648731D01*
X-359754Y657413D01*
X-366399Y664058D01*
X-375081Y667654D01*
D02*
G37*
G36*
X-439081D02*
X-448478D01*
X-457161Y664058D01*
X-463806Y657413D01*
X-467402Y648731D01*
Y639333D01*
X-463806Y630651D01*
X-457161Y624006D01*
X-448478Y620410D01*
X-439081D01*
X-430399Y624006D01*
X-423754Y630651D01*
X-420158Y639333D01*
Y648731D01*
X-423754Y657413D01*
X-430399Y664058D01*
X-439081Y667654D01*
D02*
G37*
G36*
X-1201852D02*
X-1211250D01*
X-1219932Y664058D01*
X-1226577Y657413D01*
X-1230173Y648731D01*
Y639333D01*
X-1226577Y630651D01*
X-1219932Y624006D01*
X-1211250Y620410D01*
X-1201852D01*
X-1193170Y624006D01*
X-1186525Y630651D01*
X-1182929Y639333D01*
Y648731D01*
X-1186525Y657413D01*
X-1193170Y664058D01*
X-1201852Y667654D01*
D02*
G37*
G36*
X-1265852D02*
X-1275250D01*
X-1283932Y664058D01*
X-1290577Y657413D01*
X-1294173Y648731D01*
Y639333D01*
X-1290577Y630651D01*
X-1283932Y624006D01*
X-1275250Y620410D01*
X-1265852D01*
X-1257170Y624006D01*
X-1250525Y630651D01*
X-1246929Y639333D01*
Y648731D01*
X-1250525Y657413D01*
X-1257170Y664058D01*
X-1265852Y667654D01*
D02*
G37*
G36*
X1027337Y627953D02*
X1017939D01*
X1009257Y624356D01*
X1002612Y617712D01*
X999016Y609029D01*
Y599632D01*
X1002612Y590950D01*
X1009257Y584305D01*
X1017939Y580709D01*
X1027337D01*
X1036019Y584305D01*
X1042664Y590950D01*
X1046260Y599632D01*
Y609029D01*
X1042664Y617712D01*
X1036019Y624356D01*
X1027337Y627953D01*
D02*
G37*
G36*
X-626207D02*
X-635604D01*
X-644286Y624356D01*
X-650931Y617712D01*
X-654528Y609029D01*
Y599632D01*
X-650931Y590950D01*
X-644286Y584305D01*
X-635604Y580709D01*
X-626207D01*
X-617525Y584305D01*
X-610880Y590950D01*
X-607284Y599632D01*
Y609029D01*
X-610880Y617712D01*
X-617525Y624356D01*
X-626207Y627953D01*
D02*
G37*
G36*
X1453070Y568898D02*
X1440631D01*
X1428615Y565678D01*
X1417842Y559458D01*
X1409046Y550662D01*
X1402826Y539889D01*
X1399607Y527874D01*
Y515434D01*
X1402826Y503418D01*
X1409046Y492645D01*
X1417842Y483849D01*
X1428615Y477629D01*
X1440631Y474410D01*
X1453070D01*
X1465086Y477629D01*
X1475859Y483849D01*
X1484655Y492645D01*
X1490875Y503418D01*
X1494095Y515434D01*
Y527874D01*
X1490875Y539889D01*
X1484655Y550662D01*
X1475859Y559458D01*
X1465086Y565678D01*
X1453070Y568898D01*
D02*
G37*
G36*
X1039684D02*
X1027245D01*
X1015229Y565678D01*
X1004456Y559458D01*
X995660Y550662D01*
X989440Y539889D01*
X986221Y527874D01*
Y515434D01*
X989440Y503418D01*
X995660Y492645D01*
X1004456Y483849D01*
X1015229Y477629D01*
X1027245Y474410D01*
X1039684D01*
X1051700Y477629D01*
X1062473Y483849D01*
X1071269Y492645D01*
X1077489Y503418D01*
X1080709Y515434D01*
Y527874D01*
X1077489Y539889D01*
X1071269Y550662D01*
X1062473Y559458D01*
X1051700Y565678D01*
X1039684Y568898D01*
D02*
G37*
G36*
X624778Y614173D02*
X615380D01*
X606698Y610577D01*
X600053Y603932D01*
X596457Y595250D01*
Y585852D01*
X600053Y577170D01*
X605412Y571811D01*
X604567Y566408D01*
X601843Y565678D01*
X591070Y559458D01*
X582274Y550662D01*
X576054Y539889D01*
X572835Y527874D01*
Y515434D01*
X576054Y503418D01*
X582274Y492645D01*
X591070Y483849D01*
X601843Y477629D01*
X613859Y474410D01*
X626298D01*
X638314Y477629D01*
X649087Y483849D01*
X657883Y492645D01*
X664103Y503418D01*
X667323Y515434D01*
Y527874D01*
X664103Y539889D01*
X657883Y550662D01*
X649087Y559458D01*
X638314Y565678D01*
X635591Y566408D01*
X634745Y571811D01*
X640105Y577170D01*
X643701Y585852D01*
Y595250D01*
X640105Y603932D01*
X633460Y610577D01*
X624778Y614173D01*
D02*
G37*
G36*
X212912Y568898D02*
X200473D01*
X188457Y565678D01*
X177684Y559458D01*
X168888Y550662D01*
X162668Y539889D01*
X159448Y527874D01*
Y515434D01*
X162668Y503418D01*
X168888Y492645D01*
X177684Y483849D01*
X188457Y477629D01*
X200473Y474410D01*
X212912D01*
X224928Y477629D01*
X235701Y483849D01*
X244497Y492645D01*
X250717Y503418D01*
X253937Y515434D01*
Y527874D01*
X250717Y539889D01*
X244497Y550662D01*
X235701Y559458D01*
X224928Y565678D01*
X212912Y568898D01*
D02*
G37*
G36*
X-200474D02*
X-212913D01*
X-224929Y565678D01*
X-235702Y559458D01*
X-244498Y550662D01*
X-250718Y539889D01*
X-253938Y527874D01*
Y515434D01*
X-250718Y503418D01*
X-244498Y492645D01*
X-235702Y483849D01*
X-224929Y477629D01*
X-212913Y474410D01*
X-200474D01*
X-188458Y477629D01*
X-177685Y483849D01*
X-168889Y492645D01*
X-162669Y503418D01*
X-159449Y515434D01*
Y527874D01*
X-162669Y539889D01*
X-168889Y550662D01*
X-177685Y559458D01*
X-188458Y565678D01*
X-200474Y568898D01*
D02*
G37*
G36*
X-613860D02*
X-626299D01*
X-638315Y565678D01*
X-649088Y559458D01*
X-657884Y550662D01*
X-664104Y539889D01*
X-667323Y527874D01*
Y515434D01*
X-664104Y503418D01*
X-657884Y492645D01*
X-649088Y483849D01*
X-638315Y477629D01*
X-626299Y474410D01*
X-613860D01*
X-601844Y477629D01*
X-591071Y483849D01*
X-582275Y492645D01*
X-576055Y503418D01*
X-572835Y515434D01*
Y527874D01*
X-576055Y539889D01*
X-582275Y550662D01*
X-591071Y559458D01*
X-601844Y565678D01*
X-613860Y568898D01*
D02*
G37*
G36*
X-1028766Y614173D02*
X-1038163D01*
X-1046845Y610577D01*
X-1053490Y603932D01*
X-1057087Y595250D01*
Y585852D01*
X-1053490Y577170D01*
X-1048131Y571811D01*
X-1048977Y566408D01*
X-1051701Y565678D01*
X-1062474Y559458D01*
X-1071270Y550662D01*
X-1077490Y539889D01*
X-1080709Y527874D01*
Y515434D01*
X-1077490Y503418D01*
X-1071270Y492645D01*
X-1062474Y483849D01*
X-1051701Y477629D01*
X-1039685Y474410D01*
X-1027246D01*
X-1015230Y477629D01*
X-1004457Y483849D01*
X-995661Y492645D01*
X-989441Y503418D01*
X-986221Y515434D01*
Y527874D01*
X-989441Y539889D01*
X-995661Y550662D01*
X-1004457Y559458D01*
X-1015230Y565678D01*
X-1017953Y566408D01*
X-1018798Y571811D01*
X-1013439Y577170D01*
X-1009843Y585852D01*
Y595250D01*
X-1013439Y603932D01*
X-1020084Y610577D01*
X-1028766Y614173D01*
D02*
G37*
G36*
X-1440630Y568898D02*
X-1453069D01*
X-1465085Y565678D01*
X-1475858Y559458D01*
X-1484654Y550662D01*
X-1490874Y539889D01*
X-1494093Y527874D01*
Y515434D01*
X-1490874Y503418D01*
X-1484654Y492645D01*
X-1475858Y483849D01*
X-1465085Y477629D01*
X-1453069Y474410D01*
X-1440630D01*
X-1428614Y477629D01*
X-1417841Y483849D01*
X-1409045Y492645D01*
X-1402825Y503418D01*
X-1399605Y515434D01*
Y527874D01*
X-1402825Y539889D01*
X-1409045Y550662D01*
X-1417841Y559458D01*
X-1428614Y565678D01*
X-1440630Y568898D01*
D02*
G37*
G36*
X1108045Y481300D02*
X1098647D01*
X1089965Y477704D01*
X1083320Y471059D01*
X1079724Y462377D01*
Y452979D01*
X1083320Y444297D01*
X1089965Y437652D01*
X1098647Y434056D01*
X1108045D01*
X1116727Y437652D01*
X1123372Y444297D01*
X1126968Y452979D01*
Y462377D01*
X1123372Y471059D01*
X1116727Y477704D01*
X1108045Y481300D01*
D02*
G37*
G36*
X281273D02*
X271875D01*
X263193Y477704D01*
X256548Y471059D01*
X252952Y462377D01*
Y452979D01*
X256548Y444297D01*
X263193Y437652D01*
X271875Y434056D01*
X281273D01*
X289955Y437652D01*
X296600Y444297D01*
X300196Y452979D01*
Y462377D01*
X296600Y471059D01*
X289955Y477704D01*
X281273Y481300D01*
D02*
G37*
G36*
X-545499D02*
X-554896D01*
X-563578Y477704D01*
X-570223Y471059D01*
X-573820Y462377D01*
Y452979D01*
X-570223Y444297D01*
X-563578Y437652D01*
X-554896Y434056D01*
X-545499D01*
X-536817Y437652D01*
X-530172Y444297D01*
X-526576Y452979D01*
Y462377D01*
X-530172Y471059D01*
X-536817Y477704D01*
X-545499Y481300D01*
D02*
G37*
G36*
X-1372271D02*
X-1381668D01*
X-1390350Y477704D01*
X-1396995Y471059D01*
X-1400591Y462377D01*
Y452979D01*
X-1396995Y444297D01*
X-1390350Y437652D01*
X-1381668Y434056D01*
X-1372271D01*
X-1363589Y437652D01*
X-1356944Y444297D01*
X-1353347Y452979D01*
Y462377D01*
X-1356944Y471059D01*
X-1363589Y477704D01*
X-1372271Y481300D01*
D02*
G37*
G36*
X300959Y388779D02*
X291561D01*
X282879Y385183D01*
X276234Y378538D01*
X272638Y369856D01*
Y360459D01*
X276234Y351776D01*
X282879Y345132D01*
X291561Y341535D01*
X300959D01*
X309641Y345132D01*
X316286Y351776D01*
X319882Y360459D01*
Y369856D01*
X316286Y378538D01*
X309641Y385183D01*
X300959Y388779D01*
D02*
G37*
G36*
X-1352585D02*
X-1361982D01*
X-1370664Y385183D01*
X-1377309Y378538D01*
X-1380906Y369856D01*
Y360459D01*
X-1377309Y351776D01*
X-1370664Y345132D01*
X-1361982Y341535D01*
X-1352585D01*
X-1343903Y345132D01*
X-1337258Y351776D01*
X-1333661Y360459D01*
Y369856D01*
X-1337258Y378538D01*
X-1343903Y385183D01*
X-1352585Y388779D01*
D02*
G37*
G36*
X1269463Y363189D02*
X1260065D01*
X1251383Y359592D01*
X1244738Y352947D01*
X1241142Y344265D01*
Y334868D01*
X1244738Y326186D01*
X1251383Y319541D01*
X1260065Y315945D01*
X1268284Y315945D01*
X1269066Y311269D01*
X1265676Y309864D01*
X1260384Y307672D01*
X1253739Y301027D01*
X1250143Y292345D01*
Y282948D01*
X1253739Y274266D01*
X1260384Y267621D01*
X1269066Y264024D01*
X1278464D01*
X1287146Y267621D01*
X1293791Y274266D01*
X1297387Y282948D01*
Y292345D01*
X1293791Y301027D01*
X1287146Y307672D01*
X1278464Y311269D01*
X1270245Y311269D01*
X1269463Y315945D01*
X1272854Y317349D01*
X1278145Y319541D01*
X1284790Y326186D01*
X1288386Y334868D01*
Y344265D01*
X1284790Y352947D01*
X1278145Y359592D01*
X1269463Y363189D01*
D02*
G37*
G36*
X1214464Y311269D02*
X1205066D01*
X1196384Y307672D01*
X1189739Y301027D01*
X1186143Y292345D01*
Y282948D01*
X1189739Y274266D01*
X1196384Y267621D01*
X1205066Y264024D01*
X1214464D01*
X1223146Y267621D01*
X1229791Y274266D01*
X1233387Y282948D01*
Y292345D01*
X1229791Y301027D01*
X1223146Y307672D01*
X1214464Y311269D01*
D02*
G37*
G36*
X451690D02*
X442293D01*
X433611Y307672D01*
X426966Y301027D01*
X423370Y292345D01*
Y282948D01*
X426966Y274266D01*
X433611Y267621D01*
X442293Y264024D01*
X451690D01*
X460372Y267621D01*
X467017Y274266D01*
X470614Y282948D01*
Y292345D01*
X467017Y301027D01*
X460372Y307672D01*
X451690Y311269D01*
D02*
G37*
G36*
X387690D02*
X378293D01*
X369611Y307672D01*
X362966Y301027D01*
X359370Y292345D01*
Y282948D01*
X362966Y274266D01*
X369611Y267621D01*
X378293Y264024D01*
X387690D01*
X396372Y267621D01*
X403017Y274266D01*
X406614Y282948D01*
Y292345D01*
X403017Y301027D01*
X396372Y307672D01*
X387690Y311269D01*
D02*
G37*
G36*
X-384081Y363189D02*
X-393478D01*
X-402160Y359592D01*
X-408805Y352947D01*
X-412401Y344265D01*
Y334868D01*
X-408805Y326186D01*
X-402160Y319541D01*
X-393478Y315945D01*
X-385260Y315945D01*
X-384479Y311269D01*
X-387868Y309864D01*
X-393161Y307672D01*
X-399806Y301027D01*
X-403402Y292345D01*
Y282948D01*
X-399806Y274266D01*
X-393161Y267621D01*
X-384478Y264024D01*
X-375081D01*
X-366399Y267621D01*
X-359754Y274266D01*
X-356158Y282948D01*
Y292345D01*
X-359754Y301027D01*
X-366399Y307672D01*
X-375081Y311269D01*
X-383299Y311269D01*
X-384080Y315945D01*
X-380691Y317349D01*
X-375399Y319541D01*
X-368754Y326186D01*
X-365157Y334868D01*
Y344265D01*
X-368754Y352947D01*
X-375399Y359592D01*
X-384081Y363189D01*
D02*
G37*
G36*
X-439081Y311269D02*
X-448478D01*
X-457161Y307672D01*
X-463806Y301027D01*
X-467402Y292345D01*
Y282948D01*
X-463806Y274266D01*
X-457161Y267621D01*
X-448478Y264024D01*
X-439081D01*
X-430399Y267621D01*
X-423754Y274266D01*
X-420158Y282948D01*
Y292345D01*
X-423754Y301027D01*
X-430399Y307672D01*
X-439081Y311269D01*
D02*
G37*
G36*
X-1201852D02*
X-1211250D01*
X-1219932Y307672D01*
X-1226577Y301027D01*
X-1230173Y292345D01*
Y282948D01*
X-1226577Y274266D01*
X-1219932Y267621D01*
X-1211250Y264024D01*
X-1201852D01*
X-1193170Y267621D01*
X-1186525Y274266D01*
X-1182929Y282948D01*
Y292345D01*
X-1186525Y301027D01*
X-1193170Y307672D01*
X-1201852Y311269D01*
D02*
G37*
G36*
X-1265852D02*
X-1275250D01*
X-1283932Y307672D01*
X-1290577Y301027D01*
X-1294173Y292345D01*
Y282948D01*
X-1290577Y274266D01*
X-1283932Y267621D01*
X-1275250Y264024D01*
X-1265852D01*
X-1257170Y267621D01*
X-1250525Y274266D01*
X-1246929Y282948D01*
Y292345D01*
X-1250525Y301027D01*
X-1257170Y307672D01*
X-1265852Y311269D01*
D02*
G37*
G36*
X1453070Y352362D02*
X1440631D01*
X1428615Y349142D01*
X1417842Y342923D01*
X1409046Y334126D01*
X1402826Y323353D01*
X1399607Y311338D01*
Y298898D01*
X1402826Y286882D01*
X1409046Y276109D01*
X1417842Y267313D01*
X1428615Y261093D01*
X1440631Y257874D01*
X1453070D01*
X1465086Y261093D01*
X1475859Y267313D01*
X1484655Y276109D01*
X1490875Y286882D01*
X1494095Y298898D01*
Y311338D01*
X1490875Y323353D01*
X1484655Y334126D01*
X1475859Y342923D01*
X1465086Y349142D01*
X1453070Y352362D01*
D02*
G37*
G36*
X1039684D02*
X1027245D01*
X1015229Y349142D01*
X1004456Y342923D01*
X995660Y334126D01*
X989440Y323353D01*
X986221Y311338D01*
Y298898D01*
X989440Y286882D01*
X995660Y276109D01*
X1004456Y267313D01*
X1015229Y261093D01*
X1027245Y257874D01*
X1039684D01*
X1051700Y261093D01*
X1062473Y267313D01*
X1071269Y276109D01*
X1077489Y286882D01*
X1080709Y298898D01*
Y311338D01*
X1077489Y323353D01*
X1071269Y334126D01*
X1062473Y342923D01*
X1051700Y349142D01*
X1039684Y352362D01*
D02*
G37*
G36*
X626298D02*
X613859D01*
X601843Y349142D01*
X591070Y342923D01*
X582274Y334126D01*
X576054Y323353D01*
X572835Y311338D01*
Y298898D01*
X576054Y286882D01*
X582274Y276109D01*
X591070Y267313D01*
X601843Y261093D01*
X613859Y257874D01*
X626298D01*
X638314Y261093D01*
X649087Y267313D01*
X657883Y276109D01*
X664103Y286882D01*
X667323Y298898D01*
Y311338D01*
X664103Y323353D01*
X657883Y334126D01*
X649087Y342923D01*
X638314Y349142D01*
X626298Y352362D01*
D02*
G37*
G36*
X212912D02*
X200473D01*
X188457Y349142D01*
X177684Y342923D01*
X168888Y334126D01*
X162668Y323353D01*
X159448Y311338D01*
Y298898D01*
X162668Y286882D01*
X168888Y276109D01*
X177684Y267313D01*
X188457Y261093D01*
X200473Y257874D01*
X212912D01*
X224928Y261093D01*
X235701Y267313D01*
X244497Y276109D01*
X250717Y286882D01*
X253937Y298898D01*
Y311338D01*
X250717Y323353D01*
X244497Y334126D01*
X235701Y342923D01*
X224928Y349142D01*
X212912Y352362D01*
D02*
G37*
G36*
X-200474D02*
X-212913D01*
X-224929Y349142D01*
X-235702Y342923D01*
X-244498Y334126D01*
X-250718Y323353D01*
X-253938Y311338D01*
Y298898D01*
X-250718Y286882D01*
X-244498Y276109D01*
X-235702Y267313D01*
X-224929Y261093D01*
X-212913Y257874D01*
X-200474D01*
X-188458Y261093D01*
X-177685Y267313D01*
X-168889Y276109D01*
X-162669Y286882D01*
X-159449Y298898D01*
Y311338D01*
X-162669Y323353D01*
X-168889Y334126D01*
X-177685Y342923D01*
X-188458Y349142D01*
X-200474Y352362D01*
D02*
G37*
G36*
X-613860D02*
X-626299D01*
X-638315Y349142D01*
X-649088Y342923D01*
X-657884Y334126D01*
X-664104Y323353D01*
X-667323Y311338D01*
Y298898D01*
X-664104Y286882D01*
X-657884Y276109D01*
X-649088Y267313D01*
X-638315Y261093D01*
X-626299Y257874D01*
X-613860D01*
X-601844Y261093D01*
X-591071Y267313D01*
X-582275Y276109D01*
X-576055Y286882D01*
X-572835Y298898D01*
Y311338D01*
X-576055Y323353D01*
X-582275Y334126D01*
X-591071Y342923D01*
X-601844Y349142D01*
X-613860Y352362D01*
D02*
G37*
G36*
X-1027246D02*
X-1039685D01*
X-1051701Y349142D01*
X-1062474Y342923D01*
X-1071270Y334126D01*
X-1077490Y323353D01*
X-1080709Y311338D01*
Y298898D01*
X-1077490Y286882D01*
X-1071270Y276109D01*
X-1062474Y267313D01*
X-1051701Y261093D01*
X-1039685Y257874D01*
X-1027246D01*
X-1015230Y261093D01*
X-1004457Y267313D01*
X-995661Y276109D01*
X-989441Y286882D01*
X-986221Y298898D01*
Y311338D01*
X-989441Y323353D01*
X-995661Y334126D01*
X-1004457Y342923D01*
X-1015230Y349142D01*
X-1027246Y352362D01*
D02*
G37*
G36*
X-1440630D02*
X-1453069D01*
X-1465085Y349142D01*
X-1475858Y342923D01*
X-1484654Y334126D01*
X-1490874Y323353D01*
X-1494093Y311338D01*
Y298898D01*
X-1490874Y286882D01*
X-1484654Y276109D01*
X-1475858Y267313D01*
X-1465085Y261093D01*
X-1453069Y257874D01*
X-1440630D01*
X-1428614Y261093D01*
X-1417841Y267313D01*
X-1409045Y276109D01*
X-1402825Y286882D01*
X-1399605Y298898D01*
Y311338D01*
X-1402825Y323353D01*
X-1409045Y334126D01*
X-1417841Y342923D01*
X-1428614Y349142D01*
X-1440630Y352362D01*
D02*
G37*
G36*
X1278464Y254268D02*
X1269066D01*
X1260384Y250672D01*
X1253739Y244027D01*
X1250143Y235345D01*
Y225948D01*
X1253739Y217266D01*
X1260384Y210621D01*
X1269066Y207024D01*
X1278464D01*
X1287146Y210621D01*
X1293791Y217266D01*
X1297387Y225948D01*
Y235345D01*
X1293791Y244027D01*
X1287146Y250672D01*
X1278464Y254268D01*
D02*
G37*
G36*
X1214464D02*
X1205066D01*
X1196384Y250672D01*
X1189739Y244027D01*
X1186143Y235345D01*
Y225948D01*
X1189739Y217266D01*
X1196384Y210621D01*
X1205066Y207024D01*
X1214464D01*
X1223146Y210621D01*
X1229791Y217266D01*
X1233387Y225948D01*
Y235345D01*
X1229791Y244027D01*
X1223146Y250672D01*
X1214464Y254268D01*
D02*
G37*
G36*
X451690D02*
X442293D01*
X433611Y250672D01*
X426966Y244027D01*
X423370Y235345D01*
Y225948D01*
X426966Y217266D01*
X433611Y210621D01*
X442293Y207024D01*
X451690D01*
X460372Y210621D01*
X467017Y217266D01*
X470614Y225948D01*
Y235345D01*
X467017Y244027D01*
X460372Y250672D01*
X451690Y254268D01*
D02*
G37*
G36*
X387690D02*
X378293D01*
X369611Y250672D01*
X362966Y244027D01*
X359370Y235345D01*
Y225948D01*
X362966Y217266D01*
X369611Y210621D01*
X378293Y207024D01*
X387690D01*
X396372Y210621D01*
X403017Y217266D01*
X406614Y225948D01*
Y235345D01*
X403017Y244027D01*
X396372Y250672D01*
X387690Y254268D01*
D02*
G37*
G36*
X-375081D02*
X-384478D01*
X-393161Y250672D01*
X-399806Y244027D01*
X-403402Y235345D01*
Y225948D01*
X-399806Y217266D01*
X-393161Y210621D01*
X-384478Y207024D01*
X-375081D01*
X-366399Y210621D01*
X-359754Y217266D01*
X-356158Y225948D01*
Y235345D01*
X-359754Y244027D01*
X-366399Y250672D01*
X-375081Y254268D01*
D02*
G37*
G36*
X-439081D02*
X-448478D01*
X-457161Y250672D01*
X-463806Y244027D01*
X-467402Y235345D01*
Y225948D01*
X-463806Y217266D01*
X-457161Y210621D01*
X-448478Y207024D01*
X-439081D01*
X-430399Y210621D01*
X-423754Y217266D01*
X-420158Y225948D01*
Y235345D01*
X-423754Y244027D01*
X-430399Y250672D01*
X-439081Y254268D01*
D02*
G37*
G36*
X-1201852D02*
X-1211250D01*
X-1219932Y250672D01*
X-1226577Y244027D01*
X-1230173Y235345D01*
Y225948D01*
X-1226577Y217266D01*
X-1219932Y210621D01*
X-1211250Y207024D01*
X-1201852D01*
X-1193170Y210621D01*
X-1186525Y217266D01*
X-1182929Y225948D01*
Y235345D01*
X-1186525Y244027D01*
X-1193170Y250672D01*
X-1201852Y254268D01*
D02*
G37*
G36*
X-1265852D02*
X-1275250D01*
X-1283932Y250672D01*
X-1290577Y244027D01*
X-1294173Y235345D01*
Y225948D01*
X-1290577Y217266D01*
X-1283932Y210621D01*
X-1275250Y207024D01*
X-1265852D01*
X-1257170Y210621D01*
X-1250525Y217266D01*
X-1246929Y225948D01*
Y235345D01*
X-1250525Y244027D01*
X-1257170Y250672D01*
X-1265852Y254268D01*
D02*
G37*
G36*
X1453070Y155512D02*
X1440631D01*
X1428615Y152292D01*
X1417842Y146072D01*
X1409046Y137276D01*
X1402826Y126503D01*
X1399607Y114488D01*
Y102048D01*
X1402826Y90032D01*
X1409046Y79259D01*
X1417842Y70463D01*
X1428615Y64243D01*
X1440631Y61024D01*
X1453070D01*
X1465086Y64243D01*
X1475859Y70463D01*
X1484655Y79259D01*
X1490875Y90032D01*
X1494095Y102048D01*
Y114488D01*
X1490875Y126503D01*
X1484655Y137276D01*
X1475859Y146072D01*
X1465086Y152292D01*
X1453070Y155512D01*
D02*
G37*
G36*
X1039684D02*
X1027245D01*
X1015229Y152292D01*
X1004456Y146072D01*
X995660Y137276D01*
X989440Y126503D01*
X986221Y114488D01*
Y102048D01*
X989440Y90032D01*
X995660Y79259D01*
X1004456Y70463D01*
X1015229Y64243D01*
X1027245Y61024D01*
X1039684D01*
X1051700Y64243D01*
X1062473Y70463D01*
X1071269Y79259D01*
X1077489Y90032D01*
X1080709Y102048D01*
Y114488D01*
X1077489Y126503D01*
X1071269Y137276D01*
X1062473Y146072D01*
X1051700Y152292D01*
X1039684Y155512D01*
D02*
G37*
G36*
X626298D02*
X613859D01*
X601843Y152292D01*
X591070Y146072D01*
X582274Y137276D01*
X576054Y126503D01*
X572835Y114488D01*
Y102048D01*
X576054Y90032D01*
X582274Y79259D01*
X591070Y70463D01*
X601843Y64243D01*
X613859Y61024D01*
X626298D01*
X638314Y64243D01*
X649087Y70463D01*
X657883Y79259D01*
X664103Y90032D01*
X667323Y102048D01*
Y114488D01*
X664103Y126503D01*
X657883Y137276D01*
X649087Y146072D01*
X638314Y152292D01*
X626298Y155512D01*
D02*
G37*
G36*
X212912D02*
X200473D01*
X188457Y152292D01*
X177684Y146072D01*
X168888Y137276D01*
X162668Y126503D01*
X159448Y114488D01*
Y102048D01*
X162668Y90032D01*
X168888Y79259D01*
X177684Y70463D01*
X188457Y64243D01*
X200473Y61024D01*
X212912D01*
X224928Y64243D01*
X235701Y70463D01*
X244497Y79259D01*
X250717Y90032D01*
X253937Y102048D01*
Y114488D01*
X250717Y126503D01*
X244497Y137276D01*
X235701Y146072D01*
X224928Y152292D01*
X212912Y155512D01*
D02*
G37*
G36*
X-200474D02*
X-212913D01*
X-224929Y152292D01*
X-235702Y146072D01*
X-244498Y137276D01*
X-250718Y126503D01*
X-253938Y114488D01*
Y102048D01*
X-250718Y90032D01*
X-244498Y79259D01*
X-235702Y70463D01*
X-224929Y64243D01*
X-212913Y61024D01*
X-200474D01*
X-188458Y64243D01*
X-177685Y70463D01*
X-168889Y79259D01*
X-162669Y90032D01*
X-159449Y102048D01*
Y114488D01*
X-162669Y126503D01*
X-168889Y137276D01*
X-177685Y146072D01*
X-188458Y152292D01*
X-200474Y155512D01*
D02*
G37*
G36*
X-613860D02*
X-626299D01*
X-638315Y152292D01*
X-649088Y146072D01*
X-657884Y137276D01*
X-664104Y126503D01*
X-667323Y114488D01*
Y102048D01*
X-664104Y90032D01*
X-657884Y79259D01*
X-649088Y70463D01*
X-638315Y64243D01*
X-626299Y61024D01*
X-613860D01*
X-601844Y64243D01*
X-591071Y70463D01*
X-582275Y79259D01*
X-576055Y90032D01*
X-572835Y102048D01*
Y114488D01*
X-576055Y126503D01*
X-582275Y137276D01*
X-591071Y146072D01*
X-601844Y152292D01*
X-613860Y155512D01*
D02*
G37*
G36*
X-1027246D02*
X-1039685D01*
X-1051701Y152292D01*
X-1062474Y146072D01*
X-1071270Y137276D01*
X-1077490Y126503D01*
X-1080709Y114488D01*
Y102048D01*
X-1077490Y90032D01*
X-1071270Y79259D01*
X-1062474Y70463D01*
X-1051701Y64243D01*
X-1039685Y61024D01*
X-1027246D01*
X-1015230Y64243D01*
X-1004457Y70463D01*
X-995661Y79259D01*
X-989441Y90032D01*
X-986221Y102048D01*
Y114488D01*
X-989441Y126503D01*
X-995661Y137276D01*
X-1004457Y146072D01*
X-1015230Y152292D01*
X-1027246Y155512D01*
D02*
G37*
G36*
X-1440630D02*
X-1453069D01*
X-1465085Y152292D01*
X-1475858Y146072D01*
X-1484654Y137276D01*
X-1490874Y126503D01*
X-1494093Y114488D01*
Y102048D01*
X-1490874Y90032D01*
X-1484654Y79259D01*
X-1475858Y70463D01*
X-1465085Y64243D01*
X-1453069Y61024D01*
X-1440630D01*
X-1428614Y64243D01*
X-1417841Y70463D01*
X-1409045Y79259D01*
X-1402825Y90032D01*
X-1399605Y102048D01*
Y114488D01*
X-1402825Y126503D01*
X-1409045Y137276D01*
X-1417841Y146072D01*
X-1428614Y152292D01*
X-1440630Y155512D01*
D02*
G37*
G36*
X1108045Y67914D02*
X1098647D01*
X1089965Y64318D01*
X1083320Y57673D01*
X1079724Y48991D01*
Y39593D01*
X1083320Y30911D01*
X1089965Y24266D01*
X1098647Y20670D01*
X1108045D01*
X1116727Y24266D01*
X1123372Y30911D01*
X1126968Y39593D01*
Y48991D01*
X1123372Y57673D01*
X1116727Y64318D01*
X1108045Y67914D01*
D02*
G37*
G36*
X281273D02*
X271875D01*
X263193Y64318D01*
X256548Y57673D01*
X252952Y48991D01*
Y39593D01*
X256548Y30911D01*
X263193Y24266D01*
X271875Y20670D01*
X281273D01*
X289955Y24266D01*
X296600Y30911D01*
X300196Y39593D01*
Y48991D01*
X296600Y57673D01*
X289955Y64318D01*
X281273Y67914D01*
D02*
G37*
G36*
X-545499D02*
X-554896D01*
X-563578Y64318D01*
X-570223Y57673D01*
X-573820Y48991D01*
Y39593D01*
X-570223Y30911D01*
X-563578Y24266D01*
X-554896Y20670D01*
X-545499D01*
X-536817Y24266D01*
X-530172Y30911D01*
X-526576Y39593D01*
Y48991D01*
X-530172Y57673D01*
X-536817Y64318D01*
X-545499Y67914D01*
D02*
G37*
G36*
X-1372271D02*
X-1381668D01*
X-1390350Y64318D01*
X-1396995Y57673D01*
X-1400591Y48991D01*
Y39593D01*
X-1396995Y30911D01*
X-1390350Y24266D01*
X-1381668Y20670D01*
X-1372271D01*
X-1363589Y24266D01*
X-1356944Y30911D01*
X-1353347Y39593D01*
Y48991D01*
X-1356944Y57673D01*
X-1363589Y64318D01*
X-1372271Y67914D01*
D02*
G37*
G36*
X1127731Y-24607D02*
X1118333D01*
X1109651Y-28203D01*
X1103006Y-34848D01*
X1099410Y-43530D01*
Y-52927D01*
X1103006Y-61609D01*
X1109651Y-68254D01*
X1118333Y-71851D01*
X1127731D01*
X1136413Y-68254D01*
X1143058Y-61609D01*
X1146654Y-52927D01*
Y-43530D01*
X1143058Y-34848D01*
X1136413Y-28203D01*
X1127731Y-24607D01*
D02*
G37*
G36*
X300959D02*
X291561D01*
X282879Y-28203D01*
X276234Y-34848D01*
X272638Y-43530D01*
Y-52927D01*
X276234Y-61609D01*
X282879Y-68254D01*
X291561Y-71851D01*
X300959D01*
X309641Y-68254D01*
X316286Y-61609D01*
X319882Y-52927D01*
Y-43530D01*
X316286Y-34848D01*
X309641Y-28203D01*
X300959Y-24607D01*
D02*
G37*
G36*
X-525813D02*
X-535210D01*
X-543893Y-28203D01*
X-550538Y-34848D01*
X-554134Y-43530D01*
Y-52927D01*
X-550538Y-61609D01*
X-543893Y-68254D01*
X-535210Y-71851D01*
X-525813D01*
X-517131Y-68254D01*
X-510486Y-61609D01*
X-506890Y-52927D01*
Y-43530D01*
X-510486Y-34848D01*
X-517131Y-28203D01*
X-525813Y-24607D01*
D02*
G37*
G36*
X-1352585D02*
X-1361982D01*
X-1370664Y-28203D01*
X-1377309Y-34848D01*
X-1380906Y-43530D01*
Y-52927D01*
X-1377309Y-61609D01*
X-1370664Y-68254D01*
X-1361982Y-71851D01*
X-1352585D01*
X-1343903Y-68254D01*
X-1337258Y-61609D01*
X-1333661Y-52927D01*
Y-43530D01*
X-1337258Y-34848D01*
X-1343903Y-28203D01*
X-1352585Y-24607D01*
D02*
G37*
G36*
X826772Y75174D02*
X812106Y73729D01*
X798004Y69451D01*
X785007Y62505D01*
X773616Y53156D01*
X764267Y41764D01*
X757320Y28768D01*
X753042Y14666D01*
X751598Y0D01*
X753042Y-14666D01*
X757320Y-28768D01*
X764267Y-41764D01*
X773616Y-53156D01*
X785007Y-62505D01*
X798004Y-69451D01*
X812106Y-73729D01*
X826772Y-75174D01*
X841437Y-73729D01*
X855539Y-69451D01*
X868536Y-62505D01*
X879927Y-53156D01*
X889276Y-41764D01*
X896223Y-28768D01*
X900501Y-14666D01*
X901945Y0D01*
X900501Y14666D01*
X896223Y28768D01*
X889276Y41764D01*
X879927Y53156D01*
X868536Y62505D01*
X855539Y69451D01*
X841437Y73729D01*
X826772Y75174D01*
D02*
G37*
G36*
X0D02*
X-14666Y73729D01*
X-28768Y69451D01*
X-41764Y62505D01*
X-53156Y53156D01*
X-62505Y41764D01*
X-69451Y28768D01*
X-73729Y14666D01*
X-75174Y0D01*
X-73729Y-14666D01*
X-69451Y-28768D01*
X-62505Y-41764D01*
X-53156Y-53156D01*
X-41764Y-62505D01*
X-28768Y-69451D01*
X-14666Y-73729D01*
X0Y-75174D01*
X14666Y-73729D01*
X28768Y-69451D01*
X41764Y-62505D01*
X53156Y-53156D01*
X62505Y-41764D01*
X69451Y-28768D01*
X73729Y-14666D01*
X75174Y0D01*
X73729Y14666D01*
X69451Y28768D01*
X62505Y41764D01*
X53156Y53156D01*
X41764Y62505D01*
X28768Y69451D01*
X14666Y73729D01*
X0Y75174D01*
D02*
G37*
G36*
X-826772D02*
X-841437Y73729D01*
X-855539Y69451D01*
X-868536Y62505D01*
X-879928Y53156D01*
X-889276Y41764D01*
X-896223Y28768D01*
X-900501Y14666D01*
X-901945Y0D01*
X-900501Y-14666D01*
X-896223Y-28768D01*
X-889276Y-41764D01*
X-879928Y-53156D01*
X-868536Y-62505D01*
X-855539Y-69451D01*
X-841437Y-73729D01*
X-826772Y-75174D01*
X-812106Y-73729D01*
X-798004Y-69451D01*
X-785008Y-62505D01*
X-773616Y-53156D01*
X-764267Y-41764D01*
X-757320Y-28768D01*
X-753043Y-14666D01*
X-751598Y0D01*
X-753043Y14666D01*
X-757320Y28768D01*
X-764267Y41764D01*
X-773616Y53156D01*
X-785008Y62505D01*
X-798004Y69451D01*
X-812106Y73729D01*
X-826772Y75174D01*
D02*
G37*
G36*
X1269463Y-50197D02*
X1260065D01*
X1251383Y-53793D01*
X1244738Y-60438D01*
X1241142Y-69121D01*
Y-78518D01*
X1244738Y-87200D01*
X1251383Y-93845D01*
X1260065Y-97441D01*
X1268284Y-97441D01*
X1269066Y-102117D01*
X1265676Y-103522D01*
X1260384Y-105713D01*
X1253739Y-112358D01*
X1250143Y-121040D01*
Y-130438D01*
X1253739Y-139120D01*
X1260384Y-145765D01*
X1269066Y-149361D01*
X1278464D01*
X1287146Y-145765D01*
X1293791Y-139120D01*
X1297387Y-130438D01*
Y-121040D01*
X1293791Y-112358D01*
X1287146Y-105713D01*
X1278464Y-102117D01*
X1270245Y-102117D01*
X1269463Y-97441D01*
X1272853Y-96037D01*
X1278145Y-93845D01*
X1284790Y-87200D01*
X1288386Y-78518D01*
Y-69121D01*
X1284790Y-60438D01*
X1278145Y-53793D01*
X1269463Y-50197D01*
D02*
G37*
G36*
X1214464Y-102117D02*
X1205066D01*
X1196384Y-105713D01*
X1189739Y-112358D01*
X1186143Y-121040D01*
Y-130438D01*
X1189739Y-139120D01*
X1196384Y-145765D01*
X1205066Y-149361D01*
X1214464D01*
X1223146Y-145765D01*
X1229791Y-139120D01*
X1233387Y-130438D01*
Y-121040D01*
X1229791Y-112358D01*
X1223146Y-105713D01*
X1214464Y-102117D01*
D02*
G37*
G36*
X442691Y-50197D02*
X433294D01*
X424612Y-53793D01*
X417967Y-60438D01*
X414370Y-69121D01*
Y-78518D01*
X417967Y-87200D01*
X424612Y-93845D01*
X433294Y-97441D01*
X441510Y-97441D01*
X442293Y-102117D01*
X438904Y-103521D01*
X433611Y-105713D01*
X426966Y-112358D01*
X423370Y-121040D01*
Y-130438D01*
X426966Y-139120D01*
X433611Y-145765D01*
X442293Y-149361D01*
X451690D01*
X460372Y-145765D01*
X467017Y-139120D01*
X470614Y-130438D01*
Y-121040D01*
X467017Y-112358D01*
X460372Y-105713D01*
X451690Y-102117D01*
X443474Y-102117D01*
X442691Y-97441D01*
X446080Y-96037D01*
X451373Y-93845D01*
X458018Y-87200D01*
X461614Y-78518D01*
Y-69121D01*
X458018Y-60438D01*
X451373Y-53793D01*
X442691Y-50197D01*
D02*
G37*
G36*
X387690Y-102117D02*
X378293D01*
X369611Y-105713D01*
X362966Y-112358D01*
X359370Y-121040D01*
Y-130438D01*
X362966Y-139120D01*
X369611Y-145765D01*
X378293Y-149361D01*
X387690D01*
X396372Y-145765D01*
X403017Y-139120D01*
X406614Y-130438D01*
Y-121040D01*
X403017Y-112358D01*
X396372Y-105713D01*
X387690Y-102117D01*
D02*
G37*
G36*
X-384081Y-50197D02*
X-393478D01*
X-402160Y-53793D01*
X-408805Y-60438D01*
X-412401Y-69121D01*
Y-78518D01*
X-408805Y-87200D01*
X-402160Y-93845D01*
X-393478Y-97441D01*
X-385261Y-97441D01*
X-384479Y-102117D01*
X-387868Y-103521D01*
X-393161Y-105713D01*
X-399806Y-112358D01*
X-403402Y-121040D01*
Y-130438D01*
X-399806Y-139120D01*
X-393161Y-145765D01*
X-384478Y-149361D01*
X-375081D01*
X-366399Y-145765D01*
X-359754Y-139120D01*
X-356158Y-130438D01*
Y-121040D01*
X-359754Y-112358D01*
X-366399Y-105713D01*
X-375081Y-102117D01*
X-383298Y-102117D01*
X-384080Y-97441D01*
X-380691Y-96037D01*
X-375399Y-93845D01*
X-368754Y-87200D01*
X-365157Y-78518D01*
Y-69121D01*
X-368754Y-60438D01*
X-375399Y-53793D01*
X-384081Y-50197D01*
D02*
G37*
G36*
X-439081Y-102117D02*
X-448478D01*
X-457161Y-105713D01*
X-463806Y-112358D01*
X-467402Y-121040D01*
Y-130438D01*
X-463806Y-139120D01*
X-457161Y-145765D01*
X-448478Y-149361D01*
X-439081D01*
X-430399Y-145765D01*
X-423754Y-139120D01*
X-420158Y-130438D01*
Y-121040D01*
X-423754Y-112358D01*
X-430399Y-105713D01*
X-439081Y-102117D01*
D02*
G37*
G36*
X-1210852Y-50197D02*
X-1220250D01*
X-1228932Y-53793D01*
X-1235577Y-60438D01*
X-1239173Y-69121D01*
Y-78518D01*
X-1235577Y-87200D01*
X-1228932Y-93845D01*
X-1220250Y-97441D01*
X-1212032Y-97441D01*
X-1211250Y-102117D01*
X-1214640Y-103521D01*
X-1219932Y-105713D01*
X-1226577Y-112358D01*
X-1230173Y-121040D01*
Y-130438D01*
X-1226577Y-139120D01*
X-1219932Y-145765D01*
X-1211250Y-149361D01*
X-1201852D01*
X-1193170Y-145765D01*
X-1186525Y-139120D01*
X-1182929Y-130438D01*
Y-121040D01*
X-1186525Y-112358D01*
X-1193170Y-105713D01*
X-1201852Y-102117D01*
X-1210070Y-102117D01*
X-1210852Y-97441D01*
X-1207463Y-96037D01*
X-1202170Y-93845D01*
X-1195525Y-87200D01*
X-1191929Y-78518D01*
Y-69121D01*
X-1195525Y-60438D01*
X-1202170Y-53793D01*
X-1210852Y-50197D01*
D02*
G37*
G36*
X-1265852Y-102117D02*
X-1275250D01*
X-1283932Y-105713D01*
X-1290577Y-112358D01*
X-1294173Y-121040D01*
Y-130438D01*
X-1290577Y-139120D01*
X-1283932Y-145765D01*
X-1275250Y-149361D01*
X-1265852D01*
X-1257170Y-145765D01*
X-1250525Y-139120D01*
X-1246929Y-130438D01*
Y-121040D01*
X-1250525Y-112358D01*
X-1257170Y-105713D01*
X-1265852Y-102117D01*
D02*
G37*
G36*
X1453070Y-61024D02*
X1440631D01*
X1428615Y-64244D01*
X1417842Y-70463D01*
X1409046Y-79260D01*
X1402826Y-90033D01*
X1399607Y-102048D01*
Y-114488D01*
X1402826Y-126504D01*
X1409046Y-137277D01*
X1417842Y-146073D01*
X1428615Y-152293D01*
X1440631Y-155512D01*
X1453070D01*
X1465086Y-152293D01*
X1475859Y-146073D01*
X1484655Y-137277D01*
X1490875Y-126504D01*
X1494095Y-114488D01*
Y-102048D01*
X1490875Y-90033D01*
X1484655Y-79260D01*
X1475859Y-70463D01*
X1465086Y-64244D01*
X1453070Y-61024D01*
D02*
G37*
G36*
X1039684D02*
X1027245D01*
X1015229Y-64244D01*
X1004456Y-70463D01*
X995660Y-79260D01*
X989440Y-90033D01*
X986221Y-102048D01*
Y-114488D01*
X989440Y-126504D01*
X995660Y-137277D01*
X1004456Y-146073D01*
X1015229Y-152293D01*
X1027245Y-155512D01*
X1039684D01*
X1051700Y-152293D01*
X1062473Y-146073D01*
X1071269Y-137277D01*
X1077489Y-126504D01*
X1080709Y-114488D01*
Y-102048D01*
X1077489Y-90033D01*
X1071269Y-79260D01*
X1062473Y-70463D01*
X1051700Y-64244D01*
X1039684Y-61024D01*
D02*
G37*
G36*
X626298D02*
X613859D01*
X601843Y-64244D01*
X591070Y-70463D01*
X582274Y-79260D01*
X576054Y-90033D01*
X572835Y-102048D01*
Y-114488D01*
X576054Y-126504D01*
X582274Y-137277D01*
X591070Y-146073D01*
X601843Y-152293D01*
X613859Y-155512D01*
X626298D01*
X638314Y-152293D01*
X649087Y-146073D01*
X657883Y-137277D01*
X664103Y-126504D01*
X667323Y-114488D01*
Y-102048D01*
X664103Y-90033D01*
X657883Y-79260D01*
X649087Y-70463D01*
X638314Y-64244D01*
X626298Y-61024D01*
D02*
G37*
G36*
X212912D02*
X200473D01*
X188457Y-64244D01*
X177684Y-70463D01*
X168888Y-79260D01*
X162668Y-90033D01*
X159448Y-102048D01*
Y-114488D01*
X162668Y-126504D01*
X168888Y-137277D01*
X177684Y-146073D01*
X188457Y-152293D01*
X200473Y-155512D01*
X212912D01*
X224928Y-152293D01*
X235701Y-146073D01*
X244497Y-137277D01*
X250717Y-126504D01*
X253937Y-114488D01*
Y-102048D01*
X250717Y-90033D01*
X244497Y-79260D01*
X235701Y-70463D01*
X224928Y-64244D01*
X212912Y-61024D01*
D02*
G37*
G36*
X-200474D02*
X-212913D01*
X-224929Y-64244D01*
X-235702Y-70463D01*
X-244498Y-79260D01*
X-250718Y-90033D01*
X-253938Y-102048D01*
Y-114488D01*
X-250718Y-126504D01*
X-244498Y-137277D01*
X-235702Y-146073D01*
X-224929Y-152293D01*
X-212913Y-155512D01*
X-200474D01*
X-188458Y-152293D01*
X-177685Y-146073D01*
X-168889Y-137277D01*
X-162669Y-126504D01*
X-159449Y-114488D01*
Y-102048D01*
X-162669Y-90033D01*
X-168889Y-79260D01*
X-177685Y-70463D01*
X-188458Y-64244D01*
X-200474Y-61024D01*
D02*
G37*
G36*
X-613860D02*
X-626299D01*
X-638315Y-64244D01*
X-649088Y-70463D01*
X-657884Y-79260D01*
X-664104Y-90033D01*
X-667323Y-102048D01*
Y-114488D01*
X-664104Y-126504D01*
X-657884Y-137277D01*
X-649088Y-146073D01*
X-638315Y-152293D01*
X-626299Y-155512D01*
X-613860D01*
X-601844Y-152293D01*
X-591071Y-146073D01*
X-582275Y-137277D01*
X-576055Y-126504D01*
X-572835Y-114488D01*
Y-102048D01*
X-576055Y-90033D01*
X-582275Y-79260D01*
X-591071Y-70463D01*
X-601844Y-64244D01*
X-613860Y-61024D01*
D02*
G37*
G36*
X-1027246D02*
X-1039685D01*
X-1051701Y-64244D01*
X-1062474Y-70463D01*
X-1071270Y-79260D01*
X-1077490Y-90033D01*
X-1080709Y-102048D01*
Y-114488D01*
X-1077490Y-126504D01*
X-1071270Y-137277D01*
X-1062474Y-146073D01*
X-1051701Y-152293D01*
X-1039685Y-155512D01*
X-1027246D01*
X-1015230Y-152293D01*
X-1004457Y-146073D01*
X-995661Y-137277D01*
X-989441Y-126504D01*
X-986221Y-114488D01*
Y-102048D01*
X-989441Y-90033D01*
X-995661Y-79260D01*
X-1004457Y-70463D01*
X-1015230Y-64244D01*
X-1027246Y-61024D01*
D02*
G37*
G36*
X-1440630D02*
X-1453069D01*
X-1465085Y-64244D01*
X-1475858Y-70463D01*
X-1484654Y-79260D01*
X-1490874Y-90033D01*
X-1494093Y-102048D01*
Y-114488D01*
X-1490874Y-126504D01*
X-1484654Y-137277D01*
X-1475858Y-146073D01*
X-1465085Y-152293D01*
X-1453069Y-155512D01*
X-1440630D01*
X-1428614Y-152293D01*
X-1417841Y-146073D01*
X-1409045Y-137277D01*
X-1402825Y-126504D01*
X-1399605Y-114488D01*
Y-102048D01*
X-1402825Y-90033D01*
X-1409045Y-79260D01*
X-1417841Y-70463D01*
X-1428614Y-64244D01*
X-1440630Y-61024D01*
D02*
G37*
G36*
X1278464Y-159117D02*
X1269066D01*
X1260384Y-162713D01*
X1253739Y-169358D01*
X1250143Y-178041D01*
Y-187438D01*
X1253739Y-196120D01*
X1260384Y-202765D01*
X1269066Y-206361D01*
X1278464D01*
X1287146Y-202765D01*
X1293791Y-196120D01*
X1297387Y-187438D01*
Y-178041D01*
X1293791Y-169358D01*
X1287146Y-162713D01*
X1278464Y-159117D01*
D02*
G37*
G36*
X1214464D02*
X1205066D01*
X1196384Y-162713D01*
X1189739Y-169358D01*
X1186143Y-178041D01*
Y-187438D01*
X1189739Y-196120D01*
X1196384Y-202765D01*
X1205066Y-206361D01*
X1214464D01*
X1223146Y-202765D01*
X1229791Y-196120D01*
X1233387Y-187438D01*
Y-178041D01*
X1229791Y-169358D01*
X1223146Y-162713D01*
X1214464Y-159117D01*
D02*
G37*
G36*
X451690D02*
X442293D01*
X433611Y-162713D01*
X426966Y-169358D01*
X423370Y-178041D01*
Y-187438D01*
X426966Y-196120D01*
X433611Y-202765D01*
X442293Y-206361D01*
X451690D01*
X460372Y-202765D01*
X467017Y-196120D01*
X470614Y-187438D01*
Y-178041D01*
X467017Y-169358D01*
X460372Y-162713D01*
X451690Y-159117D01*
D02*
G37*
G36*
X387690D02*
X378293D01*
X369611Y-162713D01*
X362966Y-169358D01*
X359370Y-178041D01*
Y-187438D01*
X362966Y-196120D01*
X369611Y-202765D01*
X378293Y-206361D01*
X387690D01*
X396372Y-202765D01*
X403017Y-196120D01*
X406614Y-187438D01*
Y-178041D01*
X403017Y-169358D01*
X396372Y-162713D01*
X387690Y-159117D01*
D02*
G37*
G36*
X-375081D02*
X-384478D01*
X-393161Y-162713D01*
X-399806Y-169358D01*
X-403402Y-178041D01*
Y-187438D01*
X-399806Y-196120D01*
X-393161Y-202765D01*
X-384478Y-206361D01*
X-375081D01*
X-366399Y-202765D01*
X-359754Y-196120D01*
X-356158Y-187438D01*
Y-178041D01*
X-359754Y-169358D01*
X-366399Y-162713D01*
X-375081Y-159117D01*
D02*
G37*
G36*
X-439081D02*
X-448478D01*
X-457161Y-162713D01*
X-463806Y-169358D01*
X-467402Y-178041D01*
Y-187438D01*
X-463806Y-196120D01*
X-457161Y-202765D01*
X-448478Y-206361D01*
X-439081D01*
X-430399Y-202765D01*
X-423754Y-196120D01*
X-420158Y-187438D01*
Y-178041D01*
X-423754Y-169358D01*
X-430399Y-162713D01*
X-439081Y-159117D01*
D02*
G37*
G36*
X-1201852D02*
X-1211250D01*
X-1219932Y-162713D01*
X-1226577Y-169358D01*
X-1230173Y-178041D01*
Y-187438D01*
X-1226577Y-196120D01*
X-1219932Y-202765D01*
X-1211250Y-206361D01*
X-1201852D01*
X-1193170Y-202765D01*
X-1186525Y-196120D01*
X-1182929Y-187438D01*
Y-178041D01*
X-1186525Y-169358D01*
X-1193170Y-162713D01*
X-1201852Y-159117D01*
D02*
G37*
G36*
X-1265852D02*
X-1275250D01*
X-1283932Y-162713D01*
X-1290577Y-169358D01*
X-1294173Y-178041D01*
Y-187438D01*
X-1290577Y-196120D01*
X-1283932Y-202765D01*
X-1275250Y-206361D01*
X-1265852D01*
X-1257170Y-202765D01*
X-1250525Y-196120D01*
X-1246929Y-187438D01*
Y-178041D01*
X-1250525Y-169358D01*
X-1257170Y-162713D01*
X-1265852Y-159117D01*
D02*
G37*
G36*
X1453070Y-257874D02*
X1440631D01*
X1428615Y-261094D01*
X1417842Y-267313D01*
X1409046Y-276110D01*
X1402826Y-286883D01*
X1399607Y-298898D01*
Y-311338D01*
X1402826Y-323354D01*
X1409046Y-334127D01*
X1417842Y-342923D01*
X1428615Y-349143D01*
X1440631Y-352362D01*
X1453070D01*
X1465086Y-349143D01*
X1475859Y-342923D01*
X1484655Y-334127D01*
X1490875Y-323354D01*
X1494095Y-311338D01*
Y-298898D01*
X1490875Y-286883D01*
X1484655Y-276110D01*
X1475859Y-267313D01*
X1465086Y-261094D01*
X1453070Y-257874D01*
D02*
G37*
G36*
X1039684D02*
X1027245D01*
X1015229Y-261094D01*
X1004456Y-267313D01*
X995660Y-276110D01*
X989440Y-286883D01*
X986221Y-298898D01*
Y-311338D01*
X989440Y-323354D01*
X995660Y-334127D01*
X1004456Y-342923D01*
X1015229Y-349143D01*
X1027245Y-352362D01*
X1039684D01*
X1051700Y-349143D01*
X1062473Y-342923D01*
X1071269Y-334127D01*
X1077489Y-323354D01*
X1080709Y-311338D01*
Y-298898D01*
X1077489Y-286883D01*
X1071269Y-276110D01*
X1062473Y-267313D01*
X1051700Y-261094D01*
X1039684Y-257874D01*
D02*
G37*
G36*
X626298D02*
X613859D01*
X601843Y-261094D01*
X591070Y-267313D01*
X582274Y-276110D01*
X576054Y-286883D01*
X572835Y-298898D01*
Y-311338D01*
X576054Y-323354D01*
X582274Y-334127D01*
X591070Y-342923D01*
X601843Y-349143D01*
X613859Y-352362D01*
X626298D01*
X638314Y-349143D01*
X649087Y-342923D01*
X657883Y-334127D01*
X664103Y-323354D01*
X667323Y-311338D01*
Y-298898D01*
X664103Y-286883D01*
X657883Y-276110D01*
X649087Y-267313D01*
X638314Y-261094D01*
X626298Y-257874D01*
D02*
G37*
G36*
X212912D02*
X200473D01*
X188457Y-261094D01*
X177684Y-267313D01*
X168888Y-276110D01*
X162668Y-286883D01*
X159448Y-298898D01*
Y-311338D01*
X162668Y-323354D01*
X168888Y-334127D01*
X177684Y-342923D01*
X188457Y-349143D01*
X200473Y-352362D01*
X212912D01*
X224928Y-349143D01*
X235701Y-342923D01*
X244497Y-334127D01*
X250717Y-323354D01*
X253937Y-311338D01*
Y-298898D01*
X250717Y-286883D01*
X244497Y-276110D01*
X235701Y-267313D01*
X224928Y-261094D01*
X212912Y-257874D01*
D02*
G37*
G36*
X-200474D02*
X-212913D01*
X-224929Y-261094D01*
X-235702Y-267313D01*
X-244498Y-276110D01*
X-250718Y-286883D01*
X-253938Y-298898D01*
Y-311338D01*
X-250718Y-323354D01*
X-244498Y-334127D01*
X-235702Y-342923D01*
X-224929Y-349143D01*
X-212913Y-352362D01*
X-200474D01*
X-188458Y-349143D01*
X-177685Y-342923D01*
X-168889Y-334127D01*
X-162669Y-323354D01*
X-159449Y-311338D01*
Y-298898D01*
X-162669Y-286883D01*
X-168889Y-276110D01*
X-177685Y-267313D01*
X-188458Y-261094D01*
X-200474Y-257874D01*
D02*
G37*
G36*
X-613860D02*
X-626299D01*
X-638315Y-261094D01*
X-649088Y-267313D01*
X-657884Y-276110D01*
X-664104Y-286883D01*
X-667323Y-298898D01*
Y-311338D01*
X-664104Y-323354D01*
X-657884Y-334127D01*
X-649088Y-342923D01*
X-638315Y-349143D01*
X-626299Y-352362D01*
X-613860D01*
X-601844Y-349143D01*
X-591071Y-342923D01*
X-582275Y-334127D01*
X-576055Y-323354D01*
X-572835Y-311338D01*
Y-298898D01*
X-576055Y-286883D01*
X-582275Y-276110D01*
X-591071Y-267313D01*
X-601844Y-261094D01*
X-613860Y-257874D01*
D02*
G37*
G36*
X-1027246D02*
X-1039685D01*
X-1051701Y-261094D01*
X-1062474Y-267313D01*
X-1071270Y-276110D01*
X-1077490Y-286883D01*
X-1080709Y-298898D01*
Y-311338D01*
X-1077490Y-323354D01*
X-1071270Y-334127D01*
X-1062474Y-342923D01*
X-1051701Y-349143D01*
X-1039685Y-352362D01*
X-1027246D01*
X-1015230Y-349143D01*
X-1004457Y-342923D01*
X-995661Y-334127D01*
X-989441Y-323354D01*
X-986221Y-311338D01*
Y-298898D01*
X-989441Y-286883D01*
X-995661Y-276110D01*
X-1004457Y-267313D01*
X-1015230Y-261094D01*
X-1027246Y-257874D01*
D02*
G37*
G36*
X-1440630D02*
X-1453069D01*
X-1465085Y-261094D01*
X-1475858Y-267313D01*
X-1484654Y-276110D01*
X-1490874Y-286883D01*
X-1494093Y-298898D01*
Y-311338D01*
X-1490874Y-323354D01*
X-1484654Y-334127D01*
X-1475858Y-342923D01*
X-1465085Y-349143D01*
X-1453069Y-352362D01*
X-1440630D01*
X-1428614Y-349143D01*
X-1417841Y-342923D01*
X-1409045Y-334127D01*
X-1402825Y-323354D01*
X-1399605Y-311338D01*
Y-298898D01*
X-1402825Y-286883D01*
X-1409045Y-276110D01*
X-1417841Y-267313D01*
X-1428614Y-261094D01*
X-1440630Y-257874D01*
D02*
G37*
G36*
X1108045Y-345472D02*
X1098647D01*
X1089965Y-349068D01*
X1083320Y-355713D01*
X1079724Y-364395D01*
Y-373793D01*
X1083320Y-382475D01*
X1089965Y-389120D01*
X1098647Y-392716D01*
X1108045D01*
X1116727Y-389120D01*
X1123372Y-382475D01*
X1126968Y-373793D01*
Y-364395D01*
X1123372Y-355713D01*
X1116727Y-349068D01*
X1108045Y-345472D01*
D02*
G37*
G36*
X281273D02*
X271875D01*
X263193Y-349068D01*
X256548Y-355713D01*
X252952Y-364395D01*
Y-373793D01*
X256548Y-382475D01*
X263193Y-389120D01*
X271875Y-392716D01*
X281273D01*
X289955Y-389120D01*
X296600Y-382475D01*
X300196Y-373793D01*
Y-364395D01*
X296600Y-355713D01*
X289955Y-349068D01*
X281273Y-345472D01*
D02*
G37*
G36*
X-545499D02*
X-554896D01*
X-563578Y-349068D01*
X-570223Y-355713D01*
X-573820Y-364395D01*
Y-373793D01*
X-570223Y-382475D01*
X-563578Y-389120D01*
X-554896Y-392716D01*
X-545499D01*
X-536817Y-389120D01*
X-530172Y-382475D01*
X-526576Y-373793D01*
Y-364395D01*
X-530172Y-355713D01*
X-536817Y-349068D01*
X-545499Y-345472D01*
D02*
G37*
G36*
X-1372271D02*
X-1381668D01*
X-1390350Y-349068D01*
X-1396995Y-355713D01*
X-1400591Y-364395D01*
Y-373793D01*
X-1396995Y-382475D01*
X-1390350Y-389120D01*
X-1381668Y-392716D01*
X-1372271D01*
X-1363589Y-389120D01*
X-1356944Y-382475D01*
X-1353347Y-373793D01*
Y-364395D01*
X-1356944Y-355713D01*
X-1363589Y-349068D01*
X-1372271Y-345472D01*
D02*
G37*
G36*
X959423Y-409449D02*
X950026D01*
X941344Y-413045D01*
X934699Y-419690D01*
X931103Y-428373D01*
Y-437770D01*
X934699Y-446452D01*
X941344Y-453097D01*
X950026Y-456693D01*
X959423D01*
X968106Y-453097D01*
X974750Y-446452D01*
X978347Y-437770D01*
Y-428373D01*
X974750Y-419690D01*
X968106Y-413045D01*
X959423Y-409449D01*
D02*
G37*
G36*
X-694120D02*
X-703518D01*
X-712200Y-413045D01*
X-718845Y-419690D01*
X-722441Y-428373D01*
Y-437770D01*
X-718845Y-446452D01*
X-712200Y-453097D01*
X-703518Y-456693D01*
X-694120D01*
X-685438Y-453097D01*
X-678793Y-446452D01*
X-675197Y-437770D01*
Y-428373D01*
X-678793Y-419690D01*
X-685438Y-413045D01*
X-694120Y-409449D01*
D02*
G37*
G36*
X650368Y-417323D02*
X640971D01*
X632289Y-420919D01*
X625644Y-427564D01*
X622048Y-436247D01*
Y-445644D01*
X625644Y-454326D01*
X632289Y-460971D01*
X640971Y-464567D01*
X650368D01*
X659050Y-460971D01*
X665695Y-454326D01*
X669292Y-445644D01*
Y-436247D01*
X665695Y-427564D01*
X659050Y-420919D01*
X650368Y-417323D01*
D02*
G37*
G36*
X-1003175D02*
X-1012573D01*
X-1021255Y-420919D01*
X-1027900Y-427564D01*
X-1031496Y-436247D01*
Y-445644D01*
X-1027900Y-454326D01*
X-1021255Y-460971D01*
X-1012573Y-464567D01*
X-1003175D01*
X-994493Y-460971D01*
X-987848Y-454326D01*
X-984252Y-445644D01*
Y-436247D01*
X-987848Y-427564D01*
X-994493Y-420919D01*
X-1003175Y-417323D01*
D02*
G37*
G36*
X1127731Y-437993D02*
X1118333D01*
X1109651Y-441589D01*
X1103006Y-448234D01*
X1099410Y-456916D01*
Y-466313D01*
X1103006Y-474995D01*
X1109651Y-481640D01*
X1118333Y-485236D01*
X1127731D01*
X1136413Y-481640D01*
X1143058Y-474995D01*
X1146654Y-466313D01*
Y-456916D01*
X1143058Y-448234D01*
X1136413Y-441589D01*
X1127731Y-437993D01*
D02*
G37*
G36*
X300959D02*
X291561D01*
X282879Y-441589D01*
X276234Y-448234D01*
X272638Y-456916D01*
Y-466313D01*
X276234Y-474995D01*
X282879Y-481640D01*
X291561Y-485236D01*
X300959D01*
X309641Y-481640D01*
X316286Y-474995D01*
X319882Y-466313D01*
Y-456916D01*
X316286Y-448234D01*
X309641Y-441589D01*
X300959Y-437993D01*
D02*
G37*
G36*
X-525813D02*
X-535210D01*
X-543893Y-441589D01*
X-550538Y-448234D01*
X-554134Y-456916D01*
Y-466313D01*
X-550538Y-474995D01*
X-543893Y-481640D01*
X-535210Y-485236D01*
X-525813D01*
X-517131Y-481640D01*
X-510486Y-474995D01*
X-506890Y-466313D01*
Y-456916D01*
X-510486Y-448234D01*
X-517131Y-441589D01*
X-525813Y-437993D01*
D02*
G37*
G36*
X-1352585D02*
X-1361982D01*
X-1370664Y-441589D01*
X-1377309Y-448234D01*
X-1380906Y-456916D01*
Y-466313D01*
X-1377309Y-474995D01*
X-1370664Y-481640D01*
X-1361982Y-485236D01*
X-1352585D01*
X-1343903Y-481640D01*
X-1337258Y-474995D01*
X-1333661Y-466313D01*
Y-456916D01*
X-1337258Y-448234D01*
X-1343903Y-441589D01*
X-1352585Y-437993D01*
D02*
G37*
G36*
X769463Y-510827D02*
X760065D01*
X751383Y-514423D01*
X744738Y-521068D01*
X741142Y-529750D01*
Y-539148D01*
X744738Y-547830D01*
X751383Y-554475D01*
X760065Y-558071D01*
X769463D01*
X778145Y-554475D01*
X784790Y-547830D01*
X788386Y-539148D01*
Y-529750D01*
X784790Y-521068D01*
X778145Y-514423D01*
X769463Y-510827D01*
D02*
G37*
G36*
X-884081D02*
X-893478D01*
X-902160Y-514423D01*
X-908805Y-521068D01*
X-912402Y-529750D01*
Y-539148D01*
X-908805Y-547830D01*
X-902160Y-554475D01*
X-893478Y-558071D01*
X-884081D01*
X-875399Y-554475D01*
X-868754Y-547830D01*
X-865158Y-539148D01*
Y-529750D01*
X-868754Y-521068D01*
X-875399Y-514423D01*
X-884081Y-510827D01*
D02*
G37*
G36*
X1269463Y-463583D02*
X1260065D01*
X1251383Y-467179D01*
X1244738Y-473824D01*
X1241142Y-482506D01*
Y-491904D01*
X1244738Y-500586D01*
X1251383Y-507231D01*
X1260065Y-510827D01*
X1268283Y-510827D01*
X1269066Y-515503D01*
X1265676Y-516907D01*
X1260384Y-519099D01*
X1253739Y-525744D01*
X1250143Y-534426D01*
Y-543824D01*
X1253739Y-552506D01*
X1260384Y-559151D01*
X1269066Y-562747D01*
X1278464D01*
X1287146Y-559151D01*
X1293791Y-552506D01*
X1297387Y-543824D01*
Y-534426D01*
X1293791Y-525744D01*
X1287146Y-519099D01*
X1278464Y-515503D01*
X1270246Y-515503D01*
X1269463Y-510827D01*
X1272853Y-509423D01*
X1278145Y-507231D01*
X1284790Y-500586D01*
X1288386Y-491904D01*
Y-482506D01*
X1284790Y-473824D01*
X1278145Y-467179D01*
X1269463Y-463583D01*
D02*
G37*
G36*
X1214464Y-515503D02*
X1205066D01*
X1196384Y-519099D01*
X1189739Y-525744D01*
X1186143Y-534426D01*
Y-543824D01*
X1189739Y-552506D01*
X1196384Y-559151D01*
X1205066Y-562747D01*
X1214464D01*
X1223146Y-559151D01*
X1229791Y-552506D01*
X1233387Y-543824D01*
Y-534426D01*
X1229791Y-525744D01*
X1223146Y-519099D01*
X1214464Y-515503D01*
D02*
G37*
G36*
X442691Y-463583D02*
X433294D01*
X424612Y-467179D01*
X417967Y-473824D01*
X414370Y-482506D01*
Y-491904D01*
X417967Y-500586D01*
X424612Y-507231D01*
X433294Y-510827D01*
X441510Y-510827D01*
X442293Y-515503D01*
X438904Y-516907D01*
X433611Y-519099D01*
X426966Y-525744D01*
X423370Y-534426D01*
Y-543824D01*
X426966Y-552506D01*
X433611Y-559151D01*
X442293Y-562747D01*
X451690D01*
X460372Y-559151D01*
X467017Y-552506D01*
X470614Y-543824D01*
Y-534426D01*
X467017Y-525744D01*
X460372Y-519099D01*
X451690Y-515503D01*
X443474Y-515503D01*
X442691Y-510827D01*
X446080Y-509423D01*
X451373Y-507231D01*
X458018Y-500586D01*
X461614Y-491904D01*
Y-482506D01*
X458018Y-473824D01*
X451373Y-467179D01*
X442691Y-463583D01*
D02*
G37*
G36*
X387690Y-515503D02*
X378293D01*
X369611Y-519099D01*
X362966Y-525744D01*
X359370Y-534426D01*
Y-543824D01*
X362966Y-552506D01*
X369611Y-559151D01*
X378293Y-562747D01*
X387690D01*
X396372Y-559151D01*
X403017Y-552506D01*
X406614Y-543824D01*
Y-534426D01*
X403017Y-525744D01*
X396372Y-519099D01*
X387690Y-515503D01*
D02*
G37*
G36*
X-384081Y-463583D02*
X-393478D01*
X-402160Y-467179D01*
X-408805Y-473824D01*
X-412401Y-482506D01*
Y-491904D01*
X-408805Y-500586D01*
X-402160Y-507231D01*
X-393478Y-510827D01*
X-385261Y-510827D01*
X-384479Y-515503D01*
X-387868Y-516907D01*
X-393161Y-519099D01*
X-399806Y-525744D01*
X-403402Y-534426D01*
Y-543824D01*
X-399806Y-552506D01*
X-393161Y-559151D01*
X-384478Y-562747D01*
X-375081D01*
X-366399Y-559151D01*
X-359754Y-552506D01*
X-356158Y-543824D01*
Y-534426D01*
X-359754Y-525744D01*
X-366399Y-519099D01*
X-375081Y-515503D01*
X-383298Y-515503D01*
X-384080Y-510827D01*
X-380691Y-509423D01*
X-375399Y-507231D01*
X-368754Y-500586D01*
X-365157Y-491904D01*
Y-482506D01*
X-368754Y-473824D01*
X-375399Y-467179D01*
X-384081Y-463583D01*
D02*
G37*
G36*
X-439081Y-515503D02*
X-448478D01*
X-457161Y-519099D01*
X-463806Y-525744D01*
X-467402Y-534426D01*
Y-543824D01*
X-463806Y-552506D01*
X-457161Y-559151D01*
X-448478Y-562747D01*
X-439081D01*
X-430399Y-559151D01*
X-423754Y-552506D01*
X-420158Y-543824D01*
Y-534426D01*
X-423754Y-525744D01*
X-430399Y-519099D01*
X-439081Y-515503D01*
D02*
G37*
G36*
X-1210852Y-463583D02*
X-1220250D01*
X-1228932Y-467179D01*
X-1235577Y-473824D01*
X-1239173Y-482506D01*
Y-491904D01*
X-1235577Y-500586D01*
X-1228932Y-507231D01*
X-1220250Y-510827D01*
X-1212033Y-510827D01*
X-1211250Y-515503D01*
X-1214639Y-516907D01*
X-1219932Y-519099D01*
X-1226577Y-525744D01*
X-1230173Y-534426D01*
Y-543824D01*
X-1226577Y-552506D01*
X-1219932Y-559151D01*
X-1211250Y-562747D01*
X-1201852D01*
X-1193170Y-559151D01*
X-1186525Y-552506D01*
X-1182929Y-543824D01*
Y-534426D01*
X-1186525Y-525744D01*
X-1193170Y-519099D01*
X-1201852Y-515503D01*
X-1210070Y-515503D01*
X-1210852Y-510827D01*
X-1207463Y-509423D01*
X-1202170Y-507231D01*
X-1195525Y-500586D01*
X-1191929Y-491904D01*
Y-482506D01*
X-1195525Y-473824D01*
X-1202170Y-467179D01*
X-1210852Y-463583D01*
D02*
G37*
G36*
X-1265852Y-515503D02*
X-1275250D01*
X-1283932Y-519099D01*
X-1290577Y-525744D01*
X-1294173Y-534426D01*
Y-543824D01*
X-1290577Y-552506D01*
X-1283932Y-559151D01*
X-1275250Y-562747D01*
X-1265852D01*
X-1257170Y-559151D01*
X-1250525Y-552506D01*
X-1246929Y-543824D01*
Y-534426D01*
X-1250525Y-525744D01*
X-1257170Y-519099D01*
X-1265852Y-515503D01*
D02*
G37*
G36*
X849187Y-518701D02*
X839790D01*
X831108Y-522297D01*
X824463Y-528942D01*
X820866Y-537624D01*
Y-547022D01*
X824463Y-555704D01*
X831108Y-562349D01*
X839790Y-565945D01*
X849187D01*
X857869Y-562349D01*
X864514Y-555704D01*
X868111Y-547022D01*
Y-537624D01*
X864514Y-528942D01*
X857869Y-522297D01*
X849187Y-518701D01*
D02*
G37*
G36*
X-804356D02*
X-813754D01*
X-822436Y-522297D01*
X-829081Y-528942D01*
X-832677Y-537624D01*
Y-547022D01*
X-829081Y-555704D01*
X-822436Y-562349D01*
X-813754Y-565945D01*
X-804356D01*
X-795674Y-562349D01*
X-789029Y-555704D01*
X-785433Y-547022D01*
Y-537624D01*
X-789029Y-528942D01*
X-795674Y-522297D01*
X-804356Y-518701D01*
D02*
G37*
G36*
X1453070Y-474410D02*
X1440631D01*
X1428615Y-477630D01*
X1417842Y-483849D01*
X1409046Y-492646D01*
X1402826Y-503419D01*
X1399607Y-515434D01*
Y-527874D01*
X1402826Y-539890D01*
X1409046Y-550663D01*
X1417842Y-559459D01*
X1428615Y-565679D01*
X1440631Y-568898D01*
X1453070D01*
X1465086Y-565679D01*
X1475859Y-559459D01*
X1484655Y-550663D01*
X1490875Y-539890D01*
X1494095Y-527874D01*
Y-515434D01*
X1490875Y-503419D01*
X1484655Y-492646D01*
X1475859Y-483849D01*
X1465086Y-477630D01*
X1453070Y-474410D01*
D02*
G37*
G36*
X1039684D02*
X1027245D01*
X1015229Y-477630D01*
X1004456Y-483849D01*
X995660Y-492646D01*
X989440Y-503419D01*
X986221Y-515434D01*
Y-527874D01*
X989440Y-539890D01*
X995660Y-550663D01*
X1004456Y-559459D01*
X1015229Y-565679D01*
X1027245Y-568898D01*
X1039684D01*
X1051700Y-565679D01*
X1062473Y-559459D01*
X1071269Y-550663D01*
X1077489Y-539890D01*
X1080709Y-527874D01*
Y-515434D01*
X1077489Y-503419D01*
X1071269Y-492646D01*
X1062473Y-483849D01*
X1051700Y-477630D01*
X1039684Y-474410D01*
D02*
G37*
G36*
X626298D02*
X613859D01*
X601843Y-477630D01*
X591070Y-483849D01*
X582274Y-492646D01*
X576054Y-503419D01*
X572835Y-515434D01*
Y-527874D01*
X576054Y-539890D01*
X582274Y-550663D01*
X591070Y-559459D01*
X601843Y-565679D01*
X613859Y-568898D01*
X626298D01*
X638314Y-565679D01*
X649087Y-559459D01*
X657883Y-550663D01*
X664103Y-539890D01*
X667323Y-527874D01*
Y-515434D01*
X664103Y-503419D01*
X657883Y-492646D01*
X649087Y-483849D01*
X638314Y-477630D01*
X626298Y-474410D01*
D02*
G37*
G36*
X212912D02*
X200473D01*
X188457Y-477630D01*
X177684Y-483849D01*
X168888Y-492646D01*
X162668Y-503419D01*
X159448Y-515434D01*
Y-527874D01*
X162668Y-539890D01*
X168888Y-550663D01*
X177684Y-559459D01*
X188457Y-565679D01*
X200473Y-568898D01*
X212912D01*
X224928Y-565679D01*
X235701Y-559459D01*
X244497Y-550663D01*
X250717Y-539890D01*
X253937Y-527874D01*
Y-515434D01*
X250717Y-503419D01*
X244497Y-492646D01*
X235701Y-483849D01*
X224928Y-477630D01*
X212912Y-474410D01*
D02*
G37*
G36*
X-200474D02*
X-212913D01*
X-224929Y-477630D01*
X-235702Y-483849D01*
X-244498Y-492646D01*
X-250718Y-503419D01*
X-253938Y-515434D01*
Y-527874D01*
X-250718Y-539890D01*
X-244498Y-550663D01*
X-235702Y-559459D01*
X-224929Y-565679D01*
X-212913Y-568898D01*
X-200474D01*
X-188458Y-565679D01*
X-177685Y-559459D01*
X-168889Y-550663D01*
X-162669Y-539890D01*
X-159449Y-527874D01*
Y-515434D01*
X-162669Y-503419D01*
X-168889Y-492646D01*
X-177685Y-483849D01*
X-188458Y-477630D01*
X-200474Y-474410D01*
D02*
G37*
G36*
X-613860D02*
X-626299D01*
X-638315Y-477630D01*
X-649088Y-483849D01*
X-657884Y-492646D01*
X-664104Y-503419D01*
X-667323Y-515434D01*
Y-527874D01*
X-664104Y-539890D01*
X-657884Y-550663D01*
X-649088Y-559459D01*
X-638315Y-565679D01*
X-626299Y-568898D01*
X-613860D01*
X-601844Y-565679D01*
X-591071Y-559459D01*
X-582275Y-550663D01*
X-576055Y-539890D01*
X-572835Y-527874D01*
Y-515434D01*
X-576055Y-503419D01*
X-582275Y-492646D01*
X-591071Y-483849D01*
X-601844Y-477630D01*
X-613860Y-474410D01*
D02*
G37*
G36*
X-1027246D02*
X-1039685D01*
X-1051701Y-477630D01*
X-1062474Y-483849D01*
X-1071270Y-492646D01*
X-1077490Y-503419D01*
X-1080709Y-515434D01*
Y-527874D01*
X-1077490Y-539890D01*
X-1071270Y-550663D01*
X-1062474Y-559459D01*
X-1051701Y-565679D01*
X-1039685Y-568898D01*
X-1027246D01*
X-1015230Y-565679D01*
X-1004457Y-559459D01*
X-995661Y-550663D01*
X-989441Y-539890D01*
X-986221Y-527874D01*
Y-515434D01*
X-989441Y-503419D01*
X-995661Y-492646D01*
X-1004457Y-483849D01*
X-1015230Y-477630D01*
X-1027246Y-474410D01*
D02*
G37*
G36*
X-1440630D02*
X-1453069D01*
X-1465085Y-477630D01*
X-1475858Y-483849D01*
X-1484654Y-492646D01*
X-1490874Y-503419D01*
X-1494093Y-515434D01*
Y-527874D01*
X-1490874Y-539890D01*
X-1484654Y-550663D01*
X-1475858Y-559459D01*
X-1465085Y-565679D01*
X-1453069Y-568898D01*
X-1440630D01*
X-1428614Y-565679D01*
X-1417841Y-559459D01*
X-1409045Y-550663D01*
X-1402825Y-539890D01*
X-1399605Y-527874D01*
Y-515434D01*
X-1402825Y-503419D01*
X-1409045Y-492646D01*
X-1417841Y-483849D01*
X-1428614Y-477630D01*
X-1440630Y-474410D01*
D02*
G37*
G36*
X1278464Y-572503D02*
X1269066D01*
X1260384Y-576099D01*
X1253739Y-582744D01*
X1250143Y-591426D01*
Y-600824D01*
X1253739Y-609506D01*
X1260384Y-616151D01*
X1269066Y-619747D01*
X1278464D01*
X1287146Y-616151D01*
X1293791Y-609506D01*
X1297387Y-600824D01*
Y-591426D01*
X1293791Y-582744D01*
X1287146Y-576099D01*
X1278464Y-572503D01*
D02*
G37*
G36*
X1214464D02*
X1205066D01*
X1196384Y-576099D01*
X1189739Y-582744D01*
X1186143Y-591426D01*
Y-600824D01*
X1189739Y-609506D01*
X1196384Y-616151D01*
X1205066Y-619747D01*
X1214464D01*
X1223146Y-616151D01*
X1229791Y-609506D01*
X1233387Y-600824D01*
Y-591426D01*
X1229791Y-582744D01*
X1223146Y-576099D01*
X1214464Y-572503D01*
D02*
G37*
G36*
X451690D02*
X442293D01*
X433611Y-576099D01*
X426966Y-582744D01*
X423370Y-591426D01*
Y-600824D01*
X426966Y-609506D01*
X433611Y-616151D01*
X442293Y-619747D01*
X451690D01*
X460372Y-616151D01*
X467017Y-609506D01*
X470614Y-600824D01*
Y-591426D01*
X467017Y-582744D01*
X460372Y-576099D01*
X451690Y-572503D01*
D02*
G37*
G36*
X387690D02*
X378293D01*
X369611Y-576099D01*
X362966Y-582744D01*
X359370Y-591426D01*
Y-600824D01*
X362966Y-609506D01*
X369611Y-616151D01*
X378293Y-619747D01*
X387690D01*
X396372Y-616151D01*
X403017Y-609506D01*
X406614Y-600824D01*
Y-591426D01*
X403017Y-582744D01*
X396372Y-576099D01*
X387690Y-572503D01*
D02*
G37*
G36*
X-375081D02*
X-384478D01*
X-393161Y-576099D01*
X-399806Y-582744D01*
X-403402Y-591426D01*
Y-600824D01*
X-399806Y-609506D01*
X-393161Y-616151D01*
X-384478Y-619747D01*
X-375081D01*
X-366399Y-616151D01*
X-359754Y-609506D01*
X-356158Y-600824D01*
Y-591426D01*
X-359754Y-582744D01*
X-366399Y-576099D01*
X-375081Y-572503D01*
D02*
G37*
G36*
X-439081D02*
X-448478D01*
X-457161Y-576099D01*
X-463806Y-582744D01*
X-467402Y-591426D01*
Y-600824D01*
X-463806Y-609506D01*
X-457161Y-616151D01*
X-448478Y-619747D01*
X-439081D01*
X-430399Y-616151D01*
X-423754Y-609506D01*
X-420158Y-600824D01*
Y-591426D01*
X-423754Y-582744D01*
X-430399Y-576099D01*
X-439081Y-572503D01*
D02*
G37*
G36*
X-1201852D02*
X-1211250D01*
X-1219932Y-576099D01*
X-1226577Y-582744D01*
X-1230173Y-591426D01*
Y-600824D01*
X-1226577Y-609506D01*
X-1219932Y-616151D01*
X-1211250Y-619747D01*
X-1201852D01*
X-1193170Y-616151D01*
X-1186525Y-609506D01*
X-1182929Y-600824D01*
Y-591426D01*
X-1186525Y-582744D01*
X-1193170Y-576099D01*
X-1201852Y-572503D01*
D02*
G37*
G36*
X-1265852D02*
X-1275250D01*
X-1283932Y-576099D01*
X-1290577Y-582744D01*
X-1294173Y-591426D01*
Y-600824D01*
X-1290577Y-609506D01*
X-1283932Y-616151D01*
X-1275250Y-619747D01*
X-1265852D01*
X-1257170Y-616151D01*
X-1250525Y-609506D01*
X-1246929Y-600824D01*
Y-591426D01*
X-1250525Y-582744D01*
X-1257170Y-576099D01*
X-1265852Y-572503D01*
D02*
G37*
G36*
X-1009081Y-616142D02*
X-1018478D01*
X-1027160Y-619738D01*
X-1033805Y-626383D01*
X-1037401Y-635065D01*
Y-644462D01*
X-1033805Y-653145D01*
X-1027160Y-659790D01*
X-1018478Y-663386D01*
X-1009081D01*
X-1000399Y-659790D01*
X-993754Y-653145D01*
X-990158Y-644462D01*
Y-635065D01*
X-993754Y-626383D01*
X-1000399Y-619738D01*
X-1009081Y-616142D01*
D02*
G37*
G36*
X651352Y-618111D02*
X641955D01*
X633273Y-621707D01*
X626628Y-628352D01*
X623032Y-637034D01*
Y-646431D01*
X626628Y-655113D01*
X633273Y-661758D01*
X641955Y-665355D01*
X651352D01*
X660035Y-661758D01*
X666680Y-655113D01*
X670276Y-646431D01*
Y-637034D01*
X666680Y-628352D01*
X660035Y-621707D01*
X651352Y-618111D01*
D02*
G37*
G36*
X1004699Y-621063D02*
X995302D01*
X986620Y-624659D01*
X979975Y-631304D01*
X976378Y-639987D01*
Y-649384D01*
X979975Y-658066D01*
X986620Y-664711D01*
X995302Y-668307D01*
X1004699D01*
X1013381Y-664711D01*
X1020026Y-658066D01*
X1023622Y-649384D01*
Y-639987D01*
X1020026Y-631304D01*
X1013381Y-624659D01*
X1004699Y-621063D01*
D02*
G37*
G36*
X-648845D02*
X-658242D01*
X-666924Y-624659D01*
X-673569Y-631304D01*
X-677165Y-639987D01*
Y-649384D01*
X-673569Y-658066D01*
X-666924Y-664711D01*
X-658242Y-668307D01*
X-648845D01*
X-640163Y-664711D01*
X-633518Y-658066D01*
X-629921Y-649384D01*
Y-639987D01*
X-633518Y-631304D01*
X-640163Y-624659D01*
X-648845Y-621063D01*
D02*
G37*
G36*
X857061Y-715552D02*
X847664D01*
X838982Y-719148D01*
X832337Y-725793D01*
X828740Y-734475D01*
Y-743872D01*
X832337Y-752554D01*
X838982Y-759199D01*
X847664Y-762795D01*
X857061D01*
X865743Y-759199D01*
X872388Y-752554D01*
X875985Y-743872D01*
Y-734475D01*
X872388Y-725793D01*
X865743Y-719148D01*
X857061Y-715552D01*
D02*
G37*
G36*
X786195D02*
X776798D01*
X768115Y-719148D01*
X761471Y-725793D01*
X757874Y-734475D01*
Y-743872D01*
X761471Y-752554D01*
X768115Y-759199D01*
X776798Y-762795D01*
X786195D01*
X794877Y-759199D01*
X801522Y-752554D01*
X805118Y-743872D01*
Y-734475D01*
X801522Y-725793D01*
X794877Y-719148D01*
X786195Y-715552D01*
D02*
G37*
G36*
X-796482D02*
X-805880D01*
X-814562Y-719148D01*
X-821207Y-725793D01*
X-824803Y-734475D01*
Y-743872D01*
X-821207Y-752554D01*
X-814562Y-759199D01*
X-805880Y-762795D01*
X-796482D01*
X-787800Y-759199D01*
X-781155Y-752554D01*
X-777559Y-743872D01*
Y-734475D01*
X-781155Y-725793D01*
X-787800Y-719148D01*
X-796482Y-715552D01*
D02*
G37*
G36*
X-867349D02*
X-876746D01*
X-885428Y-719148D01*
X-892073Y-725793D01*
X-895669Y-734475D01*
Y-743872D01*
X-892073Y-752554D01*
X-885428Y-759199D01*
X-876746Y-762795D01*
X-867349D01*
X-858667Y-759199D01*
X-852021Y-752554D01*
X-848425Y-743872D01*
Y-734475D01*
X-852021Y-725793D01*
X-858667Y-719148D01*
X-867349Y-715552D01*
D02*
G37*
G36*
X1453070Y-671260D02*
X1440631D01*
X1428615Y-674480D01*
X1417842Y-680699D01*
X1409046Y-689496D01*
X1402826Y-700269D01*
X1399607Y-712284D01*
Y-724724D01*
X1402826Y-736740D01*
X1409046Y-747513D01*
X1417842Y-756309D01*
X1428615Y-762529D01*
X1440631Y-765748D01*
X1453070D01*
X1465086Y-762529D01*
X1475859Y-756309D01*
X1484655Y-747513D01*
X1490875Y-736740D01*
X1494095Y-724724D01*
Y-712284D01*
X1490875Y-700269D01*
X1484655Y-689496D01*
X1475859Y-680699D01*
X1465086Y-674480D01*
X1453070Y-671260D01*
D02*
G37*
G36*
X1039684D02*
X1027245D01*
X1015229Y-674480D01*
X1004456Y-680699D01*
X995660Y-689496D01*
X989440Y-700269D01*
X986221Y-712284D01*
Y-724724D01*
X989440Y-736740D01*
X995660Y-747513D01*
X1004456Y-756309D01*
X1015229Y-762529D01*
X1027245Y-765748D01*
X1039684D01*
X1051700Y-762529D01*
X1062473Y-756309D01*
X1071269Y-747513D01*
X1077489Y-736740D01*
X1080709Y-724724D01*
Y-712284D01*
X1077489Y-700269D01*
X1071269Y-689496D01*
X1062473Y-680699D01*
X1051700Y-674480D01*
X1039684Y-671260D01*
D02*
G37*
G36*
X626298D02*
X613859D01*
X601843Y-674480D01*
X591070Y-680699D01*
X582274Y-689496D01*
X576054Y-700269D01*
X572835Y-712284D01*
Y-724724D01*
X576054Y-736740D01*
X582274Y-747513D01*
X591070Y-756309D01*
X601843Y-762529D01*
X613859Y-765748D01*
X626298D01*
X638314Y-762529D01*
X649087Y-756309D01*
X657883Y-747513D01*
X664103Y-736740D01*
X667323Y-724724D01*
Y-712284D01*
X664103Y-700269D01*
X657883Y-689496D01*
X649087Y-680699D01*
X638314Y-674480D01*
X626298Y-671260D01*
D02*
G37*
G36*
X212912D02*
X200473D01*
X188457Y-674480D01*
X177684Y-680699D01*
X168888Y-689496D01*
X162668Y-700269D01*
X159448Y-712284D01*
Y-724724D01*
X162668Y-736740D01*
X168888Y-747513D01*
X177684Y-756309D01*
X188457Y-762529D01*
X200473Y-765748D01*
X212912D01*
X224928Y-762529D01*
X235701Y-756309D01*
X244497Y-747513D01*
X250717Y-736740D01*
X253937Y-724724D01*
Y-712284D01*
X250717Y-700269D01*
X244497Y-689496D01*
X235701Y-680699D01*
X224928Y-674480D01*
X212912Y-671260D01*
D02*
G37*
G36*
X-200474D02*
X-212913D01*
X-224929Y-674480D01*
X-235702Y-680699D01*
X-244498Y-689496D01*
X-250718Y-700269D01*
X-253938Y-712284D01*
Y-724724D01*
X-250718Y-736740D01*
X-244498Y-747513D01*
X-235702Y-756309D01*
X-224929Y-762529D01*
X-212913Y-765748D01*
X-200474D01*
X-188458Y-762529D01*
X-177685Y-756309D01*
X-168889Y-747513D01*
X-162669Y-736740D01*
X-159449Y-724724D01*
Y-712284D01*
X-162669Y-700269D01*
X-168889Y-689496D01*
X-177685Y-680699D01*
X-188458Y-674480D01*
X-200474Y-671260D01*
D02*
G37*
G36*
X-613860D02*
X-626299D01*
X-638315Y-674480D01*
X-649088Y-680699D01*
X-657884Y-689496D01*
X-664104Y-700269D01*
X-667323Y-712284D01*
Y-724724D01*
X-664104Y-736740D01*
X-657884Y-747513D01*
X-649088Y-756309D01*
X-638315Y-762529D01*
X-626299Y-765748D01*
X-613860D01*
X-601844Y-762529D01*
X-591071Y-756309D01*
X-582275Y-747513D01*
X-576055Y-736740D01*
X-572835Y-724724D01*
Y-712284D01*
X-576055Y-700269D01*
X-582275Y-689496D01*
X-591071Y-680699D01*
X-601844Y-674480D01*
X-613860Y-671260D01*
D02*
G37*
G36*
X-1027246D02*
X-1039685D01*
X-1051701Y-674480D01*
X-1062474Y-680699D01*
X-1071270Y-689496D01*
X-1077490Y-700269D01*
X-1080709Y-712284D01*
Y-724724D01*
X-1077490Y-736740D01*
X-1071270Y-747513D01*
X-1062474Y-756309D01*
X-1051701Y-762529D01*
X-1039685Y-765748D01*
X-1027246D01*
X-1015230Y-762529D01*
X-1004457Y-756309D01*
X-995661Y-747513D01*
X-989441Y-736740D01*
X-986221Y-724724D01*
Y-712284D01*
X-989441Y-700269D01*
X-995661Y-689496D01*
X-1004457Y-680699D01*
X-1015230Y-674480D01*
X-1027246Y-671260D01*
D02*
G37*
G36*
X-1440630D02*
X-1453069D01*
X-1465085Y-674480D01*
X-1475858Y-680699D01*
X-1484654Y-689496D01*
X-1490874Y-700269D01*
X-1494093Y-712284D01*
Y-724724D01*
X-1490874Y-736740D01*
X-1484654Y-747513D01*
X-1475858Y-756309D01*
X-1465085Y-762529D01*
X-1453069Y-765748D01*
X-1440630D01*
X-1428614Y-762529D01*
X-1417841Y-756309D01*
X-1409045Y-747513D01*
X-1402825Y-736740D01*
X-1399605Y-724724D01*
Y-712284D01*
X-1402825Y-700269D01*
X-1409045Y-689496D01*
X-1417841Y-680699D01*
X-1428614Y-674480D01*
X-1440630Y-671260D01*
D02*
G37*
G36*
X1108045Y-758858D02*
X1098647D01*
X1089965Y-762454D01*
X1083320Y-769099D01*
X1079724Y-777781D01*
Y-787178D01*
X1083320Y-795861D01*
X1089965Y-802505D01*
X1098647Y-806102D01*
X1108045D01*
X1116727Y-802505D01*
X1123372Y-795861D01*
X1126968Y-787178D01*
Y-777781D01*
X1123372Y-769099D01*
X1116727Y-762454D01*
X1108045Y-758858D01*
D02*
G37*
G36*
X281273D02*
X271875D01*
X263193Y-762454D01*
X256548Y-769099D01*
X252952Y-777781D01*
Y-787178D01*
X256548Y-795861D01*
X263193Y-802505D01*
X271875Y-806102D01*
X281273D01*
X289955Y-802505D01*
X296600Y-795861D01*
X300196Y-787178D01*
Y-777781D01*
X296600Y-769099D01*
X289955Y-762454D01*
X281273Y-758858D01*
D02*
G37*
G36*
X-545499D02*
X-554896D01*
X-563578Y-762454D01*
X-570223Y-769099D01*
X-573820Y-777781D01*
Y-787178D01*
X-570223Y-795861D01*
X-563578Y-802505D01*
X-554896Y-806102D01*
X-545499D01*
X-536817Y-802505D01*
X-530172Y-795861D01*
X-526576Y-787178D01*
Y-777781D01*
X-530172Y-769099D01*
X-536817Y-762454D01*
X-545499Y-758858D01*
D02*
G37*
G36*
X-1372271D02*
X-1381668D01*
X-1390350Y-762454D01*
X-1396995Y-769099D01*
X-1400591Y-777781D01*
Y-787178D01*
X-1396995Y-795861D01*
X-1390350Y-802505D01*
X-1381668Y-806102D01*
X-1372271D01*
X-1363589Y-802505D01*
X-1356944Y-795861D01*
X-1353347Y-787178D01*
Y-777781D01*
X-1356944Y-769099D01*
X-1363589Y-762454D01*
X-1372271Y-758858D01*
D02*
G37*
G36*
X0Y-751598D02*
X-14666Y-753043D01*
X-28768Y-757320D01*
X-41764Y-764267D01*
X-53156Y-773616D01*
X-62505Y-785008D01*
X-69451Y-798004D01*
X-73729Y-812106D01*
X-75174Y-826772D01*
X-73729Y-841437D01*
X-69451Y-855539D01*
X-62505Y-868536D01*
X-53156Y-879928D01*
X-41764Y-889276D01*
X-28768Y-896223D01*
X-14666Y-900501D01*
X0Y-901945D01*
X14666Y-900501D01*
X28768Y-896223D01*
X41764Y-889276D01*
X53156Y-879928D01*
X62505Y-868536D01*
X69451Y-855539D01*
X73729Y-841437D01*
X75174Y-826772D01*
X73729Y-812106D01*
X69451Y-798004D01*
X62505Y-785008D01*
X53156Y-773616D01*
X41764Y-764267D01*
X28768Y-757320D01*
X14666Y-753043D01*
X0Y-751598D01*
D02*
G37*
G36*
X1278464Y-928889D02*
X1269066D01*
X1260384Y-932485D01*
X1253739Y-939130D01*
X1250143Y-947812D01*
Y-957209D01*
X1253739Y-965891D01*
X1260384Y-972536D01*
X1269066Y-976133D01*
X1278464D01*
X1287146Y-972536D01*
X1293791Y-965891D01*
X1297387Y-957209D01*
Y-947812D01*
X1293791Y-939130D01*
X1287146Y-932485D01*
X1278464Y-928889D01*
D02*
G37*
G36*
X1214464D02*
X1205066D01*
X1196384Y-932485D01*
X1189739Y-939130D01*
X1186143Y-947812D01*
Y-957209D01*
X1189739Y-965891D01*
X1196384Y-972536D01*
X1205066Y-976133D01*
X1214464D01*
X1223146Y-972536D01*
X1229791Y-965891D01*
X1233387Y-957209D01*
Y-947812D01*
X1229791Y-939130D01*
X1223146Y-932485D01*
X1214464Y-928889D01*
D02*
G37*
G36*
X451690D02*
X442293D01*
X433611Y-932485D01*
X426966Y-939130D01*
X423370Y-947812D01*
Y-957209D01*
X426966Y-965891D01*
X433611Y-972536D01*
X442293Y-976133D01*
X451690D01*
X460372Y-972536D01*
X467017Y-965891D01*
X470614Y-957209D01*
Y-947812D01*
X467017Y-939130D01*
X460372Y-932485D01*
X451690Y-928889D01*
D02*
G37*
G36*
X387690D02*
X378293D01*
X369611Y-932485D01*
X362966Y-939130D01*
X359370Y-947812D01*
Y-957209D01*
X362966Y-965891D01*
X369611Y-972536D01*
X378293Y-976133D01*
X387690D01*
X396372Y-972536D01*
X403017Y-965891D01*
X406614Y-957209D01*
Y-947812D01*
X403017Y-939130D01*
X396372Y-932485D01*
X387690Y-928889D01*
D02*
G37*
G36*
X-375081D02*
X-384478D01*
X-393161Y-932485D01*
X-399806Y-939130D01*
X-403402Y-947812D01*
Y-957209D01*
X-399806Y-965891D01*
X-393161Y-972536D01*
X-384478Y-976133D01*
X-375081D01*
X-366399Y-972536D01*
X-359754Y-965891D01*
X-356158Y-957209D01*
Y-947812D01*
X-359754Y-939130D01*
X-366399Y-932485D01*
X-375081Y-928889D01*
D02*
G37*
G36*
X-439081D02*
X-448478D01*
X-457161Y-932485D01*
X-463806Y-939130D01*
X-467402Y-947812D01*
Y-957209D01*
X-463806Y-965891D01*
X-457161Y-972536D01*
X-448478Y-976133D01*
X-439081D01*
X-430399Y-972536D01*
X-423754Y-965891D01*
X-420158Y-957209D01*
Y-947812D01*
X-423754Y-939130D01*
X-430399Y-932485D01*
X-439081Y-928889D01*
D02*
G37*
G36*
X-1201852D02*
X-1211250D01*
X-1219932Y-932485D01*
X-1226577Y-939130D01*
X-1230173Y-947812D01*
Y-957209D01*
X-1226577Y-965891D01*
X-1219932Y-972536D01*
X-1211250Y-976133D01*
X-1201852D01*
X-1193170Y-972536D01*
X-1186525Y-965891D01*
X-1182929Y-957209D01*
Y-947812D01*
X-1186525Y-939130D01*
X-1193170Y-932485D01*
X-1201852Y-928889D01*
D02*
G37*
G36*
X-1265852D02*
X-1275250D01*
X-1283932Y-932485D01*
X-1290577Y-939130D01*
X-1294173Y-947812D01*
Y-957209D01*
X-1290577Y-965891D01*
X-1283932Y-972536D01*
X-1275250Y-976133D01*
X-1265852D01*
X-1257170Y-972536D01*
X-1250525Y-965891D01*
X-1246929Y-957209D01*
Y-947812D01*
X-1250525Y-939130D01*
X-1257170Y-932485D01*
X-1265852Y-928889D01*
D02*
G37*
G36*
X1453070Y-887796D02*
X1440631D01*
X1428615Y-891016D01*
X1417842Y-897236D01*
X1409046Y-906032D01*
X1402826Y-916805D01*
X1399607Y-928820D01*
Y-941260D01*
X1402826Y-953276D01*
X1409046Y-964049D01*
X1417842Y-972845D01*
X1428615Y-979065D01*
X1440631Y-982284D01*
X1453070D01*
X1465086Y-979065D01*
X1475859Y-972845D01*
X1484655Y-964049D01*
X1490875Y-953276D01*
X1494095Y-941260D01*
Y-928820D01*
X1490875Y-916805D01*
X1484655Y-906032D01*
X1475859Y-897236D01*
X1465086Y-891016D01*
X1453070Y-887796D01*
D02*
G37*
G36*
X1039684D02*
X1027245D01*
X1015229Y-891016D01*
X1004456Y-897236D01*
X995660Y-906032D01*
X989440Y-916805D01*
X986221Y-928820D01*
Y-941260D01*
X989440Y-953276D01*
X995660Y-964049D01*
X1004456Y-972845D01*
X1015229Y-979065D01*
X1027245Y-982284D01*
X1039684D01*
X1051700Y-979065D01*
X1062473Y-972845D01*
X1071269Y-964049D01*
X1077489Y-953276D01*
X1080709Y-941260D01*
Y-928820D01*
X1077489Y-916805D01*
X1071269Y-906032D01*
X1062473Y-897236D01*
X1051700Y-891016D01*
X1039684Y-887796D01*
D02*
G37*
G36*
X626298D02*
X613859D01*
X601843Y-891016D01*
X591070Y-897236D01*
X582274Y-906032D01*
X576054Y-916805D01*
X572835Y-928820D01*
Y-941260D01*
X576054Y-953276D01*
X582274Y-964049D01*
X591070Y-972845D01*
X601843Y-979065D01*
X613859Y-982284D01*
X626298D01*
X638314Y-979065D01*
X649087Y-972845D01*
X657883Y-964049D01*
X664103Y-953276D01*
X667323Y-941260D01*
Y-928820D01*
X664103Y-916805D01*
X657883Y-906032D01*
X649087Y-897236D01*
X638314Y-891016D01*
X626298Y-887796D01*
D02*
G37*
G36*
X212912D02*
X200473D01*
X188457Y-891016D01*
X177684Y-897236D01*
X168888Y-906032D01*
X162668Y-916805D01*
X159448Y-928820D01*
Y-941260D01*
X162668Y-953276D01*
X168888Y-964049D01*
X177684Y-972845D01*
X188457Y-979065D01*
X200473Y-982284D01*
X212912D01*
X224928Y-979065D01*
X235701Y-972845D01*
X244497Y-964049D01*
X250717Y-953276D01*
X253937Y-941260D01*
Y-928820D01*
X250717Y-916805D01*
X244497Y-906032D01*
X235701Y-897236D01*
X224928Y-891016D01*
X212912Y-887796D01*
D02*
G37*
G36*
X-200474D02*
X-212913D01*
X-224929Y-891016D01*
X-235702Y-897236D01*
X-244498Y-906032D01*
X-250718Y-916805D01*
X-253938Y-928820D01*
Y-941260D01*
X-250718Y-953276D01*
X-244498Y-964049D01*
X-235702Y-972845D01*
X-224929Y-979065D01*
X-212913Y-982284D01*
X-200474D01*
X-188458Y-979065D01*
X-177685Y-972845D01*
X-168889Y-964049D01*
X-162669Y-953276D01*
X-159449Y-941260D01*
Y-928820D01*
X-162669Y-916805D01*
X-168889Y-906032D01*
X-177685Y-897236D01*
X-188458Y-891016D01*
X-200474Y-887796D01*
D02*
G37*
G36*
X-613860D02*
X-626299D01*
X-638315Y-891016D01*
X-649088Y-897236D01*
X-657884Y-906032D01*
X-664104Y-916805D01*
X-667323Y-928820D01*
Y-941260D01*
X-664104Y-953276D01*
X-657884Y-964049D01*
X-649088Y-972845D01*
X-638315Y-979065D01*
X-626299Y-982284D01*
X-613860D01*
X-601844Y-979065D01*
X-591071Y-972845D01*
X-582275Y-964049D01*
X-576055Y-953276D01*
X-572835Y-941260D01*
Y-928820D01*
X-576055Y-916805D01*
X-582275Y-906032D01*
X-591071Y-897236D01*
X-601844Y-891016D01*
X-613860Y-887796D01*
D02*
G37*
G36*
X-1027246D02*
X-1039685D01*
X-1051701Y-891016D01*
X-1062474Y-897236D01*
X-1071270Y-906032D01*
X-1077490Y-916805D01*
X-1080709Y-928820D01*
Y-941260D01*
X-1077490Y-953276D01*
X-1071270Y-964049D01*
X-1062474Y-972845D01*
X-1051701Y-979065D01*
X-1039685Y-982284D01*
X-1027246D01*
X-1015230Y-979065D01*
X-1004457Y-972845D01*
X-995661Y-964049D01*
X-989441Y-953276D01*
X-986221Y-941260D01*
Y-928820D01*
X-989441Y-916805D01*
X-995661Y-906032D01*
X-1004457Y-897236D01*
X-1015230Y-891016D01*
X-1027246Y-887796D01*
D02*
G37*
G36*
X-1440630D02*
X-1453069D01*
X-1465085Y-891016D01*
X-1475858Y-897236D01*
X-1484654Y-906032D01*
X-1490874Y-916805D01*
X-1494093Y-928820D01*
Y-941260D01*
X-1490874Y-953276D01*
X-1484654Y-964049D01*
X-1475858Y-972845D01*
X-1465085Y-979065D01*
X-1453069Y-982284D01*
X-1440630D01*
X-1428614Y-979065D01*
X-1417841Y-972845D01*
X-1409045Y-964049D01*
X-1402825Y-953276D01*
X-1399605Y-941260D01*
Y-928820D01*
X-1402825Y-916805D01*
X-1409045Y-906032D01*
X-1417841Y-897236D01*
X-1428614Y-891016D01*
X-1440630Y-887796D01*
D02*
G37*
G36*
X1278464Y-985889D02*
X1269066D01*
X1260384Y-989485D01*
X1253739Y-996130D01*
X1250143Y-1004812D01*
Y-1014209D01*
X1253739Y-1022891D01*
X1260384Y-1029536D01*
X1269066Y-1033133D01*
X1278464D01*
X1287146Y-1029536D01*
X1293791Y-1022891D01*
X1297387Y-1014209D01*
Y-1004812D01*
X1293791Y-996130D01*
X1287146Y-989485D01*
X1278464Y-985889D01*
D02*
G37*
G36*
X1214464D02*
X1205066D01*
X1196384Y-989485D01*
X1189739Y-996130D01*
X1186143Y-1004812D01*
Y-1014209D01*
X1189739Y-1022891D01*
X1196384Y-1029536D01*
X1205066Y-1033133D01*
X1214464D01*
X1223146Y-1029536D01*
X1229791Y-1022891D01*
X1233387Y-1014209D01*
Y-1004812D01*
X1229791Y-996130D01*
X1223146Y-989485D01*
X1214464Y-985889D01*
D02*
G37*
G36*
X451690D02*
X442293D01*
X433611Y-989485D01*
X426966Y-996130D01*
X423370Y-1004812D01*
Y-1014209D01*
X426966Y-1022891D01*
X433611Y-1029536D01*
X442293Y-1033133D01*
X451690D01*
X460372Y-1029536D01*
X467017Y-1022891D01*
X470614Y-1014209D01*
Y-1004812D01*
X467017Y-996130D01*
X460372Y-989485D01*
X451690Y-985889D01*
D02*
G37*
G36*
X387690D02*
X378293D01*
X369611Y-989485D01*
X362966Y-996130D01*
X359370Y-1004812D01*
Y-1014209D01*
X362966Y-1022891D01*
X369611Y-1029536D01*
X378293Y-1033133D01*
X387690D01*
X396372Y-1029536D01*
X403017Y-1022891D01*
X406614Y-1014209D01*
Y-1004812D01*
X403017Y-996130D01*
X396372Y-989485D01*
X387690Y-985889D01*
D02*
G37*
G36*
X-375081D02*
X-384478D01*
X-393161Y-989485D01*
X-399806Y-996130D01*
X-403402Y-1004812D01*
Y-1014209D01*
X-399806Y-1022891D01*
X-393161Y-1029536D01*
X-384478Y-1033133D01*
X-375081D01*
X-366399Y-1029536D01*
X-359754Y-1022891D01*
X-356158Y-1014209D01*
Y-1004812D01*
X-359754Y-996130D01*
X-366399Y-989485D01*
X-375081Y-985889D01*
D02*
G37*
G36*
X-439081D02*
X-448478D01*
X-457161Y-989485D01*
X-463806Y-996130D01*
X-467402Y-1004812D01*
Y-1014209D01*
X-463806Y-1022891D01*
X-457161Y-1029536D01*
X-448478Y-1033133D01*
X-439081D01*
X-430399Y-1029536D01*
X-423754Y-1022891D01*
X-420158Y-1014209D01*
Y-1004812D01*
X-423754Y-996130D01*
X-430399Y-989485D01*
X-439081Y-985889D01*
D02*
G37*
G36*
X-1201852D02*
X-1211250D01*
X-1219932Y-989485D01*
X-1226577Y-996130D01*
X-1230173Y-1004812D01*
Y-1014209D01*
X-1226577Y-1022891D01*
X-1219932Y-1029536D01*
X-1211250Y-1033133D01*
X-1201852D01*
X-1193170Y-1029536D01*
X-1186525Y-1022891D01*
X-1182929Y-1014209D01*
Y-1004812D01*
X-1186525Y-996130D01*
X-1193170Y-989485D01*
X-1201852Y-985889D01*
D02*
G37*
G36*
X-1265852D02*
X-1275250D01*
X-1283932Y-989485D01*
X-1290577Y-996130D01*
X-1294173Y-1004812D01*
Y-1014209D01*
X-1290577Y-1022891D01*
X-1283932Y-1029536D01*
X-1275250Y-1033133D01*
X-1265852D01*
X-1257170Y-1029536D01*
X-1250525Y-1022891D01*
X-1246929Y-1014209D01*
Y-1004812D01*
X-1250525Y-996130D01*
X-1257170Y-989485D01*
X-1265852Y-985889D01*
D02*
G37*
G36*
X1027337Y-1025591D02*
X1017939D01*
X1009257Y-1029187D01*
X1002612Y-1035832D01*
X999016Y-1044514D01*
Y-1053912D01*
X1002612Y-1062594D01*
X1009257Y-1069239D01*
X1017939Y-1072835D01*
X1027337D01*
X1036019Y-1069239D01*
X1042664Y-1062594D01*
X1046260Y-1053912D01*
Y-1044514D01*
X1042664Y-1035832D01*
X1036019Y-1029187D01*
X1027337Y-1025591D01*
D02*
G37*
G36*
X-626207D02*
X-635604D01*
X-644286Y-1029187D01*
X-650931Y-1035832D01*
X-654528Y-1044514D01*
Y-1053912D01*
X-650931Y-1062594D01*
X-644286Y-1069239D01*
X-635604Y-1072835D01*
X-626207D01*
X-617525Y-1069239D01*
X-610880Y-1062594D01*
X-607284Y-1053912D01*
Y-1044514D01*
X-610880Y-1035832D01*
X-617525Y-1029187D01*
X-626207Y-1025591D01*
D02*
G37*
G36*
X1453070Y-1084646D02*
X1440631D01*
X1428615Y-1087866D01*
X1417842Y-1094085D01*
X1409046Y-1102882D01*
X1402826Y-1113655D01*
X1399607Y-1125670D01*
Y-1138110D01*
X1402826Y-1150126D01*
X1409046Y-1160899D01*
X1417842Y-1169695D01*
X1428615Y-1175915D01*
X1440631Y-1179134D01*
X1453070D01*
X1465086Y-1175915D01*
X1475859Y-1169695D01*
X1484655Y-1160899D01*
X1490875Y-1150126D01*
X1494095Y-1138110D01*
Y-1125670D01*
X1490875Y-1113655D01*
X1484655Y-1102882D01*
X1475859Y-1094085D01*
X1465086Y-1087866D01*
X1453070Y-1084646D01*
D02*
G37*
G36*
X1039684D02*
X1027245D01*
X1015229Y-1087866D01*
X1004456Y-1094085D01*
X995660Y-1102882D01*
X989440Y-1113655D01*
X986221Y-1125670D01*
Y-1138110D01*
X989440Y-1150126D01*
X995660Y-1160899D01*
X1004456Y-1169695D01*
X1015229Y-1175915D01*
X1027245Y-1179134D01*
X1039684D01*
X1051700Y-1175915D01*
X1062473Y-1169695D01*
X1071269Y-1160899D01*
X1077489Y-1150126D01*
X1080709Y-1138110D01*
Y-1125670D01*
X1077489Y-1113655D01*
X1071269Y-1102882D01*
X1062473Y-1094085D01*
X1051700Y-1087866D01*
X1039684Y-1084646D01*
D02*
G37*
G36*
X624778Y-1039370D02*
X615380D01*
X606698Y-1042967D01*
X600053Y-1049612D01*
X596457Y-1058294D01*
Y-1067691D01*
X600053Y-1076373D01*
X605413Y-1081733D01*
X604567Y-1087136D01*
X601843Y-1087866D01*
X591070Y-1094085D01*
X582274Y-1102882D01*
X576054Y-1113655D01*
X572835Y-1125670D01*
Y-1138110D01*
X576054Y-1150126D01*
X582274Y-1160899D01*
X591070Y-1169695D01*
X601843Y-1175915D01*
X613859Y-1179134D01*
X626298D01*
X638314Y-1175915D01*
X649087Y-1169695D01*
X657883Y-1160899D01*
X664103Y-1150126D01*
X667323Y-1138110D01*
Y-1125670D01*
X664103Y-1113655D01*
X657883Y-1102882D01*
X649087Y-1094085D01*
X638314Y-1087866D01*
X635590Y-1087136D01*
X634745Y-1081733D01*
X640105Y-1076373D01*
X643701Y-1067691D01*
Y-1058294D01*
X640105Y-1049612D01*
X633460Y-1042967D01*
X624778Y-1039370D01*
D02*
G37*
G36*
X212912Y-1084646D02*
X200473D01*
X188457Y-1087866D01*
X177684Y-1094085D01*
X168888Y-1102882D01*
X162668Y-1113655D01*
X159448Y-1125670D01*
Y-1138110D01*
X162668Y-1150126D01*
X168888Y-1160899D01*
X177684Y-1169695D01*
X188457Y-1175915D01*
X200473Y-1179134D01*
X212912D01*
X224928Y-1175915D01*
X235701Y-1169695D01*
X244497Y-1160899D01*
X250717Y-1150126D01*
X253937Y-1138110D01*
Y-1125670D01*
X250717Y-1113655D01*
X244497Y-1102882D01*
X235701Y-1094085D01*
X224928Y-1087866D01*
X212912Y-1084646D01*
D02*
G37*
G36*
X-200474D02*
X-212913D01*
X-224929Y-1087866D01*
X-235702Y-1094085D01*
X-244498Y-1102882D01*
X-250718Y-1113655D01*
X-253938Y-1125670D01*
Y-1138110D01*
X-250718Y-1150126D01*
X-244498Y-1160899D01*
X-235702Y-1169695D01*
X-224929Y-1175915D01*
X-212913Y-1179134D01*
X-200474D01*
X-188458Y-1175915D01*
X-177685Y-1169695D01*
X-168889Y-1160899D01*
X-162669Y-1150126D01*
X-159449Y-1138110D01*
Y-1125670D01*
X-162669Y-1113655D01*
X-168889Y-1102882D01*
X-177685Y-1094085D01*
X-188458Y-1087866D01*
X-200474Y-1084646D01*
D02*
G37*
G36*
X-613860D02*
X-626299D01*
X-638315Y-1087866D01*
X-649088Y-1094085D01*
X-657884Y-1102882D01*
X-664104Y-1113655D01*
X-667323Y-1125670D01*
Y-1138110D01*
X-664104Y-1150126D01*
X-657884Y-1160899D01*
X-649088Y-1169695D01*
X-638315Y-1175915D01*
X-626299Y-1179134D01*
X-613860D01*
X-601844Y-1175915D01*
X-591071Y-1169695D01*
X-582275Y-1160899D01*
X-576055Y-1150126D01*
X-572835Y-1138110D01*
Y-1125670D01*
X-576055Y-1113655D01*
X-582275Y-1102882D01*
X-591071Y-1094085D01*
X-601844Y-1087866D01*
X-613860Y-1084646D01*
D02*
G37*
G36*
X-1028766Y-1039370D02*
X-1038163D01*
X-1046845Y-1042967D01*
X-1053490Y-1049612D01*
X-1057087Y-1058294D01*
Y-1067691D01*
X-1053490Y-1076373D01*
X-1048131Y-1081733D01*
X-1048976Y-1087136D01*
X-1051701Y-1087866D01*
X-1062474Y-1094085D01*
X-1071270Y-1102882D01*
X-1077490Y-1113655D01*
X-1080709Y-1125670D01*
Y-1138110D01*
X-1077490Y-1150126D01*
X-1071270Y-1160899D01*
X-1062474Y-1169695D01*
X-1051701Y-1175915D01*
X-1039685Y-1179134D01*
X-1027246D01*
X-1015230Y-1175915D01*
X-1004457Y-1169695D01*
X-995661Y-1160899D01*
X-989441Y-1150126D01*
X-986221Y-1138110D01*
Y-1125670D01*
X-989441Y-1113655D01*
X-995661Y-1102882D01*
X-1004457Y-1094085D01*
X-1015230Y-1087866D01*
X-1017954Y-1087136D01*
X-1018799Y-1081733D01*
X-1013439Y-1076373D01*
X-1009843Y-1067691D01*
Y-1058294D01*
X-1013439Y-1049612D01*
X-1020084Y-1042967D01*
X-1028766Y-1039370D01*
D02*
G37*
G36*
X-1440630Y-1084646D02*
X-1453069D01*
X-1465085Y-1087866D01*
X-1475858Y-1094085D01*
X-1484654Y-1102882D01*
X-1490874Y-1113655D01*
X-1494093Y-1125670D01*
Y-1138110D01*
X-1490874Y-1150126D01*
X-1484654Y-1160899D01*
X-1475858Y-1169695D01*
X-1465085Y-1175915D01*
X-1453069Y-1179134D01*
X-1440630D01*
X-1428614Y-1175915D01*
X-1417841Y-1169695D01*
X-1409045Y-1160899D01*
X-1402825Y-1150126D01*
X-1399605Y-1138110D01*
Y-1125670D01*
X-1402825Y-1113655D01*
X-1409045Y-1102882D01*
X-1417841Y-1094085D01*
X-1428614Y-1087866D01*
X-1440630Y-1084646D01*
D02*
G37*
G36*
X1108045Y-1172244D02*
X1098647D01*
X1089965Y-1175840D01*
X1083320Y-1182485D01*
X1079724Y-1191167D01*
Y-1200564D01*
X1083320Y-1209246D01*
X1089965Y-1215891D01*
X1098647Y-1219488D01*
X1108045D01*
X1116727Y-1215891D01*
X1123372Y-1209246D01*
X1126968Y-1200564D01*
Y-1191167D01*
X1123372Y-1182485D01*
X1116727Y-1175840D01*
X1108045Y-1172244D01*
D02*
G37*
G36*
X281273D02*
X271875D01*
X263193Y-1175840D01*
X256548Y-1182485D01*
X252952Y-1191167D01*
Y-1200564D01*
X256548Y-1209246D01*
X263193Y-1215891D01*
X271875Y-1219488D01*
X281273D01*
X289955Y-1215891D01*
X296600Y-1209246D01*
X300196Y-1200564D01*
Y-1191167D01*
X296600Y-1182485D01*
X289955Y-1175840D01*
X281273Y-1172244D01*
D02*
G37*
G36*
X-545499D02*
X-554896D01*
X-563578Y-1175840D01*
X-570223Y-1182485D01*
X-573820Y-1191167D01*
Y-1200564D01*
X-570223Y-1209246D01*
X-563578Y-1215891D01*
X-554896Y-1219488D01*
X-545499D01*
X-536817Y-1215891D01*
X-530172Y-1209246D01*
X-526576Y-1200564D01*
Y-1191167D01*
X-530172Y-1182485D01*
X-536817Y-1175840D01*
X-545499Y-1172244D01*
D02*
G37*
G36*
X-1372271D02*
X-1381668D01*
X-1390350Y-1175840D01*
X-1396995Y-1182485D01*
X-1400591Y-1191167D01*
Y-1200564D01*
X-1396995Y-1209246D01*
X-1390350Y-1215891D01*
X-1381668Y-1219488D01*
X-1372271D01*
X-1363589Y-1215891D01*
X-1356944Y-1209246D01*
X-1353347Y-1200564D01*
Y-1191167D01*
X-1356944Y-1182485D01*
X-1363589Y-1175840D01*
X-1372271Y-1172244D01*
D02*
G37*
G36*
X300959Y-1264764D02*
X291561D01*
X282879Y-1268361D01*
X276234Y-1275005D01*
X272638Y-1283688D01*
Y-1293085D01*
X276234Y-1301767D01*
X282879Y-1308412D01*
X291561Y-1312008D01*
X300959D01*
X309641Y-1308412D01*
X316286Y-1301767D01*
X319882Y-1293085D01*
Y-1283688D01*
X316286Y-1275005D01*
X309641Y-1268361D01*
X300959Y-1264764D01*
D02*
G37*
G36*
X-1352585D02*
X-1361982D01*
X-1370664Y-1268361D01*
X-1377309Y-1275005D01*
X-1380906Y-1283688D01*
Y-1293085D01*
X-1377309Y-1301767D01*
X-1370664Y-1308412D01*
X-1361982Y-1312008D01*
X-1352585D01*
X-1343903Y-1308412D01*
X-1337258Y-1301767D01*
X-1333661Y-1293085D01*
Y-1283688D01*
X-1337258Y-1275005D01*
X-1343903Y-1268361D01*
X-1352585Y-1264764D01*
D02*
G37*
G36*
X1269463Y-1290355D02*
X1260065D01*
X1251383Y-1293951D01*
X1244738Y-1300596D01*
X1241142Y-1309278D01*
Y-1318676D01*
X1244738Y-1327358D01*
X1251383Y-1334003D01*
X1260065Y-1337599D01*
X1268283Y-1337599D01*
X1269066Y-1342274D01*
X1265677Y-1343678D01*
X1260384Y-1345870D01*
X1253739Y-1352515D01*
X1250143Y-1361198D01*
Y-1370595D01*
X1253739Y-1379277D01*
X1260384Y-1385922D01*
X1269066Y-1389518D01*
X1278464D01*
X1287146Y-1385922D01*
X1293791Y-1379277D01*
X1297387Y-1370595D01*
Y-1361198D01*
X1293791Y-1352515D01*
X1287146Y-1345870D01*
X1278464Y-1342274D01*
X1270247Y-1342274D01*
X1269463Y-1337599D01*
X1272853Y-1336195D01*
X1278145Y-1334003D01*
X1284790Y-1327358D01*
X1288386Y-1318676D01*
Y-1309278D01*
X1284790Y-1300596D01*
X1278145Y-1293951D01*
X1269463Y-1290355D01*
D02*
G37*
G36*
X1214464Y-1342274D02*
X1205066D01*
X1196384Y-1345870D01*
X1189739Y-1352515D01*
X1186143Y-1361198D01*
Y-1370595D01*
X1189739Y-1379277D01*
X1196384Y-1385922D01*
X1205066Y-1389518D01*
X1214464D01*
X1223146Y-1385922D01*
X1229791Y-1379277D01*
X1233387Y-1370595D01*
Y-1361198D01*
X1229791Y-1352515D01*
X1223146Y-1345870D01*
X1214464Y-1342274D01*
D02*
G37*
G36*
X451690D02*
X442293D01*
X433611Y-1345870D01*
X426966Y-1352515D01*
X423370Y-1361198D01*
Y-1370595D01*
X426966Y-1379277D01*
X433611Y-1385922D01*
X442293Y-1389518D01*
X451690D01*
X460372Y-1385922D01*
X467017Y-1379277D01*
X470614Y-1370595D01*
Y-1361198D01*
X467017Y-1352515D01*
X460372Y-1345870D01*
X451690Y-1342274D01*
D02*
G37*
G36*
X387690D02*
X378293D01*
X369611Y-1345870D01*
X362966Y-1352515D01*
X359370Y-1361198D01*
Y-1370595D01*
X362966Y-1379277D01*
X369611Y-1385922D01*
X378293Y-1389518D01*
X387690D01*
X396372Y-1385922D01*
X403017Y-1379277D01*
X406614Y-1370595D01*
Y-1361198D01*
X403017Y-1352515D01*
X396372Y-1345870D01*
X387690Y-1342274D01*
D02*
G37*
G36*
X-384081Y-1290355D02*
X-393478D01*
X-402160Y-1293951D01*
X-408805Y-1300596D01*
X-412401Y-1309278D01*
Y-1318676D01*
X-408805Y-1327358D01*
X-402160Y-1334003D01*
X-393478Y-1337599D01*
X-385262Y-1337599D01*
X-384479Y-1342274D01*
X-387867Y-1343678D01*
X-393161Y-1345870D01*
X-399806Y-1352515D01*
X-403402Y-1361198D01*
Y-1370595D01*
X-399806Y-1379277D01*
X-393161Y-1385922D01*
X-384478Y-1389518D01*
X-375081D01*
X-366399Y-1385922D01*
X-359754Y-1379277D01*
X-356158Y-1370595D01*
Y-1361198D01*
X-359754Y-1352515D01*
X-366399Y-1345870D01*
X-375081Y-1342274D01*
X-383297Y-1342274D01*
X-384080Y-1337599D01*
X-380692Y-1336195D01*
X-375399Y-1334003D01*
X-368754Y-1327358D01*
X-365157Y-1318676D01*
Y-1309278D01*
X-368754Y-1300596D01*
X-375399Y-1293951D01*
X-384081Y-1290355D01*
D02*
G37*
G36*
X-439081Y-1342274D02*
X-448478D01*
X-457161Y-1345870D01*
X-463806Y-1352515D01*
X-467402Y-1361198D01*
Y-1370595D01*
X-463806Y-1379277D01*
X-457161Y-1385922D01*
X-448478Y-1389518D01*
X-439081D01*
X-430399Y-1385922D01*
X-423754Y-1379277D01*
X-420158Y-1370595D01*
Y-1361198D01*
X-423754Y-1352515D01*
X-430399Y-1345870D01*
X-439081Y-1342274D01*
D02*
G37*
G36*
X-1201852D02*
X-1211250D01*
X-1219932Y-1345870D01*
X-1226577Y-1352515D01*
X-1230173Y-1361198D01*
Y-1370595D01*
X-1226577Y-1379277D01*
X-1219932Y-1385922D01*
X-1211250Y-1389518D01*
X-1201852D01*
X-1193170Y-1385922D01*
X-1186525Y-1379277D01*
X-1182929Y-1370595D01*
Y-1361198D01*
X-1186525Y-1352515D01*
X-1193170Y-1345870D01*
X-1201852Y-1342274D01*
D02*
G37*
G36*
X-1265852D02*
X-1275250D01*
X-1283932Y-1345870D01*
X-1290577Y-1352515D01*
X-1294173Y-1361198D01*
Y-1370595D01*
X-1290577Y-1379277D01*
X-1283932Y-1385922D01*
X-1275250Y-1389518D01*
X-1265852D01*
X-1257170Y-1385922D01*
X-1250525Y-1379277D01*
X-1246929Y-1370595D01*
Y-1361198D01*
X-1250525Y-1352515D01*
X-1257170Y-1345870D01*
X-1265852Y-1342274D01*
D02*
G37*
G36*
X1453070Y-1301180D02*
X1440631D01*
X1428615Y-1304400D01*
X1417842Y-1310620D01*
X1409046Y-1319416D01*
X1402826Y-1330189D01*
X1399607Y-1342204D01*
Y-1354644D01*
X1402826Y-1366660D01*
X1409046Y-1377433D01*
X1417842Y-1386229D01*
X1428615Y-1392449D01*
X1440631Y-1395668D01*
X1453070D01*
X1465086Y-1392449D01*
X1475859Y-1386229D01*
X1484655Y-1377433D01*
X1490875Y-1366660D01*
X1494095Y-1354644D01*
Y-1342204D01*
X1490875Y-1330189D01*
X1484655Y-1319416D01*
X1475859Y-1310620D01*
X1465086Y-1304400D01*
X1453070Y-1301180D01*
D02*
G37*
G36*
X1039684D02*
X1027245D01*
X1015229Y-1304400D01*
X1004456Y-1310620D01*
X995660Y-1319416D01*
X989440Y-1330189D01*
X986221Y-1342204D01*
Y-1354644D01*
X989440Y-1366660D01*
X995660Y-1377433D01*
X1004456Y-1386229D01*
X1015229Y-1392449D01*
X1027245Y-1395668D01*
X1039684D01*
X1051700Y-1392449D01*
X1062473Y-1386229D01*
X1071269Y-1377433D01*
X1077489Y-1366660D01*
X1080709Y-1354644D01*
Y-1342204D01*
X1077489Y-1330189D01*
X1071269Y-1319416D01*
X1062473Y-1310620D01*
X1051700Y-1304400D01*
X1039684Y-1301180D01*
D02*
G37*
G36*
X626298D02*
X613859D01*
X601843Y-1304400D01*
X591070Y-1310620D01*
X582274Y-1319416D01*
X576054Y-1330189D01*
X572835Y-1342204D01*
Y-1354644D01*
X576054Y-1366660D01*
X582274Y-1377433D01*
X591070Y-1386229D01*
X601843Y-1392449D01*
X613859Y-1395668D01*
X626298D01*
X638314Y-1392449D01*
X649087Y-1386229D01*
X657883Y-1377433D01*
X664103Y-1366660D01*
X667323Y-1354644D01*
Y-1342204D01*
X664103Y-1330189D01*
X657883Y-1319416D01*
X649087Y-1310620D01*
X638314Y-1304400D01*
X626298Y-1301180D01*
D02*
G37*
G36*
X212912D02*
X200473D01*
X188457Y-1304400D01*
X177684Y-1310620D01*
X168888Y-1319416D01*
X162668Y-1330189D01*
X159448Y-1342204D01*
Y-1354644D01*
X162668Y-1366660D01*
X168888Y-1377433D01*
X177684Y-1386229D01*
X188457Y-1392449D01*
X200473Y-1395668D01*
X212912D01*
X224928Y-1392449D01*
X235701Y-1386229D01*
X244497Y-1377433D01*
X250717Y-1366660D01*
X253937Y-1354644D01*
Y-1342204D01*
X250717Y-1330189D01*
X244497Y-1319416D01*
X235701Y-1310620D01*
X224928Y-1304400D01*
X212912Y-1301180D01*
D02*
G37*
G36*
X-200474D02*
X-212913D01*
X-224929Y-1304400D01*
X-235702Y-1310620D01*
X-244498Y-1319416D01*
X-250718Y-1330189D01*
X-253938Y-1342204D01*
Y-1354644D01*
X-250718Y-1366660D01*
X-244498Y-1377433D01*
X-235702Y-1386229D01*
X-224929Y-1392449D01*
X-212913Y-1395668D01*
X-200474D01*
X-188458Y-1392449D01*
X-177685Y-1386229D01*
X-168889Y-1377433D01*
X-162669Y-1366660D01*
X-159449Y-1354644D01*
Y-1342204D01*
X-162669Y-1330189D01*
X-168889Y-1319416D01*
X-177685Y-1310620D01*
X-188458Y-1304400D01*
X-200474Y-1301180D01*
D02*
G37*
G36*
X-613860D02*
X-626299D01*
X-638315Y-1304400D01*
X-649088Y-1310620D01*
X-657884Y-1319416D01*
X-664104Y-1330189D01*
X-667323Y-1342204D01*
Y-1354644D01*
X-664104Y-1366660D01*
X-657884Y-1377433D01*
X-649088Y-1386229D01*
X-638315Y-1392449D01*
X-626299Y-1395668D01*
X-613860D01*
X-601844Y-1392449D01*
X-591071Y-1386229D01*
X-582275Y-1377433D01*
X-576055Y-1366660D01*
X-572835Y-1354644D01*
Y-1342204D01*
X-576055Y-1330189D01*
X-582275Y-1319416D01*
X-591071Y-1310620D01*
X-601844Y-1304400D01*
X-613860Y-1301180D01*
D02*
G37*
G36*
X-1027246D02*
X-1039685D01*
X-1051701Y-1304400D01*
X-1062474Y-1310620D01*
X-1071270Y-1319416D01*
X-1077490Y-1330189D01*
X-1080709Y-1342204D01*
Y-1354644D01*
X-1077490Y-1366660D01*
X-1071270Y-1377433D01*
X-1062474Y-1386229D01*
X-1051701Y-1392449D01*
X-1039685Y-1395668D01*
X-1027246D01*
X-1015230Y-1392449D01*
X-1004457Y-1386229D01*
X-995661Y-1377433D01*
X-989441Y-1366660D01*
X-986221Y-1354644D01*
Y-1342204D01*
X-989441Y-1330189D01*
X-995661Y-1319416D01*
X-1004457Y-1310620D01*
X-1015230Y-1304400D01*
X-1027246Y-1301180D01*
D02*
G37*
G36*
X-1440630D02*
X-1453069D01*
X-1465085Y-1304400D01*
X-1475858Y-1310620D01*
X-1484654Y-1319416D01*
X-1490874Y-1330189D01*
X-1494093Y-1342204D01*
Y-1354644D01*
X-1490874Y-1366660D01*
X-1484654Y-1377433D01*
X-1475858Y-1386229D01*
X-1465085Y-1392449D01*
X-1453069Y-1395668D01*
X-1440630D01*
X-1428614Y-1392449D01*
X-1417841Y-1386229D01*
X-1409045Y-1377433D01*
X-1402825Y-1366660D01*
X-1399605Y-1354644D01*
Y-1342204D01*
X-1402825Y-1330189D01*
X-1409045Y-1319416D01*
X-1417841Y-1310620D01*
X-1428614Y-1304400D01*
X-1440630Y-1301180D01*
D02*
G37*
G36*
X1278464Y-1399274D02*
X1269066D01*
X1260384Y-1402870D01*
X1253739Y-1409515D01*
X1250143Y-1418198D01*
Y-1427595D01*
X1253739Y-1436277D01*
X1260384Y-1442922D01*
X1269066Y-1446518D01*
X1278464D01*
X1287146Y-1442922D01*
X1293791Y-1436277D01*
X1297387Y-1427595D01*
Y-1418198D01*
X1293791Y-1409515D01*
X1287146Y-1402870D01*
X1278464Y-1399274D01*
D02*
G37*
G36*
X1214464D02*
X1205066D01*
X1196384Y-1402870D01*
X1189739Y-1409515D01*
X1186143Y-1418198D01*
Y-1427595D01*
X1189739Y-1436277D01*
X1196384Y-1442922D01*
X1205066Y-1446518D01*
X1214464D01*
X1223146Y-1442922D01*
X1229791Y-1436277D01*
X1233387Y-1427595D01*
Y-1418198D01*
X1229791Y-1409515D01*
X1223146Y-1402870D01*
X1214464Y-1399274D01*
D02*
G37*
G36*
X451690D02*
X442293D01*
X433611Y-1402870D01*
X426966Y-1409515D01*
X423370Y-1418198D01*
Y-1427595D01*
X426966Y-1436277D01*
X433611Y-1442922D01*
X442293Y-1446518D01*
X451690D01*
X460372Y-1442922D01*
X467017Y-1436277D01*
X470614Y-1427595D01*
Y-1418198D01*
X467017Y-1409515D01*
X460372Y-1402870D01*
X451690Y-1399274D01*
D02*
G37*
G36*
X387690D02*
X378293D01*
X369611Y-1402870D01*
X362966Y-1409515D01*
X359370Y-1418198D01*
Y-1427595D01*
X362966Y-1436277D01*
X369611Y-1442922D01*
X378293Y-1446518D01*
X387690D01*
X396372Y-1442922D01*
X403017Y-1436277D01*
X406614Y-1427595D01*
Y-1418198D01*
X403017Y-1409515D01*
X396372Y-1402870D01*
X387690Y-1399274D01*
D02*
G37*
G36*
X-375081D02*
X-384478D01*
X-393161Y-1402870D01*
X-399806Y-1409515D01*
X-403402Y-1418198D01*
Y-1427595D01*
X-399806Y-1436277D01*
X-393161Y-1442922D01*
X-384478Y-1446518D01*
X-375081D01*
X-366399Y-1442922D01*
X-359754Y-1436277D01*
X-356158Y-1427595D01*
Y-1418198D01*
X-359754Y-1409515D01*
X-366399Y-1402870D01*
X-375081Y-1399274D01*
D02*
G37*
G36*
X-439081D02*
X-448478D01*
X-457161Y-1402870D01*
X-463806Y-1409515D01*
X-467402Y-1418198D01*
Y-1427595D01*
X-463806Y-1436277D01*
X-457161Y-1442922D01*
X-448478Y-1446518D01*
X-439081D01*
X-430399Y-1442922D01*
X-423754Y-1436277D01*
X-420158Y-1427595D01*
Y-1418198D01*
X-423754Y-1409515D01*
X-430399Y-1402870D01*
X-439081Y-1399274D01*
D02*
G37*
G36*
X-1201852D02*
X-1211250D01*
X-1219932Y-1402870D01*
X-1226577Y-1409515D01*
X-1230173Y-1418198D01*
Y-1427595D01*
X-1226577Y-1436277D01*
X-1219932Y-1442922D01*
X-1211250Y-1446518D01*
X-1201852D01*
X-1193170Y-1442922D01*
X-1186525Y-1436277D01*
X-1182929Y-1427595D01*
Y-1418198D01*
X-1186525Y-1409515D01*
X-1193170Y-1402870D01*
X-1201852Y-1399274D01*
D02*
G37*
G36*
X-1265852D02*
X-1275250D01*
X-1283932Y-1402870D01*
X-1290577Y-1409515D01*
X-1294173Y-1418198D01*
Y-1427595D01*
X-1290577Y-1436277D01*
X-1283932Y-1442922D01*
X-1275250Y-1446518D01*
X-1265852D01*
X-1257170Y-1442922D01*
X-1250525Y-1436277D01*
X-1246929Y-1427595D01*
Y-1418198D01*
X-1250525Y-1409515D01*
X-1257170Y-1402870D01*
X-1265852Y-1399274D01*
D02*
G37*
%LPD*%
D28*
X826772Y0D02*
D03*
X0Y826772D02*
D03*
Y-826772D02*
D03*
Y0D02*
D03*
X-826772D02*
D03*
D33*
X-1446849Y-1348424D02*
D03*
Y-1545276D02*
D03*
X-1033465Y-1348424D02*
D03*
Y-1545276D02*
D03*
X620079Y1131890D02*
D03*
Y935040D02*
D03*
X1446851D02*
D03*
Y1131890D02*
D03*
X-1033465Y1545276D02*
D03*
Y1348426D02*
D03*
X-206693D02*
D03*
Y1545276D02*
D03*
X620079D02*
D03*
Y1348426D02*
D03*
X1446851D02*
D03*
Y1545276D02*
D03*
X-206693Y-1348424D02*
D03*
Y-1545276D02*
D03*
X620079D02*
D03*
Y-1348424D02*
D03*
X1446851D02*
D03*
Y-1545276D02*
D03*
X-1033465Y-1131890D02*
D03*
Y-935040D02*
D03*
X-206693D02*
D03*
Y-1131890D02*
D03*
X620079D02*
D03*
Y-935040D02*
D03*
X1446851D02*
D03*
Y-1131890D02*
D03*
X-1033465Y-718504D02*
D03*
Y-521654D02*
D03*
X-206693D02*
D03*
Y-718504D02*
D03*
X620079D02*
D03*
Y-521654D02*
D03*
X1446851D02*
D03*
Y-718504D02*
D03*
X-1033465Y-305118D02*
D03*
Y-108268D02*
D03*
X-206693D02*
D03*
Y-305118D02*
D03*
X620079D02*
D03*
Y-108268D02*
D03*
X1446851D02*
D03*
Y-305118D02*
D03*
X-1033465Y108268D02*
D03*
Y305118D02*
D03*
X-206693D02*
D03*
Y108268D02*
D03*
X620079D02*
D03*
Y305118D02*
D03*
X1446851D02*
D03*
Y108268D02*
D03*
X-1033465Y521654D02*
D03*
Y718504D02*
D03*
X-206693D02*
D03*
Y521654D02*
D03*
X620079D02*
D03*
Y718504D02*
D03*
X1446851D02*
D03*
Y521654D02*
D03*
X-1033465Y935040D02*
D03*
Y1131890D02*
D03*
X-206693D02*
D03*
Y935040D02*
D03*
X206693D02*
D03*
Y1131890D02*
D03*
X1033465D02*
D03*
Y935040D02*
D03*
X-1446849Y1348426D02*
D03*
Y1545276D02*
D03*
X-620079D02*
D03*
Y1348426D02*
D03*
X206693D02*
D03*
Y1545276D02*
D03*
X1033465D02*
D03*
Y1348426D02*
D03*
X-620079Y-1545276D02*
D03*
Y-1348424D02*
D03*
X206693D02*
D03*
Y-1545276D02*
D03*
X1033465D02*
D03*
Y-1348424D02*
D03*
X-1446849Y-935040D02*
D03*
Y-1131890D02*
D03*
X-620079D02*
D03*
Y-935040D02*
D03*
X206693D02*
D03*
Y-1131890D02*
D03*
X1033465D02*
D03*
Y-935040D02*
D03*
X-1446849Y-521654D02*
D03*
Y-718504D02*
D03*
X-620079D02*
D03*
Y-521654D02*
D03*
X206693D02*
D03*
Y-718504D02*
D03*
X1033465D02*
D03*
Y-521654D02*
D03*
X-1446849Y-108268D02*
D03*
Y-305118D02*
D03*
X-620079D02*
D03*
Y-108268D02*
D03*
X206693D02*
D03*
Y-305118D02*
D03*
X1033465D02*
D03*
Y-108268D02*
D03*
X-1446849Y305118D02*
D03*
Y108268D02*
D03*
X-620079D02*
D03*
Y305118D02*
D03*
X206693D02*
D03*
Y108268D02*
D03*
X1033465D02*
D03*
Y305118D02*
D03*
X-1446849Y718504D02*
D03*
Y521654D02*
D03*
X-620079D02*
D03*
Y718504D02*
D03*
X206693D02*
D03*
Y521654D02*
D03*
X1033465D02*
D03*
Y718504D02*
D03*
X-1446849Y1131890D02*
D03*
Y935040D02*
D03*
X-620079D02*
D03*
Y1131890D02*
D03*
D34*
X-1216555Y1563121D02*
D03*
X-1357284Y1596457D02*
D03*
X-1270551Y-1422896D02*
D03*
Y-1365896D02*
D03*
X-1206551D02*
D03*
Y-1422896D02*
D03*
X446992Y1057418D02*
D03*
Y1114418D02*
D03*
X382992D02*
D03*
Y1057418D02*
D03*
X1209765D02*
D03*
Y1114418D02*
D03*
X1273765D02*
D03*
Y1057418D02*
D03*
X-1207575Y1458373D02*
D03*
Y1515373D02*
D03*
X-1271575D02*
D03*
Y1458373D02*
D03*
X-444803D02*
D03*
Y1515373D02*
D03*
X-380803D02*
D03*
Y1458373D02*
D03*
X445968D02*
D03*
Y1515373D02*
D03*
X381968D02*
D03*
Y1458373D02*
D03*
X1208742D02*
D03*
Y1515373D02*
D03*
X1272742D02*
D03*
Y1458373D02*
D03*
X-379780Y-1422896D02*
D03*
Y-1365896D02*
D03*
X-443780D02*
D03*
Y-1422896D02*
D03*
X382992D02*
D03*
Y-1365896D02*
D03*
X446992D02*
D03*
Y-1422896D02*
D03*
X1273765D02*
D03*
Y-1365896D02*
D03*
X1209765D02*
D03*
Y-1422896D02*
D03*
X-1270551Y-1009511D02*
D03*
Y-952511D02*
D03*
X-1206551D02*
D03*
Y-1009511D02*
D03*
X-379780D02*
D03*
Y-952511D02*
D03*
X-443780D02*
D03*
Y-1009511D02*
D03*
X382992D02*
D03*
Y-952511D02*
D03*
X446992D02*
D03*
Y-1009511D02*
D03*
X1273765D02*
D03*
Y-952511D02*
D03*
X1209765D02*
D03*
Y-1009511D02*
D03*
X-1270551Y-596125D02*
D03*
Y-539125D02*
D03*
X-1206551D02*
D03*
Y-596125D02*
D03*
X-379780D02*
D03*
Y-539125D02*
D03*
X-443780D02*
D03*
Y-596125D02*
D03*
X382992D02*
D03*
Y-539125D02*
D03*
X446992D02*
D03*
Y-596125D02*
D03*
X1273765D02*
D03*
Y-539125D02*
D03*
X1209765D02*
D03*
Y-596125D02*
D03*
X-1270551Y-182739D02*
D03*
Y-125739D02*
D03*
X-1206551D02*
D03*
Y-182739D02*
D03*
X-379780D02*
D03*
Y-125739D02*
D03*
X-443780D02*
D03*
Y-182739D02*
D03*
X382992D02*
D03*
Y-125739D02*
D03*
X446992D02*
D03*
Y-182739D02*
D03*
X1273765D02*
D03*
Y-125739D02*
D03*
X1209765D02*
D03*
Y-182739D02*
D03*
X-1270551Y230647D02*
D03*
Y287647D02*
D03*
X-1206551D02*
D03*
Y230647D02*
D03*
X-379780D02*
D03*
Y287647D02*
D03*
X-443780D02*
D03*
Y230647D02*
D03*
X382992D02*
D03*
Y287647D02*
D03*
X446992D02*
D03*
Y230647D02*
D03*
X1273765D02*
D03*
Y287647D02*
D03*
X1209765D02*
D03*
Y230647D02*
D03*
X-1270551Y644032D02*
D03*
Y701032D02*
D03*
X-1206551D02*
D03*
Y644032D02*
D03*
X-379780D02*
D03*
Y701032D02*
D03*
X-443780D02*
D03*
Y644032D02*
D03*
X382992D02*
D03*
Y701032D02*
D03*
X446992D02*
D03*
Y644032D02*
D03*
X1273765D02*
D03*
Y701032D02*
D03*
X1209765D02*
D03*
Y644032D02*
D03*
X-1270551Y1057418D02*
D03*
Y1114418D02*
D03*
X-1206551D02*
D03*
Y1057418D02*
D03*
X-379780D02*
D03*
Y1114418D02*
D03*
X-443780D02*
D03*
Y1057418D02*
D03*
X-1013779Y-639764D02*
D03*
X1259842Y-1574803D02*
D03*
X1122047D02*
D03*
X433071D02*
D03*
X295276D02*
D03*
X-393701D02*
D03*
X-531496D02*
D03*
X-1220472Y-1584646D02*
D03*
X-1358268Y-1574803D02*
D03*
X954725Y-433071D02*
D03*
X1022638Y-1049213D02*
D03*
X620079Y-1062992D02*
D03*
X852362Y-739173D02*
D03*
X781496D02*
D03*
X1000000Y-644685D02*
D03*
X844489Y-542323D02*
D03*
X764764Y-534449D02*
D03*
X646654Y-641733D02*
D03*
X645670Y-440945D02*
D03*
X1264764Y-1313977D02*
D03*
X296260Y-1288386D02*
D03*
X1123032Y-461615D02*
D03*
X1264764Y-487205D02*
D03*
X296260Y-461615D02*
D03*
X437992Y-487205D02*
D03*
X1123032Y-48229D02*
D03*
X1264764Y-73819D02*
D03*
X437992D02*
D03*
X296260Y-48229D02*
D03*
X-1357284D02*
D03*
X-1215551Y-73819D02*
D03*
X-388779D02*
D03*
X-530512Y-48229D02*
D03*
X-1215551Y-487205D02*
D03*
X-1357284Y-461615D02*
D03*
X-388779Y-487205D02*
D03*
X-530512Y-461615D02*
D03*
X-1357284Y-1288386D02*
D03*
X-388779Y-1313977D02*
D03*
X-1007874Y-440945D02*
D03*
X-888779Y-534449D02*
D03*
X-809055Y-542323D02*
D03*
X-653543Y-644685D02*
D03*
X-872047Y-739173D02*
D03*
X-801181D02*
D03*
X-1033465Y-1062992D02*
D03*
X-630905Y-1049213D02*
D03*
X-698819Y-433071D02*
D03*
X296260Y1605315D02*
D03*
X437992Y1579724D02*
D03*
X1264764D02*
D03*
X1123032Y1605315D02*
D03*
X437992Y1166339D02*
D03*
X296260Y1191929D02*
D03*
X1264764Y1166339D02*
D03*
X1123032Y1191929D02*
D03*
X296260Y365157D02*
D03*
X1264764Y339567D02*
D03*
X645670Y1212598D02*
D03*
X646654Y1011811D02*
D03*
X764764Y1119094D02*
D03*
X844489Y1111220D02*
D03*
X1000000Y1008858D02*
D03*
X781496Y914370D02*
D03*
X852362D02*
D03*
X620079Y590551D02*
D03*
X1022638Y604331D02*
D03*
X954725Y1220472D02*
D03*
X-698819D02*
D03*
X-630905Y604331D02*
D03*
X-1033465Y590551D02*
D03*
X-801181Y914370D02*
D03*
X-872047D02*
D03*
X-653543Y1008858D02*
D03*
X-809055Y1111220D02*
D03*
X-888779Y1119094D02*
D03*
X-1006890Y1011811D02*
D03*
X-1007874Y1212598D02*
D03*
X-550198Y-1195866D02*
D03*
X-380905Y-1192914D02*
D03*
X276574Y-1195866D02*
D03*
X445866Y-1192914D02*
D03*
X1103346Y-782480D02*
D03*
X1272638Y-779528D02*
D03*
X-550198Y-369094D02*
D03*
X-380905Y-366142D02*
D03*
X-550198Y-782480D02*
D03*
X-380905Y-779528D02*
D03*
X276574Y-782480D02*
D03*
X445866Y-779528D02*
D03*
X276574Y-369094D02*
D03*
X445866Y-366142D02*
D03*
X1103346Y44292D02*
D03*
X1272638Y47244D02*
D03*
X276574Y44292D02*
D03*
X445866Y47244D02*
D03*
X-550198Y44292D02*
D03*
X-380905Y47244D02*
D03*
X-388779Y339567D02*
D03*
X-1376969Y-1195866D02*
D03*
X-1207677Y-1192914D02*
D03*
X1103346Y-1195866D02*
D03*
X1272638Y-1192914D02*
D03*
X-1376969Y-782480D02*
D03*
X-1207677Y-779528D02*
D03*
X1103346Y-369094D02*
D03*
X1272638Y-366142D02*
D03*
X-1376969Y-369094D02*
D03*
X-1207677Y-366142D02*
D03*
X-1376969Y44292D02*
D03*
X-1207677Y47244D02*
D03*
X-1357284Y365157D02*
D03*
X1103346Y871064D02*
D03*
X1272638Y874016D02*
D03*
X1103346Y457678D02*
D03*
X1272638Y460630D02*
D03*
X276574Y871064D02*
D03*
X445866Y874016D02*
D03*
X276574Y457678D02*
D03*
X445866Y460630D02*
D03*
X-550198Y457678D02*
D03*
X-380905Y460630D02*
D03*
X-550198Y871064D02*
D03*
X-380905Y874016D02*
D03*
X-530512Y1191929D02*
D03*
X-388779Y1166339D02*
D03*
X-1376969Y457678D02*
D03*
X-1207677Y460630D02*
D03*
X-1376969Y871064D02*
D03*
X-1207677Y874016D02*
D03*
X-1357284Y1191929D02*
D03*
X-1215551Y1166339D02*
D03*
X1103346Y1284450D02*
D03*
X1272638Y1287402D02*
D03*
X276574Y1284450D02*
D03*
X445866Y1287402D02*
D03*
X-550198Y1284450D02*
D03*
X-380905Y1287402D02*
D03*
X-530512Y1605315D02*
D03*
X-388779Y1579724D02*
D03*
X-1207677Y1287402D02*
D03*
X-1376969Y1284450D02*
D03*
D35*
X902638Y-319095D02*
D03*
X918385Y-1337795D02*
D03*
X918306Y314961D02*
D03*
X902558Y1333661D02*
D03*
X-736221Y-1337795D02*
D03*
X-751968Y-319095D02*
D03*
Y1333661D02*
D03*
X-736221Y314961D02*
D03*
M02*
