G04*
G04 #@! TF.GenerationSoftware,Altium Limited,Altium Designer,23.3.1 (30)*
G04*
G04 Layer_Color=8421504*
%FSLAX26Y26*%
%MOIN*%
G70*
G04*
G04 #@! TF.SameCoordinates,A73F04FC-B1A5-4ADC-8500-56C492F8F9A9*
G04*
G04*
G04 #@! TF.FilePolarity,Positive*
G04*
G01*
G75*
%ADD17R,0.078740X0.078740*%
%ADD18C,0.039370*%
G04:AMPARAMS|DCode=19|XSize=59.055mil|YSize=20.866mil|CornerRadius=2.608mil|HoleSize=0mil|Usage=FLASHONLY|Rotation=270.000|XOffset=0mil|YOffset=0mil|HoleType=Round|Shape=RoundedRectangle|*
%AMROUNDEDRECTD19*
21,1,0.059055,0.015650,0,0,270.0*
21,1,0.053839,0.020866,0,0,270.0*
1,1,0.005216,-0.007825,-0.026919*
1,1,0.005216,-0.007825,0.026919*
1,1,0.005216,0.007825,0.026919*
1,1,0.005216,0.007825,-0.026919*
%
%ADD19ROUNDEDRECTD19*%
%ADD20R,0.074803X0.040157*%
G04:AMPARAMS|DCode=21|XSize=40mil|YSize=55mil|CornerRadius=5mil|HoleSize=0mil|Usage=FLASHONLY|Rotation=180.000|XOffset=0mil|YOffset=0mil|HoleType=Round|Shape=RoundedRectangle|*
%AMROUNDEDRECTD21*
21,1,0.040000,0.045000,0,0,180.0*
21,1,0.030000,0.055000,0,0,180.0*
1,1,0.010000,-0.015000,0.022500*
1,1,0.010000,0.015000,0.022500*
1,1,0.010000,0.015000,-0.022500*
1,1,0.010000,-0.015000,-0.022500*
%
%ADD21ROUNDEDRECTD21*%
D17*
X-1240555Y-1393896D02*
D03*
X412988Y1086418D02*
D03*
X1239761D02*
D03*
X-1241575Y1487373D02*
D03*
X-414803D02*
D03*
X411968D02*
D03*
X1238741D02*
D03*
X-413784Y-1393896D02*
D03*
X412988D02*
D03*
X1239761D02*
D03*
X-1240551Y-980511D02*
D03*
X-413780D02*
D03*
X412992D02*
D03*
X1239765D02*
D03*
X-1240555Y-567125D02*
D03*
X-413784D02*
D03*
X412988D02*
D03*
X1239761D02*
D03*
X-1240551Y-153739D02*
D03*
X-413780D02*
D03*
X412992D02*
D03*
X1239765D02*
D03*
X-1240555Y259647D02*
D03*
X-413784D02*
D03*
X412988D02*
D03*
X1239761D02*
D03*
X-1240551Y673032D02*
D03*
X-413780D02*
D03*
X412992D02*
D03*
X1239765D02*
D03*
X-1240555Y1086418D02*
D03*
X-413784D02*
D03*
D18*
X-827756Y1549213D02*
D03*
X-984Y-1537402D02*
D03*
X823819Y1551181D02*
D03*
D19*
X-1165551Y-1505904D02*
D03*
X-1215551D02*
D03*
X-1265551D02*
D03*
X-1315551D02*
D03*
Y-1281888D02*
D03*
X-1265551D02*
D03*
X-1215551D02*
D03*
X-1165551D02*
D03*
X487992Y1198426D02*
D03*
X437992D02*
D03*
X387992D02*
D03*
X337992D02*
D03*
Y974410D02*
D03*
X387992D02*
D03*
X437992D02*
D03*
X487992D02*
D03*
X1314765D02*
D03*
X1264765D02*
D03*
X1214765D02*
D03*
X1164765D02*
D03*
Y1198426D02*
D03*
X1214765D02*
D03*
X1264765D02*
D03*
X1314765D02*
D03*
X-1166575Y1599381D02*
D03*
X-1216575D02*
D03*
X-1266575D02*
D03*
X-1316575D02*
D03*
Y1375365D02*
D03*
X-1266575D02*
D03*
X-1216575D02*
D03*
X-1166575D02*
D03*
X-339803D02*
D03*
X-389803D02*
D03*
X-439803D02*
D03*
X-489803D02*
D03*
Y1599381D02*
D03*
X-439803D02*
D03*
X-389803D02*
D03*
X-339803D02*
D03*
X486968D02*
D03*
X436968D02*
D03*
X386968D02*
D03*
X336968D02*
D03*
Y1375365D02*
D03*
X386968D02*
D03*
X436968D02*
D03*
X486968D02*
D03*
X1313742D02*
D03*
X1263742D02*
D03*
X1213742D02*
D03*
X1163742D02*
D03*
Y1599381D02*
D03*
X1213742D02*
D03*
X1263742D02*
D03*
X1313742D02*
D03*
X-338780Y-1281888D02*
D03*
X-388780D02*
D03*
X-438780D02*
D03*
X-488780D02*
D03*
Y-1505904D02*
D03*
X-438780D02*
D03*
X-388780D02*
D03*
X-338780D02*
D03*
X487992D02*
D03*
X437992D02*
D03*
X387992D02*
D03*
X337992D02*
D03*
Y-1281888D02*
D03*
X387992D02*
D03*
X437992D02*
D03*
X487992D02*
D03*
X1314765D02*
D03*
X1264765D02*
D03*
X1214765D02*
D03*
X1164765D02*
D03*
Y-1505904D02*
D03*
X1214765D02*
D03*
X1264765D02*
D03*
X1314765D02*
D03*
X-1165551Y-1092518D02*
D03*
X-1215551D02*
D03*
X-1265551D02*
D03*
X-1315551D02*
D03*
Y-868503D02*
D03*
X-1265551D02*
D03*
X-1215551D02*
D03*
X-1165551D02*
D03*
X-338780D02*
D03*
X-388780D02*
D03*
X-438780D02*
D03*
X-488780D02*
D03*
Y-1092518D02*
D03*
X-438780D02*
D03*
X-388780D02*
D03*
X-338780D02*
D03*
X487992D02*
D03*
X437992D02*
D03*
X387992D02*
D03*
X337992D02*
D03*
Y-868503D02*
D03*
X387992D02*
D03*
X437992D02*
D03*
X487992D02*
D03*
X1314765D02*
D03*
X1264765D02*
D03*
X1214765D02*
D03*
X1164765D02*
D03*
Y-1092518D02*
D03*
X1214765D02*
D03*
X1264765D02*
D03*
X1314765D02*
D03*
X-1165551Y-679133D02*
D03*
X-1215551D02*
D03*
X-1265551D02*
D03*
X-1315551D02*
D03*
Y-455117D02*
D03*
X-1265551D02*
D03*
X-1215551D02*
D03*
X-1165551D02*
D03*
X-338780D02*
D03*
X-388780D02*
D03*
X-438780D02*
D03*
X-488780D02*
D03*
Y-679133D02*
D03*
X-438780D02*
D03*
X-388780D02*
D03*
X-338780D02*
D03*
X487992D02*
D03*
X437992D02*
D03*
X387992D02*
D03*
X337992D02*
D03*
Y-455117D02*
D03*
X387992D02*
D03*
X437992D02*
D03*
X487992D02*
D03*
X1314765D02*
D03*
X1264765D02*
D03*
X1214765D02*
D03*
X1164765D02*
D03*
Y-679133D02*
D03*
X1214765D02*
D03*
X1264765D02*
D03*
X1314765D02*
D03*
X-1165551Y-265747D02*
D03*
X-1215551D02*
D03*
X-1265551D02*
D03*
X-1315551D02*
D03*
Y-41731D02*
D03*
X-1265551D02*
D03*
X-1215551D02*
D03*
X-1165551D02*
D03*
X-338780D02*
D03*
X-388780D02*
D03*
X-438780D02*
D03*
X-488780D02*
D03*
Y-265747D02*
D03*
X-438780D02*
D03*
X-388780D02*
D03*
X-338780D02*
D03*
X487992D02*
D03*
X437992D02*
D03*
X387992D02*
D03*
X337992D02*
D03*
Y-41731D02*
D03*
X387992D02*
D03*
X437992D02*
D03*
X487992D02*
D03*
X1314765D02*
D03*
X1264765D02*
D03*
X1214765D02*
D03*
X1164765D02*
D03*
Y-265747D02*
D03*
X1214765D02*
D03*
X1264765D02*
D03*
X1314765D02*
D03*
X-1165551Y147639D02*
D03*
X-1215551D02*
D03*
X-1265551D02*
D03*
X-1315551D02*
D03*
Y371654D02*
D03*
X-1265551D02*
D03*
X-1215551D02*
D03*
X-1165551D02*
D03*
X-338780D02*
D03*
X-388780D02*
D03*
X-438780D02*
D03*
X-488780D02*
D03*
Y147639D02*
D03*
X-438780D02*
D03*
X-388780D02*
D03*
X-338780D02*
D03*
X487992D02*
D03*
X437992D02*
D03*
X387992D02*
D03*
X337992D02*
D03*
Y371654D02*
D03*
X387992D02*
D03*
X437992D02*
D03*
X487992D02*
D03*
X1314765D02*
D03*
X1264765D02*
D03*
X1214765D02*
D03*
X1164765D02*
D03*
Y147639D02*
D03*
X1214765D02*
D03*
X1264765D02*
D03*
X1314765D02*
D03*
X-1165551Y561024D02*
D03*
X-1215551D02*
D03*
X-1265551D02*
D03*
X-1315551D02*
D03*
Y785040D02*
D03*
X-1265551D02*
D03*
X-1215551D02*
D03*
X-1165551D02*
D03*
X-338780D02*
D03*
X-388780D02*
D03*
X-438780D02*
D03*
X-488780D02*
D03*
Y561024D02*
D03*
X-438780D02*
D03*
X-388780D02*
D03*
X-338780D02*
D03*
X487992D02*
D03*
X437992D02*
D03*
X387992D02*
D03*
X337992D02*
D03*
Y785040D02*
D03*
X387992D02*
D03*
X437992D02*
D03*
X487992D02*
D03*
X1314765D02*
D03*
X1264765D02*
D03*
X1214765D02*
D03*
X1164765D02*
D03*
Y561024D02*
D03*
X1214765D02*
D03*
X1264765D02*
D03*
X1314765D02*
D03*
X-1165551Y974410D02*
D03*
X-1215551D02*
D03*
X-1265551D02*
D03*
X-1315551D02*
D03*
Y1198426D02*
D03*
X-1265551D02*
D03*
X-1215551D02*
D03*
X-1165551D02*
D03*
X-338780D02*
D03*
X-388780D02*
D03*
X-438780D02*
D03*
X-488780D02*
D03*
Y974410D02*
D03*
X-438780D02*
D03*
X-388780D02*
D03*
X-338780D02*
D03*
D20*
X-714039Y1074803D02*
D03*
Y674803D02*
D03*
Y774803D02*
D03*
Y874803D02*
D03*
Y974803D02*
D03*
Y1174803D02*
D03*
X-941890D02*
D03*
X-714039Y1274803D02*
D03*
X-941890D02*
D03*
X-714039Y374803D02*
D03*
X-941890D02*
D03*
X-714039Y474803D02*
D03*
X-941890D02*
D03*
X-714039Y574803D02*
D03*
X-941890D02*
D03*
Y674803D02*
D03*
Y774803D02*
D03*
Y874803D02*
D03*
Y974803D02*
D03*
Y1074803D02*
D03*
Y-577953D02*
D03*
Y-677953D02*
D03*
Y-777953D02*
D03*
Y-877953D02*
D03*
Y-977953D02*
D03*
Y-1077953D02*
D03*
X-714039D02*
D03*
X-941890Y-1177953D02*
D03*
X-714039D02*
D03*
X-941890Y-1277953D02*
D03*
X-714039D02*
D03*
X-941890Y-377953D02*
D03*
X-714039D02*
D03*
X-941890Y-477953D02*
D03*
X-714039D02*
D03*
Y-677953D02*
D03*
Y-777953D02*
D03*
Y-877953D02*
D03*
Y-977953D02*
D03*
Y-577953D02*
D03*
X940488Y1074803D02*
D03*
Y674803D02*
D03*
Y774803D02*
D03*
Y874803D02*
D03*
Y974803D02*
D03*
Y1174803D02*
D03*
X712638D02*
D03*
X940488Y1274803D02*
D03*
X712638D02*
D03*
X940488Y374803D02*
D03*
X712638D02*
D03*
X940488Y474803D02*
D03*
X712638D02*
D03*
X940488Y574803D02*
D03*
X712638D02*
D03*
Y674803D02*
D03*
Y774803D02*
D03*
Y874803D02*
D03*
Y974803D02*
D03*
Y1074803D02*
D03*
X712716Y-577953D02*
D03*
Y-677953D02*
D03*
Y-777953D02*
D03*
Y-877953D02*
D03*
Y-977953D02*
D03*
Y-1077953D02*
D03*
X940567D02*
D03*
X712716Y-1177953D02*
D03*
X940567D02*
D03*
X712716Y-1277953D02*
D03*
X940567D02*
D03*
X712716Y-377953D02*
D03*
X940567D02*
D03*
X712716Y-477953D02*
D03*
X940567D02*
D03*
Y-677953D02*
D03*
Y-777953D02*
D03*
Y-877953D02*
D03*
Y-977953D02*
D03*
Y-577953D02*
D03*
D21*
X1230946Y1295276D02*
D03*
X1150946D02*
D03*
X404174D02*
D03*
X324174D02*
D03*
X-422598D02*
D03*
X-502598D02*
D03*
X-1249369D02*
D03*
X-1329369D02*
D03*
X1230946Y881890D02*
D03*
X1150946D02*
D03*
X404174D02*
D03*
X324174D02*
D03*
X-422598D02*
D03*
X-502598D02*
D03*
X-1249369D02*
D03*
X-1329369D02*
D03*
X1230946Y468504D02*
D03*
X1150946D02*
D03*
X404174D02*
D03*
X324174D02*
D03*
X-422598D02*
D03*
X-502598D02*
D03*
X-1249369D02*
D03*
X-1329369D02*
D03*
X1230946Y55118D02*
D03*
X1150946D02*
D03*
X404174D02*
D03*
X324174D02*
D03*
X-422598D02*
D03*
X-502598D02*
D03*
X-1249369D02*
D03*
X-1329369D02*
D03*
X1230946Y-358268D02*
D03*
X1150946D02*
D03*
X404174D02*
D03*
X324174D02*
D03*
X-422598D02*
D03*
X-502598D02*
D03*
X-1249369D02*
D03*
X-1329369D02*
D03*
X1230946Y-771654D02*
D03*
X1150946D02*
D03*
X404174D02*
D03*
X324174D02*
D03*
X-422598D02*
D03*
X-502598D02*
D03*
X-1249369D02*
D03*
X-1329369D02*
D03*
X1230946Y-1185040D02*
D03*
X1150946D02*
D03*
X404174D02*
D03*
X324174D02*
D03*
X-422598D02*
D03*
X-502598D02*
D03*
X-1249369D02*
D03*
X-1329369D02*
D03*
X1230946Y-1598426D02*
D03*
X1150946D02*
D03*
X404174D02*
D03*
X324174D02*
D03*
X-422598D02*
D03*
X-502598D02*
D03*
X-1249369D02*
D03*
X-1329369D02*
D03*
M02*
