G04*
G04 #@! TF.GenerationSoftware,Altium Limited,Altium Designer,23.3.1 (30)*
G04*
G04 Layer_Color=32896*
%FSLAX26Y26*%
%MOIN*%
G70*
G04*
G04 #@! TF.SameCoordinates,A73F04FC-B1A5-4ADC-8500-56C492F8F9A9*
G04*
G04*
G04 #@! TF.FilePolarity,Positive*
G04*
G01*
G75*
%ADD10C,0.078740*%
%ADD12C,0.005000*%
%ADD13C,0.007874*%
%ADD36C,0.004724*%
D10*
X-1653543Y-79353D02*
X-1643598Y-78728D01*
X-1633809Y-76860D01*
X-1624332Y-73781D01*
X-1615315Y-69538D01*
X-1606901Y-64198D01*
X-1599223Y-57846D01*
X-1592401Y-50582D01*
X-1586543Y-42520D01*
X-1581743Y-33787D01*
X-1578074Y-24521D01*
X-1575596Y-14869D01*
X-1574347Y-4983D01*
Y4982D01*
X-1575596Y14869D01*
X-1578074Y24521D01*
X-1581743Y33787D01*
X-1586544Y42519D01*
X-1592401Y50581D01*
X-1599223Y57846D01*
X-1606901Y64198D01*
X-1615315Y69537D01*
X-1624332Y73780D01*
X-1633810Y76860D01*
X-1643598Y78727D01*
X-1653543Y79353D01*
D12*
X-1447368Y-1634850D02*
Y-1595493D01*
X-1467047Y-1615172D02*
X-1427690D01*
X-1033983Y-1634850D02*
Y-1595493D01*
X-1053661Y-1615172D02*
X-1014304D01*
X619561Y845465D02*
Y884822D01*
X599882Y865144D02*
X639240D01*
X1446333Y845465D02*
Y884822D01*
X1426654Y865144D02*
X1466012D01*
X-1033983Y1258851D02*
Y1298208D01*
X-1053661Y1278530D02*
X-1014304D01*
X-207211Y1258851D02*
Y1298208D01*
X-226889Y1278530D02*
X-187532D01*
X619561Y1258851D02*
Y1298208D01*
X599882Y1278530D02*
X639240D01*
X1446333Y1258851D02*
Y1298208D01*
X1426654Y1278530D02*
X1466012D01*
X-207211Y-1634850D02*
Y-1595493D01*
X-226889Y-1615172D02*
X-187532D01*
X619561Y-1634850D02*
Y-1595493D01*
X599882Y-1615172D02*
X639240D01*
X1446333Y-1634850D02*
Y-1595493D01*
X1426654Y-1615172D02*
X1466012D01*
X-1033983Y-1221465D02*
Y-1182107D01*
X-1053661Y-1201786D02*
X-1014304D01*
X-207211Y-1221465D02*
Y-1182107D01*
X-226889Y-1201786D02*
X-187532D01*
X619561Y-1221465D02*
Y-1182107D01*
X599882Y-1201786D02*
X639240D01*
X1446333Y-1221465D02*
Y-1182107D01*
X1426654Y-1201786D02*
X1466012D01*
X-1033983Y-808079D02*
Y-768721D01*
X-1053661Y-788400D02*
X-1014304D01*
X-207211Y-808079D02*
Y-768721D01*
X-226889Y-788400D02*
X-187532D01*
X619561Y-808079D02*
Y-768721D01*
X599882Y-788400D02*
X639240D01*
X1446333Y-808079D02*
Y-768721D01*
X1426654Y-788400D02*
X1466012D01*
X-1033983Y-394693D02*
Y-355335D01*
X-1053661Y-375014D02*
X-1014304D01*
X-207211Y-394693D02*
Y-355335D01*
X-226889Y-375014D02*
X-187532D01*
X619561Y-394693D02*
Y-355335D01*
X599882Y-375014D02*
X639240D01*
X1446333Y-394693D02*
Y-355335D01*
X1426654Y-375014D02*
X1466012D01*
X-1033983Y18693D02*
Y58050D01*
X-1053661Y38372D02*
X-1014304D01*
X-207211Y18693D02*
Y58050D01*
X-226889Y38372D02*
X-187532D01*
X619561Y18693D02*
Y58050D01*
X599882Y38372D02*
X639240D01*
X1446333Y18693D02*
Y58050D01*
X1426654Y38372D02*
X1466012D01*
X-1033983Y432079D02*
Y471436D01*
X-1053661Y451758D02*
X-1014304D01*
X-207211Y432079D02*
Y471436D01*
X-226889Y451758D02*
X-187532D01*
X619561Y432079D02*
Y471436D01*
X599882Y451758D02*
X639240D01*
X1446333Y432079D02*
Y471436D01*
X1426654Y451758D02*
X1466012D01*
X-1033983Y845465D02*
Y884822D01*
X-1053661Y865144D02*
X-1014304D01*
X-207211Y845465D02*
Y884822D01*
X-226889Y865144D02*
X-187532D01*
X206175Y845465D02*
Y884822D01*
X186496Y865144D02*
X225854D01*
X1032947Y845465D02*
Y884822D01*
X1013268Y865144D02*
X1052626D01*
X-1447368Y1258851D02*
Y1298208D01*
X-1467047Y1278530D02*
X-1427690D01*
X-620597Y1258851D02*
Y1298208D01*
X-640275Y1278530D02*
X-600918D01*
X206175Y1258851D02*
Y1298208D01*
X186496Y1278530D02*
X225854D01*
X1032947Y1258851D02*
Y1298208D01*
X1013268Y1278530D02*
X1052626D01*
X-620597Y-1634850D02*
Y-1595493D01*
X-640275Y-1615172D02*
X-600918D01*
X206175Y-1634850D02*
Y-1595493D01*
X186496Y-1615172D02*
X225854D01*
X1032947Y-1634850D02*
Y-1595493D01*
X1013268Y-1615172D02*
X1052626D01*
X-1447368Y-1221465D02*
Y-1182107D01*
X-1467047Y-1201786D02*
X-1427690D01*
X-620597Y-1221465D02*
Y-1182107D01*
X-640275Y-1201786D02*
X-600918D01*
X206175Y-1221465D02*
Y-1182107D01*
X186496Y-1201786D02*
X225854D01*
X1032947Y-1221465D02*
Y-1182107D01*
X1013268Y-1201786D02*
X1052626D01*
X-1447368Y-808079D02*
Y-768721D01*
X-1467047Y-788400D02*
X-1427690D01*
X-620597Y-808079D02*
Y-768721D01*
X-640275Y-788400D02*
X-600918D01*
X206175Y-808079D02*
Y-768721D01*
X186496Y-788400D02*
X225854D01*
X1032947Y-808079D02*
Y-768721D01*
X1013268Y-788400D02*
X1052626D01*
X-1447368Y-394693D02*
Y-355335D01*
X-1467047Y-375014D02*
X-1427690D01*
X-620597Y-394693D02*
Y-355335D01*
X-640275Y-375014D02*
X-600918D01*
X206175Y-394693D02*
Y-355335D01*
X186496Y-375014D02*
X225854D01*
X1032947Y-394693D02*
Y-355335D01*
X1013268Y-375014D02*
X1052626D01*
X-1447368Y18693D02*
Y58050D01*
X-1467047Y38372D02*
X-1427690D01*
X-620597Y18693D02*
Y58050D01*
X-640275Y38372D02*
X-600918D01*
X206175Y18693D02*
Y58050D01*
X186496Y38372D02*
X225854D01*
X1032947Y18693D02*
Y58050D01*
X1013268Y38372D02*
X1052626D01*
X-1447368Y432079D02*
Y471436D01*
X-1467047Y451758D02*
X-1427690D01*
X-620597Y432079D02*
Y471436D01*
X-640275Y451758D02*
X-600918D01*
X206175Y432079D02*
Y471436D01*
X186496Y451758D02*
X225854D01*
X1032947Y432079D02*
Y471436D01*
X1013268Y451758D02*
X1052626D01*
X-1447368Y845465D02*
Y884822D01*
X-1467047Y865144D02*
X-1427690D01*
X-620597Y845465D02*
Y884822D01*
X-640275Y865144D02*
X-600918D01*
D13*
X-1261801Y-1242141D02*
X-1230315D01*
Y-1265756D01*
X-1246058Y-1257884D01*
X-1253929D01*
X-1261801Y-1265756D01*
Y-1281499D01*
X-1253929Y-1289370D01*
X-1238187D01*
X-1230315Y-1281499D01*
X-1277544Y-1242141D02*
X-1309030D01*
Y-1250013D01*
X-1277544Y-1281499D01*
Y-1289370D01*
X-848415Y-1242141D02*
X-816929D01*
Y-1265756D01*
X-832672Y-1257884D01*
X-840544D01*
X-848415Y-1265756D01*
Y-1281499D01*
X-840544Y-1289370D01*
X-824801D01*
X-816929Y-1281499D01*
X-864158Y-1250013D02*
X-872029Y-1242141D01*
X-887772D01*
X-895644Y-1250013D01*
Y-1257884D01*
X-887772Y-1265756D01*
X-895644Y-1273627D01*
Y-1281499D01*
X-887772Y-1289370D01*
X-872029D01*
X-864158Y-1281499D01*
Y-1273627D01*
X-872029Y-1265756D01*
X-864158Y-1257884D01*
Y-1250013D01*
X-872029Y-1265756D02*
X-887772D01*
X836614Y1190945D02*
X820871D01*
X828743D01*
Y1238174D01*
X836614Y1230303D01*
X773643Y1190945D02*
Y1238174D01*
X797257Y1214560D01*
X765771D01*
X1642717Y1201772D02*
X1626974D01*
X1634845D01*
Y1249001D01*
X1642717Y1241130D01*
X1571874Y1249001D02*
X1587617Y1241130D01*
X1603360Y1225387D01*
Y1209644D01*
X1595488Y1201772D01*
X1579745D01*
X1571874Y1209644D01*
Y1217515D01*
X1579745Y1225387D01*
X1603360D01*
X-881880Y1591536D02*
X-850394D01*
X-881880Y1623022D01*
Y1630893D01*
X-874008Y1638765D01*
X-858265D01*
X-850394Y1630893D01*
X-47236Y1591536D02*
Y1638765D01*
X-23622Y1615150D01*
X-55108D01*
X771664Y1638765D02*
X787407Y1630893D01*
X803150Y1615150D01*
Y1599407D01*
X795278Y1591536D01*
X779535D01*
X771664Y1599407D01*
Y1607279D01*
X779535Y1615150D01*
X803150D01*
X1635827Y1305105D02*
X1627955Y1312977D01*
X1612212D01*
X1604341Y1305105D01*
Y1297234D01*
X1612212Y1289362D01*
X1604341Y1281491D01*
Y1273620D01*
X1612212Y1265748D01*
X1627955D01*
X1635827Y1273620D01*
Y1281491D01*
X1627955Y1289362D01*
X1635827Y1297234D01*
Y1305105D01*
X1627955Y1289362D02*
X1612212D01*
X-21643Y-1242141D02*
X-5900Y-1250013D01*
X9843Y-1265756D01*
Y-1281499D01*
X1971Y-1289370D01*
X-13772D01*
X-21643Y-1281499D01*
Y-1273627D01*
X-13772Y-1265756D01*
X9843D01*
X-37386Y-1250013D02*
X-45258Y-1242141D01*
X-61001D01*
X-68872Y-1250013D01*
Y-1281499D01*
X-61001Y-1289370D01*
X-45258D01*
X-37386Y-1281499D01*
Y-1250013D01*
X805129Y-1242141D02*
X820871Y-1250013D01*
X836614Y-1265756D01*
Y-1281499D01*
X828743Y-1289370D01*
X813000D01*
X805129Y-1281499D01*
Y-1273627D01*
X813000Y-1265756D01*
X836614D01*
X757900Y-1289370D02*
X789386D01*
X757900Y-1257884D01*
Y-1250013D01*
X765771Y-1242141D01*
X781514D01*
X789386Y-1250013D01*
X1611231Y-1231314D02*
X1626974Y-1239186D01*
X1642717Y-1254929D01*
Y-1270672D01*
X1634845Y-1278543D01*
X1619102D01*
X1611231Y-1270672D01*
Y-1262800D01*
X1619102Y-1254929D01*
X1642717D01*
X1571874Y-1278543D02*
Y-1231314D01*
X1595488Y-1254929D01*
X1564002D01*
X-848415Y-828755D02*
X-816929D01*
Y-852370D01*
X-832672Y-844498D01*
X-840544D01*
X-848415Y-852370D01*
Y-868113D01*
X-840544Y-875984D01*
X-824801D01*
X-816929Y-868113D01*
X-864158Y-836627D02*
X-872029Y-828755D01*
X-887772D01*
X-895644Y-836627D01*
Y-868113D01*
X-887772Y-875984D01*
X-872029D01*
X-864158Y-868113D01*
Y-836627D01*
X-11801Y-868125D02*
X19685D01*
Y-891740D01*
X3942Y-883868D01*
X-3929D01*
X-11801Y-891740D01*
Y-907483D01*
X-3929Y-915354D01*
X11813D01*
X19685Y-907483D01*
X-59030Y-915354D02*
X-27544D01*
X-59030Y-883868D01*
Y-875997D01*
X-51158Y-868125D01*
X-35415D01*
X-27544Y-875997D01*
X805129Y-828755D02*
X836614D01*
Y-852370D01*
X820871Y-844498D01*
X813000D01*
X805129Y-852370D01*
Y-868113D01*
X813000Y-875984D01*
X828743D01*
X836614Y-868113D01*
X765771Y-875984D02*
Y-828755D01*
X789386Y-852370D01*
X757900D01*
X1581703Y-805133D02*
X1613189D01*
Y-828748D01*
X1597446Y-820876D01*
X1589575D01*
X1581703Y-828748D01*
Y-844491D01*
X1589575Y-852362D01*
X1605318D01*
X1613189Y-844491D01*
X1534474Y-805133D02*
X1550217Y-813005D01*
X1565960Y-828748D01*
Y-844491D01*
X1558089Y-852362D01*
X1542346D01*
X1534474Y-844491D01*
Y-836619D01*
X1542346Y-828748D01*
X1565960D01*
X-840544Y-462598D02*
Y-415370D01*
X-816929Y-438984D01*
X-848415D01*
X-895644Y-462598D02*
X-864158D01*
X-895644Y-431112D01*
Y-423241D01*
X-887772Y-415370D01*
X-872029D01*
X-864158Y-423241D01*
X-13772Y-462598D02*
Y-415370D01*
X9843Y-438984D01*
X-21643D01*
X-61001Y-462598D02*
Y-415370D01*
X-37386Y-438984D01*
X-68872D01*
X813000Y-462598D02*
Y-415370D01*
X836614Y-438984D01*
X805129D01*
X757900Y-415370D02*
X773643Y-423241D01*
X789386Y-438984D01*
Y-454727D01*
X781514Y-462598D01*
X765771D01*
X757900Y-454727D01*
Y-446855D01*
X765771Y-438984D01*
X789386D01*
X1619102Y-451772D02*
Y-404543D01*
X1642717Y-428157D01*
X1611231D01*
X1595488Y-412414D02*
X1587617Y-404543D01*
X1571874D01*
X1564002Y-412414D01*
Y-420286D01*
X1571874Y-428157D01*
X1564002Y-436029D01*
Y-443900D01*
X1571874Y-451772D01*
X1587617D01*
X1595488Y-443900D01*
Y-436029D01*
X1587617Y-428157D01*
X1595488Y-420286D01*
Y-412414D01*
X1587617Y-428157D02*
X1571874D01*
X-797244Y-49225D02*
X-805116Y-41354D01*
X-820859D01*
X-828730Y-49225D01*
Y-57097D01*
X-820859Y-64968D01*
X-812987D01*
X-820859D01*
X-828730Y-72840D01*
Y-80711D01*
X-820859Y-88583D01*
X-805116D01*
X-797244Y-80711D01*
X-868087Y-88583D02*
Y-41354D01*
X-844473Y-64968D01*
X-875959D01*
X19685Y-49225D02*
X11813Y-41354D01*
X-3929D01*
X-11801Y-49225D01*
Y-57097D01*
X-3929Y-64968D01*
X3942D01*
X-3929D01*
X-11801Y-72840D01*
Y-80711D01*
X-3929Y-88583D01*
X11813D01*
X19685Y-80711D01*
X-59030Y-41354D02*
X-43287Y-49225D01*
X-27544Y-64968D01*
Y-80711D01*
X-35415Y-88583D01*
X-51158D01*
X-59030Y-80711D01*
Y-72840D01*
X-51158Y-64968D01*
X-27544D01*
X846457Y-49225D02*
X838585Y-41354D01*
X822842D01*
X814971Y-49225D01*
Y-57097D01*
X822842Y-64968D01*
X830714D01*
X822842D01*
X814971Y-72840D01*
Y-80711D01*
X822842Y-88583D01*
X838585D01*
X846457Y-80711D01*
X799228Y-49225D02*
X791356Y-41354D01*
X775614D01*
X767742Y-49225D01*
Y-57097D01*
X775614Y-64968D01*
X767742Y-72840D01*
Y-80711D01*
X775614Y-88583D01*
X791356D01*
X799228Y-80711D01*
Y-72840D01*
X791356Y-64968D01*
X799228Y-57097D01*
Y-49225D01*
X791356Y-64968D02*
X775614D01*
X1582685Y-24606D02*
Y22622D01*
X1606299Y-992D01*
X1574813D01*
X1559070Y14751D02*
X1551199Y22622D01*
X1535456D01*
X1527584Y14751D01*
Y-16735D01*
X1535456Y-24606D01*
X1551199D01*
X1559070Y-16735D01*
Y14751D01*
X-848415Y364173D02*
X-816929D01*
X-848415Y395659D01*
Y403531D01*
X-840544Y411402D01*
X-824801D01*
X-816929Y403531D01*
X-895644Y411402D02*
X-879901Y403531D01*
X-864158Y387788D01*
Y372045D01*
X-872029Y364173D01*
X-887772D01*
X-895644Y372045D01*
Y379916D01*
X-887772Y387788D01*
X-864158D01*
X-21643Y364173D02*
X9843D01*
X-21643Y395659D01*
Y403531D01*
X-13772Y411402D01*
X1971D01*
X9843Y403531D01*
X-37386D02*
X-45258Y411402D01*
X-61001D01*
X-68872Y403531D01*
Y395659D01*
X-61001Y387788D01*
X-68872Y379916D01*
Y372045D01*
X-61001Y364173D01*
X-45258D01*
X-37386Y372045D01*
Y379916D01*
X-45258Y387788D01*
X-37386Y395659D01*
Y403531D01*
X-45258Y387788D02*
X-61001D01*
X836614Y403531D02*
X828743Y411402D01*
X813000D01*
X805129Y403531D01*
Y395659D01*
X813000Y387788D01*
X820871D01*
X813000D01*
X805129Y379916D01*
Y372045D01*
X813000Y364173D01*
X828743D01*
X836614Y372045D01*
X789386Y403531D02*
X781514Y411402D01*
X765771D01*
X757900Y403531D01*
Y372045D01*
X765771Y364173D01*
X781514D01*
X789386Y372045D01*
Y403531D01*
X1642717Y414358D02*
X1634845Y422229D01*
X1619102D01*
X1611231Y414358D01*
Y406486D01*
X1619102Y398615D01*
X1626974D01*
X1619102D01*
X1611231Y390743D01*
Y382872D01*
X1619102Y375000D01*
X1634845D01*
X1642717Y382872D01*
X1564002Y375000D02*
X1595488D01*
X1564002Y406486D01*
Y414358D01*
X1571874Y422229D01*
X1587617D01*
X1595488Y414358D01*
X-816929Y777559D02*
X-832672D01*
X-824801D01*
Y824788D01*
X-816929Y816917D01*
X-856287D02*
X-864158Y824788D01*
X-879901D01*
X-887773Y816917D01*
Y809045D01*
X-879901Y801174D01*
X-887773Y793302D01*
Y785431D01*
X-879901Y777559D01*
X-864158D01*
X-856287Y785431D01*
Y793302D01*
X-864158Y801174D01*
X-856287Y809045D01*
Y816917D01*
X-864158Y801174D02*
X-879901D01*
X-11801Y738189D02*
X19685D01*
X-11801Y769675D01*
Y777546D01*
X-3929Y785418D01*
X11813D01*
X19685Y777546D01*
X-27544D02*
X-35415Y785418D01*
X-51158D01*
X-59030Y777546D01*
Y746061D01*
X-51158Y738189D01*
X-35415D01*
X-27544Y746061D01*
Y777546D01*
X805129Y777559D02*
X836614D01*
X805129Y809045D01*
Y816917D01*
X813000Y824788D01*
X828743D01*
X836614Y816917D01*
X757900Y777559D02*
X789386D01*
X757900Y809045D01*
Y816917D01*
X765771Y824788D01*
X781514D01*
X789386Y816917D01*
X1577766Y803150D02*
X1609252D01*
X1577766Y834635D01*
Y842507D01*
X1585638Y850378D01*
X1601380D01*
X1609252Y842507D01*
X1538409Y803150D02*
Y850378D01*
X1562023Y826764D01*
X1530537D01*
X-816929Y1190945D02*
X-832672D01*
X-824801D01*
Y1238174D01*
X-816929Y1230303D01*
X-856287D02*
X-864158Y1238174D01*
X-879901D01*
X-887773Y1230303D01*
Y1198817D01*
X-879901Y1190945D01*
X-864158D01*
X-856287Y1198817D01*
Y1230303D01*
X9843Y1190945D02*
X-5900D01*
X1971D01*
Y1238174D01*
X9843Y1230303D01*
X-61001Y1190945D02*
X-29515D01*
X-61001Y1222431D01*
Y1230303D01*
X-53129Y1238174D01*
X-37386D01*
X-29515Y1230303D01*
X423229Y1190945D02*
X407486D01*
X415357D01*
Y1238174D01*
X423229Y1230303D01*
X383871D02*
X376000Y1238174D01*
X360257D01*
X352385Y1230303D01*
Y1222431D01*
X360257Y1214560D01*
X368128D01*
X360257D01*
X352385Y1206688D01*
Y1198817D01*
X360257Y1190945D01*
X376000D01*
X383871Y1198817D01*
X1250000Y1190945D02*
X1234257D01*
X1242129D01*
Y1238174D01*
X1250000Y1230303D01*
X1179157Y1238174D02*
X1210643D01*
Y1214560D01*
X1194900Y1222431D01*
X1187029D01*
X1179157Y1214560D01*
Y1198817D01*
X1187029Y1190945D01*
X1202772D01*
X1210643Y1198817D01*
X-1263780Y1591536D02*
X-1279523D01*
X-1271651D01*
Y1638765D01*
X-1263780Y1630893D01*
X-437008D02*
X-444879Y1638765D01*
X-460622D01*
X-468494Y1630893D01*
Y1623022D01*
X-460622Y1615150D01*
X-452751D01*
X-460622D01*
X-468494Y1607279D01*
Y1599407D01*
X-460622Y1591536D01*
X-444879D01*
X-437008Y1599407D01*
X358278Y1638765D02*
X389764D01*
Y1615150D01*
X374021Y1623022D01*
X366150D01*
X358278Y1615150D01*
Y1599407D01*
X366150Y1591536D01*
X381892D01*
X389764Y1599407D01*
X1216536Y1638765D02*
X1185050D01*
Y1630893D01*
X1216536Y1599407D01*
Y1591536D01*
X-435029Y-1242141D02*
X-403543D01*
Y-1265756D01*
X-419286Y-1257884D01*
X-427158D01*
X-435029Y-1265756D01*
Y-1281499D01*
X-427158Y-1289370D01*
X-411415D01*
X-403543Y-1281499D01*
X-450772D02*
X-458644Y-1289370D01*
X-474386D01*
X-482258Y-1281499D01*
Y-1250013D01*
X-474386Y-1242141D01*
X-458644D01*
X-450772Y-1250013D01*
Y-1257884D01*
X-458644Y-1265756D01*
X-482258D01*
X391743Y-1242141D02*
X407486Y-1250013D01*
X423229Y-1265756D01*
Y-1281499D01*
X415357Y-1289370D01*
X399614D01*
X391743Y-1281499D01*
Y-1273627D01*
X399614Y-1265756D01*
X423229D01*
X376000Y-1289370D02*
X360257D01*
X368128D01*
Y-1242141D01*
X376000Y-1250013D01*
X1218514Y-1242141D02*
X1234257Y-1250013D01*
X1250000Y-1265756D01*
Y-1281499D01*
X1242129Y-1289370D01*
X1226386D01*
X1218514Y-1281499D01*
Y-1273627D01*
X1226386Y-1265756D01*
X1250000D01*
X1202772Y-1250013D02*
X1194900Y-1242141D01*
X1179157D01*
X1171286Y-1250013D01*
Y-1257884D01*
X1179157Y-1265756D01*
X1187029D01*
X1179157D01*
X1171286Y-1273627D01*
Y-1281499D01*
X1179157Y-1289370D01*
X1194900D01*
X1202772Y-1281499D01*
X-1253929Y-875984D02*
Y-828755D01*
X-1230315Y-852370D01*
X-1261801D01*
X-1277544Y-868113D02*
X-1285415Y-875984D01*
X-1301158D01*
X-1309030Y-868113D01*
Y-836627D01*
X-1301158Y-828755D01*
X-1285415D01*
X-1277544Y-836627D01*
Y-844498D01*
X-1285415Y-852370D01*
X-1309030D01*
X-435029Y-828755D02*
X-403543D01*
Y-852370D01*
X-419286Y-844498D01*
X-427158D01*
X-435029Y-852370D01*
Y-868113D01*
X-427158Y-875984D01*
X-411415D01*
X-403543Y-868113D01*
X-450772Y-875984D02*
X-466515D01*
X-458644D01*
Y-828755D01*
X-450772Y-836627D01*
X391743Y-828755D02*
X423229D01*
Y-852370D01*
X407486Y-844498D01*
X399614D01*
X391743Y-852370D01*
Y-868113D01*
X399614Y-875984D01*
X415357D01*
X423229Y-868113D01*
X376000Y-836627D02*
X368128Y-828755D01*
X352385D01*
X344514Y-836627D01*
Y-844498D01*
X352385Y-852370D01*
X360257D01*
X352385D01*
X344514Y-860241D01*
Y-868113D01*
X352385Y-875984D01*
X368128D01*
X376000Y-868113D01*
X1218514Y-828755D02*
X1250000D01*
Y-852370D01*
X1234257Y-844498D01*
X1226386D01*
X1218514Y-852370D01*
Y-868113D01*
X1226386Y-875984D01*
X1242129D01*
X1250000Y-868113D01*
X1171286Y-828755D02*
X1202772D01*
Y-852370D01*
X1187029Y-844498D01*
X1179157D01*
X1171286Y-852370D01*
Y-868113D01*
X1179157Y-875984D01*
X1194900D01*
X1202772Y-868113D01*
X-1253929Y-462598D02*
Y-415370D01*
X-1230315Y-438984D01*
X-1261801D01*
X-1277544Y-462598D02*
X-1293287D01*
X-1285415D01*
Y-415370D01*
X-1277544Y-423241D01*
X-427158Y-462598D02*
Y-415370D01*
X-403543Y-438984D01*
X-435029D01*
X-450772Y-423241D02*
X-458644Y-415370D01*
X-474386D01*
X-482258Y-423241D01*
Y-431112D01*
X-474386Y-438984D01*
X-466515D01*
X-474386D01*
X-482258Y-446855D01*
Y-454727D01*
X-474386Y-462598D01*
X-458644D01*
X-450772Y-454727D01*
X399614Y-462598D02*
Y-415370D01*
X423229Y-438984D01*
X391743D01*
X344514Y-415370D02*
X376000D01*
Y-438984D01*
X360257Y-431112D01*
X352385D01*
X344514Y-438984D01*
Y-454727D01*
X352385Y-462598D01*
X368128D01*
X376000Y-454727D01*
X1226386Y-462598D02*
Y-415370D01*
X1250000Y-438984D01*
X1218514D01*
X1202772Y-415370D02*
X1171286D01*
Y-423241D01*
X1202772Y-454727D01*
Y-462598D01*
X-1230315Y-9855D02*
X-1238187Y-1984D01*
X-1253929D01*
X-1261801Y-9855D01*
Y-17727D01*
X-1253929Y-25598D01*
X-1246058D01*
X-1253929D01*
X-1261801Y-33469D01*
Y-41341D01*
X-1253929Y-49212D01*
X-1238187D01*
X-1230315Y-41341D01*
X-1277544Y-9855D02*
X-1285415Y-1984D01*
X-1301158D01*
X-1309030Y-9855D01*
Y-17727D01*
X-1301158Y-25598D01*
X-1293287D01*
X-1301158D01*
X-1309030Y-33469D01*
Y-41341D01*
X-1301158Y-49212D01*
X-1285415D01*
X-1277544Y-41341D01*
X-403543Y-9855D02*
X-411415Y-1984D01*
X-427158D01*
X-435029Y-9855D01*
Y-17727D01*
X-427158Y-25598D01*
X-419286D01*
X-427158D01*
X-435029Y-33469D01*
Y-41341D01*
X-427158Y-49212D01*
X-411415D01*
X-403543Y-41341D01*
X-482258Y-1984D02*
X-450772D01*
Y-25598D01*
X-466515Y-17727D01*
X-474386D01*
X-482258Y-25598D01*
Y-41341D01*
X-474386Y-49212D01*
X-458644D01*
X-450772Y-41341D01*
X423229Y-9855D02*
X415357Y-1984D01*
X399614D01*
X391743Y-9855D01*
Y-17727D01*
X399614Y-25598D01*
X407486D01*
X399614D01*
X391743Y-33469D01*
Y-41341D01*
X399614Y-49212D01*
X415357D01*
X423229Y-41341D01*
X376000Y-1984D02*
X344514D01*
Y-9855D01*
X376000Y-41341D01*
Y-49212D01*
X1250000Y-9855D02*
X1242129Y-1984D01*
X1226386D01*
X1218514Y-9855D01*
Y-17727D01*
X1226386Y-25598D01*
X1234257D01*
X1226386D01*
X1218514Y-33469D01*
Y-41341D01*
X1226386Y-49212D01*
X1242129D01*
X1250000Y-41341D01*
X1202772D02*
X1194900Y-49212D01*
X1179157D01*
X1171286Y-41341D01*
Y-9855D01*
X1179157Y-1984D01*
X1194900D01*
X1202772Y-9855D01*
Y-17727D01*
X1194900Y-25598D01*
X1171286D01*
X-1261801Y364173D02*
X-1230315D01*
X-1261801Y395659D01*
Y403531D01*
X-1253929Y411402D01*
X-1238187D01*
X-1230315Y403531D01*
X-1309030Y411402D02*
X-1277544D01*
Y387788D01*
X-1293287Y395659D01*
X-1301158D01*
X-1309030Y387788D01*
Y372045D01*
X-1301158Y364173D01*
X-1285415D01*
X-1277544Y372045D01*
X-435029Y364173D02*
X-403543D01*
X-435029Y395659D01*
Y403531D01*
X-427158Y411402D01*
X-411415D01*
X-403543Y403531D01*
X-450772Y411402D02*
X-482258D01*
Y403531D01*
X-450772Y372045D01*
Y364173D01*
X391743D02*
X423229D01*
X391743Y395659D01*
Y403531D01*
X399614Y411402D01*
X415357D01*
X423229Y403531D01*
X376000Y372045D02*
X368128Y364173D01*
X352385D01*
X344514Y372045D01*
Y403531D01*
X352385Y411402D01*
X368128D01*
X376000Y403531D01*
Y395659D01*
X368128Y387788D01*
X344514D01*
X1250000Y403531D02*
X1242129Y411402D01*
X1226386D01*
X1218514Y403531D01*
Y395659D01*
X1226386Y387788D01*
X1234257D01*
X1226386D01*
X1218514Y379916D01*
Y372045D01*
X1226386Y364173D01*
X1242129D01*
X1250000Y372045D01*
X1202772Y364173D02*
X1187029D01*
X1194900D01*
Y411402D01*
X1202772Y403531D01*
X-1230315Y777559D02*
X-1246058D01*
X-1238187D01*
Y824788D01*
X-1230315Y816917D01*
X-1269672Y824788D02*
X-1301158D01*
Y816917D01*
X-1269672Y785431D01*
Y777559D01*
X-403543D02*
X-419286D01*
X-411415D01*
Y824788D01*
X-403543Y816917D01*
X-442901Y785431D02*
X-450772Y777559D01*
X-466515D01*
X-474387Y785431D01*
Y816917D01*
X-466515Y824788D01*
X-450772D01*
X-442901Y816917D01*
Y809045D01*
X-450772Y801174D01*
X-474387D01*
X391743Y777559D02*
X423229D01*
X391743Y809045D01*
Y816917D01*
X399614Y824788D01*
X415357D01*
X423229Y816917D01*
X376000Y777559D02*
X360257D01*
X368128D01*
Y824788D01*
X376000Y816917D01*
X1218514Y777559D02*
X1250000D01*
X1218514Y809045D01*
Y816917D01*
X1226386Y824788D01*
X1242129D01*
X1250000Y816917D01*
X1202772D02*
X1194900Y824788D01*
X1179157D01*
X1171286Y816917D01*
Y809045D01*
X1179157Y801174D01*
X1187029D01*
X1179157D01*
X1171286Y793302D01*
Y785431D01*
X1179157Y777559D01*
X1194900D01*
X1202772Y785431D01*
X-1262795Y1192911D02*
X-1270667Y1185039D01*
X-1286410D01*
X-1294281Y1192911D01*
Y1224397D01*
X-1286410Y1232268D01*
X-1270667D01*
X-1262795Y1224397D01*
Y1216525D01*
X-1270667Y1208654D01*
X-1294281D01*
X-403543Y1190945D02*
X-419286D01*
X-411415D01*
Y1238174D01*
X-403543Y1230303D01*
X-442901Y1190945D02*
X-458644D01*
X-450772D01*
Y1238174D01*
X-442901Y1230303D01*
D36*
X-1240158Y-1446850D02*
X-1240399Y-1436864D01*
X-1241122Y-1426902D01*
X-1242326Y-1416986D01*
X-1244008Y-1407139D01*
X-1246164Y-1397386D01*
X-1248788Y-1387747D01*
X-1251874Y-1378247D01*
X-1255417Y-1368908D01*
X-1259406Y-1359750D01*
X-1263833Y-1350795D01*
X-1268687Y-1342065D01*
X-1273958Y-1333580D01*
X-1279632Y-1325359D01*
X-1285697Y-1317422D01*
X-1292139Y-1309788D01*
X-1298941Y-1302473D01*
X-1306089Y-1295496D01*
X-1313566Y-1288872D01*
X-1321354Y-1282617D01*
X-1329435Y-1276745D01*
X-1337791Y-1271271D01*
X-1346401Y-1266207D01*
X-1355246Y-1261565D01*
X-1364304Y-1257356D01*
X-1373556Y-1253589D01*
X-1382979Y-1250274D01*
X-1392551Y-1247418D01*
X-1402249Y-1245027D01*
X-1412052Y-1243108D01*
X-1421936Y-1241665D01*
X-1431879Y-1240700D01*
X-1441856Y-1240218D01*
X-1451845D01*
X-1461822Y-1240700D01*
X-1471764Y-1241665D01*
X-1481649Y-1243108D01*
X-1491451Y-1245027D01*
X-1501150Y-1247418D01*
X-1510722Y-1250274D01*
X-1520145Y-1253589D01*
X-1529396Y-1257356D01*
X-1538455Y-1261565D01*
X-1547300Y-1266207D01*
X-1555910Y-1271272D01*
X-1564265Y-1276746D01*
X-1572347Y-1282617D01*
X-1580135Y-1288872D01*
X-1587612Y-1295496D01*
X-1594760Y-1302473D01*
X-1601562Y-1309788D01*
X-1608004Y-1317422D01*
X-1614069Y-1325360D01*
X-1619743Y-1333580D01*
X-1625013Y-1342065D01*
X-1629868Y-1350795D01*
X-1634295Y-1359750D01*
X-1638284Y-1368908D01*
X-1641826Y-1378247D01*
X-1644913Y-1387747D01*
X-1647537Y-1397386D01*
X-1649693Y-1407139D01*
X-1651374Y-1416986D01*
X-1652578Y-1426902D01*
X-1653302Y-1436864D01*
X-1653543Y-1446850D01*
X-1653302Y-1456836D01*
X-1652578Y-1466799D01*
X-1651374Y-1476715D01*
X-1649693Y-1486562D01*
X-1647537Y-1496315D01*
X-1644913Y-1505953D01*
X-1641826Y-1515453D01*
X-1638284Y-1524793D01*
X-1634295Y-1533951D01*
X-1629868Y-1542905D01*
X-1625014Y-1551635D01*
X-1619743Y-1560120D01*
X-1614069Y-1568341D01*
X-1608004Y-1576278D01*
X-1601562Y-1583913D01*
X-1594760Y-1591227D01*
X-1587612Y-1598205D01*
X-1580135Y-1604829D01*
X-1572347Y-1611084D01*
X-1564266Y-1616955D01*
X-1555910Y-1622429D01*
X-1547300Y-1627493D01*
X-1538455Y-1632135D01*
X-1529397Y-1636345D01*
X-1520145Y-1640111D01*
X-1510723Y-1643427D01*
X-1501151Y-1646283D01*
X-1491452Y-1648674D01*
X-1481649Y-1650593D01*
X-1471765Y-1652036D01*
X-1461823Y-1653000D01*
X-1451845Y-1653483D01*
X-1441857Y-1653483D01*
X-1431879Y-1653000D01*
X-1421937Y-1652036D01*
X-1412053Y-1650593D01*
X-1402250Y-1648674D01*
X-1392551Y-1646284D01*
X-1382979Y-1643427D01*
X-1373557Y-1640112D01*
X-1364305Y-1636345D01*
X-1355247Y-1632136D01*
X-1346402Y-1627494D01*
X-1337792Y-1622430D01*
X-1329436Y-1616956D01*
X-1321355Y-1611084D01*
X-1313567Y-1604830D01*
X-1306090Y-1598206D01*
X-1298942Y-1591228D01*
X-1292139Y-1583914D01*
X-1285698Y-1576279D01*
X-1279633Y-1568342D01*
X-1273958Y-1560121D01*
X-1268688Y-1551636D01*
X-1263833Y-1542906D01*
X-1259406Y-1533952D01*
X-1255417Y-1524794D01*
X-1251875Y-1515454D01*
X-1248788Y-1505954D01*
X-1246164Y-1496316D01*
X-1244008Y-1486563D01*
X-1242327Y-1476716D01*
X-1241122Y-1466800D01*
X-1240399Y-1456838D01*
X-1240158Y-1446852D01*
X-826772Y-1446850D02*
X-827013Y-1436864D01*
X-827737Y-1426902D01*
X-828941Y-1416986D01*
X-830622Y-1407139D01*
X-832778Y-1397386D01*
X-835402Y-1387747D01*
X-838489Y-1378247D01*
X-842031Y-1368908D01*
X-846020Y-1359750D01*
X-850447Y-1350795D01*
X-855302Y-1342065D01*
X-860572Y-1333580D01*
X-866246Y-1325359D01*
X-872311Y-1317422D01*
X-878753Y-1309788D01*
X-885555Y-1302473D01*
X-892703Y-1295496D01*
X-900180Y-1288872D01*
X-907968Y-1282617D01*
X-916050Y-1276745D01*
X-924405Y-1271271D01*
X-933015Y-1266207D01*
X-941860Y-1261565D01*
X-950919Y-1257356D01*
X-960170Y-1253589D01*
X-969593Y-1250274D01*
X-979165Y-1247418D01*
X-988864Y-1245027D01*
X-998666Y-1243108D01*
X-1008551Y-1241665D01*
X-1018493Y-1240700D01*
X-1028470Y-1240218D01*
X-1038459D01*
X-1048436Y-1240700D01*
X-1058379Y-1241665D01*
X-1068263Y-1243108D01*
X-1078066Y-1245027D01*
X-1087764Y-1247418D01*
X-1097336Y-1250274D01*
X-1106759Y-1253589D01*
X-1116011Y-1257356D01*
X-1125069Y-1261565D01*
X-1133914Y-1266207D01*
X-1142524Y-1271272D01*
X-1150880Y-1276746D01*
X-1158961Y-1282617D01*
X-1166749Y-1288872D01*
X-1174226Y-1295496D01*
X-1181374Y-1302473D01*
X-1188177Y-1309788D01*
X-1194618Y-1317422D01*
X-1200683Y-1325360D01*
X-1206357Y-1333580D01*
X-1211628Y-1342065D01*
X-1216482Y-1350795D01*
X-1220909Y-1359750D01*
X-1224898Y-1368908D01*
X-1228440Y-1378247D01*
X-1231527Y-1387747D01*
X-1234151Y-1397386D01*
X-1236307Y-1407139D01*
X-1237988Y-1416986D01*
X-1239193Y-1426902D01*
X-1239916Y-1436864D01*
X-1240158Y-1446850D01*
X-1239916Y-1456836D01*
X-1239193Y-1466799D01*
X-1237989Y-1476715D01*
X-1236307Y-1486562D01*
X-1234151Y-1496315D01*
X-1231527Y-1505953D01*
X-1228440Y-1515453D01*
X-1224898Y-1524793D01*
X-1220909Y-1533951D01*
X-1216482Y-1542905D01*
X-1211628Y-1551635D01*
X-1206357Y-1560120D01*
X-1200683Y-1568341D01*
X-1194618Y-1576278D01*
X-1188177Y-1583913D01*
X-1181374Y-1591227D01*
X-1174226Y-1598205D01*
X-1166749Y-1604829D01*
X-1158961Y-1611084D01*
X-1150880Y-1616955D01*
X-1142524Y-1622429D01*
X-1133914Y-1627493D01*
X-1125070Y-1632135D01*
X-1116011Y-1636345D01*
X-1106759Y-1640111D01*
X-1097337Y-1643427D01*
X-1087765Y-1646283D01*
X-1078066Y-1648674D01*
X-1068263Y-1650593D01*
X-1058379Y-1652036D01*
X-1048437Y-1653000D01*
X-1038460Y-1653483D01*
X-1028471Y-1653483D01*
X-1018494Y-1653000D01*
X-1008551Y-1652036D01*
X-998667Y-1650593D01*
X-988864Y-1648674D01*
X-979166Y-1646284D01*
X-969594Y-1643427D01*
X-960171Y-1640112D01*
X-950919Y-1636345D01*
X-941861Y-1632136D01*
X-933016Y-1627494D01*
X-924406Y-1622430D01*
X-916050Y-1616956D01*
X-907969Y-1611084D01*
X-900181Y-1604830D01*
X-892704Y-1598206D01*
X-885556Y-1591228D01*
X-878753Y-1583914D01*
X-872312Y-1576279D01*
X-866247Y-1568342D01*
X-860573Y-1560121D01*
X-855302Y-1551636D01*
X-850448Y-1542906D01*
X-846021Y-1533952D01*
X-842031Y-1524794D01*
X-838489Y-1515454D01*
X-835402Y-1505954D01*
X-832778Y-1496316D01*
X-830623Y-1486563D01*
X-828941Y-1476716D01*
X-827737Y-1466800D01*
X-827013Y-1456838D01*
X-826772Y-1446852D01*
X826772Y1033465D02*
X826530Y1043451D01*
X825807Y1053414D01*
X824603Y1063330D01*
X822921Y1073176D01*
X820766Y1082930D01*
X818142Y1092568D01*
X815055Y1102068D01*
X811513Y1111408D01*
X807524Y1120566D01*
X803096Y1129520D01*
X798242Y1138250D01*
X792971Y1146735D01*
X787297Y1154956D01*
X781232Y1162893D01*
X774791Y1170528D01*
X767988Y1177842D01*
X760840Y1184820D01*
X753363Y1191444D01*
X745575Y1197698D01*
X737494Y1203570D01*
X729139Y1209044D01*
X720528Y1214108D01*
X711684Y1218750D01*
X702625Y1222959D01*
X693373Y1226726D01*
X683951Y1230042D01*
X674379Y1232898D01*
X664680Y1235288D01*
X654877Y1237208D01*
X644993Y1238651D01*
X635051Y1239615D01*
X625073Y1240098D01*
X615085D01*
X605107Y1239615D01*
X595165Y1238651D01*
X585281Y1237208D01*
X575478Y1235288D01*
X565779Y1232898D01*
X556207Y1230042D01*
X546785Y1226726D01*
X537533Y1222959D01*
X528474Y1218750D01*
X519630Y1214108D01*
X511019Y1209044D01*
X502664Y1203570D01*
X494583Y1197698D01*
X486795Y1191444D01*
X479318Y1184820D01*
X472170Y1177842D01*
X465367Y1170528D01*
X458926Y1162893D01*
X452861Y1154956D01*
X447187Y1146735D01*
X441916Y1138250D01*
X437062Y1129520D01*
X432635Y1120566D01*
X428645Y1111408D01*
X425103Y1102068D01*
X422016Y1092568D01*
X419392Y1082930D01*
X417237Y1073176D01*
X415555Y1063330D01*
X414351Y1053414D01*
X413627Y1043451D01*
X413386Y1033465D01*
X413627Y1023479D01*
X414351Y1013516D01*
X415555Y1003600D01*
X417237Y993754D01*
X419392Y984000D01*
X422016Y974362D01*
X425103Y964862D01*
X428645Y955522D01*
X432634Y946365D01*
X437061Y937410D01*
X441916Y928680D01*
X447186Y920195D01*
X452861Y911974D01*
X458926Y904037D01*
X465367Y896403D01*
X472170Y889088D01*
X479318Y882111D01*
X486794Y875487D01*
X494582Y869232D01*
X502664Y863360D01*
X511019Y857886D01*
X519629Y852822D01*
X528474Y848180D01*
X537533Y843971D01*
X546784Y840204D01*
X556207Y836889D01*
X565779Y834032D01*
X575477Y831642D01*
X585280Y829722D01*
X595164Y828279D01*
X605107Y827315D01*
X615084Y826832D01*
X625073Y826832D01*
X635050Y827315D01*
X644992Y828279D01*
X654876Y829722D01*
X664679Y831641D01*
X674378Y834032D01*
X683950Y836888D01*
X693373Y840203D01*
X702624Y843970D01*
X711683Y848180D01*
X720528Y852822D01*
X729138Y857886D01*
X737493Y863360D01*
X745574Y869231D01*
X753363Y875486D01*
X760840Y882110D01*
X767988Y889087D01*
X774790Y896402D01*
X781231Y904036D01*
X787297Y911973D01*
X792971Y920194D01*
X798241Y928679D01*
X803096Y937409D01*
X807523Y946363D01*
X811512Y955521D01*
X815054Y964861D01*
X818141Y974361D01*
X820765Y983999D01*
X822921Y993753D01*
X824603Y1003599D01*
X825807Y1013515D01*
X826530Y1023478D01*
X826772Y1033464D01*
X1653544Y1033465D02*
X1653302Y1043451D01*
X1652579Y1053414D01*
X1651375Y1063330D01*
X1649693Y1073176D01*
X1647538Y1082930D01*
X1644913Y1092568D01*
X1641827Y1102068D01*
X1638284Y1111408D01*
X1634295Y1120566D01*
X1629868Y1129520D01*
X1625014Y1138250D01*
X1619743Y1146735D01*
X1614069Y1154956D01*
X1608004Y1162893D01*
X1601563Y1170528D01*
X1594760Y1177842D01*
X1587612Y1184820D01*
X1580135Y1191444D01*
X1572347Y1197698D01*
X1564266Y1203570D01*
X1555910Y1209044D01*
X1547300Y1214108D01*
X1538455Y1218750D01*
X1529397Y1222959D01*
X1520145Y1226726D01*
X1510722Y1230042D01*
X1501151Y1232898D01*
X1491452Y1235288D01*
X1481649Y1237208D01*
X1471765Y1238651D01*
X1461822Y1239615D01*
X1451845Y1240098D01*
X1441856D01*
X1431879Y1239615D01*
X1421937Y1238651D01*
X1412053Y1237208D01*
X1402250Y1235288D01*
X1392551Y1232898D01*
X1382979Y1230042D01*
X1373556Y1226726D01*
X1364305Y1222959D01*
X1355246Y1218750D01*
X1346401Y1214108D01*
X1337791Y1209044D01*
X1329436Y1203570D01*
X1321354Y1197698D01*
X1313566Y1191444D01*
X1306090Y1184820D01*
X1298941Y1177842D01*
X1292139Y1170528D01*
X1285698Y1162893D01*
X1279633Y1154956D01*
X1273958Y1146735D01*
X1268688Y1138250D01*
X1263833Y1129520D01*
X1259406Y1120566D01*
X1255417Y1111408D01*
X1251875Y1102068D01*
X1248788Y1092568D01*
X1246164Y1082930D01*
X1244009Y1073176D01*
X1242327Y1063330D01*
X1241123Y1053414D01*
X1240399Y1043451D01*
X1240158Y1033465D01*
X1240399Y1023479D01*
X1241123Y1013516D01*
X1242327Y1003600D01*
X1244008Y993754D01*
X1246164Y984000D01*
X1248788Y974362D01*
X1251875Y964862D01*
X1255417Y955522D01*
X1259406Y946365D01*
X1263833Y937410D01*
X1268688Y928680D01*
X1273958Y920195D01*
X1279632Y911974D01*
X1285697Y904037D01*
X1292139Y896403D01*
X1298941Y889088D01*
X1306089Y882111D01*
X1313566Y875487D01*
X1321354Y869232D01*
X1329436Y863360D01*
X1337791Y857886D01*
X1346401Y852822D01*
X1355246Y848180D01*
X1364304Y843971D01*
X1373556Y840204D01*
X1382979Y836889D01*
X1392551Y834032D01*
X1402249Y831642D01*
X1412052Y829722D01*
X1421936Y828279D01*
X1431878Y827315D01*
X1441856Y826832D01*
X1451845Y826832D01*
X1461822Y827315D01*
X1471764Y828279D01*
X1481648Y829722D01*
X1491451Y831641D01*
X1501150Y834032D01*
X1510722Y836888D01*
X1520144Y840203D01*
X1529396Y843970D01*
X1538455Y848180D01*
X1547299Y852822D01*
X1555910Y857886D01*
X1564265Y863360D01*
X1572346Y869231D01*
X1580134Y875486D01*
X1587611Y882110D01*
X1594759Y889087D01*
X1601562Y896402D01*
X1608003Y904036D01*
X1614068Y911973D01*
X1619743Y920194D01*
X1625013Y928679D01*
X1629868Y937409D01*
X1634295Y946363D01*
X1638284Y955521D01*
X1641826Y964861D01*
X1644913Y974361D01*
X1647537Y983999D01*
X1649693Y993753D01*
X1651375Y1003599D01*
X1652579Y1013515D01*
X1653302Y1023478D01*
X1653544Y1033464D01*
X-826772Y1446851D02*
X-827013Y1456837D01*
X-827737Y1466800D01*
X-828941Y1476716D01*
X-830622Y1486562D01*
X-832778Y1496316D01*
X-835402Y1505954D01*
X-838489Y1515454D01*
X-842031Y1524794D01*
X-846020Y1533951D01*
X-850447Y1542906D01*
X-855302Y1551636D01*
X-860572Y1560121D01*
X-866246Y1568342D01*
X-872311Y1576279D01*
X-878753Y1583914D01*
X-885555Y1591228D01*
X-892703Y1598206D01*
X-900180Y1604830D01*
X-907968Y1611084D01*
X-916050Y1616956D01*
X-924405Y1622430D01*
X-933015Y1627494D01*
X-941860Y1632136D01*
X-950919Y1636345D01*
X-960170Y1640112D01*
X-969593Y1643428D01*
X-979165Y1646284D01*
X-988864Y1648674D01*
X-998666Y1650593D01*
X-1008551Y1652037D01*
X-1018493Y1653001D01*
X-1028470Y1653483D01*
X-1038459D01*
X-1048436Y1653001D01*
X-1058379Y1652037D01*
X-1068263Y1650593D01*
X-1078066Y1648674D01*
X-1087764Y1646284D01*
X-1097336Y1643428D01*
X-1106759Y1640112D01*
X-1116011Y1636345D01*
X-1125069Y1632136D01*
X-1133914Y1627494D01*
X-1142524Y1622430D01*
X-1150880Y1616956D01*
X-1158961Y1611084D01*
X-1166749Y1604829D01*
X-1174226Y1598206D01*
X-1181374Y1591228D01*
X-1188177Y1583914D01*
X-1194618Y1576279D01*
X-1200683Y1568342D01*
X-1206357Y1560121D01*
X-1211628Y1551636D01*
X-1216482Y1542906D01*
X-1220909Y1533951D01*
X-1224898Y1524794D01*
X-1228440Y1515454D01*
X-1231527Y1505954D01*
X-1234151Y1496316D01*
X-1236307Y1486562D01*
X-1237988Y1476716D01*
X-1239193Y1466800D01*
X-1239916Y1456837D01*
X-1240158Y1446851D01*
X-1239916Y1436865D01*
X-1239193Y1426902D01*
X-1237989Y1416986D01*
X-1236307Y1407140D01*
X-1234151Y1397386D01*
X-1231527Y1387748D01*
X-1228440Y1378248D01*
X-1224898Y1368908D01*
X-1220909Y1359751D01*
X-1216482Y1350796D01*
X-1211628Y1342066D01*
X-1206357Y1333581D01*
X-1200683Y1325360D01*
X-1194618Y1317423D01*
X-1188177Y1309788D01*
X-1181374Y1302474D01*
X-1174226Y1295496D01*
X-1166749Y1288872D01*
X-1158961Y1282618D01*
X-1150880Y1276746D01*
X-1142524Y1271272D01*
X-1133914Y1266208D01*
X-1125070Y1261566D01*
X-1116011Y1257357D01*
X-1106759Y1253590D01*
X-1097337Y1250274D01*
X-1087765Y1247418D01*
X-1078066Y1245028D01*
X-1068263Y1243108D01*
X-1058379Y1241665D01*
X-1048437Y1240701D01*
X-1038460Y1240218D01*
X-1028471Y1240218D01*
X-1018494Y1240701D01*
X-1008551Y1241665D01*
X-998667Y1243108D01*
X-988864Y1245027D01*
X-979166Y1247418D01*
X-969594Y1250274D01*
X-960171Y1253589D01*
X-950919Y1257356D01*
X-941861Y1261565D01*
X-933016Y1266207D01*
X-924406Y1271272D01*
X-916050Y1276745D01*
X-907969Y1282617D01*
X-900181Y1288872D01*
X-892704Y1295495D01*
X-885556Y1302473D01*
X-878753Y1309787D01*
X-872312Y1317422D01*
X-866247Y1325359D01*
X-860573Y1333580D01*
X-855302Y1342065D01*
X-850448Y1350795D01*
X-846021Y1359749D01*
X-842031Y1368907D01*
X-838489Y1378247D01*
X-835402Y1387747D01*
X-832778Y1397385D01*
X-830623Y1407139D01*
X-828941Y1416985D01*
X-827737Y1426901D01*
X-827013Y1436864D01*
X-826772Y1446850D01*
X0Y1446851D02*
X-241Y1456837D01*
X-965Y1466800D01*
X-2169Y1476716D01*
X-3851Y1486562D01*
X-6006Y1496316D01*
X-8630Y1505954D01*
X-11717Y1515454D01*
X-15259Y1524794D01*
X-19248Y1533951D01*
X-23675Y1542906D01*
X-28530Y1551636D01*
X-33800Y1560121D01*
X-39475Y1568342D01*
X-45540Y1576279D01*
X-51981Y1583914D01*
X-58784Y1591228D01*
X-65932Y1598206D01*
X-73409Y1604830D01*
X-81197Y1611084D01*
X-89278Y1616956D01*
X-97633Y1622430D01*
X-106243Y1627494D01*
X-115088Y1632136D01*
X-124147Y1636345D01*
X-133399Y1640112D01*
X-142821Y1643428D01*
X-152393Y1646284D01*
X-162092Y1648674D01*
X-171895Y1650593D01*
X-181779Y1652037D01*
X-191721Y1653001D01*
X-201698Y1653483D01*
X-211687D01*
X-221665Y1653001D01*
X-231607Y1652037D01*
X-241491Y1650593D01*
X-251294Y1648674D01*
X-260993Y1646284D01*
X-270565Y1643428D01*
X-279987Y1640112D01*
X-289239Y1636345D01*
X-298298Y1632136D01*
X-307142Y1627494D01*
X-315752Y1622430D01*
X-324108Y1616956D01*
X-332189Y1611084D01*
X-339977Y1604829D01*
X-347454Y1598206D01*
X-354602Y1591228D01*
X-361405Y1583914D01*
X-367846Y1576279D01*
X-373911Y1568342D01*
X-379585Y1560121D01*
X-384856Y1551636D01*
X-389710Y1542906D01*
X-394137Y1533951D01*
X-398127Y1524794D01*
X-401669Y1515454D01*
X-404755Y1505954D01*
X-407380Y1496316D01*
X-409535Y1486562D01*
X-411217Y1476716D01*
X-412421Y1466800D01*
X-413144Y1456837D01*
X-413386Y1446851D01*
X-413144Y1436865D01*
X-412421Y1426902D01*
X-411217Y1416986D01*
X-409535Y1407140D01*
X-407380Y1397386D01*
X-404755Y1387748D01*
X-401669Y1378248D01*
X-398127Y1368908D01*
X-394137Y1359751D01*
X-389710Y1350796D01*
X-384856Y1342066D01*
X-379585Y1333581D01*
X-373911Y1325360D01*
X-367846Y1317423D01*
X-361405Y1309788D01*
X-354602Y1302474D01*
X-347454Y1295496D01*
X-339977Y1288872D01*
X-332189Y1282618D01*
X-324108Y1276746D01*
X-315753Y1271272D01*
X-307142Y1266208D01*
X-298298Y1261566D01*
X-289239Y1257357D01*
X-279988Y1253590D01*
X-270565Y1250274D01*
X-260993Y1247418D01*
X-251294Y1245028D01*
X-241492Y1243108D01*
X-231607Y1241665D01*
X-221665Y1240701D01*
X-211688Y1240218D01*
X-201699Y1240218D01*
X-191722Y1240701D01*
X-181779Y1241665D01*
X-171895Y1243108D01*
X-162093Y1245027D01*
X-152394Y1247418D01*
X-142822Y1250274D01*
X-133399Y1253589D01*
X-124148Y1257356D01*
X-115089Y1261565D01*
X-106244Y1266207D01*
X-97634Y1271272D01*
X-89279Y1276745D01*
X-81197Y1282617D01*
X-73409Y1288872D01*
X-65932Y1295495D01*
X-58784Y1302473D01*
X-51982Y1309787D01*
X-45540Y1317422D01*
X-39475Y1325359D01*
X-33801Y1333580D01*
X-28530Y1342065D01*
X-23676Y1350795D01*
X-19249Y1359749D01*
X-15259Y1368907D01*
X-11717Y1378247D01*
X-8630Y1387747D01*
X-6006Y1397385D01*
X-3851Y1407139D01*
X-2169Y1416985D01*
X-965Y1426901D01*
X-241Y1436864D01*
X0Y1446850D01*
X826772Y1446851D02*
X826530Y1456837D01*
X825807Y1466800D01*
X824603Y1476716D01*
X822921Y1486562D01*
X820766Y1496316D01*
X818142Y1505954D01*
X815055Y1515454D01*
X811513Y1524794D01*
X807524Y1533951D01*
X803096Y1542906D01*
X798242Y1551636D01*
X792971Y1560121D01*
X787297Y1568342D01*
X781232Y1576279D01*
X774791Y1583914D01*
X767988Y1591228D01*
X760840Y1598206D01*
X753363Y1604830D01*
X745575Y1611084D01*
X737494Y1616956D01*
X729139Y1622430D01*
X720528Y1627494D01*
X711684Y1632136D01*
X702625Y1636345D01*
X693373Y1640112D01*
X683951Y1643428D01*
X674379Y1646284D01*
X664680Y1648674D01*
X654877Y1650593D01*
X644993Y1652037D01*
X635051Y1653001D01*
X625073Y1653483D01*
X615085D01*
X605107Y1653001D01*
X595165Y1652037D01*
X585281Y1650593D01*
X575478Y1648674D01*
X565779Y1646284D01*
X556207Y1643428D01*
X546785Y1640112D01*
X537533Y1636345D01*
X528474Y1632136D01*
X519630Y1627494D01*
X511019Y1622430D01*
X502664Y1616956D01*
X494583Y1611084D01*
X486795Y1604829D01*
X479318Y1598206D01*
X472170Y1591228D01*
X465367Y1583914D01*
X458926Y1576279D01*
X452861Y1568342D01*
X447187Y1560121D01*
X441916Y1551636D01*
X437062Y1542906D01*
X432635Y1533951D01*
X428645Y1524794D01*
X425103Y1515454D01*
X422016Y1505954D01*
X419392Y1496316D01*
X417237Y1486562D01*
X415555Y1476716D01*
X414351Y1466800D01*
X413627Y1456837D01*
X413386Y1446851D01*
X413627Y1436865D01*
X414351Y1426902D01*
X415555Y1416986D01*
X417237Y1407140D01*
X419392Y1397386D01*
X422016Y1387748D01*
X425103Y1378248D01*
X428645Y1368908D01*
X432634Y1359751D01*
X437061Y1350796D01*
X441916Y1342066D01*
X447186Y1333581D01*
X452861Y1325360D01*
X458926Y1317423D01*
X465367Y1309788D01*
X472170Y1302474D01*
X479318Y1295496D01*
X486794Y1288872D01*
X494582Y1282618D01*
X502664Y1276746D01*
X511019Y1271272D01*
X519629Y1266208D01*
X528474Y1261566D01*
X537533Y1257357D01*
X546784Y1253590D01*
X556207Y1250274D01*
X565779Y1247418D01*
X575477Y1245028D01*
X585280Y1243108D01*
X595164Y1241665D01*
X605107Y1240701D01*
X615084Y1240218D01*
X625073Y1240218D01*
X635050Y1240701D01*
X644992Y1241665D01*
X654876Y1243108D01*
X664679Y1245027D01*
X674378Y1247418D01*
X683950Y1250274D01*
X693373Y1253589D01*
X702624Y1257356D01*
X711683Y1261565D01*
X720528Y1266207D01*
X729138Y1271272D01*
X737493Y1276745D01*
X745574Y1282617D01*
X753363Y1288872D01*
X760840Y1295495D01*
X767988Y1302473D01*
X774790Y1309787D01*
X781231Y1317422D01*
X787297Y1325359D01*
X792971Y1333580D01*
X798241Y1342065D01*
X803096Y1350795D01*
X807523Y1359749D01*
X811512Y1368907D01*
X815054Y1378247D01*
X818141Y1387747D01*
X820765Y1397385D01*
X822921Y1407139D01*
X824603Y1416985D01*
X825807Y1426901D01*
X826530Y1436864D01*
X826772Y1446850D01*
X1653544Y1446851D02*
X1653302Y1456837D01*
X1652579Y1466800D01*
X1651375Y1476716D01*
X1649693Y1486562D01*
X1647538Y1496316D01*
X1644913Y1505954D01*
X1641827Y1515454D01*
X1638284Y1524794D01*
X1634295Y1533951D01*
X1629868Y1542906D01*
X1625014Y1551636D01*
X1619743Y1560121D01*
X1614069Y1568342D01*
X1608004Y1576279D01*
X1601563Y1583914D01*
X1594760Y1591228D01*
X1587612Y1598206D01*
X1580135Y1604830D01*
X1572347Y1611084D01*
X1564266Y1616956D01*
X1555910Y1622430D01*
X1547300Y1627494D01*
X1538455Y1632136D01*
X1529397Y1636345D01*
X1520145Y1640112D01*
X1510722Y1643428D01*
X1501151Y1646284D01*
X1491452Y1648674D01*
X1481649Y1650593D01*
X1471765Y1652037D01*
X1461822Y1653001D01*
X1451845Y1653483D01*
X1441856D01*
X1431879Y1653001D01*
X1421937Y1652037D01*
X1412053Y1650593D01*
X1402250Y1648674D01*
X1392551Y1646284D01*
X1382979Y1643428D01*
X1373556Y1640112D01*
X1364305Y1636345D01*
X1355246Y1632136D01*
X1346401Y1627494D01*
X1337791Y1622430D01*
X1329436Y1616956D01*
X1321354Y1611084D01*
X1313566Y1604829D01*
X1306090Y1598206D01*
X1298941Y1591228D01*
X1292139Y1583914D01*
X1285698Y1576279D01*
X1279633Y1568342D01*
X1273958Y1560121D01*
X1268688Y1551636D01*
X1263833Y1542906D01*
X1259406Y1533951D01*
X1255417Y1524794D01*
X1251875Y1515454D01*
X1248788Y1505954D01*
X1246164Y1496316D01*
X1244009Y1486562D01*
X1242327Y1476716D01*
X1241123Y1466800D01*
X1240399Y1456837D01*
X1240158Y1446851D01*
X1240399Y1436865D01*
X1241123Y1426902D01*
X1242327Y1416986D01*
X1244008Y1407140D01*
X1246164Y1397386D01*
X1248788Y1387748D01*
X1251875Y1378248D01*
X1255417Y1368908D01*
X1259406Y1359751D01*
X1263833Y1350796D01*
X1268688Y1342066D01*
X1273958Y1333581D01*
X1279632Y1325360D01*
X1285697Y1317423D01*
X1292139Y1309788D01*
X1298941Y1302474D01*
X1306089Y1295496D01*
X1313566Y1288872D01*
X1321354Y1282618D01*
X1329436Y1276746D01*
X1337791Y1271272D01*
X1346401Y1266208D01*
X1355246Y1261566D01*
X1364304Y1257357D01*
X1373556Y1253590D01*
X1382979Y1250274D01*
X1392551Y1247418D01*
X1402249Y1245028D01*
X1412052Y1243108D01*
X1421936Y1241665D01*
X1431878Y1240701D01*
X1441856Y1240218D01*
X1451845Y1240218D01*
X1461822Y1240701D01*
X1471764Y1241665D01*
X1481648Y1243108D01*
X1491451Y1245027D01*
X1501150Y1247418D01*
X1510722Y1250274D01*
X1520144Y1253589D01*
X1529396Y1257356D01*
X1538455Y1261565D01*
X1547299Y1266207D01*
X1555910Y1271272D01*
X1564265Y1276745D01*
X1572346Y1282617D01*
X1580134Y1288872D01*
X1587611Y1295495D01*
X1594759Y1302473D01*
X1601562Y1309787D01*
X1608003Y1317422D01*
X1614068Y1325359D01*
X1619743Y1333580D01*
X1625013Y1342065D01*
X1629868Y1350795D01*
X1634295Y1359749D01*
X1638284Y1368907D01*
X1641826Y1378247D01*
X1644913Y1387747D01*
X1647537Y1397385D01*
X1649693Y1407139D01*
X1651375Y1416985D01*
X1652579Y1426901D01*
X1653302Y1436864D01*
X1653544Y1446850D01*
X0Y-1446850D02*
X-241Y-1436864D01*
X-965Y-1426902D01*
X-2169Y-1416986D01*
X-3851Y-1407139D01*
X-6006Y-1397386D01*
X-8630Y-1387747D01*
X-11717Y-1378247D01*
X-15259Y-1368908D01*
X-19248Y-1359750D01*
X-23675Y-1350795D01*
X-28530Y-1342065D01*
X-33800Y-1333580D01*
X-39475Y-1325359D01*
X-45540Y-1317422D01*
X-51981Y-1309788D01*
X-58784Y-1302473D01*
X-65932Y-1295496D01*
X-73409Y-1288872D01*
X-81197Y-1282617D01*
X-89278Y-1276745D01*
X-97633Y-1271271D01*
X-106243Y-1266207D01*
X-115088Y-1261565D01*
X-124147Y-1257356D01*
X-133399Y-1253589D01*
X-142821Y-1250274D01*
X-152393Y-1247418D01*
X-162092Y-1245027D01*
X-171895Y-1243108D01*
X-181779Y-1241665D01*
X-191721Y-1240700D01*
X-201698Y-1240218D01*
X-211687D01*
X-221665Y-1240700D01*
X-231607Y-1241665D01*
X-241491Y-1243108D01*
X-251294Y-1245027D01*
X-260993Y-1247418D01*
X-270565Y-1250274D01*
X-279987Y-1253589D01*
X-289239Y-1257356D01*
X-298298Y-1261565D01*
X-307142Y-1266207D01*
X-315752Y-1271272D01*
X-324108Y-1276746D01*
X-332189Y-1282617D01*
X-339977Y-1288872D01*
X-347454Y-1295496D01*
X-354602Y-1302473D01*
X-361405Y-1309788D01*
X-367846Y-1317422D01*
X-373911Y-1325360D01*
X-379585Y-1333580D01*
X-384856Y-1342065D01*
X-389710Y-1350795D01*
X-394137Y-1359750D01*
X-398127Y-1368908D01*
X-401669Y-1378247D01*
X-404755Y-1387747D01*
X-407380Y-1397386D01*
X-409535Y-1407139D01*
X-411217Y-1416986D01*
X-412421Y-1426902D01*
X-413144Y-1436864D01*
X-413386Y-1446850D01*
X-413144Y-1456836D01*
X-412421Y-1466799D01*
X-411217Y-1476715D01*
X-409535Y-1486562D01*
X-407380Y-1496315D01*
X-404755Y-1505953D01*
X-401669Y-1515453D01*
X-398127Y-1524793D01*
X-394137Y-1533951D01*
X-389710Y-1542905D01*
X-384856Y-1551635D01*
X-379585Y-1560120D01*
X-373911Y-1568341D01*
X-367846Y-1576278D01*
X-361405Y-1583913D01*
X-354602Y-1591227D01*
X-347454Y-1598205D01*
X-339977Y-1604829D01*
X-332189Y-1611084D01*
X-324108Y-1616955D01*
X-315753Y-1622429D01*
X-307142Y-1627493D01*
X-298298Y-1632135D01*
X-289239Y-1636345D01*
X-279988Y-1640111D01*
X-270565Y-1643427D01*
X-260993Y-1646283D01*
X-251294Y-1648674D01*
X-241492Y-1650593D01*
X-231607Y-1652036D01*
X-221665Y-1653000D01*
X-211688Y-1653483D01*
X-201699Y-1653483D01*
X-191722Y-1653000D01*
X-181779Y-1652036D01*
X-171895Y-1650593D01*
X-162093Y-1648674D01*
X-152394Y-1646284D01*
X-142822Y-1643427D01*
X-133399Y-1640112D01*
X-124148Y-1636345D01*
X-115089Y-1632136D01*
X-106244Y-1627494D01*
X-97634Y-1622430D01*
X-89279Y-1616956D01*
X-81197Y-1611084D01*
X-73409Y-1604830D01*
X-65932Y-1598206D01*
X-58784Y-1591228D01*
X-51982Y-1583914D01*
X-45540Y-1576279D01*
X-39475Y-1568342D01*
X-33801Y-1560121D01*
X-28530Y-1551636D01*
X-23676Y-1542906D01*
X-19249Y-1533952D01*
X-15259Y-1524794D01*
X-11717Y-1515454D01*
X-8630Y-1505954D01*
X-6006Y-1496316D01*
X-3851Y-1486563D01*
X-2169Y-1476716D01*
X-965Y-1466800D01*
X-241Y-1456838D01*
X0Y-1446852D01*
X826772Y-1446850D02*
X826530Y-1436864D01*
X825807Y-1426902D01*
X824603Y-1416986D01*
X822921Y-1407139D01*
X820766Y-1397386D01*
X818142Y-1387747D01*
X815055Y-1378247D01*
X811513Y-1368908D01*
X807524Y-1359750D01*
X803096Y-1350795D01*
X798242Y-1342065D01*
X792971Y-1333580D01*
X787297Y-1325359D01*
X781232Y-1317422D01*
X774791Y-1309788D01*
X767988Y-1302473D01*
X760840Y-1295496D01*
X753363Y-1288872D01*
X745575Y-1282617D01*
X737494Y-1276745D01*
X729139Y-1271271D01*
X720528Y-1266207D01*
X711684Y-1261565D01*
X702625Y-1257356D01*
X693373Y-1253589D01*
X683951Y-1250274D01*
X674379Y-1247418D01*
X664680Y-1245027D01*
X654877Y-1243108D01*
X644993Y-1241665D01*
X635051Y-1240700D01*
X625073Y-1240218D01*
X615085D01*
X605107Y-1240700D01*
X595165Y-1241665D01*
X585281Y-1243108D01*
X575478Y-1245027D01*
X565779Y-1247418D01*
X556207Y-1250274D01*
X546785Y-1253589D01*
X537533Y-1257356D01*
X528474Y-1261565D01*
X519630Y-1266207D01*
X511019Y-1271272D01*
X502664Y-1276746D01*
X494583Y-1282617D01*
X486795Y-1288872D01*
X479318Y-1295496D01*
X472170Y-1302473D01*
X465367Y-1309788D01*
X458926Y-1317422D01*
X452861Y-1325360D01*
X447187Y-1333580D01*
X441916Y-1342065D01*
X437062Y-1350795D01*
X432635Y-1359750D01*
X428645Y-1368908D01*
X425103Y-1378247D01*
X422016Y-1387747D01*
X419392Y-1397386D01*
X417237Y-1407139D01*
X415555Y-1416986D01*
X414351Y-1426902D01*
X413627Y-1436864D01*
X413386Y-1446850D01*
X413627Y-1456836D01*
X414351Y-1466799D01*
X415555Y-1476715D01*
X417237Y-1486562D01*
X419392Y-1496315D01*
X422016Y-1505953D01*
X425103Y-1515453D01*
X428645Y-1524793D01*
X432634Y-1533951D01*
X437061Y-1542905D01*
X441916Y-1551635D01*
X447186Y-1560120D01*
X452861Y-1568341D01*
X458926Y-1576278D01*
X465367Y-1583913D01*
X472170Y-1591227D01*
X479318Y-1598205D01*
X486794Y-1604829D01*
X494582Y-1611084D01*
X502664Y-1616955D01*
X511019Y-1622429D01*
X519629Y-1627493D01*
X528474Y-1632135D01*
X537533Y-1636345D01*
X546784Y-1640111D01*
X556207Y-1643427D01*
X565779Y-1646283D01*
X575477Y-1648674D01*
X585280Y-1650593D01*
X595164Y-1652036D01*
X605107Y-1653000D01*
X615084Y-1653483D01*
X625073Y-1653483D01*
X635050Y-1653000D01*
X644992Y-1652036D01*
X654876Y-1650593D01*
X664679Y-1648674D01*
X674378Y-1646284D01*
X683950Y-1643427D01*
X693373Y-1640112D01*
X702624Y-1636345D01*
X711683Y-1632136D01*
X720528Y-1627494D01*
X729138Y-1622430D01*
X737493Y-1616956D01*
X745574Y-1611084D01*
X753363Y-1604830D01*
X760840Y-1598206D01*
X767988Y-1591228D01*
X774790Y-1583914D01*
X781231Y-1576279D01*
X787297Y-1568342D01*
X792971Y-1560121D01*
X798241Y-1551636D01*
X803096Y-1542906D01*
X807523Y-1533952D01*
X811512Y-1524794D01*
X815054Y-1515454D01*
X818141Y-1505954D01*
X820765Y-1496316D01*
X822921Y-1486563D01*
X824603Y-1476716D01*
X825807Y-1466800D01*
X826530Y-1456838D01*
X826772Y-1446852D01*
X1653544Y-1446850D02*
X1653302Y-1436864D01*
X1652579Y-1426902D01*
X1651375Y-1416986D01*
X1649693Y-1407139D01*
X1647538Y-1397386D01*
X1644913Y-1387747D01*
X1641827Y-1378247D01*
X1638284Y-1368908D01*
X1634295Y-1359750D01*
X1629868Y-1350795D01*
X1625014Y-1342065D01*
X1619743Y-1333580D01*
X1614069Y-1325359D01*
X1608004Y-1317422D01*
X1601563Y-1309788D01*
X1594760Y-1302473D01*
X1587612Y-1295496D01*
X1580135Y-1288872D01*
X1572347Y-1282617D01*
X1564266Y-1276745D01*
X1555910Y-1271271D01*
X1547300Y-1266207D01*
X1538455Y-1261565D01*
X1529397Y-1257356D01*
X1520145Y-1253589D01*
X1510722Y-1250274D01*
X1501151Y-1247418D01*
X1491452Y-1245027D01*
X1481649Y-1243108D01*
X1471765Y-1241665D01*
X1461822Y-1240700D01*
X1451845Y-1240218D01*
X1441856D01*
X1431879Y-1240700D01*
X1421937Y-1241665D01*
X1412053Y-1243108D01*
X1402250Y-1245027D01*
X1392551Y-1247418D01*
X1382979Y-1250274D01*
X1373556Y-1253589D01*
X1364305Y-1257356D01*
X1355246Y-1261565D01*
X1346401Y-1266207D01*
X1337791Y-1271272D01*
X1329436Y-1276746D01*
X1321354Y-1282617D01*
X1313566Y-1288872D01*
X1306090Y-1295496D01*
X1298941Y-1302473D01*
X1292139Y-1309788D01*
X1285698Y-1317422D01*
X1279633Y-1325360D01*
X1273958Y-1333580D01*
X1268688Y-1342065D01*
X1263833Y-1350795D01*
X1259406Y-1359750D01*
X1255417Y-1368908D01*
X1251875Y-1378247D01*
X1248788Y-1387747D01*
X1246164Y-1397386D01*
X1244009Y-1407139D01*
X1242327Y-1416986D01*
X1241123Y-1426902D01*
X1240399Y-1436864D01*
X1240158Y-1446850D01*
X1240399Y-1456836D01*
X1241123Y-1466799D01*
X1242327Y-1476715D01*
X1244008Y-1486562D01*
X1246164Y-1496315D01*
X1248788Y-1505953D01*
X1251875Y-1515453D01*
X1255417Y-1524793D01*
X1259406Y-1533951D01*
X1263833Y-1542905D01*
X1268688Y-1551635D01*
X1273958Y-1560120D01*
X1279632Y-1568341D01*
X1285697Y-1576278D01*
X1292139Y-1583913D01*
X1298941Y-1591227D01*
X1306089Y-1598205D01*
X1313566Y-1604829D01*
X1321354Y-1611084D01*
X1329436Y-1616955D01*
X1337791Y-1622429D01*
X1346401Y-1627493D01*
X1355246Y-1632135D01*
X1364304Y-1636345D01*
X1373556Y-1640111D01*
X1382979Y-1643427D01*
X1392551Y-1646283D01*
X1402249Y-1648674D01*
X1412052Y-1650593D01*
X1421936Y-1652036D01*
X1431878Y-1653000D01*
X1441856Y-1653483D01*
X1451845Y-1653483D01*
X1461822Y-1653000D01*
X1471764Y-1652036D01*
X1481648Y-1650593D01*
X1491451Y-1648674D01*
X1501150Y-1646284D01*
X1510722Y-1643427D01*
X1520144Y-1640112D01*
X1529396Y-1636345D01*
X1538455Y-1632136D01*
X1547299Y-1627494D01*
X1555910Y-1622430D01*
X1564265Y-1616956D01*
X1572346Y-1611084D01*
X1580134Y-1604830D01*
X1587611Y-1598206D01*
X1594759Y-1591228D01*
X1601562Y-1583914D01*
X1608003Y-1576279D01*
X1614068Y-1568342D01*
X1619743Y-1560121D01*
X1625013Y-1551636D01*
X1629868Y-1542906D01*
X1634295Y-1533952D01*
X1638284Y-1524794D01*
X1641826Y-1515454D01*
X1644913Y-1505954D01*
X1647537Y-1496316D01*
X1649693Y-1486563D01*
X1651375Y-1476716D01*
X1652579Y-1466800D01*
X1653302Y-1456838D01*
X1653544Y-1446852D01*
X-826772Y-1033465D02*
X-827013Y-1023479D01*
X-827737Y-1013516D01*
X-828941Y-1003600D01*
X-830622Y-993753D01*
X-832778Y-984000D01*
X-835402Y-974362D01*
X-838489Y-964861D01*
X-842031Y-955522D01*
X-846020Y-946364D01*
X-850447Y-937409D01*
X-855302Y-928679D01*
X-860572Y-920194D01*
X-866246Y-911973D01*
X-872311Y-904037D01*
X-878753Y-896402D01*
X-885555Y-889087D01*
X-892703Y-882110D01*
X-900180Y-875486D01*
X-907968Y-869231D01*
X-916050Y-863360D01*
X-924405Y-857885D01*
X-933015Y-852822D01*
X-941860Y-848179D01*
X-950919Y-843970D01*
X-960170Y-840203D01*
X-969593Y-836888D01*
X-979165Y-834032D01*
X-988864Y-831641D01*
X-998666Y-829722D01*
X-1008551Y-828279D01*
X-1018493Y-827314D01*
X-1028470Y-826832D01*
X-1038459D01*
X-1048436Y-827315D01*
X-1058379Y-828279D01*
X-1068263Y-829722D01*
X-1078066Y-831641D01*
X-1087764Y-834032D01*
X-1097336Y-836888D01*
X-1106759Y-840203D01*
X-1116011Y-843970D01*
X-1125069Y-848179D01*
X-1133914Y-852822D01*
X-1142524Y-857886D01*
X-1150880Y-863360D01*
X-1158961Y-869231D01*
X-1166749Y-875486D01*
X-1174226Y-882110D01*
X-1181374Y-889087D01*
X-1188177Y-896402D01*
X-1194618Y-904037D01*
X-1200683Y-911974D01*
X-1206357Y-920194D01*
X-1211628Y-928680D01*
X-1216482Y-937410D01*
X-1220909Y-946364D01*
X-1224898Y-955522D01*
X-1228440Y-964861D01*
X-1231527Y-974362D01*
X-1234151Y-984000D01*
X-1236307Y-993753D01*
X-1237988Y-1003600D01*
X-1239193Y-1013516D01*
X-1239916Y-1023478D01*
X-1240158Y-1033464D01*
X-1239916Y-1043450D01*
X-1239193Y-1053413D01*
X-1237989Y-1063329D01*
X-1236307Y-1073176D01*
X-1234151Y-1082929D01*
X-1231527Y-1092567D01*
X-1228440Y-1102067D01*
X-1224898Y-1111407D01*
X-1220909Y-1120565D01*
X-1216482Y-1129519D01*
X-1211628Y-1138249D01*
X-1206357Y-1146735D01*
X-1200683Y-1154955D01*
X-1194618Y-1162892D01*
X-1188177Y-1170527D01*
X-1181374Y-1177842D01*
X-1174226Y-1184819D01*
X-1166749Y-1191443D01*
X-1158961Y-1197698D01*
X-1150880Y-1203569D01*
X-1142524Y-1209043D01*
X-1133914Y-1214107D01*
X-1125070Y-1218749D01*
X-1116011Y-1222959D01*
X-1106759Y-1226726D01*
X-1097337Y-1230041D01*
X-1087765Y-1232897D01*
X-1078066Y-1235288D01*
X-1068263Y-1237207D01*
X-1058379Y-1238650D01*
X-1048437Y-1239614D01*
X-1038460Y-1240097D01*
X-1028471Y-1240097D01*
X-1018494Y-1239614D01*
X-1008551Y-1238650D01*
X-998667Y-1237207D01*
X-988864Y-1235288D01*
X-979166Y-1232898D01*
X-969594Y-1230041D01*
X-960171Y-1226726D01*
X-950919Y-1222959D01*
X-941861Y-1218750D01*
X-933016Y-1214108D01*
X-924406Y-1209044D01*
X-916050Y-1203570D01*
X-907969Y-1197699D01*
X-900181Y-1191444D01*
X-892704Y-1184820D01*
X-885556Y-1177842D01*
X-878753Y-1170528D01*
X-872312Y-1162893D01*
X-866247Y-1154956D01*
X-860573Y-1146736D01*
X-855302Y-1138250D01*
X-850448Y-1129520D01*
X-846021Y-1120566D01*
X-842031Y-1111408D01*
X-838489Y-1102069D01*
X-835402Y-1092569D01*
X-832778Y-1082930D01*
X-830623Y-1073177D01*
X-828941Y-1063331D01*
X-827737Y-1053414D01*
X-827013Y-1043452D01*
X-826772Y-1033466D01*
X0Y-1033465D02*
X-241Y-1023479D01*
X-965Y-1013516D01*
X-2169Y-1003600D01*
X-3851Y-993753D01*
X-6006Y-984000D01*
X-8630Y-974362D01*
X-11717Y-964861D01*
X-15259Y-955522D01*
X-19248Y-946364D01*
X-23675Y-937409D01*
X-28530Y-928679D01*
X-33800Y-920194D01*
X-39475Y-911973D01*
X-45540Y-904037D01*
X-51981Y-896402D01*
X-58784Y-889087D01*
X-65932Y-882110D01*
X-73409Y-875486D01*
X-81197Y-869231D01*
X-89278Y-863360D01*
X-97633Y-857885D01*
X-106243Y-852822D01*
X-115088Y-848179D01*
X-124147Y-843970D01*
X-133399Y-840203D01*
X-142821Y-836888D01*
X-152393Y-834032D01*
X-162092Y-831641D01*
X-171895Y-829722D01*
X-181779Y-828279D01*
X-191721Y-827314D01*
X-201698Y-826832D01*
X-211687D01*
X-221665Y-827315D01*
X-231607Y-828279D01*
X-241491Y-829722D01*
X-251294Y-831641D01*
X-260993Y-834032D01*
X-270565Y-836888D01*
X-279987Y-840203D01*
X-289239Y-843970D01*
X-298298Y-848179D01*
X-307142Y-852822D01*
X-315752Y-857886D01*
X-324108Y-863360D01*
X-332189Y-869231D01*
X-339977Y-875486D01*
X-347454Y-882110D01*
X-354602Y-889087D01*
X-361405Y-896402D01*
X-367846Y-904037D01*
X-373911Y-911974D01*
X-379585Y-920194D01*
X-384856Y-928680D01*
X-389710Y-937410D01*
X-394137Y-946364D01*
X-398127Y-955522D01*
X-401669Y-964861D01*
X-404755Y-974362D01*
X-407380Y-984000D01*
X-409535Y-993753D01*
X-411217Y-1003600D01*
X-412421Y-1013516D01*
X-413144Y-1023478D01*
X-413386Y-1033464D01*
X-413144Y-1043450D01*
X-412421Y-1053413D01*
X-411217Y-1063329D01*
X-409535Y-1073176D01*
X-407380Y-1082929D01*
X-404755Y-1092567D01*
X-401669Y-1102067D01*
X-398127Y-1111407D01*
X-394137Y-1120565D01*
X-389710Y-1129519D01*
X-384856Y-1138249D01*
X-379585Y-1146735D01*
X-373911Y-1154955D01*
X-367846Y-1162892D01*
X-361405Y-1170527D01*
X-354602Y-1177842D01*
X-347454Y-1184819D01*
X-339977Y-1191443D01*
X-332189Y-1197698D01*
X-324108Y-1203569D01*
X-315753Y-1209043D01*
X-307142Y-1214107D01*
X-298298Y-1218749D01*
X-289239Y-1222959D01*
X-279988Y-1226726D01*
X-270565Y-1230041D01*
X-260993Y-1232897D01*
X-251294Y-1235288D01*
X-241492Y-1237207D01*
X-231607Y-1238650D01*
X-221665Y-1239614D01*
X-211688Y-1240097D01*
X-201699Y-1240097D01*
X-191722Y-1239614D01*
X-181779Y-1238650D01*
X-171895Y-1237207D01*
X-162093Y-1235288D01*
X-152394Y-1232898D01*
X-142822Y-1230041D01*
X-133399Y-1226726D01*
X-124148Y-1222959D01*
X-115089Y-1218750D01*
X-106244Y-1214108D01*
X-97634Y-1209044D01*
X-89279Y-1203570D01*
X-81197Y-1197699D01*
X-73409Y-1191444D01*
X-65932Y-1184820D01*
X-58784Y-1177842D01*
X-51982Y-1170528D01*
X-45540Y-1162893D01*
X-39475Y-1154956D01*
X-33801Y-1146736D01*
X-28530Y-1138250D01*
X-23676Y-1129520D01*
X-19249Y-1120566D01*
X-15259Y-1111408D01*
X-11717Y-1102069D01*
X-8630Y-1092569D01*
X-6006Y-1082930D01*
X-3851Y-1073177D01*
X-2169Y-1063331D01*
X-965Y-1053414D01*
X-241Y-1043452D01*
X0Y-1033466D01*
X826772Y-1033465D02*
X826530Y-1023479D01*
X825807Y-1013516D01*
X824603Y-1003600D01*
X822921Y-993753D01*
X820766Y-984000D01*
X818142Y-974362D01*
X815055Y-964861D01*
X811513Y-955522D01*
X807524Y-946364D01*
X803096Y-937409D01*
X798242Y-928679D01*
X792971Y-920194D01*
X787297Y-911973D01*
X781232Y-904037D01*
X774791Y-896402D01*
X767988Y-889087D01*
X760840Y-882110D01*
X753363Y-875486D01*
X745575Y-869231D01*
X737494Y-863360D01*
X729139Y-857885D01*
X720528Y-852822D01*
X711684Y-848179D01*
X702625Y-843970D01*
X693373Y-840203D01*
X683951Y-836888D01*
X674379Y-834032D01*
X664680Y-831641D01*
X654877Y-829722D01*
X644993Y-828279D01*
X635051Y-827314D01*
X625073Y-826832D01*
X615085D01*
X605107Y-827315D01*
X595165Y-828279D01*
X585281Y-829722D01*
X575478Y-831641D01*
X565779Y-834032D01*
X556207Y-836888D01*
X546785Y-840203D01*
X537533Y-843970D01*
X528474Y-848179D01*
X519630Y-852822D01*
X511019Y-857886D01*
X502664Y-863360D01*
X494583Y-869231D01*
X486795Y-875486D01*
X479318Y-882110D01*
X472170Y-889087D01*
X465367Y-896402D01*
X458926Y-904037D01*
X452861Y-911974D01*
X447187Y-920194D01*
X441916Y-928680D01*
X437062Y-937410D01*
X432635Y-946364D01*
X428645Y-955522D01*
X425103Y-964861D01*
X422016Y-974362D01*
X419392Y-984000D01*
X417237Y-993753D01*
X415555Y-1003600D01*
X414351Y-1013516D01*
X413627Y-1023478D01*
X413386Y-1033464D01*
X413627Y-1043450D01*
X414351Y-1053413D01*
X415555Y-1063329D01*
X417237Y-1073176D01*
X419392Y-1082929D01*
X422016Y-1092567D01*
X425103Y-1102067D01*
X428645Y-1111407D01*
X432634Y-1120565D01*
X437061Y-1129519D01*
X441916Y-1138249D01*
X447186Y-1146735D01*
X452861Y-1154955D01*
X458926Y-1162892D01*
X465367Y-1170527D01*
X472170Y-1177842D01*
X479318Y-1184819D01*
X486794Y-1191443D01*
X494582Y-1197698D01*
X502664Y-1203569D01*
X511019Y-1209043D01*
X519629Y-1214107D01*
X528474Y-1218749D01*
X537533Y-1222959D01*
X546784Y-1226726D01*
X556207Y-1230041D01*
X565779Y-1232897D01*
X575477Y-1235288D01*
X585280Y-1237207D01*
X595164Y-1238650D01*
X605107Y-1239614D01*
X615084Y-1240097D01*
X625073Y-1240097D01*
X635050Y-1239614D01*
X644992Y-1238650D01*
X654876Y-1237207D01*
X664679Y-1235288D01*
X674378Y-1232898D01*
X683950Y-1230041D01*
X693373Y-1226726D01*
X702624Y-1222959D01*
X711683Y-1218750D01*
X720528Y-1214108D01*
X729138Y-1209044D01*
X737493Y-1203570D01*
X745574Y-1197699D01*
X753363Y-1191444D01*
X760840Y-1184820D01*
X767988Y-1177842D01*
X774790Y-1170528D01*
X781231Y-1162893D01*
X787297Y-1154956D01*
X792971Y-1146736D01*
X798241Y-1138250D01*
X803096Y-1129520D01*
X807523Y-1120566D01*
X811512Y-1111408D01*
X815054Y-1102069D01*
X818141Y-1092569D01*
X820765Y-1082930D01*
X822921Y-1073177D01*
X824603Y-1063331D01*
X825807Y-1053414D01*
X826530Y-1043452D01*
X826772Y-1033466D01*
X1653544Y-1033465D02*
X1653302Y-1023479D01*
X1652579Y-1013516D01*
X1651375Y-1003600D01*
X1649693Y-993753D01*
X1647538Y-984000D01*
X1644913Y-974362D01*
X1641827Y-964861D01*
X1638284Y-955522D01*
X1634295Y-946364D01*
X1629868Y-937409D01*
X1625014Y-928679D01*
X1619743Y-920194D01*
X1614069Y-911973D01*
X1608004Y-904037D01*
X1601563Y-896402D01*
X1594760Y-889087D01*
X1587612Y-882110D01*
X1580135Y-875486D01*
X1572347Y-869231D01*
X1564266Y-863360D01*
X1555910Y-857885D01*
X1547300Y-852822D01*
X1538455Y-848179D01*
X1529397Y-843970D01*
X1520145Y-840203D01*
X1510722Y-836888D01*
X1501151Y-834032D01*
X1491452Y-831641D01*
X1481649Y-829722D01*
X1471765Y-828279D01*
X1461822Y-827314D01*
X1451845Y-826832D01*
X1441856D01*
X1431879Y-827315D01*
X1421937Y-828279D01*
X1412053Y-829722D01*
X1402250Y-831641D01*
X1392551Y-834032D01*
X1382979Y-836888D01*
X1373556Y-840203D01*
X1364305Y-843970D01*
X1355246Y-848179D01*
X1346401Y-852822D01*
X1337791Y-857886D01*
X1329436Y-863360D01*
X1321354Y-869231D01*
X1313566Y-875486D01*
X1306090Y-882110D01*
X1298941Y-889087D01*
X1292139Y-896402D01*
X1285698Y-904037D01*
X1279633Y-911974D01*
X1273958Y-920194D01*
X1268688Y-928680D01*
X1263833Y-937410D01*
X1259406Y-946364D01*
X1255417Y-955522D01*
X1251875Y-964861D01*
X1248788Y-974362D01*
X1246164Y-984000D01*
X1244009Y-993753D01*
X1242327Y-1003600D01*
X1241123Y-1013516D01*
X1240399Y-1023478D01*
X1240158Y-1033464D01*
X1240399Y-1043450D01*
X1241123Y-1053413D01*
X1242327Y-1063329D01*
X1244008Y-1073176D01*
X1246164Y-1082929D01*
X1248788Y-1092567D01*
X1251875Y-1102067D01*
X1255417Y-1111407D01*
X1259406Y-1120565D01*
X1263833Y-1129519D01*
X1268688Y-1138249D01*
X1273958Y-1146735D01*
X1279632Y-1154955D01*
X1285697Y-1162892D01*
X1292139Y-1170527D01*
X1298941Y-1177842D01*
X1306089Y-1184819D01*
X1313566Y-1191443D01*
X1321354Y-1197698D01*
X1329436Y-1203569D01*
X1337791Y-1209043D01*
X1346401Y-1214107D01*
X1355246Y-1218749D01*
X1364304Y-1222959D01*
X1373556Y-1226726D01*
X1382979Y-1230041D01*
X1392551Y-1232897D01*
X1402249Y-1235288D01*
X1412052Y-1237207D01*
X1421936Y-1238650D01*
X1431878Y-1239614D01*
X1441856Y-1240097D01*
X1451845Y-1240097D01*
X1461822Y-1239614D01*
X1471764Y-1238650D01*
X1481648Y-1237207D01*
X1491451Y-1235288D01*
X1501150Y-1232898D01*
X1510722Y-1230041D01*
X1520144Y-1226726D01*
X1529396Y-1222959D01*
X1538455Y-1218750D01*
X1547299Y-1214108D01*
X1555910Y-1209044D01*
X1564265Y-1203570D01*
X1572346Y-1197699D01*
X1580134Y-1191444D01*
X1587611Y-1184820D01*
X1594759Y-1177842D01*
X1601562Y-1170528D01*
X1608003Y-1162893D01*
X1614068Y-1154956D01*
X1619743Y-1146736D01*
X1625013Y-1138250D01*
X1629868Y-1129520D01*
X1634295Y-1120566D01*
X1638284Y-1111408D01*
X1641826Y-1102069D01*
X1644913Y-1092569D01*
X1647537Y-1082930D01*
X1649693Y-1073177D01*
X1651375Y-1063331D01*
X1652579Y-1053414D01*
X1653302Y-1043452D01*
X1653544Y-1033466D01*
X-826772Y-620079D02*
X-827013Y-610093D01*
X-827737Y-600130D01*
X-828941Y-590214D01*
X-830622Y-580367D01*
X-832778Y-570614D01*
X-835402Y-560976D01*
X-838489Y-551476D01*
X-842031Y-542136D01*
X-846020Y-532978D01*
X-850447Y-524024D01*
X-855302Y-515294D01*
X-860572Y-506808D01*
X-866246Y-498588D01*
X-872311Y-490651D01*
X-878753Y-483016D01*
X-885555Y-475701D01*
X-892703Y-468724D01*
X-900180Y-462100D01*
X-907968Y-455845D01*
X-916050Y-449974D01*
X-924405Y-444500D01*
X-933015Y-439436D01*
X-941860Y-434793D01*
X-950919Y-430584D01*
X-960170Y-426817D01*
X-969593Y-423502D01*
X-979165Y-420646D01*
X-988864Y-418255D01*
X-998666Y-416336D01*
X-1008551Y-414893D01*
X-1018493Y-413929D01*
X-1028470Y-413446D01*
X-1038459D01*
X-1048436Y-413929D01*
X-1058379Y-414893D01*
X-1068263Y-416336D01*
X-1078066Y-418255D01*
X-1087764Y-420646D01*
X-1097336Y-423502D01*
X-1106759Y-426817D01*
X-1116011Y-430584D01*
X-1125069Y-434794D01*
X-1133914Y-439436D01*
X-1142524Y-444500D01*
X-1150880Y-449974D01*
X-1158961Y-455845D01*
X-1166749Y-462100D01*
X-1174226Y-468724D01*
X-1181374Y-475701D01*
X-1188177Y-483016D01*
X-1194618Y-490651D01*
X-1200683Y-498588D01*
X-1206357Y-506808D01*
X-1211628Y-515294D01*
X-1216482Y-524024D01*
X-1220909Y-532978D01*
X-1224898Y-542136D01*
X-1228440Y-551476D01*
X-1231527Y-560976D01*
X-1234151Y-570614D01*
X-1236307Y-580367D01*
X-1237988Y-590214D01*
X-1239193Y-600130D01*
X-1239916Y-610092D01*
X-1240158Y-620078D01*
X-1239916Y-630064D01*
X-1239193Y-640027D01*
X-1237989Y-649943D01*
X-1236307Y-659790D01*
X-1234151Y-669543D01*
X-1231527Y-679181D01*
X-1228440Y-688681D01*
X-1224898Y-698021D01*
X-1220909Y-707179D01*
X-1216482Y-716133D01*
X-1211628Y-724863D01*
X-1206357Y-733349D01*
X-1200683Y-741569D01*
X-1194618Y-749506D01*
X-1188177Y-757141D01*
X-1181374Y-764456D01*
X-1174226Y-771433D01*
X-1166749Y-778057D01*
X-1158961Y-784312D01*
X-1150880Y-790183D01*
X-1142524Y-795657D01*
X-1133914Y-800721D01*
X-1125070Y-805364D01*
X-1116011Y-809573D01*
X-1106759Y-813340D01*
X-1097337Y-816655D01*
X-1087765Y-819511D01*
X-1078066Y-821902D01*
X-1068263Y-823821D01*
X-1058379Y-825264D01*
X-1048437Y-826229D01*
X-1038460Y-826711D01*
X-1028471Y-826711D01*
X-1018494Y-826229D01*
X-1008551Y-825265D01*
X-998667Y-823821D01*
X-988864Y-821902D01*
X-979166Y-819512D01*
X-969594Y-816655D01*
X-960171Y-813340D01*
X-950919Y-809573D01*
X-941861Y-805364D01*
X-933016Y-800722D01*
X-924406Y-795658D01*
X-916050Y-790184D01*
X-907969Y-784313D01*
X-900181Y-778058D01*
X-892704Y-771434D01*
X-885556Y-764457D01*
X-878753Y-757142D01*
X-872312Y-749507D01*
X-866247Y-741570D01*
X-860573Y-733350D01*
X-855302Y-724865D01*
X-850448Y-716135D01*
X-846021Y-707180D01*
X-842031Y-698022D01*
X-838489Y-688683D01*
X-835402Y-679183D01*
X-832778Y-669544D01*
X-830623Y-659791D01*
X-828941Y-649945D01*
X-827737Y-640029D01*
X-827013Y-630066D01*
X-826772Y-620080D01*
X0Y-620079D02*
X-241Y-610093D01*
X-965Y-600130D01*
X-2169Y-590214D01*
X-3851Y-580367D01*
X-6006Y-570614D01*
X-8630Y-560976D01*
X-11717Y-551476D01*
X-15259Y-542136D01*
X-19248Y-532978D01*
X-23675Y-524024D01*
X-28530Y-515294D01*
X-33800Y-506808D01*
X-39475Y-498588D01*
X-45540Y-490651D01*
X-51981Y-483016D01*
X-58784Y-475701D01*
X-65932Y-468724D01*
X-73409Y-462100D01*
X-81197Y-455845D01*
X-89278Y-449974D01*
X-97633Y-444500D01*
X-106243Y-439436D01*
X-115088Y-434793D01*
X-124147Y-430584D01*
X-133399Y-426817D01*
X-142821Y-423502D01*
X-152393Y-420646D01*
X-162092Y-418255D01*
X-171895Y-416336D01*
X-181779Y-414893D01*
X-191721Y-413929D01*
X-201698Y-413446D01*
X-211687D01*
X-221665Y-413929D01*
X-231607Y-414893D01*
X-241491Y-416336D01*
X-251294Y-418255D01*
X-260993Y-420646D01*
X-270565Y-423502D01*
X-279987Y-426817D01*
X-289239Y-430584D01*
X-298298Y-434794D01*
X-307142Y-439436D01*
X-315752Y-444500D01*
X-324108Y-449974D01*
X-332189Y-455845D01*
X-339977Y-462100D01*
X-347454Y-468724D01*
X-354602Y-475701D01*
X-361405Y-483016D01*
X-367846Y-490651D01*
X-373911Y-498588D01*
X-379585Y-506808D01*
X-384856Y-515294D01*
X-389710Y-524024D01*
X-394137Y-532978D01*
X-398127Y-542136D01*
X-401669Y-551476D01*
X-404755Y-560976D01*
X-407380Y-570614D01*
X-409535Y-580367D01*
X-411217Y-590214D01*
X-412421Y-600130D01*
X-413144Y-610092D01*
X-413386Y-620078D01*
X-413144Y-630064D01*
X-412421Y-640027D01*
X-411217Y-649943D01*
X-409535Y-659790D01*
X-407380Y-669543D01*
X-404755Y-679181D01*
X-401669Y-688681D01*
X-398127Y-698021D01*
X-394137Y-707179D01*
X-389710Y-716133D01*
X-384856Y-724863D01*
X-379585Y-733349D01*
X-373911Y-741569D01*
X-367846Y-749506D01*
X-361405Y-757141D01*
X-354602Y-764456D01*
X-347454Y-771433D01*
X-339977Y-778057D01*
X-332189Y-784312D01*
X-324108Y-790183D01*
X-315753Y-795657D01*
X-307142Y-800721D01*
X-298298Y-805364D01*
X-289239Y-809573D01*
X-279988Y-813340D01*
X-270565Y-816655D01*
X-260993Y-819511D01*
X-251294Y-821902D01*
X-241492Y-823821D01*
X-231607Y-825264D01*
X-221665Y-826229D01*
X-211688Y-826711D01*
X-201699Y-826711D01*
X-191722Y-826229D01*
X-181779Y-825265D01*
X-171895Y-823821D01*
X-162093Y-821902D01*
X-152394Y-819512D01*
X-142822Y-816655D01*
X-133399Y-813340D01*
X-124148Y-809573D01*
X-115089Y-805364D01*
X-106244Y-800722D01*
X-97634Y-795658D01*
X-89279Y-790184D01*
X-81197Y-784313D01*
X-73409Y-778058D01*
X-65932Y-771434D01*
X-58784Y-764457D01*
X-51982Y-757142D01*
X-45540Y-749507D01*
X-39475Y-741570D01*
X-33801Y-733350D01*
X-28530Y-724865D01*
X-23676Y-716135D01*
X-19249Y-707180D01*
X-15259Y-698022D01*
X-11717Y-688683D01*
X-8630Y-679183D01*
X-6006Y-669544D01*
X-3851Y-659791D01*
X-2169Y-649945D01*
X-965Y-640029D01*
X-241Y-630066D01*
X0Y-620080D01*
X826772Y-620079D02*
X826530Y-610093D01*
X825807Y-600130D01*
X824603Y-590214D01*
X822921Y-580367D01*
X820766Y-570614D01*
X818142Y-560976D01*
X815055Y-551476D01*
X811513Y-542136D01*
X807524Y-532978D01*
X803096Y-524024D01*
X798242Y-515294D01*
X792971Y-506808D01*
X787297Y-498588D01*
X781232Y-490651D01*
X774791Y-483016D01*
X767988Y-475701D01*
X760840Y-468724D01*
X753363Y-462100D01*
X745575Y-455845D01*
X737494Y-449974D01*
X729139Y-444500D01*
X720528Y-439436D01*
X711684Y-434793D01*
X702625Y-430584D01*
X693373Y-426817D01*
X683951Y-423502D01*
X674379Y-420646D01*
X664680Y-418255D01*
X654877Y-416336D01*
X644993Y-414893D01*
X635051Y-413929D01*
X625073Y-413446D01*
X615085D01*
X605107Y-413929D01*
X595165Y-414893D01*
X585281Y-416336D01*
X575478Y-418255D01*
X565779Y-420646D01*
X556207Y-423502D01*
X546785Y-426817D01*
X537533Y-430584D01*
X528474Y-434794D01*
X519630Y-439436D01*
X511019Y-444500D01*
X502664Y-449974D01*
X494583Y-455845D01*
X486795Y-462100D01*
X479318Y-468724D01*
X472170Y-475701D01*
X465367Y-483016D01*
X458926Y-490651D01*
X452861Y-498588D01*
X447187Y-506808D01*
X441916Y-515294D01*
X437062Y-524024D01*
X432635Y-532978D01*
X428645Y-542136D01*
X425103Y-551476D01*
X422016Y-560976D01*
X419392Y-570614D01*
X417237Y-580367D01*
X415555Y-590214D01*
X414351Y-600130D01*
X413627Y-610092D01*
X413386Y-620078D01*
X413627Y-630064D01*
X414351Y-640027D01*
X415555Y-649943D01*
X417237Y-659790D01*
X419392Y-669543D01*
X422016Y-679181D01*
X425103Y-688681D01*
X428645Y-698021D01*
X432634Y-707179D01*
X437061Y-716133D01*
X441916Y-724863D01*
X447186Y-733349D01*
X452861Y-741569D01*
X458926Y-749506D01*
X465367Y-757141D01*
X472170Y-764456D01*
X479318Y-771433D01*
X486794Y-778057D01*
X494582Y-784312D01*
X502664Y-790183D01*
X511019Y-795657D01*
X519629Y-800721D01*
X528474Y-805364D01*
X537533Y-809573D01*
X546784Y-813340D01*
X556207Y-816655D01*
X565779Y-819511D01*
X575477Y-821902D01*
X585280Y-823821D01*
X595164Y-825264D01*
X605107Y-826229D01*
X615084Y-826711D01*
X625073Y-826711D01*
X635050Y-826229D01*
X644992Y-825265D01*
X654876Y-823821D01*
X664679Y-821902D01*
X674378Y-819512D01*
X683950Y-816655D01*
X693373Y-813340D01*
X702624Y-809573D01*
X711683Y-805364D01*
X720528Y-800722D01*
X729138Y-795658D01*
X737493Y-790184D01*
X745574Y-784313D01*
X753363Y-778058D01*
X760840Y-771434D01*
X767988Y-764457D01*
X774790Y-757142D01*
X781231Y-749507D01*
X787297Y-741570D01*
X792971Y-733350D01*
X798241Y-724865D01*
X803096Y-716135D01*
X807523Y-707180D01*
X811512Y-698022D01*
X815054Y-688683D01*
X818141Y-679183D01*
X820765Y-669544D01*
X822921Y-659791D01*
X824603Y-649945D01*
X825807Y-640029D01*
X826530Y-630066D01*
X826772Y-620080D01*
X1653544Y-620079D02*
X1653302Y-610093D01*
X1652579Y-600130D01*
X1651375Y-590214D01*
X1649693Y-580367D01*
X1647538Y-570614D01*
X1644913Y-560976D01*
X1641827Y-551476D01*
X1638284Y-542136D01*
X1634295Y-532978D01*
X1629868Y-524024D01*
X1625014Y-515294D01*
X1619743Y-506808D01*
X1614069Y-498588D01*
X1608004Y-490651D01*
X1601563Y-483016D01*
X1594760Y-475701D01*
X1587612Y-468724D01*
X1580135Y-462100D01*
X1572347Y-455845D01*
X1564266Y-449974D01*
X1555910Y-444500D01*
X1547300Y-439436D01*
X1538455Y-434793D01*
X1529397Y-430584D01*
X1520145Y-426817D01*
X1510722Y-423502D01*
X1501151Y-420646D01*
X1491452Y-418255D01*
X1481649Y-416336D01*
X1471765Y-414893D01*
X1461822Y-413929D01*
X1451845Y-413446D01*
X1441856D01*
X1431879Y-413929D01*
X1421937Y-414893D01*
X1412053Y-416336D01*
X1402250Y-418255D01*
X1392551Y-420646D01*
X1382979Y-423502D01*
X1373556Y-426817D01*
X1364305Y-430584D01*
X1355246Y-434794D01*
X1346401Y-439436D01*
X1337791Y-444500D01*
X1329436Y-449974D01*
X1321354Y-455845D01*
X1313566Y-462100D01*
X1306090Y-468724D01*
X1298941Y-475701D01*
X1292139Y-483016D01*
X1285698Y-490651D01*
X1279633Y-498588D01*
X1273958Y-506808D01*
X1268688Y-515294D01*
X1263833Y-524024D01*
X1259406Y-532978D01*
X1255417Y-542136D01*
X1251875Y-551476D01*
X1248788Y-560976D01*
X1246164Y-570614D01*
X1244009Y-580367D01*
X1242327Y-590214D01*
X1241123Y-600130D01*
X1240399Y-610092D01*
X1240158Y-620078D01*
X1240399Y-630064D01*
X1241123Y-640027D01*
X1242327Y-649943D01*
X1244008Y-659790D01*
X1246164Y-669543D01*
X1248788Y-679181D01*
X1251875Y-688681D01*
X1255417Y-698021D01*
X1259406Y-707179D01*
X1263833Y-716133D01*
X1268688Y-724863D01*
X1273958Y-733349D01*
X1279632Y-741569D01*
X1285697Y-749506D01*
X1292139Y-757141D01*
X1298941Y-764456D01*
X1306089Y-771433D01*
X1313566Y-778057D01*
X1321354Y-784312D01*
X1329436Y-790183D01*
X1337791Y-795657D01*
X1346401Y-800721D01*
X1355246Y-805364D01*
X1364304Y-809573D01*
X1373556Y-813340D01*
X1382979Y-816655D01*
X1392551Y-819511D01*
X1402249Y-821902D01*
X1412052Y-823821D01*
X1421936Y-825264D01*
X1431878Y-826229D01*
X1441856Y-826711D01*
X1451845Y-826711D01*
X1461822Y-826229D01*
X1471764Y-825265D01*
X1481648Y-823821D01*
X1491451Y-821902D01*
X1501150Y-819512D01*
X1510722Y-816655D01*
X1520144Y-813340D01*
X1529396Y-809573D01*
X1538455Y-805364D01*
X1547299Y-800722D01*
X1555910Y-795658D01*
X1564265Y-790184D01*
X1572346Y-784313D01*
X1580134Y-778058D01*
X1587611Y-771434D01*
X1594759Y-764457D01*
X1601562Y-757142D01*
X1608003Y-749507D01*
X1614068Y-741570D01*
X1619743Y-733350D01*
X1625013Y-724865D01*
X1629868Y-716135D01*
X1634295Y-707180D01*
X1638284Y-698022D01*
X1641826Y-688683D01*
X1644913Y-679183D01*
X1647537Y-669544D01*
X1649693Y-659791D01*
X1651375Y-649945D01*
X1652579Y-640029D01*
X1653302Y-630066D01*
X1653544Y-620080D01*
X-826772Y-206693D02*
X-827013Y-196707D01*
X-827737Y-186744D01*
X-828941Y-176828D01*
X-830622Y-166982D01*
X-832778Y-157228D01*
X-835402Y-147590D01*
X-838489Y-138090D01*
X-842031Y-128750D01*
X-846020Y-119592D01*
X-850447Y-110638D01*
X-855302Y-101908D01*
X-860572Y-93422D01*
X-866246Y-85202D01*
X-872311Y-77265D01*
X-878753Y-69630D01*
X-885555Y-62315D01*
X-892703Y-55338D01*
X-900180Y-48714D01*
X-907968Y-42459D01*
X-916050Y-36588D01*
X-924405Y-31114D01*
X-933015Y-26050D01*
X-941860Y-21408D01*
X-950919Y-17198D01*
X-960170Y-13431D01*
X-969593Y-10116D01*
X-979165Y-7260D01*
X-988864Y-4869D01*
X-998666Y-2950D01*
X-1008551Y-1507D01*
X-1018493Y-543D01*
X-1028470Y-60D01*
X-1038459D01*
X-1048436Y-543D01*
X-1058379Y-1507D01*
X-1068263Y-2950D01*
X-1078066Y-4869D01*
X-1087764Y-7260D01*
X-1097336Y-10116D01*
X-1106759Y-13431D01*
X-1116011Y-17198D01*
X-1125069Y-21408D01*
X-1133914Y-26050D01*
X-1142524Y-31114D01*
X-1150880Y-36588D01*
X-1158961Y-42459D01*
X-1166749Y-48714D01*
X-1174226Y-55338D01*
X-1181374Y-62316D01*
X-1188177Y-69630D01*
X-1194618Y-77265D01*
X-1200683Y-85202D01*
X-1206357Y-93422D01*
X-1211628Y-101908D01*
X-1216482Y-110638D01*
X-1220909Y-119592D01*
X-1224898Y-128750D01*
X-1228440Y-138090D01*
X-1231527Y-147590D01*
X-1234151Y-157228D01*
X-1236307Y-166981D01*
X-1237988Y-176828D01*
X-1239193Y-186744D01*
X-1239916Y-196707D01*
X-1240158Y-206693D01*
X-1239916Y-216679D01*
X-1239193Y-226641D01*
X-1237989Y-236557D01*
X-1236307Y-246404D01*
X-1234151Y-256157D01*
X-1231527Y-265795D01*
X-1228440Y-275296D01*
X-1224898Y-284635D01*
X-1220909Y-293793D01*
X-1216482Y-302747D01*
X-1211628Y-311477D01*
X-1206357Y-319963D01*
X-1200683Y-328183D01*
X-1194618Y-336120D01*
X-1188177Y-343755D01*
X-1181374Y-351070D01*
X-1174226Y-358047D01*
X-1166749Y-364671D01*
X-1158961Y-370926D01*
X-1150880Y-376797D01*
X-1142524Y-382271D01*
X-1133914Y-387336D01*
X-1125070Y-391978D01*
X-1116011Y-396187D01*
X-1106759Y-399954D01*
X-1097337Y-403269D01*
X-1087765Y-406125D01*
X-1078066Y-408516D01*
X-1068263Y-410435D01*
X-1058379Y-411878D01*
X-1048437Y-412843D01*
X-1038460Y-413325D01*
X-1028471Y-413325D01*
X-1018494Y-412843D01*
X-1008551Y-411879D01*
X-998667Y-410435D01*
X-988864Y-408516D01*
X-979166Y-406126D01*
X-969594Y-403270D01*
X-960171Y-399954D01*
X-950919Y-396188D01*
X-941861Y-391978D01*
X-933016Y-387336D01*
X-924406Y-382272D01*
X-916050Y-376798D01*
X-907969Y-370927D01*
X-900181Y-364672D01*
X-892704Y-358048D01*
X-885556Y-351071D01*
X-878753Y-343756D01*
X-872312Y-336122D01*
X-866247Y-328185D01*
X-860573Y-319964D01*
X-855302Y-311479D01*
X-850448Y-302749D01*
X-846021Y-293794D01*
X-842031Y-284637D01*
X-838489Y-275297D01*
X-835402Y-265797D01*
X-832778Y-256159D01*
X-830623Y-246405D01*
X-828941Y-236559D01*
X-827737Y-226643D01*
X-827013Y-216680D01*
X-826772Y-206694D01*
X0Y-206693D02*
X-241Y-196707D01*
X-965Y-186744D01*
X-2169Y-176828D01*
X-3851Y-166982D01*
X-6006Y-157228D01*
X-8630Y-147590D01*
X-11717Y-138090D01*
X-15259Y-128750D01*
X-19248Y-119592D01*
X-23675Y-110638D01*
X-28530Y-101908D01*
X-33800Y-93422D01*
X-39475Y-85202D01*
X-45540Y-77265D01*
X-51981Y-69630D01*
X-58784Y-62315D01*
X-65932Y-55338D01*
X-73409Y-48714D01*
X-81197Y-42459D01*
X-89278Y-36588D01*
X-97633Y-31114D01*
X-106243Y-26050D01*
X-115088Y-21408D01*
X-124147Y-17198D01*
X-133399Y-13431D01*
X-142821Y-10116D01*
X-152393Y-7260D01*
X-162092Y-4869D01*
X-171895Y-2950D01*
X-181779Y-1507D01*
X-191721Y-543D01*
X-201698Y-60D01*
X-211687D01*
X-221665Y-543D01*
X-231607Y-1507D01*
X-241491Y-2950D01*
X-251294Y-4869D01*
X-260993Y-7260D01*
X-270565Y-10116D01*
X-279987Y-13431D01*
X-289239Y-17198D01*
X-298298Y-21408D01*
X-307142Y-26050D01*
X-315752Y-31114D01*
X-324108Y-36588D01*
X-332189Y-42459D01*
X-339977Y-48714D01*
X-347454Y-55338D01*
X-354602Y-62316D01*
X-361405Y-69630D01*
X-367846Y-77265D01*
X-373911Y-85202D01*
X-379585Y-93422D01*
X-384856Y-101908D01*
X-389710Y-110638D01*
X-394137Y-119592D01*
X-398127Y-128750D01*
X-401669Y-138090D01*
X-404755Y-147590D01*
X-407380Y-157228D01*
X-409535Y-166981D01*
X-411217Y-176828D01*
X-412421Y-186744D01*
X-413144Y-196707D01*
X-413386Y-206693D01*
X-413144Y-216679D01*
X-412421Y-226641D01*
X-411217Y-236557D01*
X-409535Y-246404D01*
X-407380Y-256157D01*
X-404755Y-265795D01*
X-401669Y-275296D01*
X-398127Y-284635D01*
X-394137Y-293793D01*
X-389710Y-302747D01*
X-384856Y-311477D01*
X-379585Y-319963D01*
X-373911Y-328183D01*
X-367846Y-336120D01*
X-361405Y-343755D01*
X-354602Y-351070D01*
X-347454Y-358047D01*
X-339977Y-364671D01*
X-332189Y-370926D01*
X-324108Y-376797D01*
X-315753Y-382271D01*
X-307142Y-387336D01*
X-298298Y-391978D01*
X-289239Y-396187D01*
X-279988Y-399954D01*
X-270565Y-403269D01*
X-260993Y-406125D01*
X-251294Y-408516D01*
X-241492Y-410435D01*
X-231607Y-411878D01*
X-221665Y-412843D01*
X-211688Y-413325D01*
X-201699Y-413325D01*
X-191722Y-412843D01*
X-181779Y-411879D01*
X-171895Y-410435D01*
X-162093Y-408516D01*
X-152394Y-406126D01*
X-142822Y-403270D01*
X-133399Y-399954D01*
X-124148Y-396188D01*
X-115089Y-391978D01*
X-106244Y-387336D01*
X-97634Y-382272D01*
X-89279Y-376798D01*
X-81197Y-370927D01*
X-73409Y-364672D01*
X-65932Y-358048D01*
X-58784Y-351071D01*
X-51982Y-343756D01*
X-45540Y-336122D01*
X-39475Y-328185D01*
X-33801Y-319964D01*
X-28530Y-311479D01*
X-23676Y-302749D01*
X-19249Y-293794D01*
X-15259Y-284637D01*
X-11717Y-275297D01*
X-8630Y-265797D01*
X-6006Y-256159D01*
X-3851Y-246405D01*
X-2169Y-236559D01*
X-965Y-226643D01*
X-241Y-216680D01*
X0Y-206694D01*
X826772Y-206693D02*
X826530Y-196707D01*
X825807Y-186744D01*
X824603Y-176828D01*
X822921Y-166982D01*
X820766Y-157228D01*
X818142Y-147590D01*
X815055Y-138090D01*
X811513Y-128750D01*
X807524Y-119592D01*
X803096Y-110638D01*
X798242Y-101908D01*
X792971Y-93422D01*
X787297Y-85202D01*
X781232Y-77265D01*
X774791Y-69630D01*
X767988Y-62315D01*
X760840Y-55338D01*
X753363Y-48714D01*
X745575Y-42459D01*
X737494Y-36588D01*
X729139Y-31114D01*
X720528Y-26050D01*
X711684Y-21408D01*
X702625Y-17198D01*
X693373Y-13431D01*
X683951Y-10116D01*
X674379Y-7260D01*
X664680Y-4869D01*
X654877Y-2950D01*
X644993Y-1507D01*
X635051Y-543D01*
X625073Y-60D01*
X615085D01*
X605107Y-543D01*
X595165Y-1507D01*
X585281Y-2950D01*
X575478Y-4869D01*
X565779Y-7260D01*
X556207Y-10116D01*
X546785Y-13431D01*
X537533Y-17198D01*
X528474Y-21408D01*
X519630Y-26050D01*
X511019Y-31114D01*
X502664Y-36588D01*
X494583Y-42459D01*
X486795Y-48714D01*
X479318Y-55338D01*
X472170Y-62316D01*
X465367Y-69630D01*
X458926Y-77265D01*
X452861Y-85202D01*
X447187Y-93422D01*
X441916Y-101908D01*
X437062Y-110638D01*
X432635Y-119592D01*
X428645Y-128750D01*
X425103Y-138090D01*
X422016Y-147590D01*
X419392Y-157228D01*
X417237Y-166981D01*
X415555Y-176828D01*
X414351Y-186744D01*
X413627Y-196707D01*
X413386Y-206693D01*
X413627Y-216679D01*
X414351Y-226641D01*
X415555Y-236557D01*
X417237Y-246404D01*
X419392Y-256157D01*
X422016Y-265795D01*
X425103Y-275296D01*
X428645Y-284635D01*
X432634Y-293793D01*
X437061Y-302747D01*
X441916Y-311477D01*
X447186Y-319963D01*
X452861Y-328183D01*
X458926Y-336120D01*
X465367Y-343755D01*
X472170Y-351070D01*
X479318Y-358047D01*
X486794Y-364671D01*
X494582Y-370926D01*
X502664Y-376797D01*
X511019Y-382271D01*
X519629Y-387336D01*
X528474Y-391978D01*
X537533Y-396187D01*
X546784Y-399954D01*
X556207Y-403269D01*
X565779Y-406125D01*
X575477Y-408516D01*
X585280Y-410435D01*
X595164Y-411878D01*
X605107Y-412843D01*
X615084Y-413325D01*
X625073Y-413325D01*
X635050Y-412843D01*
X644992Y-411879D01*
X654876Y-410435D01*
X664679Y-408516D01*
X674378Y-406126D01*
X683950Y-403270D01*
X693373Y-399954D01*
X702624Y-396188D01*
X711683Y-391978D01*
X720528Y-387336D01*
X729138Y-382272D01*
X737493Y-376798D01*
X745574Y-370927D01*
X753363Y-364672D01*
X760840Y-358048D01*
X767988Y-351071D01*
X774790Y-343756D01*
X781231Y-336122D01*
X787297Y-328185D01*
X792971Y-319964D01*
X798241Y-311479D01*
X803096Y-302749D01*
X807523Y-293794D01*
X811512Y-284637D01*
X815054Y-275297D01*
X818141Y-265797D01*
X820765Y-256159D01*
X822921Y-246405D01*
X824603Y-236559D01*
X825807Y-226643D01*
X826530Y-216680D01*
X826772Y-206694D01*
X1653544Y-206693D02*
X1653302Y-196707D01*
X1652579Y-186744D01*
X1651375Y-176828D01*
X1649693Y-166982D01*
X1647538Y-157228D01*
X1644913Y-147590D01*
X1641827Y-138090D01*
X1638284Y-128750D01*
X1634295Y-119592D01*
X1629868Y-110638D01*
X1625014Y-101908D01*
X1619743Y-93422D01*
X1614069Y-85202D01*
X1608004Y-77265D01*
X1601563Y-69630D01*
X1594760Y-62315D01*
X1587612Y-55338D01*
X1580135Y-48714D01*
X1572347Y-42459D01*
X1564266Y-36588D01*
X1555910Y-31114D01*
X1547300Y-26050D01*
X1538455Y-21408D01*
X1529397Y-17198D01*
X1520145Y-13431D01*
X1510722Y-10116D01*
X1501151Y-7260D01*
X1491452Y-4869D01*
X1481649Y-2950D01*
X1471765Y-1507D01*
X1461822Y-543D01*
X1451845Y-60D01*
X1441856D01*
X1431879Y-543D01*
X1421937Y-1507D01*
X1412053Y-2950D01*
X1402250Y-4869D01*
X1392551Y-7260D01*
X1382979Y-10116D01*
X1373556Y-13431D01*
X1364305Y-17198D01*
X1355246Y-21408D01*
X1346401Y-26050D01*
X1337791Y-31114D01*
X1329436Y-36588D01*
X1321354Y-42459D01*
X1313566Y-48714D01*
X1306090Y-55338D01*
X1298941Y-62316D01*
X1292139Y-69630D01*
X1285698Y-77265D01*
X1279633Y-85202D01*
X1273958Y-93422D01*
X1268688Y-101908D01*
X1263833Y-110638D01*
X1259406Y-119592D01*
X1255417Y-128750D01*
X1251875Y-138090D01*
X1248788Y-147590D01*
X1246164Y-157228D01*
X1244009Y-166981D01*
X1242327Y-176828D01*
X1241123Y-186744D01*
X1240399Y-196707D01*
X1240158Y-206693D01*
X1240399Y-216679D01*
X1241123Y-226641D01*
X1242327Y-236557D01*
X1244008Y-246404D01*
X1246164Y-256157D01*
X1248788Y-265795D01*
X1251875Y-275296D01*
X1255417Y-284635D01*
X1259406Y-293793D01*
X1263833Y-302747D01*
X1268688Y-311477D01*
X1273958Y-319963D01*
X1279632Y-328183D01*
X1285697Y-336120D01*
X1292139Y-343755D01*
X1298941Y-351070D01*
X1306089Y-358047D01*
X1313566Y-364671D01*
X1321354Y-370926D01*
X1329436Y-376797D01*
X1337791Y-382271D01*
X1346401Y-387336D01*
X1355246Y-391978D01*
X1364304Y-396187D01*
X1373556Y-399954D01*
X1382979Y-403269D01*
X1392551Y-406125D01*
X1402249Y-408516D01*
X1412052Y-410435D01*
X1421936Y-411878D01*
X1431878Y-412843D01*
X1441856Y-413325D01*
X1451845Y-413325D01*
X1461822Y-412843D01*
X1471764Y-411879D01*
X1481648Y-410435D01*
X1491451Y-408516D01*
X1501150Y-406126D01*
X1510722Y-403270D01*
X1520144Y-399954D01*
X1529396Y-396188D01*
X1538455Y-391978D01*
X1547299Y-387336D01*
X1555910Y-382272D01*
X1564265Y-376798D01*
X1572346Y-370927D01*
X1580134Y-364672D01*
X1587611Y-358048D01*
X1594759Y-351071D01*
X1601562Y-343756D01*
X1608003Y-336122D01*
X1614068Y-328185D01*
X1619743Y-319964D01*
X1625013Y-311479D01*
X1629868Y-302749D01*
X1634295Y-293794D01*
X1638284Y-284637D01*
X1641826Y-275297D01*
X1644913Y-265797D01*
X1647537Y-256159D01*
X1649693Y-246405D01*
X1651375Y-236559D01*
X1652579Y-226643D01*
X1653302Y-216680D01*
X1653544Y-206694D01*
X-826772Y206693D02*
X-827013Y216679D01*
X-827737Y226642D01*
X-828941Y236558D01*
X-830622Y246404D01*
X-832778Y256158D01*
X-835402Y265796D01*
X-838489Y275296D01*
X-842031Y284636D01*
X-846020Y293794D01*
X-850447Y302748D01*
X-855302Y311478D01*
X-860572Y319964D01*
X-866246Y328184D01*
X-872311Y336121D01*
X-878753Y343756D01*
X-885555Y351070D01*
X-892703Y358048D01*
X-900180Y364672D01*
X-907968Y370927D01*
X-916050Y376798D01*
X-924405Y382272D01*
X-933015Y387336D01*
X-941860Y391978D01*
X-950919Y396188D01*
X-960170Y399954D01*
X-969593Y403270D01*
X-979165Y406126D01*
X-988864Y408517D01*
X-998666Y410436D01*
X-1008551Y411879D01*
X-1018493Y412843D01*
X-1028470Y413326D01*
X-1038459D01*
X-1048436Y412843D01*
X-1058379Y411879D01*
X-1068263Y410436D01*
X-1078066Y408517D01*
X-1087764Y406126D01*
X-1097336Y403270D01*
X-1106759Y399954D01*
X-1116011Y396188D01*
X-1125069Y391978D01*
X-1133914Y387336D01*
X-1142524Y382272D01*
X-1150880Y376798D01*
X-1158961Y370927D01*
X-1166749Y364672D01*
X-1174226Y358048D01*
X-1181374Y351070D01*
X-1188177Y343756D01*
X-1194618Y336121D01*
X-1200683Y328184D01*
X-1206357Y319963D01*
X-1211628Y311478D01*
X-1216482Y302748D01*
X-1220909Y293794D01*
X-1224898Y284636D01*
X-1228440Y275296D01*
X-1231527Y265796D01*
X-1234151Y256158D01*
X-1236307Y246405D01*
X-1237988Y236558D01*
X-1239193Y226642D01*
X-1239916Y216679D01*
X-1240158Y206693D01*
X-1239916Y196707D01*
X-1239193Y186745D01*
X-1237989Y176828D01*
X-1236307Y166982D01*
X-1234151Y157228D01*
X-1231527Y147590D01*
X-1228440Y138090D01*
X-1224898Y128751D01*
X-1220909Y119593D01*
X-1216482Y110638D01*
X-1211628Y101909D01*
X-1206357Y93423D01*
X-1200683Y85202D01*
X-1194618Y77265D01*
X-1188177Y69631D01*
X-1181374Y62316D01*
X-1174226Y55339D01*
X-1166749Y48715D01*
X-1158961Y42460D01*
X-1150880Y36589D01*
X-1142524Y31114D01*
X-1133914Y26050D01*
X-1125070Y21408D01*
X-1116011Y17199D01*
X-1106759Y13432D01*
X-1097337Y10117D01*
X-1087765Y7260D01*
X-1078066Y4870D01*
X-1068263Y2951D01*
X-1058379Y1507D01*
X-1048437Y543D01*
X-1038460Y61D01*
X-1028471Y61D01*
X-1018494Y543D01*
X-1008551Y1507D01*
X-998667Y2950D01*
X-988864Y4870D01*
X-979166Y7260D01*
X-969594Y10116D01*
X-960171Y13432D01*
X-950919Y17198D01*
X-941861Y21408D01*
X-933016Y26050D01*
X-924406Y31114D01*
X-916050Y36588D01*
X-907969Y42459D01*
X-900181Y48714D01*
X-892704Y55338D01*
X-885556Y62315D01*
X-878753Y69630D01*
X-872312Y77264D01*
X-866247Y85201D01*
X-860573Y93422D01*
X-855302Y101907D01*
X-850448Y110637D01*
X-846021Y119592D01*
X-842031Y128749D01*
X-838489Y138089D01*
X-835402Y147589D01*
X-832778Y157227D01*
X-830623Y166981D01*
X-828941Y176827D01*
X-827737Y186743D01*
X-827013Y196706D01*
X-826772Y206692D01*
X0Y206693D02*
X-241Y216679D01*
X-965Y226642D01*
X-2169Y236558D01*
X-3851Y246404D01*
X-6006Y256158D01*
X-8630Y265796D01*
X-11717Y275296D01*
X-15259Y284636D01*
X-19248Y293794D01*
X-23675Y302748D01*
X-28530Y311478D01*
X-33800Y319964D01*
X-39475Y328184D01*
X-45540Y336121D01*
X-51981Y343756D01*
X-58784Y351070D01*
X-65932Y358048D01*
X-73409Y364672D01*
X-81197Y370927D01*
X-89278Y376798D01*
X-97633Y382272D01*
X-106243Y387336D01*
X-115088Y391978D01*
X-124147Y396188D01*
X-133399Y399954D01*
X-142821Y403270D01*
X-152393Y406126D01*
X-162092Y408517D01*
X-171895Y410436D01*
X-181779Y411879D01*
X-191721Y412843D01*
X-201698Y413326D01*
X-211687D01*
X-221665Y412843D01*
X-231607Y411879D01*
X-241491Y410436D01*
X-251294Y408517D01*
X-260993Y406126D01*
X-270565Y403270D01*
X-279987Y399954D01*
X-289239Y396188D01*
X-298298Y391978D01*
X-307142Y387336D01*
X-315752Y382272D01*
X-324108Y376798D01*
X-332189Y370927D01*
X-339977Y364672D01*
X-347454Y358048D01*
X-354602Y351070D01*
X-361405Y343756D01*
X-367846Y336121D01*
X-373911Y328184D01*
X-379585Y319963D01*
X-384856Y311478D01*
X-389710Y302748D01*
X-394137Y293794D01*
X-398127Y284636D01*
X-401669Y275296D01*
X-404755Y265796D01*
X-407380Y256158D01*
X-409535Y246405D01*
X-411217Y236558D01*
X-412421Y226642D01*
X-413144Y216679D01*
X-413386Y206693D01*
X-413144Y196707D01*
X-412421Y186745D01*
X-411217Y176828D01*
X-409535Y166982D01*
X-407380Y157228D01*
X-404755Y147590D01*
X-401669Y138090D01*
X-398127Y128751D01*
X-394137Y119593D01*
X-389710Y110638D01*
X-384856Y101909D01*
X-379585Y93423D01*
X-373911Y85202D01*
X-367846Y77265D01*
X-361405Y69631D01*
X-354602Y62316D01*
X-347454Y55339D01*
X-339977Y48715D01*
X-332189Y42460D01*
X-324108Y36589D01*
X-315753Y31114D01*
X-307142Y26050D01*
X-298298Y21408D01*
X-289239Y17199D01*
X-279988Y13432D01*
X-270565Y10117D01*
X-260993Y7260D01*
X-251294Y4870D01*
X-241492Y2951D01*
X-231607Y1507D01*
X-221665Y543D01*
X-211688Y61D01*
X-201699Y61D01*
X-191722Y543D01*
X-181779Y1507D01*
X-171895Y2950D01*
X-162093Y4870D01*
X-152394Y7260D01*
X-142822Y10116D01*
X-133399Y13432D01*
X-124148Y17198D01*
X-115089Y21408D01*
X-106244Y26050D01*
X-97634Y31114D01*
X-89279Y36588D01*
X-81197Y42459D01*
X-73409Y48714D01*
X-65932Y55338D01*
X-58784Y62315D01*
X-51982Y69630D01*
X-45540Y77264D01*
X-39475Y85201D01*
X-33801Y93422D01*
X-28530Y101907D01*
X-23676Y110637D01*
X-19249Y119592D01*
X-15259Y128749D01*
X-11717Y138089D01*
X-8630Y147589D01*
X-6006Y157227D01*
X-3851Y166981D01*
X-2169Y176827D01*
X-965Y186743D01*
X-241Y196706D01*
X0Y206692D01*
X826772Y206693D02*
X826530Y216679D01*
X825807Y226642D01*
X824603Y236558D01*
X822921Y246404D01*
X820766Y256158D01*
X818142Y265796D01*
X815055Y275296D01*
X811513Y284636D01*
X807524Y293794D01*
X803096Y302748D01*
X798242Y311478D01*
X792971Y319964D01*
X787297Y328184D01*
X781232Y336121D01*
X774791Y343756D01*
X767988Y351070D01*
X760840Y358048D01*
X753363Y364672D01*
X745575Y370927D01*
X737494Y376798D01*
X729139Y382272D01*
X720528Y387336D01*
X711684Y391978D01*
X702625Y396188D01*
X693373Y399954D01*
X683951Y403270D01*
X674379Y406126D01*
X664680Y408517D01*
X654877Y410436D01*
X644993Y411879D01*
X635051Y412843D01*
X625073Y413326D01*
X615085D01*
X605107Y412843D01*
X595165Y411879D01*
X585281Y410436D01*
X575478Y408517D01*
X565779Y406126D01*
X556207Y403270D01*
X546785Y399954D01*
X537533Y396188D01*
X528474Y391978D01*
X519630Y387336D01*
X511019Y382272D01*
X502664Y376798D01*
X494583Y370927D01*
X486795Y364672D01*
X479318Y358048D01*
X472170Y351070D01*
X465367Y343756D01*
X458926Y336121D01*
X452861Y328184D01*
X447187Y319963D01*
X441916Y311478D01*
X437062Y302748D01*
X432635Y293794D01*
X428645Y284636D01*
X425103Y275296D01*
X422016Y265796D01*
X419392Y256158D01*
X417237Y246405D01*
X415555Y236558D01*
X414351Y226642D01*
X413627Y216679D01*
X413386Y206693D01*
X413627Y196707D01*
X414351Y186745D01*
X415555Y176828D01*
X417237Y166982D01*
X419392Y157228D01*
X422016Y147590D01*
X425103Y138090D01*
X428645Y128751D01*
X432634Y119593D01*
X437061Y110638D01*
X441916Y101909D01*
X447186Y93423D01*
X452861Y85202D01*
X458926Y77265D01*
X465367Y69631D01*
X472170Y62316D01*
X479318Y55339D01*
X486794Y48715D01*
X494582Y42460D01*
X502664Y36589D01*
X511019Y31114D01*
X519629Y26050D01*
X528474Y21408D01*
X537533Y17199D01*
X546784Y13432D01*
X556207Y10117D01*
X565779Y7260D01*
X575477Y4870D01*
X585280Y2951D01*
X595164Y1507D01*
X605107Y543D01*
X615084Y61D01*
X625073Y61D01*
X635050Y543D01*
X644992Y1507D01*
X654876Y2950D01*
X664679Y4870D01*
X674378Y7260D01*
X683950Y10116D01*
X693373Y13432D01*
X702624Y17198D01*
X711683Y21408D01*
X720528Y26050D01*
X729138Y31114D01*
X737493Y36588D01*
X745574Y42459D01*
X753363Y48714D01*
X760840Y55338D01*
X767988Y62315D01*
X774790Y69630D01*
X781231Y77264D01*
X787297Y85201D01*
X792971Y93422D01*
X798241Y101907D01*
X803096Y110637D01*
X807523Y119592D01*
X811512Y128749D01*
X815054Y138089D01*
X818141Y147589D01*
X820765Y157227D01*
X822921Y166981D01*
X824603Y176827D01*
X825807Y186743D01*
X826530Y196706D01*
X826772Y206692D01*
X1653544Y206693D02*
X1653302Y216679D01*
X1652579Y226642D01*
X1651375Y236558D01*
X1649693Y246404D01*
X1647538Y256158D01*
X1644913Y265796D01*
X1641827Y275296D01*
X1638284Y284636D01*
X1634295Y293794D01*
X1629868Y302748D01*
X1625014Y311478D01*
X1619743Y319964D01*
X1614069Y328184D01*
X1608004Y336121D01*
X1601563Y343756D01*
X1594760Y351070D01*
X1587612Y358048D01*
X1580135Y364672D01*
X1572347Y370927D01*
X1564266Y376798D01*
X1555910Y382272D01*
X1547300Y387336D01*
X1538455Y391978D01*
X1529397Y396188D01*
X1520145Y399954D01*
X1510722Y403270D01*
X1501151Y406126D01*
X1491452Y408517D01*
X1481649Y410436D01*
X1471765Y411879D01*
X1461822Y412843D01*
X1451845Y413326D01*
X1441856D01*
X1431879Y412843D01*
X1421937Y411879D01*
X1412053Y410436D01*
X1402250Y408517D01*
X1392551Y406126D01*
X1382979Y403270D01*
X1373556Y399954D01*
X1364305Y396188D01*
X1355246Y391978D01*
X1346401Y387336D01*
X1337791Y382272D01*
X1329436Y376798D01*
X1321354Y370927D01*
X1313566Y364672D01*
X1306090Y358048D01*
X1298941Y351070D01*
X1292139Y343756D01*
X1285698Y336121D01*
X1279633Y328184D01*
X1273958Y319963D01*
X1268688Y311478D01*
X1263833Y302748D01*
X1259406Y293794D01*
X1255417Y284636D01*
X1251875Y275296D01*
X1248788Y265796D01*
X1246164Y256158D01*
X1244009Y246405D01*
X1242327Y236558D01*
X1241123Y226642D01*
X1240399Y216679D01*
X1240158Y206693D01*
X1240399Y196707D01*
X1241123Y186745D01*
X1242327Y176828D01*
X1244008Y166982D01*
X1246164Y157228D01*
X1248788Y147590D01*
X1251875Y138090D01*
X1255417Y128751D01*
X1259406Y119593D01*
X1263833Y110638D01*
X1268688Y101909D01*
X1273958Y93423D01*
X1279632Y85202D01*
X1285697Y77265D01*
X1292139Y69631D01*
X1298941Y62316D01*
X1306089Y55339D01*
X1313566Y48715D01*
X1321354Y42460D01*
X1329436Y36589D01*
X1337791Y31114D01*
X1346401Y26050D01*
X1355246Y21408D01*
X1364304Y17199D01*
X1373556Y13432D01*
X1382979Y10117D01*
X1392551Y7260D01*
X1402249Y4870D01*
X1412052Y2951D01*
X1421936Y1507D01*
X1431878Y543D01*
X1441856Y61D01*
X1451845Y61D01*
X1461822Y543D01*
X1471764Y1507D01*
X1481648Y2950D01*
X1491451Y4870D01*
X1501150Y7260D01*
X1510722Y10116D01*
X1520144Y13432D01*
X1529396Y17198D01*
X1538455Y21408D01*
X1547299Y26050D01*
X1555910Y31114D01*
X1564265Y36588D01*
X1572346Y42459D01*
X1580134Y48714D01*
X1587611Y55338D01*
X1594759Y62315D01*
X1601562Y69630D01*
X1608003Y77264D01*
X1614068Y85201D01*
X1619743Y93422D01*
X1625013Y101907D01*
X1629868Y110637D01*
X1634295Y119592D01*
X1638284Y128749D01*
X1641826Y138089D01*
X1644913Y147589D01*
X1647537Y157227D01*
X1649693Y166981D01*
X1651375Y176827D01*
X1652579Y186743D01*
X1653302Y196706D01*
X1653544Y206692D01*
X-826772Y620079D02*
X-827013Y630065D01*
X-827737Y640028D01*
X-828941Y649944D01*
X-830622Y659790D01*
X-832778Y669544D01*
X-835402Y679182D01*
X-838489Y688682D01*
X-842031Y698022D01*
X-846020Y707180D01*
X-850447Y716134D01*
X-855302Y724864D01*
X-860572Y733349D01*
X-866246Y741570D01*
X-872311Y749507D01*
X-878753Y757142D01*
X-885555Y764456D01*
X-892703Y771434D01*
X-900180Y778058D01*
X-907968Y784313D01*
X-916050Y790184D01*
X-924405Y795658D01*
X-933015Y800722D01*
X-941860Y805364D01*
X-950919Y809573D01*
X-960170Y813340D01*
X-969593Y816656D01*
X-979165Y819512D01*
X-988864Y821903D01*
X-998666Y823822D01*
X-1008551Y825265D01*
X-1018493Y826229D01*
X-1028470Y826712D01*
X-1038459D01*
X-1048436Y826229D01*
X-1058379Y825265D01*
X-1068263Y823822D01*
X-1078066Y821903D01*
X-1087764Y819512D01*
X-1097336Y816656D01*
X-1106759Y813340D01*
X-1116011Y809573D01*
X-1125069Y805364D01*
X-1133914Y800722D01*
X-1142524Y795658D01*
X-1150880Y790184D01*
X-1158961Y784313D01*
X-1166749Y778058D01*
X-1174226Y771434D01*
X-1181374Y764456D01*
X-1188177Y757142D01*
X-1194618Y749507D01*
X-1200683Y741570D01*
X-1206357Y733349D01*
X-1211628Y724864D01*
X-1216482Y716134D01*
X-1220909Y707180D01*
X-1224898Y698022D01*
X-1228440Y688682D01*
X-1231527Y679182D01*
X-1234151Y669544D01*
X-1236307Y659790D01*
X-1237988Y649944D01*
X-1239193Y640028D01*
X-1239916Y630065D01*
X-1240158Y620079D01*
X-1239916Y610093D01*
X-1239193Y600130D01*
X-1237989Y590214D01*
X-1236307Y580368D01*
X-1234151Y570614D01*
X-1231527Y560976D01*
X-1228440Y551476D01*
X-1224898Y542136D01*
X-1220909Y532979D01*
X-1216482Y524024D01*
X-1211628Y515294D01*
X-1206357Y506809D01*
X-1200683Y498588D01*
X-1194618Y490651D01*
X-1188177Y483017D01*
X-1181374Y475702D01*
X-1174226Y468725D01*
X-1166749Y462101D01*
X-1158961Y455846D01*
X-1150880Y449974D01*
X-1142524Y444500D01*
X-1133914Y439436D01*
X-1125070Y434794D01*
X-1116011Y430585D01*
X-1106759Y426818D01*
X-1097337Y423503D01*
X-1087765Y420646D01*
X-1078066Y418256D01*
X-1068263Y416337D01*
X-1058379Y414893D01*
X-1048437Y413929D01*
X-1038460Y413447D01*
X-1028471Y413447D01*
X-1018494Y413929D01*
X-1008551Y414893D01*
X-998667Y416336D01*
X-988864Y418255D01*
X-979166Y420646D01*
X-969594Y423502D01*
X-960171Y426818D01*
X-950919Y430584D01*
X-941861Y434794D01*
X-933016Y439436D01*
X-924406Y444500D01*
X-916050Y449974D01*
X-907969Y455845D01*
X-900181Y462100D01*
X-892704Y468724D01*
X-885556Y475701D01*
X-878753Y483016D01*
X-872312Y490650D01*
X-866247Y498587D01*
X-860573Y506808D01*
X-855302Y515293D01*
X-850448Y524023D01*
X-846021Y532977D01*
X-842031Y542135D01*
X-838489Y551475D01*
X-835402Y560975D01*
X-832778Y570613D01*
X-830623Y580367D01*
X-828941Y590213D01*
X-827737Y600129D01*
X-827013Y610092D01*
X-826772Y620078D01*
X0Y620079D02*
X-241Y630065D01*
X-965Y640028D01*
X-2169Y649944D01*
X-3851Y659790D01*
X-6006Y669544D01*
X-8630Y679182D01*
X-11717Y688682D01*
X-15259Y698022D01*
X-19248Y707180D01*
X-23675Y716134D01*
X-28530Y724864D01*
X-33800Y733349D01*
X-39475Y741570D01*
X-45540Y749507D01*
X-51981Y757142D01*
X-58784Y764456D01*
X-65932Y771434D01*
X-73409Y778058D01*
X-81197Y784313D01*
X-89278Y790184D01*
X-97633Y795658D01*
X-106243Y800722D01*
X-115088Y805364D01*
X-124147Y809573D01*
X-133399Y813340D01*
X-142821Y816656D01*
X-152393Y819512D01*
X-162092Y821903D01*
X-171895Y823822D01*
X-181779Y825265D01*
X-191721Y826229D01*
X-201698Y826712D01*
X-211687D01*
X-221665Y826229D01*
X-231607Y825265D01*
X-241491Y823822D01*
X-251294Y821903D01*
X-260993Y819512D01*
X-270565Y816656D01*
X-279987Y813340D01*
X-289239Y809573D01*
X-298298Y805364D01*
X-307142Y800722D01*
X-315752Y795658D01*
X-324108Y790184D01*
X-332189Y784313D01*
X-339977Y778058D01*
X-347454Y771434D01*
X-354602Y764456D01*
X-361405Y757142D01*
X-367846Y749507D01*
X-373911Y741570D01*
X-379585Y733349D01*
X-384856Y724864D01*
X-389710Y716134D01*
X-394137Y707180D01*
X-398127Y698022D01*
X-401669Y688682D01*
X-404755Y679182D01*
X-407380Y669544D01*
X-409535Y659790D01*
X-411217Y649944D01*
X-412421Y640028D01*
X-413144Y630065D01*
X-413386Y620079D01*
X-413144Y610093D01*
X-412421Y600130D01*
X-411217Y590214D01*
X-409535Y580368D01*
X-407380Y570614D01*
X-404755Y560976D01*
X-401669Y551476D01*
X-398127Y542136D01*
X-394137Y532979D01*
X-389710Y524024D01*
X-384856Y515294D01*
X-379585Y506809D01*
X-373911Y498588D01*
X-367846Y490651D01*
X-361405Y483017D01*
X-354602Y475702D01*
X-347454Y468725D01*
X-339977Y462101D01*
X-332189Y455846D01*
X-324108Y449974D01*
X-315753Y444500D01*
X-307142Y439436D01*
X-298298Y434794D01*
X-289239Y430585D01*
X-279988Y426818D01*
X-270565Y423503D01*
X-260993Y420646D01*
X-251294Y418256D01*
X-241492Y416337D01*
X-231607Y414893D01*
X-221665Y413929D01*
X-211688Y413447D01*
X-201699Y413447D01*
X-191722Y413929D01*
X-181779Y414893D01*
X-171895Y416336D01*
X-162093Y418255D01*
X-152394Y420646D01*
X-142822Y423502D01*
X-133399Y426818D01*
X-124148Y430584D01*
X-115089Y434794D01*
X-106244Y439436D01*
X-97634Y444500D01*
X-89279Y449974D01*
X-81197Y455845D01*
X-73409Y462100D01*
X-65932Y468724D01*
X-58784Y475701D01*
X-51982Y483016D01*
X-45540Y490650D01*
X-39475Y498587D01*
X-33801Y506808D01*
X-28530Y515293D01*
X-23676Y524023D01*
X-19249Y532977D01*
X-15259Y542135D01*
X-11717Y551475D01*
X-8630Y560975D01*
X-6006Y570613D01*
X-3851Y580367D01*
X-2169Y590213D01*
X-965Y600129D01*
X-241Y610092D01*
X0Y620078D01*
X826772Y620079D02*
X826530Y630065D01*
X825807Y640028D01*
X824603Y649944D01*
X822921Y659790D01*
X820766Y669544D01*
X818142Y679182D01*
X815055Y688682D01*
X811513Y698022D01*
X807524Y707180D01*
X803096Y716134D01*
X798242Y724864D01*
X792971Y733349D01*
X787297Y741570D01*
X781232Y749507D01*
X774791Y757142D01*
X767988Y764456D01*
X760840Y771434D01*
X753363Y778058D01*
X745575Y784313D01*
X737494Y790184D01*
X729139Y795658D01*
X720528Y800722D01*
X711684Y805364D01*
X702625Y809573D01*
X693373Y813340D01*
X683951Y816656D01*
X674379Y819512D01*
X664680Y821903D01*
X654877Y823822D01*
X644993Y825265D01*
X635051Y826229D01*
X625073Y826712D01*
X615085D01*
X605107Y826229D01*
X595165Y825265D01*
X585281Y823822D01*
X575478Y821903D01*
X565779Y819512D01*
X556207Y816656D01*
X546785Y813340D01*
X537533Y809573D01*
X528474Y805364D01*
X519630Y800722D01*
X511019Y795658D01*
X502664Y790184D01*
X494583Y784313D01*
X486795Y778058D01*
X479318Y771434D01*
X472170Y764456D01*
X465367Y757142D01*
X458926Y749507D01*
X452861Y741570D01*
X447187Y733349D01*
X441916Y724864D01*
X437062Y716134D01*
X432635Y707180D01*
X428645Y698022D01*
X425103Y688682D01*
X422016Y679182D01*
X419392Y669544D01*
X417237Y659790D01*
X415555Y649944D01*
X414351Y640028D01*
X413627Y630065D01*
X413386Y620079D01*
X413627Y610093D01*
X414351Y600130D01*
X415555Y590214D01*
X417237Y580368D01*
X419392Y570614D01*
X422016Y560976D01*
X425103Y551476D01*
X428645Y542136D01*
X432634Y532979D01*
X437061Y524024D01*
X441916Y515294D01*
X447186Y506809D01*
X452861Y498588D01*
X458926Y490651D01*
X465367Y483017D01*
X472170Y475702D01*
X479318Y468725D01*
X486794Y462101D01*
X494582Y455846D01*
X502664Y449974D01*
X511019Y444500D01*
X519629Y439436D01*
X528474Y434794D01*
X537533Y430585D01*
X546784Y426818D01*
X556207Y423503D01*
X565779Y420646D01*
X575477Y418256D01*
X585280Y416337D01*
X595164Y414893D01*
X605107Y413929D01*
X615084Y413447D01*
X625073Y413447D01*
X635050Y413929D01*
X644992Y414893D01*
X654876Y416336D01*
X664679Y418255D01*
X674378Y420646D01*
X683950Y423502D01*
X693373Y426818D01*
X702624Y430584D01*
X711683Y434794D01*
X720528Y439436D01*
X729138Y444500D01*
X737493Y449974D01*
X745574Y455845D01*
X753363Y462100D01*
X760840Y468724D01*
X767988Y475701D01*
X774790Y483016D01*
X781231Y490650D01*
X787297Y498587D01*
X792971Y506808D01*
X798241Y515293D01*
X803096Y524023D01*
X807523Y532977D01*
X811512Y542135D01*
X815054Y551475D01*
X818141Y560975D01*
X820765Y570613D01*
X822921Y580367D01*
X824603Y590213D01*
X825807Y600129D01*
X826530Y610092D01*
X826772Y620078D01*
X1653544Y620079D02*
X1653302Y630065D01*
X1652579Y640028D01*
X1651375Y649944D01*
X1649693Y659790D01*
X1647538Y669544D01*
X1644913Y679182D01*
X1641827Y688682D01*
X1638284Y698022D01*
X1634295Y707180D01*
X1629868Y716134D01*
X1625014Y724864D01*
X1619743Y733349D01*
X1614069Y741570D01*
X1608004Y749507D01*
X1601563Y757142D01*
X1594760Y764456D01*
X1587612Y771434D01*
X1580135Y778058D01*
X1572347Y784313D01*
X1564266Y790184D01*
X1555910Y795658D01*
X1547300Y800722D01*
X1538455Y805364D01*
X1529397Y809573D01*
X1520145Y813340D01*
X1510722Y816656D01*
X1501151Y819512D01*
X1491452Y821903D01*
X1481649Y823822D01*
X1471765Y825265D01*
X1461822Y826229D01*
X1451845Y826712D01*
X1441856D01*
X1431879Y826229D01*
X1421937Y825265D01*
X1412053Y823822D01*
X1402250Y821903D01*
X1392551Y819512D01*
X1382979Y816656D01*
X1373556Y813340D01*
X1364305Y809573D01*
X1355246Y805364D01*
X1346401Y800722D01*
X1337791Y795658D01*
X1329436Y790184D01*
X1321354Y784313D01*
X1313566Y778058D01*
X1306090Y771434D01*
X1298941Y764456D01*
X1292139Y757142D01*
X1285698Y749507D01*
X1279633Y741570D01*
X1273958Y733349D01*
X1268688Y724864D01*
X1263833Y716134D01*
X1259406Y707180D01*
X1255417Y698022D01*
X1251875Y688682D01*
X1248788Y679182D01*
X1246164Y669544D01*
X1244009Y659790D01*
X1242327Y649944D01*
X1241123Y640028D01*
X1240399Y630065D01*
X1240158Y620079D01*
X1240399Y610093D01*
X1241123Y600130D01*
X1242327Y590214D01*
X1244008Y580368D01*
X1246164Y570614D01*
X1248788Y560976D01*
X1251875Y551476D01*
X1255417Y542136D01*
X1259406Y532979D01*
X1263833Y524024D01*
X1268688Y515294D01*
X1273958Y506809D01*
X1279632Y498588D01*
X1285697Y490651D01*
X1292139Y483017D01*
X1298941Y475702D01*
X1306089Y468725D01*
X1313566Y462101D01*
X1321354Y455846D01*
X1329436Y449974D01*
X1337791Y444500D01*
X1346401Y439436D01*
X1355246Y434794D01*
X1364304Y430585D01*
X1373556Y426818D01*
X1382979Y423503D01*
X1392551Y420646D01*
X1402249Y418256D01*
X1412052Y416337D01*
X1421936Y414893D01*
X1431878Y413929D01*
X1441856Y413447D01*
X1451845Y413447D01*
X1461822Y413929D01*
X1471764Y414893D01*
X1481648Y416336D01*
X1491451Y418255D01*
X1501150Y420646D01*
X1510722Y423502D01*
X1520144Y426818D01*
X1529396Y430584D01*
X1538455Y434794D01*
X1547299Y439436D01*
X1555910Y444500D01*
X1564265Y449974D01*
X1572346Y455845D01*
X1580134Y462100D01*
X1587611Y468724D01*
X1594759Y475701D01*
X1601562Y483016D01*
X1608003Y490650D01*
X1614068Y498587D01*
X1619743Y506808D01*
X1625013Y515293D01*
X1629868Y524023D01*
X1634295Y532977D01*
X1638284Y542135D01*
X1641826Y551475D01*
X1644913Y560975D01*
X1647537Y570613D01*
X1649693Y580367D01*
X1651375Y590213D01*
X1652579Y600129D01*
X1653302Y610092D01*
X1653544Y620078D01*
X-826772Y1033465D02*
X-827013Y1043451D01*
X-827737Y1053414D01*
X-828941Y1063330D01*
X-830622Y1073176D01*
X-832778Y1082930D01*
X-835402Y1092568D01*
X-838489Y1102068D01*
X-842031Y1111408D01*
X-846020Y1120566D01*
X-850447Y1129520D01*
X-855302Y1138250D01*
X-860572Y1146735D01*
X-866246Y1154956D01*
X-872311Y1162893D01*
X-878753Y1170528D01*
X-885555Y1177842D01*
X-892703Y1184820D01*
X-900180Y1191444D01*
X-907968Y1197698D01*
X-916050Y1203570D01*
X-924405Y1209044D01*
X-933015Y1214108D01*
X-941860Y1218750D01*
X-950919Y1222959D01*
X-960170Y1226726D01*
X-969593Y1230042D01*
X-979165Y1232898D01*
X-988864Y1235288D01*
X-998666Y1237208D01*
X-1008551Y1238651D01*
X-1018493Y1239615D01*
X-1028470Y1240098D01*
X-1038459D01*
X-1048436Y1239615D01*
X-1058379Y1238651D01*
X-1068263Y1237208D01*
X-1078066Y1235288D01*
X-1087764Y1232898D01*
X-1097336Y1230042D01*
X-1106759Y1226726D01*
X-1116011Y1222959D01*
X-1125069Y1218750D01*
X-1133914Y1214108D01*
X-1142524Y1209044D01*
X-1150880Y1203570D01*
X-1158961Y1197698D01*
X-1166749Y1191444D01*
X-1174226Y1184820D01*
X-1181374Y1177842D01*
X-1188177Y1170528D01*
X-1194618Y1162893D01*
X-1200683Y1154956D01*
X-1206357Y1146735D01*
X-1211628Y1138250D01*
X-1216482Y1129520D01*
X-1220909Y1120566D01*
X-1224898Y1111408D01*
X-1228440Y1102068D01*
X-1231527Y1092568D01*
X-1234151Y1082930D01*
X-1236307Y1073176D01*
X-1237988Y1063330D01*
X-1239193Y1053414D01*
X-1239916Y1043451D01*
X-1240158Y1033465D01*
X-1239916Y1023479D01*
X-1239193Y1013516D01*
X-1237989Y1003600D01*
X-1236307Y993754D01*
X-1234151Y984000D01*
X-1231527Y974362D01*
X-1228440Y964862D01*
X-1224898Y955522D01*
X-1220909Y946365D01*
X-1216482Y937410D01*
X-1211628Y928680D01*
X-1206357Y920195D01*
X-1200683Y911974D01*
X-1194618Y904037D01*
X-1188177Y896403D01*
X-1181374Y889088D01*
X-1174226Y882111D01*
X-1166749Y875487D01*
X-1158961Y869232D01*
X-1150880Y863360D01*
X-1142524Y857886D01*
X-1133914Y852822D01*
X-1125070Y848180D01*
X-1116011Y843971D01*
X-1106759Y840204D01*
X-1097337Y836889D01*
X-1087765Y834032D01*
X-1078066Y831642D01*
X-1068263Y829722D01*
X-1058379Y828279D01*
X-1048437Y827315D01*
X-1038460Y826832D01*
X-1028471Y826832D01*
X-1018494Y827315D01*
X-1008551Y828279D01*
X-998667Y829722D01*
X-988864Y831641D01*
X-979166Y834032D01*
X-969594Y836888D01*
X-960171Y840203D01*
X-950919Y843970D01*
X-941861Y848180D01*
X-933016Y852822D01*
X-924406Y857886D01*
X-916050Y863360D01*
X-907969Y869231D01*
X-900181Y875486D01*
X-892704Y882110D01*
X-885556Y889087D01*
X-878753Y896402D01*
X-872312Y904036D01*
X-866247Y911973D01*
X-860573Y920194D01*
X-855302Y928679D01*
X-850448Y937409D01*
X-846021Y946363D01*
X-842031Y955521D01*
X-838489Y964861D01*
X-835402Y974361D01*
X-832778Y983999D01*
X-830623Y993753D01*
X-828941Y1003599D01*
X-827737Y1013515D01*
X-827013Y1023478D01*
X-826772Y1033464D01*
X0Y1033465D02*
X-241Y1043451D01*
X-965Y1053414D01*
X-2169Y1063330D01*
X-3851Y1073176D01*
X-6006Y1082930D01*
X-8630Y1092568D01*
X-11717Y1102068D01*
X-15259Y1111408D01*
X-19248Y1120566D01*
X-23675Y1129520D01*
X-28530Y1138250D01*
X-33800Y1146735D01*
X-39475Y1154956D01*
X-45540Y1162893D01*
X-51981Y1170528D01*
X-58784Y1177842D01*
X-65932Y1184820D01*
X-73409Y1191444D01*
X-81197Y1197698D01*
X-89278Y1203570D01*
X-97633Y1209044D01*
X-106243Y1214108D01*
X-115088Y1218750D01*
X-124147Y1222959D01*
X-133399Y1226726D01*
X-142821Y1230042D01*
X-152393Y1232898D01*
X-162092Y1235288D01*
X-171895Y1237208D01*
X-181779Y1238651D01*
X-191721Y1239615D01*
X-201698Y1240098D01*
X-211687D01*
X-221665Y1239615D01*
X-231607Y1238651D01*
X-241491Y1237208D01*
X-251294Y1235288D01*
X-260993Y1232898D01*
X-270565Y1230042D01*
X-279987Y1226726D01*
X-289239Y1222959D01*
X-298298Y1218750D01*
X-307142Y1214108D01*
X-315752Y1209044D01*
X-324108Y1203570D01*
X-332189Y1197698D01*
X-339977Y1191444D01*
X-347454Y1184820D01*
X-354602Y1177842D01*
X-361405Y1170528D01*
X-367846Y1162893D01*
X-373911Y1154956D01*
X-379585Y1146735D01*
X-384856Y1138250D01*
X-389710Y1129520D01*
X-394137Y1120566D01*
X-398127Y1111408D01*
X-401669Y1102068D01*
X-404755Y1092568D01*
X-407380Y1082930D01*
X-409535Y1073176D01*
X-411217Y1063330D01*
X-412421Y1053414D01*
X-413144Y1043451D01*
X-413386Y1033465D01*
X-413144Y1023479D01*
X-412421Y1013516D01*
X-411217Y1003600D01*
X-409535Y993754D01*
X-407380Y984000D01*
X-404755Y974362D01*
X-401669Y964862D01*
X-398127Y955522D01*
X-394137Y946365D01*
X-389710Y937410D01*
X-384856Y928680D01*
X-379585Y920195D01*
X-373911Y911974D01*
X-367846Y904037D01*
X-361405Y896403D01*
X-354602Y889088D01*
X-347454Y882111D01*
X-339977Y875487D01*
X-332189Y869232D01*
X-324108Y863360D01*
X-315753Y857886D01*
X-307142Y852822D01*
X-298298Y848180D01*
X-289239Y843971D01*
X-279988Y840204D01*
X-270565Y836889D01*
X-260993Y834032D01*
X-251294Y831642D01*
X-241492Y829722D01*
X-231607Y828279D01*
X-221665Y827315D01*
X-211688Y826832D01*
X-201699Y826832D01*
X-191722Y827315D01*
X-181779Y828279D01*
X-171895Y829722D01*
X-162093Y831641D01*
X-152394Y834032D01*
X-142822Y836888D01*
X-133399Y840203D01*
X-124148Y843970D01*
X-115089Y848180D01*
X-106244Y852822D01*
X-97634Y857886D01*
X-89279Y863360D01*
X-81197Y869231D01*
X-73409Y875486D01*
X-65932Y882110D01*
X-58784Y889087D01*
X-51982Y896402D01*
X-45540Y904036D01*
X-39475Y911973D01*
X-33801Y920194D01*
X-28530Y928679D01*
X-23676Y937409D01*
X-19249Y946363D01*
X-15259Y955521D01*
X-11717Y964861D01*
X-8630Y974361D01*
X-6006Y983999D01*
X-3851Y993753D01*
X-2169Y1003599D01*
X-965Y1013515D01*
X-241Y1023478D01*
X0Y1033464D01*
X413386Y1033465D02*
X413145Y1043451D01*
X412421Y1053414D01*
X411217Y1063330D01*
X409535Y1073176D01*
X407380Y1082930D01*
X404756Y1092568D01*
X401669Y1102068D01*
X398127Y1111408D01*
X394138Y1120566D01*
X389711Y1129520D01*
X384856Y1138250D01*
X379586Y1146735D01*
X373911Y1154956D01*
X367846Y1162893D01*
X361405Y1170528D01*
X354602Y1177842D01*
X347454Y1184820D01*
X339978Y1191444D01*
X332189Y1197698D01*
X324108Y1203570D01*
X315753Y1209044D01*
X307143Y1214108D01*
X298298Y1218750D01*
X289239Y1222959D01*
X279988Y1226726D01*
X270565Y1230042D01*
X260993Y1232898D01*
X251294Y1235288D01*
X241491Y1237208D01*
X231607Y1238651D01*
X221665Y1239615D01*
X211688Y1240098D01*
X201699D01*
X191721Y1239615D01*
X181779Y1238651D01*
X171895Y1237208D01*
X162092Y1235288D01*
X152393Y1232898D01*
X142821Y1230042D01*
X133399Y1226726D01*
X124147Y1222959D01*
X115088Y1218750D01*
X106244Y1214108D01*
X97634Y1209044D01*
X89278Y1203570D01*
X81197Y1197698D01*
X73409Y1191444D01*
X65932Y1184820D01*
X58784Y1177842D01*
X51981Y1170528D01*
X45540Y1162893D01*
X39475Y1154956D01*
X33801Y1146735D01*
X28530Y1138250D01*
X23676Y1129520D01*
X19249Y1120566D01*
X15259Y1111408D01*
X11717Y1102068D01*
X8631Y1092568D01*
X6006Y1082930D01*
X3851Y1073176D01*
X2169Y1063330D01*
X965Y1053414D01*
X242Y1043451D01*
X0Y1033465D01*
X242Y1023479D01*
X965Y1013516D01*
X2169Y1003600D01*
X3851Y993754D01*
X6006Y984000D01*
X8630Y974362D01*
X11717Y964862D01*
X15259Y955522D01*
X19249Y946365D01*
X23676Y937410D01*
X28530Y928680D01*
X33801Y920195D01*
X39475Y911974D01*
X45540Y904037D01*
X51981Y896403D01*
X58784Y889088D01*
X65932Y882111D01*
X73409Y875487D01*
X81197Y869232D01*
X89278Y863360D01*
X97633Y857886D01*
X106243Y852822D01*
X115088Y848180D01*
X124147Y843971D01*
X133398Y840204D01*
X142821Y836889D01*
X152393Y834032D01*
X162092Y831642D01*
X171894Y829722D01*
X181779Y828279D01*
X191721Y827315D01*
X201698Y826832D01*
X211687Y826832D01*
X221664Y827315D01*
X231607Y828279D01*
X241491Y829722D01*
X251293Y831641D01*
X260992Y834032D01*
X270564Y836888D01*
X279987Y840203D01*
X289238Y843970D01*
X298297Y848180D01*
X307142Y852822D01*
X315752Y857886D01*
X324107Y863360D01*
X332189Y869231D01*
X339977Y875486D01*
X347454Y882110D01*
X354602Y889087D01*
X361404Y896402D01*
X367846Y904036D01*
X373911Y911973D01*
X379585Y920194D01*
X384856Y928679D01*
X389710Y937409D01*
X394137Y946363D01*
X398127Y955521D01*
X401669Y964861D01*
X404755Y974361D01*
X407380Y983999D01*
X409535Y993753D01*
X411217Y1003599D01*
X412421Y1013515D01*
X413145Y1023478D01*
X413386Y1033464D01*
X1240158Y1033465D02*
X1239917Y1043451D01*
X1239193Y1053414D01*
X1237989Y1063330D01*
X1236307Y1073176D01*
X1234152Y1082930D01*
X1231528Y1092568D01*
X1228441Y1102068D01*
X1224899Y1111408D01*
X1220909Y1120566D01*
X1216483Y1129520D01*
X1211628Y1138250D01*
X1206357Y1146735D01*
X1200683Y1154956D01*
X1194618Y1162893D01*
X1188177Y1170528D01*
X1181374Y1177842D01*
X1174226Y1184820D01*
X1166749Y1191444D01*
X1158961Y1197698D01*
X1150880Y1203570D01*
X1142524Y1209044D01*
X1133914Y1214108D01*
X1125070Y1218750D01*
X1116011Y1222959D01*
X1106759Y1226726D01*
X1097337Y1230042D01*
X1087765Y1232898D01*
X1078066Y1235288D01*
X1068263Y1237208D01*
X1058379Y1238651D01*
X1048437Y1239615D01*
X1038459Y1240098D01*
X1028470D01*
X1018493Y1239615D01*
X1008551Y1238651D01*
X998667Y1237208D01*
X988864Y1235288D01*
X979165Y1232898D01*
X969593Y1230042D01*
X960171Y1226726D01*
X950919Y1222959D01*
X941860Y1218750D01*
X933015Y1214108D01*
X924405Y1209044D01*
X916050Y1203570D01*
X907969Y1197698D01*
X900181Y1191444D01*
X892704Y1184820D01*
X885556Y1177842D01*
X878753Y1170528D01*
X872312Y1162893D01*
X866247Y1154956D01*
X860572Y1146735D01*
X855302Y1138250D01*
X850447Y1129520D01*
X846020Y1120566D01*
X842031Y1111408D01*
X838489Y1102068D01*
X835402Y1092568D01*
X832778Y1082930D01*
X830623Y1073176D01*
X828941Y1063330D01*
X827737Y1053414D01*
X827014Y1043451D01*
X826772Y1033465D01*
X827014Y1023479D01*
X827737Y1013516D01*
X828941Y1003600D01*
X830623Y993754D01*
X832778Y984000D01*
X835402Y974362D01*
X838489Y964862D01*
X842031Y955522D01*
X846020Y946365D01*
X850447Y937410D01*
X855302Y928680D01*
X860572Y920195D01*
X866247Y911974D01*
X872312Y904037D01*
X878753Y896403D01*
X885556Y889088D01*
X892704Y882111D01*
X900180Y875487D01*
X907968Y869232D01*
X916050Y863360D01*
X924405Y857886D01*
X933015Y852822D01*
X941860Y848180D01*
X950919Y843971D01*
X960170Y840204D01*
X969593Y836889D01*
X979165Y834032D01*
X988863Y831642D01*
X998666Y829722D01*
X1008550Y828279D01*
X1018493Y827315D01*
X1028470Y826832D01*
X1038459Y826832D01*
X1048436Y827315D01*
X1058378Y828279D01*
X1068263Y829722D01*
X1078065Y831641D01*
X1087764Y834032D01*
X1097336Y836888D01*
X1106759Y840203D01*
X1116010Y843970D01*
X1125069Y848180D01*
X1133914Y852822D01*
X1142524Y857886D01*
X1150879Y863360D01*
X1158960Y869231D01*
X1166749Y875486D01*
X1174226Y882110D01*
X1181374Y889087D01*
X1188176Y896402D01*
X1194618Y904036D01*
X1200682Y911973D01*
X1206357Y920194D01*
X1211628Y928679D01*
X1216482Y937409D01*
X1220909Y946363D01*
X1224898Y955521D01*
X1228440Y964861D01*
X1231527Y974361D01*
X1234151Y983999D01*
X1236307Y993753D01*
X1237989Y1003599D01*
X1239193Y1013515D01*
X1239917Y1023478D01*
X1240158Y1033464D01*
X-1240158Y1446851D02*
X-1240399Y1456837D01*
X-1241122Y1466800D01*
X-1242326Y1476716D01*
X-1244008Y1486562D01*
X-1246164Y1496316D01*
X-1248788Y1505954D01*
X-1251874Y1515454D01*
X-1255417Y1524794D01*
X-1259406Y1533951D01*
X-1263833Y1542906D01*
X-1268687Y1551636D01*
X-1273958Y1560121D01*
X-1279632Y1568342D01*
X-1285697Y1576279D01*
X-1292139Y1583914D01*
X-1298941Y1591228D01*
X-1306089Y1598206D01*
X-1313566Y1604830D01*
X-1321354Y1611084D01*
X-1329435Y1616956D01*
X-1337791Y1622430D01*
X-1346401Y1627494D01*
X-1355246Y1632136D01*
X-1364304Y1636345D01*
X-1373556Y1640112D01*
X-1382979Y1643428D01*
X-1392551Y1646284D01*
X-1402249Y1648674D01*
X-1412052Y1650593D01*
X-1421936Y1652037D01*
X-1431879Y1653001D01*
X-1441856Y1653483D01*
X-1451845D01*
X-1461822Y1653001D01*
X-1471764Y1652037D01*
X-1481649Y1650593D01*
X-1491451Y1648674D01*
X-1501150Y1646284D01*
X-1510722Y1643428D01*
X-1520145Y1640112D01*
X-1529396Y1636345D01*
X-1538455Y1632136D01*
X-1547300Y1627494D01*
X-1555910Y1622430D01*
X-1564265Y1616956D01*
X-1572347Y1611084D01*
X-1580135Y1604829D01*
X-1587612Y1598206D01*
X-1594760Y1591228D01*
X-1601562Y1583914D01*
X-1608004Y1576279D01*
X-1614069Y1568342D01*
X-1619743Y1560121D01*
X-1625013Y1551636D01*
X-1629868Y1542906D01*
X-1634295Y1533951D01*
X-1638284Y1524794D01*
X-1641826Y1515454D01*
X-1644913Y1505954D01*
X-1647537Y1496316D01*
X-1649693Y1486562D01*
X-1651374Y1476716D01*
X-1652578Y1466800D01*
X-1653302Y1456837D01*
X-1653543Y1446851D01*
X-1653302Y1436865D01*
X-1652578Y1426902D01*
X-1651374Y1416986D01*
X-1649693Y1407140D01*
X-1647537Y1397386D01*
X-1644913Y1387748D01*
X-1641826Y1378248D01*
X-1638284Y1368908D01*
X-1634295Y1359751D01*
X-1629868Y1350796D01*
X-1625014Y1342066D01*
X-1619743Y1333581D01*
X-1614069Y1325360D01*
X-1608004Y1317423D01*
X-1601562Y1309788D01*
X-1594760Y1302474D01*
X-1587612Y1295496D01*
X-1580135Y1288872D01*
X-1572347Y1282618D01*
X-1564266Y1276746D01*
X-1555910Y1271272D01*
X-1547300Y1266208D01*
X-1538455Y1261566D01*
X-1529397Y1257357D01*
X-1520145Y1253590D01*
X-1510723Y1250274D01*
X-1501151Y1247418D01*
X-1491452Y1245028D01*
X-1481649Y1243108D01*
X-1471765Y1241665D01*
X-1461823Y1240701D01*
X-1451845Y1240218D01*
X-1441857Y1240218D01*
X-1431879Y1240701D01*
X-1421937Y1241665D01*
X-1412053Y1243108D01*
X-1402250Y1245027D01*
X-1392551Y1247418D01*
X-1382979Y1250274D01*
X-1373557Y1253589D01*
X-1364305Y1257356D01*
X-1355247Y1261565D01*
X-1346402Y1266207D01*
X-1337792Y1271272D01*
X-1329436Y1276745D01*
X-1321355Y1282617D01*
X-1313567Y1288872D01*
X-1306090Y1295495D01*
X-1298942Y1302473D01*
X-1292139Y1309787D01*
X-1285698Y1317422D01*
X-1279633Y1325359D01*
X-1273958Y1333580D01*
X-1268688Y1342065D01*
X-1263833Y1350795D01*
X-1259406Y1359749D01*
X-1255417Y1368907D01*
X-1251875Y1378247D01*
X-1248788Y1387747D01*
X-1246164Y1397385D01*
X-1244008Y1407139D01*
X-1242327Y1416985D01*
X-1241122Y1426901D01*
X-1240399Y1436864D01*
X-1240158Y1446850D01*
X-413386Y1446851D02*
X-413627Y1456837D01*
X-414351Y1466800D01*
X-415555Y1476716D01*
X-417236Y1486562D01*
X-419392Y1496316D01*
X-422016Y1505954D01*
X-425103Y1515454D01*
X-428645Y1524794D01*
X-432634Y1533951D01*
X-437061Y1542906D01*
X-441916Y1551636D01*
X-447186Y1560121D01*
X-452861Y1568342D01*
X-458925Y1576279D01*
X-465367Y1583914D01*
X-472169Y1591228D01*
X-479317Y1598206D01*
X-486794Y1604830D01*
X-494582Y1611084D01*
X-502664Y1616956D01*
X-511019Y1622430D01*
X-519629Y1627494D01*
X-528474Y1632136D01*
X-537533Y1636345D01*
X-546784Y1640112D01*
X-556207Y1643428D01*
X-565779Y1646284D01*
X-575477Y1648674D01*
X-585280Y1650593D01*
X-595164Y1652037D01*
X-605107Y1653001D01*
X-615084Y1653483D01*
X-625073D01*
X-635050Y1653001D01*
X-644993Y1652037D01*
X-654877Y1650593D01*
X-664680Y1648674D01*
X-674378Y1646284D01*
X-683950Y1643428D01*
X-693373Y1640112D01*
X-702625Y1636345D01*
X-711683Y1632136D01*
X-720528Y1627494D01*
X-729138Y1622430D01*
X-737494Y1616956D01*
X-745575Y1611084D01*
X-753363Y1604829D01*
X-760840Y1598206D01*
X-767988Y1591228D01*
X-774791Y1583914D01*
X-781232Y1576279D01*
X-787297Y1568342D01*
X-792971Y1560121D01*
X-798242Y1551636D01*
X-803096Y1542906D01*
X-807523Y1533951D01*
X-811512Y1524794D01*
X-815054Y1515454D01*
X-818141Y1505954D01*
X-820765Y1496316D01*
X-822921Y1486562D01*
X-824602Y1476716D01*
X-825807Y1466800D01*
X-826530Y1456837D01*
X-826771Y1446851D01*
X-826530Y1436865D01*
X-825807Y1426902D01*
X-824603Y1416986D01*
X-822921Y1407140D01*
X-820765Y1397386D01*
X-818141Y1387748D01*
X-815054Y1378248D01*
X-811512Y1368908D01*
X-807523Y1359751D01*
X-803096Y1350796D01*
X-798242Y1342066D01*
X-792971Y1333581D01*
X-787297Y1325360D01*
X-781232Y1317423D01*
X-774791Y1309788D01*
X-767988Y1302474D01*
X-760840Y1295496D01*
X-753363Y1288872D01*
X-745575Y1282618D01*
X-737494Y1276746D01*
X-729139Y1271272D01*
X-720528Y1266208D01*
X-711684Y1261566D01*
X-702625Y1257357D01*
X-693373Y1253590D01*
X-683951Y1250274D01*
X-674379Y1247418D01*
X-664680Y1245028D01*
X-654877Y1243108D01*
X-644993Y1241665D01*
X-635051Y1240701D01*
X-625074Y1240218D01*
X-615085Y1240218D01*
X-605107Y1240701D01*
X-595165Y1241665D01*
X-585281Y1243108D01*
X-575478Y1245027D01*
X-565780Y1247418D01*
X-556208Y1250274D01*
X-546785Y1253589D01*
X-537534Y1257356D01*
X-528475Y1261565D01*
X-519630Y1266207D01*
X-511020Y1271272D01*
X-502664Y1276745D01*
X-494583Y1282617D01*
X-486795Y1288872D01*
X-479318Y1295495D01*
X-472170Y1302473D01*
X-465367Y1309787D01*
X-458926Y1317422D01*
X-452861Y1325359D01*
X-447187Y1333580D01*
X-441916Y1342065D01*
X-437062Y1350795D01*
X-432635Y1359749D01*
X-428645Y1368907D01*
X-425103Y1378247D01*
X-422016Y1387747D01*
X-419392Y1397385D01*
X-417237Y1407139D01*
X-415555Y1416985D01*
X-414351Y1426901D01*
X-413627Y1436864D01*
X-413386Y1446850D01*
X413386Y1446851D02*
X413145Y1456837D01*
X412421Y1466800D01*
X411217Y1476716D01*
X409535Y1486562D01*
X407380Y1496316D01*
X404756Y1505954D01*
X401669Y1515454D01*
X398127Y1524794D01*
X394138Y1533951D01*
X389711Y1542906D01*
X384856Y1551636D01*
X379586Y1560121D01*
X373911Y1568342D01*
X367846Y1576279D01*
X361405Y1583914D01*
X354602Y1591228D01*
X347454Y1598206D01*
X339978Y1604830D01*
X332189Y1611084D01*
X324108Y1616956D01*
X315753Y1622430D01*
X307143Y1627494D01*
X298298Y1632136D01*
X289239Y1636345D01*
X279988Y1640112D01*
X270565Y1643428D01*
X260993Y1646284D01*
X251294Y1648674D01*
X241491Y1650593D01*
X231607Y1652037D01*
X221665Y1653001D01*
X211688Y1653483D01*
X201699D01*
X191721Y1653001D01*
X181779Y1652037D01*
X171895Y1650593D01*
X162092Y1648674D01*
X152393Y1646284D01*
X142821Y1643428D01*
X133399Y1640112D01*
X124147Y1636345D01*
X115088Y1632136D01*
X106244Y1627494D01*
X97634Y1622430D01*
X89278Y1616956D01*
X81197Y1611084D01*
X73409Y1604829D01*
X65932Y1598206D01*
X58784Y1591228D01*
X51981Y1583914D01*
X45540Y1576279D01*
X39475Y1568342D01*
X33801Y1560121D01*
X28530Y1551636D01*
X23676Y1542906D01*
X19249Y1533951D01*
X15259Y1524794D01*
X11717Y1515454D01*
X8631Y1505954D01*
X6006Y1496316D01*
X3851Y1486562D01*
X2169Y1476716D01*
X965Y1466800D01*
X242Y1456837D01*
X0Y1446851D01*
X242Y1436865D01*
X965Y1426902D01*
X2169Y1416986D01*
X3851Y1407140D01*
X6006Y1397386D01*
X8630Y1387748D01*
X11717Y1378248D01*
X15259Y1368908D01*
X19249Y1359751D01*
X23676Y1350796D01*
X28530Y1342066D01*
X33801Y1333581D01*
X39475Y1325360D01*
X45540Y1317423D01*
X51981Y1309788D01*
X58784Y1302474D01*
X65932Y1295496D01*
X73409Y1288872D01*
X81197Y1282618D01*
X89278Y1276746D01*
X97633Y1271272D01*
X106243Y1266208D01*
X115088Y1261566D01*
X124147Y1257357D01*
X133398Y1253590D01*
X142821Y1250274D01*
X152393Y1247418D01*
X162092Y1245028D01*
X171894Y1243108D01*
X181779Y1241665D01*
X191721Y1240701D01*
X201698Y1240218D01*
X211687Y1240218D01*
X221664Y1240701D01*
X231607Y1241665D01*
X241491Y1243108D01*
X251293Y1245027D01*
X260992Y1247418D01*
X270564Y1250274D01*
X279987Y1253589D01*
X289238Y1257356D01*
X298297Y1261565D01*
X307142Y1266207D01*
X315752Y1271272D01*
X324107Y1276745D01*
X332189Y1282617D01*
X339977Y1288872D01*
X347454Y1295495D01*
X354602Y1302473D01*
X361404Y1309787D01*
X367846Y1317422D01*
X373911Y1325359D01*
X379585Y1333580D01*
X384856Y1342065D01*
X389710Y1350795D01*
X394137Y1359749D01*
X398127Y1368907D01*
X401669Y1378247D01*
X404755Y1387747D01*
X407380Y1397385D01*
X409535Y1407139D01*
X411217Y1416985D01*
X412421Y1426901D01*
X413145Y1436864D01*
X413386Y1446850D01*
X1240158Y1446851D02*
X1239917Y1456837D01*
X1239193Y1466800D01*
X1237989Y1476716D01*
X1236307Y1486562D01*
X1234152Y1496316D01*
X1231528Y1505954D01*
X1228441Y1515454D01*
X1224899Y1524794D01*
X1220909Y1533951D01*
X1216483Y1542906D01*
X1211628Y1551636D01*
X1206357Y1560121D01*
X1200683Y1568342D01*
X1194618Y1576279D01*
X1188177Y1583914D01*
X1181374Y1591228D01*
X1174226Y1598206D01*
X1166749Y1604830D01*
X1158961Y1611084D01*
X1150880Y1616956D01*
X1142524Y1622430D01*
X1133914Y1627494D01*
X1125070Y1632136D01*
X1116011Y1636345D01*
X1106759Y1640112D01*
X1097337Y1643428D01*
X1087765Y1646284D01*
X1078066Y1648674D01*
X1068263Y1650593D01*
X1058379Y1652037D01*
X1048437Y1653001D01*
X1038459Y1653483D01*
X1028470D01*
X1018493Y1653001D01*
X1008551Y1652037D01*
X998667Y1650593D01*
X988864Y1648674D01*
X979165Y1646284D01*
X969593Y1643428D01*
X960171Y1640112D01*
X950919Y1636345D01*
X941860Y1632136D01*
X933015Y1627494D01*
X924405Y1622430D01*
X916050Y1616956D01*
X907969Y1611084D01*
X900181Y1604829D01*
X892704Y1598206D01*
X885556Y1591228D01*
X878753Y1583914D01*
X872312Y1576279D01*
X866247Y1568342D01*
X860572Y1560121D01*
X855302Y1551636D01*
X850447Y1542906D01*
X846020Y1533951D01*
X842031Y1524794D01*
X838489Y1515454D01*
X835402Y1505954D01*
X832778Y1496316D01*
X830623Y1486562D01*
X828941Y1476716D01*
X827737Y1466800D01*
X827014Y1456837D01*
X826772Y1446851D01*
X827014Y1436865D01*
X827737Y1426902D01*
X828941Y1416986D01*
X830623Y1407140D01*
X832778Y1397386D01*
X835402Y1387748D01*
X838489Y1378248D01*
X842031Y1368908D01*
X846020Y1359751D01*
X850447Y1350796D01*
X855302Y1342066D01*
X860572Y1333581D01*
X866247Y1325360D01*
X872312Y1317423D01*
X878753Y1309788D01*
X885556Y1302474D01*
X892704Y1295496D01*
X900180Y1288872D01*
X907968Y1282618D01*
X916050Y1276746D01*
X924405Y1271272D01*
X933015Y1266208D01*
X941860Y1261566D01*
X950919Y1257357D01*
X960170Y1253590D01*
X969593Y1250274D01*
X979165Y1247418D01*
X988863Y1245028D01*
X998666Y1243108D01*
X1008550Y1241665D01*
X1018493Y1240701D01*
X1028470Y1240218D01*
X1038459Y1240218D01*
X1048436Y1240701D01*
X1058378Y1241665D01*
X1068263Y1243108D01*
X1078065Y1245027D01*
X1087764Y1247418D01*
X1097336Y1250274D01*
X1106759Y1253589D01*
X1116010Y1257356D01*
X1125069Y1261565D01*
X1133914Y1266207D01*
X1142524Y1271272D01*
X1150879Y1276745D01*
X1158960Y1282617D01*
X1166749Y1288872D01*
X1174226Y1295495D01*
X1181374Y1302473D01*
X1188176Y1309787D01*
X1194618Y1317422D01*
X1200682Y1325359D01*
X1206357Y1333580D01*
X1211628Y1342065D01*
X1216482Y1350795D01*
X1220909Y1359749D01*
X1224898Y1368907D01*
X1228440Y1378247D01*
X1231527Y1387747D01*
X1234151Y1397385D01*
X1236307Y1407139D01*
X1237989Y1416985D01*
X1239193Y1426901D01*
X1239917Y1436864D01*
X1240158Y1446850D01*
X-413386Y-1446850D02*
X-413627Y-1436864D01*
X-414351Y-1426902D01*
X-415555Y-1416986D01*
X-417236Y-1407139D01*
X-419392Y-1397386D01*
X-422016Y-1387747D01*
X-425103Y-1378247D01*
X-428645Y-1368908D01*
X-432634Y-1359750D01*
X-437061Y-1350795D01*
X-441916Y-1342065D01*
X-447186Y-1333580D01*
X-452861Y-1325359D01*
X-458925Y-1317422D01*
X-465367Y-1309788D01*
X-472169Y-1302473D01*
X-479317Y-1295496D01*
X-486794Y-1288872D01*
X-494582Y-1282617D01*
X-502664Y-1276745D01*
X-511019Y-1271271D01*
X-519629Y-1266207D01*
X-528474Y-1261565D01*
X-537533Y-1257356D01*
X-546784Y-1253589D01*
X-556207Y-1250274D01*
X-565779Y-1247418D01*
X-575477Y-1245027D01*
X-585280Y-1243108D01*
X-595164Y-1241665D01*
X-605107Y-1240700D01*
X-615084Y-1240218D01*
X-625073D01*
X-635050Y-1240700D01*
X-644993Y-1241665D01*
X-654877Y-1243108D01*
X-664680Y-1245027D01*
X-674378Y-1247418D01*
X-683950Y-1250274D01*
X-693373Y-1253589D01*
X-702625Y-1257356D01*
X-711683Y-1261565D01*
X-720528Y-1266207D01*
X-729138Y-1271272D01*
X-737494Y-1276746D01*
X-745575Y-1282617D01*
X-753363Y-1288872D01*
X-760840Y-1295496D01*
X-767988Y-1302473D01*
X-774791Y-1309788D01*
X-781232Y-1317422D01*
X-787297Y-1325360D01*
X-792971Y-1333580D01*
X-798242Y-1342065D01*
X-803096Y-1350795D01*
X-807523Y-1359750D01*
X-811512Y-1368908D01*
X-815054Y-1378247D01*
X-818141Y-1387747D01*
X-820765Y-1397386D01*
X-822921Y-1407139D01*
X-824602Y-1416986D01*
X-825807Y-1426902D01*
X-826530Y-1436864D01*
X-826771Y-1446850D01*
X-826530Y-1456836D01*
X-825807Y-1466799D01*
X-824603Y-1476715D01*
X-822921Y-1486562D01*
X-820765Y-1496315D01*
X-818141Y-1505953D01*
X-815054Y-1515453D01*
X-811512Y-1524793D01*
X-807523Y-1533951D01*
X-803096Y-1542905D01*
X-798242Y-1551635D01*
X-792971Y-1560120D01*
X-787297Y-1568341D01*
X-781232Y-1576278D01*
X-774791Y-1583913D01*
X-767988Y-1591227D01*
X-760840Y-1598205D01*
X-753363Y-1604829D01*
X-745575Y-1611084D01*
X-737494Y-1616955D01*
X-729139Y-1622429D01*
X-720528Y-1627493D01*
X-711684Y-1632135D01*
X-702625Y-1636345D01*
X-693373Y-1640111D01*
X-683951Y-1643427D01*
X-674379Y-1646283D01*
X-664680Y-1648674D01*
X-654877Y-1650593D01*
X-644993Y-1652036D01*
X-635051Y-1653000D01*
X-625074Y-1653483D01*
X-615085Y-1653483D01*
X-605107Y-1653000D01*
X-595165Y-1652036D01*
X-585281Y-1650593D01*
X-575478Y-1648674D01*
X-565780Y-1646284D01*
X-556208Y-1643427D01*
X-546785Y-1640112D01*
X-537534Y-1636345D01*
X-528475Y-1632136D01*
X-519630Y-1627494D01*
X-511020Y-1622430D01*
X-502664Y-1616956D01*
X-494583Y-1611084D01*
X-486795Y-1604830D01*
X-479318Y-1598206D01*
X-472170Y-1591228D01*
X-465367Y-1583914D01*
X-458926Y-1576279D01*
X-452861Y-1568342D01*
X-447187Y-1560121D01*
X-441916Y-1551636D01*
X-437062Y-1542906D01*
X-432635Y-1533952D01*
X-428645Y-1524794D01*
X-425103Y-1515454D01*
X-422016Y-1505954D01*
X-419392Y-1496316D01*
X-417237Y-1486563D01*
X-415555Y-1476716D01*
X-414351Y-1466800D01*
X-413627Y-1456838D01*
X-413386Y-1446852D01*
X413386Y-1446850D02*
X413145Y-1436864D01*
X412421Y-1426902D01*
X411217Y-1416986D01*
X409535Y-1407139D01*
X407380Y-1397386D01*
X404756Y-1387747D01*
X401669Y-1378247D01*
X398127Y-1368908D01*
X394138Y-1359750D01*
X389711Y-1350795D01*
X384856Y-1342065D01*
X379586Y-1333580D01*
X373911Y-1325359D01*
X367846Y-1317422D01*
X361405Y-1309788D01*
X354602Y-1302473D01*
X347454Y-1295496D01*
X339978Y-1288872D01*
X332189Y-1282617D01*
X324108Y-1276745D01*
X315753Y-1271271D01*
X307143Y-1266207D01*
X298298Y-1261565D01*
X289239Y-1257356D01*
X279988Y-1253589D01*
X270565Y-1250274D01*
X260993Y-1247418D01*
X251294Y-1245027D01*
X241491Y-1243108D01*
X231607Y-1241665D01*
X221665Y-1240700D01*
X211688Y-1240218D01*
X201699D01*
X191721Y-1240700D01*
X181779Y-1241665D01*
X171895Y-1243108D01*
X162092Y-1245027D01*
X152393Y-1247418D01*
X142821Y-1250274D01*
X133399Y-1253589D01*
X124147Y-1257356D01*
X115088Y-1261565D01*
X106244Y-1266207D01*
X97634Y-1271272D01*
X89278Y-1276746D01*
X81197Y-1282617D01*
X73409Y-1288872D01*
X65932Y-1295496D01*
X58784Y-1302473D01*
X51981Y-1309788D01*
X45540Y-1317422D01*
X39475Y-1325360D01*
X33801Y-1333580D01*
X28530Y-1342065D01*
X23676Y-1350795D01*
X19249Y-1359750D01*
X15259Y-1368908D01*
X11717Y-1378247D01*
X8631Y-1387747D01*
X6006Y-1397386D01*
X3851Y-1407139D01*
X2169Y-1416986D01*
X965Y-1426902D01*
X242Y-1436864D01*
X0Y-1446850D01*
X242Y-1456836D01*
X965Y-1466799D01*
X2169Y-1476715D01*
X3851Y-1486562D01*
X6006Y-1496315D01*
X8630Y-1505953D01*
X11717Y-1515453D01*
X15259Y-1524793D01*
X19249Y-1533951D01*
X23676Y-1542905D01*
X28530Y-1551635D01*
X33801Y-1560120D01*
X39475Y-1568341D01*
X45540Y-1576278D01*
X51981Y-1583913D01*
X58784Y-1591227D01*
X65932Y-1598205D01*
X73409Y-1604829D01*
X81197Y-1611084D01*
X89278Y-1616955D01*
X97633Y-1622429D01*
X106243Y-1627493D01*
X115088Y-1632135D01*
X124147Y-1636345D01*
X133398Y-1640111D01*
X142821Y-1643427D01*
X152393Y-1646283D01*
X162092Y-1648674D01*
X171894Y-1650593D01*
X181779Y-1652036D01*
X191721Y-1653000D01*
X201698Y-1653483D01*
X211687Y-1653483D01*
X221664Y-1653000D01*
X231607Y-1652036D01*
X241491Y-1650593D01*
X251293Y-1648674D01*
X260992Y-1646284D01*
X270564Y-1643427D01*
X279987Y-1640112D01*
X289238Y-1636345D01*
X298297Y-1632136D01*
X307142Y-1627494D01*
X315752Y-1622430D01*
X324107Y-1616956D01*
X332189Y-1611084D01*
X339977Y-1604830D01*
X347454Y-1598206D01*
X354602Y-1591228D01*
X361404Y-1583914D01*
X367846Y-1576279D01*
X373911Y-1568342D01*
X379585Y-1560121D01*
X384856Y-1551636D01*
X389710Y-1542906D01*
X394137Y-1533952D01*
X398127Y-1524794D01*
X401669Y-1515454D01*
X404755Y-1505954D01*
X407380Y-1496316D01*
X409535Y-1486563D01*
X411217Y-1476716D01*
X412421Y-1466800D01*
X413145Y-1456838D01*
X413386Y-1446852D01*
X1240158Y-1446850D02*
X1239917Y-1436864D01*
X1239193Y-1426902D01*
X1237989Y-1416986D01*
X1236307Y-1407139D01*
X1234152Y-1397386D01*
X1231528Y-1387747D01*
X1228441Y-1378247D01*
X1224899Y-1368908D01*
X1220909Y-1359750D01*
X1216483Y-1350795D01*
X1211628Y-1342065D01*
X1206357Y-1333580D01*
X1200683Y-1325359D01*
X1194618Y-1317422D01*
X1188177Y-1309788D01*
X1181374Y-1302473D01*
X1174226Y-1295496D01*
X1166749Y-1288872D01*
X1158961Y-1282617D01*
X1150880Y-1276745D01*
X1142524Y-1271271D01*
X1133914Y-1266207D01*
X1125070Y-1261565D01*
X1116011Y-1257356D01*
X1106759Y-1253589D01*
X1097337Y-1250274D01*
X1087765Y-1247418D01*
X1078066Y-1245027D01*
X1068263Y-1243108D01*
X1058379Y-1241665D01*
X1048437Y-1240700D01*
X1038459Y-1240218D01*
X1028470D01*
X1018493Y-1240700D01*
X1008551Y-1241665D01*
X998667Y-1243108D01*
X988864Y-1245027D01*
X979165Y-1247418D01*
X969593Y-1250274D01*
X960171Y-1253589D01*
X950919Y-1257356D01*
X941860Y-1261565D01*
X933015Y-1266207D01*
X924405Y-1271272D01*
X916050Y-1276746D01*
X907969Y-1282617D01*
X900181Y-1288872D01*
X892704Y-1295496D01*
X885556Y-1302473D01*
X878753Y-1309788D01*
X872312Y-1317422D01*
X866247Y-1325360D01*
X860572Y-1333580D01*
X855302Y-1342065D01*
X850447Y-1350795D01*
X846020Y-1359750D01*
X842031Y-1368908D01*
X838489Y-1378247D01*
X835402Y-1387747D01*
X832778Y-1397386D01*
X830623Y-1407139D01*
X828941Y-1416986D01*
X827737Y-1426902D01*
X827014Y-1436864D01*
X826772Y-1446850D01*
X827014Y-1456836D01*
X827737Y-1466799D01*
X828941Y-1476715D01*
X830623Y-1486562D01*
X832778Y-1496315D01*
X835402Y-1505953D01*
X838489Y-1515453D01*
X842031Y-1524793D01*
X846020Y-1533951D01*
X850447Y-1542905D01*
X855302Y-1551635D01*
X860572Y-1560120D01*
X866247Y-1568341D01*
X872312Y-1576278D01*
X878753Y-1583913D01*
X885556Y-1591227D01*
X892704Y-1598205D01*
X900180Y-1604829D01*
X907968Y-1611084D01*
X916050Y-1616955D01*
X924405Y-1622429D01*
X933015Y-1627493D01*
X941860Y-1632135D01*
X950919Y-1636345D01*
X960170Y-1640111D01*
X969593Y-1643427D01*
X979165Y-1646283D01*
X988863Y-1648674D01*
X998666Y-1650593D01*
X1008550Y-1652036D01*
X1018493Y-1653000D01*
X1028470Y-1653483D01*
X1038459Y-1653483D01*
X1048436Y-1653000D01*
X1058378Y-1652036D01*
X1068263Y-1650593D01*
X1078065Y-1648674D01*
X1087764Y-1646284D01*
X1097336Y-1643427D01*
X1106759Y-1640112D01*
X1116010Y-1636345D01*
X1125069Y-1632136D01*
X1133914Y-1627494D01*
X1142524Y-1622430D01*
X1150879Y-1616956D01*
X1158960Y-1611084D01*
X1166749Y-1604830D01*
X1174226Y-1598206D01*
X1181374Y-1591228D01*
X1188176Y-1583914D01*
X1194618Y-1576279D01*
X1200682Y-1568342D01*
X1206357Y-1560121D01*
X1211628Y-1551636D01*
X1216482Y-1542906D01*
X1220909Y-1533952D01*
X1224898Y-1524794D01*
X1228440Y-1515454D01*
X1231527Y-1505954D01*
X1234151Y-1496316D01*
X1236307Y-1486563D01*
X1237989Y-1476716D01*
X1239193Y-1466800D01*
X1239917Y-1456838D01*
X1240158Y-1446852D01*
X-1240158Y-1033465D02*
X-1240399Y-1023479D01*
X-1241122Y-1013516D01*
X-1242326Y-1003600D01*
X-1244008Y-993753D01*
X-1246164Y-984000D01*
X-1248788Y-974362D01*
X-1251874Y-964861D01*
X-1255417Y-955522D01*
X-1259406Y-946364D01*
X-1263833Y-937409D01*
X-1268687Y-928679D01*
X-1273958Y-920194D01*
X-1279632Y-911973D01*
X-1285697Y-904037D01*
X-1292139Y-896402D01*
X-1298941Y-889087D01*
X-1306089Y-882110D01*
X-1313566Y-875486D01*
X-1321354Y-869231D01*
X-1329435Y-863360D01*
X-1337791Y-857885D01*
X-1346401Y-852822D01*
X-1355246Y-848179D01*
X-1364304Y-843970D01*
X-1373556Y-840203D01*
X-1382979Y-836888D01*
X-1392551Y-834032D01*
X-1402249Y-831641D01*
X-1412052Y-829722D01*
X-1421936Y-828279D01*
X-1431879Y-827314D01*
X-1441856Y-826832D01*
X-1451845D01*
X-1461822Y-827315D01*
X-1471764Y-828279D01*
X-1481649Y-829722D01*
X-1491451Y-831641D01*
X-1501150Y-834032D01*
X-1510722Y-836888D01*
X-1520145Y-840203D01*
X-1529396Y-843970D01*
X-1538455Y-848179D01*
X-1547300Y-852822D01*
X-1555910Y-857886D01*
X-1564265Y-863360D01*
X-1572347Y-869231D01*
X-1580135Y-875486D01*
X-1587612Y-882110D01*
X-1594760Y-889087D01*
X-1601562Y-896402D01*
X-1608004Y-904037D01*
X-1614069Y-911974D01*
X-1619743Y-920194D01*
X-1625013Y-928680D01*
X-1629868Y-937410D01*
X-1634295Y-946364D01*
X-1638284Y-955522D01*
X-1641826Y-964861D01*
X-1644913Y-974362D01*
X-1647537Y-984000D01*
X-1649693Y-993753D01*
X-1651374Y-1003600D01*
X-1652578Y-1013516D01*
X-1653302Y-1023478D01*
X-1653543Y-1033464D01*
X-1653302Y-1043450D01*
X-1652578Y-1053413D01*
X-1651374Y-1063329D01*
X-1649693Y-1073176D01*
X-1647537Y-1082929D01*
X-1644913Y-1092567D01*
X-1641826Y-1102067D01*
X-1638284Y-1111407D01*
X-1634295Y-1120565D01*
X-1629868Y-1129519D01*
X-1625014Y-1138249D01*
X-1619743Y-1146735D01*
X-1614069Y-1154955D01*
X-1608004Y-1162892D01*
X-1601562Y-1170527D01*
X-1594760Y-1177842D01*
X-1587612Y-1184819D01*
X-1580135Y-1191443D01*
X-1572347Y-1197698D01*
X-1564266Y-1203569D01*
X-1555910Y-1209043D01*
X-1547300Y-1214107D01*
X-1538455Y-1218749D01*
X-1529397Y-1222959D01*
X-1520145Y-1226726D01*
X-1510723Y-1230041D01*
X-1501151Y-1232897D01*
X-1491452Y-1235288D01*
X-1481649Y-1237207D01*
X-1471765Y-1238650D01*
X-1461823Y-1239614D01*
X-1451845Y-1240097D01*
X-1441857Y-1240097D01*
X-1431879Y-1239614D01*
X-1421937Y-1238650D01*
X-1412053Y-1237207D01*
X-1402250Y-1235288D01*
X-1392551Y-1232898D01*
X-1382979Y-1230041D01*
X-1373557Y-1226726D01*
X-1364305Y-1222959D01*
X-1355247Y-1218750D01*
X-1346402Y-1214108D01*
X-1337792Y-1209044D01*
X-1329436Y-1203570D01*
X-1321355Y-1197699D01*
X-1313567Y-1191444D01*
X-1306090Y-1184820D01*
X-1298942Y-1177842D01*
X-1292139Y-1170528D01*
X-1285698Y-1162893D01*
X-1279633Y-1154956D01*
X-1273958Y-1146736D01*
X-1268688Y-1138250D01*
X-1263833Y-1129520D01*
X-1259406Y-1120566D01*
X-1255417Y-1111408D01*
X-1251875Y-1102069D01*
X-1248788Y-1092569D01*
X-1246164Y-1082930D01*
X-1244008Y-1073177D01*
X-1242327Y-1063331D01*
X-1241122Y-1053414D01*
X-1240399Y-1043452D01*
X-1240158Y-1033466D01*
X-413386Y-1033465D02*
X-413627Y-1023479D01*
X-414351Y-1013516D01*
X-415555Y-1003600D01*
X-417236Y-993753D01*
X-419392Y-984000D01*
X-422016Y-974362D01*
X-425103Y-964861D01*
X-428645Y-955522D01*
X-432634Y-946364D01*
X-437061Y-937409D01*
X-441916Y-928679D01*
X-447186Y-920194D01*
X-452861Y-911973D01*
X-458925Y-904037D01*
X-465367Y-896402D01*
X-472169Y-889087D01*
X-479317Y-882110D01*
X-486794Y-875486D01*
X-494582Y-869231D01*
X-502664Y-863360D01*
X-511019Y-857885D01*
X-519629Y-852822D01*
X-528474Y-848179D01*
X-537533Y-843970D01*
X-546784Y-840203D01*
X-556207Y-836888D01*
X-565779Y-834032D01*
X-575477Y-831641D01*
X-585280Y-829722D01*
X-595164Y-828279D01*
X-605107Y-827314D01*
X-615084Y-826832D01*
X-625073D01*
X-635050Y-827315D01*
X-644993Y-828279D01*
X-654877Y-829722D01*
X-664680Y-831641D01*
X-674378Y-834032D01*
X-683950Y-836888D01*
X-693373Y-840203D01*
X-702625Y-843970D01*
X-711683Y-848179D01*
X-720528Y-852822D01*
X-729138Y-857886D01*
X-737494Y-863360D01*
X-745575Y-869231D01*
X-753363Y-875486D01*
X-760840Y-882110D01*
X-767988Y-889087D01*
X-774791Y-896402D01*
X-781232Y-904037D01*
X-787297Y-911974D01*
X-792971Y-920194D01*
X-798242Y-928680D01*
X-803096Y-937410D01*
X-807523Y-946364D01*
X-811512Y-955522D01*
X-815054Y-964861D01*
X-818141Y-974362D01*
X-820765Y-984000D01*
X-822921Y-993753D01*
X-824602Y-1003600D01*
X-825807Y-1013516D01*
X-826530Y-1023478D01*
X-826771Y-1033464D01*
X-826530Y-1043450D01*
X-825807Y-1053413D01*
X-824603Y-1063329D01*
X-822921Y-1073176D01*
X-820765Y-1082929D01*
X-818141Y-1092567D01*
X-815054Y-1102067D01*
X-811512Y-1111407D01*
X-807523Y-1120565D01*
X-803096Y-1129519D01*
X-798242Y-1138249D01*
X-792971Y-1146735D01*
X-787297Y-1154955D01*
X-781232Y-1162892D01*
X-774791Y-1170527D01*
X-767988Y-1177842D01*
X-760840Y-1184819D01*
X-753363Y-1191443D01*
X-745575Y-1197698D01*
X-737494Y-1203569D01*
X-729139Y-1209043D01*
X-720528Y-1214107D01*
X-711684Y-1218749D01*
X-702625Y-1222959D01*
X-693373Y-1226726D01*
X-683951Y-1230041D01*
X-674379Y-1232897D01*
X-664680Y-1235288D01*
X-654877Y-1237207D01*
X-644993Y-1238650D01*
X-635051Y-1239614D01*
X-625074Y-1240097D01*
X-615085Y-1240097D01*
X-605107Y-1239614D01*
X-595165Y-1238650D01*
X-585281Y-1237207D01*
X-575478Y-1235288D01*
X-565780Y-1232898D01*
X-556208Y-1230041D01*
X-546785Y-1226726D01*
X-537534Y-1222959D01*
X-528475Y-1218750D01*
X-519630Y-1214108D01*
X-511020Y-1209044D01*
X-502664Y-1203570D01*
X-494583Y-1197699D01*
X-486795Y-1191444D01*
X-479318Y-1184820D01*
X-472170Y-1177842D01*
X-465367Y-1170528D01*
X-458926Y-1162893D01*
X-452861Y-1154956D01*
X-447187Y-1146736D01*
X-441916Y-1138250D01*
X-437062Y-1129520D01*
X-432635Y-1120566D01*
X-428645Y-1111408D01*
X-425103Y-1102069D01*
X-422016Y-1092569D01*
X-419392Y-1082930D01*
X-417237Y-1073177D01*
X-415555Y-1063331D01*
X-414351Y-1053414D01*
X-413627Y-1043452D01*
X-413386Y-1033466D01*
X413386Y-1033465D02*
X413145Y-1023479D01*
X412421Y-1013516D01*
X411217Y-1003600D01*
X409535Y-993753D01*
X407380Y-984000D01*
X404756Y-974362D01*
X401669Y-964861D01*
X398127Y-955522D01*
X394138Y-946364D01*
X389711Y-937409D01*
X384856Y-928679D01*
X379586Y-920194D01*
X373911Y-911973D01*
X367846Y-904037D01*
X361405Y-896402D01*
X354602Y-889087D01*
X347454Y-882110D01*
X339978Y-875486D01*
X332189Y-869231D01*
X324108Y-863360D01*
X315753Y-857885D01*
X307143Y-852822D01*
X298298Y-848179D01*
X289239Y-843970D01*
X279988Y-840203D01*
X270565Y-836888D01*
X260993Y-834032D01*
X251294Y-831641D01*
X241491Y-829722D01*
X231607Y-828279D01*
X221665Y-827314D01*
X211688Y-826832D01*
X201699D01*
X191721Y-827315D01*
X181779Y-828279D01*
X171895Y-829722D01*
X162092Y-831641D01*
X152393Y-834032D01*
X142821Y-836888D01*
X133399Y-840203D01*
X124147Y-843970D01*
X115088Y-848179D01*
X106244Y-852822D01*
X97634Y-857886D01*
X89278Y-863360D01*
X81197Y-869231D01*
X73409Y-875486D01*
X65932Y-882110D01*
X58784Y-889087D01*
X51981Y-896402D01*
X45540Y-904037D01*
X39475Y-911974D01*
X33801Y-920194D01*
X28530Y-928680D01*
X23676Y-937410D01*
X19249Y-946364D01*
X15259Y-955522D01*
X11717Y-964861D01*
X8631Y-974362D01*
X6006Y-984000D01*
X3851Y-993753D01*
X2169Y-1003600D01*
X965Y-1013516D01*
X242Y-1023478D01*
X0Y-1033464D01*
X242Y-1043450D01*
X965Y-1053413D01*
X2169Y-1063329D01*
X3851Y-1073176D01*
X6006Y-1082929D01*
X8630Y-1092567D01*
X11717Y-1102067D01*
X15259Y-1111407D01*
X19249Y-1120565D01*
X23676Y-1129519D01*
X28530Y-1138249D01*
X33801Y-1146735D01*
X39475Y-1154955D01*
X45540Y-1162892D01*
X51981Y-1170527D01*
X58784Y-1177842D01*
X65932Y-1184819D01*
X73409Y-1191443D01*
X81197Y-1197698D01*
X89278Y-1203569D01*
X97633Y-1209043D01*
X106243Y-1214107D01*
X115088Y-1218749D01*
X124147Y-1222959D01*
X133398Y-1226726D01*
X142821Y-1230041D01*
X152393Y-1232897D01*
X162092Y-1235288D01*
X171894Y-1237207D01*
X181779Y-1238650D01*
X191721Y-1239614D01*
X201698Y-1240097D01*
X211687Y-1240097D01*
X221664Y-1239614D01*
X231607Y-1238650D01*
X241491Y-1237207D01*
X251293Y-1235288D01*
X260992Y-1232898D01*
X270564Y-1230041D01*
X279987Y-1226726D01*
X289238Y-1222959D01*
X298297Y-1218750D01*
X307142Y-1214108D01*
X315752Y-1209044D01*
X324107Y-1203570D01*
X332189Y-1197699D01*
X339977Y-1191444D01*
X347454Y-1184820D01*
X354602Y-1177842D01*
X361404Y-1170528D01*
X367846Y-1162893D01*
X373911Y-1154956D01*
X379585Y-1146736D01*
X384856Y-1138250D01*
X389710Y-1129520D01*
X394137Y-1120566D01*
X398127Y-1111408D01*
X401669Y-1102069D01*
X404755Y-1092569D01*
X407380Y-1082930D01*
X409535Y-1073177D01*
X411217Y-1063331D01*
X412421Y-1053414D01*
X413145Y-1043452D01*
X413386Y-1033466D01*
X1240158Y-1033465D02*
X1239917Y-1023479D01*
X1239193Y-1013516D01*
X1237989Y-1003600D01*
X1236307Y-993753D01*
X1234152Y-984000D01*
X1231528Y-974362D01*
X1228441Y-964861D01*
X1224899Y-955522D01*
X1220909Y-946364D01*
X1216483Y-937409D01*
X1211628Y-928679D01*
X1206357Y-920194D01*
X1200683Y-911973D01*
X1194618Y-904037D01*
X1188177Y-896402D01*
X1181374Y-889087D01*
X1174226Y-882110D01*
X1166749Y-875486D01*
X1158961Y-869231D01*
X1150880Y-863360D01*
X1142524Y-857885D01*
X1133914Y-852822D01*
X1125070Y-848179D01*
X1116011Y-843970D01*
X1106759Y-840203D01*
X1097337Y-836888D01*
X1087765Y-834032D01*
X1078066Y-831641D01*
X1068263Y-829722D01*
X1058379Y-828279D01*
X1048437Y-827314D01*
X1038459Y-826832D01*
X1028470D01*
X1018493Y-827315D01*
X1008551Y-828279D01*
X998667Y-829722D01*
X988864Y-831641D01*
X979165Y-834032D01*
X969593Y-836888D01*
X960171Y-840203D01*
X950919Y-843970D01*
X941860Y-848179D01*
X933015Y-852822D01*
X924405Y-857886D01*
X916050Y-863360D01*
X907969Y-869231D01*
X900181Y-875486D01*
X892704Y-882110D01*
X885556Y-889087D01*
X878753Y-896402D01*
X872312Y-904037D01*
X866247Y-911974D01*
X860572Y-920194D01*
X855302Y-928680D01*
X850447Y-937410D01*
X846020Y-946364D01*
X842031Y-955522D01*
X838489Y-964861D01*
X835402Y-974362D01*
X832778Y-984000D01*
X830623Y-993753D01*
X828941Y-1003600D01*
X827737Y-1013516D01*
X827014Y-1023478D01*
X826772Y-1033464D01*
X827014Y-1043450D01*
X827737Y-1053413D01*
X828941Y-1063329D01*
X830623Y-1073176D01*
X832778Y-1082929D01*
X835402Y-1092567D01*
X838489Y-1102067D01*
X842031Y-1111407D01*
X846020Y-1120565D01*
X850447Y-1129519D01*
X855302Y-1138249D01*
X860572Y-1146735D01*
X866247Y-1154955D01*
X872312Y-1162892D01*
X878753Y-1170527D01*
X885556Y-1177842D01*
X892704Y-1184819D01*
X900180Y-1191443D01*
X907968Y-1197698D01*
X916050Y-1203569D01*
X924405Y-1209043D01*
X933015Y-1214107D01*
X941860Y-1218749D01*
X950919Y-1222959D01*
X960170Y-1226726D01*
X969593Y-1230041D01*
X979165Y-1232897D01*
X988863Y-1235288D01*
X998666Y-1237207D01*
X1008550Y-1238650D01*
X1018493Y-1239614D01*
X1028470Y-1240097D01*
X1038459Y-1240097D01*
X1048436Y-1239614D01*
X1058378Y-1238650D01*
X1068263Y-1237207D01*
X1078065Y-1235288D01*
X1087764Y-1232898D01*
X1097336Y-1230041D01*
X1106759Y-1226726D01*
X1116010Y-1222959D01*
X1125069Y-1218750D01*
X1133914Y-1214108D01*
X1142524Y-1209044D01*
X1150879Y-1203570D01*
X1158960Y-1197699D01*
X1166749Y-1191444D01*
X1174226Y-1184820D01*
X1181374Y-1177842D01*
X1188176Y-1170528D01*
X1194618Y-1162893D01*
X1200682Y-1154956D01*
X1206357Y-1146736D01*
X1211628Y-1138250D01*
X1216482Y-1129520D01*
X1220909Y-1120566D01*
X1224898Y-1111408D01*
X1228440Y-1102069D01*
X1231527Y-1092569D01*
X1234151Y-1082930D01*
X1236307Y-1073177D01*
X1237989Y-1063331D01*
X1239193Y-1053414D01*
X1239917Y-1043452D01*
X1240158Y-1033466D01*
X-1240158Y-620079D02*
X-1240399Y-610093D01*
X-1241122Y-600130D01*
X-1242326Y-590214D01*
X-1244008Y-580367D01*
X-1246164Y-570614D01*
X-1248788Y-560976D01*
X-1251874Y-551476D01*
X-1255417Y-542136D01*
X-1259406Y-532978D01*
X-1263833Y-524024D01*
X-1268687Y-515294D01*
X-1273958Y-506808D01*
X-1279632Y-498588D01*
X-1285697Y-490651D01*
X-1292139Y-483016D01*
X-1298941Y-475701D01*
X-1306089Y-468724D01*
X-1313566Y-462100D01*
X-1321354Y-455845D01*
X-1329435Y-449974D01*
X-1337791Y-444500D01*
X-1346401Y-439436D01*
X-1355246Y-434793D01*
X-1364304Y-430584D01*
X-1373556Y-426817D01*
X-1382979Y-423502D01*
X-1392551Y-420646D01*
X-1402249Y-418255D01*
X-1412052Y-416336D01*
X-1421936Y-414893D01*
X-1431879Y-413929D01*
X-1441856Y-413446D01*
X-1451845D01*
X-1461822Y-413929D01*
X-1471764Y-414893D01*
X-1481649Y-416336D01*
X-1491451Y-418255D01*
X-1501150Y-420646D01*
X-1510722Y-423502D01*
X-1520145Y-426817D01*
X-1529396Y-430584D01*
X-1538455Y-434794D01*
X-1547300Y-439436D01*
X-1555910Y-444500D01*
X-1564265Y-449974D01*
X-1572347Y-455845D01*
X-1580135Y-462100D01*
X-1587612Y-468724D01*
X-1594760Y-475701D01*
X-1601562Y-483016D01*
X-1608004Y-490651D01*
X-1614069Y-498588D01*
X-1619743Y-506808D01*
X-1625013Y-515294D01*
X-1629868Y-524024D01*
X-1634295Y-532978D01*
X-1638284Y-542136D01*
X-1641826Y-551476D01*
X-1644913Y-560976D01*
X-1647537Y-570614D01*
X-1649693Y-580367D01*
X-1651374Y-590214D01*
X-1652578Y-600130D01*
X-1653302Y-610092D01*
X-1653543Y-620078D01*
X-1653302Y-630064D01*
X-1652578Y-640027D01*
X-1651374Y-649943D01*
X-1649693Y-659790D01*
X-1647537Y-669543D01*
X-1644913Y-679181D01*
X-1641826Y-688681D01*
X-1638284Y-698021D01*
X-1634295Y-707179D01*
X-1629868Y-716133D01*
X-1625014Y-724863D01*
X-1619743Y-733349D01*
X-1614069Y-741569D01*
X-1608004Y-749506D01*
X-1601562Y-757141D01*
X-1594760Y-764456D01*
X-1587612Y-771433D01*
X-1580135Y-778057D01*
X-1572347Y-784312D01*
X-1564266Y-790183D01*
X-1555910Y-795657D01*
X-1547300Y-800721D01*
X-1538455Y-805364D01*
X-1529397Y-809573D01*
X-1520145Y-813340D01*
X-1510723Y-816655D01*
X-1501151Y-819511D01*
X-1491452Y-821902D01*
X-1481649Y-823821D01*
X-1471765Y-825264D01*
X-1461823Y-826229D01*
X-1451845Y-826711D01*
X-1441857Y-826711D01*
X-1431879Y-826229D01*
X-1421937Y-825265D01*
X-1412053Y-823821D01*
X-1402250Y-821902D01*
X-1392551Y-819512D01*
X-1382979Y-816655D01*
X-1373557Y-813340D01*
X-1364305Y-809573D01*
X-1355247Y-805364D01*
X-1346402Y-800722D01*
X-1337792Y-795658D01*
X-1329436Y-790184D01*
X-1321355Y-784313D01*
X-1313567Y-778058D01*
X-1306090Y-771434D01*
X-1298942Y-764457D01*
X-1292139Y-757142D01*
X-1285698Y-749507D01*
X-1279633Y-741570D01*
X-1273958Y-733350D01*
X-1268688Y-724865D01*
X-1263833Y-716135D01*
X-1259406Y-707180D01*
X-1255417Y-698022D01*
X-1251875Y-688683D01*
X-1248788Y-679183D01*
X-1246164Y-669544D01*
X-1244008Y-659791D01*
X-1242327Y-649945D01*
X-1241122Y-640029D01*
X-1240399Y-630066D01*
X-1240158Y-620080D01*
X-413386Y-620079D02*
X-413627Y-610093D01*
X-414351Y-600130D01*
X-415555Y-590214D01*
X-417236Y-580367D01*
X-419392Y-570614D01*
X-422016Y-560976D01*
X-425103Y-551476D01*
X-428645Y-542136D01*
X-432634Y-532978D01*
X-437061Y-524024D01*
X-441916Y-515294D01*
X-447186Y-506808D01*
X-452861Y-498588D01*
X-458925Y-490651D01*
X-465367Y-483016D01*
X-472169Y-475701D01*
X-479317Y-468724D01*
X-486794Y-462100D01*
X-494582Y-455845D01*
X-502664Y-449974D01*
X-511019Y-444500D01*
X-519629Y-439436D01*
X-528474Y-434793D01*
X-537533Y-430584D01*
X-546784Y-426817D01*
X-556207Y-423502D01*
X-565779Y-420646D01*
X-575477Y-418255D01*
X-585280Y-416336D01*
X-595164Y-414893D01*
X-605107Y-413929D01*
X-615084Y-413446D01*
X-625073D01*
X-635050Y-413929D01*
X-644993Y-414893D01*
X-654877Y-416336D01*
X-664680Y-418255D01*
X-674378Y-420646D01*
X-683950Y-423502D01*
X-693373Y-426817D01*
X-702625Y-430584D01*
X-711683Y-434794D01*
X-720528Y-439436D01*
X-729138Y-444500D01*
X-737494Y-449974D01*
X-745575Y-455845D01*
X-753363Y-462100D01*
X-760840Y-468724D01*
X-767988Y-475701D01*
X-774791Y-483016D01*
X-781232Y-490651D01*
X-787297Y-498588D01*
X-792971Y-506808D01*
X-798242Y-515294D01*
X-803096Y-524024D01*
X-807523Y-532978D01*
X-811512Y-542136D01*
X-815054Y-551476D01*
X-818141Y-560976D01*
X-820765Y-570614D01*
X-822921Y-580367D01*
X-824602Y-590214D01*
X-825807Y-600130D01*
X-826530Y-610092D01*
X-826771Y-620078D01*
X-826530Y-630064D01*
X-825807Y-640027D01*
X-824603Y-649943D01*
X-822921Y-659790D01*
X-820765Y-669543D01*
X-818141Y-679181D01*
X-815054Y-688681D01*
X-811512Y-698021D01*
X-807523Y-707179D01*
X-803096Y-716133D01*
X-798242Y-724863D01*
X-792971Y-733349D01*
X-787297Y-741569D01*
X-781232Y-749506D01*
X-774791Y-757141D01*
X-767988Y-764456D01*
X-760840Y-771433D01*
X-753363Y-778057D01*
X-745575Y-784312D01*
X-737494Y-790183D01*
X-729139Y-795657D01*
X-720528Y-800721D01*
X-711684Y-805364D01*
X-702625Y-809573D01*
X-693373Y-813340D01*
X-683951Y-816655D01*
X-674379Y-819511D01*
X-664680Y-821902D01*
X-654877Y-823821D01*
X-644993Y-825264D01*
X-635051Y-826229D01*
X-625074Y-826711D01*
X-615085Y-826711D01*
X-605107Y-826229D01*
X-595165Y-825265D01*
X-585281Y-823821D01*
X-575478Y-821902D01*
X-565780Y-819512D01*
X-556208Y-816655D01*
X-546785Y-813340D01*
X-537534Y-809573D01*
X-528475Y-805364D01*
X-519630Y-800722D01*
X-511020Y-795658D01*
X-502664Y-790184D01*
X-494583Y-784313D01*
X-486795Y-778058D01*
X-479318Y-771434D01*
X-472170Y-764457D01*
X-465367Y-757142D01*
X-458926Y-749507D01*
X-452861Y-741570D01*
X-447187Y-733350D01*
X-441916Y-724865D01*
X-437062Y-716135D01*
X-432635Y-707180D01*
X-428645Y-698022D01*
X-425103Y-688683D01*
X-422016Y-679183D01*
X-419392Y-669544D01*
X-417237Y-659791D01*
X-415555Y-649945D01*
X-414351Y-640029D01*
X-413627Y-630066D01*
X-413386Y-620080D01*
X413386Y-620079D02*
X413145Y-610093D01*
X412421Y-600130D01*
X411217Y-590214D01*
X409535Y-580367D01*
X407380Y-570614D01*
X404756Y-560976D01*
X401669Y-551476D01*
X398127Y-542136D01*
X394138Y-532978D01*
X389711Y-524024D01*
X384856Y-515294D01*
X379586Y-506808D01*
X373911Y-498588D01*
X367846Y-490651D01*
X361405Y-483016D01*
X354602Y-475701D01*
X347454Y-468724D01*
X339978Y-462100D01*
X332189Y-455845D01*
X324108Y-449974D01*
X315753Y-444500D01*
X307143Y-439436D01*
X298298Y-434793D01*
X289239Y-430584D01*
X279988Y-426817D01*
X270565Y-423502D01*
X260993Y-420646D01*
X251294Y-418255D01*
X241491Y-416336D01*
X231607Y-414893D01*
X221665Y-413929D01*
X211688Y-413446D01*
X201699D01*
X191721Y-413929D01*
X181779Y-414893D01*
X171895Y-416336D01*
X162092Y-418255D01*
X152393Y-420646D01*
X142821Y-423502D01*
X133399Y-426817D01*
X124147Y-430584D01*
X115088Y-434794D01*
X106244Y-439436D01*
X97634Y-444500D01*
X89278Y-449974D01*
X81197Y-455845D01*
X73409Y-462100D01*
X65932Y-468724D01*
X58784Y-475701D01*
X51981Y-483016D01*
X45540Y-490651D01*
X39475Y-498588D01*
X33801Y-506808D01*
X28530Y-515294D01*
X23676Y-524024D01*
X19249Y-532978D01*
X15259Y-542136D01*
X11717Y-551476D01*
X8631Y-560976D01*
X6006Y-570614D01*
X3851Y-580367D01*
X2169Y-590214D01*
X965Y-600130D01*
X242Y-610092D01*
X0Y-620078D01*
X242Y-630064D01*
X965Y-640027D01*
X2169Y-649943D01*
X3851Y-659790D01*
X6006Y-669543D01*
X8630Y-679181D01*
X11717Y-688681D01*
X15259Y-698021D01*
X19249Y-707179D01*
X23676Y-716133D01*
X28530Y-724863D01*
X33801Y-733349D01*
X39475Y-741569D01*
X45540Y-749506D01*
X51981Y-757141D01*
X58784Y-764456D01*
X65932Y-771433D01*
X73409Y-778057D01*
X81197Y-784312D01*
X89278Y-790183D01*
X97633Y-795657D01*
X106243Y-800721D01*
X115088Y-805364D01*
X124147Y-809573D01*
X133398Y-813340D01*
X142821Y-816655D01*
X152393Y-819511D01*
X162092Y-821902D01*
X171894Y-823821D01*
X181779Y-825264D01*
X191721Y-826229D01*
X201698Y-826711D01*
X211687Y-826711D01*
X221664Y-826229D01*
X231607Y-825265D01*
X241491Y-823821D01*
X251293Y-821902D01*
X260992Y-819512D01*
X270564Y-816655D01*
X279987Y-813340D01*
X289238Y-809573D01*
X298297Y-805364D01*
X307142Y-800722D01*
X315752Y-795658D01*
X324107Y-790184D01*
X332189Y-784313D01*
X339977Y-778058D01*
X347454Y-771434D01*
X354602Y-764457D01*
X361404Y-757142D01*
X367846Y-749507D01*
X373911Y-741570D01*
X379585Y-733350D01*
X384856Y-724865D01*
X389710Y-716135D01*
X394137Y-707180D01*
X398127Y-698022D01*
X401669Y-688683D01*
X404755Y-679183D01*
X407380Y-669544D01*
X409535Y-659791D01*
X411217Y-649945D01*
X412421Y-640029D01*
X413145Y-630066D01*
X413386Y-620080D01*
X1240158Y-620079D02*
X1239917Y-610093D01*
X1239193Y-600130D01*
X1237989Y-590214D01*
X1236307Y-580367D01*
X1234152Y-570614D01*
X1231528Y-560976D01*
X1228441Y-551476D01*
X1224899Y-542136D01*
X1220909Y-532978D01*
X1216483Y-524024D01*
X1211628Y-515294D01*
X1206357Y-506808D01*
X1200683Y-498588D01*
X1194618Y-490651D01*
X1188177Y-483016D01*
X1181374Y-475701D01*
X1174226Y-468724D01*
X1166749Y-462100D01*
X1158961Y-455845D01*
X1150880Y-449974D01*
X1142524Y-444500D01*
X1133914Y-439436D01*
X1125070Y-434793D01*
X1116011Y-430584D01*
X1106759Y-426817D01*
X1097337Y-423502D01*
X1087765Y-420646D01*
X1078066Y-418255D01*
X1068263Y-416336D01*
X1058379Y-414893D01*
X1048437Y-413929D01*
X1038459Y-413446D01*
X1028470D01*
X1018493Y-413929D01*
X1008551Y-414893D01*
X998667Y-416336D01*
X988864Y-418255D01*
X979165Y-420646D01*
X969593Y-423502D01*
X960171Y-426817D01*
X950919Y-430584D01*
X941860Y-434794D01*
X933015Y-439436D01*
X924405Y-444500D01*
X916050Y-449974D01*
X907969Y-455845D01*
X900181Y-462100D01*
X892704Y-468724D01*
X885556Y-475701D01*
X878753Y-483016D01*
X872312Y-490651D01*
X866247Y-498588D01*
X860572Y-506808D01*
X855302Y-515294D01*
X850447Y-524024D01*
X846020Y-532978D01*
X842031Y-542136D01*
X838489Y-551476D01*
X835402Y-560976D01*
X832778Y-570614D01*
X830623Y-580367D01*
X828941Y-590214D01*
X827737Y-600130D01*
X827014Y-610092D01*
X826772Y-620078D01*
X827014Y-630064D01*
X827737Y-640027D01*
X828941Y-649943D01*
X830623Y-659790D01*
X832778Y-669543D01*
X835402Y-679181D01*
X838489Y-688681D01*
X842031Y-698021D01*
X846020Y-707179D01*
X850447Y-716133D01*
X855302Y-724863D01*
X860572Y-733349D01*
X866247Y-741569D01*
X872312Y-749506D01*
X878753Y-757141D01*
X885556Y-764456D01*
X892704Y-771433D01*
X900180Y-778057D01*
X907968Y-784312D01*
X916050Y-790183D01*
X924405Y-795657D01*
X933015Y-800721D01*
X941860Y-805364D01*
X950919Y-809573D01*
X960170Y-813340D01*
X969593Y-816655D01*
X979165Y-819511D01*
X988863Y-821902D01*
X998666Y-823821D01*
X1008550Y-825264D01*
X1018493Y-826229D01*
X1028470Y-826711D01*
X1038459Y-826711D01*
X1048436Y-826229D01*
X1058378Y-825265D01*
X1068263Y-823821D01*
X1078065Y-821902D01*
X1087764Y-819512D01*
X1097336Y-816655D01*
X1106759Y-813340D01*
X1116010Y-809573D01*
X1125069Y-805364D01*
X1133914Y-800722D01*
X1142524Y-795658D01*
X1150879Y-790184D01*
X1158960Y-784313D01*
X1166749Y-778058D01*
X1174226Y-771434D01*
X1181374Y-764457D01*
X1188176Y-757142D01*
X1194618Y-749507D01*
X1200682Y-741570D01*
X1206357Y-733350D01*
X1211628Y-724865D01*
X1216482Y-716135D01*
X1220909Y-707180D01*
X1224898Y-698022D01*
X1228440Y-688683D01*
X1231527Y-679183D01*
X1234151Y-669544D01*
X1236307Y-659791D01*
X1237989Y-649945D01*
X1239193Y-640029D01*
X1239917Y-630066D01*
X1240158Y-620080D01*
X-1240158Y-206693D02*
X-1240399Y-196707D01*
X-1241122Y-186744D01*
X-1242326Y-176828D01*
X-1244008Y-166982D01*
X-1246164Y-157228D01*
X-1248788Y-147590D01*
X-1251874Y-138090D01*
X-1255417Y-128750D01*
X-1259406Y-119592D01*
X-1263833Y-110638D01*
X-1268687Y-101908D01*
X-1273958Y-93422D01*
X-1279632Y-85202D01*
X-1285697Y-77265D01*
X-1292139Y-69630D01*
X-1298941Y-62315D01*
X-1306089Y-55338D01*
X-1313566Y-48714D01*
X-1321354Y-42459D01*
X-1329435Y-36588D01*
X-1337791Y-31114D01*
X-1346401Y-26050D01*
X-1355246Y-21408D01*
X-1364304Y-17198D01*
X-1373556Y-13431D01*
X-1382979Y-10116D01*
X-1392551Y-7260D01*
X-1402249Y-4869D01*
X-1412052Y-2950D01*
X-1421936Y-1507D01*
X-1431879Y-543D01*
X-1441856Y-60D01*
X-1451845D01*
X-1461822Y-543D01*
X-1471764Y-1507D01*
X-1481649Y-2950D01*
X-1491451Y-4869D01*
X-1501150Y-7260D01*
X-1510722Y-10116D01*
X-1520145Y-13431D01*
X-1529396Y-17198D01*
X-1538455Y-21408D01*
X-1547300Y-26050D01*
X-1555910Y-31114D01*
X-1564265Y-36588D01*
X-1572347Y-42459D01*
X-1580135Y-48714D01*
X-1587612Y-55338D01*
X-1594760Y-62316D01*
X-1601562Y-69630D01*
X-1608004Y-77265D01*
X-1614069Y-85202D01*
X-1619743Y-93422D01*
X-1625013Y-101908D01*
X-1629868Y-110638D01*
X-1634295Y-119592D01*
X-1638284Y-128750D01*
X-1641826Y-138090D01*
X-1644913Y-147590D01*
X-1647537Y-157228D01*
X-1649693Y-166981D01*
X-1651374Y-176828D01*
X-1652578Y-186744D01*
X-1653302Y-196707D01*
X-1653543Y-206693D01*
X-1653302Y-216679D01*
X-1652578Y-226641D01*
X-1651374Y-236557D01*
X-1649693Y-246404D01*
X-1647537Y-256157D01*
X-1644913Y-265795D01*
X-1641826Y-275296D01*
X-1638284Y-284635D01*
X-1634295Y-293793D01*
X-1629868Y-302747D01*
X-1625014Y-311477D01*
X-1619743Y-319963D01*
X-1614069Y-328183D01*
X-1608004Y-336120D01*
X-1601562Y-343755D01*
X-1594760Y-351070D01*
X-1587612Y-358047D01*
X-1580135Y-364671D01*
X-1572347Y-370926D01*
X-1564266Y-376797D01*
X-1555910Y-382271D01*
X-1547300Y-387336D01*
X-1538455Y-391978D01*
X-1529397Y-396187D01*
X-1520145Y-399954D01*
X-1510723Y-403269D01*
X-1501151Y-406125D01*
X-1491452Y-408516D01*
X-1481649Y-410435D01*
X-1471765Y-411878D01*
X-1461823Y-412843D01*
X-1451845Y-413325D01*
X-1441857Y-413325D01*
X-1431879Y-412843D01*
X-1421937Y-411879D01*
X-1412053Y-410435D01*
X-1402250Y-408516D01*
X-1392551Y-406126D01*
X-1382979Y-403270D01*
X-1373557Y-399954D01*
X-1364305Y-396188D01*
X-1355247Y-391978D01*
X-1346402Y-387336D01*
X-1337792Y-382272D01*
X-1329436Y-376798D01*
X-1321355Y-370927D01*
X-1313567Y-364672D01*
X-1306090Y-358048D01*
X-1298942Y-351071D01*
X-1292139Y-343756D01*
X-1285698Y-336122D01*
X-1279633Y-328185D01*
X-1273958Y-319964D01*
X-1268688Y-311479D01*
X-1263833Y-302749D01*
X-1259406Y-293794D01*
X-1255417Y-284637D01*
X-1251875Y-275297D01*
X-1248788Y-265797D01*
X-1246164Y-256159D01*
X-1244008Y-246405D01*
X-1242327Y-236559D01*
X-1241122Y-226643D01*
X-1240399Y-216680D01*
X-1240158Y-206694D01*
X-413386Y-206693D02*
X-413627Y-196707D01*
X-414351Y-186744D01*
X-415555Y-176828D01*
X-417236Y-166982D01*
X-419392Y-157228D01*
X-422016Y-147590D01*
X-425103Y-138090D01*
X-428645Y-128750D01*
X-432634Y-119592D01*
X-437061Y-110638D01*
X-441916Y-101908D01*
X-447186Y-93422D01*
X-452861Y-85202D01*
X-458925Y-77265D01*
X-465367Y-69630D01*
X-472169Y-62315D01*
X-479317Y-55338D01*
X-486794Y-48714D01*
X-494582Y-42459D01*
X-502664Y-36588D01*
X-511019Y-31114D01*
X-519629Y-26050D01*
X-528474Y-21408D01*
X-537533Y-17198D01*
X-546784Y-13431D01*
X-556207Y-10116D01*
X-565779Y-7260D01*
X-575477Y-4869D01*
X-585280Y-2950D01*
X-595164Y-1507D01*
X-605107Y-543D01*
X-615084Y-60D01*
X-625073D01*
X-635050Y-543D01*
X-644993Y-1507D01*
X-654877Y-2950D01*
X-664680Y-4869D01*
X-674378Y-7260D01*
X-683950Y-10116D01*
X-693373Y-13431D01*
X-702625Y-17198D01*
X-711683Y-21408D01*
X-720528Y-26050D01*
X-729138Y-31114D01*
X-737494Y-36588D01*
X-745575Y-42459D01*
X-753363Y-48714D01*
X-760840Y-55338D01*
X-767988Y-62316D01*
X-774791Y-69630D01*
X-781232Y-77265D01*
X-787297Y-85202D01*
X-792971Y-93422D01*
X-798242Y-101908D01*
X-803096Y-110638D01*
X-807523Y-119592D01*
X-811512Y-128750D01*
X-815054Y-138090D01*
X-818141Y-147590D01*
X-820765Y-157228D01*
X-822921Y-166981D01*
X-824602Y-176828D01*
X-825807Y-186744D01*
X-826530Y-196707D01*
X-826771Y-206693D01*
X-826530Y-216679D01*
X-825807Y-226641D01*
X-824603Y-236557D01*
X-822921Y-246404D01*
X-820765Y-256157D01*
X-818141Y-265795D01*
X-815054Y-275296D01*
X-811512Y-284635D01*
X-807523Y-293793D01*
X-803096Y-302747D01*
X-798242Y-311477D01*
X-792971Y-319963D01*
X-787297Y-328183D01*
X-781232Y-336120D01*
X-774791Y-343755D01*
X-767988Y-351070D01*
X-760840Y-358047D01*
X-753363Y-364671D01*
X-745575Y-370926D01*
X-737494Y-376797D01*
X-729139Y-382271D01*
X-720528Y-387336D01*
X-711684Y-391978D01*
X-702625Y-396187D01*
X-693373Y-399954D01*
X-683951Y-403269D01*
X-674379Y-406125D01*
X-664680Y-408516D01*
X-654877Y-410435D01*
X-644993Y-411878D01*
X-635051Y-412843D01*
X-625074Y-413325D01*
X-615085Y-413325D01*
X-605107Y-412843D01*
X-595165Y-411879D01*
X-585281Y-410435D01*
X-575478Y-408516D01*
X-565780Y-406126D01*
X-556208Y-403270D01*
X-546785Y-399954D01*
X-537534Y-396188D01*
X-528475Y-391978D01*
X-519630Y-387336D01*
X-511020Y-382272D01*
X-502664Y-376798D01*
X-494583Y-370927D01*
X-486795Y-364672D01*
X-479318Y-358048D01*
X-472170Y-351071D01*
X-465367Y-343756D01*
X-458926Y-336122D01*
X-452861Y-328185D01*
X-447187Y-319964D01*
X-441916Y-311479D01*
X-437062Y-302749D01*
X-432635Y-293794D01*
X-428645Y-284637D01*
X-425103Y-275297D01*
X-422016Y-265797D01*
X-419392Y-256159D01*
X-417237Y-246405D01*
X-415555Y-236559D01*
X-414351Y-226643D01*
X-413627Y-216680D01*
X-413386Y-206694D01*
X413386Y-206693D02*
X413145Y-196707D01*
X412421Y-186744D01*
X411217Y-176828D01*
X409535Y-166982D01*
X407380Y-157228D01*
X404756Y-147590D01*
X401669Y-138090D01*
X398127Y-128750D01*
X394138Y-119592D01*
X389711Y-110638D01*
X384856Y-101908D01*
X379586Y-93422D01*
X373911Y-85202D01*
X367846Y-77265D01*
X361405Y-69630D01*
X354602Y-62315D01*
X347454Y-55338D01*
X339978Y-48714D01*
X332189Y-42459D01*
X324108Y-36588D01*
X315753Y-31114D01*
X307143Y-26050D01*
X298298Y-21408D01*
X289239Y-17198D01*
X279988Y-13431D01*
X270565Y-10116D01*
X260993Y-7260D01*
X251294Y-4869D01*
X241491Y-2950D01*
X231607Y-1507D01*
X221665Y-543D01*
X211688Y-60D01*
X201699D01*
X191721Y-543D01*
X181779Y-1507D01*
X171895Y-2950D01*
X162092Y-4869D01*
X152393Y-7260D01*
X142821Y-10116D01*
X133399Y-13431D01*
X124147Y-17198D01*
X115088Y-21408D01*
X106244Y-26050D01*
X97634Y-31114D01*
X89278Y-36588D01*
X81197Y-42459D01*
X73409Y-48714D01*
X65932Y-55338D01*
X58784Y-62316D01*
X51981Y-69630D01*
X45540Y-77265D01*
X39475Y-85202D01*
X33801Y-93422D01*
X28530Y-101908D01*
X23676Y-110638D01*
X19249Y-119592D01*
X15259Y-128750D01*
X11717Y-138090D01*
X8631Y-147590D01*
X6006Y-157228D01*
X3851Y-166981D01*
X2169Y-176828D01*
X965Y-186744D01*
X242Y-196707D01*
X0Y-206693D01*
X242Y-216679D01*
X965Y-226641D01*
X2169Y-236557D01*
X3851Y-246404D01*
X6006Y-256157D01*
X8630Y-265795D01*
X11717Y-275296D01*
X15259Y-284635D01*
X19249Y-293793D01*
X23676Y-302747D01*
X28530Y-311477D01*
X33801Y-319963D01*
X39475Y-328183D01*
X45540Y-336120D01*
X51981Y-343755D01*
X58784Y-351070D01*
X65932Y-358047D01*
X73409Y-364671D01*
X81197Y-370926D01*
X89278Y-376797D01*
X97633Y-382271D01*
X106243Y-387336D01*
X115088Y-391978D01*
X124147Y-396187D01*
X133398Y-399954D01*
X142821Y-403269D01*
X152393Y-406125D01*
X162092Y-408516D01*
X171894Y-410435D01*
X181779Y-411878D01*
X191721Y-412843D01*
X201698Y-413325D01*
X211687Y-413325D01*
X221664Y-412843D01*
X231607Y-411879D01*
X241491Y-410435D01*
X251293Y-408516D01*
X260992Y-406126D01*
X270564Y-403270D01*
X279987Y-399954D01*
X289238Y-396188D01*
X298297Y-391978D01*
X307142Y-387336D01*
X315752Y-382272D01*
X324107Y-376798D01*
X332189Y-370927D01*
X339977Y-364672D01*
X347454Y-358048D01*
X354602Y-351071D01*
X361404Y-343756D01*
X367846Y-336122D01*
X373911Y-328185D01*
X379585Y-319964D01*
X384856Y-311479D01*
X389710Y-302749D01*
X394137Y-293794D01*
X398127Y-284637D01*
X401669Y-275297D01*
X404755Y-265797D01*
X407380Y-256159D01*
X409535Y-246405D01*
X411217Y-236559D01*
X412421Y-226643D01*
X413145Y-216680D01*
X413386Y-206694D01*
X1240158Y-206693D02*
X1239917Y-196707D01*
X1239193Y-186744D01*
X1237989Y-176828D01*
X1236307Y-166982D01*
X1234152Y-157228D01*
X1231528Y-147590D01*
X1228441Y-138090D01*
X1224899Y-128750D01*
X1220909Y-119592D01*
X1216483Y-110638D01*
X1211628Y-101908D01*
X1206357Y-93422D01*
X1200683Y-85202D01*
X1194618Y-77265D01*
X1188177Y-69630D01*
X1181374Y-62315D01*
X1174226Y-55338D01*
X1166749Y-48714D01*
X1158961Y-42459D01*
X1150880Y-36588D01*
X1142524Y-31114D01*
X1133914Y-26050D01*
X1125070Y-21408D01*
X1116011Y-17198D01*
X1106759Y-13431D01*
X1097337Y-10116D01*
X1087765Y-7260D01*
X1078066Y-4869D01*
X1068263Y-2950D01*
X1058379Y-1507D01*
X1048437Y-543D01*
X1038459Y-60D01*
X1028470D01*
X1018493Y-543D01*
X1008551Y-1507D01*
X998667Y-2950D01*
X988864Y-4869D01*
X979165Y-7260D01*
X969593Y-10116D01*
X960171Y-13431D01*
X950919Y-17198D01*
X941860Y-21408D01*
X933015Y-26050D01*
X924405Y-31114D01*
X916050Y-36588D01*
X907969Y-42459D01*
X900181Y-48714D01*
X892704Y-55338D01*
X885556Y-62316D01*
X878753Y-69630D01*
X872312Y-77265D01*
X866247Y-85202D01*
X860572Y-93422D01*
X855302Y-101908D01*
X850447Y-110638D01*
X846020Y-119592D01*
X842031Y-128750D01*
X838489Y-138090D01*
X835402Y-147590D01*
X832778Y-157228D01*
X830623Y-166981D01*
X828941Y-176828D01*
X827737Y-186744D01*
X827014Y-196707D01*
X826772Y-206693D01*
X827014Y-216679D01*
X827737Y-226641D01*
X828941Y-236557D01*
X830623Y-246404D01*
X832778Y-256157D01*
X835402Y-265795D01*
X838489Y-275296D01*
X842031Y-284635D01*
X846020Y-293793D01*
X850447Y-302747D01*
X855302Y-311477D01*
X860572Y-319963D01*
X866247Y-328183D01*
X872312Y-336120D01*
X878753Y-343755D01*
X885556Y-351070D01*
X892704Y-358047D01*
X900180Y-364671D01*
X907968Y-370926D01*
X916050Y-376797D01*
X924405Y-382271D01*
X933015Y-387336D01*
X941860Y-391978D01*
X950919Y-396187D01*
X960170Y-399954D01*
X969593Y-403269D01*
X979165Y-406125D01*
X988863Y-408516D01*
X998666Y-410435D01*
X1008550Y-411878D01*
X1018493Y-412843D01*
X1028470Y-413325D01*
X1038459Y-413325D01*
X1048436Y-412843D01*
X1058378Y-411879D01*
X1068263Y-410435D01*
X1078065Y-408516D01*
X1087764Y-406126D01*
X1097336Y-403270D01*
X1106759Y-399954D01*
X1116010Y-396188D01*
X1125069Y-391978D01*
X1133914Y-387336D01*
X1142524Y-382272D01*
X1150879Y-376798D01*
X1158960Y-370927D01*
X1166749Y-364672D01*
X1174226Y-358048D01*
X1181374Y-351071D01*
X1188176Y-343756D01*
X1194618Y-336122D01*
X1200682Y-328185D01*
X1206357Y-319964D01*
X1211628Y-311479D01*
X1216482Y-302749D01*
X1220909Y-293794D01*
X1224898Y-284637D01*
X1228440Y-275297D01*
X1231527Y-265797D01*
X1234151Y-256159D01*
X1236307Y-246405D01*
X1237989Y-236559D01*
X1239193Y-226643D01*
X1239917Y-216680D01*
X1240158Y-206694D01*
X-1240158Y206693D02*
X-1240399Y216679D01*
X-1241122Y226642D01*
X-1242326Y236558D01*
X-1244008Y246404D01*
X-1246164Y256158D01*
X-1248788Y265796D01*
X-1251874Y275296D01*
X-1255417Y284636D01*
X-1259406Y293794D01*
X-1263833Y302748D01*
X-1268687Y311478D01*
X-1273958Y319964D01*
X-1279632Y328184D01*
X-1285697Y336121D01*
X-1292139Y343756D01*
X-1298941Y351070D01*
X-1306089Y358048D01*
X-1313566Y364672D01*
X-1321354Y370927D01*
X-1329435Y376798D01*
X-1337791Y382272D01*
X-1346401Y387336D01*
X-1355246Y391978D01*
X-1364304Y396188D01*
X-1373556Y399954D01*
X-1382979Y403270D01*
X-1392551Y406126D01*
X-1402249Y408517D01*
X-1412052Y410436D01*
X-1421936Y411879D01*
X-1431879Y412843D01*
X-1441856Y413326D01*
X-1451845D01*
X-1461822Y412843D01*
X-1471764Y411879D01*
X-1481649Y410436D01*
X-1491451Y408517D01*
X-1501150Y406126D01*
X-1510722Y403270D01*
X-1520145Y399954D01*
X-1529396Y396188D01*
X-1538455Y391978D01*
X-1547300Y387336D01*
X-1555910Y382272D01*
X-1564265Y376798D01*
X-1572347Y370927D01*
X-1580135Y364672D01*
X-1587612Y358048D01*
X-1594760Y351070D01*
X-1601562Y343756D01*
X-1608004Y336121D01*
X-1614069Y328184D01*
X-1619743Y319963D01*
X-1625013Y311478D01*
X-1629868Y302748D01*
X-1634295Y293794D01*
X-1638284Y284636D01*
X-1641826Y275296D01*
X-1644913Y265796D01*
X-1647537Y256158D01*
X-1649693Y246405D01*
X-1651374Y236558D01*
X-1652578Y226642D01*
X-1653302Y216679D01*
X-1653543Y206693D01*
X-1653302Y196707D01*
X-1652578Y186745D01*
X-1651374Y176828D01*
X-1649693Y166982D01*
X-1647537Y157228D01*
X-1644913Y147590D01*
X-1641826Y138090D01*
X-1638284Y128751D01*
X-1634295Y119593D01*
X-1629868Y110638D01*
X-1625014Y101909D01*
X-1619743Y93423D01*
X-1614069Y85202D01*
X-1608004Y77265D01*
X-1601562Y69631D01*
X-1594760Y62316D01*
X-1587612Y55339D01*
X-1580135Y48715D01*
X-1572347Y42460D01*
X-1564266Y36589D01*
X-1555910Y31114D01*
X-1547300Y26050D01*
X-1538455Y21408D01*
X-1529397Y17199D01*
X-1520145Y13432D01*
X-1510723Y10117D01*
X-1501151Y7260D01*
X-1491452Y4870D01*
X-1481649Y2951D01*
X-1471765Y1507D01*
X-1461823Y543D01*
X-1451845Y61D01*
X-1441857Y61D01*
X-1431879Y543D01*
X-1421937Y1507D01*
X-1412053Y2950D01*
X-1402250Y4870D01*
X-1392551Y7260D01*
X-1382979Y10116D01*
X-1373557Y13432D01*
X-1364305Y17198D01*
X-1355247Y21408D01*
X-1346402Y26050D01*
X-1337792Y31114D01*
X-1329436Y36588D01*
X-1321355Y42459D01*
X-1313567Y48714D01*
X-1306090Y55338D01*
X-1298942Y62315D01*
X-1292139Y69630D01*
X-1285698Y77264D01*
X-1279633Y85201D01*
X-1273958Y93422D01*
X-1268688Y101907D01*
X-1263833Y110637D01*
X-1259406Y119592D01*
X-1255417Y128749D01*
X-1251875Y138089D01*
X-1248788Y147589D01*
X-1246164Y157227D01*
X-1244008Y166981D01*
X-1242327Y176827D01*
X-1241122Y186743D01*
X-1240399Y196706D01*
X-1240158Y206692D01*
X-413386Y206693D02*
X-413627Y216679D01*
X-414351Y226642D01*
X-415555Y236558D01*
X-417236Y246404D01*
X-419392Y256158D01*
X-422016Y265796D01*
X-425103Y275296D01*
X-428645Y284636D01*
X-432634Y293794D01*
X-437061Y302748D01*
X-441916Y311478D01*
X-447186Y319964D01*
X-452861Y328184D01*
X-458925Y336121D01*
X-465367Y343756D01*
X-472169Y351070D01*
X-479317Y358048D01*
X-486794Y364672D01*
X-494582Y370927D01*
X-502664Y376798D01*
X-511019Y382272D01*
X-519629Y387336D01*
X-528474Y391978D01*
X-537533Y396188D01*
X-546784Y399954D01*
X-556207Y403270D01*
X-565779Y406126D01*
X-575477Y408517D01*
X-585280Y410436D01*
X-595164Y411879D01*
X-605107Y412843D01*
X-615084Y413326D01*
X-625073D01*
X-635050Y412843D01*
X-644993Y411879D01*
X-654877Y410436D01*
X-664680Y408517D01*
X-674378Y406126D01*
X-683950Y403270D01*
X-693373Y399954D01*
X-702625Y396188D01*
X-711683Y391978D01*
X-720528Y387336D01*
X-729138Y382272D01*
X-737494Y376798D01*
X-745575Y370927D01*
X-753363Y364672D01*
X-760840Y358048D01*
X-767988Y351070D01*
X-774791Y343756D01*
X-781232Y336121D01*
X-787297Y328184D01*
X-792971Y319963D01*
X-798242Y311478D01*
X-803096Y302748D01*
X-807523Y293794D01*
X-811512Y284636D01*
X-815054Y275296D01*
X-818141Y265796D01*
X-820765Y256158D01*
X-822921Y246405D01*
X-824602Y236558D01*
X-825807Y226642D01*
X-826530Y216679D01*
X-826771Y206693D01*
X-826530Y196707D01*
X-825807Y186745D01*
X-824603Y176828D01*
X-822921Y166982D01*
X-820765Y157228D01*
X-818141Y147590D01*
X-815054Y138090D01*
X-811512Y128751D01*
X-807523Y119593D01*
X-803096Y110638D01*
X-798242Y101909D01*
X-792971Y93423D01*
X-787297Y85202D01*
X-781232Y77265D01*
X-774791Y69631D01*
X-767988Y62316D01*
X-760840Y55339D01*
X-753363Y48715D01*
X-745575Y42460D01*
X-737494Y36589D01*
X-729139Y31114D01*
X-720528Y26050D01*
X-711684Y21408D01*
X-702625Y17199D01*
X-693373Y13432D01*
X-683951Y10117D01*
X-674379Y7260D01*
X-664680Y4870D01*
X-654877Y2951D01*
X-644993Y1507D01*
X-635051Y543D01*
X-625074Y61D01*
X-615085Y61D01*
X-605107Y543D01*
X-595165Y1507D01*
X-585281Y2950D01*
X-575478Y4870D01*
X-565780Y7260D01*
X-556208Y10116D01*
X-546785Y13432D01*
X-537534Y17198D01*
X-528475Y21408D01*
X-519630Y26050D01*
X-511020Y31114D01*
X-502664Y36588D01*
X-494583Y42459D01*
X-486795Y48714D01*
X-479318Y55338D01*
X-472170Y62315D01*
X-465367Y69630D01*
X-458926Y77264D01*
X-452861Y85201D01*
X-447187Y93422D01*
X-441916Y101907D01*
X-437062Y110637D01*
X-432635Y119592D01*
X-428645Y128749D01*
X-425103Y138089D01*
X-422016Y147589D01*
X-419392Y157227D01*
X-417237Y166981D01*
X-415555Y176827D01*
X-414351Y186743D01*
X-413627Y196706D01*
X-413386Y206692D01*
X413386Y206693D02*
X413145Y216679D01*
X412421Y226642D01*
X411217Y236558D01*
X409535Y246404D01*
X407380Y256158D01*
X404756Y265796D01*
X401669Y275296D01*
X398127Y284636D01*
X394138Y293794D01*
X389711Y302748D01*
X384856Y311478D01*
X379586Y319964D01*
X373911Y328184D01*
X367846Y336121D01*
X361405Y343756D01*
X354602Y351070D01*
X347454Y358048D01*
X339978Y364672D01*
X332189Y370927D01*
X324108Y376798D01*
X315753Y382272D01*
X307143Y387336D01*
X298298Y391978D01*
X289239Y396188D01*
X279988Y399954D01*
X270565Y403270D01*
X260993Y406126D01*
X251294Y408517D01*
X241491Y410436D01*
X231607Y411879D01*
X221665Y412843D01*
X211688Y413326D01*
X201699D01*
X191721Y412843D01*
X181779Y411879D01*
X171895Y410436D01*
X162092Y408517D01*
X152393Y406126D01*
X142821Y403270D01*
X133399Y399954D01*
X124147Y396188D01*
X115088Y391978D01*
X106244Y387336D01*
X97634Y382272D01*
X89278Y376798D01*
X81197Y370927D01*
X73409Y364672D01*
X65932Y358048D01*
X58784Y351070D01*
X51981Y343756D01*
X45540Y336121D01*
X39475Y328184D01*
X33801Y319963D01*
X28530Y311478D01*
X23676Y302748D01*
X19249Y293794D01*
X15259Y284636D01*
X11717Y275296D01*
X8631Y265796D01*
X6006Y256158D01*
X3851Y246405D01*
X2169Y236558D01*
X965Y226642D01*
X242Y216679D01*
X0Y206693D01*
X242Y196707D01*
X965Y186745D01*
X2169Y176828D01*
X3851Y166982D01*
X6006Y157228D01*
X8630Y147590D01*
X11717Y138090D01*
X15259Y128751D01*
X19249Y119593D01*
X23676Y110638D01*
X28530Y101909D01*
X33801Y93423D01*
X39475Y85202D01*
X45540Y77265D01*
X51981Y69631D01*
X58784Y62316D01*
X65932Y55339D01*
X73409Y48715D01*
X81197Y42460D01*
X89278Y36589D01*
X97633Y31114D01*
X106243Y26050D01*
X115088Y21408D01*
X124147Y17199D01*
X133398Y13432D01*
X142821Y10117D01*
X152393Y7260D01*
X162092Y4870D01*
X171894Y2951D01*
X181779Y1507D01*
X191721Y543D01*
X201698Y61D01*
X211687Y61D01*
X221664Y543D01*
X231607Y1507D01*
X241491Y2950D01*
X251293Y4870D01*
X260992Y7260D01*
X270564Y10116D01*
X279987Y13432D01*
X289238Y17198D01*
X298297Y21408D01*
X307142Y26050D01*
X315752Y31114D01*
X324107Y36588D01*
X332189Y42459D01*
X339977Y48714D01*
X347454Y55338D01*
X354602Y62315D01*
X361404Y69630D01*
X367846Y77264D01*
X373911Y85201D01*
X379585Y93422D01*
X384856Y101907D01*
X389710Y110637D01*
X394137Y119592D01*
X398127Y128749D01*
X401669Y138089D01*
X404755Y147589D01*
X407380Y157227D01*
X409535Y166981D01*
X411217Y176827D01*
X412421Y186743D01*
X413145Y196706D01*
X413386Y206692D01*
X1240158Y206693D02*
X1239917Y216679D01*
X1239193Y226642D01*
X1237989Y236558D01*
X1236307Y246404D01*
X1234152Y256158D01*
X1231528Y265796D01*
X1228441Y275296D01*
X1224899Y284636D01*
X1220909Y293794D01*
X1216483Y302748D01*
X1211628Y311478D01*
X1206357Y319964D01*
X1200683Y328184D01*
X1194618Y336121D01*
X1188177Y343756D01*
X1181374Y351070D01*
X1174226Y358048D01*
X1166749Y364672D01*
X1158961Y370927D01*
X1150880Y376798D01*
X1142524Y382272D01*
X1133914Y387336D01*
X1125070Y391978D01*
X1116011Y396188D01*
X1106759Y399954D01*
X1097337Y403270D01*
X1087765Y406126D01*
X1078066Y408517D01*
X1068263Y410436D01*
X1058379Y411879D01*
X1048437Y412843D01*
X1038459Y413326D01*
X1028470D01*
X1018493Y412843D01*
X1008551Y411879D01*
X998667Y410436D01*
X988864Y408517D01*
X979165Y406126D01*
X969593Y403270D01*
X960171Y399954D01*
X950919Y396188D01*
X941860Y391978D01*
X933015Y387336D01*
X924405Y382272D01*
X916050Y376798D01*
X907969Y370927D01*
X900181Y364672D01*
X892704Y358048D01*
X885556Y351070D01*
X878753Y343756D01*
X872312Y336121D01*
X866247Y328184D01*
X860572Y319963D01*
X855302Y311478D01*
X850447Y302748D01*
X846020Y293794D01*
X842031Y284636D01*
X838489Y275296D01*
X835402Y265796D01*
X832778Y256158D01*
X830623Y246405D01*
X828941Y236558D01*
X827737Y226642D01*
X827014Y216679D01*
X826772Y206693D01*
X827014Y196707D01*
X827737Y186745D01*
X828941Y176828D01*
X830623Y166982D01*
X832778Y157228D01*
X835402Y147590D01*
X838489Y138090D01*
X842031Y128751D01*
X846020Y119593D01*
X850447Y110638D01*
X855302Y101909D01*
X860572Y93423D01*
X866247Y85202D01*
X872312Y77265D01*
X878753Y69631D01*
X885556Y62316D01*
X892704Y55339D01*
X900180Y48715D01*
X907968Y42460D01*
X916050Y36589D01*
X924405Y31114D01*
X933015Y26050D01*
X941860Y21408D01*
X950919Y17199D01*
X960170Y13432D01*
X969593Y10117D01*
X979165Y7260D01*
X988863Y4870D01*
X998666Y2951D01*
X1008550Y1507D01*
X1018493Y543D01*
X1028470Y61D01*
X1038459Y61D01*
X1048436Y543D01*
X1058378Y1507D01*
X1068263Y2950D01*
X1078065Y4870D01*
X1087764Y7260D01*
X1097336Y10116D01*
X1106759Y13432D01*
X1116010Y17198D01*
X1125069Y21408D01*
X1133914Y26050D01*
X1142524Y31114D01*
X1150879Y36588D01*
X1158960Y42459D01*
X1166749Y48714D01*
X1174226Y55338D01*
X1181374Y62315D01*
X1188176Y69630D01*
X1194618Y77264D01*
X1200682Y85201D01*
X1206357Y93422D01*
X1211628Y101907D01*
X1216482Y110637D01*
X1220909Y119592D01*
X1224898Y128749D01*
X1228440Y138089D01*
X1231527Y147589D01*
X1234151Y157227D01*
X1236307Y166981D01*
X1237989Y176827D01*
X1239193Y186743D01*
X1239917Y196706D01*
X1240158Y206692D01*
X-1240158Y620079D02*
X-1240399Y630065D01*
X-1241122Y640028D01*
X-1242326Y649944D01*
X-1244008Y659790D01*
X-1246164Y669544D01*
X-1248788Y679182D01*
X-1251874Y688682D01*
X-1255417Y698022D01*
X-1259406Y707180D01*
X-1263833Y716134D01*
X-1268687Y724864D01*
X-1273958Y733349D01*
X-1279632Y741570D01*
X-1285697Y749507D01*
X-1292139Y757142D01*
X-1298941Y764456D01*
X-1306089Y771434D01*
X-1313566Y778058D01*
X-1321354Y784313D01*
X-1329435Y790184D01*
X-1337791Y795658D01*
X-1346401Y800722D01*
X-1355246Y805364D01*
X-1364304Y809573D01*
X-1373556Y813340D01*
X-1382979Y816656D01*
X-1392551Y819512D01*
X-1402249Y821903D01*
X-1412052Y823822D01*
X-1421936Y825265D01*
X-1431879Y826229D01*
X-1441856Y826712D01*
X-1451845D01*
X-1461822Y826229D01*
X-1471764Y825265D01*
X-1481649Y823822D01*
X-1491451Y821903D01*
X-1501150Y819512D01*
X-1510722Y816656D01*
X-1520145Y813340D01*
X-1529396Y809573D01*
X-1538455Y805364D01*
X-1547300Y800722D01*
X-1555910Y795658D01*
X-1564265Y790184D01*
X-1572347Y784313D01*
X-1580135Y778058D01*
X-1587612Y771434D01*
X-1594760Y764456D01*
X-1601562Y757142D01*
X-1608004Y749507D01*
X-1614069Y741570D01*
X-1619743Y733349D01*
X-1625013Y724864D01*
X-1629868Y716134D01*
X-1634295Y707180D01*
X-1638284Y698022D01*
X-1641826Y688682D01*
X-1644913Y679182D01*
X-1647537Y669544D01*
X-1649693Y659790D01*
X-1651374Y649944D01*
X-1652578Y640028D01*
X-1653302Y630065D01*
X-1653543Y620079D01*
X-1653302Y610093D01*
X-1652578Y600130D01*
X-1651374Y590214D01*
X-1649693Y580368D01*
X-1647537Y570614D01*
X-1644913Y560976D01*
X-1641826Y551476D01*
X-1638284Y542136D01*
X-1634295Y532979D01*
X-1629868Y524024D01*
X-1625014Y515294D01*
X-1619743Y506809D01*
X-1614069Y498588D01*
X-1608004Y490651D01*
X-1601562Y483017D01*
X-1594760Y475702D01*
X-1587612Y468725D01*
X-1580135Y462101D01*
X-1572347Y455846D01*
X-1564266Y449974D01*
X-1555910Y444500D01*
X-1547300Y439436D01*
X-1538455Y434794D01*
X-1529397Y430585D01*
X-1520145Y426818D01*
X-1510723Y423503D01*
X-1501151Y420646D01*
X-1491452Y418256D01*
X-1481649Y416337D01*
X-1471765Y414893D01*
X-1461823Y413929D01*
X-1451845Y413447D01*
X-1441857Y413447D01*
X-1431879Y413929D01*
X-1421937Y414893D01*
X-1412053Y416336D01*
X-1402250Y418255D01*
X-1392551Y420646D01*
X-1382979Y423502D01*
X-1373557Y426818D01*
X-1364305Y430584D01*
X-1355247Y434794D01*
X-1346402Y439436D01*
X-1337792Y444500D01*
X-1329436Y449974D01*
X-1321355Y455845D01*
X-1313567Y462100D01*
X-1306090Y468724D01*
X-1298942Y475701D01*
X-1292139Y483016D01*
X-1285698Y490650D01*
X-1279633Y498587D01*
X-1273958Y506808D01*
X-1268688Y515293D01*
X-1263833Y524023D01*
X-1259406Y532977D01*
X-1255417Y542135D01*
X-1251875Y551475D01*
X-1248788Y560975D01*
X-1246164Y570613D01*
X-1244008Y580367D01*
X-1242327Y590213D01*
X-1241122Y600129D01*
X-1240399Y610092D01*
X-1240158Y620078D01*
X-413386Y620079D02*
X-413627Y630065D01*
X-414351Y640028D01*
X-415555Y649944D01*
X-417236Y659790D01*
X-419392Y669544D01*
X-422016Y679182D01*
X-425103Y688682D01*
X-428645Y698022D01*
X-432634Y707180D01*
X-437061Y716134D01*
X-441916Y724864D01*
X-447186Y733349D01*
X-452861Y741570D01*
X-458925Y749507D01*
X-465367Y757142D01*
X-472169Y764456D01*
X-479317Y771434D01*
X-486794Y778058D01*
X-494582Y784313D01*
X-502664Y790184D01*
X-511019Y795658D01*
X-519629Y800722D01*
X-528474Y805364D01*
X-537533Y809573D01*
X-546784Y813340D01*
X-556207Y816656D01*
X-565779Y819512D01*
X-575477Y821903D01*
X-585280Y823822D01*
X-595164Y825265D01*
X-605107Y826229D01*
X-615084Y826712D01*
X-625073D01*
X-635050Y826229D01*
X-644993Y825265D01*
X-654877Y823822D01*
X-664680Y821903D01*
X-674378Y819512D01*
X-683950Y816656D01*
X-693373Y813340D01*
X-702625Y809573D01*
X-711683Y805364D01*
X-720528Y800722D01*
X-729138Y795658D01*
X-737494Y790184D01*
X-745575Y784313D01*
X-753363Y778058D01*
X-760840Y771434D01*
X-767988Y764456D01*
X-774791Y757142D01*
X-781232Y749507D01*
X-787297Y741570D01*
X-792971Y733349D01*
X-798242Y724864D01*
X-803096Y716134D01*
X-807523Y707180D01*
X-811512Y698022D01*
X-815054Y688682D01*
X-818141Y679182D01*
X-820765Y669544D01*
X-822921Y659790D01*
X-824602Y649944D01*
X-825807Y640028D01*
X-826530Y630065D01*
X-826771Y620079D01*
X-826530Y610093D01*
X-825807Y600130D01*
X-824603Y590214D01*
X-822921Y580368D01*
X-820765Y570614D01*
X-818141Y560976D01*
X-815054Y551476D01*
X-811512Y542136D01*
X-807523Y532979D01*
X-803096Y524024D01*
X-798242Y515294D01*
X-792971Y506809D01*
X-787297Y498588D01*
X-781232Y490651D01*
X-774791Y483017D01*
X-767988Y475702D01*
X-760840Y468725D01*
X-753363Y462101D01*
X-745575Y455846D01*
X-737494Y449974D01*
X-729139Y444500D01*
X-720528Y439436D01*
X-711684Y434794D01*
X-702625Y430585D01*
X-693373Y426818D01*
X-683951Y423503D01*
X-674379Y420646D01*
X-664680Y418256D01*
X-654877Y416337D01*
X-644993Y414893D01*
X-635051Y413929D01*
X-625074Y413447D01*
X-615085Y413447D01*
X-605107Y413929D01*
X-595165Y414893D01*
X-585281Y416336D01*
X-575478Y418255D01*
X-565780Y420646D01*
X-556208Y423502D01*
X-546785Y426818D01*
X-537534Y430584D01*
X-528475Y434794D01*
X-519630Y439436D01*
X-511020Y444500D01*
X-502664Y449974D01*
X-494583Y455845D01*
X-486795Y462100D01*
X-479318Y468724D01*
X-472170Y475701D01*
X-465367Y483016D01*
X-458926Y490650D01*
X-452861Y498587D01*
X-447187Y506808D01*
X-441916Y515293D01*
X-437062Y524023D01*
X-432635Y532977D01*
X-428645Y542135D01*
X-425103Y551475D01*
X-422016Y560975D01*
X-419392Y570613D01*
X-417237Y580367D01*
X-415555Y590213D01*
X-414351Y600129D01*
X-413627Y610092D01*
X-413386Y620078D01*
X413386Y620079D02*
X413145Y630065D01*
X412421Y640028D01*
X411217Y649944D01*
X409535Y659790D01*
X407380Y669544D01*
X404756Y679182D01*
X401669Y688682D01*
X398127Y698022D01*
X394138Y707180D01*
X389711Y716134D01*
X384856Y724864D01*
X379586Y733349D01*
X373911Y741570D01*
X367846Y749507D01*
X361405Y757142D01*
X354602Y764456D01*
X347454Y771434D01*
X339978Y778058D01*
X332189Y784313D01*
X324108Y790184D01*
X315753Y795658D01*
X307143Y800722D01*
X298298Y805364D01*
X289239Y809573D01*
X279988Y813340D01*
X270565Y816656D01*
X260993Y819512D01*
X251294Y821903D01*
X241491Y823822D01*
X231607Y825265D01*
X221665Y826229D01*
X211688Y826712D01*
X201699D01*
X191721Y826229D01*
X181779Y825265D01*
X171895Y823822D01*
X162092Y821903D01*
X152393Y819512D01*
X142821Y816656D01*
X133399Y813340D01*
X124147Y809573D01*
X115088Y805364D01*
X106244Y800722D01*
X97634Y795658D01*
X89278Y790184D01*
X81197Y784313D01*
X73409Y778058D01*
X65932Y771434D01*
X58784Y764456D01*
X51981Y757142D01*
X45540Y749507D01*
X39475Y741570D01*
X33801Y733349D01*
X28530Y724864D01*
X23676Y716134D01*
X19249Y707180D01*
X15259Y698022D01*
X11717Y688682D01*
X8631Y679182D01*
X6006Y669544D01*
X3851Y659790D01*
X2169Y649944D01*
X965Y640028D01*
X242Y630065D01*
X0Y620079D01*
X242Y610093D01*
X965Y600130D01*
X2169Y590214D01*
X3851Y580368D01*
X6006Y570614D01*
X8630Y560976D01*
X11717Y551476D01*
X15259Y542136D01*
X19249Y532979D01*
X23676Y524024D01*
X28530Y515294D01*
X33801Y506809D01*
X39475Y498588D01*
X45540Y490651D01*
X51981Y483017D01*
X58784Y475702D01*
X65932Y468725D01*
X73409Y462101D01*
X81197Y455846D01*
X89278Y449974D01*
X97633Y444500D01*
X106243Y439436D01*
X115088Y434794D01*
X124147Y430585D01*
X133398Y426818D01*
X142821Y423503D01*
X152393Y420646D01*
X162092Y418256D01*
X171894Y416337D01*
X181779Y414893D01*
X191721Y413929D01*
X201698Y413447D01*
X211687Y413447D01*
X221664Y413929D01*
X231607Y414893D01*
X241491Y416336D01*
X251293Y418255D01*
X260992Y420646D01*
X270564Y423502D01*
X279987Y426818D01*
X289238Y430584D01*
X298297Y434794D01*
X307142Y439436D01*
X315752Y444500D01*
X324107Y449974D01*
X332189Y455845D01*
X339977Y462100D01*
X347454Y468724D01*
X354602Y475701D01*
X361404Y483016D01*
X367846Y490650D01*
X373911Y498587D01*
X379585Y506808D01*
X384856Y515293D01*
X389710Y524023D01*
X394137Y532977D01*
X398127Y542135D01*
X401669Y551475D01*
X404755Y560975D01*
X407380Y570613D01*
X409535Y580367D01*
X411217Y590213D01*
X412421Y600129D01*
X413145Y610092D01*
X413386Y620078D01*
X1240158Y620079D02*
X1239917Y630065D01*
X1239193Y640028D01*
X1237989Y649944D01*
X1236307Y659790D01*
X1234152Y669544D01*
X1231528Y679182D01*
X1228441Y688682D01*
X1224899Y698022D01*
X1220909Y707180D01*
X1216483Y716134D01*
X1211628Y724864D01*
X1206357Y733349D01*
X1200683Y741570D01*
X1194618Y749507D01*
X1188177Y757142D01*
X1181374Y764456D01*
X1174226Y771434D01*
X1166749Y778058D01*
X1158961Y784313D01*
X1150880Y790184D01*
X1142524Y795658D01*
X1133914Y800722D01*
X1125070Y805364D01*
X1116011Y809573D01*
X1106759Y813340D01*
X1097337Y816656D01*
X1087765Y819512D01*
X1078066Y821903D01*
X1068263Y823822D01*
X1058379Y825265D01*
X1048437Y826229D01*
X1038459Y826712D01*
X1028470D01*
X1018493Y826229D01*
X1008551Y825265D01*
X998667Y823822D01*
X988864Y821903D01*
X979165Y819512D01*
X969593Y816656D01*
X960171Y813340D01*
X950919Y809573D01*
X941860Y805364D01*
X933015Y800722D01*
X924405Y795658D01*
X916050Y790184D01*
X907969Y784313D01*
X900181Y778058D01*
X892704Y771434D01*
X885556Y764456D01*
X878753Y757142D01*
X872312Y749507D01*
X866247Y741570D01*
X860572Y733349D01*
X855302Y724864D01*
X850447Y716134D01*
X846020Y707180D01*
X842031Y698022D01*
X838489Y688682D01*
X835402Y679182D01*
X832778Y669544D01*
X830623Y659790D01*
X828941Y649944D01*
X827737Y640028D01*
X827014Y630065D01*
X826772Y620079D01*
X827014Y610093D01*
X827737Y600130D01*
X828941Y590214D01*
X830623Y580368D01*
X832778Y570614D01*
X835402Y560976D01*
X838489Y551476D01*
X842031Y542136D01*
X846020Y532979D01*
X850447Y524024D01*
X855302Y515294D01*
X860572Y506809D01*
X866247Y498588D01*
X872312Y490651D01*
X878753Y483017D01*
X885556Y475702D01*
X892704Y468725D01*
X900180Y462101D01*
X907968Y455846D01*
X916050Y449974D01*
X924405Y444500D01*
X933015Y439436D01*
X941860Y434794D01*
X950919Y430585D01*
X960170Y426818D01*
X969593Y423503D01*
X979165Y420646D01*
X988863Y418256D01*
X998666Y416337D01*
X1008550Y414893D01*
X1018493Y413929D01*
X1028470Y413447D01*
X1038459Y413447D01*
X1048436Y413929D01*
X1058378Y414893D01*
X1068263Y416336D01*
X1078065Y418255D01*
X1087764Y420646D01*
X1097336Y423502D01*
X1106759Y426818D01*
X1116010Y430584D01*
X1125069Y434794D01*
X1133914Y439436D01*
X1142524Y444500D01*
X1150879Y449974D01*
X1158960Y455845D01*
X1166749Y462100D01*
X1174226Y468724D01*
X1181374Y475701D01*
X1188176Y483016D01*
X1194618Y490650D01*
X1200682Y498587D01*
X1206357Y506808D01*
X1211628Y515293D01*
X1216482Y524023D01*
X1220909Y532977D01*
X1224898Y542135D01*
X1228440Y551475D01*
X1231527Y560975D01*
X1234151Y570613D01*
X1236307Y580367D01*
X1237989Y590213D01*
X1239193Y600129D01*
X1239917Y610092D01*
X1240158Y620078D01*
X-1240158Y1033465D02*
X-1240399Y1043451D01*
X-1241122Y1053414D01*
X-1242326Y1063330D01*
X-1244008Y1073176D01*
X-1246164Y1082930D01*
X-1248788Y1092568D01*
X-1251874Y1102068D01*
X-1255417Y1111408D01*
X-1259406Y1120566D01*
X-1263833Y1129520D01*
X-1268687Y1138250D01*
X-1273958Y1146735D01*
X-1279632Y1154956D01*
X-1285697Y1162893D01*
X-1292139Y1170528D01*
X-1298941Y1177842D01*
X-1306089Y1184820D01*
X-1313566Y1191444D01*
X-1321354Y1197698D01*
X-1329435Y1203570D01*
X-1337791Y1209044D01*
X-1346401Y1214108D01*
X-1355246Y1218750D01*
X-1364304Y1222959D01*
X-1373556Y1226726D01*
X-1382979Y1230042D01*
X-1392551Y1232898D01*
X-1402249Y1235288D01*
X-1412052Y1237208D01*
X-1421936Y1238651D01*
X-1431879Y1239615D01*
X-1441856Y1240098D01*
X-1451845D01*
X-1461822Y1239615D01*
X-1471764Y1238651D01*
X-1481649Y1237208D01*
X-1491451Y1235288D01*
X-1501150Y1232898D01*
X-1510722Y1230042D01*
X-1520145Y1226726D01*
X-1529396Y1222959D01*
X-1538455Y1218750D01*
X-1547300Y1214108D01*
X-1555910Y1209044D01*
X-1564265Y1203570D01*
X-1572347Y1197698D01*
X-1580135Y1191444D01*
X-1587612Y1184820D01*
X-1594760Y1177842D01*
X-1601562Y1170528D01*
X-1608004Y1162893D01*
X-1614069Y1154956D01*
X-1619743Y1146735D01*
X-1625013Y1138250D01*
X-1629868Y1129520D01*
X-1634295Y1120566D01*
X-1638284Y1111408D01*
X-1641826Y1102068D01*
X-1644913Y1092568D01*
X-1647537Y1082930D01*
X-1649693Y1073176D01*
X-1651374Y1063330D01*
X-1652578Y1053414D01*
X-1653302Y1043451D01*
X-1653543Y1033465D01*
X-1653302Y1023479D01*
X-1652578Y1013516D01*
X-1651374Y1003600D01*
X-1649693Y993754D01*
X-1647537Y984000D01*
X-1644913Y974362D01*
X-1641826Y964862D01*
X-1638284Y955522D01*
X-1634295Y946365D01*
X-1629868Y937410D01*
X-1625014Y928680D01*
X-1619743Y920195D01*
X-1614069Y911974D01*
X-1608004Y904037D01*
X-1601562Y896403D01*
X-1594760Y889088D01*
X-1587612Y882111D01*
X-1580135Y875487D01*
X-1572347Y869232D01*
X-1564266Y863360D01*
X-1555910Y857886D01*
X-1547300Y852822D01*
X-1538455Y848180D01*
X-1529397Y843971D01*
X-1520145Y840204D01*
X-1510723Y836889D01*
X-1501151Y834032D01*
X-1491452Y831642D01*
X-1481649Y829722D01*
X-1471765Y828279D01*
X-1461823Y827315D01*
X-1451845Y826832D01*
X-1441857Y826832D01*
X-1431879Y827315D01*
X-1421937Y828279D01*
X-1412053Y829722D01*
X-1402250Y831641D01*
X-1392551Y834032D01*
X-1382979Y836888D01*
X-1373557Y840203D01*
X-1364305Y843970D01*
X-1355247Y848180D01*
X-1346402Y852822D01*
X-1337792Y857886D01*
X-1329436Y863360D01*
X-1321355Y869231D01*
X-1313567Y875486D01*
X-1306090Y882110D01*
X-1298942Y889087D01*
X-1292139Y896402D01*
X-1285698Y904036D01*
X-1279633Y911973D01*
X-1273958Y920194D01*
X-1268688Y928679D01*
X-1263833Y937409D01*
X-1259406Y946363D01*
X-1255417Y955521D01*
X-1251875Y964861D01*
X-1248788Y974361D01*
X-1246164Y983999D01*
X-1244008Y993753D01*
X-1242327Y1003599D01*
X-1241122Y1013515D01*
X-1240399Y1023478D01*
X-1240158Y1033464D01*
X-413386Y1033465D02*
X-413627Y1043451D01*
X-414351Y1053414D01*
X-415555Y1063330D01*
X-417236Y1073176D01*
X-419392Y1082930D01*
X-422016Y1092568D01*
X-425103Y1102068D01*
X-428645Y1111408D01*
X-432634Y1120566D01*
X-437061Y1129520D01*
X-441916Y1138250D01*
X-447186Y1146735D01*
X-452861Y1154956D01*
X-458925Y1162893D01*
X-465367Y1170528D01*
X-472169Y1177842D01*
X-479317Y1184820D01*
X-486794Y1191444D01*
X-494582Y1197698D01*
X-502664Y1203570D01*
X-511019Y1209044D01*
X-519629Y1214108D01*
X-528474Y1218750D01*
X-537533Y1222959D01*
X-546784Y1226726D01*
X-556207Y1230042D01*
X-565779Y1232898D01*
X-575477Y1235288D01*
X-585280Y1237208D01*
X-595164Y1238651D01*
X-605107Y1239615D01*
X-615084Y1240098D01*
X-625073D01*
X-635050Y1239615D01*
X-644993Y1238651D01*
X-654877Y1237208D01*
X-664680Y1235288D01*
X-674378Y1232898D01*
X-683950Y1230042D01*
X-693373Y1226726D01*
X-702625Y1222959D01*
X-711683Y1218750D01*
X-720528Y1214108D01*
X-729138Y1209044D01*
X-737494Y1203570D01*
X-745575Y1197698D01*
X-753363Y1191444D01*
X-760840Y1184820D01*
X-767988Y1177842D01*
X-774791Y1170528D01*
X-781232Y1162893D01*
X-787297Y1154956D01*
X-792971Y1146735D01*
X-798242Y1138250D01*
X-803096Y1129520D01*
X-807523Y1120566D01*
X-811512Y1111408D01*
X-815054Y1102068D01*
X-818141Y1092568D01*
X-820765Y1082930D01*
X-822921Y1073176D01*
X-824602Y1063330D01*
X-825807Y1053414D01*
X-826530Y1043451D01*
X-826771Y1033465D01*
X-826530Y1023479D01*
X-825807Y1013516D01*
X-824603Y1003600D01*
X-822921Y993754D01*
X-820765Y984000D01*
X-818141Y974362D01*
X-815054Y964862D01*
X-811512Y955522D01*
X-807523Y946365D01*
X-803096Y937410D01*
X-798242Y928680D01*
X-792971Y920195D01*
X-787297Y911974D01*
X-781232Y904037D01*
X-774791Y896403D01*
X-767988Y889088D01*
X-760840Y882111D01*
X-753363Y875487D01*
X-745575Y869232D01*
X-737494Y863360D01*
X-729139Y857886D01*
X-720528Y852822D01*
X-711684Y848180D01*
X-702625Y843971D01*
X-693373Y840204D01*
X-683951Y836889D01*
X-674379Y834032D01*
X-664680Y831642D01*
X-654877Y829722D01*
X-644993Y828279D01*
X-635051Y827315D01*
X-625074Y826832D01*
X-615085Y826832D01*
X-605107Y827315D01*
X-595165Y828279D01*
X-585281Y829722D01*
X-575478Y831641D01*
X-565780Y834032D01*
X-556208Y836888D01*
X-546785Y840203D01*
X-537534Y843970D01*
X-528475Y848180D01*
X-519630Y852822D01*
X-511020Y857886D01*
X-502664Y863360D01*
X-494583Y869231D01*
X-486795Y875486D01*
X-479318Y882110D01*
X-472170Y889087D01*
X-465367Y896402D01*
X-458926Y904036D01*
X-452861Y911973D01*
X-447187Y920194D01*
X-441916Y928679D01*
X-437062Y937409D01*
X-432635Y946363D01*
X-428645Y955521D01*
X-425103Y964861D01*
X-422016Y974361D01*
X-419392Y983999D01*
X-417237Y993753D01*
X-415555Y1003599D01*
X-414351Y1013515D01*
X-413627Y1023478D01*
X-413386Y1033464D01*
M02*
