G04*
G04 #@! TF.GenerationSoftware,Altium Limited,Altium Designer,23.3.1 (30)*
G04*
G04 Layer_Color=16711935*
%FSLAX26Y26*%
%MOIN*%
G70*
G04*
G04 #@! TF.SameCoordinates,A73F04FC-B1A5-4ADC-8500-56C492F8F9A9*
G04*
G04*
G04 #@! TF.FilePolarity,Positive*
G04*
G01*
G75*
%ADD31C,0.019685*%
%ADD37C,0.003937*%
D31*
X57095Y826772D02*
X56228Y836686D01*
X53652Y846299D01*
X49446Y855319D01*
X43737Y863472D01*
X36700Y870509D01*
X28548Y876217D01*
X19528Y880423D01*
X9915Y882999D01*
X0Y883867D01*
X-9915Y882999D01*
X-19528Y880423D01*
X-28548Y876217D01*
X-36700Y870509D01*
X-43737Y863472D01*
X-49446Y855319D01*
X-53652Y846299D01*
X-56228Y836686D01*
X-57095Y826772D01*
X-56228Y816857D01*
X-53652Y807244D01*
X-49446Y798224D01*
X-43737Y790072D01*
X-36700Y783034D01*
X-28548Y777326D01*
X-19528Y773120D01*
X-9915Y770544D01*
X0Y769677D01*
X9915Y770544D01*
X19528Y773120D01*
X28548Y777326D01*
X36700Y783034D01*
X43737Y790072D01*
X49446Y798224D01*
X53652Y807244D01*
X56228Y816857D01*
X57095Y826772D01*
X883867Y0D02*
X882999Y9915D01*
X880423Y19528D01*
X876217Y28548D01*
X870509Y36700D01*
X863472Y43737D01*
X855319Y49446D01*
X846299Y53652D01*
X836686Y56228D01*
X826772Y57095D01*
X816857Y56228D01*
X807244Y53652D01*
X798224Y49446D01*
X790072Y43737D01*
X783034Y36700D01*
X777326Y28548D01*
X773120Y19528D01*
X770544Y9915D01*
X769677Y0D01*
X770544Y-9915D01*
X773120Y-19528D01*
X777326Y-28548D01*
X783034Y-36700D01*
X790072Y-43737D01*
X798224Y-49446D01*
X807244Y-53652D01*
X816857Y-56228D01*
X826772Y-57095D01*
X836686Y-56228D01*
X846299Y-53652D01*
X855319Y-49446D01*
X863472Y-43737D01*
X870509Y-36700D01*
X876217Y-28548D01*
X880423Y-19528D01*
X882999Y-9915D01*
X883867Y0D01*
X57095Y-826772D02*
X56228Y-816857D01*
X53652Y-807244D01*
X49446Y-798224D01*
X43737Y-790072D01*
X36700Y-783034D01*
X28548Y-777326D01*
X19528Y-773120D01*
X9915Y-770544D01*
X0Y-769677D01*
X-9915Y-770544D01*
X-19528Y-773120D01*
X-28548Y-777326D01*
X-36700Y-783034D01*
X-43737Y-790072D01*
X-49446Y-798224D01*
X-53652Y-807244D01*
X-56228Y-816857D01*
X-57095Y-826772D01*
X-56228Y-836686D01*
X-53652Y-846299D01*
X-49446Y-855319D01*
X-43737Y-863472D01*
X-36700Y-870509D01*
X-28548Y-876217D01*
X-19528Y-880423D01*
X-9915Y-882999D01*
X0Y-883867D01*
X9915Y-882999D01*
X19528Y-880423D01*
X28548Y-876217D01*
X36700Y-870509D01*
X43737Y-863472D01*
X49446Y-855319D01*
X53652Y-846299D01*
X56228Y-836686D01*
X57095Y-826772D01*
Y0D02*
X56228Y9915D01*
X53652Y19528D01*
X49446Y28548D01*
X43737Y36700D01*
X36700Y43737D01*
X28548Y49446D01*
X19528Y53652D01*
X9915Y56228D01*
X0Y57095D01*
X-9915Y56228D01*
X-19528Y53652D01*
X-28548Y49446D01*
X-36700Y43737D01*
X-43737Y36700D01*
X-49446Y28548D01*
X-53652Y19528D01*
X-56228Y9915D01*
X-57095Y0D01*
X-56228Y-9915D01*
X-53652Y-19528D01*
X-49446Y-28548D01*
X-43737Y-36700D01*
X-36700Y-43737D01*
X-28548Y-49446D01*
X-19528Y-53652D01*
X-9915Y-56228D01*
X0Y-57095D01*
X9915Y-56228D01*
X19528Y-53652D01*
X28548Y-49446D01*
X36700Y-43737D01*
X43737Y-36700D01*
X49446Y-28548D01*
X53652Y-19528D01*
X56228Y-9915D01*
X57095Y0D01*
X-769677D02*
X-770544Y9915D01*
X-773120Y19528D01*
X-777326Y28548D01*
X-783034Y36700D01*
X-790072Y43737D01*
X-798224Y49446D01*
X-807244Y53652D01*
X-816857Y56228D01*
X-826772Y57095D01*
X-836686Y56228D01*
X-846299Y53652D01*
X-855319Y49446D01*
X-863472Y43737D01*
X-870509Y36700D01*
X-876217Y28548D01*
X-880423Y19528D01*
X-882999Y9915D01*
X-883867Y0D01*
X-882999Y-9915D01*
X-880423Y-19528D01*
X-876217Y-28548D01*
X-870509Y-36700D01*
X-863472Y-43737D01*
X-855319Y-49446D01*
X-846299Y-53652D01*
X-836686Y-56228D01*
X-826772Y-57095D01*
X-816857Y-56228D01*
X-807244Y-53652D01*
X-798224Y-49446D01*
X-790072Y-43737D01*
X-783034Y-36700D01*
X-777326Y-28548D01*
X-773120Y-19528D01*
X-770544Y-9915D01*
X-769677Y0D01*
D37*
X-1446849Y1653543D02*
X-1456944Y1653343D01*
X-1467017Y1652649D01*
X-1477044Y1651461D01*
X-1487000Y1649782D01*
X-1496862Y1647617D01*
X-1506606Y1644971D01*
X-1516208Y1641850D01*
X-1525646Y1638261D01*
X-1534896Y1634214D01*
X-1543936Y1629717D01*
X-1552745Y1624782D01*
X-1561301Y1619421D01*
X-1569584Y1613647D01*
X-1577573Y1607474D01*
X-1585250Y1600915D01*
X-1592596Y1593988D01*
X-1599593Y1586709D01*
X-1606225Y1579095D01*
X-1612474Y1571165D01*
X-1618328Y1562938D01*
X-1623770Y1554434D01*
X-1628789Y1545672D01*
X-1633371Y1536675D01*
X-1637507Y1527465D01*
X-1641186Y1518062D01*
X-1644399Y1508490D01*
X-1647139Y1498772D01*
X-1649398Y1488931D01*
X-1651172Y1478991D01*
X-1652456Y1468976D01*
X-1653246Y1458910D01*
X-1653543Y1448818D01*
X-1653543Y-1446850D02*
X-1653343Y-1456945D01*
X-1652649Y-1467018D01*
X-1651461Y-1477045D01*
X-1649782Y-1487001D01*
X-1647617Y-1496863D01*
X-1644971Y-1506607D01*
X-1641849Y-1516209D01*
X-1638261Y-1525647D01*
X-1634213Y-1534897D01*
X-1629717Y-1543937D01*
X-1624782Y-1552746D01*
X-1619421Y-1561302D01*
X-1613647Y-1569585D01*
X-1607473Y-1577574D01*
X-1600915Y-1585251D01*
X-1593988Y-1592597D01*
X-1586708Y-1599594D01*
X-1579095Y-1606225D01*
X-1571165Y-1612475D01*
X-1562938Y-1618328D01*
X-1554433Y-1623771D01*
X-1545672Y-1628790D01*
X-1536675Y-1633372D01*
X-1527464Y-1637508D01*
X-1518061Y-1641187D01*
X-1508489Y-1644400D01*
X-1498771Y-1647139D01*
X-1488931Y-1649399D01*
X-1478991Y-1651172D01*
X-1468976Y-1652456D01*
X-1458910Y-1653247D01*
X-1448818Y-1653543D01*
X1446851Y-1653543D02*
X1456945Y-1653344D01*
X1467018Y-1652649D01*
X1477045Y-1651461D01*
X1487001Y-1649783D01*
X1496863Y-1647618D01*
X1506607Y-1644971D01*
X1516209Y-1641850D01*
X1525647Y-1638261D01*
X1534897Y-1634214D01*
X1543937Y-1629717D01*
X1552746Y-1624783D01*
X1561302Y-1619422D01*
X1569585Y-1613648D01*
X1577574Y-1607474D01*
X1585251Y-1600916D01*
X1592597Y-1593988D01*
X1599594Y-1586709D01*
X1606226Y-1579095D01*
X1612476Y-1571166D01*
X1618329Y-1562938D01*
X1623771Y-1554434D01*
X1628790Y-1545673D01*
X1633373Y-1536676D01*
X1637508Y-1527465D01*
X1641187Y-1518062D01*
X1644400Y-1508490D01*
X1647140Y-1498772D01*
X1649399Y-1488931D01*
X1651173Y-1478992D01*
X1652457Y-1468977D01*
X1653248Y-1458911D01*
X1653544Y-1448818D01*
X1652560Y1446850D02*
X1652360Y1456945D01*
X1651666Y1467017D01*
X1650477Y1477044D01*
X1648799Y1487001D01*
X1646634Y1496862D01*
X1643987Y1506606D01*
X1640866Y1516209D01*
X1637277Y1525646D01*
X1633230Y1534896D01*
X1628734Y1543937D01*
X1623799Y1552745D01*
X1618438Y1561302D01*
X1612664Y1569584D01*
X1606490Y1577574D01*
X1599932Y1585251D01*
X1593005Y1592596D01*
X1585725Y1599593D01*
X1578112Y1606225D01*
X1570182Y1612475D01*
X1561955Y1618328D01*
X1553450Y1623771D01*
X1544689Y1628789D01*
X1535692Y1633372D01*
X1526481Y1637508D01*
X1517078Y1641187D01*
X1507506Y1644399D01*
X1497788Y1647139D01*
X1487947Y1649398D01*
X1478008Y1651172D01*
X1467993Y1652456D01*
X1457927Y1653247D01*
X1447835Y1653543D01*
X-1653543Y788386D02*
X-1643354Y789727D01*
X-1633858Y793660D01*
X-1625705Y799917D01*
X-1619448Y808071D01*
X-1615515Y817566D01*
X-1614173Y827756D01*
X-1615515Y837946D01*
X-1619448Y847441D01*
X-1625705Y855595D01*
X-1633858Y861851D01*
X-1643354Y865784D01*
X-1653543Y867126D01*
Y-39370D02*
X-1643354Y-38029D01*
X-1633858Y-34096D01*
X-1625705Y-27839D01*
X-1619448Y-19685D01*
X-1615515Y-10190D01*
X-1614173Y-0D01*
X-1615515Y10190D01*
X-1619448Y19685D01*
X-1625705Y27839D01*
X-1633858Y34095D01*
X-1643354Y38029D01*
X-1653543Y39370D01*
Y-866142D02*
X-1643354Y-864800D01*
X-1633858Y-860867D01*
X-1625705Y-854611D01*
X-1619448Y-846457D01*
X-1615515Y-836962D01*
X-1614173Y-826772D01*
X-1615515Y-816582D01*
X-1619448Y-807087D01*
X-1625705Y-798933D01*
X-1633858Y-792676D01*
X-1643354Y-788743D01*
X-1653543Y-787402D01*
X1652559Y-788386D02*
X1642369Y-789727D01*
X1632874Y-793660D01*
X1624720Y-799917D01*
X1618464Y-808071D01*
X1614530Y-817566D01*
X1613189Y-827756D01*
X1614530Y-837946D01*
X1618464Y-847441D01*
X1624720Y-855595D01*
X1632874Y-861851D01*
X1642369Y-865784D01*
X1652559Y-867126D01*
Y39370D02*
X1642369Y38029D01*
X1632874Y34096D01*
X1624720Y27839D01*
X1618464Y19685D01*
X1614530Y10190D01*
X1613189Y0D01*
X1614530Y-10190D01*
X1618464Y-19685D01*
X1624720Y-27839D01*
X1632874Y-34095D01*
X1642369Y-38029D01*
X1652559Y-39370D01*
Y866142D02*
X1642369Y864800D01*
X1632874Y860867D01*
X1624720Y854611D01*
X1618464Y846457D01*
X1614530Y836962D01*
X1613189Y826772D01*
X1614530Y816582D01*
X1618464Y807087D01*
X1624720Y798933D01*
X1632874Y792676D01*
X1642369Y788743D01*
X1652559Y787402D01*
X788386Y1653543D02*
X789727Y1643353D01*
X793660Y1633858D01*
X799917Y1625704D01*
X808071Y1619448D01*
X817566Y1615515D01*
X827756Y1614173D01*
X837946Y1615515D01*
X847441Y1619448D01*
X855595Y1625704D01*
X861851Y1633858D01*
X865784Y1643353D01*
X867126Y1653543D01*
X-39370D02*
X-38029Y1643353D01*
X-34096Y1633858D01*
X-27839Y1625704D01*
X-19685Y1619448D01*
X-10190Y1615515D01*
X0Y1614173D01*
X10190Y1615515D01*
X19685Y1619448D01*
X27839Y1625704D01*
X34096Y1633858D01*
X38029Y1643353D01*
X39370Y1653543D01*
X-866142D02*
X-864800Y1643353D01*
X-860867Y1633858D01*
X-854611Y1625704D01*
X-846457Y1619448D01*
X-836961Y1615515D01*
X-826772Y1614173D01*
X-816582Y1615515D01*
X-807087Y1619448D01*
X-798933Y1625704D01*
X-792676Y1633858D01*
X-788743Y1643353D01*
X-787402Y1653543D01*
X866142Y-1653543D02*
X864800Y-1643354D01*
X860867Y-1633858D01*
X854611Y-1625704D01*
X846457Y-1619448D01*
X836961Y-1615515D01*
X826772Y-1614173D01*
X816582Y-1615515D01*
X807087Y-1619448D01*
X798933Y-1625704D01*
X792676Y-1633858D01*
X788743Y-1643354D01*
X787402Y-1653543D01*
X39370D02*
X38029Y-1643354D01*
X34096Y-1633858D01*
X27839Y-1625704D01*
X19685Y-1619448D01*
X10190Y-1615515D01*
X0Y-1614173D01*
X-10190Y-1615515D01*
X-19685Y-1619448D01*
X-27839Y-1625704D01*
X-34096Y-1633858D01*
X-38029Y-1643354D01*
X-39370Y-1653543D01*
X-788386D02*
X-789727Y-1643354D01*
X-793660Y-1633858D01*
X-799917Y-1625704D01*
X-808071Y-1619448D01*
X-817566Y-1615515D01*
X-827756Y-1614173D01*
X-837946Y-1615515D01*
X-847441Y-1619448D01*
X-855595Y-1625704D01*
X-861851Y-1633858D01*
X-865784Y-1643354D01*
X-867126Y-1653543D01*
X-1446849Y1653543D02*
X-866141D01*
X867127D02*
X1447835D01*
X39371D02*
X788387D01*
X-787401D02*
X-39369D01*
X1652560Y866142D02*
Y1446850D01*
X-1653543Y867126D02*
Y1447834D01*
Y39370D02*
Y788386D01*
Y-787402D02*
Y-39370D01*
Y-1446850D02*
Y-866142D01*
X1652560Y-1447834D02*
Y-867126D01*
Y-788386D02*
Y-39370D01*
Y39370D02*
Y787402D01*
X866143Y-1653543D02*
X1446851D01*
X39371D02*
X787403D01*
X-788385D02*
X-39369D01*
X-1447835D02*
X-867125D01*
M02*
