G04*
G04 #@! TF.GenerationSoftware,Altium Limited,Altium Designer,23.5.1 (21)*
G04*
G04 Layer_Color=65535*
%FSLAX26Y26*%
%MOIN*%
G70*
G04*
G04 #@! TF.SameCoordinates,34754160-EC67-4D61-A336-4AE92D18F558*
G04*
G04*
G04 #@! TF.FilePolarity,Positive*
G04*
G01*
G75*
%ADD10C,0.005906*%
%ADD11C,0.007874*%
%ADD12C,0.009842*%
%ADD13C,0.078740*%
%ADD14C,0.003937*%
%ADD15C,0.005000*%
%ADD16C,0.008000*%
%ADD17C,0.011811*%
%ADD18C,0.010000*%
%ADD19C,0.009055*%
G36*
X572718Y-1097671D02*
X573899D01*
Y-1102791D01*
X572718D01*
Y-1103971D01*
X571538D01*
Y-1105551D01*
X570359D01*
Y-1106731D01*
X568779D01*
Y-1107911D01*
X567598D01*
Y-1109091D01*
X566418D01*
Y-1110271D01*
X565239D01*
Y-1111841D01*
X562479D01*
Y-1113031D01*
X571538D01*
Y-1114211D01*
X573899D01*
Y-1120511D01*
X572718D01*
Y-1121691D01*
X541218D01*
Y-1119321D01*
X540038D01*
Y-1116571D01*
X541218D01*
Y-1114211D01*
X543578D01*
Y-1113031D01*
X551458D01*
Y-1111841D01*
X549879D01*
Y-1110271D01*
X548698D01*
Y-1109091D01*
X547519D01*
Y-1107911D01*
X546338D01*
Y-1106731D01*
X543578D01*
Y-1105551D01*
X542399D01*
Y-1103971D01*
X541218D01*
Y-1102791D01*
X540038D01*
Y-1099251D01*
X541218D01*
Y-1097671D01*
X542399D01*
Y-1096491D01*
X547519D01*
Y-1097671D01*
X548698D01*
Y-1099251D01*
X549879D01*
Y-1100431D01*
X551458D01*
Y-1101611D01*
X552639D01*
Y-1102791D01*
X553818D01*
Y-1103971D01*
X554999D01*
Y-1105551D01*
X556178D01*
Y-1106731D01*
X558938D01*
Y-1105551D01*
X560119D01*
Y-1103971D01*
X561298D01*
Y-1102791D01*
X562479D01*
Y-1101611D01*
X564058D01*
Y-1100431D01*
X565239D01*
Y-1099251D01*
X566418D01*
Y-1097671D01*
X567598D01*
Y-1096491D01*
X572718D01*
Y-1097671D01*
D02*
G37*
G36*
X571538Y-1125621D02*
X573899D01*
Y-1131921D01*
X572718D01*
Y-1133101D01*
X571538D01*
Y-1134291D01*
X570359D01*
Y-1135471D01*
X568779D01*
Y-1137041D01*
X566418D01*
Y-1138221D01*
X565239D01*
Y-1139401D01*
X564058D01*
Y-1140581D01*
X561298D01*
Y-1141771D01*
X560119D01*
Y-1143341D01*
X558938D01*
Y-1144521D01*
X556178D01*
Y-1145701D01*
X572718D01*
Y-1146881D01*
X573899D01*
Y-1153181D01*
X572718D01*
Y-1154361D01*
X542399D01*
Y-1153181D01*
X541218D01*
Y-1150821D01*
X540038D01*
Y-1149641D01*
X541218D01*
Y-1146881D01*
X542399D01*
Y-1145701D01*
X543578D01*
Y-1144521D01*
X545159D01*
Y-1143341D01*
X547519D01*
Y-1141771D01*
X548698D01*
Y-1140581D01*
X549879D01*
Y-1139401D01*
X552639D01*
Y-1138221D01*
X553818D01*
Y-1137041D01*
X554999D01*
Y-1135471D01*
X557759D01*
Y-1134291D01*
X558938D01*
Y-1133101D01*
X541218D01*
Y-1129171D01*
X540038D01*
Y-1127991D01*
X541218D01*
Y-1125621D01*
X543578D01*
Y-1124441D01*
X571538D01*
Y-1125621D01*
D02*
G37*
G36*
X567598Y-1158301D02*
X570359D01*
Y-1159481D01*
X571538D01*
Y-1160661D01*
X572718D01*
Y-1163421D01*
X573899D01*
Y-1168541D01*
X575078D01*
Y-1170901D01*
X573899D01*
Y-1174841D01*
X572718D01*
Y-1177201D01*
X571538D01*
Y-1178381D01*
X570359D01*
Y-1179561D01*
X568779D01*
Y-1181141D01*
X564058D01*
Y-1179561D01*
X562479D01*
Y-1174841D01*
X564058D01*
Y-1173261D01*
X565239D01*
Y-1172081D01*
X566418D01*
Y-1165781D01*
X561298D01*
Y-1169721D01*
X560119D01*
Y-1174841D01*
X558938D01*
Y-1177201D01*
X557759D01*
Y-1178381D01*
X556178D01*
Y-1179561D01*
X553818D01*
Y-1181141D01*
X546338D01*
Y-1179561D01*
X543578D01*
Y-1178381D01*
X542399D01*
Y-1176021D01*
X541218D01*
Y-1173261D01*
X540038D01*
Y-1164601D01*
X541218D01*
Y-1162241D01*
X542399D01*
Y-1160661D01*
X543578D01*
Y-1159481D01*
X545159D01*
Y-1158301D01*
X546338D01*
Y-1159481D01*
X548698D01*
Y-1160661D01*
X549879D01*
Y-1165781D01*
X548698D01*
Y-1166961D01*
X547519D01*
Y-1170901D01*
X548698D01*
Y-1172081D01*
X552639D01*
Y-1168541D01*
X553818D01*
Y-1163421D01*
X554999D01*
Y-1160661D01*
X556178D01*
Y-1159481D01*
X557759D01*
Y-1158301D01*
X558938D01*
Y-1157121D01*
X567598D01*
Y-1158301D01*
D02*
G37*
G36*
X547519Y-1184681D02*
X549879D01*
Y-1185861D01*
X552639D01*
Y-1187431D01*
X554999D01*
Y-1188621D01*
X557759D01*
Y-1189801D01*
X560119D01*
Y-1190981D01*
X562479D01*
Y-1192161D01*
X565239D01*
Y-1193731D01*
X567598D01*
Y-1194921D01*
X570359D01*
Y-1196101D01*
X572718D01*
Y-1197281D01*
X573899D01*
Y-1202401D01*
X572718D01*
Y-1204761D01*
X570359D01*
Y-1206331D01*
X566418D01*
Y-1207511D01*
X564058D01*
Y-1208691D01*
X561298D01*
Y-1209881D01*
X558938D01*
Y-1211061D01*
X556178D01*
Y-1212631D01*
X553818D01*
Y-1213811D01*
X551458D01*
Y-1214991D01*
X548698D01*
Y-1216171D01*
X546338D01*
Y-1217361D01*
X542399D01*
Y-1216171D01*
X541218D01*
Y-1213811D01*
X540038D01*
Y-1211061D01*
X541218D01*
Y-1209881D01*
X542399D01*
Y-1208691D01*
X546338D01*
Y-1207511D01*
X548698D01*
Y-1206331D01*
X551458D01*
Y-1204761D01*
X553818D01*
Y-1203581D01*
X556178D01*
Y-1202401D01*
X558938D01*
Y-1201211D01*
X561298D01*
Y-1200031D01*
X560119D01*
Y-1198461D01*
X557759D01*
Y-1197281D01*
X554999D01*
Y-1196101D01*
X551458D01*
Y-1194921D01*
X548698D01*
Y-1193731D01*
X546338D01*
Y-1192161D01*
X543578D01*
Y-1190981D01*
X541218D01*
Y-1189801D01*
X540038D01*
Y-1187431D01*
X541218D01*
Y-1184681D01*
X542399D01*
Y-1183501D01*
X547519D01*
Y-1184681D01*
D02*
G37*
D10*
X662402Y1656890D02*
X652600Y1656408D01*
X642893Y1654968D01*
X633373Y1652584D01*
X624133Y1649278D01*
X615262Y1645082D01*
X606845Y1640037D01*
X598962Y1634191D01*
X591691Y1627601D01*
X585101Y1620329D01*
X579255Y1612447D01*
X574210Y1604030D01*
X570014Y1595158D01*
X566708Y1585918D01*
X564323Y1576399D01*
X562883Y1566691D01*
X562402Y1556890D01*
X1462402D02*
X1461920Y1566691D01*
X1460480Y1576399D01*
X1458096Y1585918D01*
X1454790Y1595158D01*
X1450594Y1604030D01*
X1445549Y1612447D01*
X1439703Y1620329D01*
X1433112Y1627601D01*
X1425841Y1634191D01*
X1417959Y1640037D01*
X1409541Y1645082D01*
X1400670Y1649278D01*
X1391430Y1652584D01*
X1381911Y1654968D01*
X1372203Y1656408D01*
X1362402Y1656890D01*
Y-343110D02*
X1372203Y-342629D01*
X1381911Y-341189D01*
X1391430Y-338804D01*
X1400670Y-335498D01*
X1409541Y-331302D01*
X1417959Y-326257D01*
X1425841Y-320411D01*
X1433112Y-313821D01*
X1439703Y-306550D01*
X1445549Y-298667D01*
X1450594Y-290250D01*
X1454790Y-281378D01*
X1458096Y-272139D01*
X1460480Y-262619D01*
X1461920Y-252912D01*
X1462402Y-243110D01*
X562402D02*
X562883Y-252912D01*
X564323Y-262619D01*
X566708Y-272139D01*
X570014Y-281378D01*
X574210Y-290250D01*
X579255Y-298667D01*
X585101Y-306550D01*
X591691Y-313821D01*
X598962Y-320411D01*
X606845Y-326257D01*
X615262Y-331302D01*
X624133Y-335498D01*
X633373Y-338804D01*
X642893Y-341189D01*
X652600Y-342629D01*
X662402Y-343110D01*
Y1656890D02*
X922402D01*
X942402Y1636890D01*
X1082402D01*
X1102402Y1656890D01*
X1362402D01*
X1462402Y-243110D02*
Y1556890D01*
X662402Y-343110D02*
X1362402D01*
X562402Y-243110D02*
Y1556890D01*
D11*
X466969Y-696691D02*
X466571Y-686628D01*
X465364Y-676629D01*
X463356Y-666759D01*
X460561Y-657083D01*
X456995Y-647664D01*
X452683Y-638562D01*
X447651Y-629837D01*
X441934Y-621546D01*
X435568Y-613741D01*
X428594Y-606475D01*
X421058Y-599793D01*
X413008Y-593740D01*
X404497Y-588355D01*
X395580Y-583672D01*
X386316Y-579722D01*
X376763Y-576532D01*
X366984Y-574120D01*
X357043Y-572504D01*
X347004Y-571693D01*
X336933D01*
X326894Y-572504D01*
X316953Y-574120D01*
X307174Y-576532D01*
X297621Y-579722D01*
X288356Y-583672D01*
X279440Y-588355D01*
X270929Y-593740D01*
X262879Y-599793D01*
X255343Y-606475D01*
X248369Y-613741D01*
X242003Y-621546D01*
X236285Y-629837D01*
X231254Y-638562D01*
X226942Y-647664D01*
X223376Y-657083D01*
X220581Y-666759D01*
X218573Y-676629D01*
X217366Y-686628D01*
X216969Y-696691D01*
X505906Y42439D02*
X495984Y41104D01*
X486768Y37192D01*
X478916Y30982D01*
X472985Y22916D01*
X469398Y13570D01*
X468411Y3607D01*
X470093Y-6262D01*
X474325Y-15334D01*
X480806Y-22965D01*
X489074Y-28610D01*
X498541Y-31867D01*
X508532Y-32505D01*
X505906Y142833D02*
X495984Y141497D01*
X486768Y137585D01*
X478916Y131375D01*
X472985Y123310D01*
X469398Y113963D01*
X468411Y104001D01*
X470093Y94132D01*
X474325Y85059D01*
X480806Y77429D01*
X489074Y71784D01*
X498541Y68527D01*
X508532Y67889D01*
X505906Y241258D02*
X495984Y239923D01*
X486768Y236011D01*
X478916Y229801D01*
X472985Y221735D01*
X469398Y212389D01*
X468411Y202426D01*
X470093Y192557D01*
X474325Y183485D01*
X480806Y175854D01*
X489074Y170209D01*
X498541Y166952D01*
X508532Y166314D01*
X505906Y342636D02*
X495984Y341300D01*
X486768Y337388D01*
X478916Y331179D01*
X472985Y323113D01*
X469398Y313767D01*
X468411Y303804D01*
X470093Y293935D01*
X474325Y284863D01*
X480806Y277232D01*
X489074Y271587D01*
X498541Y268330D01*
X508532Y267692D01*
X505906Y439093D02*
X495984Y437757D01*
X486768Y433845D01*
X478916Y427635D01*
X472985Y419570D01*
X469398Y410223D01*
X468411Y400261D01*
X470093Y390392D01*
X474325Y381319D01*
X480806Y373689D01*
X489074Y368044D01*
X498541Y364787D01*
X508532Y364149D01*
X-1508268Y-988583D02*
X-1308268D01*
X-1508268Y1211417D02*
X-1308268D01*
Y-988583D02*
Y1211417D01*
X-1508268Y-988583D02*
Y1211417D01*
X191732Y-988583D02*
X391732D01*
X191732D02*
Y1211417D01*
X391732Y-988583D02*
Y1211417D01*
X191732D02*
X391732D01*
X-1513063Y-995299D02*
X396386D01*
Y1611984D01*
X-1513063D02*
X396386D01*
X-1513063Y-995299D02*
Y1611984D01*
X216969Y-1621591D02*
Y-696691D01*
X1613919Y-1621591D02*
Y-821591D01*
X216969Y-1621591D02*
X466969D01*
X1366968Y-821591D02*
X1613919D01*
X1366968Y-1621591D02*
X1613919D01*
X466969D02*
X1366968D01*
X466969Y-821591D02*
Y-696591D01*
Y-821591D02*
X1366968D01*
X586968Y-1362041D02*
Y-1345491D01*
X236379Y-1362041D02*
X586968D01*
X511969Y-1231491D02*
Y-1088731D01*
Y-1360491D02*
Y-1231491D01*
X237969D02*
X511969D01*
X1068898Y-458661D02*
X1490158D01*
X1068898Y-438976D02*
X1490158D01*
X1068898Y-624016D02*
X1490158D01*
X1068898D02*
Y-438976D01*
X1490158Y-624016D02*
Y-438976D01*
X421260Y161909D02*
X455709Y196358D01*
X421260Y-371063D02*
Y161909D01*
Y-371063D02*
X559055Y-508858D01*
Y-669291D02*
X584646Y-694882D01*
X559055Y-669291D02*
Y-348425D01*
X580709Y-326772D01*
X455709Y-30512D02*
X480315Y-55118D01*
X455709Y-30512D02*
Y423228D01*
X478346Y445866D01*
Y446850D01*
X1364173Y753937D02*
X1520079D01*
X1318898Y716535D02*
X1345472D01*
X1364173Y735236D01*
Y772638D01*
X1347441Y789370D02*
X1364173Y772638D01*
X1317913Y789370D02*
X1347441D01*
X72799Y1547908D02*
Y1587265D01*
X46561D01*
X33442Y1547908D02*
X20323D01*
X26883D01*
Y1587265D01*
X33442D01*
X20323D01*
X644D02*
Y1547908D01*
X-25594Y1587265D01*
Y1547908D01*
X-38713D02*
Y1587265D01*
Y1574146D01*
X-64951Y1547908D01*
X-45273Y1567586D01*
X-64951Y1587265D01*
X-78070Y1593825D02*
X-104309D01*
X-117428Y1547908D02*
Y1587265D01*
X-137107D01*
X-143666Y1580705D01*
Y1574146D01*
X-137107Y1567586D01*
X-117428D01*
X-137107D01*
X-143666Y1561027D01*
Y1554467D01*
X-137107Y1547908D01*
X-117428D01*
X-1423228Y-1167323D02*
Y-1127966D01*
X-1403550D01*
X-1396990Y-1134525D01*
Y-1147644D01*
X-1403550Y-1154204D01*
X-1423228D01*
X-1410109D02*
X-1396990Y-1167323D01*
X-1364192D02*
X-1377311D01*
X-1383871Y-1160763D01*
Y-1147644D01*
X-1377311Y-1141085D01*
X-1364192D01*
X-1357633Y-1147644D01*
Y-1154204D01*
X-1383871D01*
X-1344514Y-1141085D02*
X-1331395Y-1167323D01*
X-1318275Y-1141085D01*
X-1239561Y-1167323D02*
X-1265799D01*
X-1239561Y-1141085D01*
Y-1134525D01*
X-1246120Y-1127966D01*
X-1259239D01*
X-1265799Y-1134525D01*
X-356334Y1543971D02*
Y1583328D01*
X-382572D01*
X-395692Y1543971D02*
X-408811D01*
X-402251D01*
Y1583328D01*
X-395692D01*
X-408811D01*
X-428490D02*
Y1543971D01*
X-454728Y1583328D01*
Y1543971D01*
X-467847D02*
Y1583328D01*
Y1570209D01*
X-494085Y1543971D01*
X-474406Y1563649D01*
X-494085Y1583328D01*
X-507204Y1589888D02*
X-533442D01*
X-546562Y1583328D02*
Y1557090D01*
X-559681Y1543971D01*
X-572800Y1557090D01*
Y1583328D01*
Y1563649D01*
X-546562D01*
X144018Y622041D02*
Y582683D01*
X124339D01*
X117780Y589243D01*
Y602362D01*
X124339Y608922D01*
X144018D01*
X130899D02*
X117780Y622041D01*
X78422D02*
X104661D01*
X78422Y595803D01*
Y589243D01*
X84982Y582683D01*
X98101D01*
X104661Y589243D01*
X1602205Y-1237822D02*
X1573342D01*
X1558911D02*
X1530049D01*
X1515618Y-1216176D02*
X1493972Y-1237822D01*
X1515618Y-1259469D01*
X1436248D02*
Y-1223391D01*
X1429032Y-1216176D01*
X1414601D01*
X1407386Y-1223391D01*
Y-1259469D01*
X1364092Y-1252253D02*
X1371308Y-1259469D01*
X1385739D01*
X1392955Y-1252253D01*
Y-1245038D01*
X1385739Y-1237822D01*
X1371308D01*
X1364092Y-1230607D01*
Y-1223391D01*
X1371308Y-1216176D01*
X1385739D01*
X1392955Y-1223391D01*
X1349661Y-1259469D02*
Y-1216176D01*
X1328015D01*
X1320799Y-1223391D01*
Y-1230607D01*
X1328015Y-1237822D01*
X1349661D01*
X1328015D01*
X1320799Y-1245038D01*
Y-1252253D01*
X1328015Y-1259469D01*
X1349661D01*
X1263075D02*
X1248644D01*
X1255860D01*
Y-1216176D01*
X1263075D01*
X1248644D01*
X1226998D02*
Y-1259469D01*
X1198136Y-1216176D01*
Y-1259469D01*
X535942Y-1321828D02*
X529383Y-1328387D01*
Y-1341506D01*
X535942Y-1348066D01*
X562181D01*
X568740Y-1341506D01*
Y-1328387D01*
X562181Y-1321828D01*
X549062D01*
Y-1334947D01*
X568740Y-1308709D02*
X529383D01*
X568740Y-1282470D01*
X529383D01*
Y-1269351D02*
X568740D01*
Y-1249672D01*
X562181Y-1243113D01*
X535942D01*
X529383Y-1249672D01*
Y-1269351D01*
X-452762Y-1586614D02*
Y-1547257D01*
X-472441Y-1566936D01*
X-446203D01*
X-433084Y-1553816D02*
X-426524Y-1547257D01*
X-413405D01*
X-406845Y-1553816D01*
Y-1560376D01*
X-413405Y-1566936D01*
X-419964D01*
X-413405D01*
X-406845Y-1573495D01*
Y-1580055D01*
X-413405Y-1586614D01*
X-426524D01*
X-433084Y-1580055D01*
X-192913Y-1645669D02*
X-179794D01*
X-186354D01*
Y-1606312D01*
X-192913Y-1612871D01*
X-59055Y-1547257D02*
X-32817D01*
Y-1553816D01*
X-59055Y-1580055D01*
Y-1586614D01*
X-661417Y-1354343D02*
Y-1380582D01*
X-648298Y-1393701D01*
X-635179Y-1380582D01*
Y-1354343D01*
X-595822Y-1360903D02*
X-602381Y-1354343D01*
X-615500D01*
X-622060Y-1360903D01*
Y-1367463D01*
X-615500Y-1374022D01*
X-602381D01*
X-595822Y-1380582D01*
Y-1387141D01*
X-602381Y-1393701D01*
X-615500D01*
X-622060Y-1387141D01*
X-930455Y-1354343D02*
X-956693D01*
Y-1374022D01*
X-943574Y-1367463D01*
X-937014D01*
X-930455Y-1374022D01*
Y-1387141D01*
X-937014Y-1393701D01*
X-950133D01*
X-956693Y-1387141D01*
X-917336Y-1354343D02*
Y-1380582D01*
X-904216Y-1393701D01*
X-891097Y-1380582D01*
Y-1354343D01*
X-1249352Y-1360903D02*
X-1255912Y-1354343D01*
X-1269031D01*
X-1275591Y-1360903D01*
Y-1387141D01*
X-1269031Y-1393701D01*
X-1255912D01*
X-1249352Y-1387141D01*
Y-1374022D01*
X-1262472D01*
X-1236233Y-1393701D02*
Y-1354343D01*
X-1209995Y-1393701D01*
Y-1354343D01*
X-1196876D02*
Y-1393701D01*
X-1177197D01*
X-1170638Y-1387141D01*
Y-1360903D01*
X-1177197Y-1354343D01*
X-1196876D01*
X-824155Y-251981D02*
X-837275D01*
X-830715D01*
Y-284779D01*
X-837275Y-291339D01*
X-843834D01*
X-850394Y-284779D01*
X-784798Y-291339D02*
X-811036D01*
X-784798Y-265100D01*
Y-258541D01*
X-791358Y-251981D01*
X-804477D01*
X-811036Y-258541D01*
X-370079Y-1372320D02*
X-363519Y-1365761D01*
X-350400D01*
X-343841Y-1372320D01*
Y-1378880D01*
X-350400Y-1385439D01*
X-356960D01*
X-350400D01*
X-343841Y-1391999D01*
Y-1398559D01*
X-350400Y-1405118D01*
X-363519D01*
X-370079Y-1398559D01*
X-330721D02*
X-324162Y-1405118D01*
X-311043D01*
X-304483Y-1398559D01*
Y-1372320D01*
X-311043Y-1365761D01*
X-324162D01*
X-330721Y-1372320D01*
Y-1378880D01*
X-324162Y-1385439D01*
X-304483D01*
X-248031Y-1372320D02*
X-241472Y-1365761D01*
X-228353D01*
X-221793Y-1372320D01*
Y-1378880D01*
X-228353Y-1385439D01*
X-234912D01*
X-228353D01*
X-221793Y-1391999D01*
Y-1398559D01*
X-228353Y-1405118D01*
X-241472D01*
X-248031Y-1398559D01*
X-127108Y-1405118D02*
X-153346D01*
X-127108Y-1378880D01*
Y-1372320D01*
X-133668Y-1365761D01*
X-146787D01*
X-153346Y-1372320D01*
X1338583Y-1480328D02*
Y-1519685D01*
X1358261D01*
X1364821Y-1513126D01*
Y-1486887D01*
X1358261Y-1480328D01*
X1338583D01*
X1377940Y-1500006D02*
X1404178D01*
X1236220Y-1480328D02*
Y-1519685D01*
X1255899D01*
X1262459Y-1513126D01*
Y-1486887D01*
X1255899Y-1480328D01*
X1236220D01*
X1275578Y-1500006D02*
X1301816D01*
X1288697Y-1486887D02*
Y-1513126D01*
X-397638Y1057074D02*
Y1017716D01*
X-377959D01*
X-371400Y1024276D01*
Y1030836D01*
X-377959Y1037395D01*
X-397638D01*
X-377959D01*
X-371400Y1043955D01*
Y1050514D01*
X-377959Y1057074D01*
X-397638D01*
X-351721Y1017716D02*
X-338602D01*
X-332042Y1024276D01*
Y1037395D01*
X-338602Y1043955D01*
X-351721D01*
X-358280Y1037395D01*
Y1024276D01*
X-351721Y1017716D01*
X-312363Y1050514D02*
Y1043955D01*
X-318923D01*
X-305804D01*
X-312363D01*
Y1024276D01*
X-305804Y1017716D01*
X-279566Y1050514D02*
Y1043955D01*
X-286125D01*
X-273006D01*
X-279566D01*
Y1024276D01*
X-273006Y1017716D01*
X-246768D02*
X-233649D01*
X-227089Y1024276D01*
Y1037395D01*
X-233649Y1043955D01*
X-246768D01*
X-253327Y1037395D01*
Y1024276D01*
X-246768Y1017716D01*
X-213970D02*
Y1043955D01*
X-207410D01*
X-200851Y1037395D01*
Y1017716D01*
Y1037395D01*
X-194291Y1043955D01*
X-187732Y1037395D01*
Y1017716D01*
X-358268Y1267043D02*
X-332029D01*
X-345149D01*
Y1227686D01*
X-312351D02*
X-299232D01*
X-292672Y1234246D01*
Y1247365D01*
X-299232Y1253924D01*
X-312351D01*
X-318910Y1247365D01*
Y1234246D01*
X-312351Y1227686D01*
X-279553Y1214567D02*
Y1253924D01*
X-259874D01*
X-253315Y1247365D01*
Y1234246D01*
X-259874Y1227686D01*
X-279553D01*
X-1590227Y-134843D02*
X-1550870D01*
Y-154521D01*
X-1557430Y-161081D01*
X-1570549D01*
X-1577108Y-154521D01*
Y-134843D01*
X-1557430Y-200438D02*
X-1550870Y-193879D01*
Y-180760D01*
X-1557430Y-174200D01*
X-1583668D01*
X-1590227Y-180760D01*
Y-193879D01*
X-1583668Y-200438D01*
X-1550870Y-213557D02*
X-1590227D01*
Y-233236D01*
X-1583668Y-239796D01*
X-1577108D01*
X-1570549Y-233236D01*
Y-213557D01*
Y-233236D01*
X-1563989Y-239796D01*
X-1557430D01*
X-1550870Y-233236D01*
Y-213557D01*
Y-292272D02*
X-1590227D01*
Y-311951D01*
X-1583668Y-318510D01*
X-1577108D01*
X-1570549D01*
X-1563989Y-311951D01*
Y-292272D01*
Y-331630D02*
X-1583668D01*
X-1590227Y-338189D01*
Y-357868D01*
X-1596787D01*
X-1603347Y-351308D01*
Y-344749D01*
X-1590227Y-357868D02*
X-1563989D01*
X-1550870Y-410344D02*
X-1590227D01*
Y-430023D01*
X-1583668Y-436583D01*
X-1577108D01*
X-1570549Y-430023D01*
Y-410344D01*
Y-430023D01*
X-1563989Y-436583D01*
X-1557430D01*
X-1550870Y-430023D01*
Y-410344D01*
X-1590227Y-469380D02*
Y-456261D01*
X-1583668Y-449702D01*
X-1570549D01*
X-1563989Y-456261D01*
Y-469380D01*
X-1570549Y-475940D01*
X-1577108D01*
Y-449702D01*
X-1590227Y-489059D02*
X-1563989D01*
Y-508738D01*
X-1570549Y-515297D01*
X-1590227D01*
X-1550870Y-567774D02*
X-1590227D01*
X-1577108D01*
X-1550870Y-594012D01*
X-1570549Y-574334D01*
X-1590227Y-594012D01*
X-1563989Y-613691D02*
Y-626810D01*
X-1570549Y-633370D01*
X-1590227D01*
Y-613691D01*
X-1583668Y-607131D01*
X-1577108Y-613691D01*
Y-633370D01*
X-1563989Y-646489D02*
Y-672727D01*
X-1590227Y-646489D01*
Y-672727D01*
Y-705525D02*
Y-692406D01*
X-1583668Y-685846D01*
X-1570549D01*
X-1563989Y-692406D01*
Y-705525D01*
X-1570549Y-712084D01*
X-1577108D01*
Y-685846D01*
X-1590227Y-725204D02*
X-1563989D01*
Y-731763D01*
X-1570549Y-738323D01*
X-1590227D01*
X-1570549D01*
X-1563989Y-744882D01*
X-1570549Y-751442D01*
X-1590227D01*
Y-764561D02*
Y-777680D01*
Y-771121D01*
X-1563989D01*
Y-764561D01*
X-1590227Y-843276D02*
X-1557430D01*
X-1570549D01*
Y-836716D01*
Y-849835D01*
Y-843276D01*
X-1557430D01*
X-1550870Y-849835D01*
X-1590227Y-876074D02*
Y-889193D01*
X-1583668Y-895752D01*
X-1570549D01*
X-1563989Y-889193D01*
Y-876074D01*
X-1570549Y-869514D01*
X-1583668D01*
X-1590227Y-876074D01*
X-1563989Y-908871D02*
X-1590227D01*
X-1577108D01*
X-1570549Y-915431D01*
X-1563989Y-921990D01*
Y-928550D01*
X-1590227Y-987586D02*
X-1550870D01*
X-1563989Y-1000705D01*
X-1550870Y-1013824D01*
X-1590227D01*
X-1557430Y-1053182D02*
X-1550870Y-1046622D01*
Y-1033503D01*
X-1557430Y-1026944D01*
X-1563989D01*
X-1570549Y-1033503D01*
Y-1046622D01*
X-1577108Y-1053182D01*
X-1583668D01*
X-1590227Y-1046622D01*
Y-1033503D01*
X-1583668Y-1026944D01*
X-1550870Y-1066301D02*
X-1590227D01*
Y-1085980D01*
X-1583668Y-1092539D01*
X-1557430D01*
X-1550870Y-1085980D01*
Y-1066301D01*
X-1557430Y-1171254D02*
X-1550870Y-1164695D01*
Y-1151575D01*
X-1557430Y-1145016D01*
X-1583668D01*
X-1590227Y-1151575D01*
Y-1164695D01*
X-1583668Y-1171254D01*
X-1570549D01*
Y-1158135D01*
X-1563989Y-1184373D02*
X-1590227D01*
X-1577108D01*
X-1570549Y-1190933D01*
X-1563989Y-1197492D01*
Y-1204052D01*
X-1590227Y-1230290D02*
Y-1243409D01*
X-1583668Y-1249969D01*
X-1570549D01*
X-1563989Y-1243409D01*
Y-1230290D01*
X-1570549Y-1223731D01*
X-1583668D01*
X-1590227Y-1230290D01*
X-1563989Y-1263088D02*
X-1583668D01*
X-1590227Y-1269648D01*
Y-1289326D01*
X-1563989D01*
X-1603347Y-1302445D02*
X-1563989D01*
Y-1322124D01*
X-1570549Y-1328684D01*
X-1583668D01*
X-1590227Y-1322124D01*
Y-1302445D01*
X-1577108Y-1400839D02*
X-1570549D01*
Y-1394279D01*
X-1577108D01*
Y-1400839D01*
X-1570549Y-1407398D01*
X-1557430D01*
X-1550870Y-1400839D01*
Y-1387720D01*
X-1557430Y-1381160D01*
X-1583668D01*
X-1590227Y-1387720D01*
Y-1407398D01*
X-1550870Y-1459875D02*
X-1583668D01*
X-1590227Y-1466435D01*
Y-1479554D01*
X-1583668Y-1486113D01*
X-1550870D01*
X-1557430Y-1525471D02*
X-1550870Y-1518911D01*
Y-1505792D01*
X-1557430Y-1499232D01*
X-1583668D01*
X-1590227Y-1505792D01*
Y-1518911D01*
X-1583668Y-1525471D01*
X-1550870Y-1538590D02*
X-1590227D01*
Y-1564828D01*
X813640Y-1338595D02*
X800521D01*
X807080D01*
Y-1371393D01*
X800521Y-1377953D01*
X793961D01*
X787402Y-1371393D01*
X846438Y-1377953D02*
Y-1338595D01*
X826759Y-1358274D01*
X852997D01*
X813640Y326759D02*
X800521D01*
X807080D01*
Y293961D01*
X800521Y287402D01*
X793961D01*
X787402Y293961D01*
X826759Y320199D02*
X833319Y326759D01*
X846438D01*
X852997Y320199D01*
Y313640D01*
X846438Y307080D01*
X839878D01*
X846438D01*
X852997Y300521D01*
Y293961D01*
X846438Y287402D01*
X833319D01*
X826759Y293961D01*
X-835966Y322822D02*
X-849086D01*
X-842526D01*
Y290024D01*
X-849086Y283465D01*
X-855645D01*
X-862205Y290024D01*
X-822847Y283465D02*
X-809728D01*
X-816288D01*
Y322822D01*
X-822847Y316262D01*
X573819Y-364211D02*
X600057D01*
X586938D01*
Y-403569D01*
X613176Y-364211D02*
X639414Y-403569D01*
Y-364211D02*
X613176Y-403569D01*
X652534Y-364211D02*
Y-403569D01*
X672212D01*
X678772Y-397009D01*
Y-370771D01*
X672212Y-364211D01*
X652534D01*
X573819Y-469261D02*
Y-429904D01*
X593498D01*
X600057Y-436463D01*
Y-449582D01*
X593498Y-456142D01*
X573819D01*
X586938D02*
X600057Y-469261D01*
X613176Y-429904D02*
X639414Y-469261D01*
Y-429904D02*
X613176Y-469261D01*
X652534Y-429904D02*
Y-469261D01*
X672212D01*
X678772Y-462702D01*
Y-436463D01*
X672212Y-429904D01*
X652534D01*
X573819Y-534954D02*
Y-495596D01*
X586938Y-508715D01*
X600057Y-495596D01*
Y-534954D01*
X613176Y-495596D02*
X626295D01*
X619736D01*
Y-534954D01*
X613176D01*
X626295D01*
X672212Y-502156D02*
X665653Y-495596D01*
X652534D01*
X645974Y-502156D01*
Y-508715D01*
X652534Y-515275D01*
X665653D01*
X672212Y-521835D01*
Y-528394D01*
X665653Y-534954D01*
X652534D01*
X645974Y-528394D01*
X705010Y-495596D02*
X691891D01*
X685332Y-502156D01*
Y-528394D01*
X691891Y-534954D01*
X705010D01*
X711570Y-528394D01*
Y-502156D01*
X705010Y-495596D01*
X573819Y-600646D02*
Y-561289D01*
X586938Y-574408D01*
X600057Y-561289D01*
Y-600646D01*
X632855Y-561289D02*
X619736D01*
X613176Y-567848D01*
Y-594087D01*
X619736Y-600646D01*
X632855D01*
X639414Y-594087D01*
Y-567848D01*
X632855Y-561289D01*
X678772Y-567848D02*
X672212Y-561289D01*
X659093D01*
X652534Y-567848D01*
Y-574408D01*
X659093Y-580967D01*
X672212D01*
X678772Y-587527D01*
Y-594087D01*
X672212Y-600646D01*
X659093D01*
X652534Y-594087D01*
X691891Y-561289D02*
X705010D01*
X698451D01*
Y-600646D01*
X691891D01*
X705010D01*
X600057Y-633541D02*
X593498Y-626981D01*
X580379D01*
X573819Y-633541D01*
Y-640100D01*
X580379Y-646660D01*
X593498D01*
X600057Y-653220D01*
Y-659779D01*
X593498Y-666339D01*
X580379D01*
X573819Y-659779D01*
X639414Y-633541D02*
X632855Y-626981D01*
X619736D01*
X613176Y-633541D01*
Y-659779D01*
X619736Y-666339D01*
X632855D01*
X639414Y-659779D01*
X652534Y-626981D02*
Y-666339D01*
Y-653220D01*
X678772Y-626981D01*
X659093Y-646660D01*
X678772Y-666339D01*
X667323Y486221D02*
Y512459D01*
X680442Y525578D01*
X693561Y512459D01*
Y486221D01*
Y505899D01*
X667323D01*
X732918Y525578D02*
X706680D01*
Y505899D01*
X719799Y512459D01*
X726359D01*
X732918Y505899D01*
Y492780D01*
X726359Y486221D01*
X713240D01*
X706680Y492780D01*
X667323Y588583D02*
Y614821D01*
X680442Y627940D01*
X693561Y614821D01*
Y588583D01*
Y608261D01*
X667323D01*
X726359Y588583D02*
Y627940D01*
X706680Y608261D01*
X732918D01*
X667323Y688976D02*
Y715215D01*
X680442Y728334D01*
X693561Y715215D01*
Y688976D01*
Y708655D01*
X667323D01*
X706680Y721774D02*
X713240Y728334D01*
X726359D01*
X732918Y721774D01*
Y715215D01*
X726359Y708655D01*
X719799D01*
X726359D01*
X732918Y702096D01*
Y695536D01*
X726359Y688976D01*
X713240D01*
X706680Y695536D01*
X667323Y788386D02*
Y814624D01*
X680442Y827743D01*
X693561Y814624D01*
Y788386D01*
Y808064D01*
X667323D01*
X732918Y788386D02*
X706680D01*
X732918Y814624D01*
Y821184D01*
X726359Y827743D01*
X713240D01*
X706680Y821184D01*
X667323Y902559D02*
Y941916D01*
X687001D01*
X693561Y935357D01*
Y922238D01*
X687001Y915678D01*
X667323D01*
X706680Y941916D02*
Y902559D01*
X726359D01*
X732918Y909119D01*
Y935357D01*
X726359Y941916D01*
X706680D01*
X746038Y935357D02*
X752597Y941916D01*
X765716D01*
X772276Y935357D01*
Y909119D01*
X765716Y902559D01*
X752597D01*
X746038Y909119D01*
Y935357D01*
X811633Y902559D02*
X785395D01*
X811633Y928797D01*
Y935357D01*
X805074Y941916D01*
X791955D01*
X785395Y935357D01*
X667323Y999016D02*
Y1038373D01*
X687001D01*
X693561Y1031813D01*
Y1018694D01*
X687001Y1012135D01*
X667323D01*
X706680Y1038373D02*
Y999016D01*
X726359D01*
X732918Y1005575D01*
Y1031813D01*
X726359Y1038373D01*
X706680D01*
X746038Y1031813D02*
X752597Y1038373D01*
X765716D01*
X772276Y1031813D01*
Y1005575D01*
X765716Y999016D01*
X752597D01*
X746038Y1005575D01*
Y1031813D01*
X785395D02*
X791955Y1038373D01*
X805074D01*
X811633Y1031813D01*
Y1025254D01*
X805074Y1018694D01*
X798514D01*
X805074D01*
X811633Y1012135D01*
Y1005575D01*
X805074Y999016D01*
X791955D01*
X785395Y1005575D01*
X693561Y1138113D02*
X687001Y1144672D01*
X673882D01*
X667323Y1138113D01*
Y1111874D01*
X673882Y1105315D01*
X687001D01*
X693561Y1111874D01*
Y1124994D01*
X680442D01*
X706680Y1105315D02*
Y1144672D01*
X732918Y1105315D01*
Y1144672D01*
X746038D02*
Y1105315D01*
X765716D01*
X772276Y1111874D01*
Y1138113D01*
X765716Y1144672D01*
X746038D01*
X667323Y1197835D02*
Y1224073D01*
X680442Y1237192D01*
X693561Y1224073D01*
Y1197835D01*
Y1217513D01*
X667323D01*
X706680Y1197835D02*
Y1237192D01*
X726359D01*
X732918Y1230632D01*
Y1217513D01*
X726359Y1210954D01*
X706680D01*
X719799D02*
X732918Y1197835D01*
X772276Y1237192D02*
X746038D01*
Y1197835D01*
X772276D01*
X746038Y1217513D02*
X759157D01*
X811633Y1237192D02*
X785395D01*
Y1217513D01*
X798514D01*
X785395D01*
Y1197835D01*
X669291Y1350711D02*
X675851Y1357271D01*
X688970D01*
X695529Y1350711D01*
Y1344152D01*
X688970Y1337592D01*
X682410D01*
X688970D01*
X695529Y1331033D01*
Y1324473D01*
X688970Y1317913D01*
X675851D01*
X669291Y1324473D01*
X708649Y1357271D02*
Y1331033D01*
X721768Y1317913D01*
X734887Y1331033D01*
Y1357271D01*
X748006Y1350711D02*
X754566Y1357271D01*
X767685D01*
X774244Y1350711D01*
Y1344152D01*
X767685Y1337592D01*
X761125D01*
X767685D01*
X774244Y1331033D01*
Y1324473D01*
X767685Y1317913D01*
X754566D01*
X748006Y1324473D01*
X674213Y1387795D02*
Y1427153D01*
X693891D01*
X700451Y1420593D01*
Y1407474D01*
X693891Y1400914D01*
X674213D01*
X687332D02*
X700451Y1387795D01*
X739808Y1427153D02*
X713570D01*
Y1387795D01*
X739808D01*
X713570Y1407474D02*
X726689D01*
X779166Y1420593D02*
X772606Y1427153D01*
X759487D01*
X752927Y1420593D01*
Y1414034D01*
X759487Y1407474D01*
X772606D01*
X779166Y1400914D01*
Y1394355D01*
X772606Y1387795D01*
X759487D01*
X752927Y1394355D01*
X818523Y1427153D02*
X792285D01*
Y1387795D01*
X818523D01*
X792285Y1407474D02*
X805404D01*
X831642Y1427153D02*
X857880D01*
X844761D01*
Y1387795D01*
X1545276Y125972D02*
Y86614D01*
X1564954D01*
X1571514Y93174D01*
Y119412D01*
X1564954Y125972D01*
X1545276D01*
X1610871D02*
X1584633D01*
Y106293D01*
X1597752Y112852D01*
X1604312D01*
X1610871Y106293D01*
Y93174D01*
X1604312Y86614D01*
X1591193D01*
X1584633Y93174D01*
X1545276Y225381D02*
Y186024D01*
X1564954D01*
X1571514Y192583D01*
Y218821D01*
X1564954Y225381D01*
X1545276D01*
X1610871D02*
X1597752Y218821D01*
X1584633Y205702D01*
Y192583D01*
X1591193Y186024D01*
X1604312D01*
X1610871Y192583D01*
Y199143D01*
X1604312Y205702D01*
X1584633D01*
X1545276Y327743D02*
Y288386D01*
X1564954D01*
X1571514Y294945D01*
Y321184D01*
X1564954Y327743D01*
X1545276D01*
X1584633Y294945D02*
X1591193Y288386D01*
X1604312D01*
X1610871Y294945D01*
Y321184D01*
X1604312Y327743D01*
X1591193D01*
X1584633Y321184D01*
Y314624D01*
X1591193Y308065D01*
X1610871D01*
X1545276Y429121D02*
Y389764D01*
X1564954D01*
X1571514Y396323D01*
Y422562D01*
X1564954Y429121D01*
X1545276D01*
X1584633Y389764D02*
X1597752D01*
X1591193D01*
Y429121D01*
X1584633Y422562D01*
X1617431D02*
X1623990Y429121D01*
X1637110D01*
X1643669Y422562D01*
Y396323D01*
X1637110Y389764D01*
X1623990D01*
X1617431Y396323D01*
Y422562D01*
X1545276Y524594D02*
Y485236D01*
X1564954D01*
X1571514Y491796D01*
Y518034D01*
X1564954Y524594D01*
X1545276D01*
X1584633Y485236D02*
X1597752D01*
X1591193D01*
Y524594D01*
X1584633Y518034D01*
X1617431Y485236D02*
X1630550D01*
X1623990D01*
Y524594D01*
X1617431Y518034D01*
X1545276Y623019D02*
Y583661D01*
X1564954D01*
X1571514Y590221D01*
Y616459D01*
X1564954Y623019D01*
X1545276D01*
X1584633Y583661D02*
X1597752D01*
X1591193D01*
Y623019D01*
X1584633Y616459D01*
X1643669Y583661D02*
X1617431D01*
X1643669Y609900D01*
Y616459D01*
X1637110Y623019D01*
X1623990D01*
X1617431Y616459D01*
X1559722Y-13132D02*
X1553162Y-19691D01*
Y-32810D01*
X1559722Y-39370D01*
X1566281D01*
X1572841Y-32810D01*
Y-19691D01*
X1579400Y-13132D01*
X1585960D01*
X1592520Y-19691D01*
Y-32810D01*
X1585960Y-39370D01*
X1559722Y26226D02*
X1553162Y19666D01*
Y6547D01*
X1559722Y-13D01*
X1585960D01*
X1592520Y6547D01*
Y19666D01*
X1585960Y26226D01*
X1553162Y39345D02*
X1592520D01*
Y65583D01*
X1567577Y-79407D02*
X1561017Y-72847D01*
X1547898D01*
X1541339Y-79407D01*
Y-85966D01*
X1547898Y-92526D01*
X1561017D01*
X1567577Y-99086D01*
Y-105645D01*
X1561017Y-112205D01*
X1547898D01*
X1541339Y-105645D01*
X1580696Y-72847D02*
Y-112205D01*
X1600375D01*
X1606934Y-105645D01*
Y-79407D01*
X1600375Y-72847D01*
X1580696D01*
X1620053Y-112205D02*
Y-85966D01*
X1633172Y-72847D01*
X1646292Y-85966D01*
Y-112205D01*
Y-92526D01*
X1620053D01*
X1350394Y1370066D02*
Y1330709D01*
X1370072D01*
X1376632Y1337268D01*
Y1363506D01*
X1370072Y1370066D01*
X1350394D01*
X1389751Y1330709D02*
X1402870D01*
X1396311D01*
Y1370066D01*
X1389751Y1363506D01*
X1422549D02*
X1429109Y1370066D01*
X1442228D01*
X1448787Y1363506D01*
Y1356947D01*
X1442228Y1350387D01*
X1435668D01*
X1442228D01*
X1448787Y1343828D01*
Y1337268D01*
X1442228Y1330709D01*
X1429109D01*
X1422549Y1337268D01*
X1406159Y1194869D02*
X1379921D01*
Y1155512D01*
X1406159D01*
X1379921Y1175190D02*
X1393040D01*
X1419279Y1155512D02*
Y1194869D01*
X1445517Y1155512D01*
Y1194869D01*
X1307087Y1276562D02*
Y1250324D01*
X1320206Y1237205D01*
X1333325Y1250324D01*
Y1276562D01*
X1346444D02*
Y1237205D01*
X1366123D01*
X1372682Y1243764D01*
Y1250324D01*
X1366123Y1256883D01*
X1346444D01*
X1366123D01*
X1372682Y1263443D01*
Y1270003D01*
X1366123Y1276562D01*
X1346444D01*
X1385801D02*
Y1243764D01*
X1392361Y1237205D01*
X1405480D01*
X1412040Y1243764D01*
Y1276562D01*
X1451397Y1270003D02*
X1444838Y1276562D01*
X1431718D01*
X1425159Y1270003D01*
Y1263443D01*
X1431718Y1256883D01*
X1444838D01*
X1451397Y1250324D01*
Y1243764D01*
X1444838Y1237205D01*
X1431718D01*
X1425159Y1243764D01*
X1304134Y1124003D02*
Y1097765D01*
X1317253Y1084646D01*
X1330372Y1097765D01*
Y1124003D01*
X1343491D02*
Y1084646D01*
X1363170D01*
X1369729Y1091205D01*
Y1097765D01*
X1363170Y1104324D01*
X1343491D01*
X1363170D01*
X1369729Y1110884D01*
Y1117444D01*
X1363170Y1124003D01*
X1343491D01*
X1382849Y1084646D02*
Y1110884D01*
X1395968Y1124003D01*
X1409087Y1110884D01*
Y1084646D01*
Y1104324D01*
X1382849D01*
X1422206Y1124003D02*
X1448444D01*
X1435325D01*
Y1084646D01*
X1543320Y-1519685D02*
X1569558D01*
X1582677Y-1506566D01*
X1569558Y-1493447D01*
X1543320D01*
Y-1480328D02*
Y-1467208D01*
Y-1473768D01*
X1582677D01*
Y-1480328D01*
Y-1467208D01*
Y-1447530D02*
X1543320D01*
X1582677Y-1421292D01*
X1543320D01*
X1178480Y-1519685D02*
X1139122D01*
Y-1500006D01*
X1145682Y-1493447D01*
X1158801D01*
X1165361Y-1500006D01*
Y-1519685D01*
X1139122Y-1480328D02*
X1178480D01*
Y-1460649D01*
X1171920Y-1454089D01*
X1145682D01*
X1139122Y-1460649D01*
Y-1480328D01*
X1185039Y-1440970D02*
Y-1414732D01*
X1178480Y-1401613D02*
X1152242D01*
X1139122Y-1388494D01*
X1152242Y-1375375D01*
X1178480D01*
X1158801D01*
Y-1401613D01*
X1139122Y-1362255D02*
X1178480D01*
Y-1336017D01*
X1139122Y-1296660D02*
Y-1322898D01*
X1178480D01*
Y-1296660D01*
X1158801Y-1322898D02*
Y-1309779D01*
X1178480Y-1283541D02*
X1139122D01*
Y-1263862D01*
X1145682Y-1257302D01*
X1158801D01*
X1165361Y-1263862D01*
Y-1283541D01*
Y-1270421D02*
X1178480Y-1257302D01*
X1139122Y-1244183D02*
Y-1217945D01*
Y-1231064D01*
X1178480D01*
X1080054Y-1519685D02*
X1040697D01*
Y-1500006D01*
X1047257Y-1493447D01*
X1060376D01*
X1066935Y-1500006D01*
Y-1519685D01*
X1040697Y-1480328D02*
X1080054D01*
Y-1460649D01*
X1073495Y-1454089D01*
X1047257D01*
X1040697Y-1460649D01*
Y-1480328D01*
X1086614Y-1440970D02*
Y-1414732D01*
X1080054Y-1401613D02*
X1040697D01*
Y-1381934D01*
X1047257Y-1375375D01*
X1060376D01*
X1066935Y-1381934D01*
Y-1401613D01*
Y-1388494D02*
X1080054Y-1375375D01*
X1040697Y-1336017D02*
Y-1362255D01*
X1080054D01*
Y-1336017D01*
X1060376Y-1362255D02*
Y-1349136D01*
X1047257Y-1296660D02*
X1040697Y-1303219D01*
Y-1316338D01*
X1047257Y-1322898D01*
X1053816D01*
X1060376Y-1316338D01*
Y-1303219D01*
X1066935Y-1296660D01*
X1073495D01*
X1080054Y-1303219D01*
Y-1316338D01*
X1073495Y-1322898D01*
X1040697Y-1257302D02*
Y-1283541D01*
X1080054D01*
Y-1257302D01*
X1060376Y-1283541D02*
Y-1270421D01*
X1040697Y-1244183D02*
Y-1217945D01*
Y-1231064D01*
X1080054D01*
X981629Y-1519685D02*
X942272D01*
Y-1500006D01*
X948832Y-1493447D01*
X961951D01*
X968510Y-1500006D01*
Y-1519685D01*
X942272Y-1480328D02*
X981629D01*
Y-1460649D01*
X975070Y-1454089D01*
X948832D01*
X942272Y-1460649D01*
Y-1480328D01*
X988189Y-1440970D02*
Y-1414732D01*
X948832Y-1375375D02*
X942272Y-1381934D01*
Y-1395053D01*
X948832Y-1401613D01*
X975070D01*
X981629Y-1395053D01*
Y-1381934D01*
X975070Y-1375375D01*
X961951D01*
Y-1388494D01*
X981629Y-1362255D02*
X942272D01*
Y-1342577D01*
X948832Y-1336017D01*
X961951D01*
X968510Y-1342577D01*
Y-1362255D01*
X942272Y-1322898D02*
Y-1309779D01*
Y-1316338D01*
X981629D01*
Y-1322898D01*
Y-1309779D01*
X942272Y-1270421D02*
Y-1283541D01*
X948832Y-1290100D01*
X975070D01*
X981629Y-1283541D01*
Y-1270421D01*
X975070Y-1263862D01*
X948832D01*
X942272Y-1270421D01*
X-58379Y-1101054D02*
X-64938Y-1094495D01*
X-78058D01*
X-84617Y-1101054D01*
Y-1107614D01*
X-78058Y-1114173D01*
X-64938D01*
X-58379Y-1120733D01*
Y-1127292D01*
X-64938Y-1133852D01*
X-78058D01*
X-84617Y-1127292D01*
X-45260Y-1133852D02*
X-32141D01*
X-38700D01*
Y-1094495D01*
X-45260D01*
X-5902Y-1107614D02*
X7217D01*
X13776Y-1114173D01*
Y-1133852D01*
X-5902D01*
X-12462Y-1127292D01*
X-5902Y-1120733D01*
X13776D01*
X26895Y-1107614D02*
X40015Y-1133852D01*
X53134Y-1107614D01*
X85932Y-1133852D02*
X72812D01*
X66253Y-1127292D01*
Y-1114173D01*
X72812Y-1107614D01*
X85932D01*
X92491Y-1114173D01*
Y-1120733D01*
X66253D01*
X-81331Y-1251962D02*
Y-1212605D01*
X-68212Y-1225724D01*
X-55093Y-1212605D01*
Y-1251962D01*
X-35414Y-1225724D02*
X-22295D01*
X-15735Y-1232284D01*
Y-1251962D01*
X-35414D01*
X-41974Y-1245403D01*
X-35414Y-1238843D01*
X-15735D01*
X-2616Y-1251962D02*
X17062D01*
X23622Y-1245403D01*
X17062Y-1238843D01*
X3943D01*
X-2616Y-1232284D01*
X3943Y-1225724D01*
X23622D01*
X43301Y-1219164D02*
Y-1225724D01*
X36741D01*
X49860D01*
X43301D01*
Y-1245403D01*
X49860Y-1251962D01*
X89218D02*
X76099D01*
X69539Y-1245403D01*
Y-1232284D01*
X76099Y-1225724D01*
X89218D01*
X95777Y-1232284D01*
Y-1238843D01*
X69539D01*
X108896Y-1225724D02*
Y-1251962D01*
Y-1238843D01*
X115456Y-1232284D01*
X122016Y-1225724D01*
X128575D01*
X-1202715Y-1342513D02*
Y-1303156D01*
X-1189595Y-1316275D01*
X-1176476Y-1303156D01*
Y-1342513D01*
X-1143678Y-1303156D02*
X-1156798D01*
X-1163357Y-1309716D01*
Y-1335954D01*
X-1156798Y-1342513D01*
X-1143678D01*
X-1137119Y-1335954D01*
Y-1309716D01*
X-1143678Y-1303156D01*
X-1124000Y-1342513D02*
Y-1303156D01*
X-1097762Y-1342513D01*
Y-1303156D01*
X-1084642D02*
X-1071523D01*
X-1078083D01*
Y-1342513D01*
X-1084642D01*
X-1071523D01*
X-1051845Y-1303156D02*
X-1025606D01*
X-1038726D01*
Y-1342513D01*
X-992808Y-1303156D02*
X-1005928D01*
X-1012487Y-1309716D01*
Y-1335954D01*
X-1005928Y-1342513D01*
X-992808D01*
X-986249Y-1335954D01*
Y-1309716D01*
X-992808Y-1303156D01*
X-973130Y-1342513D02*
Y-1303156D01*
X-953451D01*
X-946892Y-1309716D01*
Y-1322835D01*
X-953451Y-1329394D01*
X-973130D01*
X-960011D02*
X-946892Y-1342513D01*
X-130232Y1483591D02*
X-123673Y1490151D01*
X-110554D01*
X-103994Y1483591D01*
Y1477032D01*
X-110554Y1470472D01*
X-117113D01*
X-110554D01*
X-103994Y1463913D01*
Y1457353D01*
X-110554Y1450794D01*
X-123673D01*
X-130232Y1457353D01*
X-90875Y1490151D02*
Y1463913D01*
X-77756Y1450794D01*
X-64637Y1463913D01*
Y1490151D01*
X-51518Y1483591D02*
X-44958Y1490151D01*
X-31839D01*
X-25279Y1483591D01*
Y1477032D01*
X-31839Y1470472D01*
X-38398D01*
X-31839D01*
X-25279Y1463913D01*
Y1457353D01*
X-31839Y1450794D01*
X-44958D01*
X-51518Y1457353D01*
X938059Y773285D02*
Y747047D01*
X951178Y733928D01*
X964297Y747047D01*
Y773285D01*
X977416D02*
Y733928D01*
X997095D01*
X1003654Y740488D01*
Y747047D01*
X997095Y753607D01*
X977416D01*
X997095D01*
X1003654Y760166D01*
Y766726D01*
X997095Y773285D01*
X977416D01*
X1016774D02*
Y740488D01*
X1023333Y733928D01*
X1036452D01*
X1043012Y740488D01*
Y773285D01*
X1082369Y766726D02*
X1075810Y773285D01*
X1062690D01*
X1056131Y766726D01*
Y760166D01*
X1062690Y753607D01*
X1075810D01*
X1082369Y747047D01*
Y740488D01*
X1075810Y733928D01*
X1062690D01*
X1056131Y740488D01*
X1095488Y727369D02*
X1121726D01*
X1161084Y773285D02*
X1147965D01*
X1154524D01*
Y740488D01*
X1147965Y733928D01*
X1141405D01*
X1134846Y740488D01*
X1174203Y760166D02*
Y740488D01*
X1180763Y733928D01*
X1200441D01*
Y760166D01*
X1213561Y733928D02*
Y760166D01*
X1220120D01*
X1226680Y753607D01*
Y733928D01*
Y753607D01*
X1233239Y760166D01*
X1239799Y753607D01*
Y733928D01*
X1252918Y720809D02*
Y760166D01*
X1272597D01*
X1279156Y753607D01*
Y740488D01*
X1272597Y733928D01*
X1252918D01*
X1311954D02*
X1298835D01*
X1292275Y740488D01*
Y753607D01*
X1298835Y760166D01*
X1311954D01*
X1318514Y753607D01*
Y747047D01*
X1292275D01*
X1331633Y760166D02*
Y733928D01*
Y747047D01*
X1338192Y753607D01*
X1344752Y760166D01*
X1351311D01*
X132556Y-1527565D02*
Y-1553804D01*
X145676Y-1566923D01*
X158795Y-1553804D01*
Y-1527565D01*
X198152Y-1534125D02*
X191593Y-1527565D01*
X178474D01*
X171914Y-1534125D01*
Y-1540685D01*
X178474Y-1547244D01*
X191593D01*
X198152Y-1553804D01*
Y-1560363D01*
X191593Y-1566923D01*
X178474D01*
X171914Y-1560363D01*
X1213932Y-374022D02*
X1187694D01*
Y-393701D01*
X1200813Y-387141D01*
X1207372D01*
X1213932Y-393701D01*
Y-406820D01*
X1207372Y-413380D01*
X1194253D01*
X1187694Y-406820D01*
X1227051Y-374022D02*
Y-400260D01*
X1240170Y-413380D01*
X1253289Y-400260D01*
Y-374022D01*
X1266409Y-413380D02*
Y-374022D01*
X1286087D01*
X1292647Y-380582D01*
Y-393701D01*
X1286087Y-400260D01*
X1266409D01*
X1279528D02*
X1292647Y-413380D01*
X1332004Y-374022D02*
X1305766D01*
Y-413380D01*
X1332004D01*
X1305766Y-393701D02*
X1318885D01*
X1371361Y-380582D02*
X1364802Y-374022D01*
X1351683D01*
X1345123Y-380582D01*
Y-406820D01*
X1351683Y-413380D01*
X1364802D01*
X1371361Y-406820D01*
Y-393701D01*
X1358242D01*
X143053Y-1472435D02*
Y-1433077D01*
X162732D01*
X169291Y-1439637D01*
Y-1452756D01*
X162732Y-1459315D01*
X143053D01*
X156172D02*
X169291Y-1472435D01*
X182411D02*
X195530D01*
X188970D01*
Y-1433077D01*
X182411Y-1439637D01*
X1539700Y1451765D02*
X1526581D01*
X1533141D01*
Y1418967D01*
X1526581Y1412408D01*
X1520022D01*
X1513462Y1418967D01*
X1579058Y1451765D02*
X1565938Y1445206D01*
X1552819Y1432087D01*
Y1418967D01*
X1559379Y1412408D01*
X1572498D01*
X1579058Y1418967D01*
Y1425527D01*
X1572498Y1432087D01*
X1552819D01*
X466866Y1513773D02*
X453747D01*
X460306D01*
Y1480975D01*
X453747Y1474416D01*
X447187D01*
X440627Y1480975D01*
X506223Y1513773D02*
X479985D01*
Y1494094D01*
X493104Y1500654D01*
X499663D01*
X506223Y1494094D01*
Y1480975D01*
X499663Y1474416D01*
X486544D01*
X479985Y1480975D01*
X1559055Y-281172D02*
X1552496Y-274613D01*
X1539377D01*
X1532817Y-281172D01*
Y-307410D01*
X1539377Y-313970D01*
X1552496D01*
X1559055Y-307410D01*
X1572174Y-313970D02*
X1585293D01*
X1578734D01*
Y-274613D01*
X1572174Y-281172D01*
X1007220Y-410109D02*
X1000660Y-403550D01*
X987541D01*
X980982Y-410109D01*
Y-436347D01*
X987541Y-442907D01*
X1000660D01*
X1007220Y-436347D01*
X1046577Y-442907D02*
X1020339D01*
X1046577Y-416669D01*
Y-410109D01*
X1040018Y-403550D01*
X1026899D01*
X1020339Y-410109D01*
D12*
X1099409Y-598425D02*
X1092028Y-594163D01*
Y-602687D01*
X1099409Y-598425D01*
D13*
X-1653543Y-79353D02*
X-1643598Y-78727D01*
X-1633809Y-76860D01*
X-1624332Y-73780D01*
X-1615315Y-69537D01*
X-1606901Y-64198D01*
X-1599222Y-57846D01*
X-1592401Y-50581D01*
X-1586543Y-42519D01*
X-1581743Y-33787D01*
X-1578074Y-24521D01*
X-1575596Y-14869D01*
X-1574347Y-4982D01*
Y4983D01*
X-1575596Y14870D01*
X-1578074Y24522D01*
X-1581743Y33787D01*
X-1586544Y42520D01*
X-1592401Y50582D01*
X-1599223Y57846D01*
X-1606901Y64198D01*
X-1615315Y69538D01*
X-1624332Y73781D01*
X-1633809Y76860D01*
X-1643598Y78727D01*
X-1653543Y79353D01*
D14*
X-311024Y-1169291D02*
X-94488D01*
X-311024Y-1059055D02*
X-94488D01*
Y-1169291D02*
Y-1059055D01*
X-311024Y-1169291D02*
Y-1059055D01*
X-310323Y-1287402D02*
X-93787D01*
X-310323Y-1177165D02*
X-93787D01*
Y-1287402D02*
Y-1177165D01*
X-310323Y-1287402D02*
Y-1177165D01*
X768701Y-325000D02*
Y-175394D01*
X1256890Y-325000D02*
Y-175394D01*
X768701Y-325000D02*
X1256890D01*
X768701Y-175394D02*
X1256890D01*
D15*
X74803Y492126D02*
X92969D01*
X98969Y482126D01*
X103969Y499126D01*
X110969Y482126D01*
X116969Y499126D01*
X122795Y482284D01*
X126732Y492126D01*
X147638D01*
X73721Y422126D02*
Y562126D01*
Y422126D02*
X148720D01*
Y562126D01*
X73721D02*
X148720D01*
X1525591Y-636223D02*
X1604331D01*
X1505901Y-620083D02*
Y-561024D01*
Y-620083D02*
X1525591Y-636223D01*
X1604331D01*
X1624021Y-620083D01*
Y-561024D01*
X1505901Y-403543D02*
Y-328344D01*
X1624021D01*
Y-403543D02*
Y-328344D01*
X-3445Y-1578307D02*
Y-1508307D01*
X121555D01*
Y-1578307D02*
Y-1508307D01*
X-3445Y-1578307D02*
X121555D01*
X66555Y-1563307D02*
Y-1553307D01*
Y-1543307D01*
Y-1533307D01*
Y-1523307D01*
X59055Y-1533307D02*
X66555Y-1523307D01*
X51555Y-1543307D02*
X59055Y-1533307D01*
X51555Y-1543307D02*
X66555Y-1563307D01*
X54055Y-1540807D02*
X66555Y-1563307D01*
X54055Y-1540807D02*
X66555Y-1553307D01*
X56555Y-1538307D02*
X66555Y-1553307D01*
X56555Y-1538307D02*
X66555Y-1543307D01*
X59055Y-1533307D02*
X66555Y-1543307D01*
X59055Y-1533307D02*
X66555D01*
X129055Y-1494193D02*
Y-1419193D01*
X-10945Y-1494193D02*
X129055D01*
X-10945D02*
Y-1419193D01*
X129055D01*
X59055Y-1493110D02*
Y-1472205D01*
X49213Y-1468268D02*
X59055Y-1472205D01*
X49213Y-1468268D02*
X66055Y-1462441D01*
X49055Y-1456441D02*
X66055Y-1462441D01*
X49055Y-1456441D02*
X66055Y-1449441D01*
X49055Y-1444441D02*
X66055Y-1449441D01*
X49055Y-1444441D02*
X59055Y-1438441D01*
Y-1420276D01*
X1003094Y-559339D02*
Y-524339D01*
X1022779Y-559339D02*
Y-524339D01*
X1024606Y-540354D02*
X1036417D01*
X976279Y-471339D02*
X1051280D01*
Y-611339D02*
Y-471339D01*
X976279Y-611339D02*
X1051280D01*
X976279D02*
Y-471339D01*
X991142Y-540354D02*
X1002953D01*
D16*
X266728Y-1361491D02*
Y-1087591D01*
X510829D01*
X235238D02*
X266728D01*
X506969Y-1087491D02*
X586968D01*
Y-1226491D02*
Y-1087491D01*
X236969Y-1226491D02*
X586968D01*
Y-1356491D02*
Y-1231491D01*
X235238Y-1360901D02*
Y-1087591D01*
Y-1360901D02*
X236379Y-1362041D01*
X511969Y-1231491D02*
X586968D01*
X-303543Y-1139173D02*
Y-1089173D01*
X-178543Y-1064173D02*
X-128543D01*
X-103543Y-1089173D01*
X-128543Y-1164173D02*
X-103543Y-1139173D01*
Y-1089173D01*
X-228543Y-1064173D02*
X-203543Y-1089173D01*
X-278543Y-1064173D02*
X-228543D01*
X-303543Y-1089173D02*
X-278543Y-1064173D01*
X-303543Y-1139173D02*
X-278543Y-1164173D01*
X-228543D01*
X-203543Y-1139173D01*
Y-1089173D02*
X-178543Y-1064173D01*
X-203543Y-1139173D02*
X-178543Y-1164173D01*
X-128543D01*
X-302842Y-1257284D02*
Y-1207284D01*
X-177843Y-1182284D02*
X-127843D01*
X-102843Y-1207284D01*
X-127843Y-1282284D02*
X-102843Y-1257284D01*
Y-1207284D01*
X-227843Y-1182284D02*
X-202843Y-1207284D01*
X-277842Y-1182284D02*
X-227843D01*
X-302842Y-1207284D02*
X-277842Y-1182284D01*
X-302842Y-1257284D02*
X-277842Y-1282284D01*
X-227843D01*
X-202843Y-1257284D01*
Y-1207284D02*
X-177843Y-1182284D01*
X-202843Y-1257284D02*
X-177843Y-1282284D01*
X-127843D01*
X-1204134Y-1413976D02*
X-1154134D01*
X-1204134Y-1613976D02*
X-1154134D01*
X-1004134D02*
X-954134D01*
X-604134Y-1413976D02*
X-554134D01*
X-629134Y-1438976D02*
X-604134Y-1413976D01*
X-804134Y-1613976D02*
X-754134D01*
X-1229134Y-1438976D02*
X-1204134Y-1413976D01*
X-1104134D02*
X-1054134D01*
X-1029134Y-1588976D02*
Y-1438976D01*
Y-1588976D02*
X-1004134Y-1613976D01*
X-929134Y-1438976D02*
X-904134Y-1413976D01*
X-554134D02*
X-529134Y-1438976D01*
X-829134Y-1588976D02*
X-804134Y-1613976D01*
X-629134Y-1588976D02*
X-604134Y-1613976D01*
X-1229134Y-1588976D02*
X-1204134Y-1613976D01*
X-1154134Y-1413976D02*
X-1129134Y-1438976D01*
Y-1588976D02*
Y-1438976D01*
X-1004134Y-1413976D02*
X-954134D01*
X-929134Y-1438976D01*
X-854134Y-1613976D02*
X-829134Y-1588976D01*
X-654134Y-1413976D02*
X-629134Y-1438976D01*
X-654134Y-1613976D02*
X-629134Y-1588976D01*
X-1254134Y-1613976D02*
X-1229134Y-1588976D01*
X-1054134Y-1613976D02*
X-1029134Y-1588976D01*
Y-1438976D02*
X-1004134Y-1413976D01*
X-529134Y-1588976D02*
Y-1438976D01*
X-629134Y-1588976D02*
Y-1438976D01*
X-729134D02*
X-704134Y-1413976D01*
X-1304134Y-1613976D02*
X-1254134D01*
X-1229134Y-1588976D02*
Y-1438976D01*
X-1104134Y-1613976D02*
X-1054134D01*
X-904134Y-1413976D02*
X-854134D01*
X-904134Y-1613976D02*
X-854134D01*
X-554134D02*
X-529134Y-1588976D01*
X-754134Y-1413976D02*
X-729134Y-1438976D01*
X-704134Y-1613976D02*
X-654134D01*
X-1329134Y-1588976D02*
Y-1438976D01*
X-1129134Y-1588976D02*
X-1104134Y-1613976D01*
X-1054134Y-1413976D02*
X-1029134Y-1438976D01*
X-929134Y-1588976D02*
X-904134Y-1613976D01*
X-804134Y-1413976D02*
X-754134D01*
X-729134Y-1588976D02*
Y-1438976D01*
Y-1588976D02*
X-704134Y-1613976D01*
X-1329134Y-1438976D02*
X-1304134Y-1413976D01*
X-1329134Y-1588976D02*
X-1304134Y-1613976D01*
Y-1413976D02*
X-1254134D01*
X-1129134Y-1438976D02*
X-1104134Y-1413976D01*
X-829134Y-1588976D02*
Y-1438976D01*
X-804134Y-1413976D01*
X-754134Y-1613976D02*
X-729134Y-1588976D01*
X-1254134Y-1413976D02*
X-1229134Y-1438976D01*
X-1154134Y-1613976D02*
X-1129134Y-1588976D01*
X-954134Y-1613976D02*
X-929134Y-1588976D01*
Y-1438976D01*
X-854134Y-1413976D02*
X-829134Y-1438976D01*
X-604134Y-1613976D02*
X-554134D01*
X-704134Y-1413976D02*
X-654134D01*
X-186220Y-1587992D02*
Y-1437992D01*
X-386221Y-1587992D02*
Y-1437992D01*
X-211220Y-1412992D02*
X-186220Y-1437992D01*
X-311221Y-1612992D02*
X-286221Y-1587992D01*
X-211220Y-1612992D02*
X-186220Y-1587992D01*
X-386221Y-1437992D02*
X-361221Y-1412992D01*
X-286221Y-1587992D02*
Y-1437992D01*
X-111221Y-1412992D02*
X-86221Y-1437992D01*
X-261221Y-1412992D02*
X-211220D01*
X-361221D02*
X-311221D01*
X-361221Y-1612992D02*
X-311221D01*
X-286221Y-1587992D02*
X-261221Y-1612992D01*
X-211220D01*
X-111221D02*
X-86221Y-1587992D01*
X-161220Y-1412992D02*
X-111221D01*
X-386221Y-1587992D02*
X-361221Y-1612992D01*
X-286221Y-1437992D02*
X-261221Y-1412992D01*
X-161220Y-1612992D02*
X-111221D01*
X-186220Y-1437992D02*
X-161220Y-1412992D01*
X-311221D02*
X-286221Y-1437992D01*
X-86221Y-1587992D02*
Y-1437992D01*
X-186220Y-1587992D02*
X-161220Y-1612992D01*
X1574134Y1092716D02*
X1599134Y1117716D01*
X1499134Y1217716D02*
X1524134Y1192716D01*
X1499134Y1317716D02*
X1524134Y1292716D01*
Y992716D02*
X1574134D01*
X1499134Y1117716D02*
X1524134Y1092716D01*
X1574134Y1292716D02*
X1599134Y1317716D01*
X1499134Y1217716D02*
Y1267716D01*
Y1017716D02*
X1524134Y992716D01*
X1499134Y1117716D02*
Y1167716D01*
X1599134Y1317716D02*
Y1367716D01*
X1499134Y1267716D02*
X1524134Y1292716D01*
X1574134D02*
X1599134Y1267716D01*
X1499134Y1317716D02*
Y1367716D01*
X1574134Y992716D02*
X1599134Y1017716D01*
X1499134Y1167716D02*
X1524134Y1192716D01*
X1574134D02*
X1599134Y1167716D01*
Y1017716D02*
Y1067716D01*
X1499134Y1017716D02*
Y1067716D01*
X1599134Y1217716D02*
Y1267716D01*
Y1117716D02*
Y1167716D01*
X1499134Y1367716D02*
X1524134Y1392716D01*
X1499134Y1067716D02*
X1524134Y1092716D01*
X1574134Y1192716D02*
X1599134Y1217716D01*
X1574134Y1392716D02*
X1599134Y1367716D01*
X1524134Y1392716D02*
X1574134D01*
Y1092716D02*
X1599134Y1067716D01*
X1497244Y676772D02*
Y726772D01*
X1522244Y751772D01*
X1572244D02*
X1597244Y726772D01*
X1497244Y776772D02*
X1522244Y751772D01*
X1497244Y776772D02*
Y826772D01*
X1522244Y851772D01*
X1572244D02*
X1597244Y826772D01*
Y776772D02*
Y826772D01*
X1572244Y751772D02*
X1597244Y776772D01*
X1522244Y651772D02*
X1572244D01*
X1497244Y676772D02*
X1522244Y651772D01*
X1572244D02*
X1597244Y676772D01*
Y726772D01*
X1522244Y851772D02*
X1572244D01*
X527284Y780709D02*
Y830709D01*
X502284Y755709D02*
X527284Y780709D01*
X427284D02*
X452284Y755709D01*
X502284Y955709D02*
X527284Y930709D01*
Y880709D02*
Y930709D01*
X502284Y855709D02*
X527284Y880709D01*
X427284D02*
X452284Y855709D01*
X427284Y880709D02*
Y930709D01*
X452284Y955709D01*
X502284Y855709D02*
X527284Y830709D01*
X427284D02*
X452284Y855709D01*
X427284Y780709D02*
Y830709D01*
X527284Y1080709D02*
Y1130709D01*
X502284Y1055709D02*
X527284Y1080709D01*
X427284D02*
X452284Y1055709D01*
X502284D02*
X527284Y1030709D01*
Y980709D02*
Y1030709D01*
X502284Y955709D02*
X527284Y980709D01*
X427284D02*
X452284Y955709D01*
X427284Y980709D02*
Y1030709D01*
X452284Y1055709D01*
X502284Y1255709D02*
X527284Y1230709D01*
Y1180709D02*
Y1230709D01*
X502284Y1155709D02*
X527284Y1180709D01*
X427284D02*
X452284Y1155709D01*
X427284Y1180709D02*
Y1230709D01*
X452284Y1255709D01*
X502284Y1155709D02*
X527284Y1130709D01*
X427284D02*
X452284Y1155709D01*
X427284Y1080709D02*
Y1130709D01*
X527284Y1380709D02*
Y1430709D01*
X502284Y1355709D02*
X527284Y1380709D01*
X427284D02*
X452284Y1355709D01*
X502284D02*
X527284Y1330709D01*
Y1280709D02*
Y1330709D01*
X502284Y1255709D02*
X527284Y1280709D01*
X427284D02*
X452284Y1255709D01*
X427284Y1280709D02*
Y1330709D01*
X452284Y1355709D01*
Y1455709D02*
X502284D01*
X527284Y1430709D01*
X427284D02*
X452284Y1455709D01*
X427284Y1380709D02*
Y1430709D01*
X527284Y680709D02*
Y730709D01*
X502284Y655709D02*
X527284Y680709D01*
X427284D02*
X452284Y655709D01*
X502284Y755709D02*
X527284Y730709D01*
X427284D02*
X452284Y755709D01*
X427284Y680709D02*
Y730709D01*
X527284Y580709D02*
Y630709D01*
X502284Y555709D02*
X527284Y580709D01*
X427284D02*
X452284Y555709D01*
X502284Y655709D02*
X527284Y630709D01*
X427284D02*
X452284Y655709D01*
X427284Y580709D02*
Y630709D01*
X527284Y480709D02*
Y530709D01*
X502284Y455709D02*
X527284Y480709D01*
X452284Y455709D02*
X502284D01*
X427284Y480709D02*
X452284Y455709D01*
X502284Y555709D02*
X527284Y530709D01*
X427284D02*
X452284Y555709D01*
X427284Y480709D02*
Y530709D01*
D17*
X-322134Y-1228347D02*
X-306779D01*
X-412685D02*
X-322134D01*
X-338276Y-1196851D02*
X-306779Y-1228347D01*
X-337882Y-1259843D02*
X-306779Y-1228740D01*
X-338583Y-1141732D02*
X-307480Y-1110630D01*
Y-1110236D01*
X-338976Y-1078740D02*
X-307480Y-1110236D01*
X-322835D02*
X-307480D01*
X-413386D02*
X-322835D01*
D18*
X-417360Y744557D02*
X-457347D01*
Y684577D01*
X-417360D01*
X-457347Y714567D02*
X-437353D01*
X-397366Y684577D02*
Y744557D01*
X-367376D01*
X-357379Y734560D01*
Y714567D01*
X-367376Y704570D01*
X-397366D01*
X-307395Y684577D02*
Y744557D01*
X-337385Y714567D01*
X-297398D01*
X-237418Y734560D02*
X-247415Y744557D01*
X-267408D01*
X-277405Y734560D01*
Y694573D01*
X-267408Y684577D01*
X-247415D01*
X-237418Y694573D01*
X-177437Y744557D02*
X-217424D01*
Y684577D01*
X-177437D01*
X-217424Y714567D02*
X-197431D01*
X-117457Y744557D02*
X-137450Y734560D01*
X-157444Y714567D01*
Y694573D01*
X-147447Y684577D01*
X-127453D01*
X-117457Y694573D01*
Y704570D01*
X-127453Y714567D01*
X-157444D01*
X921686Y1559518D02*
X881699D01*
Y1499537D01*
X921686D01*
X881699Y1529528D02*
X901692D01*
X981667Y1549521D02*
X971670Y1559518D01*
X951676D01*
X941679Y1549521D01*
Y1539524D01*
X951676Y1529528D01*
X971670D01*
X981667Y1519531D01*
Y1509534D01*
X971670Y1499537D01*
X951676D01*
X941679Y1509534D01*
X1001660Y1499537D02*
Y1559518D01*
X1031650D01*
X1041647Y1549521D01*
Y1529528D01*
X1031650Y1519531D01*
X1001660D01*
X1061641Y1549521D02*
X1071637Y1559518D01*
X1091631D01*
X1101628Y1549521D01*
Y1539524D01*
X1091631Y1529528D01*
X1081634D01*
X1091631D01*
X1101628Y1519531D01*
Y1509534D01*
X1091631Y1499537D01*
X1071637D01*
X1061641Y1509534D01*
X1161608Y1499537D02*
X1121621D01*
X1161608Y1539524D01*
Y1549521D01*
X1151611Y1559518D01*
X1131618D01*
X1121621Y1549521D01*
X1203583Y-224764D02*
Y-264751D01*
X1183589Y-284744D01*
X1163596Y-264751D01*
Y-224764D01*
Y-254754D01*
X1203583D01*
X1143602Y-224764D02*
Y-284744D01*
X1103615Y-224764D01*
Y-284744D01*
X1083622D02*
X1043634D01*
X1063628D01*
Y-224764D01*
X983654Y-284744D02*
X1023641D01*
Y-224764D01*
X983654D01*
X1023641Y-254754D02*
X1003648D01*
X963660Y-224764D02*
Y-284744D01*
X923673Y-224764D01*
Y-284744D01*
X903680Y-224764D02*
Y-284744D01*
X863693Y-224764D01*
Y-284744D01*
X843699Y-224764D02*
Y-264751D01*
X823706Y-284744D01*
X803712Y-264751D01*
Y-224764D01*
Y-254754D01*
X843699D01*
X307032Y-1575266D02*
Y-1515285D01*
X337022D01*
X347019Y-1525282D01*
Y-1545276D01*
X337022Y-1555272D01*
X307032D01*
X367012Y-1515285D02*
Y-1575266D01*
X397002D01*
X406999Y-1565269D01*
Y-1525282D01*
X397002Y-1515285D01*
X367012D01*
X526961Y-1525282D02*
X516964Y-1515285D01*
X496970D01*
X486973Y-1525282D01*
Y-1535279D01*
X496970Y-1545276D01*
X516964D01*
X526961Y-1555272D01*
Y-1565269D01*
X516964Y-1575266D01*
X496970D01*
X486973Y-1565269D01*
X546954Y-1515285D02*
X566947D01*
X556951D01*
Y-1575266D01*
X546954D01*
X566947D01*
X596938D02*
Y-1515285D01*
X636925Y-1575266D01*
Y-1515285D01*
X656918D02*
Y-1575266D01*
Y-1555272D01*
X696905Y-1515285D01*
X666915Y-1545276D01*
X696905Y-1575266D01*
D19*
X-341831Y-1314967D02*
X-368069D01*
Y-1334646D01*
X-354950D01*
X-368069D01*
Y-1354324D01*
X-328712D02*
Y-1314967D01*
X-309033D01*
X-302473Y-1321527D01*
Y-1334646D01*
X-309033Y-1341205D01*
X-328712D01*
X-263116Y-1321527D02*
X-269675Y-1314967D01*
X-282795D01*
X-289354Y-1321527D01*
Y-1347765D01*
X-282795Y-1354324D01*
X-269675D01*
X-263116Y-1347765D01*
Y-1334646D01*
X-276235D01*
X-249997Y-1354324D02*
Y-1328086D01*
X-236878Y-1314967D01*
X-223759Y-1328086D01*
Y-1354324D01*
Y-1334646D01*
X-249997D01*
X-171282Y-1314967D02*
X-158163D01*
X-164722D01*
Y-1354324D01*
X-171282D01*
X-158163D01*
X-118805Y-1314967D02*
X-131925D01*
X-138484Y-1321527D01*
Y-1347765D01*
X-131925Y-1354324D01*
X-118805D01*
X-112246Y-1347765D01*
Y-1321527D01*
X-118805Y-1314967D01*
M02*
