G04*
G04 #@! TF.GenerationSoftware,Altium Limited,Altium Designer,23.3.1 (30)*
G04*
G04 Layer_Physical_Order=6*
G04 Layer_Color=16711680*
%FSLAX26Y26*%
%MOIN*%
G70*
G04*
G04 #@! TF.SameCoordinates,AF54F826-5E14-49BB-B143-2C6BD7E0847E*
G04*
G04*
G04 #@! TF.FilePolarity,Positive*
G04*
G01*
G75*
%ADD10C,0.007874*%
%ADD13C,0.078740*%
%ADD23C,0.039370*%
%ADD43C,0.094488*%
%ADD44C,0.062992*%
%ADD45R,0.062992X0.062992*%
%ADD50C,0.011811*%
%ADD52R,0.025000X0.050000*%
G04:AMPARAMS|DCode=53|XSize=50mil|YSize=50mil|CornerRadius=25mil|HoleSize=0mil|Usage=FLASHONLY|Rotation=180.000|XOffset=0mil|YOffset=0mil|HoleType=Round|Shape=RoundedRectangle|*
%AMROUNDEDRECTD53*
21,1,0.050000,0.000000,0,0,180.0*
21,1,0.000000,0.050000,0,0,180.0*
1,1,0.050000,0.000000,0.000000*
1,1,0.050000,0.000000,0.000000*
1,1,0.050000,0.000000,0.000000*
1,1,0.050000,0.000000,0.000000*
%
%ADD53ROUNDEDRECTD53*%
%ADD56R,0.016000X0.010000*%
%ADD57R,0.062992X0.062992*%
%ADD58C,0.074000*%
%ADD59C,0.074803*%
%ADD60R,0.080000X0.080000*%
%ADD61C,0.080000*%
%ADD62C,0.130000*%
%ADD63C,0.059055*%
%ADD64C,0.149606*%
%ADD65C,0.100000*%
%ADD66C,0.070000*%
%ADD67C,0.055118*%
%ADD68R,0.055118X0.055118*%
%ADD69R,0.059055X0.059055*%
%ADD70C,0.062992*%
%ADD71R,0.062992X0.062992*%
%ADD74R,0.106299X0.102362*%
%ADD75R,0.082677X0.106299*%
%ADD76R,0.082677X0.086614*%
%ADD77R,0.082677X0.078740*%
G36*
X351575Y1556204D02*
X356989Y1557654D01*
X366003Y1562858D01*
X373362Y1570218D01*
X378566Y1579231D01*
X380808Y1587598D01*
X418183D01*
X420097Y1582979D01*
X362692Y1525574D01*
X356169Y1529341D01*
X346656Y1531890D01*
X336808D01*
X327296Y1529341D01*
X318767Y1524417D01*
X311804Y1517453D01*
X306880Y1508925D01*
X304331Y1499412D01*
Y1489564D01*
X306880Y1480052D01*
X311804Y1471523D01*
X318767Y1464560D01*
X327296Y1459636D01*
X336808Y1457087D01*
X346656D01*
X352551Y1458666D01*
X355663Y1454324D01*
X354495Y1452576D01*
X353426Y1447200D01*
Y1438835D01*
X346481Y1431890D01*
X336808D01*
X327296Y1429341D01*
X318767Y1424417D01*
X311804Y1417453D01*
X306880Y1408925D01*
X304331Y1399412D01*
Y1389564D01*
X306880Y1380052D01*
X311804Y1371523D01*
X318767Y1364560D01*
X327296Y1359636D01*
X336808Y1357087D01*
X346656D01*
X356169Y1359636D01*
X364697Y1364560D01*
X371661Y1371523D01*
X374266Y1376035D01*
X379266Y1374695D01*
Y1362663D01*
X348105Y1331502D01*
X346656Y1331890D01*
X336808D01*
X327296Y1329341D01*
X318767Y1324417D01*
X311804Y1317453D01*
X306880Y1308925D01*
X304331Y1299412D01*
Y1289564D01*
X306880Y1280052D01*
X311804Y1271523D01*
X318767Y1264560D01*
X327296Y1259636D01*
X336808Y1257087D01*
X346656D01*
X356169Y1259636D01*
X364697Y1264560D01*
X371661Y1271523D01*
X376585Y1280052D01*
X379134Y1289564D01*
Y1299412D01*
X376585Y1308925D01*
X372442Y1316101D01*
X381182Y1324841D01*
X385801Y1322927D01*
Y1258426D01*
X356516Y1229140D01*
X356169Y1229341D01*
X346656Y1231890D01*
X336808D01*
X327296Y1229341D01*
X318767Y1224417D01*
X311804Y1217453D01*
X306880Y1208925D01*
X304331Y1199412D01*
Y1189564D01*
X306880Y1180052D01*
X311804Y1171523D01*
X318767Y1164560D01*
X327296Y1159636D01*
X336808Y1157087D01*
X346656D01*
X356169Y1159636D01*
X364697Y1164560D01*
X371661Y1171523D01*
X376585Y1180052D01*
X379134Y1189564D01*
Y1199412D01*
X376585Y1208925D01*
X376385Y1209272D01*
X397717Y1230604D01*
X402336Y1228690D01*
Y1174961D01*
X356516Y1129140D01*
X356169Y1129341D01*
X346656Y1131890D01*
X336808D01*
X327296Y1129341D01*
X318767Y1124417D01*
X311804Y1117453D01*
X306880Y1108925D01*
X304331Y1099412D01*
Y1089564D01*
X306880Y1080052D01*
X311804Y1071523D01*
X318767Y1064560D01*
X327296Y1059636D01*
X336808Y1057087D01*
X346656D01*
X356169Y1059636D01*
X364697Y1064560D01*
X371661Y1071523D01*
X376585Y1080052D01*
X379134Y1089564D01*
Y1099412D01*
X376585Y1108925D01*
X376385Y1109272D01*
X426320Y1159207D01*
X429366Y1163765D01*
X430435Y1169142D01*
Y1278444D01*
X435435Y1279784D01*
X436375Y1278155D01*
X444730Y1269801D01*
X454963Y1263893D01*
X466376Y1260835D01*
X478191D01*
X489604Y1263893D01*
X499837Y1269801D01*
X508192Y1278155D01*
X514099Y1288388D01*
X517158Y1299801D01*
Y1311617D01*
X514099Y1323029D01*
X508192Y1333262D01*
X499837Y1341617D01*
X489604Y1347525D01*
X478191Y1350583D01*
X466376D01*
X454963Y1347525D01*
X445294Y1341942D01*
X443564Y1342371D01*
X440435Y1344393D01*
Y1378444D01*
X445435Y1379784D01*
X446375Y1378155D01*
X454730Y1369801D01*
X464963Y1363893D01*
X476376Y1360835D01*
X488191D01*
X499604Y1363893D01*
X509837Y1369801D01*
X518192Y1378155D01*
X524099Y1388388D01*
X527158Y1399801D01*
Y1411617D01*
X524099Y1423029D01*
X518192Y1433262D01*
X509837Y1441617D01*
X499604Y1447525D01*
X488191Y1450583D01*
X479074D01*
X476136Y1455483D01*
X476681Y1456423D01*
X617845D01*
X619221Y1454578D01*
X618873Y1453151D01*
X616574Y1449764D01*
X606757D01*
X595853Y1446842D01*
X586076Y1441198D01*
X578094Y1433215D01*
X572449Y1423439D01*
X569528Y1412534D01*
Y1401245D01*
X572449Y1390341D01*
X578094Y1380564D01*
X586076Y1372582D01*
X595853Y1366938D01*
X606757Y1364016D01*
X618046D01*
X628950Y1366938D01*
X638727Y1372582D01*
X646709Y1380564D01*
X647459Y1381864D01*
X652289Y1380570D01*
Y1333210D01*
X647459Y1331916D01*
X646709Y1333215D01*
X638727Y1341198D01*
X628950Y1346842D01*
X618046Y1349764D01*
X606757D01*
X595853Y1346842D01*
X586076Y1341198D01*
X578094Y1333215D01*
X572449Y1323439D01*
X569528Y1312534D01*
Y1301245D01*
X572449Y1290341D01*
X578094Y1280564D01*
X586076Y1272582D01*
X595853Y1266938D01*
X606757Y1264016D01*
X618046D01*
X628950Y1266938D01*
X638727Y1272582D01*
X646709Y1280564D01*
X647459Y1281864D01*
X652289Y1280570D01*
Y1233210D01*
X647459Y1231916D01*
X646709Y1233215D01*
X638727Y1241198D01*
X628950Y1246842D01*
X618046Y1249764D01*
X606757D01*
X595853Y1246842D01*
X586076Y1241198D01*
X578094Y1233215D01*
X572449Y1223439D01*
X569528Y1212534D01*
Y1201245D01*
X572449Y1190341D01*
X578094Y1180564D01*
X586076Y1172582D01*
X595853Y1166938D01*
X606757Y1164016D01*
X618046D01*
X628950Y1166938D01*
X638727Y1172582D01*
X646709Y1180564D01*
X647459Y1181864D01*
X652289Y1180570D01*
Y1033210D01*
X647459Y1031916D01*
X646709Y1033215D01*
X638727Y1041198D01*
X628950Y1046842D01*
X618046Y1049764D01*
X606757D01*
X595853Y1046842D01*
X586076Y1041198D01*
X578094Y1033215D01*
X572449Y1023439D01*
X569528Y1012534D01*
Y1001245D01*
X572449Y990341D01*
X578094Y980564D01*
X586076Y972582D01*
X595853Y966938D01*
X606757Y964016D01*
X618046D01*
X628950Y966938D01*
X631191Y968231D01*
X676180Y923243D01*
Y785164D01*
X677249Y779788D01*
X680295Y775230D01*
X740066Y715459D01*
X744624Y712414D01*
X750000Y711344D01*
X758428D01*
X759768Y706344D01*
X754165Y703110D01*
X747568Y696512D01*
X742903Y688433D01*
X740488Y679421D01*
Y670091D01*
X742903Y661080D01*
X747568Y653000D01*
X754165Y646403D01*
X762245Y641738D01*
X771256Y639323D01*
X780586D01*
X789598Y641738D01*
X797678Y646403D01*
X804275Y653000D01*
X808940Y661080D01*
X811354Y670091D01*
Y679421D01*
X808940Y688433D01*
X804275Y696512D01*
X797678Y703110D01*
X792075Y706344D01*
X793415Y711344D01*
X858428D01*
X859768Y706344D01*
X854165Y703110D01*
X847568Y696512D01*
X842903Y688433D01*
X840488Y679421D01*
Y670091D01*
X842903Y661080D01*
X847568Y653000D01*
X854165Y646403D01*
X862245Y641738D01*
X871256Y639323D01*
X880586D01*
X889182Y641626D01*
X999730Y531078D01*
Y64875D01*
X695952Y-238903D01*
X501883D01*
X407572Y-144593D01*
X403014Y-141548D01*
X397638Y-140478D01*
X365972D01*
X364632Y-135478D01*
X364697Y-135440D01*
X371661Y-128477D01*
X376585Y-119948D01*
X379134Y-110436D01*
Y-100588D01*
X376585Y-91075D01*
X371661Y-82547D01*
X365250Y-76136D01*
X366032Y-71136D01*
X389850D01*
X525499Y-206785D01*
X530057Y-209830D01*
X535433Y-210900D01*
X664370D01*
X669747Y-209830D01*
X674305Y-206785D01*
X980407Y99317D01*
X983452Y103875D01*
X984522Y109252D01*
Y480205D01*
X983452Y485582D01*
X980407Y490139D01*
X909051Y561495D01*
X911354Y570091D01*
Y579421D01*
X908940Y588433D01*
X904275Y596512D01*
X897678Y603110D01*
X889598Y607774D01*
X880586Y610189D01*
X871256D01*
X862245Y607774D01*
X854165Y603110D01*
X847568Y596512D01*
X842903Y588433D01*
X840488Y579421D01*
Y570091D01*
X842903Y561080D01*
X847568Y553000D01*
X854165Y546403D01*
X862245Y541738D01*
X871256Y539323D01*
X880586D01*
X889182Y541626D01*
X956423Y474385D01*
Y115071D01*
X658551Y-182801D01*
X541253D01*
X405604Y-47152D01*
X401046Y-44107D01*
X395669Y-43037D01*
X361539D01*
X360200Y-38037D01*
X364697Y-35440D01*
X371661Y-28477D01*
X376585Y-19948D01*
X379134Y-10436D01*
Y-588D01*
X376585Y8925D01*
X371661Y17453D01*
X367432Y21683D01*
X369015Y27170D01*
X370895Y27598D01*
X555435Y-156942D01*
X559993Y-159988D01*
X565370Y-161057D01*
X649252D01*
X654629Y-159988D01*
X659187Y-156942D01*
X941037Y124908D01*
X944082Y129466D01*
X945152Y134843D01*
Y419575D01*
X944082Y424952D01*
X941037Y429510D01*
X909051Y461495D01*
X911354Y470091D01*
Y479421D01*
X908940Y488433D01*
X904275Y496512D01*
X897678Y503110D01*
X889598Y507774D01*
X880586Y510189D01*
X871256D01*
X862245Y507774D01*
X854165Y503110D01*
X847568Y496512D01*
X842903Y488433D01*
X840488Y479421D01*
Y470091D01*
X842903Y461079D01*
X847568Y453000D01*
X854165Y446403D01*
X862245Y441738D01*
X871256Y439323D01*
X880586D01*
X889182Y441626D01*
X917053Y413755D01*
Y140662D01*
X643452Y-132939D01*
X639503Y-132524D01*
X638103Y-127778D01*
X638727Y-127418D01*
X646709Y-119436D01*
X652354Y-109659D01*
X655276Y-98755D01*
Y-87466D01*
X652354Y-76561D01*
X649835Y-72199D01*
X713493Y-8541D01*
X716144Y-9252D01*
X724800D01*
X733161Y-7012D01*
X740658Y-2684D01*
X746778Y3437D01*
X751106Y10933D01*
X753346Y19294D01*
Y27950D01*
X751106Y36311D01*
X746778Y43807D01*
X740658Y49928D01*
X733161Y54256D01*
X724800Y56496D01*
X716144D01*
X707784Y54256D01*
X700287Y49928D01*
X694167Y43807D01*
X689839Y36311D01*
X687598Y27950D01*
Y19294D01*
X689839Y10933D01*
X691080Y8783D01*
X629070Y-53227D01*
X628950Y-53158D01*
X618046Y-50236D01*
X606757D01*
X595853Y-53158D01*
X586076Y-58802D01*
X578094Y-66785D01*
X572449Y-76561D01*
X569528Y-87466D01*
Y-98755D01*
X572449Y-109659D01*
X578094Y-119436D01*
X586076Y-127418D01*
X587307Y-128129D01*
X586013Y-132958D01*
X571189D01*
X385383Y52848D01*
X380825Y55893D01*
X375448Y56963D01*
X361539D01*
X360200Y61963D01*
X364697Y64560D01*
X371661Y71523D01*
X376585Y80052D01*
X379134Y89564D01*
Y99412D01*
X376585Y108925D01*
X371661Y117453D01*
X364697Y124417D01*
X356169Y129341D01*
X346656Y131890D01*
X336808D01*
X327296Y129341D01*
X318767Y124417D01*
X311804Y117453D01*
X306880Y108925D01*
X304331Y99412D01*
Y89564D01*
X306880Y80052D01*
X311804Y71523D01*
X318767Y64560D01*
X323265Y61963D01*
X321925Y56963D01*
X299127D01*
X276385Y79705D01*
X276585Y80052D01*
X279134Y89564D01*
Y99412D01*
X276585Y108925D01*
X271661Y117453D01*
X264697Y124417D01*
X260200Y127013D01*
X261539Y132013D01*
X293307D01*
X298684Y133083D01*
X303242Y136129D01*
X326949Y159836D01*
X327296Y159636D01*
X336808Y157087D01*
X346656D01*
X356169Y159636D01*
X364697Y164560D01*
X371661Y171523D01*
X376585Y180052D01*
X379134Y189564D01*
Y199412D01*
X376585Y208925D01*
X371661Y217453D01*
X364697Y224417D01*
X356169Y229341D01*
X346656Y231890D01*
X336808D01*
X327296Y229341D01*
X318767Y224417D01*
X311804Y217453D01*
X306880Y208925D01*
X304331Y199412D01*
Y189564D01*
X306880Y180052D01*
X307080Y179705D01*
X287488Y160113D01*
X266032D01*
X265250Y165113D01*
X271661Y171523D01*
X276585Y180052D01*
X279134Y189564D01*
Y199412D01*
X276585Y208925D01*
X271661Y217453D01*
X264697Y224417D01*
X256169Y229341D01*
X246656Y231890D01*
X236808D01*
X227296Y229341D01*
X218767Y224417D01*
X211804Y217453D01*
X206880Y208925D01*
X204331Y199412D01*
Y189564D01*
X206880Y180052D01*
X211804Y171523D01*
X218214Y165113D01*
X217432Y160113D01*
X-31102D01*
X-36479Y159043D01*
X-41037Y155998D01*
X-167415Y29620D01*
X-170460Y25062D01*
X-171530Y19685D01*
Y-773314D01*
X-324235Y-926019D01*
X-327168Y-924326D01*
X-338580Y-921268D01*
X-350396D01*
X-361809Y-924326D01*
X-372041Y-930234D01*
X-380396Y-938588D01*
X-386304Y-948821D01*
X-389362Y-960234D01*
Y-972049D01*
X-386304Y-983462D01*
X-380396Y-993695D01*
X-372041Y-1002050D01*
X-361809Y-1007958D01*
X-350396Y-1011016D01*
X-338580D01*
X-327168Y-1007958D01*
X-316935Y-1002050D01*
X-308580Y-993695D01*
X-302672Y-983462D01*
X-299614Y-972049D01*
Y-960234D01*
X-302672Y-948821D01*
X-304366Y-945888D01*
X-147546Y-789068D01*
X-144500Y-784510D01*
X-143431Y-779134D01*
Y13866D01*
X-25283Y132013D01*
X221925D01*
X223265Y127013D01*
X218767Y124417D01*
X211804Y117453D01*
X206880Y108925D01*
X204331Y99412D01*
Y89564D01*
X206880Y80052D01*
X211804Y71523D01*
X218767Y64560D01*
X227296Y59636D01*
X236808Y57087D01*
X246656D01*
X256169Y59636D01*
X256516Y59836D01*
X283373Y32979D01*
X287931Y29933D01*
X293307Y28864D01*
X317432D01*
X318214Y23864D01*
X311804Y17453D01*
X306880Y8925D01*
X304331Y-588D01*
Y-10436D01*
X306880Y-19948D01*
X311804Y-28477D01*
X318767Y-35440D01*
X323265Y-38037D01*
X321925Y-43037D01*
X299127D01*
X276385Y-20295D01*
X276585Y-19948D01*
X279134Y-10436D01*
Y-588D01*
X276585Y8925D01*
X271661Y17453D01*
X264697Y24417D01*
X256169Y29341D01*
X246656Y31890D01*
X236808D01*
X227296Y29341D01*
X218767Y24417D01*
X211804Y17453D01*
X206880Y8925D01*
X204331Y-588D01*
Y-10436D01*
X206880Y-19948D01*
X211804Y-28477D01*
X218767Y-35440D01*
X227296Y-40364D01*
X236808Y-42913D01*
X246656D01*
X256169Y-40364D01*
X256516Y-40164D01*
X283373Y-67021D01*
X287931Y-70067D01*
X293307Y-71136D01*
X317432D01*
X318214Y-76136D01*
X311804Y-82547D01*
X306880Y-91075D01*
X304331Y-100588D01*
Y-110436D01*
X306880Y-119948D01*
X311804Y-128477D01*
X318767Y-135440D01*
X318832Y-135478D01*
X317493Y-140478D01*
X296568D01*
X276385Y-120295D01*
X276585Y-119948D01*
X279134Y-110436D01*
Y-100588D01*
X276585Y-91075D01*
X271661Y-82547D01*
X264697Y-75583D01*
X256169Y-70659D01*
X246656Y-68110D01*
X236808D01*
X227296Y-70659D01*
X218767Y-75583D01*
X211804Y-82547D01*
X206880Y-91075D01*
X204331Y-100588D01*
Y-110436D01*
X206880Y-119948D01*
X211804Y-128477D01*
X218767Y-135440D01*
X227296Y-140364D01*
X236808Y-142913D01*
X246656D01*
X256169Y-140364D01*
X256516Y-140164D01*
X280814Y-164462D01*
X285372Y-167508D01*
X290748Y-168577D01*
X320902D01*
X322242Y-173577D01*
X318767Y-175583D01*
X311804Y-182547D01*
X306880Y-191075D01*
X304331Y-200588D01*
Y-210436D01*
X306880Y-219948D01*
X311804Y-228477D01*
X318767Y-235440D01*
X327296Y-240364D01*
X336808Y-242913D01*
X343032D01*
X344830Y-245605D01*
X540703Y-441478D01*
X545261Y-444523D01*
X550638Y-445593D01*
X751959D01*
X753298Y-450593D01*
X747647Y-456244D01*
X742982Y-464323D01*
X740567Y-473335D01*
Y-482665D01*
X742982Y-491677D01*
X747647Y-499756D01*
X754244Y-506353D01*
X762323Y-511018D01*
X767830Y-512494D01*
X767172Y-517494D01*
X573583D01*
X376385Y-320295D01*
X376585Y-319948D01*
X379134Y-310436D01*
Y-300588D01*
X376585Y-291075D01*
X371661Y-282547D01*
X364697Y-275583D01*
X356169Y-270659D01*
X346656Y-268110D01*
X336808D01*
X327296Y-270659D01*
X318767Y-275583D01*
X311804Y-282547D01*
X306880Y-291075D01*
X304331Y-300588D01*
Y-310436D01*
X306880Y-319948D01*
X311804Y-328477D01*
X318767Y-335440D01*
X327296Y-340364D01*
X336808Y-342913D01*
X346656D01*
X356169Y-340364D01*
X356516Y-340164D01*
X557829Y-541478D01*
X562387Y-544523D01*
X567764Y-545593D01*
X751959D01*
X753298Y-550593D01*
X747647Y-556244D01*
X742982Y-564323D01*
X740567Y-573335D01*
Y-582665D01*
X742982Y-591677D01*
X747647Y-599756D01*
X754244Y-606353D01*
X762323Y-611018D01*
X767830Y-612494D01*
X767172Y-617494D01*
X573583D01*
X376385Y-420295D01*
X376585Y-419948D01*
X379134Y-410436D01*
Y-400588D01*
X376585Y-391075D01*
X371661Y-382547D01*
X364697Y-375583D01*
X356169Y-370659D01*
X346656Y-368110D01*
X336808D01*
X327296Y-370659D01*
X318767Y-375583D01*
X311804Y-382547D01*
X306880Y-391075D01*
X304331Y-400588D01*
Y-410436D01*
X306880Y-419948D01*
X311804Y-428477D01*
X318767Y-435440D01*
X327296Y-440364D01*
X336808Y-442913D01*
X346656D01*
X356169Y-440364D01*
X356516Y-440164D01*
X557829Y-641478D01*
X562387Y-644523D01*
X567764Y-645593D01*
X751959D01*
X753298Y-650593D01*
X747647Y-656244D01*
X742982Y-664323D01*
X740567Y-673335D01*
Y-682665D01*
X742982Y-691677D01*
X747647Y-699756D01*
X754244Y-706353D01*
X762323Y-711018D01*
X767830Y-712494D01*
X767172Y-717494D01*
X573583D01*
X376385Y-520295D01*
X376585Y-519948D01*
X379134Y-510436D01*
Y-500588D01*
X376585Y-491075D01*
X371661Y-482547D01*
X364697Y-475583D01*
X356169Y-470659D01*
X346656Y-468110D01*
X336808D01*
X327296Y-470659D01*
X318767Y-475583D01*
X311804Y-482547D01*
X306880Y-491075D01*
X304331Y-500588D01*
Y-510436D01*
X306880Y-519948D01*
X311804Y-528477D01*
X318767Y-535440D01*
X327296Y-540364D01*
X336808Y-542913D01*
X346656D01*
X356169Y-540364D01*
X356516Y-540164D01*
X557829Y-741478D01*
X562387Y-744523D01*
X567764Y-745593D01*
X751959D01*
X753298Y-750593D01*
X747647Y-756244D01*
X742982Y-764323D01*
X740567Y-773335D01*
Y-782665D01*
X742982Y-791677D01*
X747647Y-799756D01*
X754244Y-806353D01*
X762323Y-811018D01*
X771335Y-813433D01*
X780665D01*
X789677Y-811018D01*
X797756Y-806353D01*
X804353Y-799756D01*
X809018Y-791677D01*
X811433Y-782665D01*
Y-773335D01*
X809018Y-764323D01*
X804353Y-756244D01*
X798702Y-750593D01*
X800041Y-745593D01*
X823724D01*
X842870Y-764739D01*
X840567Y-773335D01*
Y-782665D01*
X842982Y-791677D01*
X847647Y-799756D01*
X854244Y-806353D01*
X862323Y-811018D01*
X871335Y-813433D01*
X880665D01*
X889677Y-811018D01*
X897756Y-806353D01*
X904353Y-799756D01*
X909018Y-791677D01*
X911433Y-782665D01*
Y-773335D01*
X909018Y-764323D01*
X904353Y-756244D01*
X897756Y-749647D01*
X889677Y-744982D01*
X880665Y-742567D01*
X871335D01*
X862739Y-744870D01*
X839478Y-721609D01*
X834920Y-718563D01*
X829543Y-717494D01*
X784828D01*
X784170Y-712494D01*
X789677Y-711018D01*
X797756Y-706353D01*
X804353Y-699756D01*
X809018Y-691677D01*
X811433Y-682665D01*
Y-673335D01*
X809018Y-664323D01*
X804353Y-656244D01*
X798702Y-650593D01*
X800041Y-645593D01*
X823724D01*
X842870Y-664739D01*
X840567Y-673335D01*
Y-682665D01*
X842982Y-691677D01*
X847647Y-699756D01*
X854244Y-706353D01*
X862323Y-711018D01*
X871335Y-713433D01*
X880665D01*
X889677Y-711018D01*
X897756Y-706353D01*
X904353Y-699756D01*
X909018Y-691677D01*
X911433Y-682665D01*
Y-673335D01*
X909018Y-664323D01*
X904353Y-656244D01*
X897756Y-649647D01*
X889677Y-644982D01*
X880665Y-642567D01*
X871335D01*
X862739Y-644870D01*
X839478Y-621609D01*
X834920Y-618563D01*
X829543Y-617494D01*
X784828D01*
X784170Y-612494D01*
X789677Y-611018D01*
X797756Y-606353D01*
X804353Y-599756D01*
X809018Y-591677D01*
X811433Y-582665D01*
Y-573335D01*
X809018Y-564323D01*
X804353Y-556244D01*
X798702Y-550593D01*
X800041Y-545593D01*
X823724D01*
X842870Y-564739D01*
X840567Y-573335D01*
Y-582665D01*
X842982Y-591677D01*
X847647Y-599756D01*
X854244Y-606353D01*
X862323Y-611018D01*
X871335Y-613433D01*
X880665D01*
X889677Y-611018D01*
X897756Y-606353D01*
X904353Y-599756D01*
X909018Y-591677D01*
X911433Y-582665D01*
Y-573335D01*
X909018Y-564323D01*
X904353Y-556244D01*
X897756Y-549647D01*
X889677Y-544982D01*
X880665Y-542567D01*
X871335D01*
X862739Y-544870D01*
X839478Y-521609D01*
X834920Y-518563D01*
X829543Y-517494D01*
X784828D01*
X784170Y-512494D01*
X789677Y-511018D01*
X797756Y-506353D01*
X804353Y-499756D01*
X809018Y-491677D01*
X811433Y-482665D01*
Y-473335D01*
X809018Y-464323D01*
X804353Y-456244D01*
X798702Y-450593D01*
X800041Y-445593D01*
X823724D01*
X842870Y-464739D01*
X840567Y-473335D01*
Y-482665D01*
X842982Y-491677D01*
X847647Y-499756D01*
X854244Y-506353D01*
X862323Y-511018D01*
X871335Y-513433D01*
X880665D01*
X889677Y-511018D01*
X897756Y-506353D01*
X904353Y-499756D01*
X909018Y-491677D01*
X911433Y-482665D01*
Y-473335D01*
X909018Y-464323D01*
X904353Y-456244D01*
X897756Y-449647D01*
X889677Y-444982D01*
X880665Y-442567D01*
X871335D01*
X862739Y-444870D01*
X839478Y-421609D01*
X834920Y-418563D01*
X829543Y-417494D01*
X817758D01*
X813559Y-415559D01*
X813559Y-412494D01*
Y-387842D01*
X776000D01*
X738441D01*
Y-412494D01*
X738441Y-415559D01*
X734242Y-417494D01*
X556457D01*
X369551Y-230587D01*
X371661Y-228477D01*
X376585Y-219948D01*
X379134Y-210436D01*
Y-200588D01*
X376585Y-191075D01*
X371661Y-182547D01*
X364697Y-175583D01*
X361223Y-173577D01*
X362562Y-168577D01*
X391818D01*
X486129Y-262887D01*
X490687Y-265933D01*
X496063Y-267002D01*
X701772D01*
X707148Y-265933D01*
X711706Y-262887D01*
X1023714Y49121D01*
X1026759Y53679D01*
X1027829Y59055D01*
Y536898D01*
X1026759Y542274D01*
X1023714Y546832D01*
X909051Y661495D01*
X911354Y670091D01*
Y679421D01*
X908940Y688433D01*
X904275Y696512D01*
X897678Y703110D01*
X892075Y706344D01*
X893415Y711344D01*
X935125D01*
X1052919Y593551D01*
Y-828799D01*
X1049648Y-829675D01*
X1039415Y-835583D01*
X1031060Y-843938D01*
X1025153Y-854171D01*
X1022095Y-865583D01*
Y-877399D01*
X1025153Y-888812D01*
X1031060Y-899045D01*
X1039415Y-907399D01*
X1049648Y-913307D01*
X1061061Y-916365D01*
X1072876D01*
X1084289Y-913307D01*
X1094522Y-907399D01*
X1102877Y-899045D01*
X1108784Y-888812D01*
X1111842Y-877399D01*
Y-865583D01*
X1108784Y-854171D01*
X1102877Y-843938D01*
X1094522Y-835583D01*
X1084289Y-829675D01*
X1081018Y-828799D01*
Y599370D01*
X1079948Y604747D01*
X1076903Y609305D01*
X950879Y735328D01*
X946321Y738374D01*
X940945Y739443D01*
X895624D01*
X894284Y744443D01*
X897678Y746403D01*
X904275Y753000D01*
X908940Y761080D01*
X911354Y770091D01*
Y779421D01*
X909051Y788017D01*
X996155Y875121D01*
X999201Y879679D01*
X1000270Y885055D01*
Y1417323D01*
X999201Y1422699D01*
X996155Y1427257D01*
X840433Y1582979D01*
X842347Y1587598D01*
X1262384D01*
X1265362Y1583582D01*
X1263248Y1576613D01*
X1261305Y1556890D01*
X1263248Y1537167D01*
X1269001Y1518202D01*
X1278343Y1500724D01*
X1290916Y1485404D01*
X1306236Y1472831D01*
X1323714Y1463489D01*
X1342679Y1457736D01*
X1362402Y1455794D01*
X1382124Y1457736D01*
X1401089Y1463489D01*
X1418568Y1472831D01*
X1433887Y1485404D01*
X1446460Y1500724D01*
X1455802Y1518202D01*
X1461555Y1537167D01*
X1463498Y1556890D01*
X1461555Y1576613D01*
X1459441Y1583582D01*
X1462420Y1587598D01*
X1558071D01*
Y1387591D01*
X1548226D01*
X1536813Y1384532D01*
X1526581Y1378625D01*
X1518226Y1370270D01*
X1512318Y1360037D01*
X1509260Y1348624D01*
Y1336809D01*
X1512318Y1325396D01*
X1518226Y1315163D01*
X1526581Y1306808D01*
X1536813Y1300901D01*
X1548226Y1297842D01*
X1558071D01*
Y1289546D01*
X1554104Y1286502D01*
X1550042Y1287591D01*
X1538226D01*
X1526813Y1284532D01*
X1516581Y1278625D01*
X1508226Y1270270D01*
X1502318Y1260037D01*
X1499260Y1248624D01*
Y1236809D01*
X1502318Y1225396D01*
X1508226Y1215163D01*
X1516581Y1206808D01*
X1526813Y1200901D01*
X1538226Y1197842D01*
X1550042D01*
X1554104Y1198931D01*
X1558071Y1195887D01*
Y1187591D01*
X1548226D01*
X1536813Y1184532D01*
X1526581Y1178625D01*
X1518226Y1170270D01*
X1512318Y1160037D01*
X1509260Y1148624D01*
Y1136809D01*
X1512318Y1125396D01*
X1518226Y1115163D01*
X1526581Y1106808D01*
X1536813Y1100901D01*
X1548226Y1097842D01*
X1558071D01*
Y1089546D01*
X1554104Y1086502D01*
X1550042Y1087591D01*
X1538226D01*
X1526813Y1084532D01*
X1516581Y1078625D01*
X1508226Y1070270D01*
X1502318Y1060037D01*
X1499260Y1048624D01*
Y1036809D01*
X1502318Y1025396D01*
X1508226Y1015163D01*
X1516581Y1006808D01*
X1526813Y1000901D01*
X1538226Y997842D01*
X1550042D01*
X1554104Y998931D01*
X1558071Y995887D01*
Y856434D01*
X1554104Y853391D01*
X1553152Y853646D01*
X1541336D01*
X1529923Y850588D01*
X1519691Y844680D01*
X1511336Y836325D01*
X1505428Y826092D01*
X1502370Y814679D01*
Y802864D01*
X1505428Y791451D01*
X1511336Y781218D01*
X1519691Y772864D01*
X1529923Y766956D01*
X1541336Y763898D01*
X1553152D01*
X1554104Y764153D01*
X1558071Y761109D01*
Y742434D01*
X1554104Y739391D01*
X1553152Y739646D01*
X1541336D01*
X1529923Y736588D01*
X1519691Y730680D01*
X1511336Y722325D01*
X1505428Y712092D01*
X1502370Y700679D01*
Y688864D01*
X1505428Y677451D01*
X1511336Y667218D01*
X1519691Y658864D01*
X1529923Y652956D01*
X1541336Y649898D01*
X1553152D01*
X1554104Y650153D01*
X1558071Y647109D01*
Y-112378D01*
X1553451Y-114291D01*
X1451060Y-11900D01*
X1452354Y-9659D01*
X1455276Y1245D01*
Y12534D01*
X1452354Y23439D01*
X1446709Y33215D01*
X1438727Y41198D01*
X1428950Y46842D01*
X1418046Y49764D01*
X1406757D01*
X1395853Y46842D01*
X1386076Y41198D01*
X1378094Y33215D01*
X1372449Y23439D01*
X1369528Y12534D01*
Y1245D01*
X1372449Y-9659D01*
X1378094Y-19436D01*
X1386076Y-27418D01*
X1395853Y-33062D01*
X1406757Y-35984D01*
X1418046D01*
X1428950Y-33062D01*
X1431191Y-31769D01*
X1558071Y-158649D01*
Y-694158D01*
X1549215Y-696531D01*
X1538982Y-702438D01*
X1530627Y-710793D01*
X1524719Y-721026D01*
X1521661Y-732439D01*
Y-744254D01*
X1524719Y-755667D01*
X1530627Y-765900D01*
X1538982Y-774255D01*
X1549215Y-780162D01*
X1558071Y-782535D01*
Y-818228D01*
X1558011Y-818317D01*
X1556942Y-823694D01*
Y-827721D01*
X1549648Y-829675D01*
X1539415Y-835583D01*
X1531060Y-843938D01*
X1525153Y-854171D01*
X1522094Y-865583D01*
Y-877399D01*
X1525153Y-888812D01*
X1531060Y-899045D01*
X1539415Y-907399D01*
X1549648Y-913307D01*
X1558071Y-915564D01*
Y-1527418D01*
X1549648Y-1529675D01*
X1539415Y-1535583D01*
X1531060Y-1543938D01*
X1525153Y-1554171D01*
X1522094Y-1565583D01*
Y-1577399D01*
X1523237Y-1581663D01*
X1520193Y-1585630D01*
X1413744D01*
X1410700Y-1581663D01*
X1411842Y-1577399D01*
Y-1565583D01*
X1408784Y-1554171D01*
X1402877Y-1543938D01*
X1394522Y-1535583D01*
X1384289Y-1529675D01*
X1372876Y-1526617D01*
X1361061D01*
X1349648Y-1529675D01*
X1339415Y-1535583D01*
X1331060Y-1543938D01*
X1325153Y-1554171D01*
X1322094Y-1565583D01*
Y-1577399D01*
X1323237Y-1581663D01*
X1320193Y-1585630D01*
X1313744D01*
X1310700Y-1581663D01*
X1311842Y-1577399D01*
Y-1565583D01*
X1308784Y-1554171D01*
X1302877Y-1543938D01*
X1294522Y-1535583D01*
X1284289Y-1529675D01*
X1272876Y-1526617D01*
X1261061D01*
X1249648Y-1529675D01*
X1239415Y-1535583D01*
X1231060Y-1543938D01*
X1225153Y-1554171D01*
X1222094Y-1565583D01*
Y-1577399D01*
X1223237Y-1581663D01*
X1220193Y-1585630D01*
X1213744D01*
X1210700Y-1581663D01*
X1211842Y-1577399D01*
Y-1565583D01*
X1208784Y-1554171D01*
X1202877Y-1543938D01*
X1194522Y-1535583D01*
X1184289Y-1529675D01*
X1172876Y-1526617D01*
X1161061D01*
X1149648Y-1529675D01*
X1139415Y-1535583D01*
X1131060Y-1543938D01*
X1125153Y-1554171D01*
X1122094Y-1565583D01*
Y-1577399D01*
X1123237Y-1581663D01*
X1120193Y-1585630D01*
X1113744D01*
X1110700Y-1581663D01*
X1111842Y-1577399D01*
Y-1565583D01*
X1108784Y-1554171D01*
X1102877Y-1543938D01*
X1094522Y-1535583D01*
X1084289Y-1529675D01*
X1072876Y-1526617D01*
X1061061D01*
X1049648Y-1529675D01*
X1039415Y-1535583D01*
X1031060Y-1543938D01*
X1025153Y-1554171D01*
X1022095Y-1565583D01*
Y-1577399D01*
X1023237Y-1581663D01*
X1020193Y-1585630D01*
X1013744D01*
X1010700Y-1581663D01*
X1011842Y-1577399D01*
Y-1565583D01*
X1008784Y-1554171D01*
X1002877Y-1543938D01*
X994522Y-1535583D01*
X984289Y-1529675D01*
X972876Y-1526617D01*
X961061D01*
X949648Y-1529675D01*
X939415Y-1535583D01*
X931060Y-1543938D01*
X925153Y-1554171D01*
X922095Y-1565583D01*
Y-1577399D01*
X923237Y-1581663D01*
X920193Y-1585630D01*
X-534819D01*
X-534912Y-1585470D01*
X-537139Y-1580630D01*
X-534260Y-1569884D01*
Y-1558069D01*
X-537318Y-1546656D01*
X-543226Y-1536423D01*
X-551581Y-1528068D01*
X-561813Y-1522160D01*
X-573226Y-1519102D01*
X-585042D01*
X-596455Y-1522160D01*
X-606687Y-1528068D01*
X-615042Y-1536423D01*
X-620950Y-1546656D01*
X-624008Y-1558069D01*
Y-1569884D01*
X-621129Y-1580630D01*
X-623356Y-1585470D01*
X-623448Y-1585630D01*
X-634819D01*
X-634912Y-1585470D01*
X-637139Y-1580630D01*
X-634260Y-1569884D01*
Y-1558069D01*
X-637318Y-1546656D01*
X-643226Y-1536423D01*
X-651581Y-1528068D01*
X-661813Y-1522160D01*
X-673226Y-1519102D01*
X-685042D01*
X-696455Y-1522160D01*
X-706687Y-1528068D01*
X-715042Y-1536423D01*
X-720950Y-1546656D01*
X-724008Y-1558069D01*
Y-1569884D01*
X-721129Y-1580630D01*
X-723356Y-1585470D01*
X-723448Y-1585630D01*
X-734819D01*
X-734912Y-1585470D01*
X-737139Y-1580630D01*
X-734260Y-1569884D01*
Y-1558069D01*
X-737318Y-1546656D01*
X-743226Y-1536423D01*
X-751581Y-1528068D01*
X-761813Y-1522160D01*
X-773226Y-1519102D01*
X-785042D01*
X-796455Y-1522160D01*
X-806687Y-1528068D01*
X-815042Y-1536423D01*
X-820950Y-1546656D01*
X-824008Y-1558069D01*
Y-1569884D01*
X-821129Y-1580630D01*
X-823356Y-1585470D01*
X-823448Y-1585630D01*
X-834819D01*
X-834912Y-1585470D01*
X-837139Y-1580630D01*
X-834260Y-1569884D01*
Y-1558069D01*
X-837318Y-1546656D01*
X-843226Y-1536423D01*
X-851581Y-1528068D01*
X-861813Y-1522160D01*
X-873226Y-1519102D01*
X-885042D01*
X-896455Y-1522160D01*
X-906687Y-1528068D01*
X-915042Y-1536423D01*
X-920950Y-1546656D01*
X-924008Y-1558069D01*
Y-1569884D01*
X-921129Y-1580630D01*
X-923356Y-1585470D01*
X-923448Y-1585630D01*
X-934819D01*
X-934912Y-1585470D01*
X-937139Y-1580630D01*
X-934260Y-1569884D01*
Y-1558069D01*
X-937318Y-1546656D01*
X-943226Y-1536423D01*
X-951581Y-1528068D01*
X-961813Y-1522160D01*
X-973226Y-1519102D01*
X-985042D01*
X-996455Y-1522160D01*
X-1006687Y-1528068D01*
X-1015042Y-1536423D01*
X-1020950Y-1546656D01*
X-1024008Y-1558069D01*
Y-1569884D01*
X-1021129Y-1580630D01*
X-1023356Y-1585470D01*
X-1023448Y-1585630D01*
X-1034820D01*
X-1034912Y-1585470D01*
X-1037139Y-1580630D01*
X-1034260Y-1569884D01*
Y-1558069D01*
X-1037318Y-1546656D01*
X-1043226Y-1536423D01*
X-1051581Y-1528068D01*
X-1061813Y-1522160D01*
X-1073226Y-1519102D01*
X-1085042D01*
X-1096455Y-1522160D01*
X-1106687Y-1528068D01*
X-1115042Y-1536423D01*
X-1120950Y-1546656D01*
X-1124008Y-1558069D01*
Y-1569884D01*
X-1121129Y-1580630D01*
X-1123356Y-1585470D01*
X-1123448Y-1585630D01*
X-1132209D01*
X-1134938Y-1580630D01*
X-1133113Y-1573819D01*
X-1179134D01*
X-1225155D01*
X-1223330Y-1580630D01*
X-1226059Y-1585630D01*
X-1232209D01*
X-1234938Y-1580630D01*
X-1233113Y-1573819D01*
X-1279134D01*
X-1325155D01*
X-1323330Y-1580630D01*
X-1326059Y-1585630D01*
X-1556188D01*
X-1556190Y-1578497D01*
X-1552655Y-1574961D01*
X-1526106D01*
Y-1436766D01*
X-1521256Y-1435551D01*
X-1519197Y-1439402D01*
X-1509849Y-1450794D01*
X-1498457Y-1460142D01*
X-1485461Y-1467089D01*
X-1471359Y-1471367D01*
X-1456693Y-1472811D01*
X-1442027Y-1471367D01*
X-1427925Y-1467089D01*
X-1414929Y-1460142D01*
X-1403537Y-1450794D01*
X-1394188Y-1439402D01*
X-1387242Y-1426406D01*
X-1382964Y-1412303D01*
X-1381519Y-1397638D01*
X-1382964Y-1382972D01*
X-1387242Y-1368870D01*
X-1394188Y-1355874D01*
X-1403537Y-1344482D01*
X-1414929Y-1335133D01*
X-1427925Y-1328186D01*
X-1442027Y-1323909D01*
X-1456693Y-1322464D01*
X-1471359Y-1323909D01*
X-1485461Y-1328186D01*
X-1498457Y-1335133D01*
X-1509849Y-1344482D01*
X-1519197Y-1355874D01*
X-1521256Y-1359725D01*
X-1526106Y-1358510D01*
Y-109227D01*
X-1556628D01*
X-1557132Y1584062D01*
X-1553597Y1587598D01*
X-1497795D01*
Y1554961D01*
X-1468110D01*
Y1594488D01*
X-1448425D01*
Y1554961D01*
X-1418740D01*
Y1587598D01*
X-1395142D01*
X-1393120Y1580052D01*
X-1388196Y1571523D01*
X-1381233Y1564560D01*
X-1372704Y1559636D01*
X-1363192Y1557087D01*
X-1353344D01*
X-1343831Y1559636D01*
X-1335303Y1564560D01*
X-1328339Y1571523D01*
X-1323415Y1580052D01*
X-1321393Y1587598D01*
X-136921D01*
X-135917Y1583851D01*
X-132289Y1577567D01*
X-127158Y1572436D01*
X-120874Y1568807D01*
X-113864Y1566929D01*
X-106608D01*
X-99599Y1568807D01*
X-93315Y1572436D01*
X-88183Y1577567D01*
X-84555Y1583851D01*
X-83551Y1587598D01*
X204331D01*
Y1557087D01*
X279134D01*
Y1587598D01*
X302656D01*
X304899Y1579231D01*
X310102Y1570218D01*
X317462Y1562858D01*
X326475Y1557654D01*
X331890Y1556204D01*
Y1594488D01*
X351575D01*
Y1556204D01*
D02*
G37*
G36*
X972171Y1411503D02*
Y890875D01*
X889182Y807886D01*
X880586Y810189D01*
X871256D01*
X862245Y807774D01*
X854165Y803110D01*
X847568Y796512D01*
X842903Y788433D01*
X840488Y779421D01*
Y770091D01*
X842903Y761080D01*
X847568Y753000D01*
X854165Y746403D01*
X857559Y744443D01*
X856219Y739443D01*
X795624D01*
X794284Y744443D01*
X797678Y746403D01*
X804275Y753000D01*
X808940Y761080D01*
X811354Y770091D01*
Y779421D01*
X808940Y788433D01*
X804275Y796512D01*
X797678Y803110D01*
X789598Y807774D01*
X780586Y810189D01*
X771256D01*
X762245Y807774D01*
X754165Y803110D01*
X747568Y796512D01*
X742903Y788433D01*
X740488Y779421D01*
Y770091D01*
X742903Y761080D01*
X745155Y757178D01*
X741154Y754108D01*
X704279Y790984D01*
Y929062D01*
X703209Y934439D01*
X700164Y938997D01*
X651060Y988100D01*
X652354Y990341D01*
X655193Y1000938D01*
X656278Y1001582D01*
X660276Y1002926D01*
X746955Y916247D01*
X751513Y913201D01*
X756890Y912132D01*
X759950D01*
X761131Y907132D01*
X754165Y903110D01*
X747568Y896512D01*
X742903Y888433D01*
X740488Y879421D01*
Y870091D01*
X742903Y861080D01*
X747568Y853000D01*
X754165Y846403D01*
X762245Y841738D01*
X771256Y839323D01*
X780586D01*
X789598Y841738D01*
X797678Y846403D01*
X804275Y853000D01*
X808940Y861080D01*
X811354Y870091D01*
Y879421D01*
X808940Y888433D01*
X804275Y896512D01*
X797678Y903110D01*
X790711Y907132D01*
X791892Y912132D01*
X818677D01*
X842792Y888017D01*
X840488Y879421D01*
Y870091D01*
X842903Y861080D01*
X847568Y853000D01*
X854165Y846403D01*
X862245Y841738D01*
X871256Y839323D01*
X880586D01*
X889598Y841738D01*
X897678Y846403D01*
X904275Y853000D01*
X908940Y861080D01*
X911354Y870091D01*
Y879421D01*
X908940Y888433D01*
X904275Y896512D01*
X897678Y903110D01*
X889598Y907774D01*
X880586Y910189D01*
X871256D01*
X862661Y907886D01*
X834431Y936116D01*
X829873Y939161D01*
X824496Y940231D01*
X796987D01*
X795648Y945231D01*
X797678Y946403D01*
X804275Y953000D01*
X808940Y961080D01*
X811354Y970091D01*
Y979421D01*
X808940Y988433D01*
X804275Y996512D01*
X797678Y1003110D01*
X796848Y1003588D01*
X798188Y1008588D01*
X822220D01*
X842792Y988017D01*
X840488Y979421D01*
Y970091D01*
X842903Y961080D01*
X847568Y953000D01*
X854165Y946403D01*
X862245Y941738D01*
X871256Y939323D01*
X880586D01*
X889598Y941738D01*
X897678Y946403D01*
X904275Y953000D01*
X908940Y961080D01*
X911354Y970091D01*
Y979421D01*
X908940Y988433D01*
X904275Y996512D01*
X897678Y1003110D01*
X889598Y1007774D01*
X880586Y1010189D01*
X871256D01*
X862661Y1007886D01*
X837974Y1032572D01*
X833416Y1035618D01*
X828040Y1036687D01*
X790068D01*
X789409Y1041687D01*
X789598Y1041738D01*
X797678Y1046403D01*
X804275Y1053000D01*
X808940Y1061080D01*
X811354Y1070091D01*
Y1079421D01*
X808940Y1088433D01*
X804275Y1096512D01*
X797678Y1103110D01*
X791052Y1106935D01*
X792392Y1111935D01*
X818874D01*
X842792Y1088017D01*
X840488Y1079421D01*
Y1070091D01*
X842903Y1061080D01*
X847568Y1053000D01*
X854165Y1046403D01*
X862245Y1041738D01*
X871256Y1039323D01*
X880586D01*
X889598Y1041738D01*
X897678Y1046403D01*
X904275Y1053000D01*
X908940Y1061080D01*
X911354Y1070091D01*
Y1079421D01*
X908940Y1088433D01*
X904275Y1096512D01*
X897678Y1103110D01*
X889598Y1107774D01*
X880586Y1110189D01*
X871256D01*
X862661Y1107886D01*
X834628Y1135919D01*
X830070Y1138964D01*
X824693Y1140034D01*
X796646D01*
X795307Y1145034D01*
X797678Y1146403D01*
X804275Y1153000D01*
X808940Y1161080D01*
X811354Y1170091D01*
Y1179421D01*
X808940Y1188433D01*
X804275Y1196512D01*
X797678Y1203110D01*
X789598Y1207774D01*
X780586Y1210189D01*
X771256D01*
X762245Y1207774D01*
X754165Y1203110D01*
X747568Y1196512D01*
X744443Y1191100D01*
X739443Y1192440D01*
Y1237197D01*
X766079D01*
Y1274756D01*
Y1312315D01*
X739443D01*
Y1473425D01*
X738374Y1478802D01*
X735328Y1483360D01*
X699895Y1518793D01*
X697609Y1520321D01*
X699125Y1525321D01*
X762881D01*
X813706Y1474495D01*
Y1317222D01*
X813480Y1312315D01*
X785764D01*
Y1274756D01*
Y1237197D01*
X813480D01*
X813706Y1232291D01*
Y1222921D01*
X814776Y1217545D01*
X817821Y1212987D01*
X842792Y1188017D01*
X840488Y1179421D01*
Y1170091D01*
X842903Y1161080D01*
X847568Y1153000D01*
X854165Y1146403D01*
X862245Y1141738D01*
X871256Y1139323D01*
X880586D01*
X889598Y1141738D01*
X897678Y1146403D01*
X904275Y1153000D01*
X908940Y1161080D01*
X911354Y1170091D01*
Y1179421D01*
X908940Y1188433D01*
X904275Y1196512D01*
X897678Y1203110D01*
X889598Y1207774D01*
X880586Y1210189D01*
X871256D01*
X862661Y1207886D01*
X841805Y1228741D01*
Y1252981D01*
X846805Y1254320D01*
X847568Y1253000D01*
X854165Y1246403D01*
X862245Y1241738D01*
X871256Y1239323D01*
X880586D01*
X889598Y1241738D01*
X897678Y1246403D01*
X904275Y1253000D01*
X908940Y1261080D01*
X911354Y1270091D01*
Y1279421D01*
X908940Y1288433D01*
X904275Y1296512D01*
X897678Y1303110D01*
X889598Y1307774D01*
X880586Y1310189D01*
X871256D01*
X862245Y1307774D01*
X854165Y1303110D01*
X847568Y1296512D01*
X846805Y1295192D01*
X841805Y1296532D01*
Y1480315D01*
X840736Y1485691D01*
X837690Y1490249D01*
X778635Y1549305D01*
X774077Y1552350D01*
X768701Y1553420D01*
X459646D01*
X454269Y1552350D01*
X449711Y1549305D01*
X382238Y1481832D01*
X377755Y1484420D01*
X379134Y1489564D01*
Y1499412D01*
X378528Y1501672D01*
X464454Y1587598D01*
X796076D01*
X972171Y1411503D01*
D02*
G37*
%LPC*%
G36*
X-972441Y1525559D02*
Y1495078D01*
X-941961D01*
X-943615Y1501253D01*
X-949078Y1510715D01*
X-956804Y1518441D01*
X-966267Y1523904D01*
X-972441Y1525559D01*
D02*
G37*
G36*
X-992126Y1525559D02*
X-998300Y1523904D01*
X-1007763Y1518441D01*
X-1015489Y1510715D01*
X-1020952Y1501253D01*
X-1022606Y1495078D01*
X-992126D01*
Y1525559D01*
D02*
G37*
G36*
X246656Y1531890D02*
X236808D01*
X227296Y1529341D01*
X218767Y1524417D01*
X211804Y1517453D01*
X206880Y1508925D01*
X204331Y1499412D01*
Y1489564D01*
X206880Y1480052D01*
X211804Y1471523D01*
X218767Y1464560D01*
X227296Y1459636D01*
X236808Y1457087D01*
X246656D01*
X256169Y1459636D01*
X264697Y1464560D01*
X271661Y1471523D01*
X276585Y1480052D01*
X279134Y1489564D01*
Y1499412D01*
X276585Y1508925D01*
X271661Y1517453D01*
X264697Y1524417D01*
X256169Y1529341D01*
X246656Y1531890D01*
D02*
G37*
G36*
X-1453344D02*
X-1463192D01*
X-1472704Y1529341D01*
X-1481233Y1524417D01*
X-1488196Y1517453D01*
X-1493120Y1508925D01*
X-1495669Y1499412D01*
Y1489564D01*
X-1493120Y1480052D01*
X-1488196Y1471523D01*
X-1481233Y1464560D01*
X-1472704Y1459636D01*
X-1463192Y1457087D01*
X-1453344D01*
X-1443831Y1459636D01*
X-1435303Y1464560D01*
X-1428339Y1471523D01*
X-1423415Y1480052D01*
X-1420866Y1489564D01*
Y1499412D01*
X-1423415Y1508925D01*
X-1428339Y1517453D01*
X-1435303Y1524417D01*
X-1443831Y1529341D01*
X-1453344Y1531890D01*
D02*
G37*
G36*
X-735958Y1524606D02*
X-746325D01*
X-756338Y1521923D01*
X-765315Y1516740D01*
X-772645Y1509410D01*
X-777829Y1500432D01*
X-780512Y1490419D01*
Y1480053D01*
X-777829Y1470040D01*
X-772645Y1461062D01*
X-765315Y1453732D01*
X-756338Y1448549D01*
X-746325Y1445866D01*
X-735958D01*
X-725946Y1448549D01*
X-716968Y1453732D01*
X-709638Y1461062D01*
X-704455Y1470040D01*
X-701772Y1480053D01*
Y1490419D01*
X-704455Y1500432D01*
X-709638Y1509410D01*
X-716968Y1516740D01*
X-725946Y1521923D01*
X-735958Y1524606D01*
D02*
G37*
G36*
X-801772D02*
X-880512D01*
Y1445866D01*
X-801772D01*
Y1524606D01*
D02*
G37*
G36*
X-992126Y1475393D02*
X-1022606D01*
X-1020952Y1469219D01*
X-1015489Y1459757D01*
X-1007763Y1452031D01*
X-998300Y1446568D01*
X-992126Y1444914D01*
Y1475393D01*
D02*
G37*
G36*
X-941961D02*
X-972441D01*
Y1444914D01*
X-966267Y1446568D01*
X-956804Y1452031D01*
X-949078Y1459757D01*
X-943615Y1469219D01*
X-941961Y1475393D01*
D02*
G37*
G36*
X-253780Y1451929D02*
X-295275D01*
Y1408465D01*
X-253780D01*
Y1451929D01*
D02*
G37*
G36*
X-314960D02*
X-356457D01*
Y1408465D01*
X-314960D01*
Y1451929D01*
D02*
G37*
G36*
X179291Y1451929D02*
X137795D01*
Y1408465D01*
X179291D01*
Y1451929D01*
D02*
G37*
G36*
X118110D02*
X76614D01*
Y1408465D01*
X118110D01*
Y1451929D01*
D02*
G37*
G36*
X-574803Y1477362D02*
X-673228D01*
Y1382874D01*
X-574803D01*
Y1477362D01*
D02*
G37*
G36*
X-141732Y1477362D02*
X-240157D01*
Y1382874D01*
X-141732D01*
Y1477362D01*
D02*
G37*
G36*
X246656Y1431890D02*
X236808D01*
X227296Y1429341D01*
X218767Y1424417D01*
X211804Y1417453D01*
X206880Y1408925D01*
X204331Y1399412D01*
Y1389564D01*
X206880Y1380052D01*
X211804Y1371523D01*
X218767Y1364560D01*
X227296Y1359636D01*
X236808Y1357087D01*
X246656D01*
X256169Y1359636D01*
X264697Y1364560D01*
X271661Y1371523D01*
X276585Y1380052D01*
X279134Y1389564D01*
Y1399412D01*
X276585Y1408925D01*
X271661Y1417453D01*
X264697Y1424417D01*
X256169Y1429341D01*
X246656Y1431890D01*
D02*
G37*
G36*
X-1453344D02*
X-1463192D01*
X-1472704Y1429341D01*
X-1481233Y1424417D01*
X-1488196Y1417453D01*
X-1493120Y1408925D01*
X-1495669Y1399412D01*
Y1389564D01*
X-1493120Y1380052D01*
X-1488196Y1371523D01*
X-1481233Y1364560D01*
X-1472704Y1359636D01*
X-1463192Y1357087D01*
X-1453344D01*
X-1443831Y1359636D01*
X-1435303Y1364560D01*
X-1428339Y1371523D01*
X-1423415Y1380052D01*
X-1420866Y1389564D01*
Y1399412D01*
X-1423415Y1408925D01*
X-1428339Y1417453D01*
X-1435303Y1424417D01*
X-1443831Y1429341D01*
X-1453344Y1431890D01*
D02*
G37*
G36*
X-253780Y1388780D02*
X-295275D01*
Y1345315D01*
X-253780D01*
Y1388780D01*
D02*
G37*
G36*
X-314960D02*
X-356457D01*
Y1345315D01*
X-314960D01*
Y1388780D01*
D02*
G37*
G36*
X179291Y1388780D02*
X137795D01*
Y1345315D01*
X179291D01*
Y1388780D01*
D02*
G37*
G36*
X118110D02*
X76614D01*
Y1345315D01*
X118110D01*
Y1388780D01*
D02*
G37*
G36*
X-459384Y1384842D02*
X-469750D01*
X-479763Y1382159D01*
X-488741Y1376976D01*
X-496071Y1369646D01*
X-501254Y1360669D01*
X-503937Y1350656D01*
Y1340289D01*
X-501254Y1330276D01*
X-496071Y1321299D01*
X-488741Y1313969D01*
X-479763Y1308785D01*
X-469750Y1306102D01*
X-459384D01*
X-449371Y1308785D01*
X-440393Y1313969D01*
X-433063Y1321299D01*
X-427880Y1330276D01*
X-425197Y1340289D01*
Y1350656D01*
X-427880Y1360669D01*
X-433063Y1369646D01*
X-440393Y1376976D01*
X-449371Y1382159D01*
X-459384Y1384842D01*
D02*
G37*
G36*
X-26313Y1384842D02*
X-36679D01*
X-46692Y1382159D01*
X-55670Y1376976D01*
X-63000Y1369646D01*
X-68183Y1360669D01*
X-70866Y1350656D01*
Y1340289D01*
X-68183Y1330276D01*
X-63000Y1321299D01*
X-55670Y1313969D01*
X-46692Y1308785D01*
X-36679Y1306102D01*
X-26313D01*
X-16300Y1308785D01*
X-7322Y1313969D01*
X8Y1321299D01*
X5191Y1330276D01*
X7874Y1340289D01*
Y1350656D01*
X5191Y1360669D01*
X8Y1369646D01*
X-7322Y1376976D01*
X-16300Y1382159D01*
X-26313Y1384842D01*
D02*
G37*
G36*
X-841047Y1312315D02*
X-868764D01*
Y1284598D01*
X-841047D01*
Y1312315D01*
D02*
G37*
G36*
X-888449D02*
X-916165D01*
Y1284598D01*
X-888449D01*
Y1312315D01*
D02*
G37*
G36*
X246656Y1331890D02*
X236808D01*
X227296Y1329341D01*
X218767Y1324417D01*
X211804Y1317453D01*
X206880Y1308925D01*
X204331Y1299412D01*
Y1289564D01*
X206880Y1280052D01*
X211804Y1271523D01*
X218767Y1264560D01*
X227296Y1259636D01*
X236808Y1257087D01*
X246656D01*
X256169Y1259636D01*
X264697Y1264560D01*
X271661Y1271523D01*
X276585Y1280052D01*
X279134Y1289564D01*
Y1299412D01*
X276585Y1308925D01*
X271661Y1317453D01*
X264697Y1324417D01*
X256169Y1329341D01*
X246656Y1331890D01*
D02*
G37*
G36*
X-1453344D02*
X-1463192D01*
X-1472704Y1329341D01*
X-1481233Y1324417D01*
X-1488196Y1317453D01*
X-1493120Y1308925D01*
X-1495669Y1299412D01*
Y1289564D01*
X-1493120Y1280052D01*
X-1488196Y1271523D01*
X-1481233Y1264560D01*
X-1472704Y1259636D01*
X-1463192Y1257087D01*
X-1453344D01*
X-1443831Y1259636D01*
X-1435303Y1264560D01*
X-1428339Y1271523D01*
X-1423415Y1280052D01*
X-1420866Y1289564D01*
Y1299412D01*
X-1423415Y1308925D01*
X-1428339Y1317453D01*
X-1435303Y1324417D01*
X-1443831Y1329341D01*
X-1453344Y1331890D01*
D02*
G37*
G36*
X-773942Y1310189D02*
X-783271D01*
X-792283Y1307774D01*
X-800363Y1303110D01*
X-806960Y1296512D01*
X-811625Y1288433D01*
X-814039Y1279421D01*
Y1270091D01*
X-811625Y1261080D01*
X-806960Y1253000D01*
X-800363Y1246403D01*
X-792283Y1241738D01*
X-783271Y1239323D01*
X-773942D01*
X-764930Y1241738D01*
X-756850Y1246403D01*
X-750253Y1253000D01*
X-745588Y1261080D01*
X-743173Y1270091D01*
Y1279421D01*
X-745588Y1288433D01*
X-750253Y1296512D01*
X-756850Y1303110D01*
X-764930Y1307774D01*
X-773942Y1310189D01*
D02*
G37*
G36*
X488191Y1250583D02*
X476376D01*
X464963Y1247525D01*
X454730Y1241617D01*
X446375Y1233262D01*
X440468Y1223029D01*
X437409Y1211617D01*
Y1199801D01*
X440468Y1188388D01*
X446375Y1178155D01*
X454730Y1169801D01*
X464963Y1163893D01*
X476376Y1160835D01*
X488191D01*
X499604Y1163893D01*
X509837Y1169801D01*
X518192Y1178155D01*
X524099Y1188388D01*
X527158Y1199801D01*
Y1211617D01*
X524099Y1223029D01*
X518192Y1233262D01*
X509837Y1241617D01*
X499604Y1247525D01*
X488191Y1250583D01*
D02*
G37*
G36*
X246656Y1231890D02*
X236808D01*
X227296Y1229341D01*
X218767Y1224417D01*
X211804Y1217453D01*
X206880Y1208925D01*
X204331Y1199412D01*
Y1189564D01*
X206880Y1180052D01*
X211804Y1171523D01*
X218767Y1164560D01*
X227296Y1159636D01*
X236808Y1157087D01*
X246656D01*
X256169Y1159636D01*
X264697Y1164560D01*
X271661Y1171523D01*
X276585Y1180052D01*
X279134Y1189564D01*
Y1199412D01*
X276585Y1208925D01*
X271661Y1217453D01*
X264697Y1224417D01*
X256169Y1229341D01*
X246656Y1231890D01*
D02*
G37*
G36*
X-1453344D02*
X-1463192D01*
X-1472704Y1229341D01*
X-1481233Y1224417D01*
X-1488196Y1217453D01*
X-1493120Y1208925D01*
X-1495669Y1199412D01*
Y1189564D01*
X-1493120Y1180052D01*
X-1488196Y1171523D01*
X-1481233Y1164560D01*
X-1472704Y1159636D01*
X-1463192Y1157087D01*
X-1453344D01*
X-1443831Y1159636D01*
X-1435303Y1164560D01*
X-1428339Y1171523D01*
X-1423415Y1180052D01*
X-1420866Y1189564D01*
Y1199412D01*
X-1423415Y1208925D01*
X-1428339Y1217453D01*
X-1435303Y1224417D01*
X-1443831Y1229341D01*
X-1453344Y1231890D01*
D02*
G37*
G36*
X-1353344Y1531890D02*
X-1363192D01*
X-1372704Y1529341D01*
X-1381233Y1524417D01*
X-1388196Y1517453D01*
X-1393120Y1508925D01*
X-1395669Y1499412D01*
Y1489564D01*
X-1393120Y1480052D01*
X-1388196Y1471523D01*
X-1381233Y1464560D01*
X-1372704Y1459636D01*
X-1363192Y1457087D01*
X-1353344D01*
X-1343831Y1459636D01*
X-1343484Y1459836D01*
X-1101076Y1217428D01*
X-1096518Y1214382D01*
X-1091142Y1213313D01*
X-890932D01*
X-890274Y1208313D01*
X-892283Y1207774D01*
X-900363Y1203110D01*
X-906960Y1196512D01*
X-911625Y1188433D01*
X-914039Y1179421D01*
Y1170091D01*
X-911625Y1161080D01*
X-906960Y1153000D01*
X-900363Y1146403D01*
X-897992Y1145034D01*
X-899332Y1140034D01*
X-1083944D01*
X-1323615Y1379705D01*
X-1323415Y1380052D01*
X-1320866Y1389564D01*
Y1399412D01*
X-1323415Y1408925D01*
X-1328339Y1417453D01*
X-1335303Y1424417D01*
X-1343831Y1429341D01*
X-1353344Y1431890D01*
X-1363192D01*
X-1372704Y1429341D01*
X-1381233Y1424417D01*
X-1388196Y1417453D01*
X-1393120Y1408925D01*
X-1395669Y1399412D01*
Y1389564D01*
X-1393120Y1380052D01*
X-1388196Y1371523D01*
X-1381233Y1364560D01*
X-1372704Y1359636D01*
X-1363192Y1357087D01*
X-1353344D01*
X-1343831Y1359636D01*
X-1343484Y1359836D01*
X-1099698Y1116050D01*
X-1095140Y1113004D01*
X-1089764Y1111935D01*
X-895077D01*
X-893737Y1106935D01*
X-900363Y1103110D01*
X-906960Y1096512D01*
X-911625Y1088433D01*
X-914039Y1079421D01*
Y1070091D01*
X-911625Y1061080D01*
X-906960Y1053000D01*
X-900363Y1046403D01*
X-895605Y1043656D01*
X-896945Y1038656D01*
X-1082566D01*
X-1323615Y1279705D01*
X-1323415Y1280052D01*
X-1320866Y1289564D01*
Y1299412D01*
X-1323415Y1308925D01*
X-1328339Y1317453D01*
X-1335303Y1324417D01*
X-1343831Y1329341D01*
X-1353344Y1331890D01*
X-1363192D01*
X-1372704Y1329341D01*
X-1381233Y1324417D01*
X-1388196Y1317453D01*
X-1393120Y1308925D01*
X-1395669Y1299412D01*
Y1289564D01*
X-1393120Y1280052D01*
X-1388196Y1271523D01*
X-1381233Y1264560D01*
X-1372704Y1259636D01*
X-1363192Y1257087D01*
X-1353344D01*
X-1343831Y1259636D01*
X-1343484Y1259836D01*
X-1098320Y1014672D01*
X-1093762Y1011626D01*
X-1088386Y1010557D01*
X-897464D01*
X-896124Y1005557D01*
X-900363Y1003110D01*
X-906960Y996512D01*
X-911625Y988433D01*
X-914039Y979421D01*
Y970091D01*
X-911625Y961080D01*
X-906960Y953000D01*
X-900363Y946403D01*
X-898333Y945231D01*
X-899672Y940231D01*
X-1084141D01*
X-1323615Y1179705D01*
X-1323415Y1180052D01*
X-1320866Y1189564D01*
Y1199412D01*
X-1323415Y1208925D01*
X-1328339Y1217453D01*
X-1335303Y1224417D01*
X-1343831Y1229341D01*
X-1353344Y1231890D01*
X-1363192D01*
X-1372704Y1229341D01*
X-1381233Y1224417D01*
X-1388196Y1217453D01*
X-1393120Y1208925D01*
X-1395669Y1199412D01*
Y1189564D01*
X-1393120Y1180052D01*
X-1388196Y1171523D01*
X-1381233Y1164560D01*
X-1372704Y1159636D01*
X-1363192Y1157087D01*
X-1353344D01*
X-1343831Y1159636D01*
X-1343484Y1159836D01*
X-1099895Y916247D01*
X-1095337Y913201D01*
X-1089961Y912132D01*
X-894577D01*
X-893396Y907132D01*
X-900363Y903110D01*
X-906960Y896512D01*
X-911625Y888433D01*
X-914039Y879421D01*
Y870091D01*
X-911625Y861080D01*
X-906960Y853000D01*
X-900363Y846403D01*
X-899356Y845821D01*
X-900695Y840821D01*
X-1084732D01*
X-1323615Y1079705D01*
X-1323415Y1080052D01*
X-1320866Y1089564D01*
Y1099412D01*
X-1323415Y1108925D01*
X-1328339Y1117453D01*
X-1335303Y1124417D01*
X-1343831Y1129341D01*
X-1353344Y1131890D01*
X-1363192D01*
X-1372704Y1129341D01*
X-1381233Y1124417D01*
X-1388196Y1117453D01*
X-1393120Y1108925D01*
X-1395669Y1099412D01*
Y1089564D01*
X-1393120Y1080052D01*
X-1388196Y1071523D01*
X-1381233Y1064560D01*
X-1372704Y1059636D01*
X-1363192Y1057087D01*
X-1353344D01*
X-1343831Y1059636D01*
X-1343484Y1059836D01*
X-1100486Y816837D01*
X-1095928Y813792D01*
X-1090551Y812722D01*
X-893136D01*
X-892283Y807774D01*
X-900363Y803110D01*
X-906960Y796512D01*
X-911625Y788433D01*
X-914039Y779421D01*
Y770091D01*
X-911625Y761080D01*
X-906960Y753000D01*
X-900363Y746403D01*
X-898674Y745428D01*
X-900013Y740428D01*
X-1084338D01*
X-1323615Y979705D01*
X-1323415Y980052D01*
X-1320866Y989564D01*
Y999412D01*
X-1323415Y1008925D01*
X-1328339Y1017453D01*
X-1335303Y1024417D01*
X-1343831Y1029341D01*
X-1353344Y1031890D01*
X-1363192D01*
X-1372704Y1029341D01*
X-1381233Y1024417D01*
X-1388196Y1017453D01*
X-1393120Y1008925D01*
X-1395669Y999412D01*
Y989564D01*
X-1393120Y980052D01*
X-1388196Y971523D01*
X-1381233Y964560D01*
X-1372704Y959636D01*
X-1363192Y957087D01*
X-1353344D01*
X-1343831Y959636D01*
X-1343484Y959836D01*
X-1100092Y716443D01*
X-1095534Y713398D01*
X-1090158Y712328D01*
X-893936D01*
X-893069Y709940D01*
X-893055Y707328D01*
X-900363Y703110D01*
X-906960Y696512D01*
X-911625Y688433D01*
X-914039Y679421D01*
Y670091D01*
X-911625Y661080D01*
X-906960Y653000D01*
X-900962Y647002D01*
X-901810Y642002D01*
X-1085913D01*
X-1323615Y879705D01*
X-1323415Y880052D01*
X-1320866Y889564D01*
Y899412D01*
X-1323415Y908925D01*
X-1328339Y917453D01*
X-1335303Y924417D01*
X-1343831Y929341D01*
X-1353344Y931890D01*
X-1363192D01*
X-1372704Y929341D01*
X-1381233Y924417D01*
X-1388196Y917453D01*
X-1393120Y908925D01*
X-1395669Y899412D01*
Y889564D01*
X-1393120Y880052D01*
X-1388196Y871523D01*
X-1381233Y864560D01*
X-1372704Y859636D01*
X-1363192Y857087D01*
X-1353344D01*
X-1343831Y859636D01*
X-1343484Y859836D01*
X-1101667Y618018D01*
X-1097109Y614973D01*
X-1091732Y613903D01*
X-888728D01*
X-888070Y608903D01*
X-892283Y607774D01*
X-900363Y603110D01*
X-906960Y596512D01*
X-911625Y588433D01*
X-914039Y579421D01*
Y570091D01*
X-911625Y561080D01*
X-906960Y553000D01*
X-900363Y546403D01*
X-892283Y541738D01*
X-883271Y539323D01*
X-873942D01*
X-864930Y541738D01*
X-856850Y546403D01*
X-850253Y553000D01*
X-845588Y561080D01*
X-843173Y570091D01*
Y579421D01*
X-845588Y588433D01*
X-850253Y596512D01*
X-856850Y603110D01*
X-864930Y607774D01*
X-869143Y608903D01*
X-868485Y613903D01*
X-837622D01*
X-811736Y588017D01*
X-814039Y579421D01*
Y570091D01*
X-811625Y561080D01*
X-806960Y553000D01*
X-800363Y546403D01*
X-792283Y541738D01*
X-783271Y539323D01*
X-773942D01*
X-764930Y541738D01*
X-756850Y546403D01*
X-750253Y553000D01*
X-745588Y561080D01*
X-743173Y570091D01*
Y579421D01*
X-745588Y588433D01*
X-750253Y596512D01*
X-756850Y603110D01*
X-764930Y607774D01*
X-773942Y610189D01*
X-783271D01*
X-791867Y607886D01*
X-821869Y637887D01*
X-826427Y640933D01*
X-831803Y642002D01*
X-855402D01*
X-856250Y647002D01*
X-850253Y653000D01*
X-845588Y661080D01*
X-843173Y670091D01*
Y679421D01*
X-845588Y688433D01*
X-850253Y696512D01*
X-856850Y703110D01*
X-864157Y707328D01*
X-864144Y709940D01*
X-863277Y712328D01*
X-836048D01*
X-811736Y688017D01*
X-814039Y679421D01*
Y670091D01*
X-811625Y661080D01*
X-806960Y653000D01*
X-800363Y646403D01*
X-792283Y641738D01*
X-783271Y639323D01*
X-773942D01*
X-764930Y641738D01*
X-756850Y646403D01*
X-750253Y653000D01*
X-745588Y661080D01*
X-743173Y670091D01*
Y679421D01*
X-745588Y688433D01*
X-750253Y696512D01*
X-756850Y703110D01*
X-764930Y707774D01*
X-773942Y710189D01*
X-783271D01*
X-791867Y707886D01*
X-820294Y736312D01*
X-824852Y739358D01*
X-830228Y740428D01*
X-857199D01*
X-858539Y745428D01*
X-856850Y746403D01*
X-850253Y753000D01*
X-845588Y761080D01*
X-843173Y770091D01*
Y779421D01*
X-845588Y788433D01*
X-850253Y796512D01*
X-856850Y803110D01*
X-864930Y807774D01*
X-864077Y812722D01*
X-836441D01*
X-811736Y788017D01*
X-814039Y779421D01*
Y770091D01*
X-811625Y761080D01*
X-806960Y753000D01*
X-800363Y746403D01*
X-792283Y741738D01*
X-783271Y739323D01*
X-773942D01*
X-764930Y741738D01*
X-756850Y746403D01*
X-750253Y753000D01*
X-745588Y761080D01*
X-743173Y770091D01*
Y779421D01*
X-745588Y788433D01*
X-750253Y796512D01*
X-756850Y803110D01*
X-764930Y807774D01*
X-773942Y810189D01*
X-783271D01*
X-791867Y807886D01*
X-820687Y836706D01*
X-825245Y839752D01*
X-830622Y840821D01*
X-856517D01*
X-857857Y845821D01*
X-856850Y846403D01*
X-850253Y853000D01*
X-845588Y861080D01*
X-843173Y870091D01*
Y879421D01*
X-845588Y888433D01*
X-850253Y896512D01*
X-856850Y903110D01*
X-863816Y907132D01*
X-862635Y912132D01*
X-835851D01*
X-811736Y888017D01*
X-814039Y879421D01*
Y870091D01*
X-811625Y861080D01*
X-806960Y853000D01*
X-800363Y846403D01*
X-792283Y841738D01*
X-783271Y839323D01*
X-773942D01*
X-764930Y841738D01*
X-756850Y846403D01*
X-750253Y853000D01*
X-745588Y861080D01*
X-743173Y870091D01*
Y879421D01*
X-745588Y888433D01*
X-750253Y896512D01*
X-756850Y903110D01*
X-764930Y907774D01*
X-773942Y910189D01*
X-783271D01*
X-791867Y907886D01*
X-820097Y936116D01*
X-824655Y939161D01*
X-830031Y940231D01*
X-857540D01*
X-858880Y945231D01*
X-856850Y946403D01*
X-850253Y953000D01*
X-845588Y961080D01*
X-843173Y970091D01*
Y979421D01*
X-845588Y988433D01*
X-850253Y996512D01*
X-856850Y1003110D01*
X-861089Y1005557D01*
X-859749Y1010557D01*
X-834276D01*
X-811736Y988017D01*
X-814039Y979421D01*
Y970091D01*
X-811625Y961080D01*
X-806960Y953000D01*
X-800363Y946403D01*
X-792283Y941738D01*
X-783271Y939323D01*
X-773942D01*
X-764930Y941738D01*
X-756850Y946403D01*
X-750253Y953000D01*
X-745588Y961080D01*
X-743173Y970091D01*
Y979421D01*
X-745588Y988433D01*
X-750253Y996512D01*
X-756850Y1003110D01*
X-764930Y1007774D01*
X-773942Y1010189D01*
X-783271D01*
X-791867Y1007886D01*
X-818522Y1034541D01*
X-823080Y1037586D01*
X-828457Y1038656D01*
X-860268D01*
X-861608Y1043656D01*
X-856850Y1046403D01*
X-850253Y1053000D01*
X-845588Y1061080D01*
X-843173Y1070091D01*
Y1079421D01*
X-845588Y1088433D01*
X-850253Y1096512D01*
X-856850Y1103110D01*
X-863475Y1106935D01*
X-862136Y1111935D01*
X-835654D01*
X-811736Y1088017D01*
X-814039Y1079421D01*
Y1070091D01*
X-811625Y1061080D01*
X-806960Y1053000D01*
X-800363Y1046403D01*
X-792283Y1041738D01*
X-783271Y1039323D01*
X-773942D01*
X-764930Y1041738D01*
X-756850Y1046403D01*
X-750253Y1053000D01*
X-745588Y1061080D01*
X-743173Y1070091D01*
Y1079421D01*
X-745588Y1088433D01*
X-750253Y1096512D01*
X-756850Y1103110D01*
X-764930Y1107774D01*
X-773942Y1110189D01*
X-783271D01*
X-791867Y1107886D01*
X-819900Y1135919D01*
X-824458Y1138964D01*
X-829835Y1140034D01*
X-857881D01*
X-859221Y1145034D01*
X-856850Y1146403D01*
X-850253Y1153000D01*
X-845588Y1161080D01*
X-843173Y1170091D01*
Y1179421D01*
X-845588Y1188433D01*
X-850253Y1196512D01*
X-856850Y1203110D01*
X-864930Y1207774D01*
X-866939Y1208313D01*
X-866280Y1213313D01*
X-846371D01*
X-813710Y1180651D01*
X-814039Y1179421D01*
Y1170091D01*
X-811625Y1161080D01*
X-806960Y1153000D01*
X-800363Y1146403D01*
X-792283Y1141738D01*
X-783271Y1139323D01*
X-773942D01*
X-764930Y1141738D01*
X-756850Y1146403D01*
X-750253Y1153000D01*
X-745588Y1161080D01*
X-743173Y1170091D01*
Y1179421D01*
X-745588Y1188433D01*
X-750253Y1196512D01*
X-756850Y1203110D01*
X-764930Y1207774D01*
X-773942Y1210189D01*
X-783271D01*
X-792283Y1207774D01*
X-797869Y1204549D01*
X-830617Y1237297D01*
X-835175Y1240342D01*
X-840551Y1241412D01*
X-841047D01*
Y1264913D01*
X-878606D01*
X-916165D01*
Y1241412D01*
X-1085322D01*
X-1323615Y1479705D01*
X-1323415Y1480052D01*
X-1320866Y1489564D01*
Y1499412D01*
X-1323415Y1508925D01*
X-1328339Y1517453D01*
X-1335303Y1524417D01*
X-1343831Y1529341D01*
X-1353344Y1531890D01*
D02*
G37*
G36*
X482126Y1151729D02*
Y1115551D01*
X518304D01*
X516081Y1123850D01*
X509893Y1134567D01*
X501142Y1143318D01*
X490425Y1149506D01*
X482126Y1151729D01*
D02*
G37*
G36*
X462441D02*
X454142Y1149506D01*
X443425Y1143318D01*
X434674Y1134567D01*
X428486Y1123850D01*
X426263Y1115551D01*
X462441D01*
Y1151729D01*
D02*
G37*
G36*
X518304Y1095866D02*
X482126D01*
Y1059688D01*
X490425Y1061912D01*
X501142Y1068099D01*
X509893Y1076850D01*
X516081Y1087567D01*
X518304Y1095866D01*
D02*
G37*
G36*
X462441D02*
X426263D01*
X428486Y1087567D01*
X434674Y1076850D01*
X443425Y1068099D01*
X454142Y1061912D01*
X462441Y1059688D01*
Y1095866D01*
D02*
G37*
G36*
X156496Y1152829D02*
X-198819D01*
X-204195Y1151759D01*
X-208753Y1148714D01*
X-263693Y1093774D01*
X-269685D01*
X-271042Y1093504D01*
X-354331D01*
Y971457D01*
X-319168D01*
Y935039D01*
X-318098Y929663D01*
X-315053Y925105D01*
X-137297Y747349D01*
X-132739Y744303D01*
X-127362Y743234D01*
X-69902D01*
Y705315D01*
X10846D01*
Y751194D01*
X137887Y878235D01*
X140933Y882793D01*
X142002Y888169D01*
Y971457D01*
X177165D01*
Y1032653D01*
X181785Y1034567D01*
X207080Y1009271D01*
X206880Y1008925D01*
X204331Y999412D01*
Y989564D01*
X206880Y980052D01*
X211804Y971523D01*
X218767Y964560D01*
X227296Y959636D01*
X236808Y957087D01*
X246656D01*
X256169Y959636D01*
X264697Y964560D01*
X271661Y971523D01*
X276585Y980052D01*
X279134Y989564D01*
Y999412D01*
X276585Y1008925D01*
X271661Y1017453D01*
X264697Y1024417D01*
X256169Y1029341D01*
X246656Y1031890D01*
X236808D01*
X227296Y1029341D01*
X226949Y1029140D01*
X201057Y1055032D01*
Y1082462D01*
X206057Y1083120D01*
X206880Y1080052D01*
X211804Y1071523D01*
X218767Y1064560D01*
X227296Y1059636D01*
X236808Y1057087D01*
X246656D01*
X256169Y1059636D01*
X264697Y1064560D01*
X271661Y1071523D01*
X276585Y1080052D01*
X279134Y1089564D01*
Y1099412D01*
X276585Y1108925D01*
X271661Y1117453D01*
X264697Y1124417D01*
X256169Y1129341D01*
X246656Y1131890D01*
X236808D01*
X227296Y1129341D01*
X218767Y1124417D01*
X211804Y1117453D01*
X206880Y1108925D01*
X206057Y1105856D01*
X201057Y1106514D01*
Y1108268D01*
X199988Y1113644D01*
X196942Y1118202D01*
X166431Y1148714D01*
X161873Y1151759D01*
X156496Y1152829D01*
D02*
G37*
G36*
X-1453344Y1131890D02*
X-1463192D01*
X-1472704Y1129341D01*
X-1481233Y1124417D01*
X-1488196Y1117453D01*
X-1493120Y1108925D01*
X-1495669Y1099412D01*
Y1089564D01*
X-1493120Y1080052D01*
X-1488196Y1071523D01*
X-1481233Y1064560D01*
X-1472704Y1059636D01*
X-1463192Y1057087D01*
X-1453344D01*
X-1443831Y1059636D01*
X-1435303Y1064560D01*
X-1428339Y1071523D01*
X-1423415Y1080052D01*
X-1420866Y1089564D01*
Y1099412D01*
X-1423415Y1108925D01*
X-1428339Y1117453D01*
X-1435303Y1124417D01*
X-1443831Y1129341D01*
X-1453344Y1131890D01*
D02*
G37*
G36*
X-459384Y1109252D02*
X-469750D01*
X-479763Y1106569D01*
X-488741Y1101386D01*
X-496071Y1094056D01*
X-501254Y1085078D01*
X-503937Y1075065D01*
Y1064699D01*
X-501254Y1054686D01*
X-496071Y1045708D01*
X-488741Y1038378D01*
X-479763Y1033195D01*
X-469750Y1030512D01*
X-459384D01*
X-449371Y1033195D01*
X-440393Y1038378D01*
X-433063Y1045708D01*
X-427880Y1054686D01*
X-425197Y1064699D01*
Y1075065D01*
X-427880Y1085078D01*
X-433063Y1094056D01*
X-440393Y1101386D01*
X-449371Y1106569D01*
X-459384Y1109252D01*
D02*
G37*
G36*
X1418046Y1049764D02*
X1406757D01*
X1395853Y1046842D01*
X1386076Y1041198D01*
X1378094Y1033215D01*
X1372449Y1023439D01*
X1369528Y1012534D01*
Y1001245D01*
X1372449Y990341D01*
X1378094Y980564D01*
X1386076Y972582D01*
X1395853Y966938D01*
X1406757Y964016D01*
X1418046D01*
X1428950Y966938D01*
X1438727Y972582D01*
X1446709Y980564D01*
X1452354Y990341D01*
X1455276Y1001245D01*
Y1012534D01*
X1452354Y1023439D01*
X1446709Y1033215D01*
X1438727Y1041198D01*
X1428950Y1046842D01*
X1418046Y1049764D01*
D02*
G37*
G36*
X488191Y1050583D02*
X476376D01*
X464963Y1047525D01*
X454730Y1041617D01*
X446375Y1033262D01*
X440468Y1023029D01*
X437409Y1011616D01*
Y999801D01*
X440468Y988388D01*
X446375Y978155D01*
X454730Y969801D01*
X464963Y963893D01*
X476376Y960835D01*
X488191D01*
X499604Y963893D01*
X509837Y969801D01*
X518192Y978155D01*
X524099Y988388D01*
X527158Y999801D01*
Y1011616D01*
X524099Y1023029D01*
X518192Y1033262D01*
X509837Y1041617D01*
X499604Y1047525D01*
X488191Y1050583D01*
D02*
G37*
G36*
X346656Y1031890D02*
X336808D01*
X327296Y1029341D01*
X318767Y1024417D01*
X311804Y1017453D01*
X306880Y1008925D01*
X304331Y999412D01*
Y989564D01*
X306880Y980052D01*
X311804Y971523D01*
X318767Y964560D01*
X327296Y959636D01*
X336808Y957087D01*
X346656D01*
X356169Y959636D01*
X364697Y964560D01*
X371661Y971523D01*
X376585Y980052D01*
X379134Y989564D01*
Y999412D01*
X376585Y1008925D01*
X371661Y1017453D01*
X364697Y1024417D01*
X356169Y1029341D01*
X346656Y1031890D01*
D02*
G37*
G36*
X-1453344D02*
X-1463192D01*
X-1472704Y1029341D01*
X-1481233Y1024417D01*
X-1488196Y1017453D01*
X-1493120Y1008925D01*
X-1495669Y999412D01*
Y989564D01*
X-1493120Y980052D01*
X-1488196Y971523D01*
X-1481233Y964560D01*
X-1472704Y959636D01*
X-1463192Y957087D01*
X-1453344D01*
X-1443831Y959636D01*
X-1435303Y964560D01*
X-1428339Y971523D01*
X-1423415Y980052D01*
X-1420866Y989564D01*
Y999412D01*
X-1423415Y1008925D01*
X-1428339Y1017453D01*
X-1435303Y1024417D01*
X-1443831Y1029341D01*
X-1453344Y1031890D01*
D02*
G37*
G36*
X1418046Y949764D02*
X1406757D01*
X1395853Y946842D01*
X1386076Y941198D01*
X1378094Y933215D01*
X1372449Y923439D01*
X1369528Y912534D01*
Y901245D01*
X1372449Y890341D01*
X1378094Y880564D01*
X1386076Y872582D01*
X1395853Y866938D01*
X1406757Y864016D01*
X1418046D01*
X1428950Y866938D01*
X1438727Y872582D01*
X1446709Y880564D01*
X1452354Y890341D01*
X1455276Y901245D01*
Y912534D01*
X1452354Y923439D01*
X1446709Y933215D01*
X1438727Y941198D01*
X1428950Y946842D01*
X1418046Y949764D01*
D02*
G37*
G36*
X618046D02*
X606757D01*
X595853Y946842D01*
X586076Y941198D01*
X578094Y933215D01*
X572449Y923439D01*
X569528Y912534D01*
Y901245D01*
X572449Y890341D01*
X578094Y880564D01*
X586076Y872582D01*
X595853Y866938D01*
X606757Y864016D01*
X618046D01*
X628950Y866938D01*
X638727Y872582D01*
X646709Y880564D01*
X652354Y890341D01*
X655276Y901245D01*
Y912534D01*
X652354Y923439D01*
X646709Y933215D01*
X638727Y941198D01*
X628950Y946842D01*
X618046Y949764D01*
D02*
G37*
G36*
X478191Y950583D02*
X466376D01*
X454963Y947525D01*
X444730Y941617D01*
X436375Y933262D01*
X430468Y923029D01*
X427409Y911616D01*
Y899801D01*
X430468Y888388D01*
X436375Y878155D01*
X444730Y869801D01*
X454963Y863893D01*
X466376Y860835D01*
X478191D01*
X489604Y863893D01*
X499837Y869801D01*
X508192Y878155D01*
X514099Y888388D01*
X517158Y899801D01*
Y911616D01*
X514099Y923029D01*
X508192Y933262D01*
X499837Y941617D01*
X489604Y947525D01*
X478191Y950583D01*
D02*
G37*
G36*
X-1042914Y1524606D02*
X-1121653D01*
Y1445866D01*
X-1062783D01*
X-945564Y1328648D01*
X-941006Y1325603D01*
X-935630Y1324533D01*
X-763693D01*
X-722711Y1283551D01*
Y807087D01*
X-721641Y801710D01*
X-718596Y797152D01*
X-482375Y560932D01*
X-477817Y557886D01*
X-472441Y556817D01*
X-19685D01*
X-14309Y557886D01*
X-9751Y560932D01*
X200717Y771399D01*
X211928D01*
X218767Y764560D01*
X219481Y764148D01*
X219462Y761320D01*
X218926Y758695D01*
X214889Y755997D01*
X197556Y738664D01*
X197556Y738664D01*
X-354423Y186686D01*
X-357468Y182128D01*
X-358538Y176751D01*
Y-723449D01*
X-361809Y-724326D01*
X-372041Y-730234D01*
X-380396Y-738588D01*
X-386304Y-748821D01*
X-389362Y-760234D01*
Y-772049D01*
X-386304Y-783462D01*
X-380396Y-793695D01*
X-372041Y-802050D01*
X-361809Y-807958D01*
X-350396Y-811016D01*
X-338580D01*
X-327168Y-807958D01*
X-316935Y-802050D01*
X-308580Y-793695D01*
X-302672Y-783462D01*
X-299614Y-772049D01*
Y-760234D01*
X-302672Y-748821D01*
X-308580Y-738588D01*
X-316935Y-730234D01*
X-327168Y-724326D01*
X-330439Y-723449D01*
Y170932D01*
X200242Y701613D01*
X204331Y698630D01*
Y689564D01*
X206880Y680052D01*
X211804Y671523D01*
X218767Y664560D01*
X227296Y659636D01*
X236808Y657087D01*
X246656D01*
X256169Y659636D01*
X256516Y659836D01*
X276108Y640244D01*
Y618788D01*
X271108Y618006D01*
X264697Y624417D01*
X256169Y629341D01*
X246656Y631890D01*
X236808D01*
X227296Y629341D01*
X218767Y624417D01*
X211804Y617453D01*
X206880Y608925D01*
X204331Y599412D01*
Y589564D01*
X206880Y580052D01*
X211804Y571523D01*
X218767Y564560D01*
X227296Y559636D01*
X236808Y557087D01*
X246656D01*
X256169Y559636D01*
X264697Y564560D01*
X271108Y570970D01*
X276108Y570188D01*
Y518788D01*
X271108Y518006D01*
X264697Y524417D01*
X256169Y529341D01*
X246656Y531890D01*
X236808D01*
X227296Y529341D01*
X218767Y524417D01*
X211804Y517453D01*
X206880Y508925D01*
X204331Y499412D01*
Y489564D01*
X206880Y480052D01*
X211804Y471523D01*
X218767Y464560D01*
X227296Y459636D01*
X236808Y457087D01*
X246656D01*
X256169Y459636D01*
X264697Y464560D01*
X271108Y470970D01*
X276108Y470188D01*
Y418788D01*
X271108Y418006D01*
X264697Y424417D01*
X256169Y429341D01*
X246656Y431890D01*
X236808D01*
X227296Y429341D01*
X218767Y424417D01*
X211804Y417453D01*
X206880Y408925D01*
X204331Y399412D01*
Y389564D01*
X206880Y380052D01*
X211804Y371523D01*
X218767Y364560D01*
X227296Y359636D01*
X236808Y357087D01*
X246656D01*
X256169Y359636D01*
X264697Y364560D01*
X271108Y370970D01*
X276108Y370188D01*
Y359449D01*
X277178Y354072D01*
X280223Y349514D01*
X296168Y333569D01*
X300726Y330524D01*
X306103Y329454D01*
X317493D01*
X318832Y324454D01*
X318767Y324417D01*
X311804Y317453D01*
X306880Y308925D01*
X304331Y299412D01*
Y289564D01*
X306880Y280052D01*
X311804Y271523D01*
X318767Y264560D01*
X327296Y259636D01*
X336808Y257087D01*
X346656D01*
X356169Y259636D01*
X364697Y264560D01*
X371661Y271523D01*
X376585Y280052D01*
X379134Y289564D01*
Y299412D01*
X376585Y308925D01*
X371661Y317453D01*
X364697Y324417D01*
X364632Y324454D01*
X365972Y329454D01*
X389850D01*
X582091Y137213D01*
X578094Y133215D01*
X572449Y123439D01*
X569528Y112534D01*
Y101245D01*
X572449Y90341D01*
X578094Y80564D01*
X586076Y72582D01*
X595853Y66938D01*
X606757Y64016D01*
X618046D01*
X628950Y66938D01*
X638727Y72582D01*
X646709Y80564D01*
X652354Y90341D01*
X655276Y101245D01*
Y112534D01*
X652354Y123439D01*
X646709Y133215D01*
X638727Y141198D01*
X628950Y146842D01*
X618046Y149764D01*
X608460D01*
X606812Y152230D01*
X597804Y161238D01*
X600392Y165721D01*
X606757Y164016D01*
X618046D01*
X628950Y166938D01*
X638727Y172582D01*
X646709Y180565D01*
X652354Y190341D01*
X655276Y201245D01*
Y212534D01*
X652354Y223439D01*
X646709Y233215D01*
X638727Y241198D01*
X628950Y246842D01*
X618046Y249764D01*
X606757D01*
X595853Y246842D01*
X593612Y245548D01*
X414640Y424520D01*
Y535630D01*
X413571Y541006D01*
X410525Y545564D01*
X376385Y579705D01*
X376585Y580052D01*
X379134Y589564D01*
Y599412D01*
X376585Y608925D01*
X371661Y617453D01*
X364697Y624417D01*
X356169Y629341D01*
X346656Y631890D01*
X336808D01*
X327296Y629341D01*
X318767Y624417D01*
X311804Y617453D01*
X309207Y612956D01*
X304207Y614295D01*
Y646063D01*
X303137Y651439D01*
X300092Y655997D01*
X276385Y679705D01*
X276585Y680052D01*
X279134Y689564D01*
Y699412D01*
X276585Y708925D01*
X271661Y717453D01*
X264697Y724417D01*
X260200Y727014D01*
X261539Y732014D01*
X273622D01*
X278999Y733083D01*
X283557Y736129D01*
X303242Y755813D01*
X306287Y760371D01*
X307357Y765748D01*
Y770188D01*
X312357Y770970D01*
X318767Y764560D01*
X327296Y759636D01*
X336808Y757087D01*
X346656D01*
X356169Y759636D01*
X364697Y764560D01*
X371661Y771523D01*
X376585Y780052D01*
X379134Y789564D01*
Y799412D01*
X376585Y808925D01*
X371661Y817453D01*
X364697Y824417D01*
X356169Y829341D01*
X346656Y831890D01*
X336808D01*
X327296Y829341D01*
X318767Y824417D01*
X312357Y818006D01*
X307357Y818788D01*
Y840244D01*
X326949Y859836D01*
X327296Y859636D01*
X336808Y857087D01*
X346656D01*
X356169Y859636D01*
X364697Y864560D01*
X371661Y871523D01*
X376585Y880052D01*
X379134Y889564D01*
Y899412D01*
X376585Y908925D01*
X371661Y917453D01*
X364697Y924417D01*
X356169Y929341D01*
X346656Y931890D01*
X336808D01*
X327296Y929341D01*
X318767Y924417D01*
X311804Y917453D01*
X306880Y908925D01*
X304331Y899412D01*
Y889564D01*
X306880Y880052D01*
X307080Y879705D01*
X283373Y855997D01*
X280327Y851439D01*
X279258Y846063D01*
Y814295D01*
X274258Y812956D01*
X271661Y817453D01*
X264697Y824417D01*
X256169Y829341D01*
X246656Y831890D01*
X236808D01*
X227296Y829341D01*
X218767Y824417D01*
X211804Y817453D01*
X206880Y808925D01*
X204354Y799498D01*
X194897D01*
X189521Y798428D01*
X184963Y795383D01*
X-25505Y584916D01*
X-466621D01*
X-694612Y812906D01*
Y1289370D01*
X-695681Y1294747D01*
X-698727Y1299305D01*
X-747939Y1348517D01*
X-752497Y1351563D01*
X-757874Y1352632D01*
X-929811D01*
X-1042914Y1465735D01*
Y1524606D01*
D02*
G37*
G36*
X-574803Y1375000D02*
X-673228D01*
Y1272638D01*
X-638065D01*
Y811024D01*
X-636996Y805647D01*
X-633950Y801089D01*
X-561116Y728255D01*
X-556558Y725209D01*
X-551181Y724139D01*
X-345492D01*
Y705315D01*
X-339168D01*
Y689291D01*
X-338098Y683915D01*
X-335053Y679357D01*
X-275683Y619987D01*
X-271125Y616941D01*
X-265748Y615872D01*
X-22835D01*
X-17458Y616941D01*
X-12900Y619987D01*
X226949Y859836D01*
X227296Y859636D01*
X236808Y857087D01*
X246656D01*
X256169Y859636D01*
X264697Y864560D01*
X271661Y871523D01*
X276585Y880052D01*
X279134Y889564D01*
Y899412D01*
X276585Y908925D01*
X271661Y917453D01*
X264697Y924417D01*
X256169Y929341D01*
X246656Y931890D01*
X236808D01*
X227296Y929341D01*
X218767Y924417D01*
X211804Y917453D01*
X206880Y908925D01*
X204331Y899412D01*
Y889564D01*
X206880Y880052D01*
X207080Y879705D01*
X-28654Y643971D01*
X-259928D01*
X-311069Y695111D01*
Y705315D01*
X-264744D01*
Y771063D01*
X-271069D01*
Y855984D01*
X-272138Y861361D01*
X-275184Y865919D01*
X-389494Y980229D01*
Y1145755D01*
X-262881Y1272368D01*
X-226378D01*
X-225021Y1272638D01*
X-141732D01*
Y1375000D01*
X-240157D01*
Y1300467D01*
X-268701D01*
X-274077Y1299397D01*
X-278635Y1296352D01*
X-413478Y1161509D01*
X-416523Y1156951D01*
X-417593Y1151575D01*
Y974409D01*
X-416523Y969033D01*
X-413478Y964475D01*
X-299168Y850165D01*
Y771063D01*
X-345492D01*
Y752239D01*
X-545362D01*
X-609966Y816843D01*
Y1272638D01*
X-574803D01*
Y1375000D01*
D02*
G37*
G36*
X-1453344Y931890D02*
X-1463192D01*
X-1472704Y929341D01*
X-1481233Y924417D01*
X-1488196Y917453D01*
X-1493120Y908925D01*
X-1495669Y899412D01*
Y889564D01*
X-1493120Y880052D01*
X-1488196Y871523D01*
X-1481233Y864560D01*
X-1472704Y859636D01*
X-1463192Y857087D01*
X-1453344D01*
X-1443831Y859636D01*
X-1435303Y864560D01*
X-1428339Y871523D01*
X-1423415Y880052D01*
X-1420866Y889564D01*
Y899412D01*
X-1423415Y908925D01*
X-1428339Y917453D01*
X-1435303Y924417D01*
X-1443831Y929341D01*
X-1453344Y931890D01*
D02*
G37*
G36*
X-433071Y930118D02*
X-555118D01*
Y812008D01*
X-433071D01*
Y930118D01*
D02*
G37*
G36*
X1418046Y849764D02*
X1406757D01*
X1395853Y846842D01*
X1386076Y841198D01*
X1378094Y833215D01*
X1372449Y823439D01*
X1369528Y812534D01*
Y801245D01*
X1372449Y790341D01*
X1378094Y780564D01*
X1386076Y772582D01*
X1395853Y766938D01*
X1406757Y764016D01*
X1418046D01*
X1428950Y766938D01*
X1438727Y772582D01*
X1446709Y780564D01*
X1452354Y790341D01*
X1455276Y801245D01*
Y812534D01*
X1452354Y823439D01*
X1446709Y833215D01*
X1438727Y841198D01*
X1428950Y846842D01*
X1418046Y849764D01*
D02*
G37*
G36*
X618046D02*
X606757D01*
X595853Y846842D01*
X586076Y841198D01*
X578094Y833215D01*
X572449Y823439D01*
X569528Y812534D01*
Y801245D01*
X572449Y790341D01*
X578094Y780564D01*
X586076Y772582D01*
X595853Y766938D01*
X606757Y764016D01*
X618046D01*
X628950Y766938D01*
X638727Y772582D01*
X646709Y780564D01*
X652354Y790341D01*
X655276Y801245D01*
Y812534D01*
X652354Y823439D01*
X646709Y833215D01*
X638727Y841198D01*
X628950Y846842D01*
X618046Y849764D01*
D02*
G37*
G36*
X488191Y850583D02*
X476376D01*
X464963Y847525D01*
X454730Y841617D01*
X446375Y833262D01*
X440468Y823029D01*
X437409Y811616D01*
Y799801D01*
X440468Y788388D01*
X446375Y778155D01*
X454730Y769801D01*
X464963Y763893D01*
X476376Y760835D01*
X488191D01*
X499604Y763893D01*
X509837Y769801D01*
X518192Y778155D01*
X524099Y788388D01*
X527158Y799801D01*
Y811616D01*
X524099Y823029D01*
X518192Y833262D01*
X509837Y841617D01*
X499604Y847525D01*
X488191Y850583D01*
D02*
G37*
G36*
X-1453344Y831890D02*
X-1463192D01*
X-1472704Y829341D01*
X-1481233Y824417D01*
X-1488196Y817453D01*
X-1493120Y808925D01*
X-1495669Y799412D01*
Y789564D01*
X-1493120Y780052D01*
X-1488196Y771523D01*
X-1481233Y764560D01*
X-1472704Y759636D01*
X-1463192Y757087D01*
X-1453344D01*
X-1443831Y759636D01*
X-1435303Y764560D01*
X-1428339Y771523D01*
X-1423415Y780052D01*
X-1420866Y789564D01*
Y799412D01*
X-1423415Y808925D01*
X-1428339Y817453D01*
X-1435303Y824417D01*
X-1443831Y829341D01*
X-1453344Y831890D01*
D02*
G37*
G36*
X1418046Y749764D02*
X1406757D01*
X1395853Y746842D01*
X1386076Y741198D01*
X1378094Y733215D01*
X1372449Y723439D01*
X1369528Y712534D01*
Y701245D01*
X1372449Y690341D01*
X1378094Y680564D01*
X1386076Y672582D01*
X1395853Y666938D01*
X1406757Y664016D01*
X1418046D01*
X1428950Y666938D01*
X1438727Y672582D01*
X1446709Y680564D01*
X1452354Y690341D01*
X1455276Y701245D01*
Y712534D01*
X1452354Y723439D01*
X1446709Y733215D01*
X1438727Y741198D01*
X1428950Y746842D01*
X1418046Y749764D01*
D02*
G37*
G36*
X618046D02*
X606757D01*
X595853Y746842D01*
X586076Y741198D01*
X578094Y733215D01*
X572449Y723439D01*
X569528Y712534D01*
Y701245D01*
X572449Y690341D01*
X578094Y680564D01*
X586076Y672582D01*
X595853Y666938D01*
X606757Y664016D01*
X618046D01*
X628950Y666938D01*
X638727Y672582D01*
X646709Y680564D01*
X652354Y690341D01*
X655276Y701245D01*
Y712534D01*
X652354Y723439D01*
X646709Y733215D01*
X638727Y741198D01*
X628950Y746842D01*
X618046Y749764D01*
D02*
G37*
G36*
X478191Y750583D02*
X466376D01*
X454963Y747525D01*
X444730Y741617D01*
X436375Y733262D01*
X430468Y723029D01*
X427409Y711616D01*
Y699801D01*
X430468Y688388D01*
X436375Y678155D01*
X444730Y669801D01*
X454963Y663893D01*
X466376Y660835D01*
X478191D01*
X489604Y663893D01*
X499837Y669801D01*
X508192Y678155D01*
X514099Y688388D01*
X517158Y699801D01*
Y711616D01*
X514099Y723029D01*
X508192Y733262D01*
X499837Y741617D01*
X489604Y747525D01*
X478191Y750583D01*
D02*
G37*
G36*
X346656Y731890D02*
X336808D01*
X327296Y729341D01*
X318767Y724417D01*
X311804Y717453D01*
X306880Y708925D01*
X304331Y699412D01*
Y689564D01*
X306880Y680052D01*
X311804Y671523D01*
X318767Y664560D01*
X327296Y659636D01*
X336808Y657087D01*
X346656D01*
X356169Y659636D01*
X364697Y664560D01*
X371661Y671523D01*
X376585Y680052D01*
X379134Y689564D01*
Y699412D01*
X376585Y708925D01*
X371661Y717453D01*
X364697Y724417D01*
X356169Y729341D01*
X346656Y731890D01*
D02*
G37*
G36*
X-1453344D02*
X-1463192D01*
X-1472704Y729341D01*
X-1481233Y724417D01*
X-1488196Y717453D01*
X-1493120Y708925D01*
X-1495669Y699412D01*
Y689564D01*
X-1493120Y680052D01*
X-1488196Y671523D01*
X-1481233Y664560D01*
X-1472704Y659636D01*
X-1463192Y657087D01*
X-1453344D01*
X-1443831Y659636D01*
X-1435303Y664560D01*
X-1428339Y671523D01*
X-1423415Y680052D01*
X-1420866Y689564D01*
Y699412D01*
X-1423415Y708925D01*
X-1428339Y717453D01*
X-1435303Y724417D01*
X-1443831Y729341D01*
X-1453344Y731890D01*
D02*
G37*
G36*
X1418046Y649764D02*
X1406757D01*
X1395853Y646842D01*
X1386076Y641198D01*
X1378094Y633215D01*
X1372449Y623439D01*
X1369528Y612534D01*
Y601245D01*
X1372449Y590341D01*
X1378094Y580564D01*
X1386076Y572582D01*
X1395853Y566938D01*
X1406757Y564016D01*
X1418046D01*
X1428950Y566938D01*
X1438727Y572582D01*
X1446709Y580564D01*
X1452354Y590341D01*
X1455276Y601245D01*
Y612534D01*
X1452354Y623439D01*
X1446709Y633215D01*
X1438727Y641198D01*
X1428950Y646842D01*
X1418046Y649764D01*
D02*
G37*
G36*
X618046D02*
X606757D01*
X595853Y646842D01*
X586076Y641198D01*
X578094Y633215D01*
X572449Y623439D01*
X569528Y612534D01*
Y601245D01*
X572449Y590341D01*
X578094Y580564D01*
X586076Y572582D01*
X595853Y566938D01*
X606757Y564016D01*
X618046D01*
X628950Y566938D01*
X638727Y572582D01*
X646709Y580564D01*
X652354Y590341D01*
X655276Y601245D01*
Y612534D01*
X652354Y623439D01*
X646709Y633215D01*
X638727Y641198D01*
X628950Y646842D01*
X618046Y649764D01*
D02*
G37*
G36*
X488191Y650583D02*
X476376D01*
X464963Y647525D01*
X454730Y641617D01*
X446375Y633262D01*
X440468Y623029D01*
X437409Y611616D01*
Y599801D01*
X440468Y588388D01*
X446375Y578155D01*
X454730Y569801D01*
X464963Y563893D01*
X476376Y560835D01*
X488191D01*
X499604Y563893D01*
X509837Y569801D01*
X518192Y578155D01*
X524099Y588388D01*
X527158Y599801D01*
Y611616D01*
X524099Y623029D01*
X518192Y633262D01*
X509837Y641617D01*
X499604Y647525D01*
X488191Y650583D01*
D02*
G37*
G36*
X-1453344Y631890D02*
X-1463192D01*
X-1472704Y629341D01*
X-1481233Y624417D01*
X-1488196Y617453D01*
X-1493120Y608925D01*
X-1495669Y599412D01*
Y589564D01*
X-1493120Y580052D01*
X-1488196Y571523D01*
X-1481233Y564560D01*
X-1472704Y559636D01*
X-1463192Y557087D01*
X-1453344D01*
X-1443831Y559636D01*
X-1435303Y564560D01*
X-1428339Y571523D01*
X-1423415Y580052D01*
X-1420866Y589564D01*
Y599412D01*
X-1423415Y608925D01*
X-1428339Y617453D01*
X-1435303Y624417D01*
X-1443831Y629341D01*
X-1453344Y631890D01*
D02*
G37*
G36*
X780586Y610189D02*
X771256D01*
X762245Y607774D01*
X754165Y603110D01*
X747568Y596512D01*
X742903Y588433D01*
X740488Y579421D01*
Y570091D01*
X742903Y561080D01*
X747568Y553000D01*
X754165Y546403D01*
X762245Y541738D01*
X771256Y539323D01*
X780586D01*
X789598Y541738D01*
X797678Y546403D01*
X804275Y553000D01*
X808940Y561080D01*
X811354Y570091D01*
Y579421D01*
X808940Y588433D01*
X804275Y596512D01*
X797678Y603110D01*
X789598Y607774D01*
X780586Y610189D01*
D02*
G37*
G36*
X-1448425Y532773D02*
Y504331D01*
X-1419983D01*
X-1421434Y509745D01*
X-1426638Y518759D01*
X-1433997Y526118D01*
X-1443011Y531322D01*
X-1448425Y532773D01*
D02*
G37*
G36*
X-1468110Y532773D02*
X-1473525Y531322D01*
X-1482538Y526118D01*
X-1489898Y518759D01*
X-1495101Y509745D01*
X-1496552Y504331D01*
X-1468110D01*
Y532773D01*
D02*
G37*
G36*
X1418046Y549764D02*
X1406757D01*
X1395853Y546842D01*
X1386076Y541198D01*
X1378094Y533215D01*
X1372449Y523439D01*
X1369528Y512534D01*
Y501245D01*
X1372449Y490341D01*
X1378094Y480565D01*
X1386076Y472582D01*
X1395853Y466938D01*
X1406757Y464016D01*
X1418046D01*
X1428950Y466938D01*
X1438727Y472582D01*
X1446709Y480565D01*
X1452354Y490341D01*
X1455276Y501245D01*
Y512534D01*
X1452354Y523439D01*
X1446709Y533215D01*
X1438727Y541198D01*
X1428950Y546842D01*
X1418046Y549764D01*
D02*
G37*
G36*
X618046D02*
X606757D01*
X595853Y546842D01*
X586076Y541198D01*
X578094Y533215D01*
X572449Y523439D01*
X569528Y512534D01*
Y501245D01*
X572449Y490341D01*
X578094Y480565D01*
X586076Y472582D01*
X595853Y466938D01*
X606757Y464016D01*
X618046D01*
X628950Y466938D01*
X638727Y472582D01*
X646709Y480565D01*
X652354Y490341D01*
X655276Y501245D01*
Y512534D01*
X652354Y523439D01*
X646709Y533215D01*
X638727Y541198D01*
X628950Y546842D01*
X618046Y549764D01*
D02*
G37*
G36*
X478191Y550583D02*
X466376D01*
X454963Y547525D01*
X444730Y541617D01*
X436375Y533262D01*
X430468Y523029D01*
X427409Y511616D01*
Y499801D01*
X430468Y488388D01*
X436375Y478155D01*
X444730Y469801D01*
X454963Y463893D01*
X466376Y460835D01*
X478191D01*
X489604Y463893D01*
X499837Y469801D01*
X508192Y478155D01*
X514099Y488388D01*
X517158Y499801D01*
Y511616D01*
X514099Y523029D01*
X508192Y533262D01*
X499837Y541617D01*
X489604Y547525D01*
X478191Y550583D01*
D02*
G37*
G36*
X-1353344Y531890D02*
X-1363192D01*
X-1372704Y529341D01*
X-1381233Y524417D01*
X-1388196Y517453D01*
X-1393120Y508925D01*
X-1395669Y499412D01*
Y489564D01*
X-1393120Y480052D01*
X-1388196Y471523D01*
X-1381233Y464560D01*
X-1372704Y459636D01*
X-1363192Y457087D01*
X-1353344D01*
X-1343831Y459636D01*
X-1335303Y464560D01*
X-1328339Y471523D01*
X-1323415Y480052D01*
X-1320866Y489564D01*
Y499412D01*
X-1323415Y508925D01*
X-1328339Y517453D01*
X-1335303Y524417D01*
X-1343831Y529341D01*
X-1353344Y531890D01*
D02*
G37*
G36*
X-1419983Y484646D02*
X-1448425D01*
Y456204D01*
X-1443011Y457654D01*
X-1433997Y462858D01*
X-1426638Y470218D01*
X-1421434Y479231D01*
X-1419983Y484646D01*
D02*
G37*
G36*
X-1468110D02*
X-1496552D01*
X-1495101Y479231D01*
X-1489898Y470218D01*
X-1482538Y462858D01*
X-1473525Y457654D01*
X-1468110Y456204D01*
Y484646D01*
D02*
G37*
G36*
X780586Y510189D02*
X771256D01*
X762245Y507774D01*
X754165Y503110D01*
X747568Y496512D01*
X742903Y488433D01*
X740488Y479421D01*
Y470091D01*
X742903Y461079D01*
X747568Y453000D01*
X754165Y446403D01*
X762245Y441738D01*
X771256Y439323D01*
X780586D01*
X789598Y441738D01*
X797678Y446403D01*
X804275Y453000D01*
X808940Y461079D01*
X811354Y470091D01*
Y479421D01*
X808940Y488433D01*
X804275Y496512D01*
X797678Y503110D01*
X789598Y507774D01*
X780586Y510189D01*
D02*
G37*
G36*
X-1353344Y831890D02*
X-1363192D01*
X-1372704Y829341D01*
X-1381233Y824417D01*
X-1388196Y817453D01*
X-1393120Y808925D01*
X-1395669Y799412D01*
Y789564D01*
X-1393120Y780052D01*
X-1388196Y771523D01*
X-1381233Y764560D01*
X-1372704Y759636D01*
X-1363192Y757087D01*
X-1353344D01*
X-1343831Y759636D01*
X-1343484Y759836D01*
X-999895Y416247D01*
X-995337Y413201D01*
X-989961Y412132D01*
X-898988D01*
X-897648Y407132D01*
X-901668Y404811D01*
X-908661Y397818D01*
X-913606Y389253D01*
X-914853Y384598D01*
X-878606D01*
X-842360D01*
X-843607Y389253D01*
X-848552Y397818D01*
X-855544Y404811D01*
X-859564Y407132D01*
X-858225Y412132D01*
X-827181D01*
X-821805Y413201D01*
X-817247Y416247D01*
X-791867Y441626D01*
X-783271Y439323D01*
X-773942D01*
X-764930Y441738D01*
X-756850Y446403D01*
X-750253Y453000D01*
X-745588Y461079D01*
X-743173Y470091D01*
Y479421D01*
X-745588Y488433D01*
X-750253Y496512D01*
X-756850Y503110D01*
X-764930Y507774D01*
X-773942Y510189D01*
X-783271D01*
X-792283Y507774D01*
X-800363Y503110D01*
X-806960Y496512D01*
X-811625Y488433D01*
X-814039Y479421D01*
Y470091D01*
X-811736Y461495D01*
X-833001Y440231D01*
X-857540D01*
X-858880Y445231D01*
X-856850Y446403D01*
X-850253Y453000D01*
X-845588Y461079D01*
X-843173Y470091D01*
Y479421D01*
X-845588Y488433D01*
X-850253Y496512D01*
X-856850Y503110D01*
X-864930Y507774D01*
X-873942Y510189D01*
X-883271D01*
X-892283Y507774D01*
X-900363Y503110D01*
X-906960Y496512D01*
X-911625Y488433D01*
X-914039Y479421D01*
Y470091D01*
X-911625Y461079D01*
X-906960Y453000D01*
X-900363Y446403D01*
X-898333Y445231D01*
X-899672Y440231D01*
X-984141D01*
X-1323615Y779705D01*
X-1323415Y780052D01*
X-1320866Y789564D01*
Y799412D01*
X-1323415Y808925D01*
X-1328339Y817453D01*
X-1335303Y824417D01*
X-1343831Y829341D01*
X-1353344Y831890D01*
D02*
G37*
G36*
X785764Y411003D02*
Y384598D01*
X812168D01*
X810921Y389253D01*
X805976Y397818D01*
X798983Y404811D01*
X790418Y409755D01*
X785764Y411003D01*
D02*
G37*
G36*
X766079D02*
X761424Y409755D01*
X752860Y404811D01*
X745867Y397818D01*
X740922Y389253D01*
X739675Y384598D01*
X766079D01*
Y411003D01*
D02*
G37*
G36*
X1418046Y449764D02*
X1406757D01*
X1395853Y446842D01*
X1386076Y441198D01*
X1378094Y433215D01*
X1372449Y423439D01*
X1369528Y412534D01*
Y401245D01*
X1372449Y390341D01*
X1378094Y380565D01*
X1386076Y372582D01*
X1395853Y366938D01*
X1406757Y364016D01*
X1418046D01*
X1428950Y366938D01*
X1438727Y372582D01*
X1446709Y380565D01*
X1452354Y390341D01*
X1455276Y401245D01*
Y412534D01*
X1452354Y423439D01*
X1446709Y433215D01*
X1438727Y441198D01*
X1428950Y446842D01*
X1418046Y449764D01*
D02*
G37*
G36*
X618046D02*
X606757D01*
X595853Y446842D01*
X586076Y441198D01*
X578094Y433215D01*
X572449Y423439D01*
X569528Y412534D01*
Y401245D01*
X572449Y390341D01*
X578094Y380565D01*
X586076Y372582D01*
X595853Y366938D01*
X606757Y364016D01*
X618046D01*
X628950Y366938D01*
X638727Y372582D01*
X646709Y380565D01*
X652354Y390341D01*
X655276Y401245D01*
Y412534D01*
X652354Y423439D01*
X646709Y433215D01*
X638727Y441198D01*
X628950Y446842D01*
X618046Y449764D01*
D02*
G37*
G36*
X-1453344Y431890D02*
X-1463192D01*
X-1472704Y429341D01*
X-1481233Y424417D01*
X-1488196Y417453D01*
X-1493120Y408925D01*
X-1495669Y399412D01*
Y389564D01*
X-1493120Y380052D01*
X-1488196Y371523D01*
X-1481233Y364560D01*
X-1472704Y359636D01*
X-1463192Y357087D01*
X-1453344D01*
X-1443831Y359636D01*
X-1435303Y364560D01*
X-1428339Y371523D01*
X-1423415Y380052D01*
X-1420866Y389564D01*
Y399412D01*
X-1423415Y408925D01*
X-1428339Y417453D01*
X-1435303Y424417D01*
X-1443831Y429341D01*
X-1453344Y431890D01*
D02*
G37*
G36*
X880586Y410189D02*
X871256D01*
X862245Y407774D01*
X854165Y403110D01*
X847568Y396512D01*
X842903Y388433D01*
X840488Y379421D01*
Y370091D01*
X842903Y361079D01*
X847568Y353000D01*
X854165Y346403D01*
X862245Y341738D01*
X871256Y339323D01*
X880586D01*
X889598Y341738D01*
X897678Y346403D01*
X904275Y353000D01*
X908940Y361079D01*
X911354Y370091D01*
Y379421D01*
X908940Y388433D01*
X904275Y396512D01*
X897678Y403110D01*
X889598Y407774D01*
X880586Y410189D01*
D02*
G37*
G36*
X-773942D02*
X-783271D01*
X-792283Y407774D01*
X-800363Y403110D01*
X-806960Y396512D01*
X-811625Y388433D01*
X-814039Y379421D01*
Y370091D01*
X-811625Y361079D01*
X-806960Y353000D01*
X-800363Y346403D01*
X-792283Y341738D01*
X-783271Y339323D01*
X-773942D01*
X-764930Y341738D01*
X-756850Y346403D01*
X-750253Y353000D01*
X-745588Y361079D01*
X-743173Y370091D01*
Y379421D01*
X-745588Y388433D01*
X-750253Y396512D01*
X-756850Y403110D01*
X-764930Y407774D01*
X-773942Y410189D01*
D02*
G37*
G36*
X812168Y364913D02*
X785764D01*
Y338510D01*
X790418Y339757D01*
X798983Y344701D01*
X805976Y351694D01*
X810921Y360259D01*
X812168Y364913D01*
D02*
G37*
G36*
X-842360D02*
X-868764D01*
Y338510D01*
X-864109Y339757D01*
X-855544Y344701D01*
X-848552Y351694D01*
X-843607Y360259D01*
X-842360Y364913D01*
D02*
G37*
G36*
X766079D02*
X739675D01*
X740922Y360259D01*
X745867Y351694D01*
X752860Y344701D01*
X761424Y339757D01*
X766079Y338510D01*
Y364913D01*
D02*
G37*
G36*
X-888449D02*
X-914853D01*
X-913606Y360259D01*
X-908661Y351694D01*
X-901668Y344701D01*
X-893104Y339757D01*
X-888449Y338510D01*
Y364913D01*
D02*
G37*
G36*
X1418046Y349764D02*
X1406757D01*
X1395853Y346842D01*
X1386076Y341198D01*
X1378094Y333215D01*
X1372449Y323439D01*
X1369528Y312534D01*
Y301245D01*
X1372449Y290341D01*
X1378094Y280565D01*
X1386076Y272582D01*
X1395853Y266938D01*
X1406757Y264016D01*
X1418046D01*
X1428950Y266938D01*
X1438727Y272582D01*
X1446709Y280565D01*
X1452354Y290341D01*
X1455276Y301245D01*
Y312534D01*
X1452354Y323439D01*
X1446709Y333215D01*
X1438727Y341198D01*
X1428950Y346842D01*
X1418046Y349764D01*
D02*
G37*
G36*
X618046D02*
X606757D01*
X595853Y346842D01*
X586076Y341198D01*
X578094Y333215D01*
X572449Y323439D01*
X569528Y312534D01*
Y301245D01*
X572449Y290341D01*
X578094Y280565D01*
X586076Y272582D01*
X595853Y266938D01*
X606757Y264016D01*
X618046D01*
X628950Y266938D01*
X638727Y272582D01*
X646709Y280565D01*
X652354Y290341D01*
X655276Y301245D01*
Y312534D01*
X652354Y323439D01*
X646709Y333215D01*
X638727Y341198D01*
X628950Y346842D01*
X618046Y349764D01*
D02*
G37*
G36*
X246656Y331890D02*
X236808D01*
X227296Y329341D01*
X218767Y324417D01*
X211804Y317453D01*
X206880Y308925D01*
X206776Y308538D01*
X-79528D01*
X-84904Y307468D01*
X-89462Y304423D01*
X-236312Y157572D01*
X-239358Y153014D01*
X-240428Y147638D01*
Y-742212D01*
X-324235Y-826019D01*
X-327168Y-824326D01*
X-338580Y-821268D01*
X-350396D01*
X-361809Y-824326D01*
X-372041Y-830234D01*
X-380396Y-838588D01*
X-386304Y-848821D01*
X-389362Y-860234D01*
Y-872049D01*
X-386304Y-883462D01*
X-380396Y-893695D01*
X-372041Y-902050D01*
X-361809Y-907958D01*
X-350396Y-911016D01*
X-338580D01*
X-327168Y-907958D01*
X-316935Y-902050D01*
X-308580Y-893695D01*
X-302672Y-883462D01*
X-299614Y-872049D01*
Y-860234D01*
X-302672Y-848821D01*
X-304366Y-845888D01*
X-216444Y-757966D01*
X-213398Y-753408D01*
X-212328Y-748032D01*
Y141818D01*
X-73708Y280439D01*
X206776D01*
X206880Y280052D01*
X211804Y271523D01*
X218767Y264560D01*
X227296Y259636D01*
X236808Y257087D01*
X246656D01*
X256169Y259636D01*
X264697Y264560D01*
X271661Y271523D01*
X276585Y280052D01*
X279134Y289564D01*
Y299412D01*
X276585Y308925D01*
X271661Y317453D01*
X264697Y324417D01*
X256169Y329341D01*
X246656Y331890D01*
D02*
G37*
G36*
X-1453344D02*
X-1463192D01*
X-1472704Y329341D01*
X-1481233Y324417D01*
X-1488196Y317453D01*
X-1493120Y308925D01*
X-1495669Y299412D01*
Y289564D01*
X-1493120Y280052D01*
X-1488196Y271523D01*
X-1481233Y264560D01*
X-1472704Y259636D01*
X-1463192Y257087D01*
X-1453344D01*
X-1443831Y259636D01*
X-1435303Y264560D01*
X-1428339Y271523D01*
X-1423415Y280052D01*
X-1420866Y289564D01*
Y299412D01*
X-1423415Y308925D01*
X-1428339Y317453D01*
X-1435303Y324417D01*
X-1443831Y329341D01*
X-1453344Y331890D01*
D02*
G37*
G36*
X1418046Y249764D02*
X1406757D01*
X1395853Y246842D01*
X1386076Y241198D01*
X1378094Y233215D01*
X1372449Y223439D01*
X1369528Y212534D01*
Y201245D01*
X1372449Y190341D01*
X1378094Y180565D01*
X1386076Y172582D01*
X1395853Y166938D01*
X1406757Y164016D01*
X1418046D01*
X1428950Y166938D01*
X1438727Y172582D01*
X1446709Y180565D01*
X1452354Y190341D01*
X1455276Y201245D01*
Y212534D01*
X1452354Y223439D01*
X1446709Y233215D01*
X1438727Y241198D01*
X1428950Y246842D01*
X1418046Y249764D01*
D02*
G37*
G36*
X-1453344Y231890D02*
X-1463192D01*
X-1472704Y229341D01*
X-1481233Y224417D01*
X-1488196Y217453D01*
X-1493120Y208925D01*
X-1495669Y199412D01*
Y189564D01*
X-1493120Y180052D01*
X-1488196Y171523D01*
X-1481233Y164560D01*
X-1472704Y159636D01*
X-1463192Y157087D01*
X-1453344D01*
X-1443831Y159636D01*
X-1435303Y164560D01*
X-1428339Y171523D01*
X-1423415Y180052D01*
X-1420866Y189564D01*
Y199412D01*
X-1423415Y208925D01*
X-1428339Y217453D01*
X-1435303Y224417D01*
X-1443831Y229341D01*
X-1453344Y231890D01*
D02*
G37*
G36*
X1418046Y149764D02*
X1406757D01*
X1395853Y146842D01*
X1386076Y141198D01*
X1378094Y133215D01*
X1372449Y123439D01*
X1369528Y112534D01*
Y101245D01*
X1372449Y90341D01*
X1378094Y80564D01*
X1386076Y72582D01*
X1395853Y66938D01*
X1406757Y64016D01*
X1418046D01*
X1428950Y66938D01*
X1438727Y72582D01*
X1446709Y80564D01*
X1452354Y90341D01*
X1455276Y101245D01*
Y112534D01*
X1452354Y123439D01*
X1446709Y133215D01*
X1438727Y141198D01*
X1428950Y146842D01*
X1418046Y149764D01*
D02*
G37*
G36*
X-1453344Y131890D02*
X-1463192D01*
X-1472704Y129341D01*
X-1481233Y124417D01*
X-1488196Y117453D01*
X-1493120Y108925D01*
X-1495669Y99412D01*
Y89564D01*
X-1493120Y80052D01*
X-1488196Y71523D01*
X-1481233Y64560D01*
X-1472704Y59636D01*
X-1463192Y57087D01*
X-1453344D01*
X-1443831Y59636D01*
X-1435303Y64560D01*
X-1428339Y71523D01*
X-1423415Y80052D01*
X-1420866Y89564D01*
Y99412D01*
X-1423415Y108925D01*
X-1428339Y117453D01*
X-1435303Y124417D01*
X-1443831Y129341D01*
X-1453344Y131890D01*
D02*
G37*
G36*
X618046Y49764D02*
X606757D01*
X595853Y46842D01*
X586076Y41198D01*
X578094Y33215D01*
X572449Y23439D01*
X569528Y12534D01*
Y1245D01*
X572449Y-9659D01*
X578094Y-19436D01*
X586076Y-27418D01*
X595853Y-33062D01*
X606757Y-35984D01*
X618046D01*
X628950Y-33062D01*
X638727Y-27418D01*
X646709Y-19436D01*
X652354Y-9659D01*
X655276Y1245D01*
Y12534D01*
X652354Y23439D01*
X646709Y33215D01*
X638727Y41198D01*
X628950Y46842D01*
X618046Y49764D01*
D02*
G37*
G36*
X-1453344Y31890D02*
X-1463192D01*
X-1472704Y29341D01*
X-1481233Y24417D01*
X-1488196Y17453D01*
X-1493120Y8925D01*
X-1495669Y-588D01*
Y-10436D01*
X-1493120Y-19948D01*
X-1488196Y-28477D01*
X-1481233Y-35440D01*
X-1472704Y-40364D01*
X-1463192Y-42913D01*
X-1453344D01*
X-1443831Y-40364D01*
X-1435303Y-35440D01*
X-1428339Y-28477D01*
X-1423415Y-19948D01*
X-1420866Y-10436D01*
Y-588D01*
X-1423415Y8925D01*
X-1428339Y17453D01*
X-1435303Y24417D01*
X-1443831Y29341D01*
X-1453344Y31890D01*
D02*
G37*
G36*
X0Y75174D02*
X-14666Y73729D01*
X-28768Y69451D01*
X-41764Y62505D01*
X-53156Y53156D01*
X-62505Y41764D01*
X-69451Y28768D01*
X-73729Y14666D01*
X-75174Y0D01*
X-73729Y-14666D01*
X-69451Y-28768D01*
X-62505Y-41764D01*
X-53156Y-53156D01*
X-41764Y-62505D01*
X-28768Y-69451D01*
X-14666Y-73729D01*
X0Y-75174D01*
X14666Y-73729D01*
X28768Y-69451D01*
X41764Y-62505D01*
X53156Y-53156D01*
X62505Y-41764D01*
X69451Y-28768D01*
X73729Y-14666D01*
X75174Y0D01*
X73729Y14666D01*
X69451Y28768D01*
X62505Y41764D01*
X53156Y53156D01*
X41764Y62505D01*
X28768Y69451D01*
X14666Y73729D01*
X0Y75174D01*
D02*
G37*
G36*
X-826772D02*
X-841437Y73729D01*
X-855539Y69451D01*
X-868536Y62505D01*
X-879928Y53156D01*
X-889276Y41764D01*
X-896223Y28768D01*
X-900501Y14666D01*
X-901945Y0D01*
X-900501Y-14666D01*
X-896223Y-28768D01*
X-889276Y-41764D01*
X-879928Y-53156D01*
X-868536Y-62505D01*
X-855539Y-69451D01*
X-841437Y-73729D01*
X-826772Y-75174D01*
X-812106Y-73729D01*
X-798004Y-69451D01*
X-785008Y-62505D01*
X-773616Y-53156D01*
X-764267Y-41764D01*
X-757320Y-28768D01*
X-753043Y-14666D01*
X-751598Y0D01*
X-753043Y14666D01*
X-757320Y28768D01*
X-764267Y41764D01*
X-773616Y53156D01*
X-785008Y62505D01*
X-798004Y69451D01*
X-812106Y73729D01*
X-826772Y75174D01*
D02*
G37*
G36*
X-1453344Y-68110D02*
X-1463192D01*
X-1472704Y-70659D01*
X-1481233Y-75583D01*
X-1488196Y-82547D01*
X-1493120Y-91075D01*
X-1495669Y-100588D01*
Y-110436D01*
X-1493120Y-119948D01*
X-1488196Y-128477D01*
X-1481233Y-135440D01*
X-1472704Y-140364D01*
X-1463192Y-142913D01*
X-1453344D01*
X-1443831Y-140364D01*
X-1435303Y-135440D01*
X-1428339Y-128477D01*
X-1423415Y-119948D01*
X-1420866Y-110436D01*
Y-100588D01*
X-1423415Y-91075D01*
X-1428339Y-82547D01*
X-1435303Y-75583D01*
X-1443831Y-70659D01*
X-1453344Y-68110D01*
D02*
G37*
G36*
X246656Y-168110D02*
X236808D01*
X227296Y-170659D01*
X218767Y-175583D01*
X211804Y-182547D01*
X206880Y-191075D01*
X204331Y-200588D01*
Y-210436D01*
X206880Y-219948D01*
X211804Y-228477D01*
X218767Y-235440D01*
X227296Y-240364D01*
X236808Y-242913D01*
X246656D01*
X256169Y-240364D01*
X264697Y-235440D01*
X271661Y-228477D01*
X276585Y-219948D01*
X279134Y-210436D01*
Y-200588D01*
X276585Y-191075D01*
X271661Y-182547D01*
X264697Y-175583D01*
X256169Y-170659D01*
X246656Y-168110D01*
D02*
G37*
G36*
X-1353344D02*
X-1363192D01*
X-1372704Y-170659D01*
X-1381233Y-175583D01*
X-1388196Y-182547D01*
X-1393120Y-191075D01*
X-1395669Y-200588D01*
Y-210436D01*
X-1393120Y-219948D01*
X-1388196Y-228477D01*
X-1381233Y-235440D01*
X-1372704Y-240364D01*
X-1363192Y-242913D01*
X-1353344D01*
X-1343831Y-240364D01*
X-1335303Y-235440D01*
X-1328339Y-228477D01*
X-1323415Y-219948D01*
X-1320866Y-210436D01*
Y-200588D01*
X-1323415Y-191075D01*
X-1328339Y-182547D01*
X-1335303Y-175583D01*
X-1343831Y-170659D01*
X-1353344Y-168110D01*
D02*
G37*
G36*
X-1453344D02*
X-1463192D01*
X-1472704Y-170659D01*
X-1481233Y-175583D01*
X-1488196Y-182547D01*
X-1493120Y-191075D01*
X-1495669Y-200588D01*
Y-210436D01*
X-1493120Y-219948D01*
X-1488196Y-228477D01*
X-1481233Y-235440D01*
X-1472704Y-240364D01*
X-1463192Y-242913D01*
X-1453344D01*
X-1443831Y-240364D01*
X-1435303Y-235440D01*
X-1428339Y-228477D01*
X-1423415Y-219948D01*
X-1420866Y-210436D01*
Y-200588D01*
X-1423415Y-191075D01*
X-1428339Y-182547D01*
X-1435303Y-175583D01*
X-1443831Y-170659D01*
X-1453344Y-168110D01*
D02*
G37*
G36*
X1370021Y-185236D02*
X1354782D01*
X1340063Y-189180D01*
X1326866Y-196799D01*
X1316091Y-207575D01*
X1308472Y-220772D01*
X1304528Y-235491D01*
Y-250730D01*
X1308472Y-265449D01*
X1316091Y-278646D01*
X1326866Y-289421D01*
X1340063Y-297040D01*
X1354782Y-300984D01*
X1370021D01*
X1384740Y-297040D01*
X1397937Y-289421D01*
X1408712Y-278646D01*
X1416332Y-265449D01*
X1420276Y-250730D01*
Y-235491D01*
X1416332Y-220772D01*
X1408712Y-207575D01*
X1397937Y-196799D01*
X1384740Y-189180D01*
X1370021Y-185236D01*
D02*
G37*
G36*
X246656Y-268110D02*
X236808D01*
X227296Y-270659D01*
X218767Y-275583D01*
X211804Y-282547D01*
X206880Y-291075D01*
X204331Y-300588D01*
Y-310436D01*
X206880Y-319948D01*
X211804Y-328477D01*
X218767Y-335440D01*
X227296Y-340364D01*
X236808Y-342913D01*
X246656D01*
X256169Y-340364D01*
X264697Y-335440D01*
X271661Y-328477D01*
X276585Y-319948D01*
X279134Y-310436D01*
Y-300588D01*
X276585Y-291075D01*
X271661Y-282547D01*
X264697Y-275583D01*
X256169Y-270659D01*
X246656Y-268110D01*
D02*
G37*
G36*
X-1353344D02*
X-1363192D01*
X-1372704Y-270659D01*
X-1381233Y-275583D01*
X-1388196Y-282547D01*
X-1393120Y-291075D01*
X-1395669Y-300588D01*
Y-310436D01*
X-1393120Y-319948D01*
X-1388196Y-328477D01*
X-1381233Y-335440D01*
X-1372704Y-340364D01*
X-1363192Y-342913D01*
X-1353344D01*
X-1343831Y-340364D01*
X-1335303Y-335440D01*
X-1328339Y-328477D01*
X-1323415Y-319948D01*
X-1320866Y-310436D01*
Y-300588D01*
X-1323415Y-291075D01*
X-1328339Y-282547D01*
X-1335303Y-275583D01*
X-1343831Y-270659D01*
X-1353344Y-268110D01*
D02*
G37*
G36*
X-1453344D02*
X-1463192D01*
X-1472704Y-270659D01*
X-1481233Y-275583D01*
X-1488196Y-282547D01*
X-1493120Y-291075D01*
X-1495669Y-300588D01*
Y-310436D01*
X-1493120Y-319948D01*
X-1488196Y-328477D01*
X-1481233Y-335440D01*
X-1472704Y-340364D01*
X-1463192Y-342913D01*
X-1453344D01*
X-1443831Y-340364D01*
X-1435303Y-335440D01*
X-1428339Y-328477D01*
X-1423415Y-319948D01*
X-1420866Y-310436D01*
Y-300588D01*
X-1423415Y-291075D01*
X-1428339Y-282547D01*
X-1435303Y-275583D01*
X-1443831Y-270659D01*
X-1453344Y-268110D01*
D02*
G37*
G36*
X-888449Y-340441D02*
X-916165D01*
Y-368157D01*
X-888449D01*
Y-340441D01*
D02*
G37*
G36*
X813559Y-340441D02*
X785842D01*
Y-368158D01*
X813559D01*
Y-340441D01*
D02*
G37*
G36*
X766158D02*
X738441D01*
Y-368158D01*
X766158D01*
Y-340441D01*
D02*
G37*
G36*
X-1353344Y731890D02*
X-1363192D01*
X-1372704Y729341D01*
X-1381233Y724417D01*
X-1388196Y717453D01*
X-1393120Y708925D01*
X-1395669Y699412D01*
Y689564D01*
X-1393120Y680052D01*
X-1388196Y671523D01*
X-1381233Y664560D01*
X-1372704Y659636D01*
X-1363192Y657087D01*
X-1353344D01*
X-1343831Y659636D01*
X-1343484Y659836D01*
X-979601Y295952D01*
Y-48228D01*
X-978531Y-53605D01*
X-975486Y-58163D01*
X-842790Y-190859D01*
Y-340441D01*
X-868764D01*
Y-378000D01*
Y-415559D01*
X-841047D01*
X-839021Y-417881D01*
X-838675Y-418399D01*
X-803895Y-453179D01*
X-806960Y-456243D01*
X-811625Y-464323D01*
X-814039Y-473335D01*
Y-482664D01*
X-811625Y-491676D01*
X-806960Y-499756D01*
X-800363Y-506353D01*
X-792283Y-511018D01*
X-783271Y-513433D01*
X-773942D01*
X-764930Y-511018D01*
X-756850Y-506353D01*
X-750253Y-499756D01*
X-745588Y-491676D01*
X-743173Y-482664D01*
Y-473335D01*
X-745588Y-464323D01*
X-750253Y-456243D01*
X-756850Y-449646D01*
X-764930Y-444981D01*
X-773942Y-442567D01*
X-775483D01*
X-776921Y-440415D01*
X-814691Y-402645D01*
Y-396366D01*
X-809691Y-395026D01*
X-806960Y-399756D01*
X-800363Y-406353D01*
X-792283Y-411018D01*
X-783271Y-413433D01*
X-773942D01*
X-764930Y-411018D01*
X-756850Y-406353D01*
X-750253Y-399756D01*
X-745588Y-391676D01*
X-743173Y-382664D01*
Y-373335D01*
X-745588Y-364323D01*
X-750253Y-356243D01*
X-756850Y-349646D01*
X-764930Y-344981D01*
X-773942Y-342567D01*
X-783271D01*
X-792283Y-344981D01*
X-800363Y-349646D01*
X-806960Y-356243D01*
X-809691Y-360974D01*
X-814691Y-359634D01*
Y-185039D01*
X-815760Y-179663D01*
X-818806Y-175105D01*
X-951502Y-42409D01*
Y301772D01*
X-952571Y307148D01*
X-955617Y311706D01*
X-1323615Y679705D01*
X-1323415Y680052D01*
X-1320866Y689564D01*
Y699412D01*
X-1323415Y708925D01*
X-1328339Y717453D01*
X-1335303Y724417D01*
X-1343831Y729341D01*
X-1353344Y731890D01*
D02*
G37*
G36*
X880665Y-342567D02*
X871335D01*
X862323Y-344982D01*
X854244Y-349647D01*
X847647Y-356244D01*
X842982Y-364323D01*
X840567Y-373335D01*
Y-382665D01*
X842982Y-391677D01*
X847647Y-399756D01*
X854244Y-406353D01*
X862323Y-411018D01*
X871335Y-413433D01*
X880665D01*
X889677Y-411018D01*
X897756Y-406353D01*
X904353Y-399756D01*
X909018Y-391677D01*
X911433Y-382665D01*
Y-373335D01*
X909018Y-364323D01*
X904353Y-356244D01*
X897756Y-349647D01*
X889677Y-344982D01*
X880665Y-342567D01*
D02*
G37*
G36*
X-888449Y-387842D02*
X-916165D01*
Y-415559D01*
X-888449D01*
Y-387842D01*
D02*
G37*
G36*
X246656Y-368110D02*
X236808D01*
X227296Y-370659D01*
X218767Y-375583D01*
X211804Y-382547D01*
X206880Y-391075D01*
X204331Y-400588D01*
Y-410436D01*
X206880Y-419948D01*
X211804Y-428477D01*
X218767Y-435440D01*
X227296Y-440364D01*
X236808Y-442913D01*
X246656D01*
X256169Y-440364D01*
X264697Y-435440D01*
X271661Y-428477D01*
X276585Y-419948D01*
X279134Y-410436D01*
Y-400588D01*
X276585Y-391075D01*
X271661Y-382547D01*
X264697Y-375583D01*
X256169Y-370659D01*
X246656Y-368110D01*
D02*
G37*
G36*
X-1353344D02*
X-1363192D01*
X-1372704Y-370659D01*
X-1381233Y-375583D01*
X-1388196Y-382547D01*
X-1393120Y-391075D01*
X-1395669Y-400588D01*
Y-410436D01*
X-1393120Y-419948D01*
X-1388196Y-428477D01*
X-1381233Y-435440D01*
X-1372704Y-440364D01*
X-1363192Y-442913D01*
X-1353344D01*
X-1343831Y-440364D01*
X-1335303Y-435440D01*
X-1328339Y-428477D01*
X-1323415Y-419948D01*
X-1320866Y-410436D01*
Y-400588D01*
X-1323415Y-391075D01*
X-1328339Y-382547D01*
X-1335303Y-375583D01*
X-1343831Y-370659D01*
X-1353344Y-368110D01*
D02*
G37*
G36*
X-1453344D02*
X-1463192D01*
X-1472704Y-370659D01*
X-1481233Y-375583D01*
X-1488196Y-382547D01*
X-1493120Y-391075D01*
X-1495669Y-400588D01*
Y-410436D01*
X-1493120Y-419948D01*
X-1488196Y-428477D01*
X-1481233Y-435440D01*
X-1472704Y-440364D01*
X-1463192Y-442913D01*
X-1453344D01*
X-1443831Y-440364D01*
X-1435303Y-435440D01*
X-1428339Y-428477D01*
X-1423415Y-419948D01*
X-1420866Y-410436D01*
Y-400588D01*
X-1423415Y-391075D01*
X-1428339Y-382547D01*
X-1435303Y-375583D01*
X-1443831Y-370659D01*
X-1453344Y-368110D01*
D02*
G37*
G36*
X1289370Y-510859D02*
Y-541339D01*
X1319850D01*
X1318196Y-535164D01*
X1312733Y-525702D01*
X1305007Y-517976D01*
X1295544Y-512513D01*
X1289370Y-510859D01*
D02*
G37*
G36*
X1269685D02*
X1263511Y-512513D01*
X1254048Y-517976D01*
X1246322Y-525702D01*
X1240860Y-535164D01*
X1239205Y-541339D01*
X1269685D01*
Y-510859D01*
D02*
G37*
G36*
X246656Y-468110D02*
X236808D01*
X227296Y-470659D01*
X218767Y-475583D01*
X211804Y-482547D01*
X206880Y-491075D01*
X204331Y-500588D01*
Y-510436D01*
X206880Y-519948D01*
X211804Y-528477D01*
X218767Y-535440D01*
X227296Y-540364D01*
X236808Y-542913D01*
X246656D01*
X256169Y-540364D01*
X264697Y-535440D01*
X271661Y-528477D01*
X276585Y-519948D01*
X279134Y-510436D01*
Y-500588D01*
X276585Y-491075D01*
X271661Y-482547D01*
X264697Y-475583D01*
X256169Y-470659D01*
X246656Y-468110D01*
D02*
G37*
G36*
X-1353344D02*
X-1363192D01*
X-1372704Y-470659D01*
X-1381233Y-475583D01*
X-1388196Y-482547D01*
X-1393120Y-491075D01*
X-1395669Y-500588D01*
Y-510436D01*
X-1393120Y-519948D01*
X-1388196Y-528477D01*
X-1381233Y-535440D01*
X-1372704Y-540364D01*
X-1363192Y-542913D01*
X-1353344D01*
X-1343831Y-540364D01*
X-1335303Y-535440D01*
X-1328339Y-528477D01*
X-1323415Y-519948D01*
X-1320866Y-510436D01*
Y-500588D01*
X-1323415Y-491075D01*
X-1328339Y-482547D01*
X-1335303Y-475583D01*
X-1343831Y-470659D01*
X-1353344Y-468110D01*
D02*
G37*
G36*
X-1453344D02*
X-1463192D01*
X-1472704Y-470659D01*
X-1481233Y-475583D01*
X-1488196Y-482547D01*
X-1493120Y-491075D01*
X-1495669Y-500588D01*
Y-510436D01*
X-1493120Y-519948D01*
X-1488196Y-528477D01*
X-1481233Y-535440D01*
X-1472704Y-540364D01*
X-1463192Y-542913D01*
X-1453344D01*
X-1443831Y-540364D01*
X-1435303Y-535440D01*
X-1428339Y-528477D01*
X-1423415Y-519948D01*
X-1420866Y-510436D01*
Y-500588D01*
X-1423415Y-491075D01*
X-1428339Y-482547D01*
X-1435303Y-475583D01*
X-1443831Y-470659D01*
X-1453344Y-468110D01*
D02*
G37*
G36*
X1418046Y-50236D02*
X1406757D01*
X1395853Y-53158D01*
X1386076Y-58802D01*
X1378094Y-66785D01*
X1372449Y-76561D01*
X1369528Y-87466D01*
Y-98755D01*
X1372449Y-109659D01*
X1378094Y-119436D01*
X1386076Y-127418D01*
X1395853Y-133062D01*
X1406757Y-135984D01*
X1409344D01*
X1409926Y-138912D01*
X1412972Y-143470D01*
X1484966Y-215465D01*
Y-505007D01*
X1419791Y-570182D01*
X1415790Y-567112D01*
X1416215Y-566377D01*
X1418898Y-556364D01*
Y-545998D01*
X1416215Y-535985D01*
X1411031Y-527007D01*
X1403701Y-519677D01*
X1394724Y-514494D01*
X1384711Y-511811D01*
X1374344D01*
X1364331Y-514494D01*
X1355354Y-519677D01*
X1348024Y-527007D01*
X1342841Y-535985D01*
X1340158Y-545998D01*
Y-556364D01*
X1342841Y-566377D01*
X1348024Y-575355D01*
X1355354Y-582685D01*
X1364331Y-587868D01*
X1374344Y-590551D01*
X1384711D01*
X1394724Y-587868D01*
X1395458Y-587444D01*
X1398529Y-591445D01*
X1367212Y-622761D01*
X1324803D01*
X1319427Y-623831D01*
X1314869Y-626876D01*
X1279436Y-662310D01*
X1276390Y-666868D01*
X1275321Y-672244D01*
Y-764764D01*
X1276390Y-770140D01*
X1279436Y-774698D01*
X1318806Y-814068D01*
X1323364Y-817114D01*
X1328740Y-818183D01*
X1393792D01*
X1426846Y-851238D01*
X1425153Y-854171D01*
X1422094Y-865583D01*
Y-877399D01*
X1425153Y-888812D01*
X1431060Y-899045D01*
X1439415Y-907399D01*
X1449648Y-913307D01*
X1461061Y-916365D01*
X1472876D01*
X1484289Y-913307D01*
X1494522Y-907399D01*
X1502877Y-899045D01*
X1508784Y-888812D01*
X1511842Y-877399D01*
Y-865583D01*
X1508784Y-854171D01*
X1502877Y-843938D01*
X1494522Y-835583D01*
X1484289Y-829675D01*
X1472876Y-826617D01*
X1461061D01*
X1449648Y-829675D01*
X1446715Y-831369D01*
X1409546Y-794199D01*
X1404988Y-791154D01*
X1399611Y-790084D01*
X1334560D01*
X1303420Y-758944D01*
Y-678064D01*
X1330623Y-650861D01*
X1373032D01*
X1378408Y-649791D01*
X1382966Y-646745D01*
X1508950Y-520761D01*
X1511996Y-516203D01*
X1513065Y-510827D01*
Y-209645D01*
X1511996Y-204269D01*
X1508950Y-199711D01*
X1438486Y-129247D01*
X1438727Y-127418D01*
X1446709Y-119436D01*
X1452354Y-109659D01*
X1455276Y-98755D01*
Y-87466D01*
X1452354Y-76561D01*
X1446709Y-66785D01*
X1438727Y-58802D01*
X1428950Y-53158D01*
X1418046Y-50236D01*
D02*
G37*
G36*
X1218898Y-511811D02*
X1140158D01*
Y-590551D01*
X1218898D01*
Y-511811D01*
D02*
G37*
G36*
X1319850Y-561024D02*
X1289370D01*
Y-591504D01*
X1295544Y-589849D01*
X1305007Y-584386D01*
X1312733Y-576660D01*
X1318196Y-567198D01*
X1319850Y-561024D01*
D02*
G37*
G36*
X1269685D02*
X1239205D01*
X1240860Y-567198D01*
X1246322Y-576660D01*
X1254048Y-584386D01*
X1263511Y-589849D01*
X1269685Y-591504D01*
Y-561024D01*
D02*
G37*
G36*
X-1353344Y631890D02*
X-1363192D01*
X-1372704Y629341D01*
X-1381233Y624417D01*
X-1388196Y617453D01*
X-1393120Y608925D01*
X-1395669Y599412D01*
Y589564D01*
X-1393120Y580052D01*
X-1388196Y571523D01*
X-1381233Y564560D01*
X-1372704Y559636D01*
X-1363192Y557087D01*
X-1353344D01*
X-1343831Y559636D01*
X-1343484Y559836D01*
X-1029797Y246149D01*
Y-436024D01*
X-1028728Y-441400D01*
X-1025682Y-445958D01*
X-932178Y-539462D01*
X-927620Y-542508D01*
X-922244Y-543577D01*
X-899851D01*
X-898511Y-548577D01*
X-900363Y-549646D01*
X-906960Y-556243D01*
X-911625Y-564323D01*
X-914039Y-573335D01*
Y-582664D01*
X-911625Y-591676D01*
X-906960Y-599756D01*
X-900765Y-605951D01*
X-901143Y-609264D01*
X-901595Y-610951D01*
X-970558D01*
X-1057801Y-523708D01*
Y108071D01*
X-1058870Y113447D01*
X-1061916Y118005D01*
X-1323615Y379705D01*
X-1323415Y380052D01*
X-1320866Y389564D01*
Y399412D01*
X-1323415Y408925D01*
X-1328339Y417453D01*
X-1335303Y424417D01*
X-1343831Y429341D01*
X-1353344Y431890D01*
X-1363192D01*
X-1372704Y429341D01*
X-1381233Y424417D01*
X-1388196Y417453D01*
X-1393120Y408925D01*
X-1395669Y399412D01*
Y389564D01*
X-1393120Y380052D01*
X-1388196Y371523D01*
X-1381233Y364560D01*
X-1372704Y359636D01*
X-1363192Y357087D01*
X-1353344D01*
X-1343831Y359636D01*
X-1343484Y359836D01*
X-1085900Y102251D01*
Y-529528D01*
X-1084830Y-534904D01*
X-1081785Y-539462D01*
X-986312Y-634934D01*
X-981755Y-637980D01*
X-976378Y-639049D01*
X-889463D01*
X-888805Y-644049D01*
X-892283Y-644981D01*
X-900363Y-649646D01*
X-906960Y-656243D01*
X-911625Y-664323D01*
X-914039Y-673335D01*
Y-682664D01*
X-911625Y-691676D01*
X-906960Y-699756D01*
X-900363Y-706353D01*
X-898673Y-707328D01*
X-900013Y-712328D01*
X-969574D01*
X-1112919Y-568984D01*
Y63189D01*
X-1113988Y68566D01*
X-1117034Y73124D01*
X-1323615Y279705D01*
X-1323415Y280052D01*
X-1320866Y289564D01*
Y299412D01*
X-1323415Y308925D01*
X-1328339Y317453D01*
X-1335303Y324417D01*
X-1343831Y329341D01*
X-1353344Y331890D01*
X-1363192D01*
X-1372704Y329341D01*
X-1381233Y324417D01*
X-1388196Y317453D01*
X-1393120Y308925D01*
X-1395669Y299412D01*
Y289564D01*
X-1393120Y280052D01*
X-1388196Y271523D01*
X-1381233Y264560D01*
X-1372704Y259636D01*
X-1363192Y257087D01*
X-1353344D01*
X-1343831Y259636D01*
X-1343484Y259836D01*
X-1141018Y57370D01*
Y-574803D01*
X-1139948Y-580180D01*
X-1136903Y-584738D01*
X-985328Y-736312D01*
X-980770Y-739358D01*
X-975394Y-740428D01*
X-893936D01*
X-893070Y-742814D01*
X-893056Y-745428D01*
X-900363Y-749646D01*
X-906960Y-756243D01*
X-911625Y-764323D01*
X-914039Y-773335D01*
Y-782664D01*
X-911625Y-791676D01*
X-906960Y-799756D01*
X-900363Y-806353D01*
X-897991Y-807722D01*
X-899331Y-812722D01*
X-967606D01*
X-1155242Y-625086D01*
Y5512D01*
X-1156311Y10888D01*
X-1159357Y15446D01*
X-1323615Y179705D01*
X-1323415Y180052D01*
X-1320866Y189564D01*
Y199412D01*
X-1323415Y208925D01*
X-1328339Y217453D01*
X-1335303Y224417D01*
X-1343831Y229341D01*
X-1353344Y231890D01*
X-1363192D01*
X-1372704Y229341D01*
X-1381233Y224417D01*
X-1388196Y217453D01*
X-1393120Y208925D01*
X-1395669Y199412D01*
Y189564D01*
X-1393120Y180052D01*
X-1388196Y171523D01*
X-1381233Y164560D01*
X-1372704Y159636D01*
X-1363192Y157087D01*
X-1353344D01*
X-1343831Y159636D01*
X-1343484Y159836D01*
X-1183341Y-308D01*
Y-630905D01*
X-1182271Y-636282D01*
X-1179226Y-640840D01*
X-983360Y-836706D01*
X-978802Y-839752D01*
X-973425Y-840821D01*
X-895077D01*
X-893737Y-845821D01*
X-900363Y-849646D01*
X-906960Y-856243D01*
X-911625Y-864323D01*
X-914039Y-873335D01*
Y-882664D01*
X-911625Y-891676D01*
X-906960Y-899756D01*
X-900363Y-906353D01*
X-895605Y-909100D01*
X-896945Y-914100D01*
X-964653D01*
X-1194521Y-684232D01*
Y-55209D01*
X-1195591Y-49832D01*
X-1198636Y-45274D01*
X-1323615Y79705D01*
X-1323415Y80052D01*
X-1320866Y89564D01*
Y99412D01*
X-1323415Y108925D01*
X-1328339Y117453D01*
X-1335303Y124417D01*
X-1343831Y129341D01*
X-1353344Y131890D01*
X-1363192D01*
X-1372704Y129341D01*
X-1381233Y124417D01*
X-1388196Y117453D01*
X-1393120Y108925D01*
X-1395669Y99412D01*
Y89564D01*
X-1393120Y80052D01*
X-1388196Y71523D01*
X-1381233Y64560D01*
X-1372704Y59636D01*
X-1363192Y57087D01*
X-1353344D01*
X-1343831Y59636D01*
X-1343484Y59836D01*
X-1222620Y-61028D01*
Y-690052D01*
X-1221551Y-695428D01*
X-1218505Y-699986D01*
X-980407Y-938084D01*
X-975849Y-941130D01*
X-970472Y-942199D01*
X-897464D01*
X-896124Y-947199D01*
X-900363Y-949646D01*
X-906960Y-956243D01*
X-911625Y-964323D01*
X-914039Y-973335D01*
Y-982664D01*
X-911625Y-991676D01*
X-906960Y-999756D01*
X-900363Y-1006353D01*
X-893218Y-1010478D01*
X-893688Y-1014548D01*
X-894059Y-1015478D01*
X-958687D01*
X-1239888Y-734277D01*
Y-109843D01*
X-1240957Y-104466D01*
X-1244003Y-99908D01*
X-1323615Y-20295D01*
X-1323415Y-19948D01*
X-1320866Y-10436D01*
Y-588D01*
X-1323415Y8925D01*
X-1328339Y17453D01*
X-1335303Y24417D01*
X-1343831Y29341D01*
X-1353344Y31890D01*
X-1363192D01*
X-1372704Y29341D01*
X-1381233Y24417D01*
X-1388196Y17453D01*
X-1393120Y8925D01*
X-1395669Y-588D01*
Y-10436D01*
X-1393120Y-19948D01*
X-1388196Y-28477D01*
X-1381233Y-35440D01*
X-1372704Y-40364D01*
X-1363192Y-42913D01*
X-1353344D01*
X-1343831Y-40364D01*
X-1343484Y-40164D01*
X-1267986Y-115662D01*
Y-740097D01*
X-1266917Y-745473D01*
X-1263871Y-750031D01*
X-974441Y-1039462D01*
X-969883Y-1042508D01*
X-964506Y-1043577D01*
X-899851D01*
X-898511Y-1048577D01*
X-900363Y-1049646D01*
X-906960Y-1056243D01*
X-911625Y-1064323D01*
X-914039Y-1073335D01*
Y-1082665D01*
X-911625Y-1091676D01*
X-906960Y-1099756D01*
X-900363Y-1106353D01*
X-894241Y-1109888D01*
X-895581Y-1114888D01*
X-937094D01*
X-1278273Y-773708D01*
Y-171457D01*
X-1279343Y-166080D01*
X-1282388Y-161522D01*
X-1323615Y-120295D01*
X-1323415Y-119948D01*
X-1320866Y-110436D01*
Y-100588D01*
X-1323415Y-91075D01*
X-1328339Y-82547D01*
X-1335303Y-75583D01*
X-1343831Y-70659D01*
X-1353344Y-68110D01*
X-1363192D01*
X-1372704Y-70659D01*
X-1381233Y-75583D01*
X-1388196Y-82547D01*
X-1393120Y-91075D01*
X-1395669Y-100588D01*
Y-110436D01*
X-1393120Y-119948D01*
X-1388196Y-128477D01*
X-1381233Y-135440D01*
X-1372704Y-140364D01*
X-1363192Y-142913D01*
X-1353344D01*
X-1343831Y-140364D01*
X-1343484Y-140164D01*
X-1306372Y-177276D01*
Y-779528D01*
X-1305303Y-784904D01*
X-1302257Y-789462D01*
X-952848Y-1138871D01*
X-948290Y-1141917D01*
X-942913Y-1142986D01*
X-898828D01*
X-897488Y-1147986D01*
X-900363Y-1149646D01*
X-906960Y-1156243D01*
X-911625Y-1164323D01*
X-914039Y-1173335D01*
Y-1182665D01*
X-911625Y-1191676D01*
X-906960Y-1199756D01*
X-900363Y-1206353D01*
X-892283Y-1211018D01*
X-883271Y-1213433D01*
X-873942D01*
X-864930Y-1211018D01*
X-856850Y-1206353D01*
X-850253Y-1199756D01*
X-845588Y-1191676D01*
X-843173Y-1182665D01*
Y-1173335D01*
X-845588Y-1164323D01*
X-850253Y-1156243D01*
X-856850Y-1149646D01*
X-859725Y-1147986D01*
X-858385Y-1142986D01*
X-833489D01*
X-811736Y-1164739D01*
X-814039Y-1173335D01*
Y-1182665D01*
X-811625Y-1191676D01*
X-806960Y-1199756D01*
X-800363Y-1206353D01*
X-792283Y-1211018D01*
X-783271Y-1213433D01*
X-773942D01*
X-764930Y-1211018D01*
X-756850Y-1206353D01*
X-750253Y-1199756D01*
X-745588Y-1191676D01*
X-743173Y-1182665D01*
Y-1173335D01*
X-745588Y-1164323D01*
X-750253Y-1156243D01*
X-756850Y-1149646D01*
X-764930Y-1144981D01*
X-773942Y-1142567D01*
X-783271D01*
X-791867Y-1144870D01*
X-817735Y-1119003D01*
X-822293Y-1115957D01*
X-827669Y-1114888D01*
X-861632D01*
X-862972Y-1109888D01*
X-856850Y-1106353D01*
X-850253Y-1099756D01*
X-845588Y-1091676D01*
X-843173Y-1082665D01*
Y-1073335D01*
X-845588Y-1064323D01*
X-850253Y-1056243D01*
X-856850Y-1049646D01*
X-858702Y-1048577D01*
X-857362Y-1043577D01*
X-832898D01*
X-811736Y-1064739D01*
X-814039Y-1073335D01*
Y-1082665D01*
X-811625Y-1091676D01*
X-806960Y-1099756D01*
X-800363Y-1106353D01*
X-792283Y-1111018D01*
X-783271Y-1113433D01*
X-773942D01*
X-764930Y-1111018D01*
X-756850Y-1106353D01*
X-750253Y-1099756D01*
X-745588Y-1091676D01*
X-743173Y-1082665D01*
Y-1073335D01*
X-745588Y-1064323D01*
X-750253Y-1056243D01*
X-756850Y-1049646D01*
X-764930Y-1044981D01*
X-773942Y-1042567D01*
X-783271D01*
X-791867Y-1044870D01*
X-817144Y-1019593D01*
X-821702Y-1016548D01*
X-827078Y-1015478D01*
X-863154D01*
X-863524Y-1014548D01*
X-863995Y-1010478D01*
X-856850Y-1006353D01*
X-850253Y-999756D01*
X-845588Y-991676D01*
X-843173Y-982664D01*
Y-973335D01*
X-845588Y-964323D01*
X-850253Y-956243D01*
X-856850Y-949646D01*
X-861088Y-947199D01*
X-859749Y-942199D01*
X-834276D01*
X-811736Y-964739D01*
X-814039Y-973335D01*
Y-982664D01*
X-811625Y-991676D01*
X-806960Y-999756D01*
X-800363Y-1006353D01*
X-792283Y-1011018D01*
X-783271Y-1013433D01*
X-773942D01*
X-764930Y-1011018D01*
X-756850Y-1006353D01*
X-750253Y-999756D01*
X-745588Y-991676D01*
X-743173Y-982664D01*
Y-973335D01*
X-745588Y-964323D01*
X-750253Y-956243D01*
X-756850Y-949646D01*
X-764930Y-944981D01*
X-773942Y-942567D01*
X-783271D01*
X-791867Y-944870D01*
X-818522Y-918215D01*
X-823080Y-915170D01*
X-828456Y-914100D01*
X-860268D01*
X-861608Y-909100D01*
X-856850Y-906353D01*
X-850253Y-899756D01*
X-845588Y-891676D01*
X-843173Y-882664D01*
Y-873335D01*
X-845588Y-864323D01*
X-850253Y-856243D01*
X-856850Y-849646D01*
X-863475Y-845821D01*
X-862135Y-840821D01*
X-835654D01*
X-811736Y-864739D01*
X-814039Y-873335D01*
Y-882664D01*
X-811625Y-891676D01*
X-806960Y-899756D01*
X-800363Y-906353D01*
X-792283Y-911018D01*
X-783271Y-913433D01*
X-773942D01*
X-764930Y-911018D01*
X-756850Y-906353D01*
X-750253Y-899756D01*
X-745588Y-891676D01*
X-743173Y-882664D01*
Y-873335D01*
X-745588Y-864323D01*
X-750253Y-856243D01*
X-756850Y-849646D01*
X-764930Y-844981D01*
X-773942Y-842567D01*
X-783271D01*
X-791867Y-844870D01*
X-819900Y-816837D01*
X-824458Y-813792D01*
X-829834Y-812722D01*
X-857881D01*
X-859221Y-807722D01*
X-856850Y-806353D01*
X-850253Y-799756D01*
X-845588Y-791676D01*
X-843173Y-782664D01*
Y-773335D01*
X-845588Y-764323D01*
X-850253Y-756243D01*
X-856850Y-749646D01*
X-864157Y-745428D01*
X-864143Y-742814D01*
X-863276Y-740428D01*
X-836048D01*
X-811736Y-764739D01*
X-814039Y-773335D01*
Y-782664D01*
X-811625Y-791676D01*
X-806960Y-799756D01*
X-800363Y-806353D01*
X-792283Y-811018D01*
X-783271Y-813433D01*
X-773942D01*
X-764930Y-811018D01*
X-756850Y-806353D01*
X-750253Y-799756D01*
X-745588Y-791676D01*
X-743173Y-782664D01*
Y-773335D01*
X-745588Y-764323D01*
X-750253Y-756243D01*
X-756850Y-749646D01*
X-764930Y-744981D01*
X-773942Y-742567D01*
X-783271D01*
X-791867Y-744870D01*
X-820293Y-716443D01*
X-824851Y-713398D01*
X-830228Y-712328D01*
X-857200D01*
X-858539Y-707328D01*
X-856850Y-706353D01*
X-850253Y-699756D01*
X-845588Y-691676D01*
X-843173Y-682664D01*
Y-673335D01*
X-845588Y-664323D01*
X-850253Y-656243D01*
X-856850Y-649646D01*
X-864930Y-644981D01*
X-868408Y-644049D01*
X-867749Y-639049D01*
X-837426D01*
X-811736Y-664739D01*
X-814039Y-673335D01*
Y-682664D01*
X-811625Y-691676D01*
X-806960Y-699756D01*
X-800363Y-706353D01*
X-792283Y-711018D01*
X-783271Y-713433D01*
X-773942D01*
X-764930Y-711018D01*
X-756850Y-706353D01*
X-750253Y-699756D01*
X-745588Y-691676D01*
X-743173Y-682664D01*
Y-673335D01*
X-745588Y-664323D01*
X-750253Y-656243D01*
X-756850Y-649646D01*
X-764930Y-644981D01*
X-773942Y-642567D01*
X-783271D01*
X-791867Y-644870D01*
X-821672Y-615066D01*
X-826230Y-612020D01*
X-831606Y-610951D01*
X-855618D01*
X-856070Y-609264D01*
X-856447Y-605951D01*
X-850253Y-599756D01*
X-845588Y-591676D01*
X-843173Y-582664D01*
Y-573335D01*
X-845588Y-564323D01*
X-850253Y-556243D01*
X-856850Y-549646D01*
X-858702Y-548577D01*
X-857362Y-543577D01*
X-832898D01*
X-811736Y-564739D01*
X-814039Y-573335D01*
Y-582664D01*
X-811625Y-591676D01*
X-806960Y-599756D01*
X-800363Y-606353D01*
X-792283Y-611018D01*
X-783271Y-613433D01*
X-773942D01*
X-764930Y-611018D01*
X-756850Y-606353D01*
X-750253Y-599756D01*
X-745588Y-591676D01*
X-743173Y-582664D01*
Y-573335D01*
X-745588Y-564323D01*
X-750253Y-556243D01*
X-756850Y-549646D01*
X-764930Y-544981D01*
X-773942Y-542567D01*
X-783271D01*
X-791867Y-544870D01*
X-817144Y-519593D01*
X-821702Y-516548D01*
X-827078Y-515478D01*
X-863154D01*
X-863524Y-514548D01*
X-863995Y-510478D01*
X-856850Y-506353D01*
X-850253Y-499756D01*
X-845588Y-491676D01*
X-843173Y-482664D01*
Y-473335D01*
X-845588Y-464323D01*
X-850253Y-456243D01*
X-856850Y-449646D01*
X-864930Y-444981D01*
X-873942Y-442567D01*
X-883271D01*
X-892283Y-444981D01*
X-900363Y-449646D01*
X-906960Y-456243D01*
X-911625Y-464323D01*
X-914039Y-473335D01*
Y-482664D01*
X-911625Y-491676D01*
X-906960Y-499756D01*
X-900363Y-506353D01*
X-893218Y-510478D01*
X-893688Y-514548D01*
X-894059Y-515478D01*
X-916424D01*
X-1001698Y-430204D01*
Y251969D01*
X-1002768Y257345D01*
X-1005813Y261903D01*
X-1323615Y579705D01*
X-1323415Y580052D01*
X-1320866Y589564D01*
Y599412D01*
X-1323415Y608925D01*
X-1328339Y617453D01*
X-1335303Y624417D01*
X-1343831Y629341D01*
X-1353344Y631890D01*
D02*
G37*
G36*
X983943Y-613189D02*
X976687D01*
X969678Y-615067D01*
X963393Y-618695D01*
X958262Y-623826D01*
X954634Y-630111D01*
X952756Y-637120D01*
Y-644376D01*
X954634Y-651385D01*
X958262Y-657670D01*
X963393Y-662801D01*
X969678Y-666429D01*
X976687Y-668307D01*
X983943D01*
X990952Y-666429D01*
X997237Y-662801D01*
X1002368Y-657670D01*
X1005996Y-651385D01*
X1007874Y-644376D01*
Y-637120D01*
X1005996Y-630111D01*
X1002368Y-623826D01*
X997237Y-618695D01*
X990952Y-615067D01*
X983943Y-613189D01*
D02*
G37*
G36*
X349146Y-623617D02*
X334791D01*
X320712Y-626418D01*
X307450Y-631911D01*
X295514Y-639886D01*
X285364Y-650037D01*
X277388Y-661972D01*
X271895Y-675235D01*
X269094Y-689314D01*
Y-703669D01*
X271895Y-717748D01*
X277388Y-731010D01*
X285364Y-742946D01*
X295514Y-753096D01*
X307450Y-761071D01*
X320712Y-766565D01*
X334791Y-769365D01*
X349146D01*
X363225Y-766565D01*
X376487Y-761071D01*
X388423Y-753096D01*
X398573Y-742946D01*
X406549Y-731010D01*
X412042Y-717748D01*
X414842Y-703669D01*
Y-689314D01*
X412042Y-675235D01*
X406549Y-661972D01*
X398573Y-650037D01*
X388423Y-639886D01*
X376487Y-631911D01*
X363225Y-626418D01*
X349146Y-623617D01*
D02*
G37*
G36*
X1472443Y-683472D02*
X1460628D01*
X1449215Y-686531D01*
X1438982Y-692438D01*
X1430627Y-700793D01*
X1424719Y-711026D01*
X1421661Y-722439D01*
Y-734254D01*
X1424719Y-745667D01*
X1430627Y-755900D01*
X1438982Y-764255D01*
X1449215Y-770162D01*
X1460628Y-773221D01*
X1472443D01*
X1483856Y-770162D01*
X1494089Y-764255D01*
X1502444Y-755900D01*
X1508351Y-745667D01*
X1511409Y-734254D01*
Y-722439D01*
X1508351Y-711026D01*
X1502444Y-700793D01*
X1494089Y-692438D01*
X1483856Y-686531D01*
X1472443Y-683472D01*
D02*
G37*
G36*
X1372443Y-693472D02*
X1360628D01*
X1349215Y-696531D01*
X1338982Y-702438D01*
X1330627Y-710793D01*
X1324719Y-721026D01*
X1321661Y-732439D01*
Y-744254D01*
X1324719Y-755667D01*
X1330627Y-765900D01*
X1338982Y-774255D01*
X1349215Y-780162D01*
X1360628Y-783221D01*
X1372443D01*
X1383856Y-780162D01*
X1394089Y-774255D01*
X1402444Y-765900D01*
X1408351Y-755667D01*
X1411409Y-744254D01*
Y-732439D01*
X1408351Y-721026D01*
X1402444Y-710793D01*
X1394089Y-702438D01*
X1383856Y-696531D01*
X1372443Y-693472D01*
D02*
G37*
G36*
X-438580Y-721268D02*
X-450396D01*
X-461809Y-724326D01*
X-472041Y-730234D01*
X-480396Y-738588D01*
X-486304Y-748821D01*
X-489362Y-760234D01*
Y-772049D01*
X-486304Y-783462D01*
X-480396Y-793695D01*
X-472041Y-802050D01*
X-461809Y-807958D01*
X-450396Y-811016D01*
X-438580D01*
X-427168Y-807958D01*
X-416935Y-802050D01*
X-408580Y-793695D01*
X-402672Y-783462D01*
X-399614Y-772049D01*
Y-760234D01*
X-402672Y-748821D01*
X-408580Y-738588D01*
X-416935Y-730234D01*
X-427168Y-724326D01*
X-438580Y-721268D01*
D02*
G37*
G36*
X-1455033Y-771654D02*
X-1462290D01*
X-1469299Y-773532D01*
X-1475583Y-777160D01*
X-1480714Y-782291D01*
X-1484342Y-788575D01*
X-1486220Y-795584D01*
Y-802841D01*
X-1484342Y-809850D01*
X-1480714Y-816134D01*
X-1475583Y-821265D01*
X-1469299Y-824894D01*
X-1462290Y-826772D01*
X-1455033D01*
X-1448024Y-824894D01*
X-1441740Y-821265D01*
X-1436609Y-816134D01*
X-1432980Y-809850D01*
X-1431102Y-802841D01*
Y-795584D01*
X-1432980Y-788575D01*
X-1436609Y-782291D01*
X-1441740Y-777160D01*
X-1448024Y-773532D01*
X-1455033Y-771654D01*
D02*
G37*
G36*
X0Y-751598D02*
X-14666Y-753043D01*
X-28768Y-757320D01*
X-41764Y-764267D01*
X-53156Y-773616D01*
X-62505Y-785008D01*
X-69451Y-798004D01*
X-73729Y-812106D01*
X-75174Y-826772D01*
X-73729Y-841437D01*
X-69451Y-855539D01*
X-62505Y-868536D01*
X-53156Y-879928D01*
X-41764Y-889276D01*
X-28768Y-896223D01*
X-14666Y-900501D01*
X0Y-901945D01*
X14666Y-900501D01*
X28768Y-896223D01*
X41764Y-889276D01*
X53156Y-879928D01*
X62505Y-868536D01*
X69451Y-855539D01*
X73729Y-841437D01*
X75174Y-826772D01*
X73729Y-812106D01*
X69451Y-798004D01*
X62505Y-785008D01*
X53156Y-773616D01*
X41764Y-764267D01*
X28768Y-757320D01*
X14666Y-753043D01*
X0Y-751598D01*
D02*
G37*
G36*
X-438580Y-821268D02*
X-450396D01*
X-461809Y-824326D01*
X-472041Y-830234D01*
X-480396Y-838588D01*
X-486304Y-848821D01*
X-489362Y-860234D01*
Y-872049D01*
X-486304Y-883462D01*
X-480396Y-893695D01*
X-472041Y-902050D01*
X-461809Y-907958D01*
X-450396Y-911016D01*
X-438580D01*
X-427168Y-907958D01*
X-416935Y-902050D01*
X-408580Y-893695D01*
X-402672Y-883462D01*
X-399614Y-872049D01*
Y-860234D01*
X-402672Y-848821D01*
X-408580Y-838588D01*
X-416935Y-830234D01*
X-427168Y-824326D01*
X-438580Y-821268D01*
D02*
G37*
G36*
X880665Y-842567D02*
X871335D01*
X862323Y-844982D01*
X854244Y-849647D01*
X847647Y-856244D01*
X842982Y-864323D01*
X840567Y-873335D01*
Y-882665D01*
X842982Y-891677D01*
X847647Y-899756D01*
X854244Y-906353D01*
X862323Y-911018D01*
X871335Y-913433D01*
X880665D01*
X889677Y-911018D01*
X897756Y-906353D01*
X904353Y-899756D01*
X909018Y-891677D01*
X911433Y-882665D01*
Y-873335D01*
X909018Y-864323D01*
X904353Y-856244D01*
X897756Y-849647D01*
X889677Y-844982D01*
X880665Y-842567D01*
D02*
G37*
G36*
X780665D02*
X771335D01*
X762323Y-844982D01*
X754244Y-849647D01*
X747647Y-856244D01*
X742982Y-864323D01*
X740567Y-873335D01*
Y-882665D01*
X742982Y-891677D01*
X747647Y-899756D01*
X754244Y-906353D01*
X762323Y-911018D01*
X771335Y-913433D01*
X780665D01*
X789677Y-911018D01*
X797756Y-906353D01*
X804353Y-899756D01*
X809018Y-891677D01*
X811433Y-882665D01*
Y-873335D01*
X809018Y-864323D01*
X804353Y-856244D01*
X797756Y-849647D01*
X789677Y-844982D01*
X780665Y-842567D01*
D02*
G37*
G36*
X1372876Y-826617D02*
X1361061D01*
X1349648Y-829675D01*
X1339415Y-835583D01*
X1331060Y-843938D01*
X1325153Y-854171D01*
X1322094Y-865583D01*
Y-877399D01*
X1325153Y-888812D01*
X1331060Y-899045D01*
X1339415Y-907399D01*
X1349648Y-913307D01*
X1361061Y-916365D01*
X1372876D01*
X1384289Y-913307D01*
X1394522Y-907399D01*
X1402877Y-899045D01*
X1408784Y-888812D01*
X1411842Y-877399D01*
Y-865583D01*
X1408784Y-854171D01*
X1402877Y-843938D01*
X1394522Y-835583D01*
X1384289Y-829675D01*
X1372876Y-826617D01*
D02*
G37*
G36*
X1172876D02*
X1161061D01*
X1149648Y-829675D01*
X1139415Y-835583D01*
X1131060Y-843938D01*
X1125153Y-854171D01*
X1122094Y-865583D01*
Y-877399D01*
X1125153Y-888812D01*
X1131060Y-899045D01*
X1139415Y-907399D01*
X1149648Y-913307D01*
X1161061Y-916365D01*
X1172876D01*
X1184289Y-913307D01*
X1194522Y-907399D01*
X1202877Y-899045D01*
X1208784Y-888812D01*
X1211842Y-877399D01*
Y-865583D01*
X1208784Y-854171D01*
X1202877Y-843938D01*
X1194522Y-835583D01*
X1184289Y-829675D01*
X1172876Y-826617D01*
D02*
G37*
G36*
X-438580Y-921268D02*
X-450396D01*
X-461809Y-924326D01*
X-472041Y-930234D01*
X-480396Y-938588D01*
X-486304Y-948821D01*
X-489362Y-960234D01*
Y-972049D01*
X-486304Y-983462D01*
X-480396Y-993695D01*
X-472041Y-1002050D01*
X-461809Y-1007958D01*
X-450396Y-1011016D01*
X-438580D01*
X-427168Y-1007958D01*
X-416935Y-1002050D01*
X-408580Y-993695D01*
X-402672Y-983462D01*
X-399614Y-972049D01*
Y-960234D01*
X-402672Y-948821D01*
X-408580Y-938588D01*
X-416935Y-930234D01*
X-427168Y-924326D01*
X-438580Y-921268D01*
D02*
G37*
G36*
X880665Y-942567D02*
X871335D01*
X862323Y-944982D01*
X854244Y-949647D01*
X847647Y-956244D01*
X842982Y-964323D01*
X840567Y-973335D01*
Y-982665D01*
X842982Y-991677D01*
X847647Y-999756D01*
X854244Y-1006353D01*
X862323Y-1011018D01*
X871335Y-1013433D01*
X880665D01*
X889677Y-1011018D01*
X897756Y-1006353D01*
X904353Y-999756D01*
X909018Y-991677D01*
X911433Y-982665D01*
Y-973335D01*
X909018Y-964323D01*
X904353Y-956244D01*
X897756Y-949647D01*
X889677Y-944982D01*
X880665Y-942567D01*
D02*
G37*
G36*
X780665D02*
X771335D01*
X762323Y-944982D01*
X754244Y-949647D01*
X747647Y-956244D01*
X742982Y-964323D01*
X740567Y-973335D01*
Y-982665D01*
X742982Y-991677D01*
X747647Y-999756D01*
X754244Y-1006353D01*
X762323Y-1011018D01*
X771335Y-1013433D01*
X780665D01*
X789677Y-1011018D01*
X797756Y-1006353D01*
X804353Y-999756D01*
X809018Y-991677D01*
X811433Y-982665D01*
Y-973335D01*
X809018Y-964323D01*
X804353Y-956244D01*
X797756Y-949647D01*
X789677Y-944982D01*
X780665Y-942567D01*
D02*
G37*
G36*
X880665Y-1042567D02*
X871335D01*
X862323Y-1044982D01*
X854244Y-1049647D01*
X847647Y-1056244D01*
X842982Y-1064323D01*
X840567Y-1073335D01*
Y-1082665D01*
X842982Y-1091677D01*
X847647Y-1099756D01*
X854244Y-1106353D01*
X862323Y-1111018D01*
X871335Y-1113433D01*
X880665D01*
X889677Y-1111018D01*
X897756Y-1106353D01*
X904353Y-1099756D01*
X909018Y-1091677D01*
X911433Y-1082665D01*
Y-1073335D01*
X909018Y-1064323D01*
X904353Y-1056244D01*
X897756Y-1049647D01*
X889677Y-1044982D01*
X880665Y-1042567D01*
D02*
G37*
G36*
X780665D02*
X771335D01*
X762323Y-1044982D01*
X754244Y-1049647D01*
X747647Y-1056244D01*
X742982Y-1064323D01*
X740567Y-1073335D01*
Y-1082665D01*
X742982Y-1091677D01*
X747647Y-1099756D01*
X754244Y-1106353D01*
X762323Y-1111018D01*
X771335Y-1113433D01*
X780665D01*
X789677Y-1111018D01*
X797756Y-1106353D01*
X804353Y-1099756D01*
X809018Y-1091677D01*
X811433Y-1082665D01*
Y-1073335D01*
X809018Y-1064323D01*
X804353Y-1056244D01*
X797756Y-1049647D01*
X789677Y-1044982D01*
X780665Y-1042567D01*
D02*
G37*
G36*
X424842Y-1108617D02*
X329094D01*
Y-1109469D01*
X296339D01*
X284005Y-1111093D01*
X272513Y-1115853D01*
X272299Y-1116017D01*
X154528D01*
X142194Y-1117641D01*
X132686Y-1121580D01*
X132478Y-1121460D01*
X121065Y-1118402D01*
X109250D01*
X97837Y-1121460D01*
X87604Y-1127368D01*
X79249Y-1135722D01*
X73342Y-1145955D01*
X70284Y-1157368D01*
Y-1169183D01*
X73342Y-1180596D01*
X79249Y-1190829D01*
X87604Y-1199184D01*
X97837Y-1205091D01*
X109250Y-1208150D01*
X121065D01*
X131626Y-1205320D01*
X142194Y-1209697D01*
X154528Y-1211321D01*
X256269D01*
X258143Y-1212759D01*
X269635Y-1217519D01*
X277669Y-1218577D01*
X281563Y-1219090D01*
X281236Y-1224090D01*
X275728D01*
X263672Y-1227320D01*
X252863Y-1233561D01*
X244038Y-1242386D01*
X237797Y-1253195D01*
X235532Y-1261649D01*
X281968D01*
X328405D01*
X326140Y-1253195D01*
X319899Y-1242386D01*
X311074Y-1233561D01*
X300265Y-1227320D01*
X288209Y-1224090D01*
X282701D01*
X282374Y-1219090D01*
X286268Y-1218577D01*
X294302Y-1217519D01*
X305794Y-1212759D01*
X315663Y-1205186D01*
X316077Y-1204773D01*
X376339D01*
X379435Y-1204365D01*
X424842D01*
Y-1108617D01*
D02*
G37*
G36*
X1287401Y-1088976D02*
X1208661D01*
Y-1167716D01*
X1287401D01*
Y-1088976D01*
D02*
G37*
G36*
X880665Y-1142567D02*
X871335D01*
X862323Y-1144982D01*
X854244Y-1149647D01*
X847647Y-1156244D01*
X842982Y-1164323D01*
X840567Y-1173335D01*
Y-1182665D01*
X842982Y-1191677D01*
X847647Y-1199756D01*
X854244Y-1206353D01*
X862323Y-1211018D01*
X871335Y-1213433D01*
X880665D01*
X889677Y-1211018D01*
X897756Y-1206353D01*
X904353Y-1199756D01*
X909018Y-1191677D01*
X911433Y-1182665D01*
Y-1173335D01*
X909018Y-1164323D01*
X904353Y-1156244D01*
X897756Y-1149647D01*
X889677Y-1144982D01*
X880665Y-1142567D01*
D02*
G37*
G36*
X780665D02*
X771335D01*
X762323Y-1144982D01*
X754244Y-1149647D01*
X747647Y-1156244D01*
X742982Y-1164323D01*
X740567Y-1173335D01*
Y-1182665D01*
X742982Y-1191677D01*
X747647Y-1199756D01*
X754244Y-1206353D01*
X762323Y-1211018D01*
X771335Y-1213433D01*
X780665D01*
X789677Y-1211018D01*
X797756Y-1206353D01*
X804353Y-1199756D01*
X809018Y-1191677D01*
X811433Y-1182665D01*
Y-1173335D01*
X809018Y-1164323D01*
X804353Y-1156244D01*
X797756Y-1149647D01*
X789677Y-1144982D01*
X780665Y-1142567D01*
D02*
G37*
G36*
X1253215Y-1188976D02*
X1242848D01*
X1232835Y-1191659D01*
X1223858Y-1196843D01*
X1216528Y-1204173D01*
X1211344Y-1213150D01*
X1208661Y-1223163D01*
Y-1233530D01*
X1211344Y-1243543D01*
X1216528Y-1252520D01*
X1223858Y-1259850D01*
X1232835Y-1265034D01*
X1242848Y-1267716D01*
X1253215D01*
X1263228Y-1265034D01*
X1272205Y-1259850D01*
X1279535Y-1252520D01*
X1284718Y-1243543D01*
X1287401Y-1233530D01*
Y-1223163D01*
X1284718Y-1213150D01*
X1279535Y-1204173D01*
X1272205Y-1196843D01*
X1263228Y-1191659D01*
X1253215Y-1188976D01*
D02*
G37*
G36*
X-868764Y-1241753D02*
Y-1268157D01*
X-842360D01*
X-843607Y-1263503D01*
X-848552Y-1254938D01*
X-855544Y-1247945D01*
X-864109Y-1243000D01*
X-868764Y-1241753D01*
D02*
G37*
G36*
X-888449Y-1241753D02*
X-893104Y-1243000D01*
X-901668Y-1247945D01*
X-908661Y-1254938D01*
X-913606Y-1263503D01*
X-914853Y-1268157D01*
X-888449D01*
Y-1241753D01*
D02*
G37*
G36*
X785842Y-1241753D02*
Y-1268158D01*
X812247D01*
X810999Y-1263503D01*
X806055Y-1254938D01*
X799062Y-1247945D01*
X790497Y-1243001D01*
X785842Y-1241753D01*
D02*
G37*
G36*
X766158D02*
X761503Y-1243001D01*
X752938Y-1247945D01*
X745945Y-1254938D01*
X741001Y-1263503D01*
X739753Y-1268158D01*
X766158D01*
Y-1241753D01*
D02*
G37*
G36*
X-773942Y-1242567D02*
X-783271D01*
X-792283Y-1244981D01*
X-800363Y-1249646D01*
X-806960Y-1256243D01*
X-811625Y-1264323D01*
X-814039Y-1273335D01*
Y-1282665D01*
X-811625Y-1291676D01*
X-806960Y-1299756D01*
X-800363Y-1306353D01*
X-792283Y-1311018D01*
X-783271Y-1313433D01*
X-773942D01*
X-764930Y-1311018D01*
X-756850Y-1306353D01*
X-750253Y-1299756D01*
X-745588Y-1291676D01*
X-743173Y-1282665D01*
Y-1273335D01*
X-745588Y-1264323D01*
X-750253Y-1256243D01*
X-756850Y-1249646D01*
X-764930Y-1244981D01*
X-773942Y-1242567D01*
D02*
G37*
G36*
X880665Y-1242567D02*
X871335D01*
X862323Y-1244982D01*
X854244Y-1249647D01*
X847647Y-1256244D01*
X842982Y-1264323D01*
X840567Y-1273335D01*
Y-1282665D01*
X842982Y-1291677D01*
X847647Y-1299756D01*
X854244Y-1306353D01*
X862323Y-1311018D01*
X871335Y-1313433D01*
X880665D01*
X889677Y-1311018D01*
X897756Y-1306353D01*
X904353Y-1299756D01*
X909018Y-1291677D01*
X911433Y-1282665D01*
Y-1273335D01*
X909018Y-1264323D01*
X904353Y-1256244D01*
X897756Y-1249647D01*
X889677Y-1244982D01*
X880665Y-1242567D01*
D02*
G37*
G36*
X-888449Y-1287842D02*
X-914853D01*
X-913606Y-1292497D01*
X-908661Y-1301062D01*
X-901668Y-1308054D01*
X-893104Y-1312999D01*
X-888449Y-1314246D01*
Y-1287842D01*
D02*
G37*
G36*
X-842360D02*
X-868764D01*
Y-1314246D01*
X-864109Y-1312999D01*
X-855544Y-1308054D01*
X-848552Y-1301062D01*
X-843607Y-1292497D01*
X-842360Y-1287842D01*
D02*
G37*
G36*
X812247Y-1287842D02*
X785842D01*
Y-1314247D01*
X790497Y-1312999D01*
X799062Y-1308055D01*
X806055Y-1301062D01*
X810999Y-1292497D01*
X812247Y-1287842D01*
D02*
G37*
G36*
X766158D02*
X739753D01*
X741001Y-1292497D01*
X745945Y-1301062D01*
X752938Y-1308055D01*
X761503Y-1312999D01*
X766158Y-1314247D01*
Y-1287842D01*
D02*
G37*
G36*
X272126Y-1281334D02*
X235532D01*
X237797Y-1289788D01*
X244038Y-1300597D01*
X252863Y-1309422D01*
X263672Y-1315662D01*
X272126Y-1317928D01*
Y-1281334D01*
D02*
G37*
G36*
X328405D02*
X291811D01*
Y-1317928D01*
X300265Y-1315662D01*
X311074Y-1309422D01*
X319899Y-1300597D01*
X326140Y-1289788D01*
X328405Y-1281334D01*
D02*
G37*
G36*
X121065Y-1232402D02*
X109250D01*
X97837Y-1235460D01*
X87604Y-1241368D01*
X79249Y-1249722D01*
X73342Y-1259955D01*
X70284Y-1271368D01*
Y-1283183D01*
X73342Y-1294596D01*
X79249Y-1304829D01*
X87604Y-1313184D01*
X97837Y-1319091D01*
X109250Y-1322150D01*
X121065D01*
X132478Y-1319091D01*
X142711Y-1313184D01*
X151066Y-1304829D01*
X156973Y-1294596D01*
X160031Y-1283183D01*
Y-1271368D01*
X156973Y-1259955D01*
X151066Y-1249722D01*
X142711Y-1241368D01*
X132478Y-1235460D01*
X121065Y-1232402D01*
D02*
G37*
G36*
X-1269292Y-1417956D02*
Y-1454134D01*
X-1233113D01*
X-1235337Y-1445835D01*
X-1241524Y-1435118D01*
X-1250275Y-1426367D01*
X-1260993Y-1420179D01*
X-1269292Y-1417956D01*
D02*
G37*
G36*
X-1169292D02*
Y-1454134D01*
X-1133113D01*
X-1135337Y-1445835D01*
X-1141524Y-1435118D01*
X-1150275Y-1426367D01*
X-1160993Y-1420179D01*
X-1169292Y-1417956D01*
D02*
G37*
G36*
X-1288977Y-1417956D02*
X-1297275Y-1420179D01*
X-1307993Y-1426367D01*
X-1316743Y-1435118D01*
X-1322931Y-1445835D01*
X-1325155Y-1454134D01*
X-1288977D01*
Y-1417956D01*
D02*
G37*
G36*
X-1188977D02*
X-1197275Y-1420179D01*
X-1207993Y-1426367D01*
X-1216743Y-1435118D01*
X-1222931Y-1445835D01*
X-1225155Y-1454134D01*
X-1188977D01*
Y-1417956D01*
D02*
G37*
G36*
X-573226Y-1419102D02*
X-585042D01*
X-596455Y-1422160D01*
X-606687Y-1428068D01*
X-615042Y-1436423D01*
X-620950Y-1446656D01*
X-624008Y-1458069D01*
Y-1469884D01*
X-620950Y-1481297D01*
X-615042Y-1491530D01*
X-606687Y-1499884D01*
X-596455Y-1505792D01*
X-585042Y-1508850D01*
X-573226D01*
X-561813Y-1505792D01*
X-551581Y-1499884D01*
X-543226Y-1491530D01*
X-537318Y-1481297D01*
X-534260Y-1469884D01*
Y-1458069D01*
X-537318Y-1446656D01*
X-543226Y-1436423D01*
X-551581Y-1428068D01*
X-561813Y-1422160D01*
X-573226Y-1419102D01*
D02*
G37*
G36*
X-673226D02*
X-685042D01*
X-696455Y-1422160D01*
X-706687Y-1428068D01*
X-715042Y-1436423D01*
X-720950Y-1446656D01*
X-724008Y-1458069D01*
Y-1469884D01*
X-720950Y-1481297D01*
X-715042Y-1491530D01*
X-706687Y-1499884D01*
X-696455Y-1505792D01*
X-685042Y-1508850D01*
X-673226D01*
X-661813Y-1505792D01*
X-651581Y-1499884D01*
X-643226Y-1491530D01*
X-637318Y-1481297D01*
X-634260Y-1469884D01*
Y-1458069D01*
X-637318Y-1446656D01*
X-643226Y-1436423D01*
X-651581Y-1428068D01*
X-661813Y-1422160D01*
X-673226Y-1419102D01*
D02*
G37*
G36*
X-773226D02*
X-785042D01*
X-796455Y-1422160D01*
X-806687Y-1428068D01*
X-815042Y-1436423D01*
X-820950Y-1446656D01*
X-824008Y-1458069D01*
Y-1469884D01*
X-820950Y-1481297D01*
X-815042Y-1491530D01*
X-806687Y-1499884D01*
X-796455Y-1505792D01*
X-785042Y-1508850D01*
X-773226D01*
X-761813Y-1505792D01*
X-751581Y-1499884D01*
X-743226Y-1491530D01*
X-737318Y-1481297D01*
X-734260Y-1469884D01*
Y-1458069D01*
X-737318Y-1446656D01*
X-743226Y-1436423D01*
X-751581Y-1428068D01*
X-761813Y-1422160D01*
X-773226Y-1419102D01*
D02*
G37*
G36*
X-873226D02*
X-885042D01*
X-896455Y-1422160D01*
X-906687Y-1428068D01*
X-915042Y-1436423D01*
X-920950Y-1446656D01*
X-924008Y-1458069D01*
Y-1469884D01*
X-920950Y-1481297D01*
X-915042Y-1491530D01*
X-906687Y-1499884D01*
X-896455Y-1505792D01*
X-885042Y-1508850D01*
X-873226D01*
X-861813Y-1505792D01*
X-851581Y-1499884D01*
X-843226Y-1491530D01*
X-837318Y-1481297D01*
X-834260Y-1469884D01*
Y-1458069D01*
X-837318Y-1446656D01*
X-843226Y-1436423D01*
X-851581Y-1428068D01*
X-861813Y-1422160D01*
X-873226Y-1419102D01*
D02*
G37*
G36*
X-973226D02*
X-985042D01*
X-996455Y-1422160D01*
X-1006687Y-1428068D01*
X-1015042Y-1436423D01*
X-1020950Y-1446656D01*
X-1024008Y-1458069D01*
Y-1469884D01*
X-1020950Y-1481297D01*
X-1015042Y-1491530D01*
X-1006687Y-1499884D01*
X-996455Y-1505792D01*
X-985042Y-1508850D01*
X-973226D01*
X-961813Y-1505792D01*
X-951581Y-1499884D01*
X-943226Y-1491530D01*
X-937318Y-1481297D01*
X-934260Y-1469884D01*
Y-1458069D01*
X-937318Y-1446656D01*
X-943226Y-1436423D01*
X-951581Y-1428068D01*
X-961813Y-1422160D01*
X-973226Y-1419102D01*
D02*
G37*
G36*
X-1073226D02*
X-1085042D01*
X-1096455Y-1422160D01*
X-1106687Y-1428068D01*
X-1115042Y-1436423D01*
X-1120950Y-1446656D01*
X-1124008Y-1458069D01*
Y-1469884D01*
X-1120950Y-1481297D01*
X-1115042Y-1491530D01*
X-1106687Y-1499884D01*
X-1096455Y-1505792D01*
X-1085042Y-1508850D01*
X-1073226D01*
X-1061813Y-1505792D01*
X-1051581Y-1499884D01*
X-1043226Y-1491530D01*
X-1037318Y-1481297D01*
X-1034260Y-1469884D01*
Y-1458069D01*
X-1037318Y-1446656D01*
X-1043226Y-1436423D01*
X-1051581Y-1428068D01*
X-1061813Y-1422160D01*
X-1073226Y-1419102D01*
D02*
G37*
G36*
X-1188977Y-1473819D02*
X-1225155D01*
X-1222931Y-1482118D01*
X-1216743Y-1492835D01*
X-1207993Y-1501586D01*
X-1197275Y-1507774D01*
X-1188977Y-1509997D01*
Y-1473819D01*
D02*
G37*
G36*
X-1288977D02*
X-1325155D01*
X-1322931Y-1482118D01*
X-1316743Y-1492835D01*
X-1307993Y-1501586D01*
X-1297275Y-1507774D01*
X-1288977Y-1509997D01*
Y-1473819D01*
D02*
G37*
G36*
X-1133113D02*
X-1169292D01*
Y-1509997D01*
X-1160993Y-1507774D01*
X-1150275Y-1501586D01*
X-1141524Y-1492835D01*
X-1135337Y-1482118D01*
X-1133113Y-1473819D01*
D02*
G37*
G36*
X-1233113D02*
X-1269292D01*
Y-1509997D01*
X-1260993Y-1507774D01*
X-1250275Y-1501586D01*
X-1241524Y-1492835D01*
X-1235337Y-1482118D01*
X-1233113Y-1473819D01*
D02*
G37*
G36*
X-1269292Y-1517956D02*
Y-1554134D01*
X-1233113D01*
X-1235337Y-1545835D01*
X-1241524Y-1535118D01*
X-1250275Y-1526367D01*
X-1260993Y-1520179D01*
X-1269292Y-1517956D01*
D02*
G37*
G36*
X-1169292D02*
Y-1554134D01*
X-1133113D01*
X-1135337Y-1545835D01*
X-1141524Y-1535118D01*
X-1150275Y-1526367D01*
X-1160993Y-1520179D01*
X-1169292Y-1517956D01*
D02*
G37*
G36*
X-1288977Y-1517956D02*
X-1297275Y-1520179D01*
X-1307993Y-1526367D01*
X-1316743Y-1535118D01*
X-1322931Y-1545835D01*
X-1325155Y-1554134D01*
X-1288977D01*
Y-1517956D01*
D02*
G37*
G36*
X-1188977D02*
X-1197275Y-1520179D01*
X-1207993Y-1526367D01*
X-1216743Y-1535118D01*
X-1222931Y-1545835D01*
X-1225155Y-1554134D01*
X-1188977D01*
Y-1517956D01*
D02*
G37*
G36*
X-233069Y-1470953D02*
X-244884D01*
X-256297Y-1474011D01*
X-266530Y-1479919D01*
X-274884Y-1488273D01*
X-280792Y-1498506D01*
X-283850Y-1509919D01*
Y-1521735D01*
X-280792Y-1533147D01*
X-274884Y-1543380D01*
X-266530Y-1551735D01*
X-256297Y-1557643D01*
X-244884Y-1560701D01*
X-233069D01*
X-221656Y-1557643D01*
X-211423Y-1551735D01*
X-203068Y-1543380D01*
X-197160Y-1533147D01*
X-194102Y-1521735D01*
Y-1509919D01*
X-197160Y-1498506D01*
X-203068Y-1488273D01*
X-211423Y-1479919D01*
X-221656Y-1474011D01*
X-233069Y-1470953D01*
D02*
G37*
G36*
X-433068D02*
X-444884D01*
X-456297Y-1474011D01*
X-466530Y-1479919D01*
X-474884Y-1488273D01*
X-480792Y-1498506D01*
X-483850Y-1509919D01*
Y-1521735D01*
X-480792Y-1533147D01*
X-474884Y-1543380D01*
X-466530Y-1551735D01*
X-456297Y-1557643D01*
X-444884Y-1560701D01*
X-433068D01*
X-421656Y-1557643D01*
X-411423Y-1551735D01*
X-403068Y-1543380D01*
X-397160Y-1533147D01*
X-394102Y-1521735D01*
Y-1509919D01*
X-397160Y-1498506D01*
X-403068Y-1488273D01*
X-411423Y-1479919D01*
X-421656Y-1474011D01*
X-433068Y-1470953D01*
D02*
G37*
G36*
X-133069Y-1480953D02*
X-144884D01*
X-156297Y-1484011D01*
X-166530Y-1489919D01*
X-174884Y-1498273D01*
X-180792Y-1508506D01*
X-183850Y-1519919D01*
Y-1531735D01*
X-180792Y-1543147D01*
X-174884Y-1553380D01*
X-166530Y-1561735D01*
X-156297Y-1567643D01*
X-144884Y-1570701D01*
X-133069D01*
X-121656Y-1567643D01*
X-111423Y-1561735D01*
X-103068Y-1553380D01*
X-97160Y-1543147D01*
X-94102Y-1531735D01*
Y-1519919D01*
X-97160Y-1508506D01*
X-103068Y-1498273D01*
X-111423Y-1489919D01*
X-121656Y-1484011D01*
X-133069Y-1480953D01*
D02*
G37*
G36*
X-333068D02*
X-344884D01*
X-356297Y-1484011D01*
X-366530Y-1489919D01*
X-374884Y-1498273D01*
X-380792Y-1508506D01*
X-383850Y-1519919D01*
Y-1531735D01*
X-380792Y-1543147D01*
X-374884Y-1553380D01*
X-366530Y-1561735D01*
X-356297Y-1567643D01*
X-344884Y-1570701D01*
X-333068D01*
X-321656Y-1567643D01*
X-311423Y-1561735D01*
X-303068Y-1553380D01*
X-297160Y-1543147D01*
X-294102Y-1531735D01*
Y-1519919D01*
X-297160Y-1508506D01*
X-303068Y-1498273D01*
X-311423Y-1489919D01*
X-321656Y-1484011D01*
X-333068Y-1480953D01*
D02*
G37*
%LPD*%
G36*
X311804Y571523D02*
X318767Y564560D01*
X327296Y559636D01*
X336808Y557087D01*
X346656D01*
X356169Y559636D01*
X356516Y559836D01*
X386541Y529810D01*
Y418701D01*
X387611Y413324D01*
X390656Y408766D01*
X573743Y225679D01*
X572449Y223439D01*
X569528Y212534D01*
Y201245D01*
X571233Y194880D01*
X566750Y192292D01*
X405604Y353438D01*
X401046Y356484D01*
X395669Y357553D01*
X362562D01*
X361223Y362553D01*
X364697Y364560D01*
X371661Y371523D01*
X376585Y380052D01*
X379134Y389564D01*
Y399412D01*
X376585Y408925D01*
X371661Y417453D01*
X364697Y424417D01*
X356169Y429341D01*
X346656Y431890D01*
X336808D01*
X327296Y429341D01*
X318767Y424417D01*
X311804Y417453D01*
X309207Y412956D01*
X304207Y414295D01*
Y470429D01*
X309207Y471769D01*
X310102Y470218D01*
X317462Y462858D01*
X326475Y457654D01*
X331890Y456204D01*
Y494488D01*
Y532773D01*
X326475Y531322D01*
X317462Y526118D01*
X310102Y518759D01*
X309207Y517208D01*
X304207Y518548D01*
Y574681D01*
X309207Y576021D01*
X311804Y571523D01*
D02*
G37*
%LPC*%
G36*
X351575Y532773D02*
Y504331D01*
X380017D01*
X378566Y509745D01*
X373362Y518759D01*
X366003Y526118D01*
X356989Y531322D01*
X351575Y532773D01*
D02*
G37*
G36*
X380017Y484646D02*
X351575D01*
Y456204D01*
X356989Y457654D01*
X366003Y462858D01*
X373362Y470218D01*
X378566Y479231D01*
X380017Y484646D01*
D02*
G37*
%LPD*%
D10*
X-1583338Y-1557087D02*
X-1543980D01*
Y-1537408D01*
X-1550540Y-1530849D01*
X-1563659D01*
X-1570219Y-1537408D01*
Y-1557087D01*
X-1550540Y-1491491D02*
X-1543980Y-1498051D01*
Y-1511170D01*
X-1550540Y-1517729D01*
X-1576778D01*
X-1583338Y-1511170D01*
Y-1498051D01*
X-1576778Y-1491491D01*
X-1543980Y-1478372D02*
X-1583338D01*
Y-1458693D01*
X-1576778Y-1452134D01*
X-1570219D01*
X-1563659Y-1458693D01*
Y-1478372D01*
Y-1458693D01*
X-1557100Y-1452134D01*
X-1550540D01*
X-1543980Y-1458693D01*
Y-1478372D01*
Y-1399657D02*
X-1583338D01*
Y-1379978D01*
X-1576778Y-1373419D01*
X-1570219D01*
X-1563659D01*
X-1557100Y-1379978D01*
Y-1399657D01*
Y-1360300D02*
X-1576778D01*
X-1583338Y-1353740D01*
Y-1334062D01*
X-1589897D01*
X-1596457Y-1340621D01*
Y-1347181D01*
X-1583338Y-1334062D02*
X-1557100D01*
X-1543980Y-1281585D02*
X-1583338D01*
Y-1261906D01*
X-1576778Y-1255347D01*
X-1570219D01*
X-1563659Y-1261906D01*
Y-1281585D01*
Y-1261906D01*
X-1557100Y-1255347D01*
X-1550540D01*
X-1543980Y-1261906D01*
Y-1281585D01*
X-1583338Y-1222549D02*
Y-1235668D01*
X-1576778Y-1242227D01*
X-1563659D01*
X-1557100Y-1235668D01*
Y-1222549D01*
X-1563659Y-1215989D01*
X-1570219D01*
Y-1242227D01*
X-1583338Y-1202870D02*
X-1557100D01*
Y-1183191D01*
X-1563659Y-1176632D01*
X-1583338D01*
X-1543980Y-1124155D02*
X-1583338D01*
X-1570219D01*
X-1543980Y-1097917D01*
X-1563659Y-1117596D01*
X-1583338Y-1097917D01*
X-1557100Y-1078238D02*
Y-1065119D01*
X-1563659Y-1058560D01*
X-1583338D01*
Y-1078238D01*
X-1576778Y-1084798D01*
X-1570219Y-1078238D01*
Y-1058560D01*
X-1557100Y-1045440D02*
Y-1019202D01*
X-1583338Y-1045440D01*
Y-1019202D01*
Y-986404D02*
Y-999524D01*
X-1576778Y-1006083D01*
X-1563659D01*
X-1557100Y-999524D01*
Y-986404D01*
X-1563659Y-979845D01*
X-1570219D01*
Y-1006083D01*
X-1583338Y-966726D02*
X-1557100D01*
Y-960166D01*
X-1563659Y-953607D01*
X-1583338D01*
X-1563659D01*
X-1557100Y-947047D01*
X-1563659Y-940487D01*
X-1583338D01*
Y-927368D02*
Y-914249D01*
Y-920809D01*
X-1557100D01*
Y-927368D01*
X-1583338Y-848654D02*
X-1550540D01*
X-1563659D01*
Y-855213D01*
Y-842094D01*
Y-848654D01*
X-1550540D01*
X-1543980Y-842094D01*
X-1583338Y-815856D02*
Y-802737D01*
X-1576778Y-796177D01*
X-1563659D01*
X-1557100Y-802737D01*
Y-815856D01*
X-1563659Y-822415D01*
X-1576778D01*
X-1583338Y-815856D01*
X-1557100Y-783058D02*
X-1583338D01*
X-1570219D01*
X-1563659Y-776498D01*
X-1557100Y-769939D01*
Y-763379D01*
X-1583338Y-704343D02*
X-1543980D01*
X-1557100Y-691224D01*
X-1543980Y-678105D01*
X-1583338D01*
X-1550540Y-638747D02*
X-1543980Y-645307D01*
Y-658426D01*
X-1550540Y-664986D01*
X-1557100D01*
X-1563659Y-658426D01*
Y-645307D01*
X-1570219Y-638747D01*
X-1576778D01*
X-1583338Y-645307D01*
Y-658426D01*
X-1576778Y-664986D01*
X-1543980Y-625628D02*
X-1583338D01*
Y-605950D01*
X-1576778Y-599390D01*
X-1550540D01*
X-1543980Y-605950D01*
Y-625628D01*
X-1550540Y-520675D02*
X-1543980Y-527235D01*
Y-540354D01*
X-1550540Y-546913D01*
X-1576778D01*
X-1583338Y-540354D01*
Y-527235D01*
X-1576778Y-520675D01*
X-1563659D01*
Y-533794D01*
X-1557100Y-507556D02*
X-1583338D01*
X-1570219D01*
X-1563659Y-500997D01*
X-1557100Y-494437D01*
Y-487877D01*
X-1583338Y-461639D02*
Y-448520D01*
X-1576778Y-441961D01*
X-1563659D01*
X-1557100Y-448520D01*
Y-461639D01*
X-1563659Y-468199D01*
X-1576778D01*
X-1583338Y-461639D01*
X-1557100Y-428841D02*
X-1576778D01*
X-1583338Y-422282D01*
Y-402603D01*
X-1557100D01*
X-1596457Y-389484D02*
X-1557100D01*
Y-369805D01*
X-1563659Y-363246D01*
X-1576778D01*
X-1583338Y-369805D01*
Y-389484D01*
X-1570219Y-291090D02*
X-1563659D01*
Y-297650D01*
X-1570219D01*
Y-291090D01*
X-1563659Y-284531D01*
X-1550540D01*
X-1543980Y-291090D01*
Y-304209D01*
X-1550540Y-310769D01*
X-1576778D01*
X-1583338Y-304209D01*
Y-284531D01*
X-1543980Y-232054D02*
X-1576778D01*
X-1583338Y-225495D01*
Y-212376D01*
X-1576778Y-205816D01*
X-1543980D01*
X-1550540Y-166459D02*
X-1543980Y-173018D01*
Y-186137D01*
X-1550540Y-192697D01*
X-1576778D01*
X-1583338Y-186137D01*
Y-173018D01*
X-1576778Y-166459D01*
X-1543980Y-153339D02*
X-1583338D01*
Y-127101D01*
D13*
X296339Y-1157121D02*
X376339D01*
X376969Y-1156491D01*
X281969Y-1171491D02*
X296339Y-1157121D01*
X154528Y-1163669D02*
X274147D01*
X281969Y-1171491D01*
D23*
X-298228Y113189D02*
D03*
X-1458661Y-799213D02*
D03*
X-1492126Y-1575787D02*
D03*
X164370Y-1566929D02*
D03*
X1555118Y-1275591D02*
D03*
X1550197Y-212598D02*
D03*
X1459646Y1442913D02*
D03*
X-110236Y1594488D02*
D03*
X980315Y-640748D02*
D03*
D43*
X-1456693Y-1397638D02*
D03*
X0Y0D02*
D03*
X-826772D02*
D03*
X0Y-826772D02*
D03*
D44*
X1248032Y-1228347D02*
D03*
X-741142Y1485236D02*
D03*
X-982284D02*
D03*
X-31496Y1069882D02*
D03*
Y1345472D02*
D03*
X-464567Y1345473D02*
D03*
Y1069882D02*
D03*
D45*
X1248032Y-1128347D02*
D03*
D50*
X-551181Y738189D02*
X-325118D01*
X-31102Y146063D02*
X293307D01*
X-157480Y19685D02*
X-31102Y146063D01*
X293307D02*
X341732Y194488D01*
X-157480Y-779134D02*
Y19685D01*
X-344488Y-966142D02*
X-157480Y-779134D01*
X-226378Y147638D02*
X-79528Y294488D01*
X241732D01*
X-226378Y-748032D02*
Y147638D01*
X-344488Y-866142D02*
X-226378Y-748032D01*
X-19685Y570866D02*
X194897Y785448D01*
X232693D01*
X-472441Y570866D02*
X-19685D01*
X207490Y728730D02*
X224823Y746063D01*
X273622D01*
X207490Y728730D02*
Y728730D01*
X-344488Y-766142D02*
Y176751D01*
X207490Y728730D01*
X-708661Y807087D02*
X-472441Y570866D01*
X232693Y785448D02*
X241732Y794488D01*
X273622Y746063D02*
X293307Y765748D01*
Y846063D01*
X341732Y894488D01*
X-708661Y807087D02*
Y1289370D01*
X-757874Y1338583D02*
X-708661Y1289370D01*
X-1082284Y1485236D02*
X-935630Y1338583D01*
X-757874D01*
X-265748Y629921D02*
X-22835D01*
X241732Y894488D01*
X-325118Y689291D02*
Y738189D01*
Y689291D02*
X-265748Y629921D01*
X-305118Y935039D02*
X-127362Y757284D01*
X-305118Y935039D02*
Y1032480D01*
X-56122Y757284D02*
X-49528Y750689D01*
Y738189D02*
Y750689D01*
X-127362Y757284D02*
X-56122D01*
X127953Y888169D02*
Y1032480D01*
X-9528Y750689D02*
X127953Y888169D01*
X-9528Y738189D02*
Y750689D01*
X-226378Y1286417D02*
X-190945Y1321850D01*
X-403543Y1151575D02*
X-268701Y1286417D01*
X-190945Y1321850D02*
Y1323819D01*
X-268701Y1286417D02*
X-226378D01*
X-403543Y974409D02*
Y1151575D01*
Y974409D02*
X-285118Y855984D01*
Y738189D02*
Y855984D01*
X-624016Y811024D02*
X-551181Y738189D01*
X-624016Y811024D02*
Y1323819D01*
X187008Y1049213D02*
Y1108268D01*
X156496Y1138780D02*
X187008Y1108268D01*
Y1049213D02*
X241732Y994488D01*
X-198819Y1138780D02*
X156496D01*
X-269685Y1079724D02*
X-257874D01*
X-198819Y1138780D01*
X-305118Y1032480D02*
Y1044291D01*
X-269685Y1079724D01*
X1412402Y-93110D02*
X1422906Y-103615D01*
X1499016Y-510827D02*
Y-209645D01*
X1422906Y-133536D02*
X1499016Y-209645D01*
X1422906Y-133536D02*
Y-103615D01*
X-1358268Y194488D02*
X-1169291Y5512D01*
Y-630905D02*
Y5512D01*
X612402Y-89764D02*
X720472Y18307D01*
X612402Y-93110D02*
Y-89764D01*
X720472Y18307D02*
Y21654D01*
X1412402Y6890D02*
X1622433Y-203142D01*
Y-772252D02*
Y-203142D01*
X1570991Y-823694D02*
X1622433Y-772252D01*
X1566968Y-871491D02*
X1570991Y-867468D01*
Y-823694D01*
X1328740Y-804134D02*
X1399611D01*
X1466968Y-871491D01*
X1289370Y-764764D02*
X1328740Y-804134D01*
X1373032Y-636811D02*
X1499016Y-510827D01*
X1289370Y-764764D02*
Y-672244D01*
X1324803Y-636811D02*
X1373032D01*
X1289370Y-672244D02*
X1324803Y-636811D01*
X290158Y359449D02*
Y646063D01*
X306103Y343504D02*
X395669D01*
X290158Y359449D02*
X306103Y343504D01*
X241732Y694488D02*
X290158Y646063D01*
X612402Y106890D02*
Y122636D01*
X395669Y343504D02*
X596877Y142296D01*
Y138160D02*
X612402Y122636D01*
X596877Y138160D02*
Y142296D01*
X400591Y418701D02*
X612402Y206890D01*
X400591Y418701D02*
Y535630D01*
X341732Y594488D02*
X400591Y535630D01*
X565370Y-147008D02*
X649252D01*
X931102Y134843D02*
Y419575D01*
X649252Y-147008D02*
X931102Y134843D01*
X535433Y-196850D02*
X664370D01*
X395669Y-57087D02*
X535433Y-196850D01*
X293307Y-57087D02*
X395669D01*
X875921Y474756D02*
X931102Y419575D01*
X970472Y109252D02*
Y480205D01*
X664370Y-196850D02*
X970472Y109252D01*
X875921Y574756D02*
X970472Y480205D01*
X701772Y-252953D02*
X1013779Y59055D01*
X875921Y674756D02*
X1013779Y536898D01*
Y59055D02*
Y536898D01*
X1066968Y-871491D02*
Y599370D01*
X940945Y725394D02*
X1066968Y599370D01*
X496063Y-252953D02*
X701772D01*
X397638Y-154528D02*
X496063Y-252953D01*
X290748Y-154528D02*
X397638D01*
X241732Y-105512D02*
X290748Y-154528D01*
X241732Y94488D02*
X293307Y42913D01*
X375448D01*
X565370Y-147008D01*
X550638Y-431543D02*
X829543D01*
X341732Y-218296D02*
Y-205512D01*
X354765Y-235670D02*
X550638Y-431543D01*
X341732Y-218296D02*
X354765Y-231329D01*
Y-235670D02*
Y-231329D01*
X567764Y-531543D02*
X829543D01*
X341732Y-305512D02*
X567764Y-531543D01*
X341732Y-405512D02*
X567764Y-631543D01*
X829543D01*
Y-431543D02*
X876000Y-478000D01*
X829543Y-531543D02*
X876000Y-578000D01*
X829543Y-631543D02*
X876000Y-678000D01*
X567764Y-731543D02*
X829543D01*
X341732Y-505512D02*
X567764Y-731543D01*
X829543D02*
X876000Y-778000D01*
X341732Y1407272D02*
X367475Y1433015D01*
Y1447200D01*
X399851Y1339994D02*
X409851Y1349994D01*
X459613Y1508858D02*
X689961D01*
X341732Y1194488D02*
X399851Y1252606D01*
X341732Y1305260D02*
X393315Y1356843D01*
X657677Y1487008D02*
X695866Y1448819D01*
X341732Y1294488D02*
Y1305260D01*
X367475Y1447200D02*
X459646Y1539370D01*
X409851Y1349994D02*
Y1435711D01*
X461147Y1487008D02*
X657677D01*
X625042Y1470472D02*
X666339Y1429176D01*
X393315Y1442560D02*
X459613Y1508858D01*
X426386Y1428862D02*
X467996Y1470472D01*
X399851Y1252606D02*
Y1339994D01*
X409851Y1435711D02*
X461147Y1487008D01*
X341732Y1394488D02*
Y1407272D01*
X467996Y1470472D02*
X625042D01*
X393315Y1356843D02*
Y1442560D01*
X-830228Y726378D02*
X-778606Y674756D01*
X-1358268Y994488D02*
X-1090158Y726378D01*
X-830228D01*
X-965551Y-48228D02*
X-828740Y-185039D01*
Y-408465D02*
X-786855Y-450350D01*
X-828740Y-408465D02*
Y-185039D01*
X750984Y1125984D02*
X824693D01*
X875921Y1074756D01*
X725394Y1151575D02*
X750984Y1125984D01*
X695866Y1077756D02*
X750984Y1022638D01*
X828040D02*
X875921Y974756D01*
X750984Y1022638D02*
X828040D01*
X824496Y926181D02*
X875921Y874756D01*
X666339Y1016732D02*
X756890Y926181D01*
X824496D01*
X750000Y725394D02*
X940945D01*
X690229Y785164D02*
X750000Y725394D01*
X241732Y-5512D02*
X293307Y-57087D01*
X690229Y785164D02*
Y929062D01*
X666339Y1016732D02*
Y1429176D01*
X695866Y1077756D02*
Y1448819D01*
X725394Y1151575D02*
Y1473425D01*
X768701Y1539370D02*
X827756Y1480315D01*
Y1222921D02*
Y1480315D01*
Y1222921D02*
X875921Y1174756D01*
X-1358268Y794488D02*
X-989961Y426181D01*
X-827181D02*
X-778606Y474756D01*
X-989961Y426181D02*
X-827181D01*
X-1091732Y627953D02*
X-831803D01*
X-778606Y574756D01*
X-1358268Y894488D02*
X-1091732Y627953D01*
X-1292323Y-779528D02*
X-942913Y-1128937D01*
X-827669D02*
X-778606Y-1178000D01*
X-942913Y-1128937D02*
X-827669D01*
X-827078Y-1029528D02*
X-778606Y-1078000D01*
X-964506Y-1029528D02*
X-827078D01*
X-1253937Y-740097D02*
X-964506Y-1029528D01*
X-828456Y-928150D02*
X-778606Y-978000D01*
X-1208571Y-690052D02*
X-970472Y-928150D01*
X-828456D01*
X-1169291Y-630905D02*
X-973425Y-826772D01*
X-829834D02*
X-778606Y-878000D01*
X-973425Y-826772D02*
X-829834D01*
X-1126968Y-574803D02*
X-975394Y-726378D01*
X-830228D02*
X-778606Y-778000D01*
X-975394Y-726378D02*
X-830228D01*
X-831606Y-625000D02*
X-778606Y-678000D01*
X-1071850Y-529528D02*
X-976378Y-625000D01*
X-831606D01*
X-786855Y-469751D02*
X-778606Y-478000D01*
X-786855Y-469751D02*
Y-450350D01*
X-827078Y-529528D02*
X-778606Y-578000D01*
X-922244Y-529528D02*
X-827078D01*
X-1015748Y-436024D02*
X-922244Y-529528D01*
X-1358268Y1094488D02*
X-1090551Y826772D01*
X-830622D02*
X-778606Y774756D01*
X-1090551Y826772D02*
X-830622D01*
X-830031Y926181D02*
X-778606Y874756D01*
X-1089961Y926181D02*
X-830031D01*
X-1358268Y1194488D02*
X-1089961Y926181D01*
X-1088386Y1024606D02*
X-828457D01*
X-1358268Y1294488D02*
X-1088386Y1024606D01*
X-828457D02*
X-778606Y974756D01*
X-829835Y1125984D02*
X-778606Y1074756D01*
X-1358268Y1394488D02*
X-1089764Y1125984D01*
X-829835D01*
X-1358268Y1494488D02*
X-1091142Y1227362D01*
X-840551D02*
X-787945Y1174756D01*
X-1091142Y1227362D02*
X-840551D01*
X-787945Y1174756D02*
X-778606D01*
X612402Y1006890D02*
X690229Y929062D01*
X426386Y1343145D02*
Y1428862D01*
X689961Y1508858D02*
X725394Y1473425D01*
X459646Y1539370D02*
X768701D01*
X466239Y1609252D02*
X794291D01*
X986221Y1417323D01*
Y885055D02*
Y1417323D01*
X351475Y1494488D02*
X466239Y1609252D01*
X875921Y774756D02*
X986221Y885055D01*
X341732Y1494488D02*
X351475D01*
X416386Y1333145D02*
X426386Y1343145D01*
X341732Y1094488D02*
X416386Y1169142D01*
Y1333145D01*
X-1015748Y-436024D02*
Y251969D01*
X-1126968Y-574803D02*
Y63189D01*
X-1208571Y-690052D02*
Y-55209D01*
X-1292323Y-779528D02*
Y-171457D01*
X-1253937Y-740097D02*
Y-109843D01*
X-1358268Y-5512D02*
X-1253937Y-109843D01*
X-1358268Y-105512D02*
X-1292323Y-171457D01*
X-1358268Y294488D02*
X-1126968Y63189D01*
X-1358268Y394488D02*
X-1071850Y108071D01*
Y-529528D02*
Y108071D01*
X-1358268Y594488D02*
X-1015748Y251969D01*
X-1358268Y94488D02*
X-1208571Y-55209D01*
X-965551Y-48228D02*
Y301772D01*
X-1358268Y694488D02*
X-965551Y301772D01*
D52*
X-325118Y738189D02*
D03*
X-285118D02*
D03*
X-9528D02*
D03*
X-49528D02*
D03*
D53*
X720472Y23622D02*
D03*
D56*
X-305118Y738189D02*
D03*
X-29516Y738189D02*
D03*
D57*
X-841142Y1485236D02*
D03*
X-1082284D02*
D03*
D58*
X-1279134Y-1563976D02*
D03*
Y-1463976D02*
D03*
X-1179134Y-1563976D02*
D03*
Y-1463976D02*
D03*
X-1079134Y-1563976D02*
D03*
Y-1463976D02*
D03*
X-979134Y-1563976D02*
D03*
Y-1463976D02*
D03*
X-879134Y-1563976D02*
D03*
Y-1463976D02*
D03*
X-779134Y-1563976D02*
D03*
Y-1463976D02*
D03*
X-679134Y-1563976D02*
D03*
Y-1463976D02*
D03*
X-579134Y-1563976D02*
D03*
Y-1463976D02*
D03*
X-344488Y-966142D02*
D03*
X-444488D02*
D03*
X-344488Y-866142D02*
D03*
X-444488D02*
D03*
X-344488Y-766142D02*
D03*
X-444488D02*
D03*
X1066968Y-871491D02*
D03*
X1166968D02*
D03*
X1266968D02*
D03*
X1366968D02*
D03*
X1466968D02*
D03*
X1566968D02*
D03*
X966968Y-1571491D02*
D03*
X1066968D02*
D03*
X1166968D02*
D03*
X1266968D02*
D03*
X1366968D02*
D03*
X1466968D02*
D03*
X1566968D02*
D03*
X1544134Y1042716D02*
D03*
X1554134Y1142716D02*
D03*
X1544134Y1242716D02*
D03*
X1554134Y1342716D02*
D03*
X-438976Y-1515827D02*
D03*
X-338976Y-1525827D02*
D03*
X-238976Y-1515827D02*
D03*
X-138976Y-1525827D02*
D03*
X1547244Y694772D02*
D03*
Y808772D02*
D03*
X482284Y1405709D02*
D03*
X472284Y1305709D02*
D03*
X482284Y1205709D02*
D03*
X472284Y1105709D02*
D03*
X482284Y1005709D02*
D03*
X472284Y905709D02*
D03*
X482284Y805709D02*
D03*
X472284Y705709D02*
D03*
X482284Y605709D02*
D03*
X472284Y505709D02*
D03*
X1366535Y-738346D02*
D03*
X1466535Y-728346D02*
D03*
X1566535Y-738346D02*
D03*
X115157Y-1163276D02*
D03*
Y-1277276D02*
D03*
D59*
X281969Y-1171491D02*
D03*
Y-1271491D02*
D03*
D60*
X376969Y-1156491D02*
D03*
D61*
Y-1294291D02*
D03*
D62*
X341969Y-696491D02*
D03*
D63*
X341732Y894488D02*
D03*
X241732Y794488D02*
D03*
Y894488D02*
D03*
X-1358268Y-505512D02*
D03*
X-1458268D02*
D03*
X-1358268Y-405512D02*
D03*
X-1458268D02*
D03*
X-1358268Y-305512D02*
D03*
X-1458268D02*
D03*
X-1358268Y-205512D02*
D03*
X-1458268D02*
D03*
X241732Y-505512D02*
D03*
Y-305512D02*
D03*
Y-405512D02*
D03*
X341732D02*
D03*
Y-505512D02*
D03*
Y1494488D02*
D03*
Y1594488D02*
D03*
X241732Y1494488D02*
D03*
Y1394488D02*
D03*
X341732D02*
D03*
X241732Y1294488D02*
D03*
X341732D02*
D03*
X241732Y1194488D02*
D03*
X341732D02*
D03*
X241732Y1094488D02*
D03*
X341732D02*
D03*
Y994488D02*
D03*
X241732D02*
D03*
X341732Y794488D02*
D03*
X241732Y694488D02*
D03*
X341732D02*
D03*
X241732Y594488D02*
D03*
X341732D02*
D03*
X241732Y494488D02*
D03*
X341732D02*
D03*
Y394488D02*
D03*
Y294488D02*
D03*
X241732Y394488D02*
D03*
Y194488D02*
D03*
Y294488D02*
D03*
X341732Y194488D02*
D03*
X241732Y94488D02*
D03*
X341732D02*
D03*
X241732Y-5512D02*
D03*
X341732D02*
D03*
X241732Y-105512D02*
D03*
X341732D02*
D03*
X241732Y-205512D02*
D03*
X341732D02*
D03*
Y-305512D02*
D03*
X-1458268Y694488D02*
D03*
X-1358268Y-105512D02*
D03*
X-1458268D02*
D03*
X-1358268Y-5512D02*
D03*
X-1458268D02*
D03*
X-1358268Y94488D02*
D03*
X-1458268D02*
D03*
X-1358268Y194488D02*
D03*
X-1458268D02*
D03*
X-1358268Y294488D02*
D03*
X-1458268D02*
D03*
X-1358268Y394488D02*
D03*
X-1458268D02*
D03*
X-1358268Y494488D02*
D03*
X-1458268D02*
D03*
X-1358268Y594488D02*
D03*
X-1458268D02*
D03*
X-1358268Y694488D02*
D03*
Y794488D02*
D03*
X-1458268D02*
D03*
X-1358268Y894488D02*
D03*
X-1458268D02*
D03*
X-1358268Y994488D02*
D03*
X-1458268D02*
D03*
X-1358268Y1094488D02*
D03*
X-1458268D02*
D03*
X-1358268Y1194488D02*
D03*
X-1458268D02*
D03*
X-1358268Y1294488D02*
D03*
X-1458268D02*
D03*
X-1358268Y1394488D02*
D03*
X-1458268D02*
D03*
Y1494488D02*
D03*
X-1358268Y1594488D02*
D03*
Y1494488D02*
D03*
D64*
X1362402Y1556890D02*
D03*
D65*
Y-243110D02*
D03*
D66*
X612402Y1106890D02*
D03*
Y1406890D02*
D03*
Y1306890D02*
D03*
Y1206890D02*
D03*
Y1006890D02*
D03*
Y906890D02*
D03*
Y806890D02*
D03*
Y706890D02*
D03*
Y606890D02*
D03*
Y506890D02*
D03*
Y406890D02*
D03*
Y306890D02*
D03*
Y206890D02*
D03*
Y106890D02*
D03*
Y6890D02*
D03*
Y-93110D02*
D03*
X1412402D02*
D03*
Y6890D02*
D03*
Y106890D02*
D03*
Y206890D02*
D03*
Y306890D02*
D03*
Y406890D02*
D03*
Y506890D02*
D03*
Y606890D02*
D03*
Y706890D02*
D03*
Y806890D02*
D03*
Y906890D02*
D03*
Y1006890D02*
D03*
D67*
X875921Y374756D02*
D03*
X775921D02*
D03*
X875921Y474756D02*
D03*
X775921D02*
D03*
X875921Y574756D02*
D03*
X775921D02*
D03*
X875921Y674756D02*
D03*
X775921D02*
D03*
X875921Y774756D02*
D03*
X775921D02*
D03*
X875921Y874756D02*
D03*
X775921D02*
D03*
X875921Y974756D02*
D03*
X775921D02*
D03*
X875921Y1074756D02*
D03*
X775921D02*
D03*
X875921Y1174756D02*
D03*
X775921D02*
D03*
X875921Y1274756D02*
D03*
X876000Y-378000D02*
D03*
X776000Y-478000D02*
D03*
X876000D02*
D03*
X776000Y-578000D02*
D03*
X876000D02*
D03*
X776000Y-678000D02*
D03*
X876000D02*
D03*
X776000Y-778000D02*
D03*
X876000D02*
D03*
X776000Y-878000D02*
D03*
X876000D02*
D03*
X776000Y-978000D02*
D03*
X876000D02*
D03*
X776000Y-1078000D02*
D03*
X876000D02*
D03*
X776000Y-1178000D02*
D03*
X876000D02*
D03*
X776000Y-1278000D02*
D03*
X876000D02*
D03*
X-778606Y-1278000D02*
D03*
X-878606D02*
D03*
X-778606Y-1178000D02*
D03*
X-878606D02*
D03*
X-778606Y-1078000D02*
D03*
X-878606D02*
D03*
X-778606Y-978000D02*
D03*
X-878606D02*
D03*
X-778606Y-878000D02*
D03*
X-878606D02*
D03*
X-778606Y-778000D02*
D03*
X-878606D02*
D03*
X-778606Y-678000D02*
D03*
X-878606D02*
D03*
X-778606Y-578000D02*
D03*
X-878606D02*
D03*
X-778606Y-478000D02*
D03*
X-878606D02*
D03*
X-778606Y-378000D02*
D03*
Y1274756D02*
D03*
X-878606Y1174756D02*
D03*
X-778606D02*
D03*
X-878606Y1074756D02*
D03*
X-778606D02*
D03*
X-878606Y974756D02*
D03*
X-778606D02*
D03*
X-878606Y874756D02*
D03*
X-778606D02*
D03*
X-878606Y774756D02*
D03*
X-778606D02*
D03*
X-878606Y674756D02*
D03*
X-778606D02*
D03*
X-878606Y574756D02*
D03*
X-778606D02*
D03*
X-878606Y474756D02*
D03*
X-778606D02*
D03*
X-878606Y374756D02*
D03*
X-778606D02*
D03*
D68*
X775921Y1274756D02*
D03*
X776000Y-378000D02*
D03*
X-878606Y-378000D02*
D03*
Y1274756D02*
D03*
D69*
X241732Y1594488D02*
D03*
X-1458268D02*
D03*
D70*
X1379528Y-551181D02*
D03*
X1279528D02*
D03*
D71*
X1179528D02*
D03*
D74*
X-61024Y871063D02*
D03*
X-494094Y871063D02*
D03*
D75*
X127953Y1032480D02*
D03*
X-305118Y1032480D02*
D03*
D76*
X127953Y1398622D02*
D03*
X-190945Y1323819D02*
D03*
X-624016Y1323819D02*
D03*
X-305118Y1398622D02*
D03*
D77*
X-190945Y1430118D02*
D03*
X-624016Y1430118D02*
D03*
M02*
