G04*
G04 #@! TF.GenerationSoftware,Altium Limited,Altium Designer,23.3.1 (30)*
G04*
G04 Layer_Physical_Order=1*
G04 Layer_Color=255*
%FSLAX26Y26*%
%MOIN*%
G70*
G04*
G04 #@! TF.SameCoordinates,AF54F826-5E14-49BB-B143-2C6BD7E0847E*
G04*
G04*
G04 #@! TF.FilePolarity,Positive*
G04*
G01*
G75*
%ADD13C,0.078740*%
G04:AMPARAMS|DCode=20|XSize=40mil|YSize=55mil|CornerRadius=5mil|HoleSize=0mil|Usage=FLASHONLY|Rotation=90.000|XOffset=0mil|YOffset=0mil|HoleType=Round|Shape=RoundedRectangle|*
%AMROUNDEDRECTD20*
21,1,0.040000,0.045000,0,0,90.0*
21,1,0.030000,0.055000,0,0,90.0*
1,1,0.010000,0.022500,0.015000*
1,1,0.010000,0.022500,-0.015000*
1,1,0.010000,-0.022500,-0.015000*
1,1,0.010000,-0.022500,0.015000*
%
%ADD20ROUNDEDRECTD20*%
%ADD21R,0.087800X0.093310*%
G04:AMPARAMS|DCode=22|XSize=35mil|YSize=50mil|CornerRadius=4.375mil|HoleSize=0mil|Usage=FLASHONLY|Rotation=270.000|XOffset=0mil|YOffset=0mil|HoleType=Round|Shape=RoundedRectangle|*
%AMROUNDEDRECTD22*
21,1,0.035000,0.041250,0,0,270.0*
21,1,0.026250,0.050000,0,0,270.0*
1,1,0.008750,-0.020625,-0.013125*
1,1,0.008750,-0.020625,0.013125*
1,1,0.008750,0.020625,0.013125*
1,1,0.008750,0.020625,-0.013125*
%
%ADD22ROUNDEDRECTD22*%
%ADD23C,0.039370*%
%ADD43C,0.094488*%
%ADD44C,0.062992*%
%ADD45R,0.062992X0.062992*%
%ADD50C,0.011811*%
G04:AMPARAMS|DCode=51|XSize=50mil|YSize=50mil|CornerRadius=25mil|HoleSize=0mil|Usage=FLASHONLY|Rotation=90.000|XOffset=0mil|YOffset=0mil|HoleType=Round|Shape=RoundedRectangle|*
%AMROUNDEDRECTD51*
21,1,0.050000,0.000000,0,0,90.0*
21,1,0.000000,0.050000,0,0,90.0*
1,1,0.050000,0.000000,0.000000*
1,1,0.050000,0.000000,0.000000*
1,1,0.050000,0.000000,0.000000*
1,1,0.050000,0.000000,0.000000*
%
%ADD51ROUNDEDRECTD51*%
%ADD52R,0.025000X0.050000*%
G04:AMPARAMS|DCode=53|XSize=50mil|YSize=50mil|CornerRadius=25mil|HoleSize=0mil|Usage=FLASHONLY|Rotation=180.000|XOffset=0mil|YOffset=0mil|HoleType=Round|Shape=RoundedRectangle|*
%AMROUNDEDRECTD53*
21,1,0.050000,0.000000,0,0,180.0*
21,1,0.000000,0.050000,0,0,180.0*
1,1,0.050000,0.000000,0.000000*
1,1,0.050000,0.000000,0.000000*
1,1,0.050000,0.000000,0.000000*
1,1,0.050000,0.000000,0.000000*
%
%ADD53ROUNDEDRECTD53*%
%ADD54C,0.019685*%
%ADD55C,0.031496*%
%ADD56R,0.016000X0.010000*%
%ADD57R,0.062992X0.062992*%
%ADD58C,0.074000*%
%ADD59C,0.074803*%
%ADD60R,0.080000X0.080000*%
%ADD61C,0.080000*%
%ADD62C,0.130000*%
%ADD63C,0.059055*%
%ADD64C,0.149606*%
%ADD65C,0.100000*%
%ADD66C,0.070000*%
%ADD67C,0.055118*%
%ADD68R,0.055118X0.055118*%
%ADD69R,0.059055X0.059055*%
%ADD70C,0.062992*%
%ADD71R,0.062992X0.062992*%
G36*
X-1448425Y1554961D02*
X-1418740D01*
Y1587598D01*
X-1395142D01*
X-1393120Y1580052D01*
X-1388196Y1571523D01*
X-1381233Y1564560D01*
X-1372704Y1559636D01*
X-1363192Y1557087D01*
X-1353344D01*
X-1343831Y1559636D01*
X-1335303Y1564560D01*
X-1328339Y1571523D01*
X-1325146Y1577054D01*
X-1245521D01*
X-1245257Y1575725D01*
X-1242411Y1571466D01*
X-1238153Y1568621D01*
X-1233130Y1567622D01*
X-1188130D01*
X-1183107Y1568621D01*
X-1178848Y1571466D01*
X-1176003Y1575725D01*
X-1175004Y1580748D01*
Y1587598D01*
X-142424D01*
X-140870Y1581799D01*
X-136542Y1574303D01*
X-130421Y1568182D01*
X-122925Y1563854D01*
X-114564Y1561614D01*
X-105908D01*
X-97547Y1563854D01*
X-90051Y1568182D01*
X-83930Y1574303D01*
X-79603Y1581799D01*
X-78049Y1587598D01*
X204331D01*
Y1557087D01*
X277391D01*
X279694Y1552319D01*
X256516Y1529140D01*
X256169Y1529341D01*
X246656Y1531890D01*
X236808D01*
X227296Y1529341D01*
X218767Y1524417D01*
X211804Y1517453D01*
X206880Y1508925D01*
X204331Y1499412D01*
Y1489564D01*
X206880Y1480052D01*
X211804Y1471523D01*
X218767Y1464560D01*
X227296Y1459636D01*
X236808Y1457087D01*
X246656D01*
X256169Y1459636D01*
X264697Y1464560D01*
X271661Y1471523D01*
X276585Y1480052D01*
X279134Y1489564D01*
Y1499412D01*
X276585Y1508925D01*
X276385Y1509272D01*
X298339Y1531226D01*
X320561D01*
X321901Y1526226D01*
X318767Y1524417D01*
X311804Y1517453D01*
X306880Y1508925D01*
X304331Y1499412D01*
Y1489564D01*
X306880Y1480052D01*
X311804Y1471523D01*
X318214Y1465112D01*
X317432Y1460112D01*
X293307D01*
X287931Y1459043D01*
X283373Y1455998D01*
X279913Y1452538D01*
X256516Y1429140D01*
X256169Y1429341D01*
X246656Y1431890D01*
X236808D01*
X227296Y1429341D01*
X218767Y1424417D01*
X211804Y1417453D01*
X206880Y1408925D01*
X204331Y1399412D01*
Y1389564D01*
X206880Y1380052D01*
X211804Y1371523D01*
X218767Y1364560D01*
X227296Y1359636D01*
X236808Y1357087D01*
X246656D01*
X256169Y1359636D01*
X264697Y1364560D01*
X271661Y1371523D01*
X276585Y1380052D01*
X279134Y1389564D01*
Y1399412D01*
X276585Y1408925D01*
X276385Y1409272D01*
X299127Y1432014D01*
X321925D01*
X323265Y1427014D01*
X318767Y1424417D01*
X311804Y1417453D01*
X306880Y1408925D01*
X304331Y1399412D01*
Y1389564D01*
X306880Y1380052D01*
X311804Y1371523D01*
X318767Y1364560D01*
X323265Y1361963D01*
X321925Y1356963D01*
X290158D01*
X284781Y1355893D01*
X280223Y1352848D01*
X256516Y1329140D01*
X256169Y1329341D01*
X246656Y1331890D01*
X236808D01*
X227296Y1329341D01*
X218767Y1324417D01*
X211804Y1317453D01*
X206880Y1308925D01*
X204331Y1299412D01*
Y1289564D01*
X206880Y1280052D01*
X211804Y1271523D01*
X218767Y1264560D01*
X227296Y1259636D01*
X236808Y1257087D01*
X246656D01*
X256169Y1259636D01*
X264697Y1264560D01*
X271661Y1271523D01*
X276585Y1280052D01*
X279134Y1289564D01*
Y1299412D01*
X276585Y1308925D01*
X276385Y1309272D01*
X295977Y1328864D01*
X317432D01*
X318214Y1323864D01*
X311804Y1317453D01*
X306880Y1308925D01*
X304331Y1299412D01*
Y1289564D01*
X306880Y1280052D01*
X311804Y1271523D01*
X318767Y1264560D01*
X320662Y1263466D01*
X319322Y1258466D01*
X291660D01*
X286284Y1257396D01*
X281726Y1254351D01*
X256516Y1229140D01*
X256169Y1229341D01*
X246656Y1231890D01*
X236808D01*
X227296Y1229341D01*
X218767Y1224417D01*
X211804Y1217453D01*
X206880Y1208925D01*
X204331Y1199412D01*
Y1189564D01*
X206880Y1180052D01*
X211804Y1171523D01*
X218767Y1164560D01*
X227296Y1159636D01*
X236808Y1157087D01*
X246656D01*
X256169Y1159636D01*
X264697Y1164560D01*
X271661Y1171523D01*
X276585Y1180052D01*
X279134Y1189564D01*
Y1199412D01*
X276585Y1208925D01*
X276385Y1209272D01*
X297480Y1230367D01*
X319072D01*
X320412Y1225367D01*
X318767Y1224417D01*
X311804Y1217453D01*
X306880Y1208925D01*
X304331Y1199412D01*
Y1189564D01*
X306880Y1180052D01*
X311804Y1171523D01*
X318214Y1165112D01*
X317432Y1160112D01*
X293307D01*
X287931Y1159043D01*
X283373Y1155997D01*
X256516Y1129140D01*
X256169Y1129341D01*
X246656Y1131890D01*
X236808D01*
X227296Y1129341D01*
X218767Y1124417D01*
X211804Y1117453D01*
X206880Y1108925D01*
X204331Y1099412D01*
Y1089564D01*
X206880Y1080052D01*
X211804Y1071523D01*
X218767Y1064560D01*
X227296Y1059636D01*
X236808Y1057087D01*
X246656D01*
X256169Y1059636D01*
X264697Y1064560D01*
X271661Y1071523D01*
X276585Y1080052D01*
X279134Y1089564D01*
Y1099412D01*
X276585Y1108925D01*
X276385Y1109272D01*
X299127Y1132014D01*
X321925D01*
X323265Y1127014D01*
X318767Y1124417D01*
X311804Y1117453D01*
X306880Y1108925D01*
X304331Y1099412D01*
Y1089564D01*
X306880Y1080052D01*
X311804Y1071523D01*
X318767Y1064560D01*
X327296Y1059636D01*
X336808Y1057087D01*
X346656D01*
X356169Y1059636D01*
X364697Y1064560D01*
X371661Y1071523D01*
X376585Y1080052D01*
X379134Y1089564D01*
Y1099412D01*
X376585Y1108925D01*
X371661Y1117453D01*
X364697Y1124417D01*
X360200Y1127014D01*
X361539Y1132014D01*
X361791D01*
X367167Y1133083D01*
X371725Y1136129D01*
X426320Y1190724D01*
X429366Y1195282D01*
X430435Y1200658D01*
Y1278444D01*
X435435Y1279784D01*
X436375Y1278155D01*
X444730Y1269801D01*
X454963Y1263893D01*
X466376Y1260835D01*
X478191D01*
X489604Y1263893D01*
X499837Y1269801D01*
X508192Y1278155D01*
X514099Y1288388D01*
X515134Y1292250D01*
X571938D01*
X572449Y1290341D01*
X578094Y1280564D01*
X586076Y1272582D01*
X595853Y1266938D01*
X606757Y1264016D01*
X618046D01*
X628950Y1266938D01*
X638727Y1272582D01*
X646709Y1280564D01*
X652354Y1290341D01*
X655276Y1301245D01*
Y1312534D01*
X652354Y1323439D01*
X646709Y1333215D01*
X638727Y1341198D01*
X628950Y1346842D01*
X618046Y1349764D01*
X606757D01*
X595853Y1346842D01*
X586076Y1341198D01*
X578094Y1333215D01*
X572449Y1323439D01*
X571621Y1320349D01*
X514818D01*
X514099Y1323029D01*
X508192Y1333262D01*
X499837Y1341617D01*
X489604Y1347525D01*
X478191Y1350583D01*
X466376D01*
X454963Y1347525D01*
X444730Y1341617D01*
X442278Y1339164D01*
X437278Y1341236D01*
Y1383913D01*
X442278Y1385253D01*
X446375Y1378155D01*
X454730Y1369801D01*
X464963Y1363893D01*
X476376Y1360835D01*
X488191D01*
X499604Y1363893D01*
X509837Y1369801D01*
X518192Y1378155D01*
X524099Y1388388D01*
X525134Y1392250D01*
X571938D01*
X572449Y1390341D01*
X578094Y1380564D01*
X586076Y1372582D01*
X595853Y1366938D01*
X606757Y1364016D01*
X618046D01*
X628950Y1366938D01*
X638727Y1372582D01*
X646709Y1380564D01*
X652354Y1390341D01*
X655276Y1401245D01*
Y1412534D01*
X654908Y1413907D01*
X659238Y1416407D01*
X669415Y1406230D01*
Y967213D01*
X670485Y961836D01*
X673530Y957278D01*
X742792Y888017D01*
X740488Y879421D01*
Y870091D01*
X742903Y861080D01*
X747568Y853000D01*
X754165Y846403D01*
X762245Y841738D01*
X771256Y839323D01*
X780586D01*
X789598Y841738D01*
X797678Y846403D01*
X804275Y853000D01*
X808940Y861080D01*
X811354Y870091D01*
Y879421D01*
X808940Y888433D01*
X804275Y896512D01*
X797678Y903110D01*
X789598Y907774D01*
X780586Y910189D01*
X771256D01*
X762661Y907886D01*
X697514Y973032D01*
Y1026761D01*
X702134Y1028675D01*
X742792Y988017D01*
X740488Y979421D01*
Y970091D01*
X742903Y961080D01*
X747568Y953000D01*
X754165Y946403D01*
X762245Y941738D01*
X771256Y939323D01*
X780586D01*
X789598Y941738D01*
X797678Y946403D01*
X804275Y953000D01*
X808940Y961080D01*
X811354Y970091D01*
Y979421D01*
X808940Y988433D01*
X804275Y996512D01*
X797678Y1003110D01*
X789598Y1007774D01*
X780586Y1010189D01*
X771256D01*
X762661Y1007886D01*
X717790Y1052757D01*
Y1106486D01*
X722409Y1108399D01*
X742792Y1088017D01*
X740488Y1079421D01*
Y1070091D01*
X742903Y1061080D01*
X747568Y1053000D01*
X754165Y1046403D01*
X762245Y1041738D01*
X771256Y1039323D01*
X780586D01*
X789598Y1041738D01*
X797678Y1046403D01*
X804275Y1053000D01*
X808940Y1061080D01*
X811354Y1070091D01*
Y1079421D01*
X808940Y1088433D01*
X804275Y1096512D01*
X797678Y1103110D01*
X789598Y1107774D01*
X780586Y1110189D01*
X771256D01*
X762661Y1107886D01*
X740428Y1130119D01*
Y1155367D01*
X745428Y1156707D01*
X747568Y1153000D01*
X754165Y1146403D01*
X762245Y1141738D01*
X771256Y1139323D01*
X780586D01*
X789598Y1141738D01*
X797678Y1146403D01*
X804275Y1153000D01*
X808940Y1161080D01*
X811354Y1170091D01*
Y1179421D01*
X809051Y1188017D01*
X836706Y1215672D01*
X839752Y1220230D01*
X840821Y1225607D01*
Y1254685D01*
X845821Y1256025D01*
X847568Y1253000D01*
X854165Y1246403D01*
X862245Y1241738D01*
X871256Y1239323D01*
X880586D01*
X889598Y1241738D01*
X897678Y1246403D01*
X904275Y1253000D01*
X908940Y1261080D01*
X911354Y1270091D01*
Y1279421D01*
X908940Y1288433D01*
X904275Y1296512D01*
X897678Y1303110D01*
X889598Y1307774D01*
X880586Y1310189D01*
X871256D01*
X862245Y1307774D01*
X854165Y1303110D01*
X847568Y1296512D01*
X845821Y1293487D01*
X840821Y1294827D01*
Y1444882D01*
X839752Y1450258D01*
X836706Y1454816D01*
X724502Y1567021D01*
X719944Y1570067D01*
X714567Y1571136D01*
X489468D01*
X487307Y1570706D01*
X485119Y1570446D01*
X484635Y1570175D01*
X484091Y1570067D01*
X482260Y1568843D01*
X480338Y1567765D01*
X382955Y1484505D01*
X378526Y1487298D01*
X379134Y1489564D01*
Y1499412D01*
X376585Y1508925D01*
X371661Y1517453D01*
X364697Y1524417D01*
X361564Y1526226D01*
X362903Y1531226D01*
X391732D01*
X397109Y1532296D01*
X401667Y1535341D01*
X453924Y1587598D01*
X769501D01*
X998746Y1358354D01*
Y936922D01*
X899692Y837868D01*
X892896D01*
X891556Y842868D01*
X897678Y846403D01*
X904275Y853000D01*
X908940Y861080D01*
X911354Y870091D01*
Y879421D01*
X908940Y888433D01*
X904275Y896512D01*
X897678Y903110D01*
X889598Y907774D01*
X880586Y910189D01*
X871256D01*
X862245Y907774D01*
X854165Y903110D01*
X847568Y896512D01*
X842903Y888433D01*
X840488Y879421D01*
Y870091D01*
X842903Y861080D01*
X847568Y853000D01*
X854165Y846403D01*
X860190Y842924D01*
X859332Y838335D01*
X859025Y837823D01*
X856778Y837376D01*
X824492D01*
X819115Y836307D01*
X814557Y833261D01*
X789182Y807886D01*
X780586Y810189D01*
X771256D01*
X762245Y807774D01*
X754165Y803110D01*
X747568Y796512D01*
X742903Y788433D01*
X740488Y779421D01*
Y770091D01*
X742903Y761080D01*
X747568Y753000D01*
X754165Y746403D01*
X759264Y743459D01*
X757924Y738459D01*
X748930D01*
X704279Y783110D01*
Y829062D01*
X703209Y834439D01*
X700164Y838997D01*
X651060Y888100D01*
X652354Y890341D01*
X655276Y901245D01*
Y912534D01*
X652354Y923439D01*
X646709Y933215D01*
X638727Y941198D01*
X628950Y946842D01*
X618046Y949764D01*
X606757D01*
X595853Y946842D01*
X586076Y941198D01*
X578094Y933215D01*
X572449Y923439D01*
X571621Y920349D01*
X514818D01*
X514099Y923029D01*
X508192Y933262D01*
X499837Y941617D01*
X489604Y947525D01*
X478191Y950583D01*
X466376D01*
X454963Y947525D01*
X444730Y941617D01*
X436375Y933262D01*
X430468Y923029D01*
X427409Y911616D01*
Y899801D01*
X430468Y888388D01*
X436375Y878155D01*
X444730Y869801D01*
X454963Y863893D01*
X466376Y860835D01*
X478191D01*
X489604Y863893D01*
X499837Y869801D01*
X508192Y878155D01*
X514099Y888388D01*
X515134Y892250D01*
X571938D01*
X572449Y890341D01*
X578094Y880564D01*
X586076Y872582D01*
X595853Y866938D01*
X606757Y864016D01*
X618046D01*
X628950Y866938D01*
X631191Y868231D01*
X676180Y823243D01*
Y777290D01*
X677249Y771914D01*
X680295Y767356D01*
X733176Y714475D01*
X737734Y711429D01*
X743110Y710360D01*
X756723D01*
X758063Y705360D01*
X754165Y703110D01*
X747568Y696512D01*
X742903Y688433D01*
X740488Y679421D01*
Y670091D01*
X742792Y661495D01*
X680026Y598730D01*
X676981Y594172D01*
X675911Y588795D01*
Y-104417D01*
X638865Y-141462D01*
X561922D01*
X426451Y-5992D01*
Y23819D01*
X425382Y29195D01*
X422336Y33753D01*
X376385Y79705D01*
X376585Y80052D01*
X379134Y89564D01*
Y99412D01*
X376585Y108925D01*
X371661Y117453D01*
X364697Y124417D01*
X356169Y129341D01*
X346656Y131890D01*
X336808D01*
X327296Y129341D01*
X318767Y124417D01*
X311804Y117453D01*
X306880Y108925D01*
X304331Y99412D01*
Y89564D01*
X306880Y80052D01*
X311804Y71523D01*
X318767Y64560D01*
X327296Y59636D01*
X336808Y57087D01*
X346656D01*
X356169Y59636D01*
X356516Y59836D01*
X398352Y17999D01*
Y-11811D01*
X399422Y-17188D01*
X402467Y-21745D01*
X546168Y-165446D01*
X550726Y-168492D01*
X556102Y-169561D01*
X644685D01*
X650062Y-168492D01*
X654620Y-165446D01*
X699895Y-120171D01*
X702941Y-115613D01*
X704010Y-110236D01*
Y582976D01*
X762661Y641626D01*
X771256Y639323D01*
X780586D01*
X789598Y641738D01*
X797678Y646403D01*
X804275Y653000D01*
X808940Y661080D01*
X811354Y670091D01*
Y679421D01*
X808940Y688433D01*
X804275Y696512D01*
X797678Y703110D01*
X793780Y705360D01*
X795120Y710360D01*
X856723D01*
X858063Y705360D01*
X854165Y703110D01*
X847568Y696512D01*
X842903Y688433D01*
X840488Y679421D01*
Y670091D01*
X842903Y661080D01*
X847568Y653000D01*
X854165Y646403D01*
X862245Y641738D01*
X871256Y639323D01*
X880586D01*
X889598Y641738D01*
X897678Y646403D01*
X904275Y653000D01*
X908940Y661080D01*
X911354Y670091D01*
Y679421D01*
X908940Y688433D01*
X904275Y696512D01*
X897678Y703110D01*
X893780Y705360D01*
X895120Y710360D01*
X921346D01*
X982014Y649692D01*
Y25793D01*
X983083Y20416D01*
X986129Y15858D01*
X1483378Y-481391D01*
X1487936Y-484437D01*
X1493312Y-485506D01*
X1558071D01*
Y-524995D01*
X1513187D01*
Y-561460D01*
X1482728D01*
X1459677Y-538408D01*
X1453816Y-534492D01*
X1446904Y-533117D01*
X1414559D01*
X1411031Y-527007D01*
X1403701Y-519677D01*
X1394724Y-514494D01*
X1384711Y-511811D01*
X1374344D01*
X1364331Y-514494D01*
X1355354Y-519677D01*
X1348024Y-527007D01*
X1342841Y-535985D01*
X1340158Y-545998D01*
Y-556364D01*
X1342841Y-566377D01*
X1348024Y-575355D01*
X1355354Y-582685D01*
X1364331Y-587868D01*
X1374344Y-590551D01*
X1384711D01*
X1394724Y-587868D01*
X1403701Y-582685D01*
X1411031Y-575355D01*
X1414559Y-569245D01*
X1439421D01*
X1462473Y-592296D01*
X1468333Y-596212D01*
X1475246Y-597587D01*
X1513187D01*
Y-634053D01*
X1548472D01*
Y-696960D01*
X1538982Y-702438D01*
X1530627Y-710793D01*
X1524719Y-721026D01*
X1521661Y-732439D01*
Y-744254D01*
X1524719Y-755667D01*
X1530627Y-765900D01*
X1538982Y-774255D01*
X1549215Y-780162D01*
X1556564Y-782132D01*
X1555906Y-787132D01*
X1377165D01*
X1376507Y-782132D01*
X1383856Y-780162D01*
X1394089Y-774255D01*
X1402444Y-765900D01*
X1408351Y-755667D01*
X1411409Y-744254D01*
Y-732439D01*
X1408351Y-721026D01*
X1402444Y-710793D01*
X1394089Y-702438D01*
X1383856Y-696531D01*
X1372443Y-693472D01*
X1360628D01*
X1349215Y-696531D01*
X1338982Y-702438D01*
X1330627Y-710793D01*
X1328625Y-714262D01*
X1048071D01*
X1038854Y-716095D01*
X1031040Y-721316D01*
X951473Y-800883D01*
X946252Y-808697D01*
X944419Y-817913D01*
Y-1173228D01*
X946252Y-1182445D01*
X951473Y-1190259D01*
X1081395Y-1320180D01*
X1089208Y-1325401D01*
X1098425Y-1327234D01*
X1458528D01*
X1542884Y-1411590D01*
Y-1477112D01*
X1538264Y-1479025D01*
X1424305Y-1365065D01*
X1419747Y-1362020D01*
X1414370Y-1360950D01*
X-298150D01*
X-303526Y-1362020D01*
X-308084Y-1365065D01*
X-418723Y-1475704D01*
X-421656Y-1474011D01*
X-433068Y-1470953D01*
X-444884D01*
X-456297Y-1474011D01*
X-466530Y-1479919D01*
X-474884Y-1488273D01*
X-480792Y-1498506D01*
X-483850Y-1509919D01*
Y-1521735D01*
X-480792Y-1533147D01*
X-474884Y-1543380D01*
X-466530Y-1551735D01*
X-456297Y-1557643D01*
X-444884Y-1560701D01*
X-433068D01*
X-421656Y-1557643D01*
X-411423Y-1551735D01*
X-403068Y-1543380D01*
X-397160Y-1533147D01*
X-394102Y-1521735D01*
Y-1509919D01*
X-397160Y-1498506D01*
X-398854Y-1495573D01*
X-292330Y-1389050D01*
X1408551D01*
X1542884Y-1523382D01*
Y-1533581D01*
X1539415Y-1535583D01*
X1531060Y-1543938D01*
X1525153Y-1554171D01*
X1522094Y-1565583D01*
Y-1577399D01*
X1523101Y-1581154D01*
X1520062Y-1585114D01*
X1516076Y-1585114D01*
X1513037Y-1581154D01*
X1513968Y-1577679D01*
Y-1565304D01*
X1510766Y-1553350D01*
X1504578Y-1542633D01*
X1495827Y-1533882D01*
X1485110Y-1527694D01*
X1476811Y-1525471D01*
Y-1571491D01*
X1457126D01*
Y-1525471D01*
X1448827Y-1527694D01*
X1438110Y-1533882D01*
X1429359Y-1542633D01*
X1423171Y-1553350D01*
X1419968Y-1565304D01*
Y-1577679D01*
X1420900Y-1581154D01*
X1417861Y-1585114D01*
X1413875Y-1585114D01*
X1410836Y-1581154D01*
X1411842Y-1577399D01*
Y-1565583D01*
X1408784Y-1554171D01*
X1402877Y-1543938D01*
X1394522Y-1535583D01*
X1384289Y-1529675D01*
X1381018Y-1528799D01*
Y-1515818D01*
X1385449Y-1512858D01*
X1386334Y-1511972D01*
X1389380Y-1507414D01*
X1390449Y-1502038D01*
Y-1486093D01*
X1389380Y-1480716D01*
X1386334Y-1476158D01*
X1385449Y-1475272D01*
X1382913Y-1473578D01*
X1382448Y-1468647D01*
X1385961Y-1464961D01*
X1392123D01*
X1400484Y-1462720D01*
X1407980Y-1458392D01*
X1414101Y-1452272D01*
X1418429Y-1444775D01*
X1420669Y-1436415D01*
Y-1427759D01*
X1418429Y-1419398D01*
X1414101Y-1411901D01*
X1407980Y-1405781D01*
X1400484Y-1401453D01*
X1392123Y-1399213D01*
X1383467D01*
X1375106Y-1401453D01*
X1367610Y-1405781D01*
X1361489Y-1411901D01*
X1357162Y-1419398D01*
X1354921Y-1427759D01*
Y-1436415D01*
X1357162Y-1444775D01*
X1360240Y-1450107D01*
X1357034Y-1453313D01*
X1353988Y-1457871D01*
X1352919Y-1463247D01*
Y-1478288D01*
X1353988Y-1483665D01*
X1357034Y-1488223D01*
X1362350Y-1493539D01*
Y-1494591D01*
X1357034Y-1499908D01*
X1353988Y-1504466D01*
X1352919Y-1509842D01*
Y-1528799D01*
X1349648Y-1529675D01*
X1339415Y-1535583D01*
X1331060Y-1543938D01*
X1325153Y-1554171D01*
X1322094Y-1565583D01*
Y-1577399D01*
X1323237Y-1581663D01*
X1320193Y-1585630D01*
X1313744D01*
X1310700Y-1581663D01*
X1311842Y-1577399D01*
Y-1565583D01*
X1308784Y-1554171D01*
X1302877Y-1543938D01*
X1294522Y-1535583D01*
X1284289Y-1529675D01*
X1281018Y-1528799D01*
Y-1471693D01*
X1279948Y-1466316D01*
X1276903Y-1461758D01*
X1258402Y-1443258D01*
X1260236Y-1436415D01*
Y-1427759D01*
X1257996Y-1419398D01*
X1253668Y-1411901D01*
X1247547Y-1405781D01*
X1240051Y-1401453D01*
X1231690Y-1399213D01*
X1223034D01*
X1214673Y-1401453D01*
X1207177Y-1405781D01*
X1201056Y-1411901D01*
X1196728Y-1419398D01*
X1194488Y-1427759D01*
Y-1436415D01*
X1196728Y-1444775D01*
X1201056Y-1452272D01*
X1207177Y-1458392D01*
X1214673Y-1462720D01*
X1223034Y-1464961D01*
X1231690D01*
X1238534Y-1463127D01*
X1252919Y-1477512D01*
Y-1528799D01*
X1249648Y-1529675D01*
X1239415Y-1535583D01*
X1231060Y-1543938D01*
X1225153Y-1554171D01*
X1222094Y-1565583D01*
Y-1577399D01*
X1223237Y-1581663D01*
X1220193Y-1585630D01*
X1213744D01*
X1210700Y-1581663D01*
X1211842Y-1577399D01*
Y-1565583D01*
X1208784Y-1554171D01*
X1202877Y-1543938D01*
X1194522Y-1535583D01*
X1184289Y-1529675D01*
X1172876Y-1526617D01*
X1161061D01*
X1149648Y-1529675D01*
X1146715Y-1531369D01*
X1028640Y-1413294D01*
X1024082Y-1410248D01*
X1018706Y-1409179D01*
X-236378D01*
X-241754Y-1410248D01*
X-246312Y-1413294D01*
X-318723Y-1485704D01*
X-321656Y-1484011D01*
X-333068Y-1480953D01*
X-344884D01*
X-356297Y-1484011D01*
X-366530Y-1489919D01*
X-374884Y-1498273D01*
X-380792Y-1508506D01*
X-383850Y-1519919D01*
Y-1531735D01*
X-380792Y-1543147D01*
X-374884Y-1553380D01*
X-366530Y-1561735D01*
X-356297Y-1567643D01*
X-344884Y-1570701D01*
X-333068D01*
X-321656Y-1567643D01*
X-311423Y-1561735D01*
X-303068Y-1553380D01*
X-297160Y-1543147D01*
X-294102Y-1531735D01*
Y-1519919D01*
X-297160Y-1508506D01*
X-298854Y-1505573D01*
X-279434Y-1486153D01*
X-275433Y-1489223D01*
X-280792Y-1498506D01*
X-283850Y-1509919D01*
Y-1521735D01*
X-280792Y-1533147D01*
X-274884Y-1543380D01*
X-266530Y-1551735D01*
X-256297Y-1557643D01*
X-244884Y-1560701D01*
X-233069D01*
X-221656Y-1557643D01*
X-211423Y-1551735D01*
X-203068Y-1543380D01*
X-197160Y-1533147D01*
X-194102Y-1521735D01*
Y-1509919D01*
X-197160Y-1498506D01*
X-198854Y-1495573D01*
X-179929Y-1476648D01*
X-148137D01*
X-147479Y-1481648D01*
X-156297Y-1484011D01*
X-166530Y-1489919D01*
X-174884Y-1498273D01*
X-180792Y-1508506D01*
X-183850Y-1519919D01*
Y-1531735D01*
X-180792Y-1543147D01*
X-174884Y-1553380D01*
X-166530Y-1561735D01*
X-156297Y-1567643D01*
X-144884Y-1570701D01*
X-133069D01*
X-121656Y-1567643D01*
X-111423Y-1561735D01*
X-103068Y-1553380D01*
X-97160Y-1543147D01*
X-94102Y-1531735D01*
Y-1523892D01*
X899500D01*
X926846Y-1551238D01*
X925153Y-1554171D01*
X922095Y-1565583D01*
Y-1577399D01*
X923237Y-1581663D01*
X920193Y-1585630D01*
X-534819D01*
X-534912Y-1585470D01*
X-537139Y-1580630D01*
X-534260Y-1569884D01*
Y-1558069D01*
X-537318Y-1546656D01*
X-543226Y-1536423D01*
X-551581Y-1528068D01*
X-561813Y-1522160D01*
X-573226Y-1519102D01*
X-585042D01*
X-596455Y-1522160D01*
X-606687Y-1528068D01*
X-615042Y-1536423D01*
X-620950Y-1546656D01*
X-624008Y-1558069D01*
Y-1569884D01*
X-621129Y-1580630D01*
X-623356Y-1585470D01*
X-623448Y-1585630D01*
X-634819D01*
X-634912Y-1585470D01*
X-637139Y-1580630D01*
X-634260Y-1569884D01*
Y-1558069D01*
X-637318Y-1546656D01*
X-643226Y-1536423D01*
X-651581Y-1528068D01*
X-661813Y-1522160D01*
X-673226Y-1519102D01*
X-685042D01*
X-696455Y-1522160D01*
X-706687Y-1528068D01*
X-715042Y-1536423D01*
X-720950Y-1546656D01*
X-724008Y-1558069D01*
Y-1569884D01*
X-721129Y-1580630D01*
X-723356Y-1585470D01*
X-723448Y-1585630D01*
X-734819D01*
X-734912Y-1585470D01*
X-737139Y-1580630D01*
X-734260Y-1569884D01*
Y-1558069D01*
X-737318Y-1546656D01*
X-743226Y-1536423D01*
X-751581Y-1528068D01*
X-761813Y-1522160D01*
X-773226Y-1519102D01*
X-785042D01*
X-796455Y-1522160D01*
X-806687Y-1528068D01*
X-815042Y-1536423D01*
X-820950Y-1546656D01*
X-824008Y-1558069D01*
Y-1569884D01*
X-821129Y-1580630D01*
X-823356Y-1585470D01*
X-823448Y-1585630D01*
X-834819D01*
X-834912Y-1585470D01*
X-837139Y-1580630D01*
X-834260Y-1569884D01*
Y-1558069D01*
X-837318Y-1546656D01*
X-843226Y-1536423D01*
X-851581Y-1528068D01*
X-861813Y-1522160D01*
X-873226Y-1519102D01*
X-885042D01*
X-896455Y-1522160D01*
X-906687Y-1528068D01*
X-915042Y-1536423D01*
X-920950Y-1546656D01*
X-924008Y-1558069D01*
Y-1569884D01*
X-921129Y-1580630D01*
X-923356Y-1585470D01*
X-923448Y-1585630D01*
X-934819D01*
X-934912Y-1585470D01*
X-937139Y-1580630D01*
X-934260Y-1569884D01*
Y-1558069D01*
X-937318Y-1546656D01*
X-943226Y-1536423D01*
X-951581Y-1528068D01*
X-961813Y-1522160D01*
X-973226Y-1519102D01*
X-985042D01*
X-996455Y-1522160D01*
X-1006687Y-1528068D01*
X-1015042Y-1536423D01*
X-1020950Y-1546656D01*
X-1024008Y-1558069D01*
Y-1569884D01*
X-1021129Y-1580630D01*
X-1023356Y-1585470D01*
X-1023448Y-1585630D01*
X-1034820D01*
X-1034912Y-1585470D01*
X-1037139Y-1580630D01*
X-1034260Y-1569884D01*
Y-1558069D01*
X-1037318Y-1546656D01*
X-1043226Y-1536423D01*
X-1051581Y-1528068D01*
X-1061813Y-1522160D01*
X-1073226Y-1519102D01*
X-1085042D01*
X-1096455Y-1522160D01*
X-1106687Y-1528068D01*
X-1115042Y-1536423D01*
X-1120950Y-1546656D01*
X-1124008Y-1558069D01*
Y-1569884D01*
X-1121129Y-1580630D01*
X-1123356Y-1585470D01*
X-1123448Y-1585630D01*
X-1132209D01*
X-1134938Y-1580630D01*
X-1133113Y-1573819D01*
X-1179134D01*
X-1225155D01*
X-1223330Y-1580630D01*
X-1226059Y-1585630D01*
X-1232209D01*
X-1234938Y-1580630D01*
X-1233113Y-1573819D01*
X-1279134D01*
X-1325155D01*
X-1323330Y-1580630D01*
X-1326059Y-1585630D01*
X-1556188D01*
X-1557132Y1584062D01*
X-1553597Y1587598D01*
X-1497795D01*
Y1554961D01*
X-1468110D01*
Y1594488D01*
X-1448425D01*
Y1554961D01*
D02*
G37*
G36*
X1558071Y1387591D02*
X1548226D01*
X1536813Y1384532D01*
X1526581Y1378625D01*
X1518226Y1370270D01*
X1512318Y1360037D01*
X1511253Y1356064D01*
X1487606D01*
X1480694Y1354689D01*
X1474833Y1350773D01*
X1188014Y1063954D01*
X1184099Y1058094D01*
X1182724Y1051181D01*
Y846457D01*
X1184099Y839544D01*
X1188014Y833684D01*
X1327581Y694117D01*
X1333442Y690201D01*
X1340354Y688826D01*
X1373324D01*
X1378094Y680564D01*
X1386076Y672582D01*
X1395853Y666938D01*
X1406757Y664016D01*
X1418046D01*
X1428950Y666938D01*
X1438727Y672582D01*
X1446709Y680564D01*
X1452354Y690341D01*
X1455276Y701245D01*
Y712534D01*
X1452354Y723439D01*
X1446709Y733215D01*
X1438727Y741198D01*
X1428950Y746842D01*
X1418046Y749764D01*
X1406757D01*
X1395853Y746842D01*
X1386076Y741198D01*
X1378094Y733215D01*
X1373324Y724953D01*
X1347836D01*
X1218851Y853939D01*
Y1043699D01*
X1495089Y1319937D01*
X1515470D01*
X1518226Y1315163D01*
X1526581Y1306808D01*
X1536813Y1300901D01*
X1548226Y1297842D01*
X1558071D01*
Y1289546D01*
X1554104Y1286502D01*
X1550042Y1287591D01*
X1538226D01*
X1526813Y1284532D01*
X1516581Y1278625D01*
X1508226Y1270270D01*
X1502318Y1260037D01*
X1499260Y1248624D01*
Y1236809D01*
X1502318Y1225396D01*
X1508226Y1215163D01*
X1516581Y1206808D01*
X1526813Y1200901D01*
X1538226Y1197842D01*
X1550042D01*
X1554104Y1198931D01*
X1558071Y1195887D01*
Y1187591D01*
X1548226D01*
X1536813Y1184532D01*
X1526581Y1178625D01*
X1518226Y1170270D01*
X1512318Y1160037D01*
X1509260Y1148624D01*
Y1136809D01*
X1512318Y1125396D01*
X1518226Y1115163D01*
X1526581Y1106808D01*
X1536813Y1100901D01*
X1548226Y1097842D01*
X1558071D01*
Y1089546D01*
X1554104Y1086502D01*
X1550042Y1087591D01*
X1538226D01*
X1526813Y1084532D01*
X1516581Y1078625D01*
X1508226Y1070270D01*
X1502318Y1060037D01*
X1499260Y1048624D01*
Y1038086D01*
X1486128Y1024953D01*
X1451479D01*
X1446709Y1033215D01*
X1438727Y1041198D01*
X1428950Y1046842D01*
X1418046Y1049764D01*
X1406757D01*
X1395853Y1046842D01*
X1386076Y1041198D01*
X1378094Y1033215D01*
X1372449Y1023439D01*
X1369528Y1012534D01*
Y1001245D01*
X1372449Y990341D01*
X1378094Y980564D01*
X1386076Y972582D01*
X1395853Y966938D01*
X1406757Y964016D01*
X1418046D01*
X1428950Y966938D01*
X1438727Y972582D01*
X1446709Y980564D01*
X1451479Y988826D01*
X1493610D01*
X1500522Y990201D01*
X1506383Y994117D01*
X1518161Y1005896D01*
X1526813Y1000901D01*
X1538226Y997842D01*
X1550042D01*
X1551708Y998289D01*
X1554297Y993806D01*
X1485444Y924953D01*
X1451479D01*
X1446709Y933215D01*
X1438727Y941198D01*
X1428950Y946842D01*
X1418046Y949764D01*
X1406757D01*
X1395853Y946842D01*
X1386076Y941198D01*
X1378094Y933215D01*
X1372528Y923575D01*
X1320216D01*
Y938386D01*
X1282342D01*
Y940512D01*
X1269685D01*
Y918113D01*
X1268769Y917931D01*
X1266164Y916190D01*
X1264424Y913585D01*
X1263812Y910512D01*
Y905512D01*
Y900512D01*
X1264424Y897439D01*
X1266164Y894833D01*
X1268769Y893093D01*
X1269685Y892911D01*
Y870512D01*
X1282342D01*
Y872638D01*
X1320216D01*
Y887448D01*
X1374120D01*
X1378094Y880564D01*
X1386076Y872582D01*
X1395853Y866938D01*
X1406757Y864016D01*
X1418046D01*
X1428950Y866938D01*
X1438727Y872582D01*
X1446709Y880564D01*
X1451479Y888826D01*
X1492926D01*
X1499839Y890201D01*
X1505699Y894117D01*
X1524561Y912979D01*
X1529180Y911066D01*
Y850159D01*
X1519691Y844680D01*
X1511336Y836325D01*
X1505428Y826092D01*
X1505375Y825894D01*
X1450936D01*
X1446709Y833215D01*
X1438727Y841198D01*
X1428950Y846842D01*
X1418046Y849764D01*
X1406757D01*
X1395853Y846842D01*
X1386076Y841198D01*
X1378094Y833215D01*
X1372449Y823439D01*
X1369528Y812534D01*
Y801245D01*
X1372449Y790341D01*
X1378094Y780564D01*
X1386076Y772582D01*
X1395853Y766938D01*
X1406757Y764016D01*
X1418046D01*
X1428950Y766938D01*
X1438727Y772582D01*
X1446709Y780564D01*
X1452023Y789767D01*
X1506400D01*
X1511336Y781218D01*
X1519691Y772864D01*
X1529923Y766956D01*
X1541336Y763898D01*
X1553152D01*
X1554104Y764153D01*
X1558071Y761109D01*
Y742434D01*
X1554104Y739391D01*
X1553152Y739646D01*
X1541336D01*
X1529923Y736588D01*
X1519691Y730680D01*
X1511336Y722325D01*
X1505428Y712092D01*
X1502370Y700679D01*
Y688864D01*
X1505428Y677451D01*
X1511336Y667218D01*
X1519691Y658864D01*
X1529923Y652956D01*
X1541336Y649898D01*
X1553152D01*
X1554104Y650153D01*
X1558071Y647109D01*
Y-328389D01*
X1511061D01*
Y-375201D01*
X1564961D01*
Y-394886D01*
X1511061D01*
Y-441699D01*
X1558071D01*
Y-457407D01*
X1499132D01*
X1345361Y-303636D01*
X1347949Y-299153D01*
X1354782Y-300984D01*
X1370021D01*
X1384740Y-297040D01*
X1397937Y-289421D01*
X1408712Y-278646D01*
X1416332Y-265449D01*
X1420276Y-250730D01*
Y-235491D01*
X1416332Y-220772D01*
X1408712Y-207575D01*
X1397937Y-196799D01*
X1384740Y-189180D01*
X1370021Y-185236D01*
X1354782D01*
X1340063Y-189180D01*
X1326866Y-196799D01*
X1316091Y-207575D01*
X1308472Y-220772D01*
X1304528Y-235491D01*
Y-250730D01*
X1306359Y-257563D01*
X1301876Y-260151D01*
X1010112Y31612D01*
Y655512D01*
X1009043Y660888D01*
X1005997Y665446D01*
X937100Y734344D01*
X932542Y737389D01*
X927165Y738459D01*
X893919D01*
X892579Y743459D01*
X897678Y746403D01*
X904275Y753000D01*
X908940Y761080D01*
X911354Y770091D01*
Y779421D01*
X908940Y788433D01*
X904275Y796512D01*
X897678Y803110D01*
X894803Y804769D01*
X896142Y809769D01*
X905512D01*
X910888Y810839D01*
X915446Y813884D01*
X1022730Y921168D01*
X1025775Y925726D01*
X1026845Y931102D01*
Y1364173D01*
X1025775Y1369550D01*
X1022730Y1374108D01*
X813859Y1582979D01*
X815772Y1587598D01*
X1262384D01*
X1265362Y1583582D01*
X1263248Y1576613D01*
X1261305Y1556890D01*
X1263248Y1537167D01*
X1269001Y1518202D01*
X1278343Y1500724D01*
X1290916Y1485404D01*
X1306236Y1472831D01*
X1323714Y1463489D01*
X1342679Y1457736D01*
X1362402Y1455794D01*
X1382124Y1457736D01*
X1401089Y1463489D01*
X1418568Y1472831D01*
X1433887Y1485404D01*
X1446460Y1500724D01*
X1455802Y1518202D01*
X1461555Y1537167D01*
X1463498Y1556890D01*
X1461555Y1576613D01*
X1459441Y1583582D01*
X1462420Y1587598D01*
X1558071D01*
Y1387591D01*
D02*
G37*
G36*
X812722Y1439062D02*
Y1312315D01*
X785764D01*
Y1274756D01*
X766079D01*
Y1312315D01*
X740428D01*
Y1461614D01*
X739358Y1466991D01*
X736312Y1471549D01*
X680210Y1527651D01*
X675652Y1530697D01*
X670276Y1531766D01*
X488690D01*
X486958Y1536457D01*
X494655Y1543037D01*
X708748D01*
X812722Y1439062D01*
D02*
G37*
G36*
X1330627Y-765900D02*
X1338982Y-774255D01*
X1349215Y-780162D01*
X1356564Y-782132D01*
X1355906Y-787132D01*
X1200787D01*
X1195411Y-788201D01*
X1190853Y-791247D01*
X1165668Y-816432D01*
X1162622Y-820990D01*
X1161553Y-826366D01*
Y-826617D01*
X1161061D01*
X1149648Y-829675D01*
X1139415Y-835583D01*
X1131060Y-843938D01*
X1125153Y-854171D01*
X1122094Y-865583D01*
Y-877399D01*
X1125153Y-888812D01*
X1131060Y-899045D01*
X1139415Y-907399D01*
X1149648Y-913307D01*
X1161061Y-916365D01*
X1172876D01*
X1184289Y-913307D01*
X1194522Y-907399D01*
X1202877Y-899045D01*
X1208784Y-888812D01*
X1211842Y-877399D01*
Y-865583D01*
X1208784Y-854171D01*
X1202877Y-843938D01*
X1194522Y-835583D01*
X1193763Y-835145D01*
X1192941Y-828897D01*
X1206607Y-815231D01*
X1558071D01*
Y-827418D01*
X1549648Y-829675D01*
X1539415Y-835583D01*
X1531060Y-843938D01*
X1525153Y-854171D01*
X1522094Y-865583D01*
Y-877399D01*
X1525153Y-888812D01*
X1531060Y-899045D01*
X1539415Y-907399D01*
X1549648Y-913307D01*
X1558071Y-915564D01*
Y-1352123D01*
X1553451Y-1354036D01*
X1485534Y-1286119D01*
X1477721Y-1280898D01*
X1468504Y-1279065D01*
X1108401D01*
X992589Y-1163252D01*
Y-827890D01*
X1058047Y-762431D01*
X1328625D01*
X1330627Y-765900D01*
D02*
G37*
%LPC*%
G36*
X-972441Y1525559D02*
Y1495078D01*
X-941961D01*
X-943615Y1501253D01*
X-949078Y1510715D01*
X-956804Y1518441D01*
X-966267Y1523904D01*
X-972441Y1525559D01*
D02*
G37*
G36*
X-992126Y1525559D02*
X-998300Y1523904D01*
X-1007763Y1518441D01*
X-1015489Y1510715D01*
X-1020952Y1501253D01*
X-1022606Y1495078D01*
X-992126D01*
Y1525559D01*
D02*
G37*
G36*
X-1353344Y1531890D02*
X-1363192D01*
X-1372704Y1529341D01*
X-1381233Y1524417D01*
X-1388196Y1517453D01*
X-1393120Y1508925D01*
X-1395669Y1499412D01*
Y1489564D01*
X-1393120Y1480052D01*
X-1388196Y1471523D01*
X-1381233Y1464560D01*
X-1376735Y1461963D01*
X-1378075Y1456963D01*
X-1400873D01*
X-1423615Y1479705D01*
X-1423415Y1480052D01*
X-1420866Y1489564D01*
Y1499412D01*
X-1423415Y1508925D01*
X-1428339Y1517453D01*
X-1435303Y1524417D01*
X-1443831Y1529341D01*
X-1453344Y1531890D01*
X-1463192D01*
X-1472704Y1529341D01*
X-1481233Y1524417D01*
X-1488196Y1517453D01*
X-1493120Y1508925D01*
X-1495669Y1499412D01*
Y1489564D01*
X-1493120Y1480052D01*
X-1488196Y1471523D01*
X-1481233Y1464560D01*
X-1472704Y1459636D01*
X-1463192Y1457087D01*
X-1453344D01*
X-1443831Y1459636D01*
X-1443484Y1459836D01*
X-1416627Y1432979D01*
X-1412069Y1429933D01*
X-1406693Y1428864D01*
X-1382568D01*
X-1381786Y1423864D01*
X-1388196Y1417453D01*
X-1393120Y1408925D01*
X-1395669Y1399412D01*
Y1389564D01*
X-1393120Y1380052D01*
X-1388196Y1371523D01*
X-1381233Y1364560D01*
X-1376735Y1361963D01*
X-1378075Y1356963D01*
X-1400873D01*
X-1423615Y1379705D01*
X-1423415Y1380052D01*
X-1420866Y1389564D01*
Y1399412D01*
X-1423415Y1408925D01*
X-1428339Y1417453D01*
X-1435303Y1424417D01*
X-1443831Y1429341D01*
X-1453344Y1431890D01*
X-1463192D01*
X-1472704Y1429341D01*
X-1481233Y1424417D01*
X-1488196Y1417453D01*
X-1493120Y1408925D01*
X-1495669Y1399412D01*
Y1389564D01*
X-1493120Y1380052D01*
X-1488196Y1371523D01*
X-1481233Y1364560D01*
X-1472704Y1359636D01*
X-1463192Y1357087D01*
X-1453344D01*
X-1443831Y1359636D01*
X-1443484Y1359836D01*
X-1416627Y1332979D01*
X-1412069Y1329933D01*
X-1406693Y1328864D01*
X-1382568D01*
X-1381786Y1323864D01*
X-1388196Y1317453D01*
X-1393120Y1308925D01*
X-1395669Y1299412D01*
Y1289564D01*
X-1393120Y1280052D01*
X-1388196Y1271523D01*
X-1381233Y1264560D01*
X-1376735Y1261963D01*
X-1378075Y1256963D01*
X-1400873D01*
X-1423615Y1279705D01*
X-1423415Y1280052D01*
X-1420866Y1289564D01*
Y1299412D01*
X-1423415Y1308925D01*
X-1428339Y1317453D01*
X-1435303Y1324417D01*
X-1443831Y1329341D01*
X-1453344Y1331890D01*
X-1463192D01*
X-1472704Y1329341D01*
X-1481233Y1324417D01*
X-1488196Y1317453D01*
X-1493120Y1308925D01*
X-1495669Y1299412D01*
Y1289564D01*
X-1493120Y1280052D01*
X-1488196Y1271523D01*
X-1481233Y1264560D01*
X-1472704Y1259636D01*
X-1463192Y1257087D01*
X-1453344D01*
X-1443831Y1259636D01*
X-1443484Y1259836D01*
X-1416627Y1232979D01*
X-1412069Y1229933D01*
X-1406693Y1228864D01*
X-1382568D01*
X-1381786Y1223864D01*
X-1388196Y1217453D01*
X-1393120Y1208925D01*
X-1395669Y1199412D01*
Y1189564D01*
X-1393120Y1180052D01*
X-1388196Y1171523D01*
X-1381233Y1164560D01*
X-1379463Y1163538D01*
X-1380803Y1158538D01*
X-1402448D01*
X-1423615Y1179705D01*
X-1423415Y1180052D01*
X-1420866Y1189564D01*
Y1199412D01*
X-1423415Y1208925D01*
X-1428339Y1217453D01*
X-1435303Y1224417D01*
X-1443831Y1229341D01*
X-1453344Y1231890D01*
X-1463192D01*
X-1472704Y1229341D01*
X-1481233Y1224417D01*
X-1488196Y1217453D01*
X-1493120Y1208925D01*
X-1495669Y1199412D01*
Y1189564D01*
X-1493120Y1180052D01*
X-1488196Y1171523D01*
X-1481233Y1164560D01*
X-1472704Y1159636D01*
X-1463192Y1157087D01*
X-1453344D01*
X-1443831Y1159636D01*
X-1443484Y1159836D01*
X-1418202Y1134554D01*
X-1413644Y1131508D01*
X-1408268Y1130439D01*
X-1380803D01*
X-1379463Y1125439D01*
X-1381233Y1124417D01*
X-1388196Y1117453D01*
X-1393120Y1108925D01*
X-1395669Y1099412D01*
Y1089564D01*
X-1393120Y1080052D01*
X-1388196Y1071523D01*
X-1381786Y1065113D01*
X-1382568Y1060113D01*
X-1404023D01*
X-1423615Y1079705D01*
X-1423415Y1080052D01*
X-1420866Y1089564D01*
Y1099412D01*
X-1423415Y1108925D01*
X-1428339Y1117453D01*
X-1435303Y1124417D01*
X-1443831Y1129341D01*
X-1453344Y1131890D01*
X-1463192D01*
X-1472704Y1129341D01*
X-1481233Y1124417D01*
X-1488196Y1117453D01*
X-1493120Y1108925D01*
X-1495669Y1099412D01*
Y1089564D01*
X-1493120Y1080052D01*
X-1488196Y1071523D01*
X-1481233Y1064560D01*
X-1472704Y1059636D01*
X-1463192Y1057087D01*
X-1453344D01*
X-1443831Y1059636D01*
X-1443484Y1059836D01*
X-1419777Y1036129D01*
X-1415219Y1033083D01*
X-1409843Y1032014D01*
X-1378075D01*
X-1376735Y1027014D01*
X-1381233Y1024417D01*
X-1388196Y1017453D01*
X-1393120Y1008925D01*
X-1395669Y999412D01*
Y989564D01*
X-1393120Y980052D01*
X-1388196Y971523D01*
X-1381786Y965113D01*
X-1382568Y960113D01*
X-1404023D01*
X-1423615Y979705D01*
X-1423415Y980052D01*
X-1420866Y989564D01*
Y999412D01*
X-1423415Y1008925D01*
X-1428339Y1017453D01*
X-1435303Y1024417D01*
X-1443831Y1029341D01*
X-1453344Y1031890D01*
X-1463192D01*
X-1472704Y1029341D01*
X-1481233Y1024417D01*
X-1488196Y1017453D01*
X-1493120Y1008925D01*
X-1495669Y999412D01*
Y989564D01*
X-1493120Y980052D01*
X-1488196Y971523D01*
X-1481233Y964560D01*
X-1472704Y959636D01*
X-1463192Y957087D01*
X-1453344D01*
X-1443831Y959636D01*
X-1443484Y959836D01*
X-1419777Y936129D01*
X-1415219Y933083D01*
X-1409843Y932014D01*
X-1378075D01*
X-1376735Y927014D01*
X-1381233Y924417D01*
X-1388196Y917453D01*
X-1393120Y908925D01*
X-1395669Y899412D01*
Y889564D01*
X-1393120Y880052D01*
X-1388196Y871523D01*
X-1381786Y865113D01*
X-1382568Y860113D01*
X-1404023D01*
X-1423615Y879705D01*
X-1423415Y880052D01*
X-1420866Y889564D01*
Y899412D01*
X-1423415Y908925D01*
X-1428339Y917453D01*
X-1435303Y924417D01*
X-1443831Y929341D01*
X-1453344Y931890D01*
X-1463192D01*
X-1472704Y929341D01*
X-1481233Y924417D01*
X-1488196Y917453D01*
X-1493120Y908925D01*
X-1495669Y899412D01*
Y889564D01*
X-1493120Y880052D01*
X-1488196Y871523D01*
X-1481233Y864560D01*
X-1472704Y859636D01*
X-1463192Y857087D01*
X-1453344D01*
X-1443831Y859636D01*
X-1443484Y859836D01*
X-1419777Y836129D01*
X-1415219Y833083D01*
X-1409843Y832014D01*
X-1378075D01*
X-1376735Y827014D01*
X-1381233Y824417D01*
X-1388196Y817453D01*
X-1393120Y808925D01*
X-1395669Y799412D01*
Y789564D01*
X-1393120Y780052D01*
X-1388196Y771523D01*
X-1381786Y765113D01*
X-1382568Y760113D01*
X-1404023D01*
X-1423615Y779705D01*
X-1423415Y780052D01*
X-1420866Y789564D01*
Y799412D01*
X-1423415Y808925D01*
X-1428339Y817453D01*
X-1435303Y824417D01*
X-1443831Y829341D01*
X-1453344Y831890D01*
X-1463192D01*
X-1472704Y829341D01*
X-1481233Y824417D01*
X-1488196Y817453D01*
X-1493120Y808925D01*
X-1495669Y799412D01*
Y789564D01*
X-1493120Y780052D01*
X-1488196Y771523D01*
X-1481233Y764560D01*
X-1472704Y759636D01*
X-1463192Y757087D01*
X-1453344D01*
X-1443831Y759636D01*
X-1443484Y759836D01*
X-1419777Y736129D01*
X-1415219Y733083D01*
X-1409843Y732014D01*
X-1378075D01*
X-1376735Y727014D01*
X-1381233Y724417D01*
X-1388196Y717453D01*
X-1393120Y708925D01*
X-1395669Y699412D01*
Y689564D01*
X-1393120Y680052D01*
X-1388196Y671523D01*
X-1381233Y664560D01*
X-1372704Y659636D01*
X-1363192Y657087D01*
X-1353344D01*
X-1343831Y659636D01*
X-1335303Y664560D01*
X-1328339Y671523D01*
X-1323415Y680052D01*
X-1320866Y689564D01*
Y699412D01*
X-1323415Y708925D01*
X-1328339Y717453D01*
X-1335303Y724417D01*
X-1339800Y727014D01*
X-1338461Y732014D01*
X-1194796D01*
X-927604Y464822D01*
X-923046Y461776D01*
X-917669Y460707D01*
X-911409D01*
X-906960Y453000D01*
X-900363Y446403D01*
X-892283Y441738D01*
X-883271Y439323D01*
X-873942D01*
X-864930Y441738D01*
X-856850Y446403D01*
X-850253Y453000D01*
X-845588Y461079D01*
X-843173Y470091D01*
Y479421D01*
X-845588Y488433D01*
X-850253Y496512D01*
X-856850Y503110D01*
X-864930Y507774D01*
X-873942Y510189D01*
X-883271D01*
X-892283Y507774D01*
X-900363Y503110D01*
X-906960Y496512D01*
X-908982Y493009D01*
X-915231Y492187D01*
X-1179042Y755998D01*
X-1183600Y759043D01*
X-1188976Y760113D01*
X-1333968D01*
X-1334750Y765113D01*
X-1328339Y771523D01*
X-1323415Y780052D01*
X-1320866Y789564D01*
Y799412D01*
X-1323415Y808925D01*
X-1328339Y817453D01*
X-1335303Y824417D01*
X-1339800Y827014D01*
X-1338461Y832014D01*
X-1166843D01*
X-914039Y579210D01*
Y570091D01*
X-911625Y561080D01*
X-906960Y553000D01*
X-900363Y546403D01*
X-892283Y541738D01*
X-883271Y539323D01*
X-873942D01*
X-864930Y541738D01*
X-856850Y546403D01*
X-850253Y553000D01*
X-845588Y561080D01*
X-843173Y570091D01*
Y579421D01*
X-845588Y588433D01*
X-850253Y596512D01*
X-856850Y603110D01*
X-864930Y607774D01*
X-873942Y610189D01*
X-883271D01*
X-892283Y607774D01*
X-898992Y603901D01*
X-1151089Y855998D01*
X-1155647Y859043D01*
X-1161024Y860113D01*
X-1333968D01*
X-1334750Y865113D01*
X-1328339Y871523D01*
X-1323415Y880052D01*
X-1320866Y889564D01*
Y899412D01*
X-1323415Y908925D01*
X-1328339Y917453D01*
X-1335303Y924417D01*
X-1339800Y927014D01*
X-1338461Y932014D01*
X-1177276D01*
X-918145Y672882D01*
X-914039Y670139D01*
Y670091D01*
X-911625Y661080D01*
X-906960Y653000D01*
X-900363Y646403D01*
X-892283Y641738D01*
X-883271Y639323D01*
X-873942D01*
X-864930Y641738D01*
X-856850Y646403D01*
X-850253Y653000D01*
X-845588Y661080D01*
X-843173Y670091D01*
Y679421D01*
X-845588Y688433D01*
X-850253Y696512D01*
X-856850Y703110D01*
X-864930Y707774D01*
X-873942Y710189D01*
X-883271D01*
X-892283Y707774D01*
X-900363Y703110D01*
X-904498Y698974D01*
X-1161522Y955998D01*
X-1166080Y959043D01*
X-1171457Y960113D01*
X-1333968D01*
X-1334750Y965113D01*
X-1328339Y971523D01*
X-1323415Y980052D01*
X-1320866Y989564D01*
Y999412D01*
X-1323415Y1008925D01*
X-1328339Y1017453D01*
X-1335303Y1024417D01*
X-1339800Y1027014D01*
X-1338461Y1032014D01*
X-1182788D01*
X-923656Y772882D01*
X-919098Y769837D01*
X-913722Y768767D01*
X-913684D01*
X-911625Y761080D01*
X-906960Y753000D01*
X-900363Y746403D01*
X-892283Y741738D01*
X-883271Y739323D01*
X-873942D01*
X-864930Y741738D01*
X-856850Y746403D01*
X-850253Y753000D01*
X-845588Y761080D01*
X-843173Y770091D01*
Y779421D01*
X-845588Y788433D01*
X-850253Y796512D01*
X-856850Y803110D01*
X-864930Y807774D01*
X-873942Y810189D01*
X-883271D01*
X-892283Y807774D01*
X-900363Y803110D01*
X-906606Y796866D01*
X-907902D01*
X-1167034Y1055998D01*
X-1171592Y1059043D01*
X-1176968Y1060113D01*
X-1333968D01*
X-1334750Y1065113D01*
X-1328339Y1071523D01*
X-1323415Y1080052D01*
X-1320866Y1089564D01*
Y1099412D01*
X-1323415Y1108925D01*
X-1328339Y1117453D01*
X-1335303Y1124417D01*
X-1337073Y1125439D01*
X-1335733Y1130439D01*
X-1202473D01*
X-936856Y864822D01*
X-932298Y861776D01*
X-926921Y860707D01*
X-911409D01*
X-906960Y853000D01*
X-900363Y846403D01*
X-892283Y841738D01*
X-883271Y839323D01*
X-873942D01*
X-864930Y841738D01*
X-856850Y846403D01*
X-850253Y853000D01*
X-845588Y861080D01*
X-843173Y870091D01*
Y879421D01*
X-845588Y888433D01*
X-850253Y896512D01*
X-856850Y903110D01*
X-864930Y907774D01*
X-873942Y910189D01*
X-883271D01*
X-892283Y907774D01*
X-900363Y903110D01*
X-906960Y896512D01*
X-911409Y888806D01*
X-921102D01*
X-1186719Y1154423D01*
X-1191277Y1157468D01*
X-1196653Y1158538D01*
X-1335733D01*
X-1337073Y1163538D01*
X-1335303Y1164560D01*
X-1328339Y1171523D01*
X-1323415Y1180052D01*
X-1320866Y1189564D01*
Y1199412D01*
X-1323415Y1208925D01*
X-1328339Y1217453D01*
X-1334750Y1223864D01*
X-1333968Y1228864D01*
X-1212315D01*
X-948273Y964822D01*
X-943715Y961776D01*
X-938339Y960707D01*
X-911409D01*
X-906960Y953000D01*
X-900363Y946403D01*
X-892283Y941738D01*
X-883271Y939323D01*
X-873942D01*
X-864930Y941738D01*
X-856850Y946403D01*
X-850253Y953000D01*
X-845588Y961080D01*
X-843173Y970091D01*
Y979421D01*
X-845588Y988433D01*
X-850253Y996512D01*
X-856850Y1003110D01*
X-864930Y1007774D01*
X-873942Y1010189D01*
X-883271D01*
X-892283Y1007774D01*
X-900363Y1003110D01*
X-906960Y996512D01*
X-911409Y988806D01*
X-932519D01*
X-1196562Y1252848D01*
X-1201120Y1255893D01*
X-1206496Y1256963D01*
X-1338460D01*
X-1339800Y1261963D01*
X-1335303Y1264560D01*
X-1328339Y1271523D01*
X-1323415Y1280052D01*
X-1320866Y1289564D01*
Y1299412D01*
X-1323415Y1308925D01*
X-1328339Y1317453D01*
X-1334750Y1323864D01*
X-1333968Y1328864D01*
X-1216843D01*
X-952801Y1064822D01*
X-948243Y1061776D01*
X-942866Y1060707D01*
X-911409D01*
X-906960Y1053000D01*
X-900363Y1046403D01*
X-892283Y1041738D01*
X-883271Y1039323D01*
X-873942D01*
X-864930Y1041738D01*
X-856850Y1046403D01*
X-850253Y1053000D01*
X-845588Y1061080D01*
X-843173Y1070091D01*
Y1079421D01*
X-845588Y1088433D01*
X-850253Y1096512D01*
X-856850Y1103110D01*
X-864930Y1107774D01*
X-873942Y1110189D01*
X-883271D01*
X-892283Y1107774D01*
X-900363Y1103110D01*
X-906960Y1096512D01*
X-911409Y1088806D01*
X-937047D01*
X-1201089Y1352848D01*
X-1205647Y1355893D01*
X-1211024Y1356963D01*
X-1338460D01*
X-1339800Y1361963D01*
X-1335303Y1364560D01*
X-1328339Y1371523D01*
X-1323415Y1380052D01*
X-1320866Y1389564D01*
Y1399412D01*
X-1323415Y1408925D01*
X-1328339Y1417453D01*
X-1334750Y1423864D01*
X-1333968Y1428864D01*
X-1324717D01*
X-1271253Y1375400D01*
X-1266695Y1372355D01*
X-1261319Y1371285D01*
X-1144107D01*
X-937643Y1164822D01*
X-933085Y1161776D01*
X-927709Y1160707D01*
X-911409D01*
X-906960Y1153000D01*
X-900363Y1146403D01*
X-892283Y1141738D01*
X-883271Y1139323D01*
X-873942D01*
X-864930Y1141738D01*
X-856850Y1146403D01*
X-850253Y1153000D01*
X-845588Y1161080D01*
X-843173Y1170091D01*
Y1179421D01*
X-845588Y1188433D01*
X-850253Y1196512D01*
X-856850Y1203110D01*
X-864930Y1207774D01*
X-873942Y1210189D01*
X-883271D01*
X-892283Y1207774D01*
X-900363Y1203110D01*
X-906960Y1196512D01*
X-911409Y1188806D01*
X-921889D01*
X-1128353Y1395269D01*
X-1132911Y1398315D01*
X-1138287Y1399384D01*
X-1255499D01*
X-1308963Y1452848D01*
X-1313521Y1455893D01*
X-1318898Y1456963D01*
X-1338460D01*
X-1339800Y1461963D01*
X-1335303Y1464560D01*
X-1328339Y1471523D01*
X-1323415Y1480052D01*
X-1320866Y1489564D01*
Y1499412D01*
X-1323415Y1508925D01*
X-1328339Y1517453D01*
X-1335303Y1524417D01*
X-1343831Y1529341D01*
X-1353344Y1531890D01*
D02*
G37*
G36*
X-1188130Y1543874D02*
X-1233130D01*
X-1238153Y1542875D01*
X-1242411Y1540030D01*
X-1245257Y1535771D01*
X-1246256Y1530748D01*
Y1500748D01*
X-1245257Y1495725D01*
X-1242411Y1491466D01*
X-1238153Y1488621D01*
X-1233130Y1487622D01*
X-1188130D01*
X-1183107Y1488621D01*
X-1178848Y1491466D01*
X-1176034Y1495678D01*
X-1172212Y1496041D01*
X-1171200Y1496125D01*
X-1150377Y1475302D01*
X-1145819Y1472256D01*
X-1140443Y1471187D01*
X-1121653D01*
Y1445866D01*
X-1042914D01*
Y1524606D01*
X-1121653D01*
Y1499286D01*
X-1134623D01*
X-1155479Y1520141D01*
X-1160037Y1523187D01*
X-1165413Y1524256D01*
X-1175004D01*
Y1530748D01*
X-1176003Y1535771D01*
X-1178848Y1540030D01*
X-1183107Y1542875D01*
X-1188130Y1543874D01*
D02*
G37*
G36*
X-992126Y1475393D02*
X-1022606D01*
X-1020952Y1469219D01*
X-1015489Y1459757D01*
X-1007763Y1452031D01*
X-998300Y1446568D01*
X-992126Y1444914D01*
Y1475393D01*
D02*
G37*
G36*
X-941961D02*
X-972441D01*
Y1444914D01*
X-966267Y1446568D01*
X-956804Y1452031D01*
X-949078Y1459757D01*
X-943615Y1469219D01*
X-941961Y1475393D01*
D02*
G37*
G36*
X-735958Y1524606D02*
X-746325D01*
X-756338Y1521923D01*
X-765315Y1516740D01*
X-772645Y1509410D01*
X-777829Y1500432D01*
X-780512Y1490419D01*
Y1480053D01*
X-777829Y1470040D01*
X-772645Y1461062D01*
X-765315Y1453732D01*
X-758221Y1449636D01*
Y1439364D01*
X-759358Y1438707D01*
X-765479Y1432587D01*
X-769807Y1425091D01*
X-772047Y1416729D01*
Y1408074D01*
X-769807Y1399713D01*
X-765479Y1392216D01*
X-759358Y1386096D01*
X-751862Y1381768D01*
X-743501Y1379528D01*
X-734845D01*
X-726484Y1381768D01*
X-718988Y1386096D01*
X-712867Y1392216D01*
X-708539Y1399713D01*
X-706299Y1408074D01*
Y1416729D01*
X-708539Y1425091D01*
X-712867Y1432587D01*
X-718988Y1438707D01*
X-722094Y1440501D01*
Y1450773D01*
X-716968Y1453732D01*
X-709638Y1461062D01*
X-704455Y1470040D01*
X-701772Y1480053D01*
Y1490419D01*
X-704455Y1500432D01*
X-709638Y1509410D01*
X-716968Y1516740D01*
X-725946Y1521923D01*
X-735958Y1524606D01*
D02*
G37*
G36*
X-801772D02*
X-880512D01*
Y1445866D01*
X-858910D01*
Y1439762D01*
X-860736Y1438707D01*
X-866857Y1432587D01*
X-871185Y1425091D01*
X-873425Y1416729D01*
Y1408074D01*
X-871185Y1399713D01*
X-866857Y1392216D01*
X-860736Y1386096D01*
X-853240Y1381768D01*
X-844879Y1379528D01*
X-836223D01*
X-827862Y1381768D01*
X-820366Y1386096D01*
X-814245Y1392216D01*
X-809918Y1399713D01*
X-807677Y1408074D01*
Y1416729D01*
X-809918Y1425091D01*
X-814245Y1432587D01*
X-820366Y1438707D01*
X-822783Y1440103D01*
Y1445866D01*
X-801772D01*
Y1524606D01*
D02*
G37*
G36*
X-459384Y1384842D02*
X-469750D01*
X-479763Y1382159D01*
X-488741Y1376976D01*
X-496071Y1369646D01*
X-501254Y1360669D01*
X-503937Y1350656D01*
Y1340289D01*
X-501254Y1330276D01*
X-496071Y1321299D01*
X-488741Y1313969D01*
X-479763Y1308785D01*
X-469750Y1306102D01*
X-459384D01*
X-449371Y1308785D01*
X-440393Y1313969D01*
X-433063Y1321299D01*
X-427880Y1330276D01*
X-425197Y1340289D01*
Y1350656D01*
X-427880Y1360669D01*
X-433063Y1369646D01*
X-440393Y1376976D01*
X-449371Y1382159D01*
X-459384Y1384842D01*
D02*
G37*
G36*
X-26313Y1384842D02*
X-36679D01*
X-46692Y1382159D01*
X-55670Y1376976D01*
X-63000Y1369646D01*
X-68183Y1360669D01*
X-70866Y1350656D01*
Y1340289D01*
X-68183Y1330276D01*
X-63000Y1321299D01*
X-55670Y1313969D01*
X-46692Y1308785D01*
X-36679Y1306102D01*
X-26313D01*
X-16300Y1308785D01*
X-7322Y1313969D01*
X8Y1321299D01*
X5191Y1330276D01*
X7874Y1340289D01*
Y1350656D01*
X5191Y1360669D01*
X8Y1369646D01*
X-7322Y1376976D01*
X-16300Y1382159D01*
X-26313Y1384842D01*
D02*
G37*
G36*
X-841047Y1312315D02*
X-868764D01*
Y1284598D01*
X-841047D01*
Y1312315D01*
D02*
G37*
G36*
X-888449D02*
X-916165D01*
Y1284598D01*
X-888449D01*
Y1312315D01*
D02*
G37*
G36*
X-773942Y1310189D02*
X-783271D01*
X-792283Y1307774D01*
X-800363Y1303110D01*
X-806960Y1296512D01*
X-811625Y1288433D01*
X-814039Y1279421D01*
Y1270091D01*
X-811625Y1261080D01*
X-806960Y1253000D01*
X-800363Y1246403D01*
X-792283Y1241738D01*
X-783271Y1239323D01*
X-773942D01*
X-764930Y1241738D01*
X-756850Y1246403D01*
X-750253Y1253000D01*
X-745588Y1261080D01*
X-743173Y1270091D01*
Y1279421D01*
X-745588Y1288433D01*
X-750253Y1296512D01*
X-756850Y1303110D01*
X-764930Y1307774D01*
X-773942Y1310189D01*
D02*
G37*
G36*
X-841047Y1264913D02*
X-868764D01*
Y1237197D01*
X-841047D01*
Y1264913D01*
D02*
G37*
G36*
X-888449D02*
X-916165D01*
Y1237197D01*
X-888449D01*
Y1264913D01*
D02*
G37*
G36*
X488191Y1250583D02*
X476376D01*
X464963Y1247525D01*
X454730Y1241617D01*
X446375Y1233262D01*
X440468Y1223029D01*
X437409Y1211617D01*
Y1199801D01*
X440468Y1188388D01*
X446375Y1178155D01*
X454730Y1169801D01*
X464963Y1163893D01*
X476376Y1160835D01*
X488191D01*
X499604Y1163893D01*
X509837Y1169801D01*
X518192Y1178155D01*
X524099Y1188388D01*
X525134Y1192250D01*
X571938D01*
X572449Y1190341D01*
X578094Y1180564D01*
X586076Y1172582D01*
X595853Y1166938D01*
X606757Y1164016D01*
X618046D01*
X628950Y1166938D01*
X638727Y1172582D01*
X646709Y1180564D01*
X652354Y1190341D01*
X655276Y1201245D01*
Y1212534D01*
X652354Y1223439D01*
X646709Y1233215D01*
X638727Y1241198D01*
X628950Y1246842D01*
X618046Y1249764D01*
X606757D01*
X595853Y1246842D01*
X586076Y1241198D01*
X578094Y1233215D01*
X572449Y1223439D01*
X571621Y1220349D01*
X524818D01*
X524099Y1223029D01*
X518192Y1233262D01*
X509837Y1241617D01*
X499604Y1247525D01*
X488191Y1250583D01*
D02*
G37*
G36*
X880586Y1210189D02*
X871256D01*
X862245Y1207774D01*
X854165Y1203110D01*
X847568Y1196512D01*
X842903Y1188433D01*
X840488Y1179421D01*
Y1170091D01*
X842903Y1161080D01*
X847568Y1153000D01*
X854165Y1146403D01*
X862245Y1141738D01*
X871256Y1139323D01*
X880586D01*
X889598Y1141738D01*
X897678Y1146403D01*
X904275Y1153000D01*
X908940Y1161080D01*
X911354Y1170091D01*
Y1179421D01*
X908940Y1188433D01*
X904275Y1196512D01*
X897678Y1203110D01*
X889598Y1207774D01*
X880586Y1210189D01*
D02*
G37*
G36*
X-773942D02*
X-783271D01*
X-792283Y1207774D01*
X-800363Y1203110D01*
X-806960Y1196512D01*
X-811625Y1188433D01*
X-814039Y1179421D01*
Y1170091D01*
X-811625Y1161080D01*
X-806960Y1153000D01*
X-800363Y1146403D01*
X-792283Y1141738D01*
X-783271Y1139323D01*
X-773942D01*
X-764930Y1141738D01*
X-756850Y1146403D01*
X-750253Y1153000D01*
X-745588Y1161080D01*
X-743173Y1170091D01*
Y1179421D01*
X-745588Y1188433D01*
X-750253Y1196512D01*
X-756850Y1203110D01*
X-764930Y1207774D01*
X-773942Y1210189D01*
D02*
G37*
G36*
X482126Y1151729D02*
Y1115551D01*
X518304D01*
X516081Y1123850D01*
X509893Y1134567D01*
X501142Y1143318D01*
X490425Y1149506D01*
X482126Y1151729D01*
D02*
G37*
G36*
X462441D02*
X454142Y1149506D01*
X443425Y1143318D01*
X434674Y1134567D01*
X428486Y1123850D01*
X426263Y1115551D01*
X462441D01*
Y1151729D01*
D02*
G37*
G36*
X518304Y1095866D02*
X482126D01*
Y1059688D01*
X490425Y1061912D01*
X501142Y1068099D01*
X509893Y1076850D01*
X516081Y1087567D01*
X518304Y1095866D01*
D02*
G37*
G36*
X462441D02*
X426263D01*
X428486Y1087567D01*
X434674Y1076850D01*
X443425Y1068099D01*
X454142Y1061912D01*
X462441Y1059688D01*
Y1095866D01*
D02*
G37*
G36*
X880586Y1110189D02*
X871256D01*
X862245Y1107774D01*
X854165Y1103110D01*
X847568Y1096512D01*
X842903Y1088433D01*
X840488Y1079421D01*
Y1070091D01*
X842903Y1061080D01*
X847568Y1053000D01*
X854165Y1046403D01*
X862245Y1041738D01*
X871256Y1039323D01*
X880586D01*
X889598Y1041738D01*
X897678Y1046403D01*
X904275Y1053000D01*
X908940Y1061080D01*
X911354Y1070091D01*
Y1079421D01*
X908940Y1088433D01*
X904275Y1096512D01*
X897678Y1103110D01*
X889598Y1107774D01*
X880586Y1110189D01*
D02*
G37*
G36*
X-773942D02*
X-783271D01*
X-792283Y1107774D01*
X-800363Y1103110D01*
X-806960Y1096512D01*
X-811625Y1088433D01*
X-814039Y1079421D01*
Y1070091D01*
X-811625Y1061080D01*
X-806960Y1053000D01*
X-800363Y1046403D01*
X-792283Y1041738D01*
X-783271Y1039323D01*
X-773942D01*
X-764930Y1041738D01*
X-756850Y1046403D01*
X-750253Y1053000D01*
X-745588Y1061080D01*
X-743173Y1070091D01*
Y1079421D01*
X-745588Y1088433D01*
X-750253Y1096512D01*
X-756850Y1103110D01*
X-764930Y1107774D01*
X-773942Y1110189D01*
D02*
G37*
G36*
X-459384Y1109252D02*
X-469750D01*
X-479763Y1106569D01*
X-488741Y1101386D01*
X-496071Y1094056D01*
X-501254Y1085078D01*
X-503937Y1075065D01*
Y1064699D01*
X-501254Y1054686D01*
X-496071Y1045708D01*
X-488741Y1038378D01*
X-479763Y1033195D01*
X-469750Y1030512D01*
X-459384D01*
X-449371Y1033195D01*
X-440393Y1038378D01*
X-433063Y1045708D01*
X-427880Y1054686D01*
X-425197Y1064699D01*
Y1075065D01*
X-427880Y1085078D01*
X-433063Y1094056D01*
X-440393Y1101386D01*
X-449371Y1106569D01*
X-459384Y1109252D01*
D02*
G37*
G36*
X-26313Y1109252D02*
X-36679D01*
X-46692Y1106569D01*
X-55670Y1101386D01*
X-63000Y1094055D01*
X-68183Y1085078D01*
X-70866Y1075065D01*
Y1064699D01*
X-68183Y1054686D01*
X-63000Y1045708D01*
X-55670Y1038378D01*
X-46692Y1033195D01*
X-36679Y1030512D01*
X-26313D01*
X-16300Y1033195D01*
X-7322Y1038378D01*
X8Y1045708D01*
X5191Y1054686D01*
X7874Y1064699D01*
Y1075065D01*
X5191Y1085078D01*
X8Y1094055D01*
X-7322Y1101386D01*
X-16300Y1106569D01*
X-26313Y1109252D01*
D02*
G37*
G36*
X488191Y1050583D02*
X476376D01*
X464963Y1047525D01*
X454730Y1041617D01*
X446375Y1033262D01*
X440468Y1023029D01*
X437409Y1011616D01*
Y999801D01*
X440468Y988388D01*
X446375Y978155D01*
X454730Y969801D01*
X464963Y963893D01*
X476376Y960835D01*
X488191D01*
X499604Y963893D01*
X509837Y969801D01*
X518192Y978155D01*
X524099Y988388D01*
X525134Y992250D01*
X571938D01*
X572449Y990341D01*
X578094Y980564D01*
X586076Y972582D01*
X595853Y966938D01*
X606757Y964016D01*
X618046D01*
X628950Y966938D01*
X638727Y972582D01*
X646709Y980564D01*
X652354Y990341D01*
X655276Y1001245D01*
Y1012534D01*
X652354Y1023439D01*
X646709Y1033215D01*
X638727Y1041198D01*
X628950Y1046842D01*
X618046Y1049764D01*
X606757D01*
X595853Y1046842D01*
X586076Y1041198D01*
X578094Y1033215D01*
X572449Y1023439D01*
X571621Y1020349D01*
X524818D01*
X524099Y1023029D01*
X518192Y1033262D01*
X509837Y1041617D01*
X499604Y1047525D01*
X488191Y1050583D01*
D02*
G37*
G36*
X346656Y1031890D02*
X336808D01*
X327296Y1029341D01*
X318767Y1024417D01*
X311804Y1017453D01*
X306880Y1008925D01*
X304331Y999412D01*
Y989564D01*
X306880Y980052D01*
X311804Y971523D01*
X318767Y964560D01*
X327296Y959636D01*
X336808Y957087D01*
X346656D01*
X356169Y959636D01*
X364697Y964560D01*
X371661Y971523D01*
X376585Y980052D01*
X379134Y989564D01*
Y999412D01*
X376585Y1008925D01*
X371661Y1017453D01*
X364697Y1024417D01*
X356169Y1029341D01*
X346656Y1031890D01*
D02*
G37*
G36*
X246656D02*
X236808D01*
X227296Y1029341D01*
X218767Y1024417D01*
X211804Y1017453D01*
X206880Y1008925D01*
X204331Y999412D01*
Y989564D01*
X206880Y980052D01*
X211804Y971523D01*
X218767Y964560D01*
X227296Y959636D01*
X236808Y957087D01*
X246656D01*
X256169Y959636D01*
X264697Y964560D01*
X271661Y971523D01*
X276585Y980052D01*
X279134Y989564D01*
Y999412D01*
X276585Y1008925D01*
X271661Y1017453D01*
X264697Y1024417D01*
X256169Y1029341D01*
X246656Y1031890D01*
D02*
G37*
G36*
X880586Y1010189D02*
X871256D01*
X862245Y1007774D01*
X854165Y1003110D01*
X847568Y996512D01*
X842903Y988433D01*
X840488Y979421D01*
Y970091D01*
X842903Y961080D01*
X847568Y953000D01*
X854165Y946403D01*
X862245Y941738D01*
X871256Y939323D01*
X880586D01*
X889598Y941738D01*
X897678Y946403D01*
X904275Y953000D01*
X908940Y961080D01*
X911354Y970091D01*
Y979421D01*
X908940Y988433D01*
X904275Y996512D01*
X897678Y1003110D01*
X889598Y1007774D01*
X880586Y1010189D01*
D02*
G37*
G36*
X-773942D02*
X-783271D01*
X-792283Y1007774D01*
X-800363Y1003110D01*
X-806960Y996512D01*
X-811625Y988433D01*
X-814039Y979421D01*
Y970091D01*
X-811625Y961080D01*
X-806960Y953000D01*
X-800363Y946403D01*
X-792283Y941738D01*
X-783271Y939323D01*
X-773942D01*
X-764930Y941738D01*
X-756850Y946403D01*
X-750253Y953000D01*
X-745588Y961080D01*
X-743173Y970091D01*
Y979421D01*
X-745588Y988433D01*
X-750253Y996512D01*
X-756850Y1003110D01*
X-764930Y1007774D01*
X-773942Y1010189D01*
D02*
G37*
G36*
X346656Y931890D02*
X336808D01*
X327296Y929341D01*
X318767Y924417D01*
X311804Y917453D01*
X306880Y908925D01*
X304331Y899412D01*
Y889564D01*
X306880Y880052D01*
X311804Y871523D01*
X318767Y864560D01*
X327296Y859636D01*
X336808Y857087D01*
X346656D01*
X356169Y859636D01*
X364697Y864560D01*
X371661Y871523D01*
X376585Y880052D01*
X379134Y889564D01*
Y899412D01*
X376585Y908925D01*
X371661Y917453D01*
X364697Y924417D01*
X356169Y929341D01*
X346656Y931890D01*
D02*
G37*
G36*
X246656D02*
X236808D01*
X227296Y929341D01*
X218767Y924417D01*
X211804Y917453D01*
X206880Y908925D01*
X204331Y899412D01*
Y889564D01*
X206880Y880052D01*
X211804Y871523D01*
X218767Y864560D01*
X227296Y859636D01*
X236808Y857087D01*
X246656D01*
X256169Y859636D01*
X264697Y864560D01*
X271661Y871523D01*
X276585Y880052D01*
X279134Y889564D01*
Y899412D01*
X276585Y908925D01*
X271661Y917453D01*
X264697Y924417D01*
X256169Y929341D01*
X246656Y931890D01*
D02*
G37*
G36*
X-575112Y909449D02*
X-582368D01*
X-589378Y907571D01*
X-595662Y903942D01*
X-600793Y898811D01*
X-604421Y892527D01*
X-606299Y885518D01*
Y878262D01*
X-604421Y871252D01*
X-600793Y864968D01*
X-595662Y859837D01*
X-589378Y856209D01*
X-582368Y854331D01*
X-575112D01*
X-568103Y856209D01*
X-561819Y859837D01*
X-556688Y864968D01*
X-553059Y871252D01*
X-551181Y878262D01*
Y885518D01*
X-553059Y892527D01*
X-556688Y898811D01*
X-561819Y903942D01*
X-568103Y907571D01*
X-575112Y909449D01*
D02*
G37*
G36*
X-773942Y910189D02*
X-783271D01*
X-792283Y907774D01*
X-800363Y903110D01*
X-806960Y896512D01*
X-811625Y888433D01*
X-814039Y879421D01*
Y870091D01*
X-811625Y861080D01*
X-806960Y853000D01*
X-800363Y846403D01*
X-792283Y841738D01*
X-783271Y839323D01*
X-773942D01*
X-764930Y841738D01*
X-756850Y846403D01*
X-750253Y853000D01*
X-745588Y861080D01*
X-743173Y870091D01*
Y879421D01*
X-745588Y888433D01*
X-750253Y896512D01*
X-756850Y903110D01*
X-764930Y907774D01*
X-773942Y910189D01*
D02*
G37*
G36*
X488191Y850583D02*
X476376D01*
X464963Y847525D01*
X454730Y841617D01*
X446375Y833262D01*
X440468Y823029D01*
X437409Y811616D01*
Y799801D01*
X440468Y788388D01*
X446375Y778155D01*
X454730Y769801D01*
X464963Y763893D01*
X476376Y760835D01*
X488191D01*
X499604Y763893D01*
X509837Y769801D01*
X518192Y778155D01*
X524099Y788388D01*
X525134Y792250D01*
X571938D01*
X572449Y790341D01*
X578094Y780564D01*
X586076Y772582D01*
X595853Y766938D01*
X606757Y764016D01*
X618046D01*
X628950Y766938D01*
X638727Y772582D01*
X646709Y780564D01*
X652354Y790341D01*
X655276Y801245D01*
Y812534D01*
X652354Y823439D01*
X646709Y833215D01*
X638727Y841198D01*
X628950Y846842D01*
X618046Y849764D01*
X606757D01*
X595853Y846842D01*
X586076Y841198D01*
X578094Y833215D01*
X572449Y823439D01*
X571621Y820349D01*
X524818D01*
X524099Y823029D01*
X518192Y833262D01*
X509837Y841617D01*
X499604Y847525D01*
X488191Y850583D01*
D02*
G37*
G36*
X346656Y831890D02*
X336808D01*
X327296Y829341D01*
X318767Y824417D01*
X311804Y817453D01*
X306880Y808925D01*
X304331Y799412D01*
Y789564D01*
X306880Y780052D01*
X311804Y771523D01*
X318767Y764560D01*
X327296Y759636D01*
X336808Y757087D01*
X346656D01*
X356169Y759636D01*
X364697Y764560D01*
X371661Y771523D01*
X376585Y780052D01*
X379134Y789564D01*
Y799412D01*
X376585Y808925D01*
X371661Y817453D01*
X364697Y824417D01*
X356169Y829341D01*
X346656Y831890D01*
D02*
G37*
G36*
X246656D02*
X236808D01*
X227296Y829341D01*
X218767Y824417D01*
X211804Y817453D01*
X206880Y808925D01*
X204331Y799412D01*
Y789564D01*
X206880Y780052D01*
X211804Y771523D01*
X218767Y764560D01*
X227296Y759636D01*
X236808Y757087D01*
X246656D01*
X256169Y759636D01*
X264697Y764560D01*
X271661Y771523D01*
X276585Y780052D01*
X279134Y789564D01*
Y799412D01*
X276585Y808925D01*
X271661Y817453D01*
X264697Y824417D01*
X256169Y829341D01*
X246656Y831890D01*
D02*
G37*
G36*
X-773942Y810189D02*
X-783271D01*
X-792283Y807774D01*
X-800363Y803110D01*
X-806960Y796512D01*
X-811625Y788433D01*
X-814039Y779421D01*
Y770091D01*
X-811625Y761080D01*
X-806960Y753000D01*
X-800363Y746403D01*
X-792283Y741738D01*
X-783271Y739323D01*
X-773942D01*
X-764930Y741738D01*
X-756850Y746403D01*
X-750253Y753000D01*
X-745588Y761080D01*
X-743173Y770091D01*
Y779421D01*
X-745588Y788433D01*
X-750253Y796512D01*
X-756850Y803110D01*
X-764930Y807774D01*
X-773942Y810189D01*
D02*
G37*
G36*
X478191Y750583D02*
X466376D01*
X454963Y747525D01*
X444730Y741617D01*
X436375Y733262D01*
X430468Y723029D01*
X427409Y711616D01*
Y699801D01*
X430468Y688388D01*
X436375Y678155D01*
X444730Y669801D01*
X454963Y663893D01*
X466376Y660835D01*
X478191D01*
X489604Y663893D01*
X499837Y669801D01*
X508192Y678155D01*
X514099Y688388D01*
X515134Y692250D01*
X571938D01*
X572449Y690341D01*
X578094Y680564D01*
X586076Y672582D01*
X595853Y666938D01*
X606757Y664016D01*
X618046D01*
X628950Y666938D01*
X638727Y672582D01*
X646709Y680564D01*
X652354Y690341D01*
X655276Y701245D01*
Y712534D01*
X652354Y723439D01*
X646709Y733215D01*
X638727Y741198D01*
X628950Y746842D01*
X618046Y749764D01*
X606757D01*
X595853Y746842D01*
X586076Y741198D01*
X578094Y733215D01*
X572449Y723439D01*
X571621Y720349D01*
X514818D01*
X514099Y723029D01*
X508192Y733262D01*
X499837Y741617D01*
X489604Y747525D01*
X478191Y750583D01*
D02*
G37*
G36*
X246656Y731890D02*
X236808D01*
X227296Y729341D01*
X218767Y724417D01*
X211804Y717453D01*
X206880Y708925D01*
X204331Y699412D01*
Y689564D01*
X206880Y680052D01*
X211804Y671523D01*
X218767Y664560D01*
X227296Y659636D01*
X236808Y657087D01*
X246656D01*
X256169Y659636D01*
X264697Y664560D01*
X271661Y671523D01*
X276585Y680052D01*
X279134Y689564D01*
Y699412D01*
X276585Y708925D01*
X271661Y717453D01*
X264697Y724417D01*
X256169Y729341D01*
X246656Y731890D01*
D02*
G37*
G36*
X-1453344D02*
X-1463192D01*
X-1472704Y729341D01*
X-1481233Y724417D01*
X-1488196Y717453D01*
X-1493120Y708925D01*
X-1495669Y699412D01*
Y689564D01*
X-1493120Y680052D01*
X-1488196Y671523D01*
X-1481233Y664560D01*
X-1472704Y659636D01*
X-1463192Y657087D01*
X-1453344D01*
X-1443831Y659636D01*
X-1435303Y664560D01*
X-1428339Y671523D01*
X-1423415Y680052D01*
X-1420866Y689564D01*
Y699412D01*
X-1423415Y708925D01*
X-1428339Y717453D01*
X-1435303Y724417D01*
X-1443831Y729341D01*
X-1453344Y731890D01*
D02*
G37*
G36*
X-773942Y710189D02*
X-783271D01*
X-792283Y707774D01*
X-800363Y703110D01*
X-806960Y696512D01*
X-811625Y688433D01*
X-814039Y679421D01*
Y670091D01*
X-811625Y661080D01*
X-806960Y653000D01*
X-800363Y646403D01*
X-792283Y641738D01*
X-783271Y639323D01*
X-773942D01*
X-764930Y641738D01*
X-756850Y646403D01*
X-750253Y653000D01*
X-745588Y661080D01*
X-743173Y670091D01*
Y679421D01*
X-745588Y688433D01*
X-750253Y696512D01*
X-756850Y703110D01*
X-764930Y707774D01*
X-773942Y710189D01*
D02*
G37*
G36*
X488191Y650583D02*
X476376D01*
X464963Y647525D01*
X454730Y641617D01*
X446375Y633262D01*
X440468Y623029D01*
X437409Y611616D01*
Y599801D01*
X440468Y588388D01*
X446375Y578155D01*
X454730Y569801D01*
X464963Y563893D01*
X476376Y560835D01*
X488191D01*
X499604Y563893D01*
X509837Y569801D01*
X518192Y578155D01*
X524099Y588388D01*
X525134Y592250D01*
X571938D01*
X572449Y590341D01*
X578094Y580564D01*
X586076Y572582D01*
X595853Y566938D01*
X606757Y564016D01*
X618046D01*
X628950Y566938D01*
X638727Y572582D01*
X646709Y580564D01*
X652354Y590341D01*
X655276Y601245D01*
Y612534D01*
X652354Y623439D01*
X646709Y633215D01*
X638727Y641198D01*
X628950Y646842D01*
X618046Y649764D01*
X606757D01*
X595853Y646842D01*
X586076Y641198D01*
X578094Y633215D01*
X572449Y623439D01*
X571621Y620349D01*
X524818D01*
X524099Y623029D01*
X518192Y633262D01*
X509837Y641617D01*
X499604Y647525D01*
X488191Y650583D01*
D02*
G37*
G36*
X346656Y631890D02*
X336808D01*
X327296Y629341D01*
X318767Y624417D01*
X311804Y617453D01*
X306880Y608925D01*
X304331Y599412D01*
Y589564D01*
X306880Y580052D01*
X311804Y571523D01*
X318767Y564560D01*
X327296Y559636D01*
X336808Y557087D01*
X346656D01*
X356169Y559636D01*
X364697Y564560D01*
X371661Y571523D01*
X376585Y580052D01*
X379134Y589564D01*
Y599412D01*
X376585Y608925D01*
X371661Y617453D01*
X364697Y624417D01*
X356169Y629341D01*
X346656Y631890D01*
D02*
G37*
G36*
X-1353344D02*
X-1363192D01*
X-1372704Y629341D01*
X-1381233Y624417D01*
X-1388196Y617453D01*
X-1393120Y608925D01*
X-1395669Y599412D01*
Y589564D01*
X-1393120Y580052D01*
X-1388196Y571523D01*
X-1381233Y564560D01*
X-1372704Y559636D01*
X-1363192Y557087D01*
X-1353344D01*
X-1343831Y559636D01*
X-1335303Y564560D01*
X-1328339Y571523D01*
X-1323415Y580052D01*
X-1320866Y589564D01*
Y599412D01*
X-1323415Y608925D01*
X-1328339Y617453D01*
X-1335303Y624417D01*
X-1343831Y629341D01*
X-1353344Y631890D01*
D02*
G37*
G36*
X-1453344D02*
X-1463192D01*
X-1472704Y629341D01*
X-1481233Y624417D01*
X-1488196Y617453D01*
X-1493120Y608925D01*
X-1495669Y599412D01*
Y589564D01*
X-1493120Y580052D01*
X-1488196Y571523D01*
X-1481233Y564560D01*
X-1472704Y559636D01*
X-1463192Y557087D01*
X-1453344D01*
X-1443831Y559636D01*
X-1435303Y564560D01*
X-1428339Y571523D01*
X-1423415Y580052D01*
X-1420866Y589564D01*
Y599412D01*
X-1423415Y608925D01*
X-1428339Y617453D01*
X-1435303Y624417D01*
X-1443831Y629341D01*
X-1453344Y631890D01*
D02*
G37*
G36*
X880586Y610189D02*
X871256D01*
X862245Y607774D01*
X854165Y603110D01*
X847568Y596512D01*
X842903Y588433D01*
X840488Y579421D01*
Y570091D01*
X842903Y561080D01*
X847568Y553000D01*
X854165Y546403D01*
X862245Y541738D01*
X871256Y539323D01*
X880586D01*
X889598Y541738D01*
X897678Y546403D01*
X904275Y553000D01*
X908940Y561080D01*
X911354Y570091D01*
Y579421D01*
X908940Y588433D01*
X904275Y596512D01*
X897678Y603110D01*
X889598Y607774D01*
X880586Y610189D01*
D02*
G37*
G36*
X780586D02*
X771256D01*
X762245Y607774D01*
X754165Y603110D01*
X747568Y596512D01*
X742903Y588433D01*
X740488Y579421D01*
Y570091D01*
X742792Y561495D01*
X719530Y538234D01*
X716485Y533676D01*
X715415Y528299D01*
Y291205D01*
X716485Y285828D01*
X719530Y281270D01*
X747761Y253039D01*
Y-97527D01*
X658551Y-186738D01*
X535347D01*
X532597Y-183988D01*
X373647Y-25038D01*
X376585Y-19948D01*
X379134Y-10436D01*
Y-588D01*
X376585Y8925D01*
X371661Y17453D01*
X364697Y24417D01*
X356169Y29341D01*
X346656Y31890D01*
X336808D01*
X327296Y29341D01*
X318767Y24417D01*
X311804Y17453D01*
X306880Y8925D01*
X304331Y-588D01*
Y-10436D01*
X306880Y-19948D01*
X311804Y-28477D01*
X318767Y-35440D01*
X327296Y-40364D01*
X336808Y-42913D01*
X346656D01*
X350701Y-41830D01*
X512729Y-203857D01*
X519593Y-210722D01*
X524151Y-213767D01*
X529528Y-214837D01*
X664370D01*
X669747Y-213767D01*
X674305Y-210722D01*
X771745Y-113281D01*
X774791Y-108723D01*
X775861Y-103347D01*
Y258858D01*
X774791Y264235D01*
X771745Y268793D01*
X743514Y297024D01*
Y346976D01*
X748514Y349047D01*
X752860Y344701D01*
X761424Y339757D01*
X766079Y338510D01*
Y374756D01*
X785764D01*
Y338510D01*
X790418Y339757D01*
X798983Y344701D01*
X803328Y349047D01*
X808328Y346976D01*
Y-107826D01*
X684141Y-232013D01*
X488103D01*
X376385Y-120295D01*
X376585Y-119948D01*
X379134Y-110436D01*
Y-100588D01*
X376585Y-91075D01*
X371661Y-82547D01*
X364697Y-75583D01*
X356169Y-70659D01*
X346656Y-68110D01*
X336808D01*
X327296Y-70659D01*
X318767Y-75583D01*
X311804Y-82547D01*
X306880Y-91075D01*
X304331Y-100588D01*
Y-110436D01*
X306880Y-119948D01*
X311804Y-128477D01*
X318767Y-135440D01*
X327296Y-140364D01*
X336808Y-142913D01*
X346656D01*
X356169Y-140364D01*
X356516Y-140164D01*
X472349Y-255998D01*
X476907Y-259043D01*
X482284Y-260113D01*
X689961D01*
X695337Y-259043D01*
X699895Y-255998D01*
X832312Y-123580D01*
X835358Y-119022D01*
X836428Y-113646D01*
Y365928D01*
X841428Y366586D01*
X842903Y361079D01*
X847568Y353000D01*
X854165Y346403D01*
X862245Y341738D01*
X871256Y339323D01*
X880586D01*
X889598Y341738D01*
X897678Y346403D01*
X904275Y353000D01*
X908940Y361079D01*
X911354Y370091D01*
Y379421D01*
X908940Y388433D01*
X904275Y396512D01*
X897678Y403110D01*
X889598Y407774D01*
X880586Y410189D01*
X871256D01*
X862245Y407774D01*
X854165Y403110D01*
X847568Y396512D01*
X842903Y388433D01*
X841428Y382926D01*
X836428Y383584D01*
Y435496D01*
X835358Y440873D01*
X832312Y445430D01*
X810572Y467171D01*
X811354Y470091D01*
Y479421D01*
X808940Y488433D01*
X804275Y496512D01*
X797678Y503110D01*
X789598Y507774D01*
X780586Y510189D01*
X771256D01*
X762245Y507774D01*
X754165Y503110D01*
X748514Y497459D01*
X743514Y498797D01*
Y522480D01*
X762661Y541626D01*
X771256Y539323D01*
X780586D01*
X789598Y541738D01*
X797678Y546403D01*
X804275Y553000D01*
X808940Y561080D01*
X811354Y570091D01*
Y579421D01*
X808940Y588433D01*
X804275Y596512D01*
X797678Y603110D01*
X789598Y607774D01*
X780586Y610189D01*
D02*
G37*
G36*
X-773942D02*
X-783271D01*
X-792283Y607774D01*
X-800363Y603110D01*
X-806960Y596512D01*
X-811625Y588433D01*
X-814039Y579421D01*
Y570091D01*
X-811625Y561080D01*
X-806960Y553000D01*
X-800363Y546403D01*
X-792283Y541738D01*
X-783271Y539323D01*
X-773942D01*
X-764930Y541738D01*
X-756850Y546403D01*
X-750253Y553000D01*
X-745588Y561080D01*
X-743173Y570091D01*
Y579421D01*
X-745588Y588433D01*
X-750253Y596512D01*
X-756850Y603110D01*
X-764930Y607774D01*
X-773942Y610189D01*
D02*
G37*
G36*
X246656Y631890D02*
X236808D01*
X227296Y629341D01*
X218767Y624417D01*
X211804Y617453D01*
X206880Y608925D01*
X204331Y599412D01*
Y589564D01*
X206880Y580052D01*
X211804Y571523D01*
X218767Y564560D01*
X227296Y559636D01*
X236808Y557087D01*
X246656D01*
X256169Y559636D01*
X256516Y559836D01*
X276108Y540244D01*
Y518788D01*
X271108Y518006D01*
X264697Y524417D01*
X256169Y529341D01*
X246656Y531890D01*
X236808D01*
X227296Y529341D01*
X218767Y524417D01*
X211804Y517453D01*
X206880Y508925D01*
X204331Y499412D01*
Y489564D01*
X206880Y480052D01*
X211804Y471523D01*
X218767Y464560D01*
X227296Y459636D01*
X236808Y457087D01*
X246656D01*
X256169Y459636D01*
X264697Y464560D01*
X271108Y470970D01*
X276108Y470188D01*
Y418788D01*
X271108Y418006D01*
X264697Y424417D01*
X256169Y429341D01*
X246656Y431890D01*
X236808D01*
X227296Y429341D01*
X218767Y424417D01*
X211804Y417453D01*
X206880Y408925D01*
X204331Y399412D01*
Y389564D01*
X206880Y380052D01*
X211804Y371523D01*
X218767Y364560D01*
X227296Y359636D01*
X236808Y357087D01*
X246656D01*
X256169Y359636D01*
X264697Y364560D01*
X271108Y370970D01*
X276108Y370188D01*
Y318788D01*
X271108Y318006D01*
X264697Y324417D01*
X256169Y329341D01*
X246656Y331890D01*
X236808D01*
X227296Y329341D01*
X218767Y324417D01*
X211804Y317453D01*
X206880Y308925D01*
X204331Y299412D01*
Y289564D01*
X206880Y280052D01*
X211804Y271523D01*
X218767Y264560D01*
X227296Y259636D01*
X236808Y257087D01*
X246656D01*
X256169Y259636D01*
X264697Y264560D01*
X271661Y271523D01*
X272073Y272237D01*
X274900Y272218D01*
X277526Y271682D01*
X280223Y267645D01*
X314889Y232979D01*
X318926Y230282D01*
X319462Y227656D01*
X319481Y224829D01*
X318767Y224417D01*
X311804Y217453D01*
X306880Y208925D01*
X304331Y199412D01*
Y189564D01*
X306880Y180052D01*
X311804Y171523D01*
X318767Y164560D01*
X327296Y159636D01*
X336808Y157087D01*
X346656D01*
X356169Y159636D01*
X364697Y164560D01*
X371661Y171523D01*
X376585Y180052D01*
X378588Y187528D01*
X383588Y186870D01*
Y113189D01*
X384658Y107812D01*
X387703Y103254D01*
X475433Y15524D01*
X474016Y10233D01*
Y1578D01*
X476256Y-6783D01*
X480584Y-14280D01*
X486705Y-20400D01*
X494201Y-24728D01*
X502562Y-26968D01*
X511218D01*
X519579Y-24728D01*
X527075Y-20400D01*
X533196Y-14280D01*
X536738Y-8144D01*
X572043D01*
X572449Y-9659D01*
X578094Y-19436D01*
X586076Y-27418D01*
X595853Y-33062D01*
X606757Y-35984D01*
X618046D01*
X628950Y-33062D01*
X638727Y-27418D01*
X646709Y-19436D01*
X652354Y-9659D01*
X655276Y1245D01*
Y12534D01*
X652354Y23439D01*
X646709Y33215D01*
X638727Y41198D01*
X628950Y46842D01*
X618046Y49764D01*
X606757D01*
X595853Y46842D01*
X586076Y41198D01*
X578094Y33215D01*
X572449Y23439D01*
X571516Y19955D01*
X536738D01*
X533196Y26091D01*
X527075Y32211D01*
X519579Y36539D01*
X511218Y38779D01*
X502562D01*
X494201Y36539D01*
X494173Y36523D01*
X411687Y119008D01*
Y220472D01*
X410618Y225849D01*
X407572Y230407D01*
X385131Y252848D01*
X380573Y255893D01*
X375197Y256963D01*
X361539D01*
X360200Y261963D01*
X364697Y264560D01*
X371661Y271523D01*
X376585Y280052D01*
X379134Y289564D01*
Y299412D01*
X376585Y308925D01*
X371661Y317453D01*
X364697Y324417D01*
X356169Y329341D01*
X346656Y331890D01*
X336808D01*
X327296Y329341D01*
X318767Y324417D01*
X311804Y317453D01*
X309207Y312956D01*
X304207Y314295D01*
Y374681D01*
X309207Y376021D01*
X311804Y371523D01*
X318767Y364560D01*
X327296Y359636D01*
X336808Y357087D01*
X346656D01*
X356169Y359636D01*
X364697Y364560D01*
X371661Y371523D01*
X376585Y380052D01*
X379134Y389564D01*
Y399412D01*
X376585Y408925D01*
X371661Y417453D01*
X364697Y424417D01*
X356169Y429341D01*
X346656Y431890D01*
X336808D01*
X327296Y429341D01*
X318767Y424417D01*
X311804Y417453D01*
X309207Y412956D01*
X304207Y414295D01*
Y470429D01*
X309207Y471769D01*
X310102Y470218D01*
X317462Y462858D01*
X326475Y457654D01*
X331890Y456204D01*
Y494488D01*
Y532773D01*
X326475Y531322D01*
X317462Y526118D01*
X310102Y518759D01*
X309207Y517208D01*
X304207Y518548D01*
Y546063D01*
X303137Y551439D01*
X300092Y555997D01*
X276385Y579705D01*
X276585Y580052D01*
X279134Y589564D01*
Y599412D01*
X276585Y608925D01*
X271661Y617453D01*
X264697Y624417D01*
X256169Y629341D01*
X246656Y631890D01*
D02*
G37*
G36*
X351575Y532773D02*
Y504331D01*
X380017D01*
X378566Y509745D01*
X373362Y518759D01*
X366003Y526118D01*
X356989Y531322D01*
X351575Y532773D01*
D02*
G37*
G36*
X-1448425D02*
Y504331D01*
X-1419983D01*
X-1421434Y509745D01*
X-1426638Y518759D01*
X-1433997Y526118D01*
X-1443011Y531322D01*
X-1448425Y532773D01*
D02*
G37*
G36*
X-1468110Y532773D02*
X-1473525Y531322D01*
X-1482538Y526118D01*
X-1489898Y518759D01*
X-1495101Y509745D01*
X-1496552Y504331D01*
X-1468110D01*
Y532773D01*
D02*
G37*
G36*
X478191Y550583D02*
X466376D01*
X454963Y547525D01*
X444730Y541617D01*
X436375Y533262D01*
X430468Y523029D01*
X427409Y511616D01*
Y499801D01*
X430468Y488388D01*
X436375Y478155D01*
X444730Y469801D01*
X454963Y463893D01*
X466376Y460835D01*
X478191D01*
X489604Y463893D01*
X499837Y469801D01*
X508192Y478155D01*
X514099Y488388D01*
X515134Y492250D01*
X571938D01*
X572449Y490341D01*
X578094Y480565D01*
X586076Y472582D01*
X595853Y466938D01*
X606757Y464016D01*
X618046D01*
X628950Y466938D01*
X638727Y472582D01*
X646709Y480565D01*
X652354Y490341D01*
X655276Y501245D01*
Y512534D01*
X652354Y523439D01*
X646709Y533215D01*
X638727Y541198D01*
X628950Y546842D01*
X618046Y549764D01*
X606757D01*
X595853Y546842D01*
X586076Y541198D01*
X578094Y533215D01*
X572449Y523439D01*
X571621Y520349D01*
X514818D01*
X514099Y523029D01*
X508192Y533262D01*
X499837Y541617D01*
X489604Y547525D01*
X478191Y550583D01*
D02*
G37*
G36*
X-1353344Y531890D02*
X-1363192D01*
X-1372704Y529341D01*
X-1381233Y524417D01*
X-1388196Y517453D01*
X-1393120Y508925D01*
X-1395669Y499412D01*
Y489564D01*
X-1393120Y480052D01*
X-1388196Y471523D01*
X-1381233Y464560D01*
X-1372704Y459636D01*
X-1363192Y457087D01*
X-1353344D01*
X-1343831Y459636D01*
X-1335303Y464560D01*
X-1328339Y471523D01*
X-1323415Y480052D01*
X-1320866Y489564D01*
Y499412D01*
X-1323415Y508925D01*
X-1328339Y517453D01*
X-1335303Y524417D01*
X-1343831Y529341D01*
X-1353344Y531890D01*
D02*
G37*
G36*
X380017Y484646D02*
X351575D01*
Y456204D01*
X356989Y457654D01*
X366003Y462858D01*
X373362Y470218D01*
X378566Y479231D01*
X380017Y484646D01*
D02*
G37*
G36*
X-1419983D02*
X-1448425D01*
Y456204D01*
X-1443011Y457654D01*
X-1433997Y462858D01*
X-1426638Y470218D01*
X-1421434Y479231D01*
X-1419983Y484646D01*
D02*
G37*
G36*
X-1468110D02*
X-1496552D01*
X-1495101Y479231D01*
X-1489898Y470218D01*
X-1482538Y462858D01*
X-1473525Y457654D01*
X-1468110Y456204D01*
Y484646D01*
D02*
G37*
G36*
X880586Y510189D02*
X871256D01*
X862245Y507774D01*
X854165Y503110D01*
X847568Y496512D01*
X842903Y488433D01*
X840488Y479421D01*
Y470091D01*
X842903Y461079D01*
X847568Y453000D01*
X854165Y446403D01*
X862245Y441738D01*
X871256Y439323D01*
X880586D01*
X889598Y441738D01*
X897678Y446403D01*
X904275Y453000D01*
X908940Y461079D01*
X911354Y470091D01*
Y479421D01*
X908940Y488433D01*
X904275Y496512D01*
X897678Y503110D01*
X889598Y507774D01*
X880586Y510189D01*
D02*
G37*
G36*
X-773942D02*
X-783271D01*
X-792283Y507774D01*
X-800363Y503110D01*
X-806960Y496512D01*
X-811625Y488433D01*
X-814039Y479421D01*
Y470091D01*
X-811625Y461079D01*
X-806960Y453000D01*
X-800363Y446403D01*
X-792283Y441738D01*
X-783271Y439323D01*
X-773942D01*
X-764930Y441738D01*
X-756850Y446403D01*
X-750253Y453000D01*
X-745588Y461079D01*
X-743173Y470091D01*
Y479421D01*
X-745588Y488433D01*
X-750253Y496512D01*
X-756850Y503110D01*
X-764930Y507774D01*
X-773942Y510189D01*
D02*
G37*
G36*
X618046Y449764D02*
X606757D01*
X595853Y446842D01*
X586076Y441198D01*
X578094Y433215D01*
X572449Y423439D01*
X571199Y418774D01*
X534504D01*
X532211Y422744D01*
X526091Y428865D01*
X518594Y433193D01*
X510233Y435433D01*
X501578D01*
X493217Y433193D01*
X485720Y428865D01*
X479600Y422744D01*
X475272Y415248D01*
X473031Y406887D01*
Y398231D01*
X475272Y389870D01*
X479600Y382374D01*
X485720Y376253D01*
X493217Y371925D01*
X501578Y369685D01*
X510233D01*
X518594Y371925D01*
X526091Y376253D01*
X532211Y382374D01*
X536539Y389870D01*
X536755Y390675D01*
X572360D01*
X572449Y390341D01*
X578094Y380565D01*
X586076Y372582D01*
X595853Y366938D01*
X606757Y364016D01*
X618046D01*
X628950Y366938D01*
X638727Y372582D01*
X646709Y380565D01*
X652354Y390341D01*
X655276Y401245D01*
Y412534D01*
X652354Y423439D01*
X646709Y433215D01*
X638727Y441198D01*
X628950Y446842D01*
X618046Y449764D01*
D02*
G37*
G36*
X-868764Y411003D02*
Y384598D01*
X-842360D01*
X-843607Y389253D01*
X-848552Y397818D01*
X-855544Y404811D01*
X-864109Y409755D01*
X-868764Y411003D01*
D02*
G37*
G36*
X-888449D02*
X-893104Y409755D01*
X-901668Y404811D01*
X-908661Y397818D01*
X-913606Y389253D01*
X-914853Y384598D01*
X-888449D01*
Y411003D01*
D02*
G37*
G36*
X-1353344Y431890D02*
X-1363192D01*
X-1372704Y429341D01*
X-1381233Y424417D01*
X-1388196Y417453D01*
X-1393120Y408925D01*
X-1395669Y399412D01*
Y389564D01*
X-1393120Y380052D01*
X-1388196Y371523D01*
X-1381233Y364560D01*
X-1372704Y359636D01*
X-1363192Y357087D01*
X-1353344D01*
X-1343831Y359636D01*
X-1335303Y364560D01*
X-1328339Y371523D01*
X-1323415Y380052D01*
X-1320866Y389564D01*
Y399412D01*
X-1323415Y408925D01*
X-1328339Y417453D01*
X-1335303Y424417D01*
X-1343831Y429341D01*
X-1353344Y431890D01*
D02*
G37*
G36*
X-1453344D02*
X-1463192D01*
X-1472704Y429341D01*
X-1481233Y424417D01*
X-1488196Y417453D01*
X-1493120Y408925D01*
X-1495669Y399412D01*
Y389564D01*
X-1493120Y380052D01*
X-1488196Y371523D01*
X-1481233Y364560D01*
X-1472704Y359636D01*
X-1463192Y357087D01*
X-1453344D01*
X-1443831Y359636D01*
X-1435303Y364560D01*
X-1428339Y371523D01*
X-1423415Y380052D01*
X-1420866Y389564D01*
Y399412D01*
X-1423415Y408925D01*
X-1428339Y417453D01*
X-1435303Y424417D01*
X-1443831Y429341D01*
X-1453344Y431890D01*
D02*
G37*
G36*
X-773942Y410189D02*
X-783271D01*
X-792283Y407774D01*
X-800363Y403110D01*
X-806960Y396512D01*
X-811625Y388433D01*
X-814039Y379421D01*
Y370091D01*
X-811625Y361079D01*
X-806960Y353000D01*
X-800363Y346403D01*
X-792283Y341738D01*
X-783271Y339323D01*
X-773942D01*
X-764930Y341738D01*
X-756850Y346403D01*
X-750253Y353000D01*
X-745588Y361079D01*
X-743173Y370091D01*
Y379421D01*
X-745588Y388433D01*
X-750253Y396512D01*
X-756850Y403110D01*
X-764930Y407774D01*
X-773942Y410189D01*
D02*
G37*
G36*
X-842360Y364913D02*
X-868764D01*
Y338510D01*
X-864109Y339757D01*
X-855544Y344701D01*
X-848552Y351694D01*
X-843607Y360259D01*
X-842360Y364913D01*
D02*
G37*
G36*
X-888449D02*
X-914853D01*
X-913606Y360259D01*
X-908661Y351694D01*
X-901668Y344701D01*
X-893104Y339757D01*
X-888449Y338510D01*
Y364913D01*
D02*
G37*
G36*
X346656Y731890D02*
X336808D01*
X327296Y729341D01*
X318767Y724417D01*
X311804Y717453D01*
X306880Y708925D01*
X304331Y699412D01*
Y689564D01*
X306880Y680052D01*
X311804Y671523D01*
X318767Y664560D01*
X327296Y659636D01*
X336808Y657087D01*
X346656D01*
X356169Y659636D01*
X356516Y659836D01*
X390478Y625873D01*
Y406496D01*
X391548Y401120D01*
X394593Y396562D01*
X473979Y317175D01*
X472146Y310332D01*
Y301676D01*
X474386Y293315D01*
X478714Y285819D01*
X484835Y279698D01*
X492331Y275370D01*
X500692Y273130D01*
X509348D01*
X517709Y275370D01*
X525205Y279698D01*
X531326Y285819D01*
X534868Y291954D01*
X572017D01*
X572449Y290341D01*
X578094Y280565D01*
X586076Y272582D01*
X595853Y266938D01*
X606757Y264016D01*
X618046D01*
X628950Y266938D01*
X638727Y272582D01*
X646709Y280565D01*
X652354Y290341D01*
X655276Y301245D01*
Y312534D01*
X652354Y323439D01*
X646709Y333215D01*
X638727Y341198D01*
X628950Y346842D01*
X618046Y349764D01*
X606757D01*
X595853Y346842D01*
X586076Y341198D01*
X578094Y333215D01*
X572449Y323439D01*
X571542Y320053D01*
X534868D01*
X531326Y326189D01*
X525205Y332310D01*
X517709Y336638D01*
X509348Y338878D01*
X500692D01*
X493848Y337044D01*
X418577Y412315D01*
Y631693D01*
X417508Y637069D01*
X414462Y641627D01*
X376385Y679705D01*
X376585Y680052D01*
X379134Y689564D01*
Y699412D01*
X376585Y708925D01*
X371661Y717453D01*
X364697Y724417D01*
X356169Y729341D01*
X346656Y731890D01*
D02*
G37*
G36*
X-1353344Y331890D02*
X-1363192D01*
X-1372704Y329341D01*
X-1381233Y324417D01*
X-1388196Y317453D01*
X-1393120Y308925D01*
X-1395669Y299412D01*
Y289564D01*
X-1393120Y280052D01*
X-1388196Y271523D01*
X-1381233Y264560D01*
X-1372704Y259636D01*
X-1363192Y257087D01*
X-1353344D01*
X-1343831Y259636D01*
X-1335303Y264560D01*
X-1328339Y271523D01*
X-1323415Y280052D01*
X-1320866Y289564D01*
Y299412D01*
X-1323415Y308925D01*
X-1328339Y317453D01*
X-1335303Y324417D01*
X-1343831Y329341D01*
X-1353344Y331890D01*
D02*
G37*
G36*
X-1453344D02*
X-1463192D01*
X-1472704Y329341D01*
X-1481233Y324417D01*
X-1488196Y317453D01*
X-1493120Y308925D01*
X-1495669Y299412D01*
Y289564D01*
X-1493120Y280052D01*
X-1488196Y271523D01*
X-1481233Y264560D01*
X-1472704Y259636D01*
X-1463192Y257087D01*
X-1453344D01*
X-1443831Y259636D01*
X-1435303Y264560D01*
X-1428339Y271523D01*
X-1423415Y280052D01*
X-1420866Y289564D01*
Y299412D01*
X-1423415Y308925D01*
X-1428339Y317453D01*
X-1435303Y324417D01*
X-1443831Y329341D01*
X-1453344Y331890D01*
D02*
G37*
G36*
X618046Y249764D02*
X606757D01*
X595853Y246842D01*
X586076Y241198D01*
X578094Y233215D01*
X572449Y223439D01*
X571358Y219364D01*
X534845D01*
X532211Y223925D01*
X526091Y230046D01*
X518594Y234374D01*
X510233Y236614D01*
X501578D01*
X493217Y234374D01*
X485720Y230046D01*
X479600Y223925D01*
X475272Y216429D01*
X473031Y208068D01*
Y199412D01*
X475272Y191051D01*
X479600Y183555D01*
X485720Y177434D01*
X493217Y173107D01*
X501578Y170866D01*
X510233D01*
X518594Y173107D01*
X526091Y177434D01*
X532211Y183555D01*
X536539Y191051D01*
X536597Y191266D01*
X572202D01*
X572449Y190341D01*
X578094Y180565D01*
X586076Y172582D01*
X595853Y166938D01*
X606757Y164016D01*
X618046D01*
X628950Y166938D01*
X638727Y172582D01*
X646709Y180565D01*
X652354Y190341D01*
X655276Y201245D01*
Y212534D01*
X652354Y223439D01*
X646709Y233215D01*
X638727Y241198D01*
X628950Y246842D01*
X618046Y249764D01*
D02*
G37*
G36*
X246656Y231890D02*
X236808D01*
X227296Y229341D01*
X218767Y224417D01*
X211804Y217453D01*
X206880Y208925D01*
X206776Y208538D01*
X-100787D01*
X-106164Y207468D01*
X-110722Y204423D01*
X-551273Y-236129D01*
X-554319Y-240686D01*
X-555388Y-246063D01*
Y-769291D01*
X-554319Y-774668D01*
X-551273Y-779226D01*
X-484611Y-845888D01*
X-486304Y-848821D01*
X-489362Y-860234D01*
Y-872049D01*
X-486304Y-883462D01*
X-480396Y-893695D01*
X-472041Y-902050D01*
X-461809Y-907958D01*
X-450396Y-911016D01*
X-438580D01*
X-427168Y-907958D01*
X-416935Y-902050D01*
X-408580Y-893695D01*
X-402672Y-883462D01*
X-399614Y-872049D01*
Y-860234D01*
X-402672Y-848821D01*
X-408580Y-838588D01*
X-416935Y-830234D01*
X-427168Y-824326D01*
X-438580Y-821268D01*
X-450396D01*
X-461809Y-824326D01*
X-464742Y-826019D01*
X-527289Y-763472D01*
Y-251882D01*
X-94968Y180439D01*
X206776D01*
X206880Y180052D01*
X211804Y171523D01*
X218767Y164560D01*
X227296Y159636D01*
X236808Y157087D01*
X246656D01*
X256169Y159636D01*
X264697Y164560D01*
X271661Y171523D01*
X276585Y180052D01*
X279134Y189564D01*
Y199412D01*
X276585Y208925D01*
X271661Y217453D01*
X264697Y224417D01*
X256169Y229341D01*
X246656Y231890D01*
D02*
G37*
G36*
X-1353344D02*
X-1363192D01*
X-1372704Y229341D01*
X-1381233Y224417D01*
X-1388196Y217453D01*
X-1393120Y208925D01*
X-1395669Y199412D01*
Y189564D01*
X-1393120Y180052D01*
X-1388196Y171523D01*
X-1381233Y164560D01*
X-1372704Y159636D01*
X-1363192Y157087D01*
X-1353344D01*
X-1343831Y159636D01*
X-1335303Y164560D01*
X-1328339Y171523D01*
X-1323415Y180052D01*
X-1320866Y189564D01*
Y199412D01*
X-1323415Y208925D01*
X-1328339Y217453D01*
X-1335303Y224417D01*
X-1343831Y229341D01*
X-1353344Y231890D01*
D02*
G37*
G36*
X-1453344D02*
X-1463192D01*
X-1472704Y229341D01*
X-1481233Y224417D01*
X-1488196Y217453D01*
X-1493120Y208925D01*
X-1495669Y199412D01*
Y189564D01*
X-1493120Y180052D01*
X-1488196Y171523D01*
X-1481233Y164560D01*
X-1472704Y159636D01*
X-1463192Y157087D01*
X-1453344D01*
X-1443831Y159636D01*
X-1435303Y164560D01*
X-1428339Y171523D01*
X-1423415Y180052D01*
X-1420866Y189564D01*
Y199412D01*
X-1423415Y208925D01*
X-1428339Y217453D01*
X-1435303Y224417D01*
X-1443831Y229341D01*
X-1453344Y231890D01*
D02*
G37*
G36*
X618046Y149764D02*
X606757D01*
X595853Y146842D01*
X586076Y141198D01*
X578094Y133215D01*
X572449Y123439D01*
X571569Y120152D01*
X535299D01*
X532211Y125500D01*
X526091Y131621D01*
X518594Y135949D01*
X510233Y138189D01*
X501578D01*
X493217Y135949D01*
X485720Y131621D01*
X479600Y125500D01*
X475272Y118004D01*
X473031Y109643D01*
Y100987D01*
X475272Y92626D01*
X479600Y85130D01*
X485720Y79009D01*
X493217Y74681D01*
X501578Y72441D01*
X510233D01*
X518594Y74681D01*
X526091Y79009D01*
X532211Y85130D01*
X536208Y92053D01*
X571991D01*
X572449Y90341D01*
X578094Y80564D01*
X586076Y72582D01*
X595853Y66938D01*
X606757Y64016D01*
X618046D01*
X628950Y66938D01*
X638727Y72582D01*
X646709Y80564D01*
X652354Y90341D01*
X655276Y101245D01*
Y112534D01*
X652354Y123439D01*
X646709Y133215D01*
X638727Y141198D01*
X628950Y146842D01*
X618046Y149764D01*
D02*
G37*
G36*
X246656Y131890D02*
X236808D01*
X227296Y129341D01*
X218767Y124417D01*
X211804Y117453D01*
X206880Y108925D01*
X204331Y99412D01*
Y89564D01*
X206880Y80052D01*
X211804Y71523D01*
X218767Y64560D01*
X227296Y59636D01*
X236808Y57087D01*
X246656D01*
X256169Y59636D01*
X264697Y64560D01*
X271661Y71523D01*
X276585Y80052D01*
X279134Y89564D01*
Y99412D01*
X276585Y108925D01*
X271661Y117453D01*
X264697Y124417D01*
X256169Y129341D01*
X246656Y131890D01*
D02*
G37*
G36*
X-1353344D02*
X-1363192D01*
X-1372704Y129341D01*
X-1381233Y124417D01*
X-1388196Y117453D01*
X-1393120Y108925D01*
X-1395669Y99412D01*
Y89564D01*
X-1393120Y80052D01*
X-1388196Y71523D01*
X-1381233Y64560D01*
X-1372704Y59636D01*
X-1363192Y57087D01*
X-1353344D01*
X-1343831Y59636D01*
X-1335303Y64560D01*
X-1328339Y71523D01*
X-1323415Y80052D01*
X-1320866Y89564D01*
Y99412D01*
X-1323415Y108925D01*
X-1328339Y117453D01*
X-1335303Y124417D01*
X-1343831Y129341D01*
X-1353344Y131890D01*
D02*
G37*
G36*
X-1453344D02*
X-1463192D01*
X-1472704Y129341D01*
X-1481233Y124417D01*
X-1488196Y117453D01*
X-1493120Y108925D01*
X-1495669Y99412D01*
Y89564D01*
X-1493120Y80052D01*
X-1488196Y71523D01*
X-1481233Y64560D01*
X-1472704Y59636D01*
X-1463192Y57087D01*
X-1453344D01*
X-1443831Y59636D01*
X-1435303Y64560D01*
X-1428339Y71523D01*
X-1423415Y80052D01*
X-1420866Y89564D01*
Y99412D01*
X-1423415Y108925D01*
X-1428339Y117453D01*
X-1435303Y124417D01*
X-1443831Y129341D01*
X-1453344Y131890D01*
D02*
G37*
G36*
X246656Y31890D02*
X236808D01*
X227296Y29341D01*
X218767Y24417D01*
X211804Y17453D01*
X206880Y8925D01*
X204331Y-588D01*
Y-10436D01*
X206880Y-19948D01*
X211804Y-28477D01*
X218767Y-35440D01*
X227296Y-40364D01*
X236808Y-42913D01*
X246656D01*
X256169Y-40364D01*
X264697Y-35440D01*
X271661Y-28477D01*
X276585Y-19948D01*
X279134Y-10436D01*
Y-588D01*
X276585Y8925D01*
X271661Y17453D01*
X264697Y24417D01*
X256169Y29341D01*
X246656Y31890D01*
D02*
G37*
G36*
X-1353344D02*
X-1363192D01*
X-1372704Y29341D01*
X-1381233Y24417D01*
X-1388196Y17453D01*
X-1393120Y8925D01*
X-1395669Y-588D01*
Y-10436D01*
X-1393120Y-19948D01*
X-1388196Y-28477D01*
X-1381233Y-35440D01*
X-1372704Y-40364D01*
X-1363192Y-42913D01*
X-1353344D01*
X-1343831Y-40364D01*
X-1335303Y-35440D01*
X-1328339Y-28477D01*
X-1323415Y-19948D01*
X-1320866Y-10436D01*
Y-588D01*
X-1323415Y8925D01*
X-1328339Y17453D01*
X-1335303Y24417D01*
X-1343831Y29341D01*
X-1353344Y31890D01*
D02*
G37*
G36*
X-1453344D02*
X-1463192D01*
X-1472704Y29341D01*
X-1481233Y24417D01*
X-1488196Y17453D01*
X-1493120Y8925D01*
X-1495669Y-588D01*
Y-10436D01*
X-1493120Y-19948D01*
X-1488196Y-28477D01*
X-1481233Y-35440D01*
X-1472704Y-40364D01*
X-1463192Y-42913D01*
X-1453344D01*
X-1443831Y-40364D01*
X-1435303Y-35440D01*
X-1428339Y-28477D01*
X-1423415Y-19948D01*
X-1420866Y-10436D01*
Y-588D01*
X-1423415Y8925D01*
X-1428339Y17453D01*
X-1435303Y24417D01*
X-1443831Y29341D01*
X-1453344Y31890D01*
D02*
G37*
G36*
X0Y75174D02*
X-14666Y73729D01*
X-28768Y69451D01*
X-41764Y62505D01*
X-53156Y53156D01*
X-62505Y41764D01*
X-69451Y28768D01*
X-73729Y14666D01*
X-75174Y0D01*
X-73729Y-14666D01*
X-69451Y-28768D01*
X-62505Y-41764D01*
X-53156Y-53156D01*
X-41764Y-62505D01*
X-28768Y-69451D01*
X-14666Y-73729D01*
X0Y-75174D01*
X14666Y-73729D01*
X28768Y-69451D01*
X41764Y-62505D01*
X53156Y-53156D01*
X62505Y-41764D01*
X69451Y-28768D01*
X73729Y-14666D01*
X75174Y0D01*
X73729Y14666D01*
X69451Y28768D01*
X62505Y41764D01*
X53156Y53156D01*
X41764Y62505D01*
X28768Y69451D01*
X14666Y73729D01*
X0Y75174D01*
D02*
G37*
G36*
X-826772D02*
X-841437Y73729D01*
X-855539Y69451D01*
X-868536Y62505D01*
X-879928Y53156D01*
X-889276Y41764D01*
X-896223Y28768D01*
X-900501Y14666D01*
X-901945Y0D01*
X-900501Y-14666D01*
X-896223Y-28768D01*
X-889276Y-41764D01*
X-879928Y-53156D01*
X-868536Y-62505D01*
X-855539Y-69451D01*
X-841437Y-73729D01*
X-826772Y-75174D01*
X-812106Y-73729D01*
X-798004Y-69451D01*
X-785008Y-62505D01*
X-773616Y-53156D01*
X-764267Y-41764D01*
X-757320Y-28768D01*
X-753043Y-14666D01*
X-751598Y0D01*
X-753043Y14666D01*
X-757320Y28768D01*
X-764267Y41764D01*
X-773616Y53156D01*
X-785008Y62505D01*
X-798004Y69451D01*
X-812106Y73729D01*
X-826772Y75174D01*
D02*
G37*
G36*
X618046Y-50236D02*
X606757D01*
X595853Y-53158D01*
X586076Y-58802D01*
X578094Y-66785D01*
X572449Y-76561D01*
X569528Y-87466D01*
Y-98755D01*
X572449Y-109659D01*
X578094Y-119436D01*
X586076Y-127418D01*
X595853Y-133062D01*
X606757Y-135984D01*
X618046D01*
X628950Y-133062D01*
X638727Y-127418D01*
X646709Y-119436D01*
X652354Y-109659D01*
X655276Y-98755D01*
Y-87466D01*
X652354Y-76561D01*
X646709Y-66785D01*
X638727Y-58802D01*
X628950Y-53158D01*
X618046Y-50236D01*
D02*
G37*
G36*
X246656Y-68110D02*
X236808D01*
X227296Y-70659D01*
X218767Y-75583D01*
X211804Y-82547D01*
X206880Y-91075D01*
X204331Y-100588D01*
Y-110436D01*
X206880Y-119948D01*
X211804Y-128477D01*
X218767Y-135440D01*
X227296Y-140364D01*
X236808Y-142913D01*
X246656D01*
X256169Y-140364D01*
X264697Y-135440D01*
X271661Y-128477D01*
X276585Y-119948D01*
X279134Y-110436D01*
Y-100588D01*
X276585Y-91075D01*
X271661Y-82547D01*
X264697Y-75583D01*
X256169Y-70659D01*
X246656Y-68110D01*
D02*
G37*
G36*
X-1353344D02*
X-1363192D01*
X-1372704Y-70659D01*
X-1381233Y-75583D01*
X-1388196Y-82547D01*
X-1393120Y-91075D01*
X-1395669Y-100588D01*
Y-110436D01*
X-1393120Y-119948D01*
X-1388196Y-128477D01*
X-1381233Y-135440D01*
X-1372704Y-140364D01*
X-1363192Y-142913D01*
X-1353344D01*
X-1343831Y-140364D01*
X-1335303Y-135440D01*
X-1328339Y-128477D01*
X-1323415Y-119948D01*
X-1320866Y-110436D01*
Y-100588D01*
X-1323415Y-91075D01*
X-1328339Y-82547D01*
X-1335303Y-75583D01*
X-1343831Y-70659D01*
X-1353344Y-68110D01*
D02*
G37*
G36*
X-1453344D02*
X-1463192D01*
X-1472704Y-70659D01*
X-1481233Y-75583D01*
X-1488196Y-82547D01*
X-1493120Y-91075D01*
X-1495669Y-100588D01*
Y-110436D01*
X-1493120Y-119948D01*
X-1488196Y-128477D01*
X-1481233Y-135440D01*
X-1472704Y-140364D01*
X-1463192Y-142913D01*
X-1453344D01*
X-1443831Y-140364D01*
X-1435303Y-135440D01*
X-1428339Y-128477D01*
X-1423415Y-119948D01*
X-1420866Y-110436D01*
Y-100588D01*
X-1423415Y-91075D01*
X-1428339Y-82547D01*
X-1435303Y-75583D01*
X-1443831Y-70659D01*
X-1453344Y-68110D01*
D02*
G37*
G36*
X346656Y-168110D02*
X336808D01*
X327296Y-170659D01*
X318767Y-175583D01*
X311804Y-182547D01*
X306880Y-191075D01*
X304331Y-200588D01*
Y-210436D01*
X306880Y-219948D01*
X311804Y-228477D01*
X318214Y-234887D01*
X317432Y-239887D01*
X295977D01*
X276385Y-220295D01*
X276585Y-219948D01*
X279134Y-210436D01*
Y-200588D01*
X276585Y-191075D01*
X271661Y-182547D01*
X264697Y-175583D01*
X256169Y-170659D01*
X246656Y-168110D01*
X236808D01*
X227296Y-170659D01*
X218767Y-175583D01*
X211804Y-182547D01*
X206880Y-191075D01*
X204331Y-200588D01*
Y-210436D01*
X206880Y-219948D01*
X211804Y-228477D01*
X218767Y-235440D01*
X227296Y-240364D01*
X236808Y-242913D01*
X246656D01*
X256169Y-240364D01*
X256516Y-240164D01*
X280223Y-263872D01*
X284781Y-266917D01*
X290158Y-267986D01*
X321925D01*
X323265Y-272986D01*
X318767Y-275583D01*
X311804Y-282547D01*
X306880Y-291075D01*
X304331Y-300588D01*
Y-310436D01*
X306880Y-319948D01*
X311804Y-328477D01*
X318214Y-334887D01*
X317432Y-339887D01*
X295977D01*
X276385Y-320295D01*
X276585Y-319948D01*
X279134Y-310436D01*
Y-300588D01*
X276585Y-291075D01*
X271661Y-282547D01*
X264697Y-275583D01*
X256169Y-270659D01*
X246656Y-268110D01*
X236808D01*
X227296Y-270659D01*
X218767Y-275583D01*
X211804Y-282547D01*
X206880Y-291075D01*
X204331Y-300588D01*
Y-310436D01*
X206880Y-319948D01*
X211804Y-328477D01*
X218767Y-335440D01*
X227296Y-340364D01*
X236808Y-342913D01*
X246656D01*
X256169Y-340364D01*
X256516Y-340164D01*
X280223Y-363872D01*
X284781Y-366917D01*
X290158Y-367986D01*
X321925D01*
X323265Y-372986D01*
X318767Y-375583D01*
X311804Y-382547D01*
X306880Y-391075D01*
X304331Y-400588D01*
Y-410436D01*
X306880Y-419948D01*
X311804Y-428477D01*
X318214Y-434887D01*
X317432Y-439887D01*
X295977D01*
X276385Y-420295D01*
X276585Y-419948D01*
X279134Y-410436D01*
Y-400588D01*
X276585Y-391075D01*
X271661Y-382547D01*
X264697Y-375583D01*
X256169Y-370659D01*
X246656Y-368110D01*
X236808D01*
X227296Y-370659D01*
X218767Y-375583D01*
X211804Y-382547D01*
X206880Y-391075D01*
X204331Y-400588D01*
Y-410436D01*
X206880Y-419948D01*
X211804Y-428477D01*
X218767Y-435440D01*
X227296Y-440364D01*
X236808Y-442913D01*
X246656D01*
X256169Y-440364D01*
X256516Y-440164D01*
X280223Y-463872D01*
X284781Y-466917D01*
X290158Y-467986D01*
X321925D01*
X323265Y-472986D01*
X318767Y-475583D01*
X311804Y-482547D01*
X306880Y-491075D01*
X304331Y-500588D01*
Y-510436D01*
X306880Y-519948D01*
X311804Y-528477D01*
X318767Y-535440D01*
X327296Y-540364D01*
X336808Y-542913D01*
X346656D01*
X356169Y-540364D01*
X364697Y-535440D01*
X371661Y-528477D01*
X376585Y-519948D01*
X379134Y-510436D01*
Y-500588D01*
X376585Y-491075D01*
X372617Y-484203D01*
X376618Y-481133D01*
X583420Y-687934D01*
X587978Y-690980D01*
X593354Y-692049D01*
X743197D01*
X747647Y-699756D01*
X754244Y-706353D01*
X762323Y-711018D01*
X771335Y-713433D01*
X780665D01*
X789677Y-711018D01*
X797756Y-706353D01*
X804353Y-699756D01*
X809018Y-691677D01*
X811433Y-682665D01*
Y-673335D01*
X809018Y-664323D01*
X804353Y-656244D01*
X797756Y-649647D01*
X789677Y-644982D01*
X780665Y-642567D01*
X771335D01*
X762323Y-644982D01*
X754244Y-649647D01*
X747647Y-656244D01*
X743197Y-663951D01*
X599174D01*
X379226Y-444002D01*
X374668Y-440957D01*
X369291Y-439887D01*
X366032D01*
X365250Y-434887D01*
X371661Y-428477D01*
X376585Y-419948D01*
X379134Y-410436D01*
Y-400588D01*
X376585Y-391075D01*
X376113Y-390258D01*
X380114Y-387188D01*
X580861Y-587934D01*
X585419Y-590980D01*
X590795Y-592049D01*
X743197D01*
X747647Y-599756D01*
X754244Y-606353D01*
X762323Y-611018D01*
X771335Y-613433D01*
X780665D01*
X789677Y-611018D01*
X797756Y-606353D01*
X804353Y-599756D01*
X809018Y-591677D01*
X811433Y-582665D01*
Y-573335D01*
X809018Y-564323D01*
X804353Y-556244D01*
X797756Y-549647D01*
X789677Y-544982D01*
X780665Y-542567D01*
X771335D01*
X762323Y-544982D01*
X754244Y-549647D01*
X747647Y-556244D01*
X743197Y-563951D01*
X596615D01*
X376667Y-344002D01*
X372109Y-340957D01*
X366928Y-339926D01*
X365732Y-337967D01*
X365250Y-334887D01*
X371661Y-328477D01*
X376585Y-319948D01*
X379134Y-310436D01*
Y-300588D01*
X376585Y-291075D01*
X371661Y-282547D01*
X364697Y-275583D01*
X360200Y-272986D01*
X361539Y-267986D01*
X366228D01*
X586176Y-487935D01*
X590734Y-490980D01*
X596110Y-492050D01*
X743197D01*
X747647Y-499756D01*
X754244Y-506353D01*
X762323Y-511018D01*
X771335Y-513433D01*
X780665D01*
X789677Y-511018D01*
X797756Y-506353D01*
X804353Y-499756D01*
X809018Y-491677D01*
X811433Y-482665D01*
Y-473335D01*
X809018Y-464323D01*
X804353Y-456244D01*
X797756Y-449647D01*
X789677Y-444982D01*
X780665Y-442567D01*
X771335D01*
X762323Y-444982D01*
X754244Y-449647D01*
X747647Y-456244D01*
X743197Y-463950D01*
X601930D01*
X381982Y-244002D01*
X377424Y-240957D01*
X372047Y-239887D01*
X366032D01*
X365250Y-234887D01*
X371661Y-228477D01*
X376585Y-219948D01*
X379134Y-210436D01*
Y-200588D01*
X376585Y-191075D01*
X371661Y-182547D01*
X364697Y-175583D01*
X356169Y-170659D01*
X346656Y-168110D01*
D02*
G37*
G36*
X-1353344D02*
X-1363192D01*
X-1372704Y-170659D01*
X-1381233Y-175583D01*
X-1388196Y-182547D01*
X-1393120Y-191075D01*
X-1395669Y-200588D01*
Y-210436D01*
X-1393120Y-219948D01*
X-1388196Y-228477D01*
X-1381233Y-235440D01*
X-1372704Y-240364D01*
X-1363192Y-242913D01*
X-1353344D01*
X-1343831Y-240364D01*
X-1335303Y-235440D01*
X-1328339Y-228477D01*
X-1323415Y-219948D01*
X-1320866Y-210436D01*
Y-200588D01*
X-1323415Y-191075D01*
X-1328339Y-182547D01*
X-1335303Y-175583D01*
X-1343831Y-170659D01*
X-1353344Y-168110D01*
D02*
G37*
G36*
X-1453344D02*
X-1463192D01*
X-1472704Y-170659D01*
X-1481233Y-175583D01*
X-1488196Y-182547D01*
X-1493120Y-191075D01*
X-1495669Y-200588D01*
Y-210436D01*
X-1493120Y-219948D01*
X-1488196Y-228477D01*
X-1481233Y-235440D01*
X-1472704Y-240364D01*
X-1463192Y-242913D01*
X-1453344D01*
X-1443831Y-240364D01*
X-1435303Y-235440D01*
X-1428339Y-228477D01*
X-1423415Y-219948D01*
X-1420866Y-210436D01*
Y-200588D01*
X-1423415Y-191075D01*
X-1428339Y-182547D01*
X-1435303Y-175583D01*
X-1443831Y-170659D01*
X-1453344Y-168110D01*
D02*
G37*
G36*
X-1353344Y-268110D02*
X-1363192D01*
X-1372704Y-270659D01*
X-1381233Y-275583D01*
X-1388196Y-282547D01*
X-1393120Y-291075D01*
X-1395669Y-300588D01*
Y-310436D01*
X-1393120Y-319948D01*
X-1388196Y-328477D01*
X-1381233Y-335440D01*
X-1372704Y-340364D01*
X-1363192Y-342913D01*
X-1353344D01*
X-1343831Y-340364D01*
X-1335303Y-335440D01*
X-1328339Y-328477D01*
X-1323415Y-319948D01*
X-1320866Y-310436D01*
Y-300588D01*
X-1323415Y-291075D01*
X-1328339Y-282547D01*
X-1335303Y-275583D01*
X-1343831Y-270659D01*
X-1353344Y-268110D01*
D02*
G37*
G36*
X-1453344D02*
X-1463192D01*
X-1472704Y-270659D01*
X-1481233Y-275583D01*
X-1488196Y-282547D01*
X-1493120Y-291075D01*
X-1495669Y-300588D01*
Y-310436D01*
X-1493120Y-319948D01*
X-1488196Y-328477D01*
X-1481233Y-335440D01*
X-1472704Y-340364D01*
X-1463192Y-342913D01*
X-1453344D01*
X-1443831Y-340364D01*
X-1435303Y-335440D01*
X-1428339Y-328477D01*
X-1423415Y-319948D01*
X-1420866Y-310436D01*
Y-300588D01*
X-1423415Y-291075D01*
X-1428339Y-282547D01*
X-1435303Y-275583D01*
X-1443831Y-270659D01*
X-1453344Y-268110D01*
D02*
G37*
G36*
X-841047Y-340441D02*
X-868764D01*
Y-368157D01*
X-841047D01*
Y-340441D01*
D02*
G37*
G36*
X-888449D02*
X-916165D01*
Y-368157D01*
X-888449D01*
Y-340441D01*
D02*
G37*
G36*
X813559Y-340441D02*
X785842D01*
Y-368158D01*
X813559D01*
Y-340441D01*
D02*
G37*
G36*
X766158D02*
X738441D01*
Y-368158D01*
X766158D01*
Y-340441D01*
D02*
G37*
G36*
X-773942Y-342567D02*
X-783271D01*
X-792283Y-344981D01*
X-800363Y-349646D01*
X-806960Y-356243D01*
X-811625Y-364323D01*
X-814039Y-373335D01*
Y-382664D01*
X-811625Y-391676D01*
X-806960Y-399756D01*
X-800363Y-406353D01*
X-792283Y-411018D01*
X-783271Y-413433D01*
X-773942D01*
X-764930Y-411018D01*
X-756850Y-406353D01*
X-750253Y-399756D01*
X-745588Y-391676D01*
X-743173Y-382664D01*
Y-373335D01*
X-745588Y-364323D01*
X-750253Y-356243D01*
X-756850Y-349646D01*
X-764930Y-344981D01*
X-773942Y-342567D01*
D02*
G37*
G36*
X880665Y-342567D02*
X871335D01*
X862323Y-344982D01*
X854244Y-349647D01*
X847647Y-356244D01*
X842982Y-364323D01*
X840567Y-373335D01*
Y-382665D01*
X842982Y-391677D01*
X847647Y-399756D01*
X854244Y-406353D01*
X862323Y-411018D01*
X871335Y-413433D01*
X880665D01*
X889677Y-411018D01*
X897756Y-406353D01*
X904353Y-399756D01*
X909018Y-391677D01*
X911433Y-382665D01*
Y-373335D01*
X909018Y-364323D01*
X904353Y-356244D01*
X897756Y-349647D01*
X889677Y-344982D01*
X880665Y-342567D01*
D02*
G37*
G36*
X-841047Y-387842D02*
X-868764D01*
Y-415559D01*
X-841047D01*
Y-387842D01*
D02*
G37*
G36*
X-888449D02*
X-916165D01*
Y-415559D01*
X-888449D01*
Y-387842D01*
D02*
G37*
G36*
X813559Y-387842D02*
X785842D01*
Y-415559D01*
X813559D01*
Y-387842D01*
D02*
G37*
G36*
X766158D02*
X738441D01*
Y-415559D01*
X766158D01*
Y-387842D01*
D02*
G37*
G36*
X-1353344Y-368110D02*
X-1363192D01*
X-1372704Y-370659D01*
X-1381233Y-375583D01*
X-1388196Y-382547D01*
X-1393120Y-391075D01*
X-1395669Y-400588D01*
Y-410436D01*
X-1393120Y-419948D01*
X-1388196Y-428477D01*
X-1381233Y-435440D01*
X-1372704Y-440364D01*
X-1363192Y-442913D01*
X-1353344D01*
X-1343831Y-440364D01*
X-1335303Y-435440D01*
X-1328339Y-428477D01*
X-1323415Y-419948D01*
X-1320866Y-410436D01*
Y-400588D01*
X-1323415Y-391075D01*
X-1328339Y-382547D01*
X-1335303Y-375583D01*
X-1343831Y-370659D01*
X-1353344Y-368110D01*
D02*
G37*
G36*
X-1453344D02*
X-1463192D01*
X-1472704Y-370659D01*
X-1481233Y-375583D01*
X-1488196Y-382547D01*
X-1493120Y-391075D01*
X-1495669Y-400588D01*
Y-410436D01*
X-1493120Y-419948D01*
X-1488196Y-428477D01*
X-1481233Y-435440D01*
X-1472704Y-440364D01*
X-1463192Y-442913D01*
X-1453344D01*
X-1443831Y-440364D01*
X-1435303Y-435440D01*
X-1428339Y-428477D01*
X-1423415Y-419948D01*
X-1420866Y-410436D01*
Y-400588D01*
X-1423415Y-391075D01*
X-1428339Y-382547D01*
X-1435303Y-375583D01*
X-1443831Y-370659D01*
X-1453344Y-368110D01*
D02*
G37*
G36*
X1036280Y-471045D02*
X1023622D01*
Y-491496D01*
X1051573D01*
Y-486339D01*
X1050409Y-480486D01*
X1047094Y-475524D01*
X1042132Y-472209D01*
X1036280Y-471045D01*
D02*
G37*
G36*
X1003937D02*
X991279D01*
X985427Y-472209D01*
X980465Y-475524D01*
X977150Y-480486D01*
X975986Y-486339D01*
Y-491496D01*
X1003937D01*
Y-471045D01*
D02*
G37*
G36*
X-773942Y-442567D02*
X-783271D01*
X-792283Y-444981D01*
X-800363Y-449646D01*
X-806960Y-456243D01*
X-811625Y-464323D01*
X-814039Y-473335D01*
Y-482664D01*
X-811625Y-491676D01*
X-806960Y-499756D01*
X-800363Y-506353D01*
X-792283Y-511018D01*
X-783271Y-513433D01*
X-773942D01*
X-764930Y-511018D01*
X-756850Y-506353D01*
X-750253Y-499756D01*
X-745588Y-491676D01*
X-743173Y-482664D01*
Y-473335D01*
X-745588Y-464323D01*
X-750253Y-456243D01*
X-756850Y-449646D01*
X-764930Y-444981D01*
X-773942Y-442567D01*
D02*
G37*
G36*
X-873942D02*
X-883271D01*
X-892283Y-444981D01*
X-900363Y-449646D01*
X-906960Y-456243D01*
X-911625Y-464323D01*
X-914039Y-473335D01*
Y-482664D01*
X-911625Y-491676D01*
X-906960Y-499756D01*
X-900363Y-506353D01*
X-892283Y-511018D01*
X-883271Y-513433D01*
X-873942D01*
X-864930Y-511018D01*
X-856850Y-506353D01*
X-850253Y-499756D01*
X-845588Y-491676D01*
X-843173Y-482664D01*
Y-473335D01*
X-845588Y-464323D01*
X-850253Y-456243D01*
X-856850Y-449646D01*
X-864930Y-444981D01*
X-873942Y-442567D01*
D02*
G37*
G36*
X880665Y-442567D02*
X871335D01*
X862323Y-444982D01*
X854244Y-449647D01*
X847647Y-456244D01*
X842982Y-464323D01*
X840567Y-473335D01*
Y-482665D01*
X842982Y-491677D01*
X847647Y-499756D01*
X854244Y-506353D01*
X862323Y-511018D01*
X871335Y-513433D01*
X880665D01*
X889677Y-511018D01*
X897756Y-506353D01*
X904353Y-499756D01*
X909018Y-491677D01*
X911433Y-482665D01*
Y-473335D01*
X909018Y-464323D01*
X904353Y-456244D01*
X897756Y-449647D01*
X889677Y-444982D01*
X880665Y-442567D01*
D02*
G37*
G36*
X1051573Y-511181D02*
X1023622D01*
Y-531633D01*
X1036280D01*
X1042132Y-530468D01*
X1047094Y-527153D01*
X1050409Y-522191D01*
X1051573Y-516339D01*
Y-511181D01*
D02*
G37*
G36*
X1003937D02*
X975986D01*
Y-516339D01*
X977150Y-522191D01*
X980465Y-527153D01*
X985427Y-530468D01*
X991279Y-531633D01*
X1003937D01*
Y-511181D01*
D02*
G37*
G36*
X1289370Y-510859D02*
Y-541339D01*
X1319850D01*
X1318196Y-535164D01*
X1312733Y-525702D01*
X1305007Y-517976D01*
X1295544Y-512513D01*
X1289370Y-510859D01*
D02*
G37*
G36*
X1269685D02*
X1263511Y-512513D01*
X1254048Y-517976D01*
X1246322Y-525702D01*
X1240860Y-535164D01*
X1239205Y-541339D01*
X1269685D01*
Y-510859D01*
D02*
G37*
G36*
X-1353344Y-468110D02*
X-1363192D01*
X-1372704Y-470659D01*
X-1381233Y-475583D01*
X-1388196Y-482547D01*
X-1393120Y-491075D01*
X-1395669Y-500588D01*
Y-510436D01*
X-1393120Y-519948D01*
X-1388196Y-528477D01*
X-1381233Y-535440D01*
X-1372704Y-540364D01*
X-1363192Y-542913D01*
X-1353344D01*
X-1343831Y-540364D01*
X-1335303Y-535440D01*
X-1328339Y-528477D01*
X-1323415Y-519948D01*
X-1320866Y-510436D01*
Y-500588D01*
X-1323415Y-491075D01*
X-1328339Y-482547D01*
X-1335303Y-475583D01*
X-1343831Y-470659D01*
X-1353344Y-468110D01*
D02*
G37*
G36*
X-1453344D02*
X-1463192D01*
X-1472704Y-470659D01*
X-1481233Y-475583D01*
X-1488196Y-482547D01*
X-1493120Y-491075D01*
X-1495669Y-500588D01*
Y-510436D01*
X-1493120Y-519948D01*
X-1488196Y-528477D01*
X-1481233Y-535440D01*
X-1472704Y-540364D01*
X-1463192Y-542913D01*
X-1453344D01*
X-1443831Y-540364D01*
X-1435303Y-535440D01*
X-1428339Y-528477D01*
X-1423415Y-519948D01*
X-1420866Y-510436D01*
Y-500588D01*
X-1423415Y-491075D01*
X-1428339Y-482547D01*
X-1435303Y-475583D01*
X-1443831Y-470659D01*
X-1453344Y-468110D01*
D02*
G37*
G36*
X1218898Y-511811D02*
X1140158D01*
Y-590551D01*
X1218898D01*
Y-511811D01*
D02*
G37*
G36*
X1319850Y-561024D02*
X1289370D01*
Y-591504D01*
X1295544Y-589849D01*
X1305007Y-584386D01*
X1312733Y-576660D01*
X1318196Y-567198D01*
X1319850Y-561024D01*
D02*
G37*
G36*
X1269685D02*
X1239205D01*
X1240860Y-567198D01*
X1246322Y-576660D01*
X1254048Y-584386D01*
X1263511Y-589849D01*
X1269685Y-591504D01*
Y-561024D01*
D02*
G37*
G36*
X-773942Y-542567D02*
X-783271D01*
X-792283Y-544981D01*
X-800363Y-549646D01*
X-806960Y-556243D01*
X-811625Y-564323D01*
X-814039Y-573335D01*
Y-582664D01*
X-811625Y-591676D01*
X-806960Y-599756D01*
X-800363Y-606353D01*
X-792283Y-611018D01*
X-783271Y-613433D01*
X-773942D01*
X-764930Y-611018D01*
X-756850Y-606353D01*
X-750253Y-599756D01*
X-745588Y-591676D01*
X-743173Y-582664D01*
Y-573335D01*
X-745588Y-564323D01*
X-750253Y-556243D01*
X-756850Y-549646D01*
X-764930Y-544981D01*
X-773942Y-542567D01*
D02*
G37*
G36*
X-873942D02*
X-883271D01*
X-892283Y-544981D01*
X-900363Y-549646D01*
X-906960Y-556243D01*
X-911625Y-564323D01*
X-914039Y-573335D01*
Y-582664D01*
X-911625Y-591676D01*
X-906960Y-599756D01*
X-900363Y-606353D01*
X-892283Y-611018D01*
X-883271Y-613433D01*
X-873942D01*
X-864930Y-611018D01*
X-856850Y-606353D01*
X-850253Y-599756D01*
X-845588Y-591676D01*
X-843173Y-582664D01*
Y-573335D01*
X-845588Y-564323D01*
X-850253Y-556243D01*
X-856850Y-549646D01*
X-864930Y-544981D01*
X-873942Y-542567D01*
D02*
G37*
G36*
X880665Y-542567D02*
X871335D01*
X862323Y-544982D01*
X854244Y-549647D01*
X847647Y-556244D01*
X842982Y-564323D01*
X840567Y-573335D01*
Y-582665D01*
X842982Y-591677D01*
X847647Y-599756D01*
X854244Y-606353D01*
X862323Y-611018D01*
X871335Y-613433D01*
X880665D01*
X889677Y-611018D01*
X897756Y-606353D01*
X904353Y-599756D01*
X909018Y-591677D01*
X911433Y-582665D01*
Y-573335D01*
X909018Y-564323D01*
X904353Y-556244D01*
X897756Y-549647D01*
X889677Y-544982D01*
X880665Y-542567D01*
D02*
G37*
G36*
X1036280Y-553212D02*
X991279D01*
X986256Y-554212D01*
X981998Y-557057D01*
X979153Y-561315D01*
X978153Y-566339D01*
Y-591019D01*
X978058Y-591496D01*
Y-612132D01*
X977001Y-613189D01*
X976687D01*
X969678Y-615067D01*
X963393Y-618695D01*
X958262Y-623826D01*
X954634Y-630111D01*
X952756Y-637120D01*
Y-644376D01*
X954634Y-651385D01*
X958262Y-657670D01*
X963393Y-662801D01*
X969678Y-666429D01*
X976687Y-668307D01*
X983943D01*
X990952Y-666429D01*
X997237Y-662801D01*
X1002368Y-657670D01*
X1005996Y-651385D01*
X1007874Y-644376D01*
Y-637120D01*
X1007090Y-634192D01*
X1008895Y-632387D01*
X1012811Y-626527D01*
X1014186Y-619614D01*
Y-609465D01*
X1036280D01*
X1041303Y-608466D01*
X1045561Y-605620D01*
X1048407Y-601362D01*
X1049406Y-596339D01*
Y-566339D01*
X1048407Y-561315D01*
X1045561Y-557057D01*
X1041303Y-554212D01*
X1036280Y-553212D01*
D02*
G37*
G36*
X-773942Y-642567D02*
X-783271D01*
X-792283Y-644981D01*
X-800363Y-649646D01*
X-806960Y-656243D01*
X-811625Y-664323D01*
X-814039Y-673335D01*
Y-682664D01*
X-811625Y-691676D01*
X-806960Y-699756D01*
X-800363Y-706353D01*
X-792283Y-711018D01*
X-783271Y-713433D01*
X-773942D01*
X-764930Y-711018D01*
X-756850Y-706353D01*
X-750253Y-699756D01*
X-745588Y-691676D01*
X-743173Y-682664D01*
Y-673335D01*
X-745588Y-664323D01*
X-750253Y-656243D01*
X-756850Y-649646D01*
X-764930Y-644981D01*
X-773942Y-642567D01*
D02*
G37*
G36*
X-873942D02*
X-883271D01*
X-892283Y-644981D01*
X-900363Y-649646D01*
X-906960Y-656243D01*
X-911625Y-664323D01*
X-914039Y-673335D01*
Y-682664D01*
X-911625Y-691676D01*
X-906960Y-699756D01*
X-900363Y-706353D01*
X-892283Y-711018D01*
X-883271Y-713433D01*
X-873942D01*
X-864930Y-711018D01*
X-856850Y-706353D01*
X-850253Y-699756D01*
X-845588Y-691676D01*
X-843173Y-682664D01*
Y-673335D01*
X-845588Y-664323D01*
X-850253Y-656243D01*
X-856850Y-649646D01*
X-864930Y-644981D01*
X-873942Y-642567D01*
D02*
G37*
G36*
X880665Y-642567D02*
X871335D01*
X862323Y-644982D01*
X854244Y-649647D01*
X847647Y-656244D01*
X842982Y-664323D01*
X840567Y-673335D01*
Y-682665D01*
X842982Y-691677D01*
X847647Y-699756D01*
X854244Y-706353D01*
X862323Y-711018D01*
X871335Y-713433D01*
X880665D01*
X889677Y-711018D01*
X897756Y-706353D01*
X904353Y-699756D01*
X909018Y-691677D01*
X911433Y-682665D01*
Y-673335D01*
X909018Y-664323D01*
X904353Y-656244D01*
X897756Y-649647D01*
X889677Y-644982D01*
X880665Y-642567D01*
D02*
G37*
G36*
X349146Y-623617D02*
X334791D01*
X320712Y-626418D01*
X307450Y-631911D01*
X295514Y-639886D01*
X285364Y-650037D01*
X277388Y-661972D01*
X271895Y-675235D01*
X269094Y-689314D01*
Y-703669D01*
X271895Y-717748D01*
X277388Y-731010D01*
X285364Y-742946D01*
X295514Y-753096D01*
X307450Y-761071D01*
X320712Y-766565D01*
X334791Y-769365D01*
X349146D01*
X363225Y-766565D01*
X376487Y-761071D01*
X388423Y-753096D01*
X398573Y-742946D01*
X406549Y-731010D01*
X412042Y-717748D01*
X414842Y-703669D01*
Y-689314D01*
X412042Y-675235D01*
X406549Y-661972D01*
X398573Y-650037D01*
X388423Y-639886D01*
X376487Y-631911D01*
X363225Y-626418D01*
X349146Y-623617D01*
D02*
G37*
G36*
X1472443Y-683472D02*
X1460628D01*
X1449215Y-686531D01*
X1438982Y-692438D01*
X1430627Y-700793D01*
X1424719Y-711026D01*
X1421661Y-722439D01*
Y-734254D01*
X1424719Y-745667D01*
X1430627Y-755900D01*
X1438982Y-764255D01*
X1449215Y-770162D01*
X1460628Y-773221D01*
X1472443D01*
X1483856Y-770162D01*
X1494089Y-764255D01*
X1502444Y-755900D01*
X1508351Y-745667D01*
X1511409Y-734254D01*
Y-722439D01*
X1508351Y-711026D01*
X1502444Y-700793D01*
X1494089Y-692438D01*
X1483856Y-686531D01*
X1472443Y-683472D01*
D02*
G37*
G36*
X-338580Y-721268D02*
X-350396D01*
X-361809Y-724326D01*
X-372041Y-730234D01*
X-380396Y-738588D01*
X-386304Y-748821D01*
X-389362Y-760234D01*
Y-772049D01*
X-386304Y-783462D01*
X-380396Y-793695D01*
X-372041Y-802050D01*
X-361809Y-807958D01*
X-350396Y-811016D01*
X-338580D01*
X-327168Y-807958D01*
X-316935Y-802050D01*
X-308580Y-793695D01*
X-302672Y-783462D01*
X-299614Y-772049D01*
Y-760234D01*
X-302672Y-748821D01*
X-308580Y-738588D01*
X-316935Y-730234D01*
X-327168Y-724326D01*
X-338580Y-721268D01*
D02*
G37*
G36*
X-438580D02*
X-450396D01*
X-461809Y-724326D01*
X-472041Y-730234D01*
X-480396Y-738588D01*
X-486304Y-748821D01*
X-489362Y-760234D01*
Y-772049D01*
X-486304Y-783462D01*
X-480396Y-793695D01*
X-472041Y-802050D01*
X-461809Y-807958D01*
X-450396Y-811016D01*
X-438580D01*
X-427168Y-807958D01*
X-416935Y-802050D01*
X-408580Y-793695D01*
X-402672Y-783462D01*
X-399614Y-772049D01*
Y-760234D01*
X-402672Y-748821D01*
X-408580Y-738588D01*
X-416935Y-730234D01*
X-427168Y-724326D01*
X-438580Y-721268D01*
D02*
G37*
G36*
X-773942Y-742567D02*
X-783271D01*
X-792283Y-744981D01*
X-800363Y-749646D01*
X-806960Y-756243D01*
X-811625Y-764323D01*
X-814039Y-773335D01*
Y-782664D01*
X-811625Y-791676D01*
X-806960Y-799756D01*
X-800363Y-806353D01*
X-792283Y-811018D01*
X-783271Y-813433D01*
X-773942D01*
X-764930Y-811018D01*
X-756850Y-806353D01*
X-750253Y-799756D01*
X-745588Y-791676D01*
X-743173Y-782664D01*
Y-773335D01*
X-745588Y-764323D01*
X-750253Y-756243D01*
X-756850Y-749646D01*
X-764930Y-744981D01*
X-773942Y-742567D01*
D02*
G37*
G36*
X-873942D02*
X-883271D01*
X-892283Y-744981D01*
X-900363Y-749646D01*
X-906960Y-756243D01*
X-911625Y-764323D01*
X-914039Y-773335D01*
Y-782664D01*
X-911625Y-791676D01*
X-906960Y-799756D01*
X-900363Y-806353D01*
X-892283Y-811018D01*
X-883271Y-813433D01*
X-873942D01*
X-864930Y-811018D01*
X-856850Y-806353D01*
X-850253Y-799756D01*
X-845588Y-791676D01*
X-843173Y-782664D01*
Y-773335D01*
X-845588Y-764323D01*
X-850253Y-756243D01*
X-856850Y-749646D01*
X-864930Y-744981D01*
X-873942Y-742567D01*
D02*
G37*
G36*
X880665Y-742567D02*
X871335D01*
X862323Y-744982D01*
X854244Y-749647D01*
X847647Y-756244D01*
X842982Y-764323D01*
X840567Y-773335D01*
Y-782665D01*
X842982Y-791677D01*
X847647Y-799756D01*
X854244Y-806353D01*
X862323Y-811018D01*
X871335Y-813433D01*
X880665D01*
X889677Y-811018D01*
X897756Y-806353D01*
X904353Y-799756D01*
X909018Y-791677D01*
X911433Y-782665D01*
Y-773335D01*
X909018Y-764323D01*
X904353Y-756244D01*
X897756Y-749647D01*
X889677Y-744982D01*
X880665Y-742567D01*
D02*
G37*
G36*
X246656Y-468110D02*
X236808D01*
X227296Y-470659D01*
X218767Y-475583D01*
X211804Y-482547D01*
X206880Y-491075D01*
X204331Y-500588D01*
Y-510436D01*
X206880Y-519948D01*
X211804Y-528477D01*
X218767Y-535440D01*
X227296Y-540364D01*
X236808Y-542913D01*
X246656D01*
X256169Y-540364D01*
X256516Y-540164D01*
X321758Y-605407D01*
X326316Y-608452D01*
X331693Y-609522D01*
X404614D01*
X583026Y-787934D01*
X587584Y-790980D01*
X592961Y-792049D01*
X743197D01*
X747647Y-799756D01*
X754244Y-806353D01*
X762323Y-811018D01*
X771335Y-813433D01*
X780665D01*
X789677Y-811018D01*
X797756Y-806353D01*
X804353Y-799756D01*
X809018Y-791677D01*
X811433Y-782665D01*
Y-773335D01*
X809018Y-764323D01*
X804353Y-756244D01*
X797756Y-749647D01*
X789677Y-744982D01*
X780665Y-742567D01*
X771335D01*
X762323Y-744982D01*
X754244Y-749647D01*
X747647Y-756244D01*
X743197Y-763951D01*
X598780D01*
X420368Y-585538D01*
X415810Y-582492D01*
X410433Y-581423D01*
X337512D01*
X276385Y-520295D01*
X276585Y-519948D01*
X279134Y-510436D01*
Y-500588D01*
X276585Y-491075D01*
X271661Y-482547D01*
X264697Y-475583D01*
X256169Y-470659D01*
X246656Y-468110D01*
D02*
G37*
G36*
X-1455033Y-771654D02*
X-1462290D01*
X-1469299Y-773532D01*
X-1475583Y-777160D01*
X-1480714Y-782291D01*
X-1484342Y-788575D01*
X-1486220Y-795584D01*
Y-802841D01*
X-1484342Y-809850D01*
X-1480714Y-816134D01*
X-1475583Y-821265D01*
X-1469299Y-824894D01*
X-1462290Y-826772D01*
X-1455033D01*
X-1448024Y-824894D01*
X-1441740Y-821265D01*
X-1439936Y-819461D01*
X-1423314D01*
X-1422911Y-821487D01*
X-1420204Y-825539D01*
X-1416152Y-828246D01*
X-1411373Y-829197D01*
X-1370123D01*
X-1365344Y-828246D01*
X-1361292Y-825539D01*
X-1358585Y-821487D01*
X-1357634Y-816708D01*
Y-790458D01*
X-1358585Y-785678D01*
X-1361292Y-781627D01*
X-1365344Y-778919D01*
X-1370123Y-777969D01*
X-1411373D01*
X-1416152Y-778919D01*
X-1420204Y-781627D01*
X-1421345Y-783334D01*
X-1436006D01*
X-1436609Y-782291D01*
X-1441740Y-777160D01*
X-1448024Y-773532D01*
X-1455033Y-771654D01*
D02*
G37*
G36*
X0Y-751598D02*
X-14666Y-753043D01*
X-28768Y-757320D01*
X-41764Y-764267D01*
X-53156Y-773616D01*
X-62505Y-785008D01*
X-69451Y-798004D01*
X-73729Y-812106D01*
X-75174Y-826772D01*
X-73729Y-841437D01*
X-69451Y-855539D01*
X-62505Y-868536D01*
X-53156Y-879928D01*
X-41764Y-889276D01*
X-28768Y-896223D01*
X-14666Y-900501D01*
X0Y-901945D01*
X14666Y-900501D01*
X28768Y-896223D01*
X41764Y-889276D01*
X53156Y-879928D01*
X62505Y-868536D01*
X69451Y-855539D01*
X73729Y-841437D01*
X75174Y-826772D01*
X73729Y-812106D01*
X69451Y-798004D01*
X62505Y-785008D01*
X53156Y-773616D01*
X41764Y-764267D01*
X28768Y-757320D01*
X14666Y-753043D01*
X0Y-751598D01*
D02*
G37*
G36*
X-338580Y-821268D02*
X-350396D01*
X-361809Y-824326D01*
X-372041Y-830234D01*
X-380396Y-838588D01*
X-386304Y-848821D01*
X-389362Y-860234D01*
Y-872049D01*
X-386304Y-883462D01*
X-380396Y-893695D01*
X-372041Y-902050D01*
X-361809Y-907958D01*
X-350396Y-911016D01*
X-338580D01*
X-327168Y-907958D01*
X-316935Y-902050D01*
X-308580Y-893695D01*
X-302672Y-883462D01*
X-299614Y-872049D01*
Y-860234D01*
X-302672Y-848821D01*
X-308580Y-838588D01*
X-316935Y-830234D01*
X-327168Y-824326D01*
X-338580Y-821268D01*
D02*
G37*
G36*
X-773942Y-842567D02*
X-783271D01*
X-792283Y-844981D01*
X-800363Y-849646D01*
X-806960Y-856243D01*
X-811625Y-864323D01*
X-814039Y-873335D01*
Y-882664D01*
X-811625Y-891676D01*
X-806960Y-899756D01*
X-800363Y-906353D01*
X-792283Y-911018D01*
X-783271Y-913433D01*
X-773942D01*
X-764930Y-911018D01*
X-756850Y-906353D01*
X-750253Y-899756D01*
X-745588Y-891676D01*
X-743173Y-882664D01*
Y-873335D01*
X-745588Y-864323D01*
X-750253Y-856243D01*
X-756850Y-849646D01*
X-764930Y-844981D01*
X-773942Y-842567D01*
D02*
G37*
G36*
X-873942D02*
X-883271D01*
X-892283Y-844981D01*
X-900363Y-849646D01*
X-906960Y-856243D01*
X-911625Y-864323D01*
X-914039Y-873335D01*
Y-882664D01*
X-911625Y-891676D01*
X-906960Y-899756D01*
X-900363Y-906353D01*
X-892283Y-911018D01*
X-883271Y-913433D01*
X-873942D01*
X-864930Y-911018D01*
X-856850Y-906353D01*
X-850253Y-899756D01*
X-845588Y-891676D01*
X-843173Y-882664D01*
Y-873335D01*
X-845588Y-864323D01*
X-850253Y-856243D01*
X-856850Y-849646D01*
X-864930Y-844981D01*
X-873942Y-842567D01*
D02*
G37*
G36*
X880665Y-842567D02*
X871335D01*
X862323Y-844982D01*
X854244Y-849647D01*
X847647Y-856244D01*
X842982Y-864323D01*
X840567Y-873335D01*
Y-882665D01*
X842982Y-891677D01*
X847647Y-899756D01*
X854244Y-906353D01*
X862323Y-911018D01*
X871335Y-913433D01*
X880665D01*
X889677Y-911018D01*
X897756Y-906353D01*
X904353Y-899756D01*
X909018Y-891677D01*
X911433Y-882665D01*
Y-873335D01*
X909018Y-864323D01*
X904353Y-856244D01*
X897756Y-849647D01*
X889677Y-844982D01*
X880665Y-842567D01*
D02*
G37*
G36*
X780665D02*
X771335D01*
X762323Y-844982D01*
X754244Y-849647D01*
X747647Y-856244D01*
X742982Y-864323D01*
X740567Y-873335D01*
Y-882665D01*
X742982Y-891677D01*
X747647Y-899756D01*
X754244Y-906353D01*
X762323Y-911018D01*
X771335Y-913433D01*
X780665D01*
X789677Y-911018D01*
X797756Y-906353D01*
X804353Y-899756D01*
X809018Y-891677D01*
X811433Y-882665D01*
Y-873335D01*
X809018Y-864323D01*
X804353Y-856244D01*
X797756Y-849647D01*
X789677Y-844982D01*
X780665Y-842567D01*
D02*
G37*
G36*
X-1370123Y-847969D02*
X-1411373D01*
X-1416152Y-848919D01*
X-1420204Y-851627D01*
X-1422911Y-855678D01*
X-1423862Y-860458D01*
Y-886708D01*
X-1422911Y-891487D01*
X-1420204Y-895539D01*
X-1416152Y-898246D01*
X-1411373Y-899197D01*
X-1408812D01*
Y-918094D01*
X-1413248D01*
X-1418271Y-919093D01*
X-1422530Y-921939D01*
X-1425375Y-926197D01*
X-1426374Y-931221D01*
Y-961221D01*
X-1425375Y-966244D01*
X-1422530Y-970502D01*
X-1418271Y-973347D01*
X-1413248Y-974347D01*
X-1368248D01*
X-1363225Y-973347D01*
X-1358966Y-970502D01*
X-1356121Y-966244D01*
X-1355122Y-961221D01*
Y-931221D01*
X-1356121Y-926197D01*
X-1358966Y-921939D01*
X-1363225Y-919093D01*
X-1368248Y-918094D01*
X-1372685D01*
Y-899197D01*
X-1370123D01*
X-1365344Y-898246D01*
X-1361292Y-895539D01*
X-1358585Y-891487D01*
X-1357634Y-886708D01*
Y-860458D01*
X-1358585Y-855678D01*
X-1361292Y-851627D01*
X-1365344Y-848919D01*
X-1370123Y-847969D01*
D02*
G37*
G36*
X-338580Y-921268D02*
X-350396D01*
X-361809Y-924326D01*
X-372041Y-930234D01*
X-380396Y-938588D01*
X-386304Y-948821D01*
X-389362Y-960234D01*
Y-972049D01*
X-386304Y-983462D01*
X-380396Y-993695D01*
X-372041Y-1002050D01*
X-361809Y-1007958D01*
X-350396Y-1011016D01*
X-338580D01*
X-327168Y-1007958D01*
X-316935Y-1002050D01*
X-308580Y-993695D01*
X-302672Y-983462D01*
X-299614Y-972049D01*
Y-960234D01*
X-302672Y-948821D01*
X-308580Y-938588D01*
X-316935Y-930234D01*
X-327168Y-924326D01*
X-338580Y-921268D01*
D02*
G37*
G36*
X-438580D02*
X-450396D01*
X-461809Y-924326D01*
X-472041Y-930234D01*
X-480396Y-938588D01*
X-486304Y-948821D01*
X-489362Y-960234D01*
Y-972049D01*
X-486304Y-983462D01*
X-480396Y-993695D01*
X-472041Y-1002050D01*
X-461809Y-1007958D01*
X-450396Y-1011016D01*
X-438580D01*
X-427168Y-1007958D01*
X-416935Y-1002050D01*
X-408580Y-993695D01*
X-402672Y-983462D01*
X-399614Y-972049D01*
Y-960234D01*
X-402672Y-948821D01*
X-408580Y-938588D01*
X-416935Y-930234D01*
X-427168Y-924326D01*
X-438580Y-921268D01*
D02*
G37*
G36*
X-773942Y-942567D02*
X-783271D01*
X-792283Y-944981D01*
X-800363Y-949646D01*
X-806960Y-956243D01*
X-811625Y-964323D01*
X-814039Y-973335D01*
Y-982664D01*
X-811625Y-991676D01*
X-806960Y-999756D01*
X-800363Y-1006353D01*
X-792283Y-1011018D01*
X-783271Y-1013433D01*
X-773942D01*
X-764930Y-1011018D01*
X-756850Y-1006353D01*
X-750253Y-999756D01*
X-745588Y-991676D01*
X-743173Y-982664D01*
Y-973335D01*
X-745588Y-964323D01*
X-750253Y-956243D01*
X-756850Y-949646D01*
X-764930Y-944981D01*
X-773942Y-942567D01*
D02*
G37*
G36*
X-873942D02*
X-883271D01*
X-892283Y-944981D01*
X-900363Y-949646D01*
X-906960Y-956243D01*
X-911625Y-964323D01*
X-914039Y-973335D01*
Y-982664D01*
X-911625Y-991676D01*
X-906960Y-999756D01*
X-900363Y-1006353D01*
X-892283Y-1011018D01*
X-883271Y-1013433D01*
X-873942D01*
X-864930Y-1011018D01*
X-856850Y-1006353D01*
X-850253Y-999756D01*
X-845588Y-991676D01*
X-843173Y-982664D01*
Y-973335D01*
X-845588Y-964323D01*
X-850253Y-956243D01*
X-856850Y-949646D01*
X-864930Y-944981D01*
X-873942Y-942567D01*
D02*
G37*
G36*
X880665Y-942567D02*
X871335D01*
X862323Y-944982D01*
X854244Y-949647D01*
X847647Y-956244D01*
X842982Y-964323D01*
X840567Y-973335D01*
Y-982665D01*
X842982Y-991677D01*
X847647Y-999756D01*
X854244Y-1006353D01*
X862323Y-1011018D01*
X871335Y-1013433D01*
X880665D01*
X889677Y-1011018D01*
X897756Y-1006353D01*
X904353Y-999756D01*
X909018Y-991677D01*
X911433Y-982665D01*
Y-973335D01*
X909018Y-964323D01*
X904353Y-956244D01*
X897756Y-949647D01*
X889677Y-944982D01*
X880665Y-942567D01*
D02*
G37*
G36*
X780665D02*
X771335D01*
X762323Y-944982D01*
X754244Y-949647D01*
X747647Y-956244D01*
X742982Y-964323D01*
X740567Y-973335D01*
Y-982665D01*
X742982Y-991677D01*
X747647Y-999756D01*
X754244Y-1006353D01*
X762323Y-1011018D01*
X771335Y-1013433D01*
X780665D01*
X789677Y-1011018D01*
X797756Y-1006353D01*
X804353Y-999756D01*
X809018Y-991677D01*
X811433Y-982665D01*
Y-973335D01*
X809018Y-964323D01*
X804353Y-956244D01*
X797756Y-949647D01*
X789677Y-944982D01*
X780665Y-942567D01*
D02*
G37*
G36*
X-1368248Y-995927D02*
X-1380906D01*
Y-1016378D01*
X-1352954D01*
Y-1011221D01*
X-1354118Y-1005368D01*
X-1357434Y-1000406D01*
X-1362395Y-997091D01*
X-1368248Y-995927D01*
D02*
G37*
G36*
X-1400591D02*
X-1413248D01*
X-1419101Y-997091D01*
X-1424062Y-1000406D01*
X-1427378Y-1005368D01*
X-1428542Y-1011221D01*
Y-1016378D01*
X-1400591D01*
Y-995927D01*
D02*
G37*
G36*
X-1352954Y-1036063D02*
X-1380906D01*
Y-1056514D01*
X-1368248D01*
X-1362395Y-1055350D01*
X-1357434Y-1052035D01*
X-1354118Y-1047073D01*
X-1352954Y-1041220D01*
Y-1036063D01*
D02*
G37*
G36*
X-1400591D02*
X-1428542D01*
Y-1041220D01*
X-1427378Y-1047073D01*
X-1424062Y-1052035D01*
X-1419101Y-1055350D01*
X-1413248Y-1056514D01*
X-1400591D01*
Y-1036063D01*
D02*
G37*
G36*
X-773942Y-1042567D02*
X-783271D01*
X-792283Y-1044981D01*
X-800363Y-1049646D01*
X-806960Y-1056243D01*
X-811625Y-1064323D01*
X-814039Y-1073335D01*
Y-1082665D01*
X-811625Y-1091676D01*
X-806960Y-1099756D01*
X-800363Y-1106353D01*
X-792283Y-1111018D01*
X-783271Y-1113433D01*
X-773942D01*
X-764930Y-1111018D01*
X-756850Y-1106353D01*
X-750253Y-1099756D01*
X-745588Y-1091676D01*
X-743173Y-1082665D01*
Y-1073335D01*
X-745588Y-1064323D01*
X-750253Y-1056243D01*
X-756850Y-1049646D01*
X-764930Y-1044981D01*
X-773942Y-1042567D01*
D02*
G37*
G36*
X-873942D02*
X-883271D01*
X-892283Y-1044981D01*
X-900363Y-1049646D01*
X-906960Y-1056243D01*
X-911625Y-1064323D01*
X-914039Y-1073335D01*
Y-1082665D01*
X-911625Y-1091676D01*
X-906960Y-1099756D01*
X-900363Y-1106353D01*
X-892283Y-1111018D01*
X-883271Y-1113433D01*
X-873942D01*
X-864930Y-1111018D01*
X-856850Y-1106353D01*
X-850253Y-1099756D01*
X-845588Y-1091676D01*
X-843173Y-1082665D01*
Y-1073335D01*
X-845588Y-1064323D01*
X-850253Y-1056243D01*
X-856850Y-1049646D01*
X-864930Y-1044981D01*
X-873942Y-1042567D01*
D02*
G37*
G36*
X880665Y-1042567D02*
X871335D01*
X862323Y-1044982D01*
X854244Y-1049647D01*
X847647Y-1056244D01*
X842982Y-1064323D01*
X840567Y-1073335D01*
Y-1082665D01*
X842982Y-1091677D01*
X847647Y-1099756D01*
X854244Y-1106353D01*
X862323Y-1111018D01*
X871335Y-1113433D01*
X880665D01*
X889677Y-1111018D01*
X897756Y-1106353D01*
X904353Y-1099756D01*
X909018Y-1091677D01*
X911433Y-1082665D01*
Y-1073335D01*
X909018Y-1064323D01*
X904353Y-1056244D01*
X897756Y-1049647D01*
X889677Y-1044982D01*
X880665Y-1042567D01*
D02*
G37*
G36*
X780665D02*
X771335D01*
X762323Y-1044982D01*
X754244Y-1049647D01*
X747647Y-1056244D01*
X742982Y-1064323D01*
X740567Y-1073335D01*
Y-1082665D01*
X742982Y-1091677D01*
X747647Y-1099756D01*
X754244Y-1106353D01*
X762323Y-1111018D01*
X771335Y-1113433D01*
X780665D01*
X789677Y-1111018D01*
X797756Y-1106353D01*
X804353Y-1099756D01*
X809018Y-1091677D01*
X811433Y-1082665D01*
Y-1073335D01*
X809018Y-1064323D01*
X804353Y-1056244D01*
X797756Y-1049647D01*
X789677Y-1044982D01*
X780665Y-1042567D01*
D02*
G37*
G36*
X424842Y-1108617D02*
X329094D01*
Y-1109469D01*
X296339D01*
X284005Y-1111093D01*
X272513Y-1115853D01*
X272299Y-1116017D01*
X154528D01*
X142194Y-1117641D01*
X132686Y-1121580D01*
X132478Y-1121460D01*
X121065Y-1118402D01*
X109250D01*
X97837Y-1121460D01*
X87604Y-1127368D01*
X79249Y-1135722D01*
X73342Y-1145955D01*
X70284Y-1157368D01*
Y-1169183D01*
X73342Y-1180596D01*
X79249Y-1190829D01*
X87604Y-1199184D01*
X97837Y-1205091D01*
X109250Y-1208150D01*
X121065D01*
X131626Y-1205320D01*
X142194Y-1209697D01*
X154528Y-1211321D01*
X256269D01*
X258143Y-1212759D01*
X269635Y-1217519D01*
X277669Y-1218577D01*
X281563Y-1219090D01*
X281236Y-1224090D01*
X275728D01*
X263672Y-1227320D01*
X252863Y-1233561D01*
X244038Y-1242386D01*
X237797Y-1253195D01*
X235532Y-1261649D01*
X281968D01*
Y-1271491D01*
X291811D01*
Y-1317928D01*
X300265Y-1315662D01*
X311074Y-1309422D01*
X319899Y-1300597D01*
X321969Y-1297012D01*
X326969Y-1298352D01*
Y-1300874D01*
X330376Y-1313591D01*
X336959Y-1324992D01*
X346268Y-1334301D01*
X357669Y-1340884D01*
X367126Y-1343418D01*
Y-1294291D01*
Y-1245165D01*
X357669Y-1247699D01*
X346268Y-1254281D01*
X336959Y-1263591D01*
X334370Y-1268074D01*
X329370Y-1266734D01*
Y-1265251D01*
X326140Y-1253195D01*
X319899Y-1242386D01*
X311074Y-1233561D01*
X300265Y-1227320D01*
X288209Y-1224090D01*
X282701D01*
X282374Y-1219090D01*
X286268Y-1218577D01*
X294302Y-1217519D01*
X305794Y-1212759D01*
X315663Y-1205186D01*
X316077Y-1204773D01*
X376339D01*
X379435Y-1204365D01*
X424842D01*
Y-1108617D01*
D02*
G37*
G36*
X-773942Y-1142567D02*
X-783271D01*
X-792283Y-1144981D01*
X-800363Y-1149646D01*
X-806960Y-1156243D01*
X-811625Y-1164323D01*
X-814039Y-1173335D01*
Y-1182665D01*
X-811625Y-1191676D01*
X-806960Y-1199756D01*
X-800363Y-1206353D01*
X-792283Y-1211018D01*
X-783271Y-1213433D01*
X-773942D01*
X-764930Y-1211018D01*
X-756850Y-1206353D01*
X-750253Y-1199756D01*
X-745588Y-1191676D01*
X-743173Y-1182665D01*
Y-1173335D01*
X-745588Y-1164323D01*
X-750253Y-1156243D01*
X-756850Y-1149646D01*
X-764930Y-1144981D01*
X-773942Y-1142567D01*
D02*
G37*
G36*
X-873942D02*
X-883271D01*
X-892283Y-1144981D01*
X-900363Y-1149646D01*
X-906960Y-1156243D01*
X-911625Y-1164323D01*
X-914039Y-1173335D01*
Y-1182665D01*
X-911625Y-1191676D01*
X-906960Y-1199756D01*
X-900363Y-1206353D01*
X-892283Y-1211018D01*
X-883271Y-1213433D01*
X-873942D01*
X-864930Y-1211018D01*
X-856850Y-1206353D01*
X-850253Y-1199756D01*
X-845588Y-1191676D01*
X-843173Y-1182665D01*
Y-1173335D01*
X-845588Y-1164323D01*
X-850253Y-1156243D01*
X-856850Y-1149646D01*
X-864930Y-1144981D01*
X-873942Y-1142567D01*
D02*
G37*
G36*
X880665Y-1142567D02*
X871335D01*
X862323Y-1144982D01*
X854244Y-1149647D01*
X847647Y-1156244D01*
X842982Y-1164323D01*
X840567Y-1173335D01*
Y-1182665D01*
X842982Y-1191677D01*
X847647Y-1199756D01*
X854244Y-1206353D01*
X862323Y-1211018D01*
X871335Y-1213433D01*
X880665D01*
X889677Y-1211018D01*
X897756Y-1206353D01*
X904353Y-1199756D01*
X909018Y-1191677D01*
X911433Y-1182665D01*
Y-1173335D01*
X909018Y-1164323D01*
X904353Y-1156244D01*
X897756Y-1149647D01*
X889677Y-1144982D01*
X880665Y-1142567D01*
D02*
G37*
G36*
X780665D02*
X771335D01*
X762323Y-1144982D01*
X754244Y-1149647D01*
X747647Y-1156244D01*
X742982Y-1164323D01*
X740567Y-1173335D01*
Y-1182665D01*
X742982Y-1191677D01*
X747647Y-1199756D01*
X754244Y-1206353D01*
X762323Y-1211018D01*
X771335Y-1213433D01*
X780665D01*
X789677Y-1211018D01*
X797756Y-1206353D01*
X804353Y-1199756D01*
X809018Y-1191677D01*
X811433Y-1182665D01*
Y-1173335D01*
X809018Y-1164323D01*
X804353Y-1156244D01*
X797756Y-1149647D01*
X789677Y-1144982D01*
X780665Y-1142567D01*
D02*
G37*
G36*
X-868764Y-1241753D02*
Y-1268157D01*
X-842360D01*
X-843607Y-1263503D01*
X-848552Y-1254938D01*
X-855544Y-1247945D01*
X-864109Y-1243000D01*
X-868764Y-1241753D01*
D02*
G37*
G36*
X-888449Y-1241753D02*
X-893104Y-1243000D01*
X-901668Y-1247945D01*
X-908661Y-1254938D01*
X-913606Y-1263503D01*
X-914853Y-1268157D01*
X-888449D01*
Y-1241753D01*
D02*
G37*
G36*
X785842Y-1241753D02*
Y-1268158D01*
X812247D01*
X810999Y-1263503D01*
X806055Y-1254938D01*
X799062Y-1247945D01*
X790497Y-1243001D01*
X785842Y-1241753D01*
D02*
G37*
G36*
X766158D02*
X761503Y-1243001D01*
X752938Y-1247945D01*
X745945Y-1254938D01*
X741001Y-1263503D01*
X739753Y-1268158D01*
X766158D01*
Y-1241753D01*
D02*
G37*
G36*
X386811Y-1245165D02*
Y-1284449D01*
X426095D01*
X423561Y-1274992D01*
X416978Y-1263591D01*
X407669Y-1254281D01*
X396268Y-1247699D01*
X386811Y-1245165D01*
D02*
G37*
G36*
X-773942Y-1242567D02*
X-783271D01*
X-792283Y-1244981D01*
X-800363Y-1249646D01*
X-806960Y-1256243D01*
X-811625Y-1264323D01*
X-814039Y-1273335D01*
Y-1282665D01*
X-811625Y-1291676D01*
X-806960Y-1299756D01*
X-800363Y-1306353D01*
X-792283Y-1311018D01*
X-783271Y-1313433D01*
X-773942D01*
X-764930Y-1311018D01*
X-756850Y-1306353D01*
X-750253Y-1299756D01*
X-745588Y-1291676D01*
X-743173Y-1282665D01*
Y-1273335D01*
X-745588Y-1264323D01*
X-750253Y-1256243D01*
X-756850Y-1249646D01*
X-764930Y-1244981D01*
X-773942Y-1242567D01*
D02*
G37*
G36*
X880665Y-1242567D02*
X871335D01*
X862323Y-1244982D01*
X854244Y-1249647D01*
X847647Y-1256244D01*
X842982Y-1264323D01*
X840567Y-1273335D01*
Y-1282665D01*
X842982Y-1291677D01*
X847647Y-1299756D01*
X854244Y-1306353D01*
X862323Y-1311018D01*
X871335Y-1313433D01*
X880665D01*
X889677Y-1311018D01*
X897756Y-1306353D01*
X904353Y-1299756D01*
X909018Y-1291677D01*
X911433Y-1282665D01*
Y-1273335D01*
X909018Y-1264323D01*
X904353Y-1256244D01*
X897756Y-1249647D01*
X889677Y-1244982D01*
X880665Y-1242567D01*
D02*
G37*
G36*
X-888449Y-1287842D02*
X-914853D01*
X-913606Y-1292497D01*
X-908661Y-1301062D01*
X-901668Y-1308054D01*
X-893104Y-1312999D01*
X-888449Y-1314246D01*
Y-1287842D01*
D02*
G37*
G36*
X-842360D02*
X-868764D01*
Y-1314246D01*
X-864109Y-1312999D01*
X-855544Y-1308054D01*
X-848552Y-1301062D01*
X-843607Y-1292497D01*
X-842360Y-1287842D01*
D02*
G37*
G36*
X812247Y-1287842D02*
X785842D01*
Y-1314247D01*
X790497Y-1312999D01*
X799062Y-1308055D01*
X806055Y-1301062D01*
X810999Y-1292497D01*
X812247Y-1287842D01*
D02*
G37*
G36*
X766158D02*
X739753D01*
X741001Y-1292497D01*
X745945Y-1301062D01*
X752938Y-1308055D01*
X761503Y-1312999D01*
X766158Y-1314247D01*
Y-1287842D01*
D02*
G37*
G36*
X272126Y-1281334D02*
X235532D01*
X237797Y-1289788D01*
X244038Y-1300597D01*
X252863Y-1309422D01*
X263672Y-1315662D01*
X272126Y-1317928D01*
Y-1281334D01*
D02*
G37*
G36*
X121065Y-1232402D02*
X109250D01*
X97837Y-1235460D01*
X87604Y-1241368D01*
X79249Y-1249722D01*
X73342Y-1259955D01*
X70284Y-1271368D01*
Y-1283183D01*
X73342Y-1294596D01*
X79249Y-1304829D01*
X87604Y-1313184D01*
X97837Y-1319091D01*
X109250Y-1322150D01*
X121065D01*
X132478Y-1319091D01*
X142711Y-1313184D01*
X151066Y-1304829D01*
X156973Y-1294596D01*
X160031Y-1283183D01*
Y-1271368D01*
X156973Y-1259955D01*
X151066Y-1249722D01*
X142711Y-1241368D01*
X132478Y-1235460D01*
X121065Y-1232402D01*
D02*
G37*
G36*
X426095Y-1304134D02*
X386811D01*
Y-1343418D01*
X396268Y-1340884D01*
X407669Y-1334301D01*
X416978Y-1324992D01*
X423561Y-1313591D01*
X426095Y-1304134D01*
D02*
G37*
G36*
X-1269292Y-1417956D02*
Y-1454134D01*
X-1233113D01*
X-1235337Y-1445835D01*
X-1241524Y-1435118D01*
X-1250275Y-1426367D01*
X-1260993Y-1420179D01*
X-1269292Y-1417956D01*
D02*
G37*
G36*
X-1169292D02*
Y-1454134D01*
X-1133113D01*
X-1135337Y-1445835D01*
X-1141524Y-1435118D01*
X-1150275Y-1426367D01*
X-1160993Y-1420179D01*
X-1169292Y-1417956D01*
D02*
G37*
G36*
X-1288977Y-1417956D02*
X-1297275Y-1420179D01*
X-1307993Y-1426367D01*
X-1316743Y-1435118D01*
X-1322931Y-1445835D01*
X-1325155Y-1454134D01*
X-1288977D01*
Y-1417956D01*
D02*
G37*
G36*
X-1188977D02*
X-1197275Y-1420179D01*
X-1207993Y-1426367D01*
X-1216743Y-1435118D01*
X-1222931Y-1445835D01*
X-1225155Y-1454134D01*
X-1188977D01*
Y-1417956D01*
D02*
G37*
G36*
X-1456693Y-1322464D02*
X-1471359Y-1323909D01*
X-1485461Y-1328186D01*
X-1498457Y-1335133D01*
X-1509849Y-1344482D01*
X-1519197Y-1355874D01*
X-1526144Y-1368870D01*
X-1530422Y-1382972D01*
X-1531867Y-1397638D01*
X-1530422Y-1412303D01*
X-1526144Y-1426406D01*
X-1519197Y-1439402D01*
X-1509849Y-1450794D01*
X-1498457Y-1460142D01*
X-1485461Y-1467089D01*
X-1471359Y-1471367D01*
X-1456693Y-1472811D01*
X-1442027Y-1471367D01*
X-1427925Y-1467089D01*
X-1414929Y-1460142D01*
X-1403537Y-1450794D01*
X-1394188Y-1439402D01*
X-1387242Y-1426406D01*
X-1382964Y-1412303D01*
X-1381519Y-1397638D01*
X-1382964Y-1382972D01*
X-1387242Y-1368870D01*
X-1394188Y-1355874D01*
X-1403537Y-1344482D01*
X-1414929Y-1335133D01*
X-1427925Y-1328186D01*
X-1442027Y-1323909D01*
X-1456693Y-1322464D01*
D02*
G37*
G36*
X-573226Y-1419102D02*
X-585042D01*
X-596455Y-1422160D01*
X-606687Y-1428068D01*
X-615042Y-1436423D01*
X-620950Y-1446656D01*
X-624008Y-1458069D01*
Y-1469884D01*
X-620950Y-1481297D01*
X-615042Y-1491530D01*
X-606687Y-1499884D01*
X-596455Y-1505792D01*
X-585042Y-1508850D01*
X-573226D01*
X-561813Y-1505792D01*
X-551581Y-1499884D01*
X-543226Y-1491530D01*
X-537318Y-1481297D01*
X-534260Y-1469884D01*
Y-1458069D01*
X-537318Y-1446656D01*
X-543226Y-1436423D01*
X-551581Y-1428068D01*
X-561813Y-1422160D01*
X-573226Y-1419102D01*
D02*
G37*
G36*
X-673226D02*
X-685042D01*
X-696455Y-1422160D01*
X-706687Y-1428068D01*
X-715042Y-1436423D01*
X-720950Y-1446656D01*
X-724008Y-1458069D01*
Y-1469884D01*
X-720950Y-1481297D01*
X-715042Y-1491530D01*
X-706687Y-1499884D01*
X-696455Y-1505792D01*
X-685042Y-1508850D01*
X-673226D01*
X-661813Y-1505792D01*
X-651581Y-1499884D01*
X-643226Y-1491530D01*
X-637318Y-1481297D01*
X-634260Y-1469884D01*
Y-1458069D01*
X-637318Y-1446656D01*
X-643226Y-1436423D01*
X-651581Y-1428068D01*
X-661813Y-1422160D01*
X-673226Y-1419102D01*
D02*
G37*
G36*
X-773226D02*
X-785042D01*
X-796455Y-1422160D01*
X-806687Y-1428068D01*
X-815042Y-1436423D01*
X-820950Y-1446656D01*
X-824008Y-1458069D01*
Y-1469884D01*
X-820950Y-1481297D01*
X-815042Y-1491530D01*
X-806687Y-1499884D01*
X-796455Y-1505792D01*
X-785042Y-1508850D01*
X-773226D01*
X-761813Y-1505792D01*
X-751581Y-1499884D01*
X-743226Y-1491530D01*
X-737318Y-1481297D01*
X-734260Y-1469884D01*
Y-1458069D01*
X-737318Y-1446656D01*
X-743226Y-1436423D01*
X-751581Y-1428068D01*
X-761813Y-1422160D01*
X-773226Y-1419102D01*
D02*
G37*
G36*
X-873226D02*
X-885042D01*
X-896455Y-1422160D01*
X-906687Y-1428068D01*
X-915042Y-1436423D01*
X-920950Y-1446656D01*
X-924008Y-1458069D01*
Y-1469884D01*
X-920950Y-1481297D01*
X-915042Y-1491530D01*
X-906687Y-1499884D01*
X-896455Y-1505792D01*
X-885042Y-1508850D01*
X-873226D01*
X-861813Y-1505792D01*
X-851581Y-1499884D01*
X-843226Y-1491530D01*
X-837318Y-1481297D01*
X-834260Y-1469884D01*
Y-1458069D01*
X-837318Y-1446656D01*
X-843226Y-1436423D01*
X-851581Y-1428068D01*
X-861813Y-1422160D01*
X-873226Y-1419102D01*
D02*
G37*
G36*
X-973226D02*
X-985042D01*
X-996455Y-1422160D01*
X-1006687Y-1428068D01*
X-1015042Y-1436423D01*
X-1020950Y-1446656D01*
X-1024008Y-1458069D01*
Y-1469884D01*
X-1020950Y-1481297D01*
X-1015042Y-1491530D01*
X-1006687Y-1499884D01*
X-996455Y-1505792D01*
X-985042Y-1508850D01*
X-973226D01*
X-961813Y-1505792D01*
X-951581Y-1499884D01*
X-943226Y-1491530D01*
X-937318Y-1481297D01*
X-934260Y-1469884D01*
Y-1458069D01*
X-937318Y-1446656D01*
X-943226Y-1436423D01*
X-951581Y-1428068D01*
X-961813Y-1422160D01*
X-973226Y-1419102D01*
D02*
G37*
G36*
X-1073226D02*
X-1085042D01*
X-1096455Y-1422160D01*
X-1106687Y-1428068D01*
X-1115042Y-1436423D01*
X-1120950Y-1446656D01*
X-1124008Y-1458069D01*
Y-1469884D01*
X-1120950Y-1481297D01*
X-1115042Y-1491530D01*
X-1106687Y-1499884D01*
X-1096455Y-1505792D01*
X-1085042Y-1508850D01*
X-1073226D01*
X-1061813Y-1505792D01*
X-1051581Y-1499884D01*
X-1043226Y-1491530D01*
X-1037318Y-1481297D01*
X-1034260Y-1469884D01*
Y-1458069D01*
X-1037318Y-1446656D01*
X-1043226Y-1436423D01*
X-1051581Y-1428068D01*
X-1061813Y-1422160D01*
X-1073226Y-1419102D01*
D02*
G37*
G36*
X-1188977Y-1473819D02*
X-1225155D01*
X-1222931Y-1482118D01*
X-1216743Y-1492835D01*
X-1207993Y-1501586D01*
X-1197275Y-1507774D01*
X-1188977Y-1509997D01*
Y-1473819D01*
D02*
G37*
G36*
X-1288977D02*
X-1325155D01*
X-1322931Y-1482118D01*
X-1316743Y-1492835D01*
X-1307993Y-1501586D01*
X-1297275Y-1507774D01*
X-1288977Y-1509997D01*
Y-1473819D01*
D02*
G37*
G36*
X-1133113D02*
X-1169292D01*
Y-1509997D01*
X-1160993Y-1507774D01*
X-1150275Y-1501586D01*
X-1141524Y-1492835D01*
X-1135337Y-1482118D01*
X-1133113Y-1473819D01*
D02*
G37*
G36*
X-1233113D02*
X-1269292D01*
Y-1509997D01*
X-1260993Y-1507774D01*
X-1250275Y-1501586D01*
X-1241524Y-1492835D01*
X-1235337Y-1482118D01*
X-1233113Y-1473819D01*
D02*
G37*
G36*
X-1374325Y-1488189D02*
X-1381581D01*
X-1388590Y-1490067D01*
X-1394874Y-1493695D01*
X-1400005Y-1498826D01*
X-1403634Y-1505111D01*
X-1405512Y-1512120D01*
Y-1519376D01*
X-1403634Y-1526385D01*
X-1400005Y-1532670D01*
X-1394874Y-1537801D01*
X-1388590Y-1541429D01*
X-1381581Y-1543307D01*
X-1374325D01*
X-1367315Y-1541429D01*
X-1361031Y-1537801D01*
X-1355900Y-1532670D01*
X-1352272Y-1526385D01*
X-1350394Y-1519376D01*
Y-1512120D01*
X-1352272Y-1505111D01*
X-1355900Y-1498826D01*
X-1361031Y-1493695D01*
X-1367315Y-1490067D01*
X-1374325Y-1488189D01*
D02*
G37*
G36*
X-1269292Y-1517956D02*
Y-1554134D01*
X-1233113D01*
X-1235337Y-1545835D01*
X-1241524Y-1535118D01*
X-1250275Y-1526367D01*
X-1260993Y-1520179D01*
X-1269292Y-1517956D01*
D02*
G37*
G36*
X-1169292D02*
Y-1554134D01*
X-1133113D01*
X-1135337Y-1545835D01*
X-1141524Y-1535118D01*
X-1150275Y-1526367D01*
X-1160993Y-1520179D01*
X-1169292Y-1517956D01*
D02*
G37*
G36*
X-1288977Y-1517956D02*
X-1297275Y-1520179D01*
X-1307993Y-1526367D01*
X-1316743Y-1535118D01*
X-1322931Y-1545835D01*
X-1325155Y-1554134D01*
X-1288977D01*
Y-1517956D01*
D02*
G37*
G36*
X-1188977D02*
X-1197275Y-1520179D01*
X-1207993Y-1526367D01*
X-1216743Y-1535118D01*
X-1222931Y-1545835D01*
X-1225155Y-1554134D01*
X-1188977D01*
Y-1517956D01*
D02*
G37*
G36*
X1519376Y1543307D02*
X1512120D01*
X1505111Y1541429D01*
X1498826Y1537801D01*
X1493695Y1532670D01*
X1490067Y1526385D01*
X1488189Y1519376D01*
Y1512120D01*
X1490067Y1505111D01*
X1493695Y1498826D01*
X1498826Y1493695D01*
X1505111Y1490067D01*
X1512120Y1488189D01*
X1519376D01*
X1526385Y1490067D01*
X1532670Y1493695D01*
X1537801Y1498826D01*
X1541429Y1505111D01*
X1543307Y1512120D01*
Y1519376D01*
X1541429Y1526385D01*
X1537801Y1532670D01*
X1532670Y1537801D01*
X1526385Y1541429D01*
X1519376Y1543307D01*
D02*
G37*
G36*
X1250000Y940512D02*
X1237342D01*
Y915354D01*
X1250000D01*
Y940512D01*
D02*
G37*
G36*
Y895669D02*
X1237342D01*
Y870512D01*
X1250000D01*
Y895669D01*
D02*
G37*
G36*
X1418046Y649764D02*
X1406757D01*
X1395853Y646842D01*
X1386076Y641198D01*
X1378094Y633215D01*
X1372449Y623439D01*
X1369528Y612534D01*
Y601245D01*
X1372449Y590341D01*
X1378094Y580564D01*
X1386076Y572582D01*
X1395853Y566938D01*
X1406757Y564016D01*
X1418046D01*
X1428950Y566938D01*
X1438727Y572582D01*
X1446709Y580564D01*
X1452354Y590341D01*
X1452549Y591069D01*
X1479099D01*
X1479209Y590658D01*
X1483537Y583161D01*
X1489658Y577041D01*
X1497154Y572713D01*
X1505515Y570472D01*
X1514171D01*
X1522532Y572713D01*
X1530028Y577041D01*
X1536149Y583161D01*
X1540476Y590658D01*
X1542717Y599019D01*
Y607674D01*
X1540476Y616035D01*
X1536149Y623532D01*
X1530028Y629652D01*
X1522532Y633980D01*
X1514171Y636220D01*
X1505515D01*
X1497154Y633980D01*
X1489658Y629652D01*
X1483537Y623532D01*
X1481017Y619168D01*
X1453498D01*
X1452354Y623439D01*
X1446709Y633215D01*
X1438727Y641198D01*
X1428950Y646842D01*
X1418046Y649764D01*
D02*
G37*
G36*
Y549764D02*
X1406757D01*
X1395853Y546842D01*
X1386076Y541198D01*
X1378094Y533215D01*
X1372449Y523439D01*
X1369528Y512534D01*
Y501245D01*
X1372449Y490341D01*
X1378094Y480565D01*
X1386076Y472582D01*
X1395853Y466938D01*
X1406757Y464016D01*
X1418046D01*
X1428950Y466938D01*
X1438727Y472582D01*
X1446709Y480565D01*
X1452354Y490341D01*
X1452760Y491856D01*
X1479426D01*
X1483537Y484736D01*
X1489658Y478615D01*
X1497154Y474288D01*
X1505515Y472047D01*
X1514171D01*
X1522532Y474288D01*
X1530028Y478615D01*
X1536149Y484736D01*
X1540476Y492232D01*
X1542717Y500593D01*
Y509249D01*
X1540476Y517610D01*
X1536149Y525106D01*
X1530028Y531227D01*
X1522532Y535555D01*
X1514171Y537795D01*
X1505515D01*
X1497154Y535555D01*
X1489658Y531227D01*
X1483537Y525106D01*
X1480563Y519955D01*
X1453287D01*
X1452354Y523439D01*
X1446709Y533215D01*
X1438727Y541198D01*
X1428950Y546842D01*
X1418046Y549764D01*
D02*
G37*
G36*
Y449764D02*
X1406757D01*
X1395853Y446842D01*
X1386076Y441198D01*
X1378094Y433215D01*
X1372449Y423439D01*
X1369528Y412534D01*
Y401245D01*
X1372449Y390341D01*
X1378094Y380565D01*
X1386076Y372582D01*
X1395853Y366938D01*
X1406757Y364016D01*
X1418046D01*
X1428950Y366938D01*
X1438727Y372582D01*
X1446709Y380565D01*
X1452354Y390341D01*
X1453103Y393135D01*
X1480165D01*
X1483537Y387295D01*
X1489658Y381175D01*
X1497154Y376847D01*
X1505515Y374606D01*
X1514171D01*
X1522532Y376847D01*
X1530028Y381175D01*
X1536149Y387295D01*
X1540476Y394791D01*
X1542717Y403152D01*
Y411808D01*
X1540476Y420169D01*
X1536149Y427665D01*
X1530028Y433786D01*
X1522532Y438114D01*
X1514171Y440354D01*
X1505515D01*
X1497154Y438114D01*
X1489658Y433786D01*
X1483537Y427665D01*
X1479824Y421235D01*
X1452944D01*
X1452354Y423439D01*
X1446709Y433215D01*
X1438727Y441198D01*
X1428950Y446842D01*
X1418046Y449764D01*
D02*
G37*
G36*
Y349764D02*
X1406757D01*
X1395853Y346842D01*
X1386076Y341198D01*
X1378094Y333215D01*
X1372449Y323439D01*
X1369528Y312534D01*
Y301245D01*
X1372449Y290341D01*
X1378094Y280565D01*
X1386076Y272582D01*
X1395853Y266938D01*
X1406757Y264016D01*
X1418046D01*
X1428950Y266938D01*
X1438727Y272582D01*
X1446709Y280565D01*
X1452354Y290341D01*
X1452918Y292447D01*
X1479767D01*
X1483537Y285917D01*
X1489658Y279796D01*
X1497154Y275469D01*
X1505515Y273228D01*
X1514171D01*
X1522532Y275469D01*
X1530028Y279796D01*
X1536149Y285917D01*
X1540476Y293413D01*
X1542717Y301774D01*
Y310430D01*
X1540476Y318791D01*
X1536149Y326287D01*
X1530028Y332408D01*
X1522532Y336736D01*
X1514171Y338976D01*
X1505515D01*
X1497154Y336736D01*
X1489658Y332408D01*
X1483537Y326287D01*
X1480222Y320546D01*
X1453129D01*
X1452354Y323439D01*
X1446709Y333215D01*
X1438727Y341198D01*
X1428950Y346842D01*
X1418046Y349764D01*
D02*
G37*
G36*
Y249764D02*
X1406757D01*
X1395853Y246842D01*
X1386076Y241198D01*
X1378094Y233215D01*
X1372449Y223439D01*
X1369528Y212534D01*
Y201245D01*
X1372449Y190341D01*
X1378094Y180565D01*
X1386076Y172582D01*
X1395853Y166938D01*
X1406757Y164016D01*
X1418046D01*
X1428950Y166938D01*
X1438727Y172582D01*
X1446709Y180565D01*
X1452354Y190341D01*
X1452733Y191758D01*
X1479369D01*
X1483537Y184539D01*
X1489658Y178419D01*
X1497154Y174091D01*
X1505515Y171850D01*
X1514171D01*
X1522532Y174091D01*
X1530028Y178419D01*
X1536149Y184539D01*
X1540476Y192036D01*
X1542717Y200397D01*
Y209052D01*
X1540476Y217413D01*
X1536149Y224910D01*
X1530028Y231030D01*
X1522532Y235358D01*
X1514171Y237598D01*
X1505515D01*
X1497154Y235358D01*
X1489658Y231030D01*
X1483537Y224910D01*
X1480620Y219857D01*
X1453314D01*
X1452354Y223439D01*
X1446709Y233215D01*
X1438727Y241198D01*
X1428950Y246842D01*
X1418046Y249764D01*
D02*
G37*
G36*
Y149764D02*
X1406757D01*
X1395853Y146842D01*
X1386076Y141198D01*
X1378094Y133215D01*
X1372449Y123439D01*
X1369528Y112534D01*
Y101245D01*
X1372449Y90341D01*
X1378094Y80564D01*
X1386076Y72582D01*
X1395853Y66938D01*
X1406757Y64016D01*
X1418046D01*
X1428950Y66938D01*
X1438727Y72582D01*
X1446709Y80564D01*
X1452354Y90341D01*
X1452944Y92545D01*
X1479824D01*
X1483537Y86114D01*
X1489658Y79993D01*
X1497154Y75665D01*
X1505515Y73425D01*
X1514171D01*
X1522532Y75665D01*
X1530028Y79993D01*
X1536149Y86114D01*
X1540476Y93610D01*
X1542717Y101971D01*
Y110627D01*
X1540476Y118988D01*
X1536149Y126484D01*
X1530028Y132605D01*
X1522532Y136933D01*
X1514171Y139173D01*
X1505515D01*
X1497154Y136933D01*
X1489658Y132605D01*
X1483537Y126484D01*
X1480165Y120644D01*
X1453103D01*
X1452354Y123439D01*
X1446709Y133215D01*
X1438727Y141198D01*
X1428950Y146842D01*
X1418046Y149764D01*
D02*
G37*
G36*
Y49764D02*
X1406757D01*
X1395853Y46842D01*
X1386076Y41198D01*
X1378094Y33215D01*
X1372449Y23439D01*
X1369528Y12534D01*
Y1245D01*
X1372449Y-9659D01*
X1378094Y-19436D01*
X1386076Y-27418D01*
X1395853Y-33062D01*
X1406757Y-35984D01*
X1418046D01*
X1428950Y-33062D01*
X1438727Y-27418D01*
X1446709Y-19436D01*
X1452354Y-9659D01*
X1453024Y-7160D01*
X1479995D01*
X1483537Y-13295D01*
X1489658Y-19416D01*
X1497154Y-23744D01*
X1505515Y-25984D01*
X1514171D01*
X1522532Y-23744D01*
X1530028Y-19416D01*
X1536149Y-13295D01*
X1540476Y-5799D01*
X1542717Y2562D01*
Y11218D01*
X1540476Y19579D01*
X1536149Y27075D01*
X1530028Y33196D01*
X1522532Y37523D01*
X1514171Y39764D01*
X1505515D01*
X1497154Y37523D01*
X1489658Y33196D01*
X1483537Y27075D01*
X1479995Y20939D01*
X1453024D01*
X1452354Y23439D01*
X1446709Y33215D01*
X1438727Y41198D01*
X1428950Y46842D01*
X1418046Y49764D01*
D02*
G37*
G36*
Y-50236D02*
X1406757D01*
X1395853Y-53158D01*
X1386076Y-58802D01*
X1378094Y-66785D01*
X1372449Y-76561D01*
X1369528Y-87466D01*
Y-98755D01*
X1372449Y-109659D01*
X1378094Y-119436D01*
X1386076Y-127418D01*
X1395853Y-133062D01*
X1406757Y-135984D01*
X1418046D01*
X1428950Y-133062D01*
X1438727Y-127418D01*
X1446709Y-119436D01*
X1452354Y-109659D01*
X1453103Y-106864D01*
X1480165D01*
X1483537Y-112705D01*
X1489658Y-118826D01*
X1497154Y-123153D01*
X1505515Y-125394D01*
X1514171D01*
X1522532Y-123153D01*
X1530028Y-118826D01*
X1536149Y-112705D01*
X1540476Y-105209D01*
X1542717Y-96848D01*
Y-88192D01*
X1540476Y-79831D01*
X1536149Y-72335D01*
X1530028Y-66214D01*
X1522532Y-61886D01*
X1514171Y-59646D01*
X1505515D01*
X1497154Y-61886D01*
X1489658Y-66214D01*
X1483537Y-72335D01*
X1479824Y-78765D01*
X1452944D01*
X1452354Y-76561D01*
X1446709Y-66785D01*
X1438727Y-58802D01*
X1428950Y-53158D01*
X1418046Y-50236D01*
D02*
G37*
G36*
X1276811Y-825471D02*
Y-861649D01*
X1312989D01*
X1310766Y-853350D01*
X1304578Y-842633D01*
X1295827Y-833882D01*
X1285110Y-827694D01*
X1276811Y-825471D01*
D02*
G37*
G36*
X1257126Y-825471D02*
X1248827Y-827694D01*
X1238110Y-833882D01*
X1229359Y-842633D01*
X1223171Y-853350D01*
X1220948Y-861649D01*
X1257126D01*
Y-825471D01*
D02*
G37*
G36*
X1472876Y-826617D02*
X1461061D01*
X1449648Y-829675D01*
X1439415Y-835583D01*
X1431060Y-843938D01*
X1425153Y-854171D01*
X1422094Y-865583D01*
Y-877399D01*
X1425153Y-888812D01*
X1431060Y-899045D01*
X1439415Y-907399D01*
X1449648Y-913307D01*
X1461061Y-916365D01*
X1472876D01*
X1484289Y-913307D01*
X1494522Y-907399D01*
X1502877Y-899045D01*
X1508784Y-888812D01*
X1511842Y-877399D01*
Y-865583D01*
X1508784Y-854171D01*
X1502877Y-843938D01*
X1494522Y-835583D01*
X1484289Y-829675D01*
X1472876Y-826617D01*
D02*
G37*
G36*
X1072876D02*
X1061061D01*
X1049648Y-829675D01*
X1039415Y-835583D01*
X1031060Y-843938D01*
X1025153Y-854171D01*
X1022095Y-865583D01*
Y-877399D01*
X1025153Y-888812D01*
X1031060Y-899045D01*
X1039415Y-907399D01*
X1049648Y-913307D01*
X1061061Y-916365D01*
X1072876D01*
X1084289Y-913307D01*
X1094522Y-907399D01*
X1102877Y-899045D01*
X1108784Y-888812D01*
X1111842Y-877399D01*
Y-865583D01*
X1108784Y-854171D01*
X1102877Y-843938D01*
X1094522Y-835583D01*
X1084289Y-829675D01*
X1072876Y-826617D01*
D02*
G37*
G36*
X1257126Y-881334D02*
X1220948D01*
X1223171Y-889633D01*
X1229359Y-900350D01*
X1238110Y-909101D01*
X1248827Y-915288D01*
X1257126Y-917512D01*
Y-881334D01*
D02*
G37*
G36*
X1312989D02*
X1276811D01*
Y-917512D01*
X1285110Y-915288D01*
X1295827Y-909101D01*
X1304578Y-900350D01*
X1310766Y-889633D01*
X1312989Y-881334D01*
D02*
G37*
G36*
X1372876Y-826617D02*
X1361061D01*
X1349648Y-829675D01*
X1339415Y-835583D01*
X1331060Y-843938D01*
X1325153Y-854171D01*
X1322094Y-865583D01*
Y-877399D01*
X1325153Y-888812D01*
X1331060Y-899045D01*
X1339415Y-907399D01*
X1342884Y-909402D01*
Y-999433D01*
X1253341Y-1088976D01*
X1208661D01*
Y-1167716D01*
X1287401D01*
Y-1123037D01*
X1383999Y-1026440D01*
X1389220Y-1018626D01*
X1391053Y-1009409D01*
Y-909402D01*
X1394522Y-907399D01*
X1402877Y-899045D01*
X1408784Y-888812D01*
X1411842Y-877399D01*
Y-865583D01*
X1408784Y-854171D01*
X1402877Y-843938D01*
X1394522Y-835583D01*
X1384289Y-829675D01*
X1372876Y-826617D01*
D02*
G37*
G36*
X1253215Y-1188976D02*
X1242848D01*
X1232835Y-1191659D01*
X1223858Y-1196843D01*
X1216528Y-1204173D01*
X1211344Y-1213150D01*
X1208661Y-1223163D01*
Y-1233530D01*
X1211344Y-1243543D01*
X1216528Y-1252520D01*
X1223858Y-1259850D01*
X1232835Y-1265034D01*
X1242848Y-1267716D01*
X1253215D01*
X1263228Y-1265034D01*
X1272205Y-1259850D01*
X1279535Y-1252520D01*
X1284718Y-1243543D01*
X1287401Y-1233530D01*
Y-1223163D01*
X1284718Y-1213150D01*
X1279535Y-1204173D01*
X1272205Y-1196843D01*
X1263228Y-1191659D01*
X1253215Y-1188976D01*
D02*
G37*
%LPD*%
D13*
X376339Y-1157121D02*
X376969Y-1156491D01*
X281969Y-1171491D02*
X296339Y-1157121D01*
X376339D01*
X274147Y-1163669D02*
X281969Y-1171491D01*
X154528Y-1163669D02*
X274147D01*
D20*
X-1210630Y1595748D02*
D03*
Y1515748D02*
D03*
X-1390748Y-946221D02*
D03*
Y-1026220D02*
D03*
X1013779Y-581339D02*
D03*
Y-501339D02*
D03*
D21*
X1564961Y-579524D02*
D03*
Y-385043D02*
D03*
D22*
X-1390748Y-803583D02*
D03*
Y-873583D02*
D03*
D23*
X1515748Y1515748D02*
D03*
X-578740Y881890D02*
D03*
X-1377953Y-1515748D02*
D03*
X-298228Y113189D02*
D03*
X-1458661Y-799213D02*
D03*
X-1492126Y-1575787D02*
D03*
X164370Y-1566929D02*
D03*
X1555118Y-1275591D02*
D03*
X1550197Y-212598D02*
D03*
X1459646Y1442913D02*
D03*
X-110236Y1594488D02*
D03*
X980315Y-640748D02*
D03*
D43*
X-1456693Y-1397638D02*
D03*
X0Y0D02*
D03*
X-826772D02*
D03*
X0Y-826772D02*
D03*
D44*
X1248032Y-1228347D02*
D03*
X-741142Y1485236D02*
D03*
X-982284D02*
D03*
X-31496Y1069882D02*
D03*
Y1345472D02*
D03*
X-464567Y1345473D02*
D03*
Y1069882D02*
D03*
D45*
X1248032Y-1128347D02*
D03*
D50*
X388976Y1406819D02*
Y1406818D01*
X370868Y1355809D02*
X377684Y1362046D01*
X383191Y1369465D01*
X387189Y1377795D01*
X389532Y1386732D01*
X390135Y1395952D01*
X388976Y1405118D01*
X341732Y1446063D02*
X353045Y1447403D01*
X363732Y1451349D01*
X373201Y1457682D01*
X404815Y1378982D02*
X406387Y1388195D01*
X406621Y1397539D01*
X405512Y1406819D01*
X-541339Y-246063D02*
X-100787Y194488D01*
X241732D01*
X-541339Y-769291D02*
Y-246063D01*
Y-769291D02*
X-444488Y-866142D01*
X-1205089Y1510207D02*
X-1165413D01*
X-1140443Y1485236D02*
X-1082284D01*
X-1210630Y1515748D02*
X-1205089Y1510207D01*
X-1165413D02*
X-1140443Y1485236D01*
X-236378Y-1423228D02*
X1018706D01*
X-338976Y-1525827D02*
X-236378Y-1423228D01*
X1018706D02*
X1166968Y-1571491D01*
X958076Y-1462598D02*
X1066968Y-1571491D01*
X-238976Y-1515827D02*
X-185748Y-1462598D01*
X958076D01*
X-138976Y-1525827D02*
X-122148D01*
X-106164Y-1509842D02*
X905320D01*
X966968Y-1571491D01*
X-122148Y-1525827D02*
X-106164Y-1509842D01*
X1558071Y-1562594D02*
Y-1518701D01*
X1414370Y-1375000D02*
X1558071Y-1518701D01*
Y-1562594D02*
X1566968Y-1571491D01*
X-298150Y-1375000D02*
X1414370D01*
X-438976Y-1515827D02*
X-298150Y-1375000D01*
X1175602Y-826366D02*
X1200787Y-801181D01*
X1166968Y-871491D02*
X1175602Y-862858D01*
X1200787Y-801181D02*
X1582751D01*
X1175602Y-862858D02*
Y-826366D01*
X1582751Y-801181D02*
X1631890Y-752043D01*
Y-520669D01*
X1493312Y-471457D02*
X1582677D01*
X1631890Y-520669D01*
X996063Y25793D02*
X1493312Y-471457D01*
X996063Y25793D02*
Y655512D01*
X1366968Y-1463247D02*
X1376903Y-1453313D01*
X1366968Y-1478288D02*
Y-1463247D01*
Y-1478288D02*
X1373887Y-1485207D01*
X1375514D01*
X1376400Y-1486093D01*
Y-1502038D02*
Y-1486093D01*
X1375514Y-1502923D02*
X1376400Y-1502038D01*
X1373887Y-1502923D02*
X1375514D01*
X1366968Y-1509842D02*
X1373887Y-1502923D01*
X1366968Y-1533465D02*
Y-1509842D01*
X-1406693Y1442913D02*
X-1318898D01*
X-1261319Y1385335D02*
X-1138287D01*
X-1318898Y1442913D02*
X-1261319Y1385335D01*
X-1138287D02*
X-927709Y1174756D01*
X-1211024Y1342913D02*
X-942866Y1074756D01*
X-927709Y1174756D02*
X-878606D01*
X-942866Y1074756D02*
X-878606D01*
X-1406693Y1342913D02*
X-1211024D01*
X-1458268Y1494488D02*
X-1406693Y1442913D01*
X404528Y406496D02*
X505020Y306004D01*
X404528Y406496D02*
Y631693D01*
X397638Y113189D02*
Y220472D01*
Y113189D02*
X505906Y4921D01*
X290158Y277579D02*
Y546063D01*
Y277579D02*
X324824Y242913D01*
X375197D01*
X397638Y220472D01*
X241732Y594488D02*
X290158Y546063D01*
X341732Y694488D02*
X404528Y631693D01*
X482284Y-246063D02*
X689961D01*
X822378Y-113646D02*
Y435496D01*
X689961Y-246063D02*
X822378Y-113646D01*
X529528Y-200787D02*
X664370D01*
X761811Y-103347D02*
Y258858D01*
X664370Y-200787D02*
X761811Y-103347D01*
X729465Y291205D02*
X761811Y258858D01*
X729465Y291205D02*
Y528299D01*
X775921Y574756D01*
X689961Y588795D02*
X775921Y674756D01*
X689961Y-110236D02*
Y588795D01*
X644685Y-155512D02*
X689961Y-110236D01*
X556102Y-155512D02*
X644685D01*
X412402Y-11811D02*
X556102Y-155512D01*
X412402Y-11811D02*
Y23819D01*
X341732Y94488D02*
X412402Y23819D01*
X522663Y-193923D02*
X529528Y-200787D01*
X341732Y-12992D02*
Y-5512D01*
Y-12992D02*
X522663Y-193923D01*
X775921Y474756D02*
X783118D01*
X822378Y435496D01*
X341732Y-105512D02*
X482284Y-246063D01*
X366732Y-353937D02*
X590795Y-578000D01*
X776000D01*
X290158Y-353937D02*
X366732D01*
X596110Y-478000D02*
X776000D01*
X290158Y-253937D02*
X372047D01*
X596110Y-478000D01*
X593354Y-678000D02*
X776000D01*
X369291Y-453937D02*
X593354Y-678000D01*
X290158Y-453937D02*
X369291D01*
X592961Y-778000D02*
X776000D01*
X331693Y-595472D02*
X410433D01*
X592961Y-778000D01*
X241732Y-505512D02*
X331693Y-595472D01*
X416386Y1328862D02*
X423228Y1335705D01*
Y1423342D01*
X416386Y1200658D02*
Y1328862D01*
X422047Y1424524D02*
X423228Y1423342D01*
X401032Y1363590D02*
X404815Y1378982D01*
X489468Y1557087D02*
X714567D01*
X388976Y1438222D02*
X450361Y1499606D01*
X388976Y1406818D02*
X388976Y1405118D01*
X293307Y1446063D02*
X341732D01*
X353749Y1342913D02*
X370868Y1355809D01*
X471812Y1517716D02*
X670276D01*
X457210Y1483071D02*
X459077Y1483268D01*
X289848Y1442604D02*
X293307Y1446063D01*
X397572Y1281845D02*
X401032Y1363590D01*
X241732Y1394488D02*
X289848Y1442604D01*
X373201Y1457682D02*
X489468Y1557087D01*
X464059Y1466535D02*
X628979D01*
X405512Y1406819D02*
Y1431373D01*
X290158Y1342913D02*
X353749D01*
X405512Y1431373D02*
X457210Y1483071D01*
X388976Y1406819D02*
X388976Y1438222D01*
X422047Y1424524D02*
X464059Y1466535D01*
X360144Y1244416D02*
X397572Y1281845D01*
X450361Y1499606D02*
X471812Y1517716D01*
X628979Y1466535D02*
X683465Y1412050D01*
X459077Y1483268D02*
X654528D01*
X472284Y905709D02*
X472874Y906299D01*
X611811D01*
X612402Y906890D01*
X482874Y1006299D02*
X611811D01*
X612402Y1006890D01*
X482284Y1005709D02*
X482874Y1006299D01*
X775921Y774756D02*
X824492Y823327D01*
X905512Y823819D02*
X1012795Y931102D01*
X859252Y823819D02*
X905512D01*
X858760Y823327D02*
X859252Y823819D01*
X824492Y823327D02*
X858760D01*
X743110Y724409D02*
X927165D01*
X690229Y777290D02*
X743110Y724409D01*
X690229Y777290D02*
Y829062D01*
X927165Y724409D02*
X996063Y655512D01*
X612402Y906890D02*
X690229Y829062D01*
X1012795Y931102D02*
Y1364173D01*
X-1458268Y1294488D02*
X-1406693Y1242913D01*
X-1458268Y1394488D02*
X-1406693Y1342913D01*
X-1206496Y1242913D02*
X-938339Y974756D01*
X-908210Y682817D02*
X-886667D01*
X-1458268Y794488D02*
X-1409843Y746063D01*
X-1458268Y1194488D02*
X-1408268Y1144488D01*
X-889717Y574756D02*
X-878606D01*
X-1458268Y1094488D02*
X-1409843Y1046063D01*
Y746063D02*
X-1188976D01*
X-1196653Y1144488D02*
X-926921Y874756D01*
X-878606D01*
X-917669Y474756D02*
X-878606D01*
X-1176968Y1046063D02*
X-913722Y782817D01*
X-1188976Y746063D02*
X-917669Y474756D01*
X-886667Y782817D02*
X-878606Y774756D01*
X-1408268Y1144488D02*
X-1196653D01*
X-1406693Y1242913D02*
X-1206496D01*
X-1458268Y994488D02*
X-1409843Y946063D01*
X-1458268Y894488D02*
X-1409843Y846063D01*
X-1161024D01*
X-889717Y574756D01*
X-938339Y974756D02*
X-878606D01*
X-1409843Y946063D02*
X-1171457D01*
X-908210Y682817D01*
X-886667D02*
X-878606Y674756D01*
X-1409843Y1046063D02*
X-1176968D01*
X-913722Y782817D02*
X-886667D01*
X1376903Y-1453313D02*
X1387795Y-1442420D01*
X1366968Y-1571491D02*
Y-1533465D01*
X1387795Y-1442420D02*
Y-1432087D01*
X1266968Y-1533465D02*
Y-1471693D01*
X1253937Y-1458661D02*
X1266968Y-1471693D01*
Y-1571491D02*
Y-1533465D01*
X1227362Y-1432087D02*
X1253937Y-1458661D01*
X1412697Y-92815D02*
X1509547D01*
X1509843Y-92520D01*
X1412402Y-93110D02*
X1412697Y-92815D01*
X1412402Y6890D02*
X1509843D01*
X1412402Y6890D02*
X1412402Y6890D01*
X1509547Y106594D02*
X1509843Y106299D01*
X1412402Y106890D02*
X1412697Y106594D01*
X1509547D01*
X1412402Y206890D02*
X1413484Y205807D01*
X1508760D01*
X1509843Y204724D01*
X1412795Y306496D02*
X1509449D01*
X1509843Y306102D01*
X1412402Y306890D02*
X1412795Y306496D01*
X1412697Y407185D02*
X1509547D01*
X1509843Y407480D01*
X1412402Y406890D02*
X1412697Y407185D01*
X1508858Y505906D02*
X1509843Y504921D01*
X1412402Y506890D02*
X1413386Y505906D01*
X1508858D01*
X1412402Y606890D02*
X1414173Y605118D01*
X1508071D01*
X1509843Y603346D01*
X1066457Y-870980D02*
X1066968Y-871491D01*
X611811Y1406299D02*
X612402Y1406890D01*
X482284Y1405709D02*
X482874Y1406299D01*
X611811D01*
X472874Y1306299D02*
X611811D01*
X612402Y1306890D01*
X472284Y1305709D02*
X472874Y1306299D01*
X683465Y967213D02*
Y1412050D01*
X654528Y1483268D02*
X703740Y1434055D01*
Y1046937D02*
Y1434055D01*
X482284Y1205709D02*
X482874Y1206299D01*
X611811D02*
X612402Y1206890D01*
X482874Y1206299D02*
X611811D01*
X683465Y967213D02*
X775921Y874756D01*
X482874Y806299D02*
X611811D01*
X482284Y805709D02*
X482874Y806299D01*
X611811D02*
X612402Y806890D01*
X472874Y706299D02*
X611811D01*
X612402Y706890D01*
X472284Y705709D02*
X472874Y706299D01*
X482874Y606299D02*
X611811D01*
X482284Y605709D02*
X482874Y606299D01*
X611811D02*
X612402Y606890D01*
X611811Y506299D02*
X612402Y506890D01*
X472284Y505709D02*
X472874Y506299D01*
X611811D01*
X505906Y402559D02*
X508071Y404724D01*
X610236D01*
X612402Y406890D01*
X505020Y306004D02*
X611516D01*
X612402Y306890D01*
X505906Y203740D02*
X507480Y205315D01*
X610827D02*
X612402Y206890D01*
X507480Y205315D02*
X610827D01*
X506693Y106102D02*
X611614D01*
X612402Y106890D01*
X505906Y105315D02*
X506693Y106102D01*
X506890Y5906D02*
X611417D01*
X505906Y4921D02*
X506890Y5906D01*
X611417D02*
X612402Y6890D01*
X670276Y1517716D02*
X726378Y1461614D01*
Y1124299D02*
Y1461614D01*
X703740Y1046937D02*
X775921Y974756D01*
X726378Y1124299D02*
X775921Y1074756D01*
X714567Y1557087D02*
X826772Y1444882D01*
Y1225607D02*
Y1444882D01*
X775921Y1174756D02*
X826772Y1225607D01*
X772638Y1604331D02*
X1012795Y1364173D01*
X292520Y1545276D02*
X391732D01*
X450787Y1604331D01*
X772638D01*
X241732Y1494488D02*
X292520Y1545276D01*
X291660Y1244416D02*
X360144D01*
X241732Y1294488D02*
X290158Y1342913D01*
X361791Y1146063D02*
X416386Y1200658D01*
X241732Y1194488D02*
X291660Y1244416D01*
X293307Y1146063D02*
X361791D01*
X241732Y1094488D02*
X293307Y1146063D01*
X241732Y-405512D02*
X290158Y-453937D01*
X241732Y-305512D02*
X290158Y-353937D01*
X241732Y-205512D02*
X290158Y-253937D01*
D51*
X-840551Y1412402D02*
D03*
X-739173D02*
D03*
X1509843Y306102D02*
D03*
X505906Y402559D02*
D03*
X1387795Y-1432087D02*
D03*
X1227362D02*
D03*
X-110236Y1594488D02*
D03*
X1509843Y204724D02*
D03*
Y504921D02*
D03*
X505906Y105315D02*
D03*
X506890Y5906D02*
D03*
D52*
X1259842Y905512D02*
D03*
X1299842D02*
D03*
D53*
X1509843Y6890D02*
D03*
Y-92520D02*
D03*
Y106299D02*
D03*
Y407480D02*
D03*
Y603346D02*
D03*
X505906Y203740D02*
D03*
X505020Y306004D02*
D03*
D54*
X-741142Y1485236D02*
X-740157Y1484252D01*
Y1413386D02*
Y1484252D01*
Y1413386D02*
X-739173Y1412402D01*
X-840846Y1412697D02*
Y1484941D01*
X-841142Y1485236D02*
X-840846Y1484941D01*
Y1412697D02*
X-840551Y1412402D01*
X-1357638Y1595118D02*
X-1211260D01*
X-1358268Y1594488D02*
X-1357638Y1595118D01*
X-1211260D02*
X-1210630Y1595748D01*
X-1456476Y-801398D02*
X-1392933D01*
X-1458661Y-799213D02*
X-1456476Y-801398D01*
X-1392933D02*
X-1390748Y-803583D01*
X1554134Y1137609D02*
X1603968Y1087774D01*
Y1017932D02*
Y1087774D01*
X1628378Y1007822D02*
Y1158473D01*
X1544134Y1242716D02*
X1628378Y1158473D01*
X1492926Y906890D02*
X1603968Y1017932D01*
X1623032Y1002475D02*
X1628378Y1007822D01*
X1623032Y1001073D02*
Y1002475D01*
X1547244Y925286D02*
X1623032Y1001073D01*
X1554134Y1137609D02*
Y1142716D01*
X-1390748Y-946221D02*
Y-873583D01*
X1299842Y905512D02*
X1411024D01*
X1412402Y906890D01*
X1200787Y846457D02*
Y1051181D01*
Y846457D02*
X1340354Y706890D01*
X1412402D01*
X1200787Y1051181D02*
X1487606Y1338000D01*
X996122Y-591496D02*
X1006279Y-581339D01*
X980315Y-640748D02*
Y-635421D01*
X1006279Y-581339D02*
X1013779D01*
X996122Y-619614D02*
Y-591496D01*
X980315Y-635421D02*
X996122Y-619614D01*
X1475246Y-579524D02*
X1564961D01*
X1379528Y-551181D02*
X1446904D01*
X1475246Y-579524D01*
X1566535Y-738346D02*
Y-581098D01*
X1564961Y-579524D02*
X1566535Y-581098D01*
X1547244Y808772D02*
Y925286D01*
X1412402Y906890D02*
X1492926D01*
X1493610Y1006890D02*
X1529436Y1042716D01*
X1412402Y1006890D02*
X1493610D01*
X1529436Y1042716D02*
X1544134D01*
X1487606Y1338000D02*
X1549418D01*
X1554134Y1342716D01*
X1413342Y807831D02*
X1546303D01*
X1412402Y806890D02*
X1413342Y807831D01*
X1546303D02*
X1547244Y808772D01*
D55*
X1566968Y-1571491D02*
Y-1518701D01*
Y-1401614D01*
X1366968Y-1009409D02*
Y-871491D01*
X1248032Y-1128347D02*
X1366968Y-1009409D01*
X968504Y-1173228D02*
X1098425Y-1303150D01*
X1468504D01*
X1566968Y-1401614D01*
X1048071Y-738346D02*
X1366535D01*
X968504Y-817913D02*
X1048071Y-738346D01*
X968504Y-1173228D02*
Y-817913D01*
D56*
X1279842Y905512D02*
D03*
D57*
X-841142Y1485236D02*
D03*
X-1082284D02*
D03*
D58*
X-1279134Y-1563976D02*
D03*
Y-1463976D02*
D03*
X-1179134Y-1563976D02*
D03*
Y-1463976D02*
D03*
X-1079134Y-1563976D02*
D03*
Y-1463976D02*
D03*
X-979134Y-1563976D02*
D03*
Y-1463976D02*
D03*
X-879134Y-1563976D02*
D03*
Y-1463976D02*
D03*
X-779134Y-1563976D02*
D03*
Y-1463976D02*
D03*
X-679134Y-1563976D02*
D03*
Y-1463976D02*
D03*
X-579134Y-1563976D02*
D03*
Y-1463976D02*
D03*
X-344488Y-966142D02*
D03*
X-444488D02*
D03*
X-344488Y-866142D02*
D03*
X-444488D02*
D03*
X-344488Y-766142D02*
D03*
X-444488D02*
D03*
X1066968Y-871491D02*
D03*
X1166968D02*
D03*
X1266968D02*
D03*
X1366968D02*
D03*
X1466968D02*
D03*
X1566968D02*
D03*
X966968Y-1571491D02*
D03*
X1066968D02*
D03*
X1166968D02*
D03*
X1266968D02*
D03*
X1366968D02*
D03*
X1466968D02*
D03*
X1566968D02*
D03*
X1544134Y1042716D02*
D03*
X1554134Y1142716D02*
D03*
X1544134Y1242716D02*
D03*
X1554134Y1342716D02*
D03*
X-438976Y-1515827D02*
D03*
X-338976Y-1525827D02*
D03*
X-238976Y-1515827D02*
D03*
X-138976Y-1525827D02*
D03*
X1547244Y694772D02*
D03*
Y808772D02*
D03*
X482284Y1405709D02*
D03*
X472284Y1305709D02*
D03*
X482284Y1205709D02*
D03*
X472284Y1105709D02*
D03*
X482284Y1005709D02*
D03*
X472284Y905709D02*
D03*
X482284Y805709D02*
D03*
X472284Y705709D02*
D03*
X482284Y605709D02*
D03*
X472284Y505709D02*
D03*
X1366535Y-738346D02*
D03*
X1466535Y-728346D02*
D03*
X1566535Y-738346D02*
D03*
X115157Y-1163276D02*
D03*
Y-1277276D02*
D03*
D59*
X281969Y-1171491D02*
D03*
Y-1271491D02*
D03*
D60*
X376969Y-1156491D02*
D03*
D61*
Y-1294291D02*
D03*
D62*
X341969Y-696491D02*
D03*
D63*
X341732Y894488D02*
D03*
X241732Y794488D02*
D03*
Y894488D02*
D03*
X-1358268Y-505512D02*
D03*
X-1458268D02*
D03*
X-1358268Y-405512D02*
D03*
X-1458268D02*
D03*
X-1358268Y-305512D02*
D03*
X-1458268D02*
D03*
X-1358268Y-205512D02*
D03*
X-1458268D02*
D03*
X241732Y-505512D02*
D03*
Y-305512D02*
D03*
Y-405512D02*
D03*
X341732D02*
D03*
Y-505512D02*
D03*
Y1494488D02*
D03*
Y1594488D02*
D03*
X241732Y1494488D02*
D03*
Y1394488D02*
D03*
X341732D02*
D03*
X241732Y1294488D02*
D03*
X341732D02*
D03*
X241732Y1194488D02*
D03*
X341732D02*
D03*
X241732Y1094488D02*
D03*
X341732D02*
D03*
Y994488D02*
D03*
X241732D02*
D03*
X341732Y794488D02*
D03*
X241732Y694488D02*
D03*
X341732D02*
D03*
X241732Y594488D02*
D03*
X341732D02*
D03*
X241732Y494488D02*
D03*
X341732D02*
D03*
Y394488D02*
D03*
Y294488D02*
D03*
X241732Y394488D02*
D03*
Y194488D02*
D03*
Y294488D02*
D03*
X341732Y194488D02*
D03*
X241732Y94488D02*
D03*
X341732D02*
D03*
X241732Y-5512D02*
D03*
X341732D02*
D03*
X241732Y-105512D02*
D03*
X341732D02*
D03*
X241732Y-205512D02*
D03*
X341732D02*
D03*
Y-305512D02*
D03*
X-1458268Y694488D02*
D03*
X-1358268Y-105512D02*
D03*
X-1458268D02*
D03*
X-1358268Y-5512D02*
D03*
X-1458268D02*
D03*
X-1358268Y94488D02*
D03*
X-1458268D02*
D03*
X-1358268Y194488D02*
D03*
X-1458268D02*
D03*
X-1358268Y294488D02*
D03*
X-1458268D02*
D03*
X-1358268Y394488D02*
D03*
X-1458268D02*
D03*
X-1358268Y494488D02*
D03*
X-1458268D02*
D03*
X-1358268Y594488D02*
D03*
X-1458268D02*
D03*
X-1358268Y694488D02*
D03*
Y794488D02*
D03*
X-1458268D02*
D03*
X-1358268Y894488D02*
D03*
X-1458268D02*
D03*
X-1358268Y994488D02*
D03*
X-1458268D02*
D03*
X-1358268Y1094488D02*
D03*
X-1458268D02*
D03*
X-1358268Y1194488D02*
D03*
X-1458268D02*
D03*
X-1358268Y1294488D02*
D03*
X-1458268D02*
D03*
X-1358268Y1394488D02*
D03*
X-1458268D02*
D03*
Y1494488D02*
D03*
X-1358268Y1594488D02*
D03*
Y1494488D02*
D03*
D64*
X1362402Y1556890D02*
D03*
D65*
Y-243110D02*
D03*
D66*
X612402Y1106890D02*
D03*
Y1406890D02*
D03*
Y1306890D02*
D03*
Y1206890D02*
D03*
Y1006890D02*
D03*
Y906890D02*
D03*
Y806890D02*
D03*
Y706890D02*
D03*
Y606890D02*
D03*
Y506890D02*
D03*
Y406890D02*
D03*
Y306890D02*
D03*
Y206890D02*
D03*
Y106890D02*
D03*
Y6890D02*
D03*
Y-93110D02*
D03*
X1412402D02*
D03*
Y6890D02*
D03*
Y106890D02*
D03*
Y206890D02*
D03*
Y306890D02*
D03*
Y406890D02*
D03*
Y506890D02*
D03*
Y606890D02*
D03*
Y706890D02*
D03*
Y806890D02*
D03*
Y906890D02*
D03*
Y1006890D02*
D03*
D67*
X875921Y374756D02*
D03*
X775921D02*
D03*
X875921Y474756D02*
D03*
X775921D02*
D03*
X875921Y574756D02*
D03*
X775921D02*
D03*
X875921Y674756D02*
D03*
X775921D02*
D03*
X875921Y774756D02*
D03*
X775921D02*
D03*
X875921Y874756D02*
D03*
X775921D02*
D03*
X875921Y974756D02*
D03*
X775921D02*
D03*
X875921Y1074756D02*
D03*
X775921D02*
D03*
X875921Y1174756D02*
D03*
X775921D02*
D03*
X875921Y1274756D02*
D03*
X876000Y-378000D02*
D03*
X776000Y-478000D02*
D03*
X876000D02*
D03*
X776000Y-578000D02*
D03*
X876000D02*
D03*
X776000Y-678000D02*
D03*
X876000D02*
D03*
X776000Y-778000D02*
D03*
X876000D02*
D03*
X776000Y-878000D02*
D03*
X876000D02*
D03*
X776000Y-978000D02*
D03*
X876000D02*
D03*
X776000Y-1078000D02*
D03*
X876000D02*
D03*
X776000Y-1178000D02*
D03*
X876000D02*
D03*
X776000Y-1278000D02*
D03*
X876000D02*
D03*
X-778606Y-1278000D02*
D03*
X-878606D02*
D03*
X-778606Y-1178000D02*
D03*
X-878606D02*
D03*
X-778606Y-1078000D02*
D03*
X-878606D02*
D03*
X-778606Y-978000D02*
D03*
X-878606D02*
D03*
X-778606Y-878000D02*
D03*
X-878606D02*
D03*
X-778606Y-778000D02*
D03*
X-878606D02*
D03*
X-778606Y-678000D02*
D03*
X-878606D02*
D03*
X-778606Y-578000D02*
D03*
X-878606D02*
D03*
X-778606Y-478000D02*
D03*
X-878606D02*
D03*
X-778606Y-378000D02*
D03*
Y1274756D02*
D03*
X-878606Y1174756D02*
D03*
X-778606D02*
D03*
X-878606Y1074756D02*
D03*
X-778606D02*
D03*
X-878606Y974756D02*
D03*
X-778606D02*
D03*
X-878606Y874756D02*
D03*
X-778606D02*
D03*
X-878606Y774756D02*
D03*
X-778606D02*
D03*
X-878606Y674756D02*
D03*
X-778606D02*
D03*
X-878606Y574756D02*
D03*
X-778606D02*
D03*
X-878606Y474756D02*
D03*
X-778606D02*
D03*
X-878606Y374756D02*
D03*
X-778606D02*
D03*
D68*
X775921Y1274756D02*
D03*
X776000Y-378000D02*
D03*
X-878606Y-378000D02*
D03*
Y1274756D02*
D03*
D69*
X241732Y1594488D02*
D03*
X-1458268D02*
D03*
D70*
X1379528Y-551181D02*
D03*
X1279528D02*
D03*
D71*
X1179528D02*
D03*
M02*
