G04*
G04 #@! TF.GenerationSoftware,Altium Limited,Altium Designer,23.5.1 (21)*
G04*
G04 Layer_Physical_Order=6*
G04 Layer_Color=16711680*
%FSLAX26Y26*%
%MOIN*%
G70*
G04*
G04 #@! TF.SameCoordinates,34754160-EC67-4D61-A336-4AE92D18F558*
G04*
G04*
G04 #@! TF.FilePolarity,Positive*
G04*
G01*
G75*
%ADD11C,0.007874*%
%ADD13C,0.078740*%
%ADD17C,0.011811*%
%ADD24C,0.039370*%
%ADD35C,0.094488*%
%ADD45C,0.062992*%
G04:AMPARAMS|DCode=50|XSize=50mil|YSize=50mil|CornerRadius=25mil|HoleSize=0mil|Usage=FLASHONLY|Rotation=180.000|XOffset=0mil|YOffset=0mil|HoleType=Round|Shape=RoundedRectangle|*
%AMROUNDEDRECTD50*
21,1,0.050000,0.000000,0,0,180.0*
21,1,0.000000,0.050000,0,0,180.0*
1,1,0.050000,0.000000,0.000000*
1,1,0.050000,0.000000,0.000000*
1,1,0.050000,0.000000,0.000000*
1,1,0.050000,0.000000,0.000000*
%
%ADD50ROUNDEDRECTD50*%
%ADD53C,0.059055*%
%ADD54R,0.059055X0.059055*%
%ADD55C,0.070000*%
%ADD56C,0.100000*%
%ADD57C,0.149606*%
%ADD58C,0.074000*%
%ADD59C,0.080000*%
%ADD60R,0.080000X0.080000*%
%ADD61C,0.074803*%
%ADD62R,0.062992X0.062992*%
%ADD63C,0.062992*%
%ADD64C,0.055118*%
%ADD65R,0.055118X0.055118*%
%ADD66C,0.050000*%
%ADD68R,0.082677X0.078740*%
%ADD69R,0.082677X0.086614*%
%ADD70R,0.082677X0.106299*%
%ADD71R,0.106299X0.102362*%
%ADD72R,0.025000X0.050000*%
%ADD73R,0.016000X0.010000*%
G36*
X1558071Y1387591D02*
X1548226D01*
X1536813Y1384532D01*
X1526581Y1378625D01*
X1518226Y1370270D01*
X1512318Y1360037D01*
X1509260Y1348624D01*
Y1336809D01*
X1512318Y1325396D01*
X1518226Y1315163D01*
X1526581Y1306808D01*
X1536813Y1300901D01*
X1548226Y1297842D01*
X1558071D01*
Y1289546D01*
X1554104Y1286502D01*
X1550042Y1287591D01*
X1538226D01*
X1526813Y1284532D01*
X1516581Y1278625D01*
X1508226Y1270270D01*
X1502318Y1260037D01*
X1499260Y1248624D01*
Y1236809D01*
X1502318Y1225396D01*
X1508226Y1215163D01*
X1516581Y1206808D01*
X1526813Y1200901D01*
X1538226Y1197842D01*
X1550042D01*
X1554104Y1198931D01*
X1558071Y1195887D01*
Y1187591D01*
X1548226D01*
X1536813Y1184532D01*
X1526581Y1178625D01*
X1518226Y1170270D01*
X1512318Y1160037D01*
X1509260Y1148624D01*
Y1136809D01*
X1512318Y1125396D01*
X1518226Y1115163D01*
X1526581Y1106808D01*
X1536813Y1100901D01*
X1548226Y1097842D01*
X1558071D01*
Y1089546D01*
X1554104Y1086502D01*
X1550042Y1087591D01*
X1538226D01*
X1526813Y1084532D01*
X1516581Y1078625D01*
X1508226Y1070270D01*
X1502318Y1060037D01*
X1499260Y1048624D01*
Y1036809D01*
X1502318Y1025396D01*
X1508226Y1015163D01*
X1516581Y1006808D01*
X1526813Y1000901D01*
X1538226Y997842D01*
X1550042D01*
X1554104Y998931D01*
X1558071Y995887D01*
Y856434D01*
X1554104Y853391D01*
X1553152Y853646D01*
X1541336D01*
X1529923Y850588D01*
X1519691Y844680D01*
X1511336Y836325D01*
X1505428Y826092D01*
X1502370Y814679D01*
Y802864D01*
X1505428Y791451D01*
X1511336Y781218D01*
X1519691Y772864D01*
X1529923Y766956D01*
X1541336Y763898D01*
X1553152D01*
X1554104Y764153D01*
X1558071Y761109D01*
Y742434D01*
X1554104Y739391D01*
X1553152Y739646D01*
X1541336D01*
X1529923Y736588D01*
X1519691Y730680D01*
X1511336Y722325D01*
X1505428Y712092D01*
X1502370Y700679D01*
Y688864D01*
X1505428Y677451D01*
X1511336Y667218D01*
X1519691Y658864D01*
X1529923Y652956D01*
X1541336Y649898D01*
X1553152D01*
X1554104Y650153D01*
X1558071Y647109D01*
Y-112378D01*
X1553451Y-114291D01*
X1451060Y-11900D01*
X1452354Y-9659D01*
X1455276Y1245D01*
Y12534D01*
X1452354Y23439D01*
X1446709Y33215D01*
X1438727Y41198D01*
X1428950Y46842D01*
X1418046Y49764D01*
X1406757D01*
X1395853Y46842D01*
X1386076Y41198D01*
X1378094Y33215D01*
X1372449Y23439D01*
X1369528Y12534D01*
Y1245D01*
X1372449Y-9659D01*
X1378094Y-19436D01*
X1386076Y-27418D01*
X1395853Y-33062D01*
X1406757Y-35984D01*
X1418046D01*
X1428950Y-33062D01*
X1431191Y-31769D01*
X1558071Y-158649D01*
Y-818228D01*
X1558011Y-818317D01*
X1556942Y-823694D01*
Y-827721D01*
X1549648Y-829675D01*
X1539415Y-835583D01*
X1531060Y-843938D01*
X1525153Y-854171D01*
X1522094Y-865583D01*
Y-877399D01*
X1525153Y-888812D01*
X1531060Y-899045D01*
X1539415Y-907399D01*
X1549648Y-913307D01*
X1558071Y-915564D01*
Y-1527418D01*
X1549648Y-1529675D01*
X1539415Y-1535583D01*
X1531060Y-1543938D01*
X1525153Y-1554171D01*
X1522094Y-1565583D01*
Y-1577399D01*
X1523237Y-1581663D01*
X1520193Y-1585630D01*
X1413744D01*
X1410700Y-1581663D01*
X1411842Y-1577399D01*
Y-1565583D01*
X1408784Y-1554171D01*
X1402877Y-1543938D01*
X1394522Y-1535583D01*
X1384289Y-1529675D01*
X1372876Y-1526617D01*
X1361061D01*
X1349648Y-1529675D01*
X1339415Y-1535583D01*
X1331060Y-1543938D01*
X1325153Y-1554171D01*
X1322094Y-1565583D01*
Y-1577399D01*
X1323237Y-1581663D01*
X1320193Y-1585630D01*
X1313744D01*
X1310700Y-1581663D01*
X1311842Y-1577399D01*
Y-1565583D01*
X1308784Y-1554171D01*
X1302877Y-1543938D01*
X1294522Y-1535583D01*
X1284289Y-1529675D01*
X1272876Y-1526617D01*
X1261061D01*
X1249648Y-1529675D01*
X1239415Y-1535583D01*
X1231060Y-1543938D01*
X1225153Y-1554171D01*
X1222094Y-1565583D01*
Y-1577399D01*
X1223237Y-1581663D01*
X1220193Y-1585630D01*
X1213744D01*
X1210700Y-1581663D01*
X1211842Y-1577399D01*
Y-1565583D01*
X1208784Y-1554171D01*
X1202877Y-1543938D01*
X1194522Y-1535583D01*
X1184289Y-1529675D01*
X1172876Y-1526617D01*
X1161061D01*
X1149648Y-1529675D01*
X1139415Y-1535583D01*
X1131060Y-1543938D01*
X1125153Y-1554171D01*
X1122094Y-1565583D01*
Y-1577399D01*
X1123237Y-1581663D01*
X1120193Y-1585630D01*
X1113744D01*
X1110700Y-1581663D01*
X1111842Y-1577399D01*
Y-1565583D01*
X1108784Y-1554171D01*
X1102877Y-1543938D01*
X1094522Y-1535583D01*
X1084289Y-1529675D01*
X1072876Y-1526617D01*
X1061061D01*
X1049648Y-1529675D01*
X1039415Y-1535583D01*
X1031060Y-1543938D01*
X1025153Y-1554171D01*
X1022095Y-1565583D01*
Y-1577399D01*
X1023237Y-1581663D01*
X1020193Y-1585630D01*
X1013744D01*
X1010700Y-1581663D01*
X1011842Y-1577399D01*
Y-1565583D01*
X1008784Y-1554171D01*
X1002877Y-1543938D01*
X994522Y-1535583D01*
X984289Y-1529675D01*
X972876Y-1526617D01*
X961061D01*
X949648Y-1529675D01*
X939415Y-1535583D01*
X931060Y-1543938D01*
X925153Y-1554171D01*
X922095Y-1565583D01*
Y-1577399D01*
X923237Y-1581663D01*
X920193Y-1585630D01*
X-92474D01*
X-94974Y-1581300D01*
X-94405Y-1580313D01*
X-91347Y-1568900D01*
Y-1557084D01*
X-94405Y-1545671D01*
X-100312Y-1535439D01*
X-108667Y-1527084D01*
X-118900Y-1521176D01*
X-130313Y-1518118D01*
X-142128D01*
X-153541Y-1521176D01*
X-163774Y-1527084D01*
X-172129Y-1535439D01*
X-178036Y-1545671D01*
X-181095Y-1557084D01*
Y-1568900D01*
X-178036Y-1580313D01*
X-177467Y-1581300D01*
X-179967Y-1585630D01*
X-192474D01*
X-194974Y-1581300D01*
X-194405Y-1580313D01*
X-191346Y-1568900D01*
Y-1557084D01*
X-194405Y-1545671D01*
X-200312Y-1535439D01*
X-208667Y-1527084D01*
X-218900Y-1521176D01*
X-230313Y-1518118D01*
X-242128D01*
X-253541Y-1521176D01*
X-263774Y-1527084D01*
X-272129Y-1535439D01*
X-278036Y-1545671D01*
X-281094Y-1557084D01*
Y-1568900D01*
X-278036Y-1580313D01*
X-277467Y-1581300D01*
X-279967Y-1585630D01*
X-292474D01*
X-294974Y-1581300D01*
X-294405Y-1580313D01*
X-291346Y-1568900D01*
Y-1557084D01*
X-294405Y-1545671D01*
X-300312Y-1535439D01*
X-308667Y-1527084D01*
X-318900Y-1521176D01*
X-330313Y-1518118D01*
X-342128D01*
X-353541Y-1521176D01*
X-363774Y-1527084D01*
X-372129Y-1535439D01*
X-378036Y-1545671D01*
X-381094Y-1557084D01*
Y-1568900D01*
X-378036Y-1580313D01*
X-377467Y-1581300D01*
X-379967Y-1585630D01*
X-534819D01*
X-534912Y-1585470D01*
X-537139Y-1580630D01*
X-534260Y-1569884D01*
Y-1558069D01*
X-537318Y-1546656D01*
X-543226Y-1536423D01*
X-551581Y-1528068D01*
X-561813Y-1522160D01*
X-573226Y-1519102D01*
X-585042D01*
X-596455Y-1522160D01*
X-606687Y-1528068D01*
X-615042Y-1536423D01*
X-620950Y-1546656D01*
X-624008Y-1558069D01*
Y-1569884D01*
X-621129Y-1580630D01*
X-623356Y-1585470D01*
X-623448Y-1585630D01*
X-634819D01*
X-634912Y-1585470D01*
X-637139Y-1580630D01*
X-634260Y-1569884D01*
Y-1558069D01*
X-637318Y-1546656D01*
X-643226Y-1536423D01*
X-651581Y-1528068D01*
X-661813Y-1522160D01*
X-673226Y-1519102D01*
X-685042D01*
X-696455Y-1522160D01*
X-706687Y-1528068D01*
X-715042Y-1536423D01*
X-720950Y-1546656D01*
X-724008Y-1558069D01*
Y-1569884D01*
X-721129Y-1580630D01*
X-723356Y-1585470D01*
X-723448Y-1585630D01*
X-734819D01*
X-734912Y-1585470D01*
X-737139Y-1580630D01*
X-734260Y-1569884D01*
Y-1558069D01*
X-737318Y-1546656D01*
X-743226Y-1536423D01*
X-751581Y-1528068D01*
X-761813Y-1522160D01*
X-773226Y-1519102D01*
X-785042D01*
X-796455Y-1522160D01*
X-806687Y-1528068D01*
X-815042Y-1536423D01*
X-820950Y-1546656D01*
X-824008Y-1558069D01*
Y-1569884D01*
X-821129Y-1580630D01*
X-823356Y-1585470D01*
X-823448Y-1585630D01*
X-834819D01*
X-834912Y-1585470D01*
X-837139Y-1580630D01*
X-834260Y-1569884D01*
Y-1558069D01*
X-837318Y-1546656D01*
X-843226Y-1536423D01*
X-851581Y-1528068D01*
X-861813Y-1522160D01*
X-873226Y-1519102D01*
X-885042D01*
X-896455Y-1522160D01*
X-906687Y-1528068D01*
X-915042Y-1536423D01*
X-920950Y-1546656D01*
X-924008Y-1558069D01*
Y-1569884D01*
X-921129Y-1580630D01*
X-923356Y-1585470D01*
X-923448Y-1585630D01*
X-934819D01*
X-934912Y-1585470D01*
X-937139Y-1580630D01*
X-934260Y-1569884D01*
Y-1558069D01*
X-937318Y-1546656D01*
X-943226Y-1536423D01*
X-951581Y-1528068D01*
X-961813Y-1522160D01*
X-973226Y-1519102D01*
X-985042D01*
X-996455Y-1522160D01*
X-1006687Y-1528068D01*
X-1015042Y-1536423D01*
X-1020950Y-1546656D01*
X-1024008Y-1558069D01*
Y-1569884D01*
X-1021129Y-1580630D01*
X-1023356Y-1585470D01*
X-1023448Y-1585630D01*
X-1034820D01*
X-1034912Y-1585470D01*
X-1037139Y-1580630D01*
X-1034260Y-1569884D01*
Y-1558069D01*
X-1037318Y-1546656D01*
X-1043226Y-1536423D01*
X-1051581Y-1528068D01*
X-1061813Y-1522160D01*
X-1073226Y-1519102D01*
X-1085042D01*
X-1096455Y-1522160D01*
X-1106687Y-1528068D01*
X-1115042Y-1536423D01*
X-1120950Y-1546656D01*
X-1124008Y-1558069D01*
Y-1569884D01*
X-1121129Y-1580630D01*
X-1123356Y-1585470D01*
X-1123448Y-1585630D01*
X-1132209D01*
X-1134938Y-1580630D01*
X-1133113Y-1573819D01*
X-1179134D01*
X-1225155D01*
X-1223330Y-1580630D01*
X-1226059Y-1585630D01*
X-1232209D01*
X-1234938Y-1580630D01*
X-1233113Y-1573819D01*
X-1279134D01*
X-1325155D01*
X-1323330Y-1580630D01*
X-1326059Y-1585630D01*
X-1556188D01*
X-1556190Y-1578497D01*
X-1552655Y-1574961D01*
X-1526106D01*
Y-1436766D01*
X-1521256Y-1435551D01*
X-1519197Y-1439402D01*
X-1509849Y-1450794D01*
X-1498457Y-1460142D01*
X-1485461Y-1467089D01*
X-1471359Y-1471367D01*
X-1456693Y-1472811D01*
X-1442027Y-1471367D01*
X-1427925Y-1467089D01*
X-1414929Y-1460142D01*
X-1403537Y-1450794D01*
X-1394188Y-1439402D01*
X-1387242Y-1426406D01*
X-1382964Y-1412303D01*
X-1381519Y-1397638D01*
X-1382964Y-1382972D01*
X-1387242Y-1368870D01*
X-1394188Y-1355874D01*
X-1403537Y-1344482D01*
X-1414929Y-1335133D01*
X-1427925Y-1328186D01*
X-1442027Y-1323909D01*
X-1456693Y-1322464D01*
X-1471359Y-1323909D01*
X-1485461Y-1328186D01*
X-1498457Y-1335133D01*
X-1509849Y-1344482D01*
X-1519197Y-1355874D01*
X-1521256Y-1359725D01*
X-1526106Y-1358510D01*
Y-109227D01*
X-1556628D01*
X-1557132Y1584062D01*
X-1553597Y1587598D01*
X130094D01*
X132008Y1582979D01*
X33373Y1484344D01*
X30327Y1479786D01*
X29258Y1474409D01*
Y1239173D01*
X30327Y1233797D01*
X33373Y1229239D01*
X164488Y1098123D01*
X162575Y1093504D01*
X78740D01*
Y1046530D01*
X56102D01*
X50726Y1045460D01*
X46168Y1042415D01*
X-5819Y990428D01*
X-109252D01*
X-114629Y989358D01*
X-119186Y986312D01*
X-156588Y948911D01*
X-159633Y944353D01*
X-160703Y938976D01*
Y820866D01*
X-159883Y816745D01*
X-164162Y813952D01*
X-291069Y940859D01*
Y971457D01*
X-255905D01*
Y1093504D01*
X-354331D01*
Y971457D01*
X-319168D01*
Y935039D01*
X-318098Y929663D01*
X-315053Y925105D01*
X-137297Y747349D01*
X-132739Y744303D01*
X-127362Y743234D01*
X-69902D01*
Y705315D01*
X-63577D01*
Y648937D01*
X-62508Y643561D01*
X-59462Y639003D01*
X28058Y551483D01*
X32616Y548437D01*
X37992Y547368D01*
X206776D01*
X206880Y546981D01*
X211804Y538452D01*
X218767Y531489D01*
X227296Y526565D01*
X236808Y524016D01*
X246656D01*
X256169Y526565D01*
X264697Y531489D01*
X271661Y538452D01*
X276585Y546981D01*
X279134Y556493D01*
Y566341D01*
X276585Y575854D01*
X271661Y584382D01*
X264697Y591346D01*
X256169Y596270D01*
X246656Y598819D01*
X236808D01*
X227296Y596270D01*
X218767Y591346D01*
X211804Y584382D01*
X206880Y575854D01*
X206776Y575467D01*
X43812D01*
X-35478Y654757D01*
Y705315D01*
X10846D01*
Y752229D01*
X11809Y753669D01*
X12878Y759045D01*
X11809Y764422D01*
X10846Y765862D01*
Y771063D01*
X7081D01*
X6090Y776046D01*
X3045Y780604D01*
X-17625Y801273D01*
X-22183Y804319D01*
X-27559Y805388D01*
X-108774D01*
X-109982Y807008D01*
X-107474Y812008D01*
X0D01*
Y930118D01*
X-122047D01*
Y822662D01*
X-126667Y820748D01*
X-132604Y826686D01*
Y933157D01*
X-103433Y962328D01*
X0D01*
X5377Y963398D01*
X9934Y966443D01*
X61922Y1018431D01*
X78740D01*
Y971457D01*
X173943D01*
Y929557D01*
X175012Y924180D01*
X178058Y919622D01*
X197772Y899908D01*
X202330Y896862D01*
X207706Y895793D01*
X217432D01*
X218214Y890793D01*
X211804Y884382D01*
X206880Y875854D01*
X204331Y866341D01*
Y856493D01*
X206880Y846981D01*
X211804Y838452D01*
X218767Y831489D01*
X227296Y826565D01*
X236808Y824016D01*
X246656D01*
X256169Y826565D01*
X264697Y831489D01*
X271661Y838452D01*
X276585Y846981D01*
X279134Y856493D01*
Y866341D01*
X276585Y875854D01*
X271661Y884382D01*
X265250Y890793D01*
X266032Y895793D01*
X287488D01*
X307080Y876201D01*
X306880Y875854D01*
X304331Y866341D01*
Y856493D01*
X306880Y846981D01*
X311804Y838452D01*
X318767Y831489D01*
X327296Y826565D01*
X336808Y824016D01*
X346656D01*
X356169Y826565D01*
X364697Y831489D01*
X371661Y838452D01*
X375635Y845336D01*
X380635Y843997D01*
Y820189D01*
X356516Y796070D01*
X356169Y796270D01*
X346656Y798819D01*
X336808D01*
X327296Y796270D01*
X318767Y791346D01*
X311804Y784382D01*
X306880Y775854D01*
X304331Y766341D01*
Y756493D01*
X306880Y746981D01*
X311804Y738452D01*
X318767Y731489D01*
X327296Y726565D01*
X336808Y724016D01*
X346656D01*
X356169Y726565D01*
X364697Y731489D01*
X371661Y738452D01*
X376585Y746981D01*
X379134Y756493D01*
Y766341D01*
X376585Y775854D01*
X376385Y776201D01*
X397717Y797533D01*
X402336Y795620D01*
Y741890D01*
X356516Y696070D01*
X356169Y696270D01*
X346656Y698819D01*
X336808D01*
X327296Y696270D01*
X318767Y691346D01*
X311804Y684382D01*
X306880Y675854D01*
X304331Y666341D01*
Y656493D01*
X306880Y646981D01*
X311804Y638452D01*
X318767Y631489D01*
X327296Y626565D01*
X336808Y624016D01*
X346656D01*
X356169Y626565D01*
X364697Y631489D01*
X371661Y638452D01*
X376585Y646981D01*
X379134Y656493D01*
Y666341D01*
X376585Y675854D01*
X376385Y676201D01*
X426320Y726136D01*
X427553Y727981D01*
X431801Y725339D01*
X430468Y723029D01*
X427409Y711616D01*
Y699801D01*
X430468Y688388D01*
X436375Y678155D01*
X444730Y669801D01*
X454963Y663893D01*
X466376Y660835D01*
X478191D01*
X489604Y663893D01*
X499837Y669801D01*
X508192Y678155D01*
X514099Y688388D01*
X517158Y699801D01*
Y711616D01*
X514099Y723029D01*
X508192Y733262D01*
X499837Y741617D01*
X489604Y747525D01*
X478191Y750583D01*
X466376D01*
X454963Y747525D01*
X444730Y741617D01*
X436375Y733262D01*
X433646Y728535D01*
X429366Y730694D01*
X429687Y732311D01*
X430435Y736071D01*
Y878444D01*
X435435Y879784D01*
X436375Y878155D01*
X444730Y869801D01*
X454963Y863893D01*
X466376Y860835D01*
X478191D01*
X489604Y863893D01*
X499837Y869801D01*
X508192Y878155D01*
X514099Y888388D01*
X517158Y899801D01*
Y911616D01*
X514099Y923029D01*
X508192Y933262D01*
X499837Y941617D01*
X489604Y947525D01*
X478191Y950583D01*
X466376D01*
X454963Y947525D01*
X444730Y941617D01*
X436375Y933262D01*
X435435Y931634D01*
X430435Y932974D01*
Y1075012D01*
X435435Y1076089D01*
X443425Y1068099D01*
X454142Y1061912D01*
X462441Y1059688D01*
Y1105709D01*
Y1151729D01*
X454142Y1149506D01*
X443425Y1143318D01*
X435435Y1135329D01*
X430435Y1136405D01*
Y1278444D01*
X435435Y1279784D01*
X436375Y1278155D01*
X444730Y1269801D01*
X454963Y1263893D01*
X466376Y1260835D01*
X478191D01*
X489604Y1263893D01*
X499837Y1269801D01*
X508192Y1278155D01*
X514099Y1288388D01*
X517158Y1299801D01*
Y1311617D01*
X514099Y1323029D01*
X508192Y1333262D01*
X499837Y1341617D01*
X489604Y1347525D01*
X478191Y1350583D01*
X466376D01*
X454963Y1347525D01*
X444730Y1341617D01*
X436375Y1333262D01*
X435435Y1331634D01*
X430435Y1332974D01*
Y1429267D01*
X465465Y1464297D01*
X620165D01*
X635802Y1448660D01*
X632732Y1444659D01*
X628950Y1446842D01*
X618046Y1449764D01*
X606757D01*
X595853Y1446842D01*
X586076Y1441198D01*
X578094Y1433215D01*
X572449Y1423439D01*
X569528Y1412534D01*
Y1401245D01*
X572449Y1390341D01*
X578094Y1380564D01*
X586076Y1372582D01*
X595853Y1366938D01*
X606757Y1364016D01*
X618046D01*
X628950Y1366938D01*
X638727Y1372582D01*
X646709Y1380564D01*
X650242Y1386683D01*
X655242Y1385343D01*
Y1328437D01*
X650242Y1327097D01*
X646709Y1333215D01*
X638727Y1341198D01*
X628950Y1346842D01*
X618046Y1349764D01*
X606757D01*
X595853Y1346842D01*
X586076Y1341198D01*
X578094Y1333215D01*
X572449Y1323439D01*
X569528Y1312534D01*
Y1301245D01*
X572449Y1290341D01*
X578094Y1280564D01*
X586076Y1272582D01*
X595853Y1266938D01*
X606757Y1264016D01*
X618046D01*
X628950Y1266938D01*
X638727Y1272582D01*
X646709Y1280564D01*
X650242Y1286683D01*
X655242Y1285343D01*
Y1228437D01*
X650242Y1227097D01*
X646709Y1233215D01*
X638727Y1241198D01*
X628950Y1246842D01*
X618046Y1249764D01*
X606757D01*
X595853Y1246842D01*
X586076Y1241198D01*
X578094Y1233215D01*
X572449Y1223439D01*
X569528Y1212534D01*
Y1201245D01*
X572449Y1190341D01*
X578094Y1180564D01*
X586076Y1172582D01*
X595853Y1166938D01*
X606757Y1164016D01*
X618046D01*
X628950Y1166938D01*
X638727Y1172582D01*
X646709Y1180564D01*
X650242Y1186683D01*
X655242Y1185343D01*
Y1028437D01*
X650242Y1027097D01*
X646709Y1033215D01*
X638727Y1041198D01*
X628950Y1046842D01*
X618046Y1049764D01*
X606757D01*
X595853Y1046842D01*
X586076Y1041198D01*
X578094Y1033215D01*
X572449Y1023439D01*
X569528Y1012534D01*
Y1001245D01*
X572449Y990341D01*
X578094Y980564D01*
X586076Y972582D01*
X595853Y966938D01*
X606757Y964016D01*
X618046D01*
X628950Y966938D01*
X631191Y968231D01*
X676180Y923243D01*
Y785164D01*
X677249Y779788D01*
X680295Y775230D01*
X740066Y715459D01*
X744624Y712414D01*
X750000Y711344D01*
X758428D01*
X759768Y706344D01*
X754165Y703110D01*
X747568Y696512D01*
X742903Y688433D01*
X740488Y679421D01*
Y670091D01*
X742903Y661080D01*
X747568Y653000D01*
X754165Y646403D01*
X762245Y641738D01*
X771256Y639323D01*
X780586D01*
X789598Y641738D01*
X797678Y646403D01*
X804275Y653000D01*
X808940Y661080D01*
X811354Y670091D01*
Y679421D01*
X808940Y688433D01*
X804275Y696512D01*
X797678Y703110D01*
X792075Y706344D01*
X793415Y711344D01*
X858428D01*
X859768Y706344D01*
X854165Y703110D01*
X847568Y696512D01*
X842903Y688433D01*
X840488Y679421D01*
Y670091D01*
X842903Y661080D01*
X847568Y653000D01*
X854165Y646403D01*
X862245Y641738D01*
X871256Y639323D01*
X880586D01*
X889182Y641626D01*
X999730Y531078D01*
Y64875D01*
X461897Y-472958D01*
X366032D01*
X365250Y-467958D01*
X371661Y-461548D01*
X376585Y-453019D01*
X379134Y-443507D01*
Y-433659D01*
X376585Y-424146D01*
X371661Y-415618D01*
X364697Y-408654D01*
X360200Y-406057D01*
X361539Y-401057D01*
X474213D01*
X479589Y-399988D01*
X484147Y-396942D01*
X980407Y99317D01*
X983452Y103875D01*
X984522Y109252D01*
Y480205D01*
X983452Y485582D01*
X980407Y490139D01*
X909051Y561495D01*
X911354Y570091D01*
Y579421D01*
X908940Y588433D01*
X904275Y596512D01*
X897678Y603110D01*
X889598Y607774D01*
X880586Y610189D01*
X871256D01*
X862245Y607774D01*
X854165Y603110D01*
X847568Y596512D01*
X842903Y588433D01*
X840488Y579421D01*
Y570091D01*
X842903Y561080D01*
X847568Y553000D01*
X854165Y546403D01*
X862245Y541738D01*
X871256Y539323D01*
X880586D01*
X889182Y541626D01*
X956423Y474385D01*
Y115071D01*
X468393Y-372958D01*
X366032D01*
X365250Y-367958D01*
X371661Y-361548D01*
X376585Y-353019D01*
X379134Y-343507D01*
Y-333659D01*
X376585Y-324146D01*
X371661Y-315618D01*
X364697Y-308654D01*
X360200Y-306057D01*
X361539Y-301057D01*
X509252D01*
X514628Y-299988D01*
X519186Y-296942D01*
X941037Y124908D01*
X944082Y129466D01*
X945152Y134843D01*
Y419575D01*
X944082Y424952D01*
X941037Y429510D01*
X909051Y461495D01*
X911354Y470091D01*
Y479421D01*
X908940Y488433D01*
X904275Y496512D01*
X897678Y503110D01*
X889598Y507774D01*
X880586Y510189D01*
X871256D01*
X862245Y507774D01*
X854165Y503110D01*
X847568Y496512D01*
X842903Y488433D01*
X840488Y479421D01*
Y470091D01*
X842903Y461079D01*
X847568Y453000D01*
X854165Y446403D01*
X862245Y441738D01*
X871256Y439323D01*
X880586D01*
X889182Y441626D01*
X917053Y413755D01*
Y140662D01*
X503432Y-272958D01*
X366032D01*
X365250Y-267958D01*
X371661Y-261548D01*
X376585Y-253019D01*
X379134Y-243507D01*
Y-233659D01*
X376585Y-224146D01*
X371661Y-215618D01*
X364697Y-208654D01*
X356169Y-203730D01*
X346656Y-201181D01*
X336808D01*
X327296Y-203730D01*
X326949Y-203930D01*
X303242Y-180223D01*
X298684Y-177178D01*
X293307Y-176108D01*
X261539D01*
X260200Y-171108D01*
X264697Y-168511D01*
X271661Y-161548D01*
X276585Y-153019D01*
X279134Y-143507D01*
Y-133659D01*
X276585Y-124146D01*
X271661Y-115618D01*
X264697Y-108654D01*
X256169Y-103730D01*
X246656Y-101181D01*
X236808D01*
X227296Y-103730D01*
X218767Y-108654D01*
X211804Y-115618D01*
X206880Y-124146D01*
X206776Y-124533D01*
X149803D01*
X144427Y-125603D01*
X139869Y-128648D01*
X72743Y-195774D01*
X69697Y-200332D01*
X68628Y-205709D01*
Y-786174D01*
X63778Y-787389D01*
X62505Y-785008D01*
X53156Y-773616D01*
X41764Y-764267D01*
X28768Y-757320D01*
X14666Y-753043D01*
X0Y-751598D01*
X-14666Y-753043D01*
X-28768Y-757320D01*
X-41764Y-764267D01*
X-53156Y-773616D01*
X-62505Y-785008D01*
X-69451Y-798004D01*
X-73729Y-812106D01*
X-75174Y-826772D01*
X-73729Y-841437D01*
X-69451Y-855539D01*
X-62505Y-868536D01*
X-53156Y-879928D01*
X-41764Y-889276D01*
X-28768Y-896223D01*
X-14666Y-900501D01*
X0Y-901945D01*
X14666Y-900501D01*
X28768Y-896223D01*
X41764Y-889276D01*
X53156Y-879928D01*
X62505Y-868536D01*
X63778Y-866154D01*
X68628Y-867369D01*
Y-1138275D01*
X-215967Y-1422870D01*
X-218900Y-1421176D01*
X-230313Y-1418118D01*
X-242128D01*
X-253541Y-1421176D01*
X-263774Y-1427084D01*
X-272129Y-1435439D01*
X-278036Y-1445671D01*
X-281094Y-1457084D01*
Y-1468900D01*
X-278036Y-1480313D01*
X-272129Y-1490545D01*
X-263774Y-1498900D01*
X-253541Y-1504808D01*
X-242128Y-1507866D01*
X-230313D01*
X-218900Y-1504808D01*
X-208667Y-1498900D01*
X-200312Y-1490545D01*
X-194405Y-1480313D01*
X-191346Y-1468900D01*
Y-1457084D01*
X-194405Y-1445671D01*
X-196098Y-1442738D01*
X92612Y-1154029D01*
X95657Y-1149471D01*
X96727Y-1144094D01*
Y-211528D01*
X155623Y-152632D01*
X206776D01*
X206880Y-153019D01*
X211804Y-161548D01*
X218767Y-168511D01*
X223265Y-171108D01*
X221925Y-176108D01*
X161220D01*
X155844Y-177178D01*
X151286Y-180223D01*
X119987Y-211522D01*
X116941Y-216080D01*
X115872Y-221457D01*
Y-1336700D01*
X3629Y-1448943D01*
X-93528D01*
X-94405Y-1445671D01*
X-100312Y-1435439D01*
X-108667Y-1427084D01*
X-118900Y-1421176D01*
X-130313Y-1418118D01*
X-142128D01*
X-153541Y-1421176D01*
X-163774Y-1427084D01*
X-172129Y-1435439D01*
X-178036Y-1445671D01*
X-181095Y-1457084D01*
Y-1468900D01*
X-178036Y-1480313D01*
X-172129Y-1490545D01*
X-163774Y-1498900D01*
X-153541Y-1504808D01*
X-142128Y-1507866D01*
X-130313D01*
X-118900Y-1504808D01*
X-108667Y-1498900D01*
X-100312Y-1490545D01*
X-94405Y-1480313D01*
X-93528Y-1477042D01*
X9449D01*
X14825Y-1475972D01*
X19383Y-1472927D01*
X139856Y-1352454D01*
X142901Y-1347896D01*
X143971Y-1342520D01*
Y-227276D01*
X167040Y-204207D01*
X217432D01*
X218214Y-209207D01*
X211804Y-215618D01*
X206880Y-224146D01*
X204331Y-233659D01*
Y-243507D01*
X206880Y-253019D01*
X211804Y-261548D01*
X218767Y-268511D01*
X227296Y-273435D01*
X236808Y-275984D01*
X246656D01*
X256169Y-273435D01*
X264697Y-268511D01*
X271661Y-261548D01*
X276585Y-253019D01*
X279134Y-243507D01*
Y-233659D01*
X276585Y-224146D01*
X271661Y-215618D01*
X265250Y-209207D01*
X266032Y-204207D01*
X287488D01*
X307080Y-223799D01*
X306880Y-224146D01*
X304331Y-233659D01*
Y-243507D01*
X306880Y-253019D01*
X311804Y-261548D01*
X318214Y-267958D01*
X317432Y-272958D01*
X293307D01*
X287931Y-274028D01*
X283373Y-277073D01*
X256516Y-303930D01*
X256169Y-303730D01*
X246656Y-301181D01*
X236808D01*
X227296Y-303730D01*
X218767Y-308654D01*
X211804Y-315618D01*
X206880Y-324146D01*
X204331Y-333659D01*
Y-343507D01*
X206880Y-353019D01*
X211804Y-361548D01*
X218767Y-368511D01*
X227296Y-373435D01*
X236808Y-375984D01*
X246656D01*
X256169Y-373435D01*
X264697Y-368511D01*
X271661Y-361548D01*
X276585Y-353019D01*
X279134Y-343507D01*
Y-333659D01*
X276585Y-324146D01*
X276385Y-323799D01*
X299127Y-301057D01*
X321925D01*
X323265Y-306057D01*
X318767Y-308654D01*
X311804Y-315618D01*
X306880Y-324146D01*
X304331Y-333659D01*
Y-343507D01*
X306880Y-353019D01*
X311804Y-361548D01*
X318214Y-367958D01*
X317432Y-372958D01*
X293307D01*
X287931Y-374028D01*
X283373Y-377073D01*
X256516Y-403930D01*
X256169Y-403730D01*
X246656Y-401181D01*
X236808D01*
X227296Y-403730D01*
X218767Y-408654D01*
X211804Y-415618D01*
X206880Y-424146D01*
X204331Y-433659D01*
Y-443507D01*
X206880Y-453019D01*
X211804Y-461548D01*
X218767Y-468511D01*
X227296Y-473435D01*
X236808Y-475984D01*
X246656D01*
X256169Y-473435D01*
X264697Y-468511D01*
X271661Y-461548D01*
X276585Y-453019D01*
X279134Y-443507D01*
Y-433659D01*
X276585Y-424146D01*
X276385Y-423799D01*
X299127Y-401057D01*
X321925D01*
X323265Y-406057D01*
X318767Y-408654D01*
X311804Y-415618D01*
X306880Y-424146D01*
X304331Y-433659D01*
Y-443507D01*
X306880Y-453019D01*
X311804Y-461548D01*
X318214Y-467958D01*
X317432Y-472958D01*
X293307D01*
X287931Y-474028D01*
X283373Y-477073D01*
X256516Y-503930D01*
X256169Y-503730D01*
X246656Y-501181D01*
X236808D01*
X227296Y-503730D01*
X218767Y-508654D01*
X211804Y-515618D01*
X206880Y-524146D01*
X204331Y-533659D01*
Y-543507D01*
X206880Y-553019D01*
X211804Y-561548D01*
X218767Y-568511D01*
X227296Y-573435D01*
X236808Y-575984D01*
X246656D01*
X256169Y-573435D01*
X264697Y-568511D01*
X271661Y-561548D01*
X276585Y-553019D01*
X279134Y-543507D01*
Y-533659D01*
X276585Y-524146D01*
X276385Y-523799D01*
X299127Y-501057D01*
X321925D01*
X323265Y-506057D01*
X318767Y-508654D01*
X311804Y-515618D01*
X306880Y-524146D01*
X304331Y-533659D01*
Y-543507D01*
X306880Y-553019D01*
X311804Y-561548D01*
X318767Y-568511D01*
X327296Y-573435D01*
X336808Y-575984D01*
X346656D01*
X356169Y-573435D01*
X364697Y-568511D01*
X371661Y-561548D01*
X376585Y-553019D01*
X379134Y-543507D01*
Y-533659D01*
X376585Y-524146D01*
X371661Y-515618D01*
X364697Y-508654D01*
X360200Y-506057D01*
X361539Y-501057D01*
X467716D01*
X473093Y-499988D01*
X477651Y-496942D01*
X1023714Y49121D01*
X1026759Y53679D01*
X1027829Y59055D01*
Y536898D01*
X1026759Y542274D01*
X1023714Y546832D01*
X909051Y661495D01*
X911354Y670091D01*
Y679421D01*
X908940Y688433D01*
X904275Y696512D01*
X897678Y703110D01*
X892075Y706344D01*
X893415Y711344D01*
X935125D01*
X1052919Y593551D01*
Y-828799D01*
X1049648Y-829675D01*
X1039415Y-835583D01*
X1031060Y-843938D01*
X1025153Y-854171D01*
X1022095Y-865583D01*
Y-877399D01*
X1025153Y-888812D01*
X1031060Y-899045D01*
X1039415Y-907399D01*
X1049648Y-913307D01*
X1061061Y-916365D01*
X1072876D01*
X1084289Y-913307D01*
X1094522Y-907399D01*
X1102877Y-899045D01*
X1108784Y-888812D01*
X1111842Y-877399D01*
Y-865583D01*
X1108784Y-854171D01*
X1102877Y-843938D01*
X1094522Y-835583D01*
X1084289Y-829675D01*
X1081018Y-828799D01*
Y599370D01*
X1079948Y604747D01*
X1076903Y609305D01*
X950879Y735328D01*
X946321Y738374D01*
X940945Y739443D01*
X895624D01*
X894284Y744443D01*
X897678Y746403D01*
X904275Y753000D01*
X908940Y761080D01*
X911354Y770091D01*
Y779421D01*
X909051Y788017D01*
X956785Y835751D01*
X959830Y840309D01*
X960900Y845685D01*
Y1007874D01*
X959830Y1013250D01*
X956785Y1017808D01*
X941249Y1033344D01*
X936691Y1036390D01*
X931315Y1037459D01*
X892187D01*
X890847Y1042459D01*
X897678Y1046403D01*
X904275Y1053000D01*
X908940Y1061080D01*
X911354Y1070091D01*
Y1079421D01*
X909051Y1088017D01*
X1028143Y1207109D01*
X1031189Y1211667D01*
X1032258Y1217043D01*
Y1349901D01*
X1031189Y1355278D01*
X1028143Y1359836D01*
X805000Y1582979D01*
X806914Y1587598D01*
X1262384D01*
X1265362Y1583582D01*
X1263248Y1576613D01*
X1261305Y1556890D01*
X1263248Y1537167D01*
X1269001Y1518202D01*
X1278343Y1500724D01*
X1290916Y1485404D01*
X1306236Y1472831D01*
X1323714Y1463489D01*
X1342679Y1457736D01*
X1362402Y1455794D01*
X1382124Y1457736D01*
X1401089Y1463489D01*
X1418568Y1472831D01*
X1433887Y1485404D01*
X1446460Y1500724D01*
X1455802Y1518202D01*
X1461555Y1537167D01*
X1463498Y1556890D01*
X1461555Y1576613D01*
X1459441Y1583582D01*
X1462420Y1587598D01*
X1558071D01*
Y1387591D01*
D02*
G37*
G36*
X808328Y1383417D02*
Y1312315D01*
X785764D01*
Y1274756D01*
Y1237197D01*
X808328D01*
Y1198797D01*
X803328Y1197459D01*
X797678Y1203110D01*
X789598Y1207774D01*
X780586Y1210189D01*
X771256D01*
X762245Y1207774D01*
X754165Y1203110D01*
X747568Y1196512D01*
X742903Y1188433D01*
X740488Y1179421D01*
Y1170091D01*
X742903Y1161080D01*
X747568Y1153000D01*
X754165Y1146403D01*
X762245Y1141738D01*
X771256Y1139323D01*
X780586D01*
X789598Y1141738D01*
X797678Y1146403D01*
X803328Y1152054D01*
X808328Y1150715D01*
Y1098797D01*
X803328Y1097459D01*
X797678Y1103110D01*
X789598Y1107774D01*
X780586Y1110189D01*
X771256D01*
X762245Y1107774D01*
X754165Y1103110D01*
X747568Y1096512D01*
X742903Y1088433D01*
X740488Y1079421D01*
Y1070091D01*
X742903Y1061080D01*
X747568Y1053000D01*
X754165Y1046403D01*
X762245Y1041738D01*
X762433Y1041687D01*
X761775Y1036687D01*
X756804D01*
X709916Y1083575D01*
Y1448819D01*
X708846Y1454196D01*
X705801Y1458754D01*
X646746Y1517809D01*
X642986Y1520321D01*
X643287Y1523867D01*
X643818Y1525321D01*
X666425D01*
X808328Y1383417D01*
D02*
G37*
G36*
X380635Y1447738D02*
Y1183090D01*
X375635Y1181750D01*
X373362Y1185688D01*
X366003Y1193047D01*
X356989Y1198251D01*
X351575Y1199702D01*
Y1161417D01*
X331890D01*
Y1199702D01*
X326475Y1198251D01*
X317462Y1193047D01*
X312357Y1187942D01*
X307357Y1190013D01*
Y1380992D01*
X376016Y1449651D01*
X380635Y1447738D01*
D02*
G37*
G36*
X427887Y1582598D02*
X168215Y1322927D01*
X165170Y1318369D01*
X164100Y1312992D01*
Y1144782D01*
X159481Y1142869D01*
X57357Y1244993D01*
Y1468590D01*
X176365Y1587598D01*
X425816D01*
X427887Y1582598D01*
D02*
G37*
%LPC*%
G36*
X-67238Y1551181D02*
X-74494D01*
X-81504Y1549303D01*
X-87788Y1545675D01*
X-92919Y1540544D01*
X-96547Y1534259D01*
X-98425Y1527250D01*
Y1519994D01*
X-96547Y1512985D01*
X-92919Y1506700D01*
X-87788Y1501569D01*
X-81504Y1497941D01*
X-74494Y1496063D01*
X-67238D01*
X-60229Y1497941D01*
X-53944Y1501569D01*
X-48813Y1506700D01*
X-45185Y1512985D01*
X-43307Y1519994D01*
Y1527250D01*
X-45185Y1534259D01*
X-48813Y1540544D01*
X-53944Y1545675D01*
X-60229Y1549303D01*
X-67238Y1551181D01*
D02*
G37*
G36*
X-253780Y1451929D02*
X-295275D01*
Y1408465D01*
X-253780D01*
Y1451929D01*
D02*
G37*
G36*
X-314960D02*
X-356457D01*
Y1408465D01*
X-314960D01*
Y1451929D01*
D02*
G37*
G36*
X-574803Y1477362D02*
X-673228D01*
Y1382874D01*
X-574803D01*
Y1477362D01*
D02*
G37*
G36*
X-141732Y1477362D02*
X-240157D01*
Y1382874D01*
X-141732D01*
Y1477362D01*
D02*
G37*
G36*
X488191Y1450583D02*
X476376D01*
X464963Y1447525D01*
X454730Y1441617D01*
X446375Y1433262D01*
X440468Y1423029D01*
X437409Y1411617D01*
Y1399801D01*
X440468Y1388388D01*
X446375Y1378155D01*
X454730Y1369801D01*
X464963Y1363893D01*
X476376Y1360835D01*
X488191D01*
X499604Y1363893D01*
X509837Y1369801D01*
X518192Y1378155D01*
X524099Y1388388D01*
X527158Y1399801D01*
Y1411617D01*
X524099Y1423029D01*
X518192Y1433262D01*
X509837Y1441617D01*
X499604Y1447525D01*
X488191Y1450583D01*
D02*
G37*
G36*
X-253780Y1388780D02*
X-295275D01*
Y1345315D01*
X-253780D01*
Y1388780D01*
D02*
G37*
G36*
X-314960D02*
X-356457D01*
Y1345315D01*
X-314960D01*
Y1388780D01*
D02*
G37*
G36*
X-459384Y1384842D02*
X-469750D01*
X-479763Y1382159D01*
X-488741Y1376976D01*
X-496071Y1369646D01*
X-501254Y1360669D01*
X-503937Y1350656D01*
Y1340289D01*
X-501254Y1330276D01*
X-496071Y1321299D01*
X-488741Y1313969D01*
X-479763Y1308785D01*
X-469750Y1306102D01*
X-459384D01*
X-449371Y1308785D01*
X-440393Y1313969D01*
X-433063Y1321299D01*
X-427880Y1330276D01*
X-425197Y1340289D01*
Y1350656D01*
X-427880Y1360669D01*
X-433063Y1369646D01*
X-440393Y1376976D01*
X-449371Y1382159D01*
X-459384Y1384842D01*
D02*
G37*
G36*
X-26313Y1384842D02*
X-36679D01*
X-46692Y1382159D01*
X-55670Y1376976D01*
X-63000Y1369646D01*
X-68183Y1360669D01*
X-70866Y1350656D01*
Y1340289D01*
X-68183Y1330276D01*
X-63000Y1321299D01*
X-55670Y1313969D01*
X-46692Y1308785D01*
X-36679Y1306102D01*
X-26313D01*
X-16300Y1308785D01*
X-7322Y1313969D01*
X8Y1321299D01*
X5191Y1330276D01*
X7874Y1340289D01*
Y1350656D01*
X5191Y1360669D01*
X8Y1369646D01*
X-7322Y1376976D01*
X-16300Y1382159D01*
X-26313Y1384842D01*
D02*
G37*
G36*
X-841047Y1312315D02*
X-868764D01*
Y1284598D01*
X-841047D01*
Y1312315D01*
D02*
G37*
G36*
X-888449D02*
X-916165D01*
Y1284598D01*
X-888449D01*
Y1312315D01*
D02*
G37*
G36*
X-773942Y1310189D02*
X-783271D01*
X-792283Y1307774D01*
X-800363Y1303110D01*
X-806960Y1296512D01*
X-811625Y1288433D01*
X-814039Y1279421D01*
Y1270091D01*
X-811625Y1261080D01*
X-806960Y1253000D01*
X-800363Y1246403D01*
X-792283Y1241738D01*
X-783271Y1239323D01*
X-773942D01*
X-764930Y1241738D01*
X-756850Y1246403D01*
X-750253Y1253000D01*
X-745588Y1261080D01*
X-743173Y1270091D01*
Y1279421D01*
X-745588Y1288433D01*
X-750253Y1296512D01*
X-756850Y1303110D01*
X-764930Y1307774D01*
X-773942Y1310189D01*
D02*
G37*
G36*
X-1418740Y1200945D02*
X-1448425D01*
Y1171260D01*
X-1418740D01*
Y1200945D01*
D02*
G37*
G36*
X-1468110D02*
X-1497795D01*
Y1171260D01*
X-1468110D01*
Y1200945D01*
D02*
G37*
G36*
X488191Y1250583D02*
X476376D01*
X464963Y1247525D01*
X454730Y1241617D01*
X446375Y1233262D01*
X440468Y1223029D01*
X437409Y1211617D01*
Y1199801D01*
X440468Y1188388D01*
X446375Y1178155D01*
X454730Y1169801D01*
X464963Y1163893D01*
X476376Y1160835D01*
X488191D01*
X499604Y1163893D01*
X509837Y1169801D01*
X518192Y1178155D01*
X524099Y1188388D01*
X527158Y1199801D01*
Y1211617D01*
X524099Y1223029D01*
X518192Y1233262D01*
X509837Y1241617D01*
X499604Y1247525D01*
X488191Y1250583D01*
D02*
G37*
G36*
X-841047Y1264913D02*
X-878606D01*
X-916165D01*
Y1241412D01*
X-999016D01*
X-1004392Y1240342D01*
X-1008950Y1237297D01*
X-1170780Y1075467D01*
X-1323311D01*
X-1323415Y1075854D01*
X-1328339Y1084382D01*
X-1335303Y1091346D01*
X-1343831Y1096270D01*
X-1353344Y1098819D01*
X-1363192D01*
X-1372704Y1096270D01*
X-1381233Y1091346D01*
X-1388196Y1084382D01*
X-1393120Y1075854D01*
X-1395669Y1066341D01*
Y1056493D01*
X-1393120Y1046981D01*
X-1388196Y1038452D01*
X-1381233Y1031489D01*
X-1372704Y1026565D01*
X-1363192Y1024016D01*
X-1353344D01*
X-1343831Y1026565D01*
X-1335303Y1031489D01*
X-1328339Y1038452D01*
X-1323415Y1046981D01*
X-1323311Y1047368D01*
X-1164961D01*
X-1159584Y1048437D01*
X-1155026Y1051483D01*
X-993196Y1213313D01*
X-890932D01*
X-890274Y1208313D01*
X-892283Y1207774D01*
X-900363Y1203110D01*
X-906960Y1196512D01*
X-911625Y1188433D01*
X-914039Y1179421D01*
Y1170091D01*
X-911625Y1161080D01*
X-906960Y1153000D01*
X-900363Y1146403D01*
X-897992Y1145034D01*
X-899332Y1140034D01*
X-989173D01*
X-994550Y1138964D01*
X-999108Y1135919D01*
X-1159560Y975467D01*
X-1323311D01*
X-1323415Y975854D01*
X-1328339Y984382D01*
X-1335303Y991346D01*
X-1343831Y996270D01*
X-1353344Y998819D01*
X-1363192D01*
X-1372704Y996270D01*
X-1381233Y991346D01*
X-1388196Y984382D01*
X-1393120Y975854D01*
X-1395669Y966341D01*
Y956493D01*
X-1393120Y946981D01*
X-1388196Y938452D01*
X-1381233Y931489D01*
X-1372704Y926565D01*
X-1363192Y924016D01*
X-1353344D01*
X-1343831Y926565D01*
X-1335303Y931489D01*
X-1328339Y938452D01*
X-1323415Y946981D01*
X-1323311Y947368D01*
X-1153740D01*
X-1148364Y948437D01*
X-1143806Y951483D01*
X-983354Y1111935D01*
X-895077D01*
X-893737Y1106935D01*
X-900363Y1103110D01*
X-906960Y1096512D01*
X-911625Y1088433D01*
X-914039Y1079421D01*
Y1070091D01*
X-911625Y1061080D01*
X-906960Y1053000D01*
X-900363Y1046403D01*
X-895605Y1043656D01*
X-896945Y1038656D01*
X-997047D01*
X-1002424Y1037586D01*
X-1006982Y1034541D01*
X-1166056Y875467D01*
X-1323311D01*
X-1323415Y875854D01*
X-1328339Y884382D01*
X-1335303Y891346D01*
X-1343831Y896270D01*
X-1353344Y898819D01*
X-1363192D01*
X-1372704Y896270D01*
X-1381233Y891346D01*
X-1388196Y884382D01*
X-1393120Y875854D01*
X-1395669Y866341D01*
Y856493D01*
X-1393120Y846981D01*
X-1388196Y838452D01*
X-1381233Y831489D01*
X-1372704Y826565D01*
X-1363192Y824016D01*
X-1353344D01*
X-1343831Y826565D01*
X-1335303Y831489D01*
X-1328339Y838452D01*
X-1323415Y846981D01*
X-1323311Y847368D01*
X-1160236D01*
X-1154860Y848437D01*
X-1150302Y851483D01*
X-991228Y1010557D01*
X-897464D01*
X-896124Y1005557D01*
X-900363Y1003110D01*
X-906960Y996512D01*
X-911625Y988433D01*
X-914039Y979421D01*
Y970091D01*
X-911625Y961080D01*
X-906960Y953000D01*
X-900363Y946403D01*
X-898333Y945231D01*
X-899672Y940231D01*
X-997047D01*
X-1002424Y939161D01*
X-1006982Y936116D01*
X-1167630Y775467D01*
X-1323311D01*
X-1323415Y775854D01*
X-1328339Y784382D01*
X-1335303Y791346D01*
X-1343831Y796270D01*
X-1353344Y798819D01*
X-1363192D01*
X-1372704Y796270D01*
X-1381233Y791346D01*
X-1388196Y784382D01*
X-1393120Y775854D01*
X-1395669Y766341D01*
Y756493D01*
X-1393120Y746981D01*
X-1388196Y738452D01*
X-1381233Y731489D01*
X-1372704Y726565D01*
X-1363192Y724016D01*
X-1353344D01*
X-1343831Y726565D01*
X-1335303Y731489D01*
X-1328339Y738452D01*
X-1323415Y746981D01*
X-1323311Y747368D01*
X-1161811D01*
X-1156435Y748437D01*
X-1151877Y751483D01*
X-991228Y912132D01*
X-894577D01*
X-893396Y907132D01*
X-900363Y903110D01*
X-906960Y896512D01*
X-911625Y888433D01*
X-914039Y879421D01*
Y870091D01*
X-911625Y861080D01*
X-906960Y853000D01*
X-900363Y846403D01*
X-899356Y845821D01*
X-900695Y840821D01*
X-1001968D01*
X-1007345Y839752D01*
X-1011903Y836706D01*
X-1173142Y675467D01*
X-1323311D01*
X-1323415Y675854D01*
X-1328339Y684382D01*
X-1335303Y691346D01*
X-1343831Y696270D01*
X-1353344Y698819D01*
X-1363192D01*
X-1372704Y696270D01*
X-1381233Y691346D01*
X-1388196Y684382D01*
X-1393120Y675854D01*
X-1395669Y666341D01*
Y656493D01*
X-1393120Y646981D01*
X-1388196Y638452D01*
X-1381233Y631489D01*
X-1372704Y626565D01*
X-1363192Y624016D01*
X-1353344D01*
X-1343831Y626565D01*
X-1335303Y631489D01*
X-1328339Y638452D01*
X-1323415Y646981D01*
X-1323311Y647368D01*
X-1167323D01*
X-1161946Y648437D01*
X-1157388Y651483D01*
X-996149Y812722D01*
X-893136D01*
X-892283Y807774D01*
X-900363Y803110D01*
X-906960Y796512D01*
X-911625Y788433D01*
X-914039Y779421D01*
Y770091D01*
X-911625Y761080D01*
X-906960Y753000D01*
X-900363Y746403D01*
X-898674Y745428D01*
X-900013Y740428D01*
X-995079D01*
X-1000455Y739358D01*
X-1005013Y736312D01*
X-1165859Y575467D01*
X-1323311D01*
X-1323415Y575854D01*
X-1328339Y584382D01*
X-1335303Y591346D01*
X-1343831Y596270D01*
X-1353344Y598819D01*
X-1363192D01*
X-1372704Y596270D01*
X-1381233Y591346D01*
X-1388196Y584382D01*
X-1393120Y575854D01*
X-1395669Y566341D01*
Y556493D01*
X-1393120Y546981D01*
X-1388196Y538452D01*
X-1381233Y531489D01*
X-1372704Y526565D01*
X-1363192Y524016D01*
X-1353344D01*
X-1343831Y526565D01*
X-1335303Y531489D01*
X-1328339Y538452D01*
X-1323415Y546981D01*
X-1323311Y547368D01*
X-1160039D01*
X-1154663Y548437D01*
X-1150105Y551483D01*
X-989259Y712328D01*
X-893936D01*
X-893069Y709940D01*
X-893055Y707328D01*
X-900363Y703110D01*
X-906960Y696512D01*
X-911625Y688433D01*
X-914039Y679421D01*
Y670091D01*
X-911625Y661080D01*
X-906960Y653000D01*
X-900962Y647002D01*
X-901810Y642002D01*
X-978346D01*
X-983723Y640933D01*
X-988281Y637887D01*
X-1150701Y475467D01*
X-1323311D01*
X-1323415Y475854D01*
X-1328339Y484382D01*
X-1335303Y491346D01*
X-1343831Y496270D01*
X-1353344Y498819D01*
X-1363192D01*
X-1372704Y496270D01*
X-1381233Y491346D01*
X-1388196Y484382D01*
X-1393120Y475854D01*
X-1395669Y466341D01*
Y456493D01*
X-1393120Y446981D01*
X-1388196Y438452D01*
X-1381233Y431489D01*
X-1372704Y426565D01*
X-1363192Y424016D01*
X-1353344D01*
X-1343831Y426565D01*
X-1335303Y431489D01*
X-1328339Y438452D01*
X-1323415Y446981D01*
X-1323311Y447368D01*
X-1144882D01*
X-1139505Y448437D01*
X-1134947Y451483D01*
X-972527Y613903D01*
X-888728D01*
X-888070Y608903D01*
X-892283Y607774D01*
X-900363Y603110D01*
X-906960Y596512D01*
X-911625Y588433D01*
X-914039Y579421D01*
Y570091D01*
X-911625Y561080D01*
X-906960Y553000D01*
X-900363Y546403D01*
X-892283Y541738D01*
X-883271Y539323D01*
X-873942D01*
X-864930Y541738D01*
X-856850Y546403D01*
X-850253Y553000D01*
X-845588Y561080D01*
X-843173Y570091D01*
Y579421D01*
X-845588Y588433D01*
X-850253Y596512D01*
X-856850Y603110D01*
X-864930Y607774D01*
X-869143Y608903D01*
X-868485Y613903D01*
X-837622D01*
X-811736Y588017D01*
X-814039Y579421D01*
Y570091D01*
X-811625Y561080D01*
X-806960Y553000D01*
X-800363Y546403D01*
X-792283Y541738D01*
X-783271Y539323D01*
X-773942D01*
X-764930Y541738D01*
X-756850Y546403D01*
X-750253Y553000D01*
X-745588Y561080D01*
X-743173Y570091D01*
Y579421D01*
X-745588Y588433D01*
X-750253Y596512D01*
X-756850Y603110D01*
X-764930Y607774D01*
X-773942Y610189D01*
X-783271D01*
X-791867Y607886D01*
X-821869Y637887D01*
X-826427Y640933D01*
X-831803Y642002D01*
X-855402D01*
X-856250Y647002D01*
X-850253Y653000D01*
X-845588Y661080D01*
X-843173Y670091D01*
Y679421D01*
X-845588Y688433D01*
X-850253Y696512D01*
X-856850Y703110D01*
X-864157Y707328D01*
X-864144Y709940D01*
X-863277Y712328D01*
X-836048D01*
X-811736Y688017D01*
X-814039Y679421D01*
Y670091D01*
X-811625Y661080D01*
X-806960Y653000D01*
X-800363Y646403D01*
X-792283Y641738D01*
X-783271Y639323D01*
X-773942D01*
X-764930Y641738D01*
X-756850Y646403D01*
X-750253Y653000D01*
X-745588Y661080D01*
X-743173Y670091D01*
Y679421D01*
X-745588Y688433D01*
X-750253Y696512D01*
X-756850Y703110D01*
X-764930Y707774D01*
X-773942Y710189D01*
X-783271D01*
X-791867Y707886D01*
X-820294Y736312D01*
X-824852Y739358D01*
X-830228Y740428D01*
X-857199D01*
X-858539Y745428D01*
X-856850Y746403D01*
X-850253Y753000D01*
X-845588Y761080D01*
X-843173Y770091D01*
Y779421D01*
X-845588Y788433D01*
X-850253Y796512D01*
X-856850Y803110D01*
X-864930Y807774D01*
X-864077Y812722D01*
X-836441D01*
X-811736Y788017D01*
X-814039Y779421D01*
Y770091D01*
X-811625Y761080D01*
X-806960Y753000D01*
X-800363Y746403D01*
X-792283Y741738D01*
X-783271Y739323D01*
X-773942D01*
X-764930Y741738D01*
X-756850Y746403D01*
X-750253Y753000D01*
X-745588Y761080D01*
X-743173Y770091D01*
Y779421D01*
X-745588Y788433D01*
X-750253Y796512D01*
X-756850Y803110D01*
X-764930Y807774D01*
X-773942Y810189D01*
X-783271D01*
X-791867Y807886D01*
X-820687Y836706D01*
X-825245Y839752D01*
X-830622Y840821D01*
X-856517D01*
X-857857Y845821D01*
X-856850Y846403D01*
X-850253Y853000D01*
X-845588Y861080D01*
X-843173Y870091D01*
Y879421D01*
X-845588Y888433D01*
X-850253Y896512D01*
X-856850Y903110D01*
X-863816Y907132D01*
X-862635Y912132D01*
X-835851D01*
X-811736Y888017D01*
X-814039Y879421D01*
Y870091D01*
X-811625Y861080D01*
X-806960Y853000D01*
X-800363Y846403D01*
X-792283Y841738D01*
X-783271Y839323D01*
X-773942D01*
X-764930Y841738D01*
X-756850Y846403D01*
X-750253Y853000D01*
X-745588Y861080D01*
X-743173Y870091D01*
Y879421D01*
X-745588Y888433D01*
X-750253Y896512D01*
X-756850Y903110D01*
X-764930Y907774D01*
X-773942Y910189D01*
X-783271D01*
X-791867Y907886D01*
X-820097Y936116D01*
X-824655Y939161D01*
X-830031Y940231D01*
X-857540D01*
X-858880Y945231D01*
X-856850Y946403D01*
X-850253Y953000D01*
X-845588Y961080D01*
X-843173Y970091D01*
Y979421D01*
X-845588Y988433D01*
X-850253Y996512D01*
X-856850Y1003110D01*
X-861089Y1005557D01*
X-859749Y1010557D01*
X-834276D01*
X-811736Y988017D01*
X-814039Y979421D01*
Y970091D01*
X-811625Y961080D01*
X-806960Y953000D01*
X-800363Y946403D01*
X-792283Y941738D01*
X-783271Y939323D01*
X-773942D01*
X-764930Y941738D01*
X-756850Y946403D01*
X-750253Y953000D01*
X-745588Y961080D01*
X-743173Y970091D01*
Y979421D01*
X-745588Y988433D01*
X-750253Y996512D01*
X-756850Y1003110D01*
X-764930Y1007774D01*
X-773942Y1010189D01*
X-783271D01*
X-791867Y1007886D01*
X-818522Y1034541D01*
X-823080Y1037586D01*
X-828457Y1038656D01*
X-860268D01*
X-861608Y1043656D01*
X-856850Y1046403D01*
X-850253Y1053000D01*
X-845588Y1061080D01*
X-843173Y1070091D01*
Y1079421D01*
X-845588Y1088433D01*
X-850253Y1096512D01*
X-856850Y1103110D01*
X-863475Y1106935D01*
X-862136Y1111935D01*
X-835654D01*
X-811736Y1088017D01*
X-814039Y1079421D01*
Y1070091D01*
X-811625Y1061080D01*
X-806960Y1053000D01*
X-800363Y1046403D01*
X-792283Y1041738D01*
X-783271Y1039323D01*
X-773942D01*
X-764930Y1041738D01*
X-756850Y1046403D01*
X-750253Y1053000D01*
X-745588Y1061080D01*
X-743173Y1070091D01*
Y1079421D01*
X-745588Y1088433D01*
X-750253Y1096512D01*
X-756850Y1103110D01*
X-764930Y1107774D01*
X-773942Y1110189D01*
X-783271D01*
X-791867Y1107886D01*
X-819900Y1135919D01*
X-824458Y1138964D01*
X-829835Y1140034D01*
X-857881D01*
X-859221Y1145034D01*
X-856850Y1146403D01*
X-850253Y1153000D01*
X-845588Y1161080D01*
X-843173Y1170091D01*
Y1179421D01*
X-845588Y1188433D01*
X-850253Y1196512D01*
X-856850Y1203110D01*
X-864930Y1207774D01*
X-866939Y1208313D01*
X-866280Y1213313D01*
X-846371D01*
X-813710Y1180651D01*
X-814039Y1179421D01*
Y1170091D01*
X-811625Y1161080D01*
X-806960Y1153000D01*
X-800363Y1146403D01*
X-792283Y1141738D01*
X-783271Y1139323D01*
X-773942D01*
X-764930Y1141738D01*
X-756850Y1146403D01*
X-750253Y1153000D01*
X-745588Y1161080D01*
X-743173Y1170091D01*
Y1179421D01*
X-745588Y1188433D01*
X-750253Y1196512D01*
X-756850Y1203110D01*
X-764930Y1207774D01*
X-773942Y1210189D01*
X-783271D01*
X-792283Y1207774D01*
X-797869Y1204549D01*
X-830617Y1237297D01*
X-835175Y1240342D01*
X-840551Y1241412D01*
X-841047D01*
Y1264913D01*
D02*
G37*
G36*
X-1353344Y1198819D02*
X-1363192D01*
X-1372704Y1196270D01*
X-1381233Y1191346D01*
X-1388196Y1184382D01*
X-1393120Y1175854D01*
X-1395669Y1166341D01*
Y1156493D01*
X-1393120Y1146981D01*
X-1388196Y1138452D01*
X-1381233Y1131489D01*
X-1372704Y1126565D01*
X-1363192Y1124016D01*
X-1353344D01*
X-1343831Y1126565D01*
X-1335303Y1131489D01*
X-1328339Y1138452D01*
X-1323415Y1146981D01*
X-1320866Y1156493D01*
Y1166341D01*
X-1323415Y1175854D01*
X-1328339Y1184382D01*
X-1335303Y1191346D01*
X-1343831Y1196270D01*
X-1353344Y1198819D01*
D02*
G37*
G36*
X-1418740Y1151575D02*
X-1448425D01*
Y1121890D01*
X-1418740D01*
Y1151575D01*
D02*
G37*
G36*
X-1468110D02*
X-1497795D01*
Y1121890D01*
X-1468110D01*
Y1151575D01*
D02*
G37*
G36*
X482126Y1151729D02*
Y1115551D01*
X518304D01*
X516081Y1123850D01*
X509893Y1134567D01*
X501142Y1143318D01*
X490425Y1149506D01*
X482126Y1151729D01*
D02*
G37*
G36*
X518304Y1095866D02*
X482126D01*
Y1059688D01*
X490425Y1061912D01*
X501142Y1068099D01*
X509893Y1076850D01*
X516081Y1087567D01*
X518304Y1095866D01*
D02*
G37*
G36*
X-459384Y1109252D02*
X-469750D01*
X-479763Y1106569D01*
X-488741Y1101386D01*
X-496071Y1094056D01*
X-501254Y1085078D01*
X-503937Y1075065D01*
Y1064699D01*
X-501254Y1054686D01*
X-496071Y1045708D01*
X-488741Y1038378D01*
X-479763Y1033195D01*
X-469750Y1030512D01*
X-459384D01*
X-449371Y1033195D01*
X-440393Y1038378D01*
X-433063Y1045708D01*
X-427880Y1054686D01*
X-425197Y1064699D01*
Y1075065D01*
X-427880Y1085078D01*
X-433063Y1094056D01*
X-440393Y1101386D01*
X-449371Y1106569D01*
X-459384Y1109252D01*
D02*
G37*
G36*
X-26313Y1109252D02*
X-36679D01*
X-46692Y1106569D01*
X-55670Y1101386D01*
X-63000Y1094055D01*
X-68183Y1085078D01*
X-70866Y1075065D01*
Y1064699D01*
X-68183Y1054686D01*
X-63000Y1045708D01*
X-55670Y1038378D01*
X-46692Y1033195D01*
X-36679Y1030512D01*
X-26313D01*
X-16300Y1033195D01*
X-7322Y1038378D01*
X8Y1045708D01*
X5191Y1054686D01*
X7874Y1064699D01*
Y1075065D01*
X5191Y1085078D01*
X8Y1094055D01*
X-7322Y1101386D01*
X-16300Y1106569D01*
X-26313Y1109252D01*
D02*
G37*
G36*
X-1453344Y1098819D02*
X-1463192D01*
X-1472704Y1096270D01*
X-1481233Y1091346D01*
X-1488196Y1084382D01*
X-1493120Y1075854D01*
X-1495669Y1066341D01*
Y1056493D01*
X-1493120Y1046981D01*
X-1488196Y1038452D01*
X-1481233Y1031489D01*
X-1472704Y1026565D01*
X-1463192Y1024016D01*
X-1453344D01*
X-1443831Y1026565D01*
X-1435303Y1031489D01*
X-1428339Y1038452D01*
X-1423415Y1046981D01*
X-1420866Y1056493D01*
Y1066341D01*
X-1423415Y1075854D01*
X-1428339Y1084382D01*
X-1435303Y1091346D01*
X-1443831Y1096270D01*
X-1453344Y1098819D01*
D02*
G37*
G36*
X1418046Y1049764D02*
X1406757D01*
X1395853Y1046842D01*
X1386076Y1041198D01*
X1378094Y1033215D01*
X1372449Y1023439D01*
X1369528Y1012534D01*
Y1001245D01*
X1372449Y990341D01*
X1378094Y980564D01*
X1386076Y972582D01*
X1395853Y966938D01*
X1406757Y964016D01*
X1418046D01*
X1428950Y966938D01*
X1438727Y972582D01*
X1446709Y980564D01*
X1452354Y990341D01*
X1455276Y1001245D01*
Y1012534D01*
X1452354Y1023439D01*
X1446709Y1033215D01*
X1438727Y1041198D01*
X1428950Y1046842D01*
X1418046Y1049764D01*
D02*
G37*
G36*
X488191Y1050583D02*
X476376D01*
X464963Y1047525D01*
X454730Y1041617D01*
X446375Y1033262D01*
X440468Y1023029D01*
X437409Y1011616D01*
Y999801D01*
X440468Y988388D01*
X446375Y978155D01*
X454730Y969801D01*
X464963Y963893D01*
X476376Y960835D01*
X488191D01*
X499604Y963893D01*
X509837Y969801D01*
X518192Y978155D01*
X524099Y988388D01*
X527158Y999801D01*
Y1011616D01*
X524099Y1023029D01*
X518192Y1033262D01*
X509837Y1041617D01*
X499604Y1047525D01*
X488191Y1050583D01*
D02*
G37*
G36*
X-1453344Y998819D02*
X-1463192D01*
X-1472704Y996270D01*
X-1481233Y991346D01*
X-1488196Y984382D01*
X-1493120Y975854D01*
X-1495669Y966341D01*
Y956493D01*
X-1493120Y946981D01*
X-1488196Y938452D01*
X-1481233Y931489D01*
X-1472704Y926565D01*
X-1463192Y924016D01*
X-1453344D01*
X-1443831Y926565D01*
X-1435303Y931489D01*
X-1428339Y938452D01*
X-1423415Y946981D01*
X-1420866Y956493D01*
Y966341D01*
X-1423415Y975854D01*
X-1428339Y984382D01*
X-1435303Y991346D01*
X-1443831Y996270D01*
X-1453344Y998819D01*
D02*
G37*
G36*
X1418046Y949764D02*
X1406757D01*
X1395853Y946842D01*
X1386076Y941198D01*
X1378094Y933215D01*
X1372449Y923439D01*
X1369528Y912534D01*
Y901245D01*
X1372449Y890341D01*
X1378094Y880564D01*
X1386076Y872582D01*
X1395853Y866938D01*
X1406757Y864016D01*
X1418046D01*
X1428950Y866938D01*
X1438727Y872582D01*
X1446709Y880564D01*
X1452354Y890341D01*
X1455276Y901245D01*
Y912534D01*
X1452354Y923439D01*
X1446709Y933215D01*
X1438727Y941198D01*
X1428950Y946842D01*
X1418046Y949764D01*
D02*
G37*
G36*
X618046D02*
X606757D01*
X595853Y946842D01*
X586076Y941198D01*
X578094Y933215D01*
X572449Y923439D01*
X569528Y912534D01*
Y901245D01*
X572449Y890341D01*
X578094Y880564D01*
X586076Y872582D01*
X595853Y866938D01*
X606757Y864016D01*
X618046D01*
X628950Y866938D01*
X638727Y872582D01*
X646709Y880564D01*
X652354Y890341D01*
X655276Y901245D01*
Y912534D01*
X652354Y923439D01*
X646709Y933215D01*
X638727Y941198D01*
X628950Y946842D01*
X618046Y949764D01*
D02*
G37*
G36*
X-1453344Y898819D02*
X-1463192D01*
X-1472704Y896270D01*
X-1481233Y891346D01*
X-1488196Y884382D01*
X-1493120Y875854D01*
X-1495669Y866341D01*
Y856493D01*
X-1493120Y846981D01*
X-1488196Y838452D01*
X-1481233Y831489D01*
X-1472704Y826565D01*
X-1463192Y824016D01*
X-1453344D01*
X-1443831Y826565D01*
X-1435303Y831489D01*
X-1428339Y838452D01*
X-1423415Y846981D01*
X-1420866Y856493D01*
Y866341D01*
X-1423415Y875854D01*
X-1428339Y884382D01*
X-1435303Y891346D01*
X-1443831Y896270D01*
X-1453344Y898819D01*
D02*
G37*
G36*
X-433071Y930118D02*
X-555118D01*
Y812008D01*
X-433071D01*
Y930118D01*
D02*
G37*
G36*
X1418046Y849764D02*
X1406757D01*
X1395853Y846842D01*
X1386076Y841198D01*
X1378094Y833215D01*
X1372449Y823439D01*
X1369528Y812534D01*
Y801245D01*
X1372449Y790341D01*
X1378094Y780564D01*
X1386076Y772582D01*
X1395853Y766938D01*
X1406757Y764016D01*
X1418046D01*
X1428950Y766938D01*
X1438727Y772582D01*
X1446709Y780564D01*
X1452354Y790341D01*
X1455276Y801245D01*
Y812534D01*
X1452354Y823439D01*
X1446709Y833215D01*
X1438727Y841198D01*
X1428950Y846842D01*
X1418046Y849764D01*
D02*
G37*
G36*
X618046D02*
X606757D01*
X595853Y846842D01*
X586076Y841198D01*
X578094Y833215D01*
X572449Y823439D01*
X569528Y812534D01*
Y801245D01*
X572449Y790341D01*
X578094Y780564D01*
X586076Y772582D01*
X595853Y766938D01*
X606757Y764016D01*
X618046D01*
X628950Y766938D01*
X638727Y772582D01*
X646709Y780564D01*
X652354Y790341D01*
X655276Y801245D01*
Y812534D01*
X652354Y823439D01*
X646709Y833215D01*
X638727Y841198D01*
X628950Y846842D01*
X618046Y849764D01*
D02*
G37*
G36*
X488191Y850583D02*
X476376D01*
X464963Y847525D01*
X454730Y841617D01*
X446375Y833262D01*
X440468Y823029D01*
X437409Y811616D01*
Y799801D01*
X440468Y788388D01*
X446375Y778155D01*
X454730Y769801D01*
X464963Y763893D01*
X476376Y760835D01*
X488191D01*
X499604Y763893D01*
X509837Y769801D01*
X518192Y778155D01*
X524099Y788388D01*
X527158Y799801D01*
Y811616D01*
X524099Y823029D01*
X518192Y833262D01*
X509837Y841617D01*
X499604Y847525D01*
X488191Y850583D01*
D02*
G37*
G36*
X246656Y798819D02*
X236808D01*
X227296Y796270D01*
X218767Y791346D01*
X211804Y784382D01*
X206880Y775854D01*
X204331Y766341D01*
Y756493D01*
X206880Y746981D01*
X211804Y738452D01*
X218767Y731489D01*
X227296Y726565D01*
X236808Y724016D01*
X246656D01*
X256169Y726565D01*
X264697Y731489D01*
X271661Y738452D01*
X276585Y746981D01*
X279134Y756493D01*
Y766341D01*
X276585Y775854D01*
X271661Y784382D01*
X264697Y791346D01*
X256169Y796270D01*
X246656Y798819D01*
D02*
G37*
G36*
X-1453344D02*
X-1463192D01*
X-1472704Y796270D01*
X-1481233Y791346D01*
X-1488196Y784382D01*
X-1493120Y775854D01*
X-1495669Y766341D01*
Y756493D01*
X-1493120Y746981D01*
X-1488196Y738452D01*
X-1481233Y731489D01*
X-1472704Y726565D01*
X-1463192Y724016D01*
X-1453344D01*
X-1443831Y726565D01*
X-1435303Y731489D01*
X-1428339Y738452D01*
X-1423415Y746981D01*
X-1420866Y756493D01*
Y766341D01*
X-1423415Y775854D01*
X-1428339Y784382D01*
X-1435303Y791346D01*
X-1443831Y796270D01*
X-1453344Y798819D01*
D02*
G37*
G36*
X1418046Y749764D02*
X1406757D01*
X1395853Y746842D01*
X1386076Y741198D01*
X1378094Y733215D01*
X1372449Y723439D01*
X1369528Y712534D01*
Y701245D01*
X1372449Y690341D01*
X1378094Y680564D01*
X1386076Y672582D01*
X1395853Y666938D01*
X1406757Y664016D01*
X1418046D01*
X1428950Y666938D01*
X1438727Y672582D01*
X1446709Y680564D01*
X1452354Y690341D01*
X1455276Y701245D01*
Y712534D01*
X1452354Y723439D01*
X1446709Y733215D01*
X1438727Y741198D01*
X1428950Y746842D01*
X1418046Y749764D01*
D02*
G37*
G36*
X618046D02*
X606757D01*
X595853Y746842D01*
X586076Y741198D01*
X578094Y733215D01*
X572449Y723439D01*
X569528Y712534D01*
Y701245D01*
X572449Y690341D01*
X578094Y680564D01*
X586076Y672582D01*
X595853Y666938D01*
X606757Y664016D01*
X618046D01*
X628950Y666938D01*
X638727Y672582D01*
X646709Y680564D01*
X652354Y690341D01*
X655276Y701245D01*
Y712534D01*
X652354Y723439D01*
X646709Y733215D01*
X638727Y741198D01*
X628950Y746842D01*
X618046Y749764D01*
D02*
G37*
G36*
X246656Y698819D02*
X236808D01*
X227296Y696270D01*
X218767Y691346D01*
X211804Y684382D01*
X206880Y675854D01*
X204331Y666341D01*
Y656493D01*
X206880Y646981D01*
X211804Y638452D01*
X218767Y631489D01*
X227296Y626565D01*
X236808Y624016D01*
X246656D01*
X256169Y626565D01*
X264697Y631489D01*
X271661Y638452D01*
X276585Y646981D01*
X279134Y656493D01*
Y666341D01*
X276585Y675854D01*
X271661Y684382D01*
X264697Y691346D01*
X256169Y696270D01*
X246656Y698819D01*
D02*
G37*
G36*
X-1453344D02*
X-1463192D01*
X-1472704Y696270D01*
X-1481233Y691346D01*
X-1488196Y684382D01*
X-1493120Y675854D01*
X-1495669Y666341D01*
Y656493D01*
X-1493120Y646981D01*
X-1488196Y638452D01*
X-1481233Y631489D01*
X-1472704Y626565D01*
X-1463192Y624016D01*
X-1453344D01*
X-1443831Y626565D01*
X-1435303Y631489D01*
X-1428339Y638452D01*
X-1423415Y646981D01*
X-1420866Y656493D01*
Y666341D01*
X-1423415Y675854D01*
X-1428339Y684382D01*
X-1435303Y691346D01*
X-1443831Y696270D01*
X-1453344Y698819D01*
D02*
G37*
G36*
X98116Y668307D02*
X90860D01*
X83851Y666429D01*
X77567Y662801D01*
X72436Y657670D01*
X68807Y651385D01*
X66929Y644376D01*
Y637120D01*
X68807Y630111D01*
X72436Y623826D01*
X77567Y618695D01*
X83851Y615067D01*
X90860Y613189D01*
X98116D01*
X105126Y615067D01*
X111410Y618695D01*
X116541Y623826D01*
X120169Y630111D01*
X122047Y637120D01*
Y644376D01*
X120169Y651385D01*
X116541Y657670D01*
X111410Y662801D01*
X105126Y666429D01*
X98116Y668307D01*
D02*
G37*
G36*
X1418046Y649764D02*
X1406757D01*
X1395853Y646842D01*
X1386076Y641198D01*
X1378094Y633215D01*
X1372449Y623439D01*
X1369528Y612534D01*
Y601245D01*
X1372449Y590341D01*
X1378094Y580564D01*
X1386076Y572582D01*
X1395853Y566938D01*
X1406757Y564016D01*
X1418046D01*
X1428950Y566938D01*
X1438727Y572582D01*
X1446709Y580564D01*
X1452354Y590341D01*
X1455276Y601245D01*
Y612534D01*
X1452354Y623439D01*
X1446709Y633215D01*
X1438727Y641198D01*
X1428950Y646842D01*
X1418046Y649764D01*
D02*
G37*
G36*
X618046D02*
X606757D01*
X595853Y646842D01*
X586076Y641198D01*
X578094Y633215D01*
X572449Y623439D01*
X569528Y612534D01*
Y601245D01*
X572449Y590341D01*
X578094Y580564D01*
X586076Y572582D01*
X595853Y566938D01*
X606757Y564016D01*
X618046D01*
X628950Y566938D01*
X638727Y572582D01*
X646709Y580564D01*
X652354Y590341D01*
X655276Y601245D01*
Y612534D01*
X652354Y623439D01*
X646709Y633215D01*
X638727Y641198D01*
X628950Y646842D01*
X618046Y649764D01*
D02*
G37*
G36*
X488191Y650583D02*
X476376D01*
X464963Y647525D01*
X454730Y641617D01*
X446375Y633262D01*
X440468Y623029D01*
X437409Y611616D01*
Y599801D01*
X440468Y588388D01*
X446375Y578155D01*
X454730Y569801D01*
X464963Y563893D01*
X476376Y560835D01*
X488191D01*
X499604Y563893D01*
X509837Y569801D01*
X518192Y578155D01*
X524099Y588388D01*
X527158Y599801D01*
Y611616D01*
X524099Y623029D01*
X518192Y633262D01*
X509837Y641617D01*
X499604Y647525D01*
X488191Y650583D01*
D02*
G37*
G36*
X780586Y610189D02*
X771256D01*
X762245Y607774D01*
X754165Y603110D01*
X747568Y596512D01*
X742903Y588433D01*
X740488Y579421D01*
Y570091D01*
X742903Y561080D01*
X747568Y553000D01*
X754165Y546403D01*
X762245Y541738D01*
X771256Y539323D01*
X780586D01*
X789598Y541738D01*
X797678Y546403D01*
X804275Y553000D01*
X808940Y561080D01*
X811354Y570091D01*
Y579421D01*
X808940Y588433D01*
X804275Y596512D01*
X797678Y603110D01*
X789598Y607774D01*
X780586Y610189D01*
D02*
G37*
G36*
X346656Y598819D02*
X336808D01*
X327296Y596270D01*
X318767Y591346D01*
X311804Y584382D01*
X306880Y575854D01*
X304331Y566341D01*
Y556493D01*
X306880Y546981D01*
X311804Y538452D01*
X318767Y531489D01*
X327296Y526565D01*
X336808Y524016D01*
X346656D01*
X356169Y526565D01*
X364697Y531489D01*
X371661Y538452D01*
X376585Y546981D01*
X379134Y556493D01*
Y566341D01*
X376585Y575854D01*
X371661Y584382D01*
X364697Y591346D01*
X356169Y596270D01*
X346656Y598819D01*
D02*
G37*
G36*
X-1453344D02*
X-1463192D01*
X-1472704Y596270D01*
X-1481233Y591346D01*
X-1488196Y584382D01*
X-1493120Y575854D01*
X-1495669Y566341D01*
Y556493D01*
X-1493120Y546981D01*
X-1488196Y538452D01*
X-1481233Y531489D01*
X-1472704Y526565D01*
X-1463192Y524016D01*
X-1453344D01*
X-1443831Y526565D01*
X-1435303Y531489D01*
X-1428339Y538452D01*
X-1423415Y546981D01*
X-1420866Y556493D01*
Y566341D01*
X-1423415Y575854D01*
X-1428339Y584382D01*
X-1435303Y591346D01*
X-1443831Y596270D01*
X-1453344Y598819D01*
D02*
G37*
G36*
X1418046Y549764D02*
X1406757D01*
X1395853Y546842D01*
X1386076Y541198D01*
X1378094Y533215D01*
X1372449Y523439D01*
X1369528Y512534D01*
Y501245D01*
X1372449Y490341D01*
X1378094Y480565D01*
X1386076Y472582D01*
X1395853Y466938D01*
X1406757Y464016D01*
X1418046D01*
X1428950Y466938D01*
X1438727Y472582D01*
X1446709Y480565D01*
X1452354Y490341D01*
X1455276Y501245D01*
Y512534D01*
X1452354Y523439D01*
X1446709Y533215D01*
X1438727Y541198D01*
X1428950Y546842D01*
X1418046Y549764D01*
D02*
G37*
G36*
X618046D02*
X606757D01*
X595853Y546842D01*
X586076Y541198D01*
X578094Y533215D01*
X572449Y523439D01*
X569528Y512534D01*
Y501245D01*
X572449Y490341D01*
X578094Y480565D01*
X586076Y472582D01*
X595853Y466938D01*
X606757Y464016D01*
X618046D01*
X628950Y466938D01*
X638727Y472582D01*
X646709Y480565D01*
X652354Y490341D01*
X655276Y501245D01*
Y512534D01*
X652354Y523439D01*
X646709Y533215D01*
X638727Y541198D01*
X628950Y546842D01*
X618046Y549764D01*
D02*
G37*
G36*
X478191Y550583D02*
X466376D01*
X454963Y547525D01*
X444730Y541617D01*
X436375Y533262D01*
X430468Y523029D01*
X427409Y511616D01*
Y499801D01*
X430468Y488388D01*
X436375Y478155D01*
X444730Y469801D01*
X454963Y463893D01*
X466376Y460835D01*
X478191D01*
X489604Y463893D01*
X499837Y469801D01*
X508192Y478155D01*
X514099Y488388D01*
X517158Y499801D01*
Y511616D01*
X514099Y523029D01*
X508192Y533262D01*
X499837Y541617D01*
X489604Y547525D01*
X478191Y550583D01*
D02*
G37*
G36*
X-773942Y510189D02*
X-783271D01*
X-792283Y507774D01*
X-800363Y503110D01*
X-806960Y496512D01*
X-811625Y488433D01*
X-814039Y479421D01*
Y470091D01*
X-811736Y461495D01*
X-833001Y440231D01*
X-857540D01*
X-858880Y445231D01*
X-856850Y446403D01*
X-850253Y453000D01*
X-845588Y461079D01*
X-843173Y470091D01*
Y479421D01*
X-845588Y488433D01*
X-850253Y496512D01*
X-856850Y503110D01*
X-864930Y507774D01*
X-873942Y510189D01*
X-883271D01*
X-892283Y507774D01*
X-900363Y503110D01*
X-906960Y496512D01*
X-911625Y488433D01*
X-914039Y479421D01*
Y470091D01*
X-911625Y461079D01*
X-906960Y453000D01*
X-900363Y446403D01*
X-898333Y445231D01*
X-899672Y440231D01*
X-989961D01*
X-995337Y439161D01*
X-999895Y436116D01*
X-1049914Y386097D01*
X-1327727D01*
X-1329668Y385711D01*
X-1335303Y391346D01*
X-1343831Y396270D01*
X-1353344Y398819D01*
X-1363192D01*
X-1372704Y396270D01*
X-1381233Y391346D01*
X-1388196Y384382D01*
X-1393120Y375854D01*
X-1395669Y366341D01*
Y356493D01*
X-1393120Y346981D01*
X-1388196Y338452D01*
X-1381233Y331489D01*
X-1372704Y326565D01*
X-1363192Y324016D01*
X-1353344D01*
X-1343831Y326565D01*
X-1335303Y331489D01*
X-1328339Y338452D01*
X-1323415Y346981D01*
X-1320866Y356493D01*
Y357998D01*
X-1044094D01*
X-1038718Y359067D01*
X-1034160Y362113D01*
X-984141Y412132D01*
X-898988D01*
X-897648Y407132D01*
X-901668Y404811D01*
X-908661Y397818D01*
X-913606Y389253D01*
X-914853Y384598D01*
X-878606D01*
X-842360D01*
X-843607Y389253D01*
X-848552Y397818D01*
X-855544Y404811D01*
X-859564Y407132D01*
X-858225Y412132D01*
X-827181D01*
X-821805Y413201D01*
X-817247Y416247D01*
X-791867Y441626D01*
X-783271Y439323D01*
X-773942D01*
X-764930Y441738D01*
X-756850Y446403D01*
X-750253Y453000D01*
X-745588Y461079D01*
X-743173Y470091D01*
Y479421D01*
X-745588Y488433D01*
X-750253Y496512D01*
X-756850Y503110D01*
X-764930Y507774D01*
X-773942Y510189D01*
D02*
G37*
G36*
X780586D02*
X771256D01*
X762245Y507774D01*
X754165Y503110D01*
X747568Y496512D01*
X742903Y488433D01*
X740488Y479421D01*
Y470091D01*
X742903Y461079D01*
X747568Y453000D01*
X754165Y446403D01*
X762245Y441738D01*
X771256Y439323D01*
X780586D01*
X789598Y441738D01*
X797678Y446403D01*
X804275Y453000D01*
X808940Y461079D01*
X811354Y470091D01*
Y479421D01*
X808940Y488433D01*
X804275Y496512D01*
X797678Y503110D01*
X789598Y507774D01*
X780586Y510189D01*
D02*
G37*
G36*
X-574803Y1375000D02*
X-673228D01*
Y1272638D01*
X-638065D01*
Y811024D01*
X-636996Y805647D01*
X-633950Y801089D01*
X-561116Y728255D01*
X-556558Y725209D01*
X-551181Y724139D01*
X-345492D01*
Y705315D01*
X-339168D01*
Y689291D01*
X-338098Y683915D01*
X-335053Y679357D01*
X-107178Y451483D01*
X-102621Y448437D01*
X-97244Y447368D01*
X206776D01*
X206880Y446981D01*
X211804Y438452D01*
X218214Y432042D01*
X217432Y427042D01*
X140354D01*
X134978Y425972D01*
X130420Y422927D01*
X-354423Y-61916D01*
X-357468Y-66474D01*
X-358538Y-71850D01*
Y-1424061D01*
X-363774Y-1427084D01*
X-372129Y-1435439D01*
X-378036Y-1445671D01*
X-381094Y-1457084D01*
Y-1468900D01*
X-378036Y-1480313D01*
X-372129Y-1490545D01*
X-363774Y-1498900D01*
X-353541Y-1504808D01*
X-342128Y-1507866D01*
X-330313D01*
X-318900Y-1504808D01*
X-308667Y-1498900D01*
X-300312Y-1490545D01*
X-294405Y-1480313D01*
X-291346Y-1468900D01*
Y-1457084D01*
X-294405Y-1445671D01*
X-300312Y-1435439D01*
X-308667Y-1427084D01*
X-318900Y-1421176D01*
X-330313Y-1418118D01*
X-330439D01*
Y-77670D01*
X146174Y398943D01*
X221925D01*
X223265Y393943D01*
X218767Y391346D01*
X211804Y384382D01*
X206880Y375854D01*
X204331Y366341D01*
Y356493D01*
X206880Y346981D01*
X211804Y338452D01*
X218767Y331489D01*
X227296Y326565D01*
X236808Y324016D01*
X246656D01*
X256169Y326565D01*
X264697Y331489D01*
X271661Y338452D01*
X276585Y346981D01*
X279134Y356493D01*
Y366341D01*
X276585Y375854D01*
X271661Y384382D01*
X264697Y391346D01*
X260200Y393943D01*
X261539Y398943D01*
X293307D01*
X298684Y400012D01*
X303242Y403058D01*
X326949Y426765D01*
X327296Y426565D01*
X336808Y424016D01*
X346656D01*
X356169Y426565D01*
X364697Y431489D01*
X371661Y438452D01*
X376585Y446981D01*
X379134Y456493D01*
Y466341D01*
X376585Y475854D01*
X371661Y484382D01*
X364697Y491346D01*
X356169Y496270D01*
X346656Y498819D01*
X336808D01*
X327296Y496270D01*
X318767Y491346D01*
X311804Y484382D01*
X306880Y475854D01*
X304331Y466341D01*
Y456493D01*
X306880Y446981D01*
X307080Y446634D01*
X287488Y427042D01*
X266032D01*
X265250Y432042D01*
X271661Y438452D01*
X276585Y446981D01*
X279134Y456493D01*
Y466341D01*
X276585Y475854D01*
X271661Y484382D01*
X264697Y491346D01*
X256169Y496270D01*
X246656Y498819D01*
X236808D01*
X227296Y496270D01*
X218767Y491346D01*
X211804Y484382D01*
X206880Y475854D01*
X206776Y475467D01*
X-91424D01*
X-311069Y695111D01*
Y705315D01*
X-264744D01*
Y771063D01*
X-271069D01*
Y855984D01*
X-272138Y861361D01*
X-275184Y865919D01*
X-389494Y980229D01*
Y1145755D01*
X-262881Y1272368D01*
X-226378D01*
X-225021Y1272638D01*
X-141732D01*
Y1375000D01*
X-240157D01*
Y1300467D01*
X-268701D01*
X-274077Y1299397D01*
X-278635Y1296352D01*
X-413478Y1161509D01*
X-416523Y1156951D01*
X-417593Y1151575D01*
Y974409D01*
X-416523Y969033D01*
X-413478Y964475D01*
X-299168Y850165D01*
Y771063D01*
X-345492D01*
Y752239D01*
X-545362D01*
X-609966Y816843D01*
Y1272638D01*
X-574803D01*
Y1375000D01*
D02*
G37*
G36*
X-1453344Y498819D02*
X-1463192D01*
X-1472704Y496270D01*
X-1481233Y491346D01*
X-1488196Y484382D01*
X-1493120Y475854D01*
X-1495669Y466341D01*
Y456493D01*
X-1493120Y446981D01*
X-1488196Y438452D01*
X-1481233Y431489D01*
X-1472704Y426565D01*
X-1463192Y424016D01*
X-1453344D01*
X-1443831Y426565D01*
X-1435303Y431489D01*
X-1428339Y438452D01*
X-1423415Y446981D01*
X-1420866Y456493D01*
Y466341D01*
X-1423415Y475854D01*
X-1428339Y484382D01*
X-1435303Y491346D01*
X-1443831Y496270D01*
X-1453344Y498819D01*
D02*
G37*
G36*
X785764Y411003D02*
Y384598D01*
X812168D01*
X810921Y389253D01*
X805976Y397818D01*
X798983Y404811D01*
X790418Y409755D01*
X785764Y411003D01*
D02*
G37*
G36*
X766079D02*
X761424Y409755D01*
X752860Y404811D01*
X745867Y397818D01*
X740922Y389253D01*
X739675Y384598D01*
X766079D01*
Y411003D01*
D02*
G37*
G36*
X1418046Y449764D02*
X1406757D01*
X1395853Y446842D01*
X1386076Y441198D01*
X1378094Y433215D01*
X1372449Y423439D01*
X1369528Y412534D01*
Y401245D01*
X1372449Y390341D01*
X1378094Y380565D01*
X1386076Y372582D01*
X1395853Y366938D01*
X1406757Y364016D01*
X1418046D01*
X1428950Y366938D01*
X1438727Y372582D01*
X1446709Y380565D01*
X1452354Y390341D01*
X1455276Y401245D01*
Y412534D01*
X1452354Y423439D01*
X1446709Y433215D01*
X1438727Y441198D01*
X1428950Y446842D01*
X1418046Y449764D01*
D02*
G37*
G36*
X618046D02*
X606757D01*
X595853Y446842D01*
X586076Y441198D01*
X578094Y433215D01*
X572449Y423439D01*
X569528Y412534D01*
Y401245D01*
X572449Y390341D01*
X578094Y380565D01*
X586076Y372582D01*
X595853Y366938D01*
X606757Y364016D01*
X618046D01*
X628950Y366938D01*
X638727Y372582D01*
X646709Y380565D01*
X652354Y390341D01*
X655276Y401245D01*
Y412534D01*
X652354Y423439D01*
X646709Y433215D01*
X638727Y441198D01*
X628950Y446842D01*
X618046Y449764D01*
D02*
G37*
G36*
X880586Y410189D02*
X871256D01*
X862245Y407774D01*
X854165Y403110D01*
X847568Y396512D01*
X842903Y388433D01*
X840488Y379421D01*
Y370091D01*
X842903Y361079D01*
X847568Y353000D01*
X854165Y346403D01*
X862245Y341738D01*
X871256Y339323D01*
X880586D01*
X889598Y341738D01*
X897678Y346403D01*
X904275Y353000D01*
X908940Y361079D01*
X911354Y370091D01*
Y379421D01*
X908940Y388433D01*
X904275Y396512D01*
X897678Y403110D01*
X889598Y407774D01*
X880586Y410189D01*
D02*
G37*
G36*
X-773942D02*
X-783271D01*
X-792283Y407774D01*
X-800363Y403110D01*
X-806960Y396512D01*
X-811625Y388433D01*
X-814039Y379421D01*
Y370091D01*
X-811625Y361079D01*
X-806960Y353000D01*
X-800363Y346403D01*
X-792283Y341738D01*
X-783271Y339323D01*
X-773942D01*
X-764930Y341738D01*
X-756850Y346403D01*
X-750253Y353000D01*
X-745588Y361079D01*
X-743173Y370091D01*
Y379421D01*
X-745588Y388433D01*
X-750253Y396512D01*
X-756850Y403110D01*
X-764930Y407774D01*
X-773942Y410189D01*
D02*
G37*
G36*
X812168Y364913D02*
X785764D01*
Y338510D01*
X790418Y339757D01*
X798983Y344701D01*
X805976Y351694D01*
X810921Y360259D01*
X812168Y364913D01*
D02*
G37*
G36*
X-842360D02*
X-868764D01*
Y338510D01*
X-864109Y339757D01*
X-855544Y344701D01*
X-848552Y351694D01*
X-843607Y360259D01*
X-842360Y364913D01*
D02*
G37*
G36*
X766079D02*
X739675D01*
X740922Y360259D01*
X745867Y351694D01*
X752860Y344701D01*
X761424Y339757D01*
X766079Y338510D01*
Y364913D01*
D02*
G37*
G36*
X-888449D02*
X-914853D01*
X-913606Y360259D01*
X-908661Y351694D01*
X-901668Y344701D01*
X-893104Y339757D01*
X-888449Y338510D01*
Y364913D01*
D02*
G37*
G36*
X346656Y398819D02*
X336808D01*
X327296Y396270D01*
X318767Y391346D01*
X311804Y384382D01*
X306880Y375854D01*
X304331Y366341D01*
Y356493D01*
X306880Y346981D01*
X311804Y338452D01*
X318767Y331489D01*
X327296Y326565D01*
X336808Y324016D01*
X346656D01*
X356169Y326565D01*
X364697Y331489D01*
X371661Y338452D01*
X376585Y346981D01*
X379134Y356493D01*
Y366341D01*
X376585Y375854D01*
X371661Y384382D01*
X364697Y391346D01*
X356169Y396270D01*
X346656Y398819D01*
D02*
G37*
G36*
X-1453344D02*
X-1463192D01*
X-1472704Y396270D01*
X-1481233Y391346D01*
X-1488196Y384382D01*
X-1493120Y375854D01*
X-1495669Y366341D01*
Y356493D01*
X-1493120Y346981D01*
X-1488196Y338452D01*
X-1481233Y331489D01*
X-1472704Y326565D01*
X-1463192Y324016D01*
X-1453344D01*
X-1443831Y326565D01*
X-1435303Y331489D01*
X-1428339Y338452D01*
X-1423415Y346981D01*
X-1420866Y356493D01*
Y366341D01*
X-1423415Y375854D01*
X-1428339Y384382D01*
X-1435303Y391346D01*
X-1443831Y396270D01*
X-1453344Y398819D01*
D02*
G37*
G36*
X1418046Y349764D02*
X1406757D01*
X1395853Y346842D01*
X1386076Y341198D01*
X1378094Y333215D01*
X1372449Y323439D01*
X1369528Y312534D01*
Y301245D01*
X1372449Y290341D01*
X1378094Y280565D01*
X1386076Y272582D01*
X1395853Y266938D01*
X1406757Y264016D01*
X1418046D01*
X1428950Y266938D01*
X1438727Y272582D01*
X1446709Y280565D01*
X1452354Y290341D01*
X1455276Y301245D01*
Y312534D01*
X1452354Y323439D01*
X1446709Y333215D01*
X1438727Y341198D01*
X1428950Y346842D01*
X1418046Y349764D01*
D02*
G37*
G36*
X618046D02*
X606757D01*
X595853Y346842D01*
X586076Y341198D01*
X578094Y333215D01*
X572449Y323439D01*
X569528Y312534D01*
Y301245D01*
X572449Y290341D01*
X578094Y280565D01*
X586076Y272582D01*
X595853Y266938D01*
X606757Y264016D01*
X618046D01*
X628950Y266938D01*
X638727Y272582D01*
X646709Y280565D01*
X652354Y290341D01*
X655276Y301245D01*
Y312534D01*
X652354Y323439D01*
X646709Y333215D01*
X638727Y341198D01*
X628950Y346842D01*
X618046Y349764D01*
D02*
G37*
G36*
X346656Y298819D02*
X336808D01*
X327296Y296270D01*
X318767Y291346D01*
X311804Y284382D01*
X306880Y275854D01*
X304331Y266341D01*
Y256493D01*
X306880Y246981D01*
X311804Y238452D01*
X318767Y231489D01*
X327296Y226565D01*
X336808Y224016D01*
X346656D01*
X356169Y226565D01*
X364697Y231489D01*
X371661Y238452D01*
X376585Y246981D01*
X379134Y256493D01*
Y266341D01*
X376585Y275854D01*
X371661Y284382D01*
X364697Y291346D01*
X356169Y296270D01*
X346656Y298819D01*
D02*
G37*
G36*
X246656D02*
X236808D01*
X227296Y296270D01*
X218767Y291346D01*
X211804Y284382D01*
X206880Y275854D01*
X204331Y266341D01*
Y256493D01*
X206880Y246981D01*
X211804Y238452D01*
X218767Y231489D01*
X227296Y226565D01*
X236808Y224016D01*
X246656D01*
X256169Y226565D01*
X264697Y231489D01*
X271661Y238452D01*
X276585Y246981D01*
X279134Y256493D01*
Y266341D01*
X276585Y275854D01*
X271661Y284382D01*
X264697Y291346D01*
X256169Y296270D01*
X246656Y298819D01*
D02*
G37*
G36*
X-1453344D02*
X-1463192D01*
X-1472704Y296270D01*
X-1481233Y291346D01*
X-1488196Y284382D01*
X-1493120Y275854D01*
X-1495669Y266341D01*
Y256493D01*
X-1493120Y246981D01*
X-1488196Y238452D01*
X-1481233Y231489D01*
X-1472704Y226565D01*
X-1463192Y224016D01*
X-1453344D01*
X-1443831Y226565D01*
X-1435303Y231489D01*
X-1428339Y238452D01*
X-1423415Y246981D01*
X-1420866Y256493D01*
Y266341D01*
X-1423415Y275854D01*
X-1428339Y284382D01*
X-1435303Y291346D01*
X-1443831Y296270D01*
X-1453344Y298819D01*
D02*
G37*
G36*
X1418046Y249764D02*
X1406757D01*
X1395853Y246842D01*
X1386076Y241198D01*
X1378094Y233215D01*
X1372449Y223439D01*
X1369528Y212534D01*
Y201245D01*
X1372449Y190341D01*
X1378094Y180565D01*
X1386076Y172582D01*
X1395853Y166938D01*
X1406757Y164016D01*
X1418046D01*
X1428950Y166938D01*
X1438727Y172582D01*
X1446709Y180565D01*
X1452354Y190341D01*
X1455276Y201245D01*
Y212534D01*
X1452354Y223439D01*
X1446709Y233215D01*
X1438727Y241198D01*
X1428950Y246842D01*
X1418046Y249764D01*
D02*
G37*
G36*
X618046D02*
X606757D01*
X595853Y246842D01*
X586076Y241198D01*
X578094Y233215D01*
X572449Y223439D01*
X569528Y212534D01*
Y201245D01*
X572449Y190341D01*
X578094Y180565D01*
X586076Y172582D01*
X595853Y166938D01*
X606757Y164016D01*
X618046D01*
X628950Y166938D01*
X638727Y172582D01*
X646709Y180565D01*
X652354Y190341D01*
X655276Y201245D01*
Y212534D01*
X652354Y223439D01*
X646709Y233215D01*
X638727Y241198D01*
X628950Y246842D01*
X618046Y249764D01*
D02*
G37*
G36*
X346656Y198819D02*
X336808D01*
X327296Y196270D01*
X318767Y191346D01*
X311804Y184382D01*
X306880Y175854D01*
X304331Y166341D01*
Y156493D01*
X306880Y146981D01*
X311804Y138452D01*
X318767Y131489D01*
X327296Y126565D01*
X336808Y124016D01*
X346656D01*
X356169Y126565D01*
X364697Y131489D01*
X371661Y138452D01*
X376585Y146981D01*
X379134Y156493D01*
Y166341D01*
X376585Y175854D01*
X371661Y184382D01*
X364697Y191346D01*
X356169Y196270D01*
X346656Y198819D01*
D02*
G37*
G36*
X246656D02*
X236808D01*
X227296Y196270D01*
X218767Y191346D01*
X211804Y184382D01*
X206880Y175854D01*
X204331Y166341D01*
Y156493D01*
X206880Y146981D01*
X211804Y138452D01*
X218767Y131489D01*
X227296Y126565D01*
X236808Y124016D01*
X246656D01*
X256169Y126565D01*
X264697Y131489D01*
X271661Y138452D01*
X276585Y146981D01*
X279134Y156493D01*
Y166341D01*
X276585Y175854D01*
X271661Y184382D01*
X264697Y191346D01*
X256169Y196270D01*
X246656Y198819D01*
D02*
G37*
G36*
X-1453344D02*
X-1463192D01*
X-1472704Y196270D01*
X-1481233Y191346D01*
X-1488196Y184382D01*
X-1493120Y175854D01*
X-1495669Y166341D01*
Y156493D01*
X-1493120Y146981D01*
X-1488196Y138452D01*
X-1481233Y131489D01*
X-1472704Y126565D01*
X-1463192Y124016D01*
X-1453344D01*
X-1443831Y126565D01*
X-1435303Y131489D01*
X-1428339Y138452D01*
X-1423415Y146981D01*
X-1420866Y156493D01*
Y166341D01*
X-1423415Y175854D01*
X-1428339Y184382D01*
X-1435303Y191346D01*
X-1443831Y196270D01*
X-1453344Y198819D01*
D02*
G37*
G36*
X351575Y99702D02*
Y71260D01*
X380017D01*
X378566Y76674D01*
X373362Y85688D01*
X366003Y93047D01*
X356989Y98251D01*
X351575Y99702D01*
D02*
G37*
G36*
X-1448425D02*
Y71260D01*
X-1419983D01*
X-1421434Y76674D01*
X-1426638Y85688D01*
X-1433997Y93047D01*
X-1443011Y98251D01*
X-1448425Y99702D01*
D02*
G37*
G36*
X331890Y99702D02*
X326475Y98251D01*
X317462Y93047D01*
X310102Y85688D01*
X304899Y76674D01*
X303448Y71260D01*
X331890D01*
Y99702D01*
D02*
G37*
G36*
X-1468110D02*
X-1473525Y98251D01*
X-1482538Y93047D01*
X-1489898Y85688D01*
X-1495101Y76674D01*
X-1496552Y71260D01*
X-1468110D01*
Y99702D01*
D02*
G37*
G36*
X1418046Y149764D02*
X1406757D01*
X1395853Y146842D01*
X1386076Y141198D01*
X1378094Y133215D01*
X1372449Y123439D01*
X1369528Y112534D01*
Y101245D01*
X1372449Y90341D01*
X1378094Y80564D01*
X1386076Y72582D01*
X1395853Y66938D01*
X1406757Y64016D01*
X1418046D01*
X1428950Y66938D01*
X1438727Y72582D01*
X1446709Y80564D01*
X1452354Y90341D01*
X1455276Y101245D01*
Y112534D01*
X1452354Y123439D01*
X1446709Y133215D01*
X1438727Y141198D01*
X1428950Y146842D01*
X1418046Y149764D01*
D02*
G37*
G36*
X618046D02*
X606757D01*
X595853Y146842D01*
X586076Y141198D01*
X578094Y133215D01*
X572449Y123439D01*
X569528Y112534D01*
Y101245D01*
X572449Y90341D01*
X578094Y80564D01*
X586076Y72582D01*
X595853Y66938D01*
X606757Y64016D01*
X618046D01*
X628950Y66938D01*
X638727Y72582D01*
X646709Y80564D01*
X652354Y90341D01*
X655276Y101245D01*
Y112534D01*
X652354Y123439D01*
X646709Y133215D01*
X638727Y141198D01*
X628950Y146842D01*
X618046Y149764D01*
D02*
G37*
G36*
X246656Y98819D02*
X236808D01*
X227296Y96270D01*
X218767Y91346D01*
X211804Y84382D01*
X206880Y75854D01*
X204331Y66341D01*
Y56493D01*
X206880Y46981D01*
X211804Y38452D01*
X218767Y31489D01*
X227296Y26565D01*
X236808Y24016D01*
X246656D01*
X256169Y26565D01*
X264697Y31489D01*
X271661Y38452D01*
X276585Y46981D01*
X279134Y56493D01*
Y66341D01*
X276585Y75854D01*
X271661Y84382D01*
X264697Y91346D01*
X256169Y96270D01*
X246656Y98819D01*
D02*
G37*
G36*
X-1353344D02*
X-1363192D01*
X-1372704Y96270D01*
X-1381233Y91346D01*
X-1388196Y84382D01*
X-1393120Y75854D01*
X-1395669Y66341D01*
Y56493D01*
X-1393120Y46981D01*
X-1388196Y38452D01*
X-1381233Y31489D01*
X-1372704Y26565D01*
X-1363192Y24016D01*
X-1353344D01*
X-1343831Y26565D01*
X-1335303Y31489D01*
X-1328339Y38452D01*
X-1323415Y46981D01*
X-1320866Y56493D01*
Y66341D01*
X-1323415Y75854D01*
X-1328339Y84382D01*
X-1335303Y91346D01*
X-1343831Y96270D01*
X-1353344Y98819D01*
D02*
G37*
G36*
X380017Y51575D02*
X351575D01*
Y23133D01*
X356989Y24584D01*
X366003Y29787D01*
X373362Y37147D01*
X378566Y46160D01*
X380017Y51575D01*
D02*
G37*
G36*
X-1419983D02*
X-1448425D01*
Y23133D01*
X-1443011Y24584D01*
X-1433997Y29787D01*
X-1426638Y37147D01*
X-1421434Y46160D01*
X-1419983Y51575D01*
D02*
G37*
G36*
X331890D02*
X303448D01*
X304899Y46160D01*
X310102Y37147D01*
X317462Y29787D01*
X326475Y24584D01*
X331890Y23133D01*
Y51575D01*
D02*
G37*
G36*
X-1468110D02*
X-1496552D01*
X-1495101Y46160D01*
X-1489898Y37147D01*
X-1482538Y29787D01*
X-1473525Y24584D01*
X-1468110Y23133D01*
Y51575D01*
D02*
G37*
G36*
X724800Y56496D02*
X716144D01*
X707784Y54256D01*
X700287Y49928D01*
X694167Y43807D01*
X689839Y36311D01*
X687598Y27950D01*
Y19294D01*
X689839Y10933D01*
X691080Y8783D01*
X629070Y-53227D01*
X628950Y-53158D01*
X618046Y-50236D01*
X606757D01*
X595853Y-53158D01*
X586076Y-58802D01*
X578094Y-66785D01*
X572449Y-76561D01*
X569528Y-87466D01*
Y-98755D01*
X572449Y-109659D01*
X578094Y-119436D01*
X586076Y-127418D01*
X595853Y-133062D01*
X606757Y-135984D01*
X618046D01*
X628950Y-133062D01*
X638727Y-127418D01*
X646709Y-119436D01*
X652354Y-109659D01*
X655276Y-98755D01*
Y-87466D01*
X652354Y-76561D01*
X649835Y-72199D01*
X713493Y-8541D01*
X716144Y-9252D01*
X724800D01*
X733161Y-7012D01*
X740658Y-2684D01*
X746778Y3437D01*
X751106Y10933D01*
X753346Y19294D01*
Y27950D01*
X751106Y36311D01*
X746778Y43807D01*
X740658Y49928D01*
X733161Y54256D01*
X724800Y56496D01*
D02*
G37*
G36*
X618046Y49764D02*
X606757D01*
X595853Y46842D01*
X586076Y41198D01*
X578094Y33215D01*
X572449Y23439D01*
X569528Y12534D01*
Y1245D01*
X572449Y-9659D01*
X578094Y-19436D01*
X586076Y-27418D01*
X595853Y-33062D01*
X606757Y-35984D01*
X618046D01*
X628950Y-33062D01*
X638727Y-27418D01*
X646709Y-19436D01*
X652354Y-9659D01*
X655276Y1245D01*
Y12534D01*
X652354Y23439D01*
X646709Y33215D01*
X638727Y41198D01*
X628950Y46842D01*
X618046Y49764D01*
D02*
G37*
G36*
X0Y75174D02*
X-14666Y73729D01*
X-28768Y69451D01*
X-41764Y62505D01*
X-53156Y53156D01*
X-62505Y41764D01*
X-69451Y28768D01*
X-73729Y14666D01*
X-75174Y0D01*
X-73729Y-14666D01*
X-69451Y-28768D01*
X-62505Y-41764D01*
X-53156Y-53156D01*
X-41764Y-62505D01*
X-28768Y-69451D01*
X-14666Y-73729D01*
X0Y-75174D01*
X14666Y-73729D01*
X28768Y-69451D01*
X41764Y-62505D01*
X53156Y-53156D01*
X62505Y-41764D01*
X69451Y-28768D01*
X73729Y-14666D01*
X75174Y0D01*
X73729Y14666D01*
X69451Y28768D01*
X62505Y41764D01*
X53156Y53156D01*
X41764Y62505D01*
X28768Y69451D01*
X14666Y73729D01*
X0Y75174D01*
D02*
G37*
G36*
X-826772D02*
X-841437Y73729D01*
X-855539Y69451D01*
X-868536Y62505D01*
X-879928Y53156D01*
X-889276Y41764D01*
X-896223Y28768D01*
X-900501Y14666D01*
X-901945Y0D01*
X-900501Y-14666D01*
X-896223Y-28768D01*
X-889276Y-41764D01*
X-879928Y-53156D01*
X-868536Y-62505D01*
X-855539Y-69451D01*
X-841437Y-73729D01*
X-826772Y-75174D01*
X-812106Y-73729D01*
X-798004Y-69451D01*
X-785008Y-62505D01*
X-773616Y-53156D01*
X-764267Y-41764D01*
X-757320Y-28768D01*
X-753043Y-14666D01*
X-751598Y0D01*
X-753043Y14666D01*
X-757320Y28768D01*
X-764267Y41764D01*
X-773616Y53156D01*
X-785008Y62505D01*
X-798004Y69451D01*
X-812106Y73729D01*
X-826772Y75174D01*
D02*
G37*
G36*
X346656Y-1181D02*
X336808D01*
X327296Y-3730D01*
X318767Y-8654D01*
X311804Y-15618D01*
X306880Y-24146D01*
X304331Y-33659D01*
Y-43507D01*
X306880Y-53019D01*
X311804Y-61548D01*
X318767Y-68511D01*
X327296Y-73435D01*
X336808Y-75984D01*
X346656D01*
X356169Y-73435D01*
X364697Y-68511D01*
X371661Y-61548D01*
X376585Y-53019D01*
X379134Y-43507D01*
Y-33659D01*
X376585Y-24146D01*
X371661Y-15618D01*
X364697Y-8654D01*
X356169Y-3730D01*
X346656Y-1181D01*
D02*
G37*
G36*
X246656D02*
X236808D01*
X227296Y-3730D01*
X218767Y-8654D01*
X211804Y-15618D01*
X206880Y-24146D01*
X204331Y-33659D01*
Y-43507D01*
X206880Y-53019D01*
X211804Y-61548D01*
X218767Y-68511D01*
X227296Y-73435D01*
X236808Y-75984D01*
X246656D01*
X256169Y-73435D01*
X264697Y-68511D01*
X271661Y-61548D01*
X276585Y-53019D01*
X279134Y-43507D01*
Y-33659D01*
X276585Y-24146D01*
X271661Y-15618D01*
X264697Y-8654D01*
X256169Y-3730D01*
X246656Y-1181D01*
D02*
G37*
G36*
X-1453344D02*
X-1463192D01*
X-1472704Y-3730D01*
X-1481233Y-8654D01*
X-1488196Y-15618D01*
X-1493120Y-24146D01*
X-1495669Y-33659D01*
Y-43507D01*
X-1493120Y-53019D01*
X-1488196Y-61548D01*
X-1481233Y-68511D01*
X-1472704Y-73435D01*
X-1463192Y-75984D01*
X-1453344D01*
X-1443831Y-73435D01*
X-1435303Y-68511D01*
X-1428339Y-61548D01*
X-1423415Y-53019D01*
X-1420866Y-43507D01*
Y-33659D01*
X-1423415Y-24146D01*
X-1428339Y-15618D01*
X-1435303Y-8654D01*
X-1443831Y-3730D01*
X-1453344Y-1181D01*
D02*
G37*
G36*
X346656Y-101181D02*
X336808D01*
X327296Y-103730D01*
X318767Y-108654D01*
X311804Y-115618D01*
X306880Y-124146D01*
X304331Y-133659D01*
Y-143507D01*
X306880Y-153019D01*
X311804Y-161548D01*
X318767Y-168511D01*
X327296Y-173435D01*
X336808Y-175984D01*
X346656D01*
X356169Y-173435D01*
X364697Y-168511D01*
X371661Y-161548D01*
X376585Y-153019D01*
X379134Y-143507D01*
Y-133659D01*
X376585Y-124146D01*
X371661Y-115618D01*
X364697Y-108654D01*
X356169Y-103730D01*
X346656Y-101181D01*
D02*
G37*
G36*
X-1453344D02*
X-1463192D01*
X-1472704Y-103730D01*
X-1481233Y-108654D01*
X-1488196Y-115618D01*
X-1493120Y-124146D01*
X-1495669Y-133659D01*
Y-143507D01*
X-1493120Y-153019D01*
X-1488196Y-161548D01*
X-1481233Y-168511D01*
X-1472704Y-173435D01*
X-1463192Y-175984D01*
X-1453344D01*
X-1443831Y-173435D01*
X-1435303Y-168511D01*
X-1428339Y-161548D01*
X-1423415Y-153019D01*
X-1420866Y-143507D01*
Y-133659D01*
X-1423415Y-124146D01*
X-1428339Y-115618D01*
X-1435303Y-108654D01*
X-1443831Y-103730D01*
X-1453344Y-101181D01*
D02*
G37*
G36*
Y-201181D02*
X-1463192D01*
X-1472704Y-203730D01*
X-1481233Y-208654D01*
X-1488196Y-215618D01*
X-1493120Y-224146D01*
X-1495669Y-233659D01*
Y-243507D01*
X-1493120Y-253019D01*
X-1488196Y-261548D01*
X-1481233Y-268511D01*
X-1472704Y-273435D01*
X-1463192Y-275984D01*
X-1453344D01*
X-1443831Y-273435D01*
X-1435303Y-268511D01*
X-1428339Y-261548D01*
X-1423415Y-253019D01*
X-1420866Y-243507D01*
Y-233659D01*
X-1423415Y-224146D01*
X-1428339Y-215618D01*
X-1435303Y-208654D01*
X-1443831Y-203730D01*
X-1453344Y-201181D01*
D02*
G37*
G36*
X1370021Y-185236D02*
X1354782D01*
X1340063Y-189180D01*
X1326866Y-196799D01*
X1316091Y-207575D01*
X1308472Y-220772D01*
X1304528Y-235491D01*
Y-250730D01*
X1308472Y-265449D01*
X1316091Y-278646D01*
X1326866Y-289421D01*
X1340063Y-297040D01*
X1354782Y-300984D01*
X1370021D01*
X1384740Y-297040D01*
X1397937Y-289421D01*
X1408712Y-278646D01*
X1416332Y-265449D01*
X1420276Y-250730D01*
Y-235491D01*
X1416332Y-220772D01*
X1408712Y-207575D01*
X1397937Y-196799D01*
X1384740Y-189180D01*
X1370021Y-185236D01*
D02*
G37*
G36*
X-888449Y-340441D02*
X-916165D01*
Y-368157D01*
X-888449D01*
Y-340441D01*
D02*
G37*
G36*
X813559Y-340441D02*
X785842D01*
Y-368158D01*
X813559D01*
Y-340441D01*
D02*
G37*
G36*
X766158D02*
X738441D01*
Y-368158D01*
X766158D01*
Y-340441D01*
D02*
G37*
G36*
X-1453344Y-301181D02*
X-1463192D01*
X-1472704Y-303730D01*
X-1481233Y-308654D01*
X-1488196Y-315618D01*
X-1493120Y-324146D01*
X-1495669Y-333659D01*
Y-343507D01*
X-1493120Y-353019D01*
X-1488196Y-361548D01*
X-1481233Y-368511D01*
X-1472704Y-373435D01*
X-1463192Y-375984D01*
X-1453344D01*
X-1443831Y-373435D01*
X-1435303Y-368511D01*
X-1428339Y-361548D01*
X-1423415Y-353019D01*
X-1420866Y-343507D01*
Y-333659D01*
X-1423415Y-324146D01*
X-1428339Y-315618D01*
X-1435303Y-308654D01*
X-1443831Y-303730D01*
X-1453344Y-301181D01*
D02*
G37*
G36*
X-1353344Y298819D02*
X-1363192D01*
X-1372704Y296270D01*
X-1381233Y291346D01*
X-1388196Y284382D01*
X-1393120Y275854D01*
X-1395669Y266341D01*
Y256493D01*
X-1393120Y246981D01*
X-1388196Y238452D01*
X-1381233Y231489D01*
X-1372704Y226565D01*
X-1363192Y224016D01*
X-1353344D01*
X-1343831Y226565D01*
X-1343484Y226765D01*
X-842790Y-273930D01*
Y-340441D01*
X-868764D01*
Y-378000D01*
Y-415559D01*
X-841047D01*
X-839021Y-417881D01*
X-838675Y-418399D01*
X-803895Y-453179D01*
X-806960Y-456243D01*
X-811625Y-464323D01*
X-814039Y-473335D01*
Y-482664D01*
X-811625Y-491676D01*
X-806960Y-499756D01*
X-800363Y-506353D01*
X-792283Y-511018D01*
X-783271Y-513433D01*
X-773942D01*
X-764930Y-511018D01*
X-756850Y-506353D01*
X-750253Y-499756D01*
X-745588Y-491676D01*
X-743173Y-482664D01*
Y-473335D01*
X-745588Y-464323D01*
X-750253Y-456243D01*
X-756850Y-449646D01*
X-764930Y-444981D01*
X-773942Y-442567D01*
X-775483D01*
X-776921Y-440415D01*
X-814691Y-402645D01*
Y-396366D01*
X-809691Y-395026D01*
X-806960Y-399756D01*
X-800363Y-406353D01*
X-792283Y-411018D01*
X-783271Y-413433D01*
X-773942D01*
X-764930Y-411018D01*
X-756850Y-406353D01*
X-750253Y-399756D01*
X-745588Y-391676D01*
X-743173Y-382664D01*
Y-373335D01*
X-745588Y-364323D01*
X-750253Y-356243D01*
X-756850Y-349646D01*
X-764930Y-344981D01*
X-773942Y-342567D01*
X-783271D01*
X-792283Y-344981D01*
X-800363Y-349646D01*
X-806960Y-356243D01*
X-809691Y-360974D01*
X-814691Y-359634D01*
Y-268110D01*
X-815760Y-262734D01*
X-818806Y-258176D01*
X-1323615Y246634D01*
X-1323415Y246981D01*
X-1320866Y256493D01*
Y266341D01*
X-1323415Y275854D01*
X-1328339Y284382D01*
X-1335303Y291346D01*
X-1343831Y296270D01*
X-1353344Y298819D01*
D02*
G37*
G36*
X880665Y-342567D02*
X871335D01*
X862323Y-344982D01*
X854244Y-349647D01*
X847647Y-356244D01*
X842982Y-364323D01*
X840567Y-373335D01*
Y-382665D01*
X842982Y-391677D01*
X847647Y-399756D01*
X854244Y-406353D01*
X862323Y-411018D01*
X871335Y-413433D01*
X880665D01*
X889677Y-411018D01*
X897756Y-406353D01*
X904353Y-399756D01*
X909018Y-391677D01*
X911433Y-382665D01*
Y-373335D01*
X909018Y-364323D01*
X904353Y-356244D01*
X897756Y-349647D01*
X889677Y-344982D01*
X880665Y-342567D01*
D02*
G37*
G36*
X-888449Y-387842D02*
X-916165D01*
Y-415559D01*
X-888449D01*
Y-387842D01*
D02*
G37*
G36*
X813559Y-387842D02*
X785842D01*
Y-415559D01*
X813559D01*
Y-387842D01*
D02*
G37*
G36*
X766158D02*
X738441D01*
Y-415559D01*
X766158D01*
Y-387842D01*
D02*
G37*
G36*
X-1453344Y-401181D02*
X-1463192D01*
X-1472704Y-403730D01*
X-1481233Y-408654D01*
X-1488196Y-415618D01*
X-1493120Y-424146D01*
X-1495669Y-433659D01*
Y-443507D01*
X-1493120Y-453019D01*
X-1488196Y-461548D01*
X-1481233Y-468511D01*
X-1472704Y-473435D01*
X-1463192Y-475984D01*
X-1453344D01*
X-1443831Y-473435D01*
X-1435303Y-468511D01*
X-1428339Y-461548D01*
X-1423415Y-453019D01*
X-1420866Y-443507D01*
Y-433659D01*
X-1423415Y-424146D01*
X-1428339Y-415618D01*
X-1435303Y-408654D01*
X-1443831Y-403730D01*
X-1453344Y-401181D01*
D02*
G37*
G36*
X880665Y-442567D02*
X871335D01*
X862323Y-444982D01*
X854244Y-449647D01*
X847647Y-456244D01*
X842982Y-464323D01*
X840567Y-473335D01*
Y-482665D01*
X842870Y-491261D01*
X816637Y-517494D01*
X784828D01*
X784170Y-512494D01*
X789677Y-511018D01*
X797756Y-506353D01*
X804353Y-499756D01*
X809018Y-491677D01*
X811433Y-482665D01*
Y-473335D01*
X809018Y-464323D01*
X804353Y-456244D01*
X797756Y-449647D01*
X789677Y-444982D01*
X780665Y-442567D01*
X771335D01*
X762323Y-444982D01*
X754244Y-449647D01*
X747647Y-456244D01*
X742982Y-464323D01*
X740567Y-473335D01*
Y-482665D01*
X742982Y-491677D01*
X747647Y-499756D01*
X754244Y-506353D01*
X762323Y-511018D01*
X767830Y-512494D01*
X767172Y-517494D01*
X756757D01*
X751381Y-518563D01*
X746823Y-521609D01*
X643898Y-624533D01*
X376689D01*
X376585Y-624146D01*
X371661Y-615618D01*
X364697Y-608654D01*
X356169Y-603730D01*
X346656Y-601181D01*
X336808D01*
X327296Y-603730D01*
X318767Y-608654D01*
X311804Y-615618D01*
X306880Y-624146D01*
X304331Y-633659D01*
Y-643507D01*
X306880Y-653019D01*
X311804Y-661548D01*
X318767Y-668511D01*
X327296Y-673435D01*
X336808Y-675984D01*
X346656D01*
X356169Y-673435D01*
X364697Y-668511D01*
X371661Y-661548D01*
X376585Y-653019D01*
X376689Y-652632D01*
X649718D01*
X655094Y-651563D01*
X659652Y-648517D01*
X736085Y-572084D01*
X740567Y-574673D01*
Y-582665D01*
X742982Y-591677D01*
X747647Y-599756D01*
X754244Y-606353D01*
X762323Y-611018D01*
X767830Y-612494D01*
X767172Y-617494D01*
X756757D01*
X751381Y-618563D01*
X746823Y-621609D01*
X643898Y-724533D01*
X376689D01*
X376585Y-724146D01*
X371661Y-715618D01*
X364697Y-708654D01*
X356169Y-703730D01*
X346656Y-701181D01*
X336808D01*
X327296Y-703730D01*
X318767Y-708654D01*
X311804Y-715618D01*
X306880Y-724146D01*
X304331Y-733659D01*
Y-743507D01*
X306880Y-753019D01*
X311804Y-761548D01*
X318767Y-768511D01*
X327296Y-773435D01*
X336808Y-775984D01*
X346656D01*
X356169Y-773435D01*
X364697Y-768511D01*
X371661Y-761548D01*
X376585Y-753019D01*
X376689Y-752632D01*
X649718D01*
X655094Y-751563D01*
X659652Y-748517D01*
X736085Y-672084D01*
X740567Y-674673D01*
Y-682665D01*
X742982Y-691677D01*
X747647Y-699756D01*
X754244Y-706353D01*
X762323Y-711018D01*
X767830Y-712494D01*
X767172Y-717494D01*
X756757D01*
X751381Y-718563D01*
X746823Y-721609D01*
X643898Y-824533D01*
X376689D01*
X376585Y-824146D01*
X371661Y-815618D01*
X364697Y-808654D01*
X356169Y-803730D01*
X346656Y-801181D01*
X336808D01*
X327296Y-803730D01*
X318767Y-808654D01*
X311804Y-815618D01*
X306880Y-824146D01*
X304331Y-833659D01*
Y-843507D01*
X306880Y-853019D01*
X311804Y-861548D01*
X318767Y-868511D01*
X327296Y-873435D01*
X336808Y-875984D01*
X346656D01*
X356169Y-873435D01*
X364697Y-868511D01*
X371661Y-861548D01*
X376585Y-853019D01*
X376689Y-852632D01*
X649718D01*
X655094Y-851563D01*
X659652Y-848517D01*
X736085Y-772084D01*
X740567Y-774673D01*
Y-782665D01*
X742982Y-791677D01*
X747647Y-799756D01*
X754244Y-806353D01*
X762323Y-811018D01*
X767830Y-812494D01*
X767172Y-817494D01*
X756757D01*
X751381Y-818563D01*
X746823Y-821609D01*
X643898Y-924533D01*
X376689D01*
X376585Y-924146D01*
X371661Y-915618D01*
X364697Y-908654D01*
X356169Y-903730D01*
X346656Y-901181D01*
X336808D01*
X327296Y-903730D01*
X318767Y-908654D01*
X311804Y-915618D01*
X306880Y-924146D01*
X304331Y-933659D01*
Y-943507D01*
X306880Y-953019D01*
X311804Y-961548D01*
X318767Y-968511D01*
X327296Y-973435D01*
X336808Y-975984D01*
X346656D01*
X356169Y-973435D01*
X364697Y-968511D01*
X371661Y-961548D01*
X376585Y-953019D01*
X376689Y-952632D01*
X649718D01*
X655094Y-951563D01*
X659652Y-948517D01*
X736085Y-872084D01*
X740567Y-874673D01*
Y-882665D01*
X742982Y-891677D01*
X747647Y-899756D01*
X754244Y-906353D01*
X762323Y-911018D01*
X771335Y-913433D01*
X780665D01*
X789677Y-911018D01*
X797756Y-906353D01*
X804353Y-899756D01*
X809018Y-891677D01*
X811433Y-882665D01*
Y-873335D01*
X809018Y-864323D01*
X804353Y-856244D01*
X798702Y-850593D01*
X800041Y-845593D01*
X822457D01*
X827833Y-844523D01*
X832391Y-841478D01*
X862739Y-811130D01*
X871335Y-813433D01*
X880665D01*
X889677Y-811018D01*
X897756Y-806353D01*
X904353Y-799756D01*
X909018Y-791677D01*
X911433Y-782665D01*
Y-773335D01*
X909018Y-764323D01*
X904353Y-756244D01*
X897756Y-749647D01*
X889677Y-744982D01*
X880665Y-742567D01*
X871335D01*
X862323Y-744982D01*
X854244Y-749647D01*
X847647Y-756244D01*
X842982Y-764323D01*
X840567Y-773335D01*
Y-782665D01*
X842870Y-791261D01*
X816637Y-817494D01*
X784828D01*
X784170Y-812494D01*
X789677Y-811018D01*
X797756Y-806353D01*
X804353Y-799756D01*
X809018Y-791677D01*
X811433Y-782665D01*
Y-773335D01*
X809018Y-764323D01*
X804353Y-756244D01*
X798702Y-750593D01*
X800041Y-745593D01*
X822457D01*
X827833Y-744523D01*
X832391Y-741478D01*
X862739Y-711130D01*
X871335Y-713433D01*
X880665D01*
X889677Y-711018D01*
X897756Y-706353D01*
X904353Y-699756D01*
X909018Y-691677D01*
X911433Y-682665D01*
Y-673335D01*
X909018Y-664323D01*
X904353Y-656244D01*
X897756Y-649647D01*
X889677Y-644982D01*
X880665Y-642567D01*
X871335D01*
X862323Y-644982D01*
X854244Y-649647D01*
X847647Y-656244D01*
X842982Y-664323D01*
X840567Y-673335D01*
Y-682665D01*
X842870Y-691261D01*
X816637Y-717494D01*
X784828D01*
X784170Y-712494D01*
X789677Y-711018D01*
X797756Y-706353D01*
X804353Y-699756D01*
X809018Y-691677D01*
X811433Y-682665D01*
Y-673335D01*
X809018Y-664323D01*
X804353Y-656244D01*
X798702Y-650593D01*
X800041Y-645593D01*
X822457D01*
X827833Y-644523D01*
X832391Y-641478D01*
X862739Y-611130D01*
X871335Y-613433D01*
X880665D01*
X889677Y-611018D01*
X897756Y-606353D01*
X904353Y-599756D01*
X909018Y-591677D01*
X911433Y-582665D01*
Y-573335D01*
X909018Y-564323D01*
X904353Y-556244D01*
X897756Y-549647D01*
X889677Y-544982D01*
X880665Y-542567D01*
X871335D01*
X862323Y-544982D01*
X854244Y-549647D01*
X847647Y-556244D01*
X842982Y-564323D01*
X840567Y-573335D01*
Y-582665D01*
X842870Y-591261D01*
X816637Y-617494D01*
X784828D01*
X784170Y-612494D01*
X789677Y-611018D01*
X797756Y-606353D01*
X804353Y-599756D01*
X809018Y-591677D01*
X811433Y-582665D01*
Y-573335D01*
X809018Y-564323D01*
X804353Y-556244D01*
X798702Y-550593D01*
X800041Y-545593D01*
X822457D01*
X827833Y-544523D01*
X832391Y-541478D01*
X862739Y-511130D01*
X871335Y-513433D01*
X880665D01*
X889677Y-511018D01*
X897756Y-506353D01*
X904353Y-499756D01*
X909018Y-491677D01*
X911433Y-482665D01*
Y-473335D01*
X909018Y-464323D01*
X904353Y-456244D01*
X897756Y-449647D01*
X889677Y-444982D01*
X880665Y-442567D01*
D02*
G37*
G36*
X1289370Y-510859D02*
Y-541339D01*
X1319850D01*
X1318196Y-535164D01*
X1312733Y-525702D01*
X1305007Y-517976D01*
X1295544Y-512513D01*
X1289370Y-510859D01*
D02*
G37*
G36*
X1269685D02*
X1263511Y-512513D01*
X1254048Y-517976D01*
X1246322Y-525702D01*
X1240860Y-535164D01*
X1239205Y-541339D01*
X1269685D01*
Y-510859D01*
D02*
G37*
G36*
X1418046Y-50236D02*
X1406757D01*
X1395853Y-53158D01*
X1386076Y-58802D01*
X1378094Y-66785D01*
X1372449Y-76561D01*
X1369528Y-87466D01*
Y-98755D01*
X1372449Y-109659D01*
X1378094Y-119436D01*
X1386076Y-127418D01*
X1395853Y-133062D01*
X1406757Y-135984D01*
X1409344D01*
X1409926Y-138912D01*
X1412972Y-143470D01*
X1484966Y-215465D01*
Y-505007D01*
X1419791Y-570182D01*
X1415790Y-567112D01*
X1416215Y-566377D01*
X1418898Y-556364D01*
Y-545998D01*
X1416215Y-535985D01*
X1411031Y-527007D01*
X1403701Y-519677D01*
X1394724Y-514494D01*
X1384711Y-511811D01*
X1374344D01*
X1364331Y-514494D01*
X1355354Y-519677D01*
X1348024Y-527007D01*
X1342841Y-535985D01*
X1340158Y-545998D01*
Y-556364D01*
X1342841Y-566377D01*
X1348024Y-575355D01*
X1355354Y-582685D01*
X1364331Y-587868D01*
X1374344Y-590551D01*
X1384711D01*
X1394724Y-587868D01*
X1395458Y-587444D01*
X1398529Y-591445D01*
X1367212Y-622761D01*
X1324803D01*
X1319427Y-623831D01*
X1314869Y-626876D01*
X1279436Y-662310D01*
X1276390Y-666868D01*
X1275321Y-672244D01*
Y-764764D01*
X1276390Y-770140D01*
X1279436Y-774698D01*
X1318806Y-814068D01*
X1323364Y-817114D01*
X1328740Y-818183D01*
X1393792D01*
X1426846Y-851238D01*
X1425153Y-854171D01*
X1422094Y-865583D01*
Y-877399D01*
X1425153Y-888812D01*
X1431060Y-899045D01*
X1439415Y-907399D01*
X1449648Y-913307D01*
X1461061Y-916365D01*
X1472876D01*
X1484289Y-913307D01*
X1494522Y-907399D01*
X1502877Y-899045D01*
X1508784Y-888812D01*
X1511842Y-877399D01*
Y-865583D01*
X1508784Y-854171D01*
X1502877Y-843938D01*
X1494522Y-835583D01*
X1484289Y-829675D01*
X1472876Y-826617D01*
X1461061D01*
X1449648Y-829675D01*
X1446715Y-831369D01*
X1409546Y-794199D01*
X1404988Y-791154D01*
X1399611Y-790084D01*
X1334560D01*
X1303420Y-758944D01*
Y-678064D01*
X1330623Y-650861D01*
X1373032D01*
X1378408Y-649791D01*
X1382966Y-646745D01*
X1508950Y-520761D01*
X1511996Y-516203D01*
X1513065Y-510827D01*
Y-209645D01*
X1511996Y-204269D01*
X1508950Y-199711D01*
X1440799Y-131560D01*
X1441228Y-124917D01*
X1446709Y-119436D01*
X1452354Y-109659D01*
X1455276Y-98755D01*
Y-87466D01*
X1452354Y-76561D01*
X1446709Y-66785D01*
X1438727Y-58802D01*
X1428950Y-53158D01*
X1418046Y-50236D01*
D02*
G37*
G36*
X-1453344Y-501181D02*
X-1463192D01*
X-1472704Y-503730D01*
X-1481233Y-508654D01*
X-1488196Y-515618D01*
X-1493120Y-524146D01*
X-1495669Y-533659D01*
Y-543507D01*
X-1493120Y-553019D01*
X-1488196Y-561548D01*
X-1481233Y-568511D01*
X-1472704Y-573435D01*
X-1463192Y-575984D01*
X-1453344D01*
X-1443831Y-573435D01*
X-1435303Y-568511D01*
X-1428339Y-561548D01*
X-1423415Y-553019D01*
X-1420866Y-543507D01*
Y-533659D01*
X-1423415Y-524146D01*
X-1428339Y-515618D01*
X-1435303Y-508654D01*
X-1443831Y-503730D01*
X-1453344Y-501181D01*
D02*
G37*
G36*
X1218898Y-511811D02*
X1140158D01*
Y-590551D01*
X1218898D01*
Y-511811D01*
D02*
G37*
G36*
X1319850Y-561024D02*
X1289370D01*
Y-591504D01*
X1295544Y-589849D01*
X1305007Y-584386D01*
X1312733Y-576660D01*
X1318196Y-567198D01*
X1319850Y-561024D01*
D02*
G37*
G36*
X1269685D02*
X1239205D01*
X1240860Y-567198D01*
X1246322Y-576660D01*
X1254048Y-584386D01*
X1263511Y-589849D01*
X1269685Y-591504D01*
Y-561024D01*
D02*
G37*
G36*
X-1353344Y198819D02*
X-1363192D01*
X-1372704Y196270D01*
X-1381233Y191346D01*
X-1388196Y184382D01*
X-1393120Y175854D01*
X-1395669Y166341D01*
Y156493D01*
X-1393120Y146981D01*
X-1388196Y138452D01*
X-1381233Y131489D01*
X-1372704Y126565D01*
X-1363192Y124016D01*
X-1353344D01*
X-1343831Y126565D01*
X-1343484Y126765D01*
X-1029797Y-186922D01*
Y-436024D01*
X-1028728Y-441400D01*
X-1025682Y-445958D01*
X-932178Y-539462D01*
X-927620Y-542508D01*
X-922244Y-543577D01*
X-899851D01*
X-898511Y-548577D01*
X-900363Y-549646D01*
X-906960Y-556243D01*
X-911625Y-564323D01*
X-914039Y-573335D01*
Y-582664D01*
X-911625Y-591676D01*
X-906960Y-599756D01*
X-900765Y-605951D01*
X-901143Y-609264D01*
X-901595Y-610951D01*
X-970558D01*
X-1057801Y-523708D01*
Y-273622D01*
X-1058870Y-268245D01*
X-1061916Y-263688D01*
X-1296955Y-28648D01*
X-1301513Y-25603D01*
X-1306890Y-24533D01*
X-1323311D01*
X-1323415Y-24146D01*
X-1328339Y-15618D01*
X-1335303Y-8654D01*
X-1343831Y-3730D01*
X-1353344Y-1181D01*
X-1363192D01*
X-1372704Y-3730D01*
X-1381233Y-8654D01*
X-1388196Y-15618D01*
X-1393120Y-24146D01*
X-1395669Y-33659D01*
Y-43507D01*
X-1393120Y-53019D01*
X-1388196Y-61548D01*
X-1381233Y-68511D01*
X-1372704Y-73435D01*
X-1363192Y-75984D01*
X-1353344D01*
X-1343831Y-73435D01*
X-1335303Y-68511D01*
X-1328339Y-61548D01*
X-1323415Y-53019D01*
X-1323311Y-52632D01*
X-1312709D01*
X-1085900Y-279442D01*
Y-529528D01*
X-1084830Y-534904D01*
X-1081785Y-539462D01*
X-986312Y-634934D01*
X-981755Y-637980D01*
X-976378Y-639049D01*
X-889463D01*
X-888805Y-644049D01*
X-892283Y-644981D01*
X-900363Y-649646D01*
X-906960Y-656243D01*
X-911625Y-664323D01*
X-914039Y-673335D01*
Y-682664D01*
X-911625Y-691676D01*
X-906960Y-699756D01*
X-900363Y-706353D01*
X-898673Y-707328D01*
X-900013Y-712328D01*
X-969574D01*
X-1112919Y-568984D01*
Y-324803D01*
X-1113988Y-319427D01*
X-1117034Y-314869D01*
X-1301089Y-130814D01*
X-1305647Y-127768D01*
X-1311024Y-126698D01*
X-1322731D01*
X-1323415Y-124146D01*
X-1328339Y-115618D01*
X-1335303Y-108654D01*
X-1343831Y-103730D01*
X-1353344Y-101181D01*
X-1363192D01*
X-1372704Y-103730D01*
X-1381233Y-108654D01*
X-1388196Y-115618D01*
X-1393120Y-124146D01*
X-1395669Y-133659D01*
Y-143507D01*
X-1393120Y-153019D01*
X-1388196Y-161548D01*
X-1381233Y-168511D01*
X-1372704Y-173435D01*
X-1363192Y-175984D01*
X-1353344D01*
X-1343831Y-173435D01*
X-1335303Y-168511D01*
X-1328339Y-161548D01*
X-1324442Y-154798D01*
X-1316843D01*
X-1141018Y-330623D01*
Y-574803D01*
X-1139948Y-580180D01*
X-1136903Y-584738D01*
X-985328Y-736312D01*
X-980770Y-739358D01*
X-975394Y-740428D01*
X-893936D01*
X-893070Y-742814D01*
X-893056Y-745428D01*
X-900363Y-749646D01*
X-906960Y-756243D01*
X-911625Y-764323D01*
X-914039Y-773335D01*
Y-782664D01*
X-911625Y-791676D01*
X-906960Y-799756D01*
X-900363Y-806353D01*
X-897991Y-807722D01*
X-899331Y-812722D01*
X-967606D01*
X-1155242Y-625086D01*
Y-427559D01*
X-1156311Y-422183D01*
X-1159357Y-417625D01*
X-1323615Y-253366D01*
X-1323415Y-253019D01*
X-1320866Y-243507D01*
Y-233659D01*
X-1323415Y-224146D01*
X-1328339Y-215618D01*
X-1335303Y-208654D01*
X-1343831Y-203730D01*
X-1353344Y-201181D01*
X-1363192D01*
X-1372704Y-203730D01*
X-1381233Y-208654D01*
X-1388196Y-215618D01*
X-1393120Y-224146D01*
X-1395669Y-233659D01*
Y-243507D01*
X-1393120Y-253019D01*
X-1388196Y-261548D01*
X-1381233Y-268511D01*
X-1372704Y-273435D01*
X-1363192Y-275984D01*
X-1353344D01*
X-1343831Y-273435D01*
X-1343484Y-273235D01*
X-1183341Y-433379D01*
Y-630905D01*
X-1182271Y-636282D01*
X-1179226Y-640840D01*
X-983360Y-836706D01*
X-978802Y-839752D01*
X-973425Y-840821D01*
X-895077D01*
X-893737Y-845821D01*
X-900363Y-849646D01*
X-906960Y-856243D01*
X-911625Y-864323D01*
X-914039Y-873335D01*
Y-882664D01*
X-911625Y-891676D01*
X-906960Y-899756D01*
X-900363Y-906353D01*
X-895605Y-909100D01*
X-896945Y-914100D01*
X-964653D01*
X-1194521Y-684232D01*
Y-488280D01*
X-1195591Y-482903D01*
X-1198636Y-478345D01*
X-1323615Y-353366D01*
X-1323415Y-353019D01*
X-1320866Y-343507D01*
Y-333659D01*
X-1323415Y-324146D01*
X-1328339Y-315618D01*
X-1335303Y-308654D01*
X-1343831Y-303730D01*
X-1353344Y-301181D01*
X-1363192D01*
X-1372704Y-303730D01*
X-1381233Y-308654D01*
X-1388196Y-315618D01*
X-1393120Y-324146D01*
X-1395669Y-333659D01*
Y-343507D01*
X-1393120Y-353019D01*
X-1388196Y-361548D01*
X-1381233Y-368511D01*
X-1372704Y-373435D01*
X-1363192Y-375984D01*
X-1353344D01*
X-1343831Y-373435D01*
X-1343484Y-373235D01*
X-1222620Y-494099D01*
Y-690052D01*
X-1221551Y-695428D01*
X-1218505Y-699986D01*
X-980407Y-938084D01*
X-975849Y-941130D01*
X-970472Y-942199D01*
X-897464D01*
X-896124Y-947199D01*
X-900363Y-949646D01*
X-906960Y-956243D01*
X-911625Y-964323D01*
X-914039Y-973335D01*
Y-982664D01*
X-911625Y-991676D01*
X-906960Y-999756D01*
X-900363Y-1006353D01*
X-893218Y-1010478D01*
X-893688Y-1014548D01*
X-894059Y-1015478D01*
X-958687D01*
X-1239888Y-734277D01*
Y-542913D01*
X-1240957Y-537537D01*
X-1244003Y-532979D01*
X-1323615Y-453366D01*
X-1323415Y-453019D01*
X-1320866Y-443507D01*
Y-433659D01*
X-1323415Y-424146D01*
X-1328339Y-415618D01*
X-1335303Y-408654D01*
X-1343831Y-403730D01*
X-1353344Y-401181D01*
X-1363192D01*
X-1372704Y-403730D01*
X-1381233Y-408654D01*
X-1388196Y-415618D01*
X-1393120Y-424146D01*
X-1395669Y-433659D01*
Y-443507D01*
X-1393120Y-453019D01*
X-1388196Y-461548D01*
X-1381233Y-468511D01*
X-1372704Y-473435D01*
X-1363192Y-475984D01*
X-1353344D01*
X-1343831Y-473435D01*
X-1343484Y-473235D01*
X-1267986Y-548733D01*
Y-740097D01*
X-1266917Y-745473D01*
X-1263871Y-750031D01*
X-974441Y-1039462D01*
X-969883Y-1042508D01*
X-964506Y-1043577D01*
X-899851D01*
X-898511Y-1048577D01*
X-900363Y-1049646D01*
X-906960Y-1056243D01*
X-911625Y-1064323D01*
X-914039Y-1073335D01*
Y-1082665D01*
X-911625Y-1091676D01*
X-906960Y-1099756D01*
X-900363Y-1106353D01*
X-894241Y-1109888D01*
X-895581Y-1114888D01*
X-937094D01*
X-1278273Y-773708D01*
Y-604528D01*
X-1279343Y-599151D01*
X-1282388Y-594593D01*
X-1323615Y-553366D01*
X-1323415Y-553019D01*
X-1320866Y-543507D01*
Y-533659D01*
X-1323415Y-524146D01*
X-1328339Y-515618D01*
X-1335303Y-508654D01*
X-1343831Y-503730D01*
X-1353344Y-501181D01*
X-1363192D01*
X-1372704Y-503730D01*
X-1381233Y-508654D01*
X-1388196Y-515618D01*
X-1393120Y-524146D01*
X-1395669Y-533659D01*
Y-543507D01*
X-1393120Y-553019D01*
X-1388196Y-561548D01*
X-1381233Y-568511D01*
X-1372704Y-573435D01*
X-1363192Y-575984D01*
X-1353344D01*
X-1343831Y-573435D01*
X-1343484Y-573235D01*
X-1306372Y-610347D01*
Y-779528D01*
X-1305303Y-784904D01*
X-1302257Y-789462D01*
X-952848Y-1138871D01*
X-948290Y-1141917D01*
X-942913Y-1142986D01*
X-898828D01*
X-897488Y-1147986D01*
X-900363Y-1149646D01*
X-906960Y-1156243D01*
X-911625Y-1164323D01*
X-914039Y-1173335D01*
Y-1182665D01*
X-911625Y-1191676D01*
X-906960Y-1199756D01*
X-900363Y-1206353D01*
X-892283Y-1211018D01*
X-883271Y-1213433D01*
X-873942D01*
X-864930Y-1211018D01*
X-856850Y-1206353D01*
X-850253Y-1199756D01*
X-845588Y-1191676D01*
X-843173Y-1182665D01*
Y-1173335D01*
X-845588Y-1164323D01*
X-850253Y-1156243D01*
X-856850Y-1149646D01*
X-859725Y-1147986D01*
X-858385Y-1142986D01*
X-833489D01*
X-811736Y-1164739D01*
X-814039Y-1173335D01*
Y-1182665D01*
X-811625Y-1191676D01*
X-806960Y-1199756D01*
X-800363Y-1206353D01*
X-792283Y-1211018D01*
X-783271Y-1213433D01*
X-773942D01*
X-764930Y-1211018D01*
X-756850Y-1206353D01*
X-750253Y-1199756D01*
X-745588Y-1191676D01*
X-743173Y-1182665D01*
Y-1173335D01*
X-745588Y-1164323D01*
X-750253Y-1156243D01*
X-756850Y-1149646D01*
X-764930Y-1144981D01*
X-773942Y-1142567D01*
X-783271D01*
X-791867Y-1144870D01*
X-817735Y-1119003D01*
X-822293Y-1115957D01*
X-827669Y-1114888D01*
X-861632D01*
X-862972Y-1109888D01*
X-856850Y-1106353D01*
X-850253Y-1099756D01*
X-845588Y-1091676D01*
X-843173Y-1082665D01*
Y-1073335D01*
X-845588Y-1064323D01*
X-850253Y-1056243D01*
X-856850Y-1049646D01*
X-858702Y-1048577D01*
X-857362Y-1043577D01*
X-832898D01*
X-811736Y-1064739D01*
X-814039Y-1073335D01*
Y-1082665D01*
X-811625Y-1091676D01*
X-806960Y-1099756D01*
X-800363Y-1106353D01*
X-792283Y-1111018D01*
X-783271Y-1113433D01*
X-773942D01*
X-764930Y-1111018D01*
X-756850Y-1106353D01*
X-750253Y-1099756D01*
X-745588Y-1091676D01*
X-743173Y-1082665D01*
Y-1073335D01*
X-745588Y-1064323D01*
X-750253Y-1056243D01*
X-756850Y-1049646D01*
X-764930Y-1044981D01*
X-773942Y-1042567D01*
X-783271D01*
X-791867Y-1044870D01*
X-817144Y-1019593D01*
X-821702Y-1016548D01*
X-827078Y-1015478D01*
X-863154D01*
X-863524Y-1014548D01*
X-863995Y-1010478D01*
X-856850Y-1006353D01*
X-850253Y-999756D01*
X-845588Y-991676D01*
X-843173Y-982664D01*
Y-973335D01*
X-845588Y-964323D01*
X-850253Y-956243D01*
X-856850Y-949646D01*
X-861088Y-947199D01*
X-859749Y-942199D01*
X-834276D01*
X-811736Y-964739D01*
X-814039Y-973335D01*
Y-982664D01*
X-811625Y-991676D01*
X-806960Y-999756D01*
X-800363Y-1006353D01*
X-792283Y-1011018D01*
X-783271Y-1013433D01*
X-773942D01*
X-764930Y-1011018D01*
X-756850Y-1006353D01*
X-750253Y-999756D01*
X-745588Y-991676D01*
X-743173Y-982664D01*
Y-973335D01*
X-745588Y-964323D01*
X-750253Y-956243D01*
X-756850Y-949646D01*
X-764930Y-944981D01*
X-773942Y-942567D01*
X-783271D01*
X-791867Y-944870D01*
X-818522Y-918215D01*
X-823080Y-915170D01*
X-828456Y-914100D01*
X-860268D01*
X-861608Y-909100D01*
X-856850Y-906353D01*
X-850253Y-899756D01*
X-845588Y-891676D01*
X-843173Y-882664D01*
Y-873335D01*
X-845588Y-864323D01*
X-850253Y-856243D01*
X-856850Y-849646D01*
X-863475Y-845821D01*
X-862135Y-840821D01*
X-835654D01*
X-811736Y-864739D01*
X-814039Y-873335D01*
Y-882664D01*
X-811625Y-891676D01*
X-806960Y-899756D01*
X-800363Y-906353D01*
X-792283Y-911018D01*
X-783271Y-913433D01*
X-773942D01*
X-764930Y-911018D01*
X-756850Y-906353D01*
X-750253Y-899756D01*
X-745588Y-891676D01*
X-743173Y-882664D01*
Y-873335D01*
X-745588Y-864323D01*
X-750253Y-856243D01*
X-756850Y-849646D01*
X-764930Y-844981D01*
X-773942Y-842567D01*
X-783271D01*
X-791867Y-844870D01*
X-819900Y-816837D01*
X-824458Y-813792D01*
X-829834Y-812722D01*
X-857881D01*
X-859221Y-807722D01*
X-856850Y-806353D01*
X-850253Y-799756D01*
X-845588Y-791676D01*
X-843173Y-782664D01*
Y-773335D01*
X-845588Y-764323D01*
X-850253Y-756243D01*
X-856850Y-749646D01*
X-864157Y-745428D01*
X-864143Y-742814D01*
X-863276Y-740428D01*
X-836048D01*
X-811736Y-764739D01*
X-814039Y-773335D01*
Y-782664D01*
X-811625Y-791676D01*
X-806960Y-799756D01*
X-800363Y-806353D01*
X-792283Y-811018D01*
X-783271Y-813433D01*
X-773942D01*
X-764930Y-811018D01*
X-756850Y-806353D01*
X-750253Y-799756D01*
X-745588Y-791676D01*
X-743173Y-782664D01*
Y-773335D01*
X-745588Y-764323D01*
X-750253Y-756243D01*
X-756850Y-749646D01*
X-764930Y-744981D01*
X-773942Y-742567D01*
X-783271D01*
X-791867Y-744870D01*
X-820293Y-716443D01*
X-824851Y-713398D01*
X-830228Y-712328D01*
X-857200D01*
X-858539Y-707328D01*
X-856850Y-706353D01*
X-850253Y-699756D01*
X-845588Y-691676D01*
X-843173Y-682664D01*
Y-673335D01*
X-845588Y-664323D01*
X-850253Y-656243D01*
X-856850Y-649646D01*
X-864930Y-644981D01*
X-868408Y-644049D01*
X-867749Y-639049D01*
X-837426D01*
X-811736Y-664739D01*
X-814039Y-673335D01*
Y-682664D01*
X-811625Y-691676D01*
X-806960Y-699756D01*
X-800363Y-706353D01*
X-792283Y-711018D01*
X-783271Y-713433D01*
X-773942D01*
X-764930Y-711018D01*
X-756850Y-706353D01*
X-750253Y-699756D01*
X-745588Y-691676D01*
X-743173Y-682664D01*
Y-673335D01*
X-745588Y-664323D01*
X-750253Y-656243D01*
X-756850Y-649646D01*
X-764930Y-644981D01*
X-773942Y-642567D01*
X-783271D01*
X-791867Y-644870D01*
X-821672Y-615066D01*
X-826230Y-612020D01*
X-831606Y-610951D01*
X-855618D01*
X-856070Y-609264D01*
X-856447Y-605951D01*
X-850253Y-599756D01*
X-845588Y-591676D01*
X-843173Y-582664D01*
Y-573335D01*
X-845588Y-564323D01*
X-850253Y-556243D01*
X-856850Y-549646D01*
X-858702Y-548577D01*
X-857362Y-543577D01*
X-832898D01*
X-811736Y-564739D01*
X-814039Y-573335D01*
Y-582664D01*
X-811625Y-591676D01*
X-806960Y-599756D01*
X-800363Y-606353D01*
X-792283Y-611018D01*
X-783271Y-613433D01*
X-773942D01*
X-764930Y-611018D01*
X-756850Y-606353D01*
X-750253Y-599756D01*
X-745588Y-591676D01*
X-743173Y-582664D01*
Y-573335D01*
X-745588Y-564323D01*
X-750253Y-556243D01*
X-756850Y-549646D01*
X-764930Y-544981D01*
X-773942Y-542567D01*
X-783271D01*
X-791867Y-544870D01*
X-817144Y-519593D01*
X-821702Y-516548D01*
X-827078Y-515478D01*
X-863154D01*
X-863524Y-514548D01*
X-863995Y-510478D01*
X-856850Y-506353D01*
X-850253Y-499756D01*
X-845588Y-491676D01*
X-843173Y-482664D01*
Y-473335D01*
X-845588Y-464323D01*
X-850253Y-456243D01*
X-856850Y-449646D01*
X-864930Y-444981D01*
X-873942Y-442567D01*
X-883271D01*
X-892283Y-444981D01*
X-900363Y-449646D01*
X-906960Y-456243D01*
X-911625Y-464323D01*
X-914039Y-473335D01*
Y-482664D01*
X-911625Y-491676D01*
X-906960Y-499756D01*
X-900363Y-506353D01*
X-893218Y-510478D01*
X-893688Y-514548D01*
X-894059Y-515478D01*
X-916424D01*
X-1001698Y-430204D01*
Y-181102D01*
X-1002768Y-175726D01*
X-1005813Y-171168D01*
X-1323615Y146634D01*
X-1323415Y146981D01*
X-1320866Y156493D01*
Y166341D01*
X-1323415Y175854D01*
X-1328339Y184382D01*
X-1335303Y191346D01*
X-1343831Y196270D01*
X-1353344Y198819D01*
D02*
G37*
G36*
X983943Y-613189D02*
X976687D01*
X969678Y-615067D01*
X963393Y-618695D01*
X958262Y-623826D01*
X954634Y-630111D01*
X952756Y-637120D01*
Y-644376D01*
X954634Y-651385D01*
X958262Y-657670D01*
X963393Y-662801D01*
X969678Y-666429D01*
X976687Y-668307D01*
X983943D01*
X990952Y-666429D01*
X997237Y-662801D01*
X1002368Y-657670D01*
X1005996Y-651385D01*
X1007874Y-644376D01*
Y-637120D01*
X1005996Y-630111D01*
X1002368Y-623826D01*
X997237Y-618695D01*
X990952Y-615067D01*
X983943Y-613189D01*
D02*
G37*
G36*
X246656Y-601181D02*
X236808D01*
X227296Y-603730D01*
X218767Y-608654D01*
X211804Y-615618D01*
X206880Y-624146D01*
X204331Y-633659D01*
Y-643507D01*
X206880Y-653019D01*
X211804Y-661548D01*
X218767Y-668511D01*
X227296Y-673435D01*
X236808Y-675984D01*
X246656D01*
X256169Y-673435D01*
X264697Y-668511D01*
X271661Y-661548D01*
X276585Y-653019D01*
X279134Y-643507D01*
Y-633659D01*
X276585Y-624146D01*
X271661Y-615618D01*
X264697Y-608654D01*
X256169Y-603730D01*
X246656Y-601181D01*
D02*
G37*
G36*
X-1353344D02*
X-1363192D01*
X-1372704Y-603730D01*
X-1381233Y-608654D01*
X-1388196Y-615618D01*
X-1393120Y-624146D01*
X-1395669Y-633659D01*
Y-643507D01*
X-1393120Y-653019D01*
X-1388196Y-661548D01*
X-1381233Y-668511D01*
X-1372704Y-673435D01*
X-1363192Y-675984D01*
X-1353344D01*
X-1343831Y-673435D01*
X-1335303Y-668511D01*
X-1328339Y-661548D01*
X-1323415Y-653019D01*
X-1320866Y-643507D01*
Y-633659D01*
X-1323415Y-624146D01*
X-1328339Y-615618D01*
X-1335303Y-608654D01*
X-1343831Y-603730D01*
X-1353344Y-601181D01*
D02*
G37*
G36*
X-1453344D02*
X-1463192D01*
X-1472704Y-603730D01*
X-1481233Y-608654D01*
X-1488196Y-615618D01*
X-1493120Y-624146D01*
X-1495669Y-633659D01*
Y-643507D01*
X-1493120Y-653019D01*
X-1488196Y-661548D01*
X-1481233Y-668511D01*
X-1472704Y-673435D01*
X-1463192Y-675984D01*
X-1453344D01*
X-1443831Y-673435D01*
X-1435303Y-668511D01*
X-1428339Y-661548D01*
X-1423415Y-653019D01*
X-1420866Y-643507D01*
Y-633659D01*
X-1423415Y-624146D01*
X-1428339Y-615618D01*
X-1435303Y-608654D01*
X-1443831Y-603730D01*
X-1453344Y-601181D01*
D02*
G37*
G36*
X246656Y-701181D02*
X236808D01*
X227296Y-703730D01*
X218767Y-708654D01*
X211804Y-715618D01*
X206880Y-724146D01*
X204331Y-733659D01*
Y-743507D01*
X206880Y-753019D01*
X211804Y-761548D01*
X218767Y-768511D01*
X227296Y-773435D01*
X236808Y-775984D01*
X246656D01*
X256169Y-773435D01*
X264697Y-768511D01*
X271661Y-761548D01*
X276585Y-753019D01*
X279134Y-743507D01*
Y-733659D01*
X276585Y-724146D01*
X271661Y-715618D01*
X264697Y-708654D01*
X256169Y-703730D01*
X246656Y-701181D01*
D02*
G37*
G36*
X-1353344D02*
X-1363192D01*
X-1372704Y-703730D01*
X-1381233Y-708654D01*
X-1388196Y-715618D01*
X-1393120Y-724146D01*
X-1395669Y-733659D01*
Y-743507D01*
X-1393120Y-753019D01*
X-1388196Y-761548D01*
X-1381233Y-768511D01*
X-1372704Y-773435D01*
X-1363192Y-775984D01*
X-1353344D01*
X-1343831Y-773435D01*
X-1335303Y-768511D01*
X-1328339Y-761548D01*
X-1323415Y-753019D01*
X-1320866Y-743507D01*
Y-733659D01*
X-1323415Y-724146D01*
X-1328339Y-715618D01*
X-1335303Y-708654D01*
X-1343831Y-703730D01*
X-1353344Y-701181D01*
D02*
G37*
G36*
X-1453344D02*
X-1463192D01*
X-1472704Y-703730D01*
X-1481233Y-708654D01*
X-1488196Y-715618D01*
X-1493120Y-724146D01*
X-1495669Y-733659D01*
Y-743507D01*
X-1493120Y-753019D01*
X-1488196Y-761548D01*
X-1481233Y-768511D01*
X-1472704Y-773435D01*
X-1463192Y-775984D01*
X-1453344D01*
X-1443831Y-773435D01*
X-1435303Y-768511D01*
X-1428339Y-761548D01*
X-1423415Y-753019D01*
X-1420866Y-743507D01*
Y-733659D01*
X-1423415Y-724146D01*
X-1428339Y-715618D01*
X-1435303Y-708654D01*
X-1443831Y-703730D01*
X-1453344Y-701181D01*
D02*
G37*
G36*
X246656Y-801181D02*
X236808D01*
X227296Y-803730D01*
X218767Y-808654D01*
X211804Y-815618D01*
X206880Y-824146D01*
X204331Y-833659D01*
Y-843507D01*
X206880Y-853019D01*
X211804Y-861548D01*
X218767Y-868511D01*
X227296Y-873435D01*
X236808Y-875984D01*
X246656D01*
X256169Y-873435D01*
X264697Y-868511D01*
X271661Y-861548D01*
X276585Y-853019D01*
X279134Y-843507D01*
Y-833659D01*
X276585Y-824146D01*
X271661Y-815618D01*
X264697Y-808654D01*
X256169Y-803730D01*
X246656Y-801181D01*
D02*
G37*
G36*
X-1353344D02*
X-1363192D01*
X-1372704Y-803730D01*
X-1381233Y-808654D01*
X-1388196Y-815618D01*
X-1393120Y-824146D01*
X-1395669Y-833659D01*
Y-843507D01*
X-1393120Y-853019D01*
X-1388196Y-861548D01*
X-1381233Y-868511D01*
X-1372704Y-873435D01*
X-1363192Y-875984D01*
X-1353344D01*
X-1343831Y-873435D01*
X-1335303Y-868511D01*
X-1328339Y-861548D01*
X-1323415Y-853019D01*
X-1320866Y-843507D01*
Y-833659D01*
X-1323415Y-824146D01*
X-1328339Y-815618D01*
X-1335303Y-808654D01*
X-1343831Y-803730D01*
X-1353344Y-801181D01*
D02*
G37*
G36*
X-1453344D02*
X-1463192D01*
X-1472704Y-803730D01*
X-1481233Y-808654D01*
X-1488196Y-815618D01*
X-1493120Y-824146D01*
X-1495669Y-833659D01*
Y-843507D01*
X-1493120Y-853019D01*
X-1488196Y-861548D01*
X-1481233Y-868511D01*
X-1472704Y-873435D01*
X-1463192Y-875984D01*
X-1453344D01*
X-1443831Y-873435D01*
X-1435303Y-868511D01*
X-1428339Y-861548D01*
X-1423415Y-853019D01*
X-1420866Y-843507D01*
Y-833659D01*
X-1423415Y-824146D01*
X-1428339Y-815618D01*
X-1435303Y-808654D01*
X-1443831Y-803730D01*
X-1453344Y-801181D01*
D02*
G37*
G36*
X880665Y-842567D02*
X871335D01*
X862323Y-844982D01*
X854244Y-849647D01*
X847647Y-856244D01*
X842982Y-864323D01*
X840567Y-873335D01*
Y-882665D01*
X842982Y-891677D01*
X847647Y-899756D01*
X854244Y-906353D01*
X862323Y-911018D01*
X871335Y-913433D01*
X880665D01*
X889677Y-911018D01*
X897756Y-906353D01*
X904353Y-899756D01*
X909018Y-891677D01*
X911433Y-882665D01*
Y-873335D01*
X909018Y-864323D01*
X904353Y-856244D01*
X897756Y-849647D01*
X889677Y-844982D01*
X880665Y-842567D01*
D02*
G37*
G36*
X1372876Y-826617D02*
X1361061D01*
X1349648Y-829675D01*
X1339415Y-835583D01*
X1331060Y-843938D01*
X1325153Y-854171D01*
X1322094Y-865583D01*
Y-877399D01*
X1325153Y-888812D01*
X1331060Y-899045D01*
X1339415Y-907399D01*
X1349648Y-913307D01*
X1361061Y-916365D01*
X1372876D01*
X1384289Y-913307D01*
X1394522Y-907399D01*
X1402877Y-899045D01*
X1408784Y-888812D01*
X1411842Y-877399D01*
Y-865583D01*
X1408784Y-854171D01*
X1402877Y-843938D01*
X1394522Y-835583D01*
X1384289Y-829675D01*
X1372876Y-826617D01*
D02*
G37*
G36*
X1172876D02*
X1161061D01*
X1149648Y-829675D01*
X1139415Y-835583D01*
X1131060Y-843938D01*
X1125153Y-854171D01*
X1122094Y-865583D01*
Y-877399D01*
X1125153Y-888812D01*
X1131060Y-899045D01*
X1139415Y-907399D01*
X1149648Y-913307D01*
X1161061Y-916365D01*
X1172876D01*
X1184289Y-913307D01*
X1194522Y-907399D01*
X1202877Y-899045D01*
X1208784Y-888812D01*
X1211842Y-877399D01*
Y-865583D01*
X1208784Y-854171D01*
X1202877Y-843938D01*
X1194522Y-835583D01*
X1184289Y-829675D01*
X1172876Y-826617D01*
D02*
G37*
G36*
X246656Y-901181D02*
X236808D01*
X227296Y-903730D01*
X218767Y-908654D01*
X211804Y-915618D01*
X206880Y-924146D01*
X204331Y-933659D01*
Y-943507D01*
X206880Y-953019D01*
X211804Y-961548D01*
X218767Y-968511D01*
X227296Y-973435D01*
X236808Y-975984D01*
X246656D01*
X256169Y-973435D01*
X264697Y-968511D01*
X271661Y-961548D01*
X276585Y-953019D01*
X279134Y-943507D01*
Y-933659D01*
X276585Y-924146D01*
X271661Y-915618D01*
X264697Y-908654D01*
X256169Y-903730D01*
X246656Y-901181D01*
D02*
G37*
G36*
X-1353344D02*
X-1363192D01*
X-1372704Y-903730D01*
X-1381233Y-908654D01*
X-1388196Y-915618D01*
X-1393120Y-924146D01*
X-1395669Y-933659D01*
Y-943507D01*
X-1393120Y-953019D01*
X-1388196Y-961548D01*
X-1381233Y-968511D01*
X-1372704Y-973435D01*
X-1363192Y-975984D01*
X-1353344D01*
X-1343831Y-973435D01*
X-1335303Y-968511D01*
X-1328339Y-961548D01*
X-1323415Y-953019D01*
X-1320866Y-943507D01*
Y-933659D01*
X-1323415Y-924146D01*
X-1328339Y-915618D01*
X-1335303Y-908654D01*
X-1343831Y-903730D01*
X-1353344Y-901181D01*
D02*
G37*
G36*
X-1453344D02*
X-1463192D01*
X-1472704Y-903730D01*
X-1481233Y-908654D01*
X-1488196Y-915618D01*
X-1493120Y-924146D01*
X-1495669Y-933659D01*
Y-943507D01*
X-1493120Y-953019D01*
X-1488196Y-961548D01*
X-1481233Y-968511D01*
X-1472704Y-973435D01*
X-1463192Y-975984D01*
X-1453344D01*
X-1443831Y-973435D01*
X-1435303Y-968511D01*
X-1428339Y-961548D01*
X-1423415Y-953019D01*
X-1420866Y-943507D01*
Y-933659D01*
X-1423415Y-924146D01*
X-1428339Y-915618D01*
X-1435303Y-908654D01*
X-1443831Y-903730D01*
X-1453344Y-901181D01*
D02*
G37*
G36*
X880665Y-942567D02*
X871335D01*
X862323Y-944982D01*
X854244Y-949647D01*
X847647Y-956244D01*
X842982Y-964323D01*
X840567Y-973335D01*
Y-982665D01*
X842982Y-991677D01*
X847647Y-999756D01*
X854244Y-1006353D01*
X862323Y-1011018D01*
X871335Y-1013433D01*
X880665D01*
X889677Y-1011018D01*
X897756Y-1006353D01*
X904353Y-999756D01*
X909018Y-991677D01*
X911433Y-982665D01*
Y-973335D01*
X909018Y-964323D01*
X904353Y-956244D01*
X897756Y-949647D01*
X889677Y-944982D01*
X880665Y-942567D01*
D02*
G37*
G36*
X780665D02*
X771335D01*
X762323Y-944982D01*
X754244Y-949647D01*
X747647Y-956244D01*
X742982Y-964323D01*
X740567Y-973335D01*
Y-982665D01*
X742982Y-991677D01*
X747647Y-999756D01*
X754244Y-1006353D01*
X762323Y-1011018D01*
X771335Y-1013433D01*
X780665D01*
X789677Y-1011018D01*
X797756Y-1006353D01*
X804353Y-999756D01*
X809018Y-991677D01*
X811433Y-982665D01*
Y-973335D01*
X809018Y-964323D01*
X804353Y-956244D01*
X797756Y-949647D01*
X789677Y-944982D01*
X780665Y-942567D01*
D02*
G37*
G36*
X880665Y-1042567D02*
X871335D01*
X862323Y-1044982D01*
X854244Y-1049647D01*
X847647Y-1056244D01*
X842982Y-1064323D01*
X840567Y-1073335D01*
Y-1082665D01*
X842982Y-1091677D01*
X847647Y-1099756D01*
X854244Y-1106353D01*
X862323Y-1111018D01*
X871335Y-1113433D01*
X880665D01*
X889677Y-1111018D01*
X897756Y-1106353D01*
X904353Y-1099756D01*
X909018Y-1091677D01*
X911433Y-1082665D01*
Y-1073335D01*
X909018Y-1064323D01*
X904353Y-1056244D01*
X897756Y-1049647D01*
X889677Y-1044982D01*
X880665Y-1042567D01*
D02*
G37*
G36*
X780665D02*
X771335D01*
X762323Y-1044982D01*
X754244Y-1049647D01*
X747647Y-1056244D01*
X742982Y-1064323D01*
X740567Y-1073335D01*
Y-1082665D01*
X742982Y-1091677D01*
X747647Y-1099756D01*
X754244Y-1106353D01*
X762323Y-1111018D01*
X771335Y-1113433D01*
X780665D01*
X789677Y-1111018D01*
X797756Y-1106353D01*
X804353Y-1099756D01*
X809018Y-1091677D01*
X811433Y-1082665D01*
Y-1073335D01*
X809018Y-1064323D01*
X804353Y-1056244D01*
X797756Y-1049647D01*
X789677Y-1044982D01*
X780665Y-1042567D01*
D02*
G37*
G36*
X-140636Y-1069299D02*
X-152451D01*
X-163864Y-1072357D01*
X-174097Y-1078265D01*
X-182451Y-1086620D01*
X-188359Y-1096852D01*
X-191417Y-1108265D01*
Y-1120081D01*
X-188359Y-1131494D01*
X-182451Y-1141726D01*
X-174097Y-1150081D01*
X-163864Y-1155989D01*
X-152451Y-1159047D01*
X-140636D01*
X-129223Y-1155989D01*
X-118990Y-1150081D01*
X-110635Y-1141726D01*
X-104727Y-1131494D01*
X-101669Y-1120081D01*
Y-1108265D01*
X-104727Y-1096852D01*
X-110635Y-1086620D01*
X-118990Y-1078265D01*
X-129223Y-1072357D01*
X-140636Y-1069299D01*
D02*
G37*
G36*
X-254636D02*
X-266451D01*
X-277864Y-1072357D01*
X-288097Y-1078265D01*
X-296451Y-1086620D01*
X-302359Y-1096852D01*
X-305417Y-1108265D01*
Y-1120081D01*
X-302359Y-1131494D01*
X-296451Y-1141726D01*
X-288097Y-1150081D01*
X-277864Y-1155989D01*
X-266451Y-1159047D01*
X-254636D01*
X-243223Y-1155989D01*
X-232990Y-1150081D01*
X-224635Y-1141726D01*
X-218727Y-1131494D01*
X-215669Y-1120081D01*
Y-1108265D01*
X-218727Y-1096852D01*
X-224635Y-1086620D01*
X-232990Y-1078265D01*
X-243223Y-1072357D01*
X-254636Y-1069299D01*
D02*
G37*
G36*
X880665Y-1142567D02*
X871335D01*
X862323Y-1144982D01*
X854244Y-1149647D01*
X847647Y-1156244D01*
X842982Y-1164323D01*
X840567Y-1173335D01*
Y-1182665D01*
X842982Y-1191677D01*
X847647Y-1199756D01*
X854244Y-1206353D01*
X862323Y-1211018D01*
X871335Y-1213433D01*
X880665D01*
X889677Y-1211018D01*
X897756Y-1206353D01*
X904353Y-1199756D01*
X909018Y-1191677D01*
X911433Y-1182665D01*
Y-1173335D01*
X909018Y-1164323D01*
X904353Y-1156244D01*
X897756Y-1149647D01*
X889677Y-1144982D01*
X880665Y-1142567D01*
D02*
G37*
G36*
X780665D02*
X771335D01*
X762323Y-1144982D01*
X754244Y-1149647D01*
X747647Y-1156244D01*
X742982Y-1164323D01*
X740567Y-1173335D01*
Y-1182665D01*
X742982Y-1191677D01*
X747647Y-1199756D01*
X754244Y-1206353D01*
X762323Y-1211018D01*
X771335Y-1213433D01*
X780665D01*
X789677Y-1211018D01*
X797756Y-1206353D01*
X804353Y-1199756D01*
X809018Y-1191677D01*
X811433Y-1182665D01*
Y-1173335D01*
X809018Y-1164323D01*
X804353Y-1156244D01*
X797756Y-1149647D01*
X789677Y-1144982D01*
X780665Y-1142567D01*
D02*
G37*
G36*
X-250000Y-1186263D02*
Y-1222441D01*
X-213822D01*
X-216045Y-1214142D01*
X-222233Y-1203425D01*
X-230984Y-1194674D01*
X-241701Y-1188486D01*
X-250000Y-1186263D01*
D02*
G37*
G36*
X-269685Y-1186263D02*
X-277984Y-1188486D01*
X-288701Y-1194674D01*
X-297452Y-1203425D01*
X-303640Y-1214142D01*
X-305863Y-1222441D01*
X-269685D01*
Y-1186263D01*
D02*
G37*
G36*
X424842Y-1108617D02*
X329094D01*
Y-1109469D01*
X296339D01*
X284005Y-1111093D01*
X272513Y-1115853D01*
X271916Y-1116311D01*
X261813Y-1117641D01*
X250321Y-1122402D01*
X240452Y-1129974D01*
X232879Y-1139843D01*
X228118Y-1151336D01*
X226495Y-1163669D01*
X228118Y-1176003D01*
X232879Y-1187495D01*
X240452Y-1197364D01*
X248274Y-1205186D01*
X258143Y-1212759D01*
X269635Y-1217519D01*
X277669Y-1218577D01*
X281563Y-1219090D01*
X281236Y-1224090D01*
X275728D01*
X263672Y-1227320D01*
X252863Y-1233561D01*
X244038Y-1242386D01*
X237797Y-1253195D01*
X235532Y-1261649D01*
X281968D01*
X328405D01*
X326140Y-1253195D01*
X319899Y-1242386D01*
X311074Y-1233561D01*
X300265Y-1227320D01*
X288209Y-1224090D01*
X282701D01*
X282374Y-1219090D01*
X286268Y-1218577D01*
X294302Y-1217519D01*
X305794Y-1212759D01*
X315663Y-1205186D01*
X316077Y-1204773D01*
X376339D01*
X379435Y-1204365D01*
X424842D01*
Y-1108617D01*
D02*
G37*
G36*
X-868764Y-1241753D02*
Y-1268157D01*
X-842360D01*
X-843607Y-1263503D01*
X-848552Y-1254938D01*
X-855544Y-1247945D01*
X-864109Y-1243000D01*
X-868764Y-1241753D01*
D02*
G37*
G36*
X-888449Y-1241753D02*
X-893104Y-1243000D01*
X-901668Y-1247945D01*
X-908661Y-1254938D01*
X-913606Y-1263503D01*
X-914853Y-1268157D01*
X-888449D01*
Y-1241753D01*
D02*
G37*
G36*
X785842Y-1241753D02*
Y-1268158D01*
X812247D01*
X810999Y-1263503D01*
X806055Y-1254938D01*
X799062Y-1247945D01*
X790497Y-1243001D01*
X785842Y-1241753D01*
D02*
G37*
G36*
X766158D02*
X761503Y-1243001D01*
X752938Y-1247945D01*
X745945Y-1254938D01*
X741001Y-1263503D01*
X739753Y-1268158D01*
X766158D01*
Y-1241753D01*
D02*
G37*
G36*
X-139935Y-1187409D02*
X-151750D01*
X-163163Y-1190468D01*
X-173396Y-1196375D01*
X-181751Y-1204730D01*
X-187658Y-1214963D01*
X-190716Y-1226376D01*
Y-1238191D01*
X-187658Y-1249604D01*
X-181751Y-1259837D01*
X-173396Y-1268192D01*
X-163163Y-1274099D01*
X-151750Y-1277158D01*
X-139935D01*
X-128522Y-1274099D01*
X-118289Y-1268192D01*
X-109934Y-1259837D01*
X-104027Y-1249604D01*
X-100969Y-1238191D01*
Y-1226376D01*
X-104027Y-1214963D01*
X-109934Y-1204730D01*
X-118289Y-1196375D01*
X-128522Y-1190468D01*
X-139935Y-1187409D01*
D02*
G37*
G36*
X-213822Y-1242126D02*
X-250000D01*
Y-1278304D01*
X-241701Y-1276081D01*
X-230984Y-1269893D01*
X-222233Y-1261142D01*
X-216045Y-1250425D01*
X-213822Y-1242126D01*
D02*
G37*
G36*
X-269685D02*
X-305863D01*
X-303640Y-1250425D01*
X-297452Y-1261142D01*
X-288701Y-1269893D01*
X-277984Y-1276081D01*
X-269685Y-1278304D01*
Y-1242126D01*
D02*
G37*
G36*
X-773942Y-1242567D02*
X-783271D01*
X-792283Y-1244981D01*
X-800363Y-1249646D01*
X-806960Y-1256243D01*
X-811625Y-1264323D01*
X-814039Y-1273335D01*
Y-1282665D01*
X-811625Y-1291676D01*
X-806960Y-1299756D01*
X-800363Y-1306353D01*
X-792283Y-1311018D01*
X-783271Y-1313433D01*
X-773942D01*
X-764930Y-1311018D01*
X-756850Y-1306353D01*
X-750253Y-1299756D01*
X-745588Y-1291676D01*
X-743173Y-1282665D01*
Y-1273335D01*
X-745588Y-1264323D01*
X-750253Y-1256243D01*
X-756850Y-1249646D01*
X-764930Y-1244981D01*
X-773942Y-1242567D01*
D02*
G37*
G36*
X880665Y-1242567D02*
X871335D01*
X862323Y-1244982D01*
X854244Y-1249647D01*
X847647Y-1256244D01*
X842982Y-1264323D01*
X840567Y-1273335D01*
Y-1282665D01*
X842982Y-1291677D01*
X847647Y-1299756D01*
X854244Y-1306353D01*
X862323Y-1311018D01*
X871335Y-1313433D01*
X880665D01*
X889677Y-1311018D01*
X897756Y-1306353D01*
X904353Y-1299756D01*
X909018Y-1291677D01*
X911433Y-1282665D01*
Y-1273335D01*
X909018Y-1264323D01*
X904353Y-1256244D01*
X897756Y-1249647D01*
X889677Y-1244982D01*
X880665Y-1242567D01*
D02*
G37*
G36*
X-888449Y-1287842D02*
X-914853D01*
X-913606Y-1292497D01*
X-908661Y-1301062D01*
X-901668Y-1308054D01*
X-893104Y-1312999D01*
X-888449Y-1314246D01*
Y-1287842D01*
D02*
G37*
G36*
X-842360D02*
X-868764D01*
Y-1314246D01*
X-864109Y-1312999D01*
X-855544Y-1308054D01*
X-848552Y-1301062D01*
X-843607Y-1292497D01*
X-842360Y-1287842D01*
D02*
G37*
G36*
X812247Y-1287842D02*
X785842D01*
Y-1314247D01*
X790497Y-1312999D01*
X799062Y-1308055D01*
X806055Y-1301062D01*
X810999Y-1292497D01*
X812247Y-1287842D01*
D02*
G37*
G36*
X766158D02*
X739753D01*
X741001Y-1292497D01*
X745945Y-1301062D01*
X752938Y-1308055D01*
X761503Y-1312999D01*
X766158Y-1314247D01*
Y-1287842D01*
D02*
G37*
G36*
X272126Y-1281334D02*
X235532D01*
X237797Y-1289788D01*
X244038Y-1300597D01*
X252863Y-1309422D01*
X263672Y-1315662D01*
X272126Y-1317928D01*
Y-1281334D01*
D02*
G37*
G36*
X328405D02*
X291811D01*
Y-1317928D01*
X300265Y-1315662D01*
X311074Y-1309422D01*
X319899Y-1300597D01*
X326140Y-1289788D01*
X328405Y-1281334D01*
D02*
G37*
G36*
X-1269292Y-1417956D02*
Y-1454134D01*
X-1233113D01*
X-1235337Y-1445835D01*
X-1241524Y-1435118D01*
X-1250275Y-1426367D01*
X-1260993Y-1420179D01*
X-1269292Y-1417956D01*
D02*
G37*
G36*
X-1169292D02*
Y-1454134D01*
X-1133113D01*
X-1135337Y-1445835D01*
X-1141524Y-1435118D01*
X-1150275Y-1426367D01*
X-1160993Y-1420179D01*
X-1169292Y-1417956D01*
D02*
G37*
G36*
X-1288977Y-1417956D02*
X-1297275Y-1420179D01*
X-1307993Y-1426367D01*
X-1316743Y-1435118D01*
X-1322931Y-1445835D01*
X-1325155Y-1454134D01*
X-1288977D01*
Y-1417956D01*
D02*
G37*
G36*
X-1188977D02*
X-1197275Y-1420179D01*
X-1207993Y-1426367D01*
X-1216743Y-1435118D01*
X-1222931Y-1445835D01*
X-1225155Y-1454134D01*
X-1188977D01*
Y-1417956D01*
D02*
G37*
G36*
X-573226Y-1419102D02*
X-585042D01*
X-596455Y-1422160D01*
X-606687Y-1428068D01*
X-615042Y-1436423D01*
X-620950Y-1446656D01*
X-624008Y-1458069D01*
Y-1469884D01*
X-620950Y-1481297D01*
X-615042Y-1491530D01*
X-606687Y-1499884D01*
X-596455Y-1505792D01*
X-585042Y-1508850D01*
X-573226D01*
X-561813Y-1505792D01*
X-551581Y-1499884D01*
X-543226Y-1491530D01*
X-537318Y-1481297D01*
X-534260Y-1469884D01*
Y-1458069D01*
X-537318Y-1446656D01*
X-543226Y-1436423D01*
X-551581Y-1428068D01*
X-561813Y-1422160D01*
X-573226Y-1419102D01*
D02*
G37*
G36*
X-673226D02*
X-685042D01*
X-696455Y-1422160D01*
X-706687Y-1428068D01*
X-715042Y-1436423D01*
X-720950Y-1446656D01*
X-724008Y-1458069D01*
Y-1469884D01*
X-720950Y-1481297D01*
X-715042Y-1491530D01*
X-706687Y-1499884D01*
X-696455Y-1505792D01*
X-685042Y-1508850D01*
X-673226D01*
X-661813Y-1505792D01*
X-651581Y-1499884D01*
X-643226Y-1491530D01*
X-637318Y-1481297D01*
X-634260Y-1469884D01*
Y-1458069D01*
X-637318Y-1446656D01*
X-643226Y-1436423D01*
X-651581Y-1428068D01*
X-661813Y-1422160D01*
X-673226Y-1419102D01*
D02*
G37*
G36*
X-773226D02*
X-785042D01*
X-796455Y-1422160D01*
X-806687Y-1428068D01*
X-815042Y-1436423D01*
X-820950Y-1446656D01*
X-824008Y-1458069D01*
Y-1469884D01*
X-820950Y-1481297D01*
X-815042Y-1491530D01*
X-806687Y-1499884D01*
X-796455Y-1505792D01*
X-785042Y-1508850D01*
X-773226D01*
X-761813Y-1505792D01*
X-751581Y-1499884D01*
X-743226Y-1491530D01*
X-737318Y-1481297D01*
X-734260Y-1469884D01*
Y-1458069D01*
X-737318Y-1446656D01*
X-743226Y-1436423D01*
X-751581Y-1428068D01*
X-761813Y-1422160D01*
X-773226Y-1419102D01*
D02*
G37*
G36*
X-873226D02*
X-885042D01*
X-896455Y-1422160D01*
X-906687Y-1428068D01*
X-915042Y-1436423D01*
X-920950Y-1446656D01*
X-924008Y-1458069D01*
Y-1469884D01*
X-920950Y-1481297D01*
X-915042Y-1491530D01*
X-906687Y-1499884D01*
X-896455Y-1505792D01*
X-885042Y-1508850D01*
X-873226D01*
X-861813Y-1505792D01*
X-851581Y-1499884D01*
X-843226Y-1491530D01*
X-837318Y-1481297D01*
X-834260Y-1469884D01*
Y-1458069D01*
X-837318Y-1446656D01*
X-843226Y-1436423D01*
X-851581Y-1428068D01*
X-861813Y-1422160D01*
X-873226Y-1419102D01*
D02*
G37*
G36*
X-973226D02*
X-985042D01*
X-996455Y-1422160D01*
X-1006687Y-1428068D01*
X-1015042Y-1436423D01*
X-1020950Y-1446656D01*
X-1024008Y-1458069D01*
Y-1469884D01*
X-1020950Y-1481297D01*
X-1015042Y-1491530D01*
X-1006687Y-1499884D01*
X-996455Y-1505792D01*
X-985042Y-1508850D01*
X-973226D01*
X-961813Y-1505792D01*
X-951581Y-1499884D01*
X-943226Y-1491530D01*
X-937318Y-1481297D01*
X-934260Y-1469884D01*
Y-1458069D01*
X-937318Y-1446656D01*
X-943226Y-1436423D01*
X-951581Y-1428068D01*
X-961813Y-1422160D01*
X-973226Y-1419102D01*
D02*
G37*
G36*
X-1073226D02*
X-1085042D01*
X-1096455Y-1422160D01*
X-1106687Y-1428068D01*
X-1115042Y-1436423D01*
X-1120950Y-1446656D01*
X-1124008Y-1458069D01*
Y-1469884D01*
X-1120950Y-1481297D01*
X-1115042Y-1491530D01*
X-1106687Y-1499884D01*
X-1096455Y-1505792D01*
X-1085042Y-1508850D01*
X-1073226D01*
X-1061813Y-1505792D01*
X-1051581Y-1499884D01*
X-1043226Y-1491530D01*
X-1037318Y-1481297D01*
X-1034260Y-1469884D01*
Y-1458069D01*
X-1037318Y-1446656D01*
X-1043226Y-1436423D01*
X-1051581Y-1428068D01*
X-1061813Y-1422160D01*
X-1073226Y-1419102D01*
D02*
G37*
G36*
X-1188977Y-1473819D02*
X-1225155D01*
X-1222931Y-1482118D01*
X-1216743Y-1492835D01*
X-1207993Y-1501586D01*
X-1197275Y-1507774D01*
X-1188977Y-1509997D01*
Y-1473819D01*
D02*
G37*
G36*
X-1288977D02*
X-1325155D01*
X-1322931Y-1482118D01*
X-1316743Y-1492835D01*
X-1307993Y-1501586D01*
X-1297275Y-1507774D01*
X-1288977Y-1509997D01*
Y-1473819D01*
D02*
G37*
G36*
X-1133113D02*
X-1169292D01*
Y-1509997D01*
X-1160993Y-1507774D01*
X-1150275Y-1501586D01*
X-1141524Y-1492835D01*
X-1135337Y-1482118D01*
X-1133113Y-1473819D01*
D02*
G37*
G36*
X-1233113D02*
X-1269292D01*
Y-1509997D01*
X-1260993Y-1507774D01*
X-1250275Y-1501586D01*
X-1241524Y-1492835D01*
X-1235337Y-1482118D01*
X-1233113Y-1473819D01*
D02*
G37*
G36*
X184731Y-1484252D02*
X177474D01*
X170465Y-1486130D01*
X164181Y-1489758D01*
X159050Y-1494889D01*
X155422Y-1501174D01*
X153543Y-1508183D01*
Y-1515439D01*
X155422Y-1522448D01*
X159050Y-1528733D01*
X164181Y-1533864D01*
X170465Y-1537492D01*
X177474Y-1539370D01*
X184731D01*
X191740Y-1537492D01*
X198024Y-1533864D01*
X203155Y-1528733D01*
X206783Y-1522448D01*
X208661Y-1515439D01*
Y-1508183D01*
X206783Y-1501174D01*
X203155Y-1494889D01*
X198024Y-1489758D01*
X191740Y-1486130D01*
X184731Y-1484252D01*
D02*
G37*
G36*
X-1269292Y-1517956D02*
Y-1554134D01*
X-1233113D01*
X-1235337Y-1545835D01*
X-1241524Y-1535118D01*
X-1250275Y-1526367D01*
X-1260993Y-1520179D01*
X-1269292Y-1517956D01*
D02*
G37*
G36*
X-1169292D02*
Y-1554134D01*
X-1133113D01*
X-1135337Y-1545835D01*
X-1141524Y-1535118D01*
X-1150275Y-1526367D01*
X-1160993Y-1520179D01*
X-1169292Y-1517956D01*
D02*
G37*
G36*
X-1288977Y-1517956D02*
X-1297275Y-1520179D01*
X-1307993Y-1526367D01*
X-1316743Y-1535118D01*
X-1322931Y-1545835D01*
X-1325155Y-1554134D01*
X-1288977D01*
Y-1517956D01*
D02*
G37*
G36*
X-1188977D02*
X-1197275Y-1520179D01*
X-1207993Y-1526367D01*
X-1216743Y-1535118D01*
X-1222931Y-1545835D01*
X-1225155Y-1554134D01*
X-1188977D01*
Y-1517956D01*
D02*
G37*
G36*
X766079Y1312315D02*
X738362D01*
Y1284598D01*
X766079D01*
Y1312315D01*
D02*
G37*
G36*
Y1264913D02*
X738362D01*
Y1237197D01*
X766079D01*
Y1264913D01*
D02*
G37*
G36*
X179291Y1451929D02*
X137795D01*
Y1408465D01*
X179291D01*
Y1451929D01*
D02*
G37*
G36*
X118110D02*
X76614D01*
Y1408465D01*
X118110D01*
Y1451929D01*
D02*
G37*
G36*
X179291Y1388780D02*
X137795D01*
Y1345315D01*
X179291D01*
Y1388780D01*
D02*
G37*
G36*
X118110D02*
X76614D01*
Y1345315D01*
X118110D01*
Y1388780D01*
D02*
G37*
%LPD*%
D11*
X-1583338Y-1557087D02*
X-1543980D01*
Y-1537408D01*
X-1550540Y-1530849D01*
X-1563659D01*
X-1570219Y-1537408D01*
Y-1557087D01*
X-1550540Y-1491491D02*
X-1543980Y-1498051D01*
Y-1511170D01*
X-1550540Y-1517729D01*
X-1576778D01*
X-1583338Y-1511170D01*
Y-1498051D01*
X-1576778Y-1491491D01*
X-1543980Y-1478372D02*
X-1583338D01*
Y-1458693D01*
X-1576778Y-1452134D01*
X-1570219D01*
X-1563659Y-1458693D01*
Y-1478372D01*
Y-1458693D01*
X-1557100Y-1452134D01*
X-1550540D01*
X-1543980Y-1458693D01*
Y-1478372D01*
Y-1399657D02*
X-1583338D01*
Y-1379978D01*
X-1576778Y-1373419D01*
X-1570219D01*
X-1563659D01*
X-1557100Y-1379978D01*
Y-1399657D01*
Y-1360300D02*
X-1576778D01*
X-1583338Y-1353740D01*
Y-1334062D01*
X-1589897D01*
X-1596457Y-1340621D01*
Y-1347181D01*
X-1583338Y-1334062D02*
X-1557100D01*
X-1543980Y-1281585D02*
X-1583338D01*
Y-1261906D01*
X-1576778Y-1255347D01*
X-1570219D01*
X-1563659Y-1261906D01*
Y-1281585D01*
Y-1261906D01*
X-1557100Y-1255347D01*
X-1550540D01*
X-1543980Y-1261906D01*
Y-1281585D01*
X-1583338Y-1222549D02*
Y-1235668D01*
X-1576778Y-1242227D01*
X-1563659D01*
X-1557100Y-1235668D01*
Y-1222549D01*
X-1563659Y-1215989D01*
X-1570219D01*
Y-1242227D01*
X-1583338Y-1202870D02*
X-1557100D01*
Y-1183191D01*
X-1563659Y-1176632D01*
X-1583338D01*
X-1543980Y-1124155D02*
X-1583338D01*
X-1570219D01*
X-1543980Y-1097917D01*
X-1563659Y-1117596D01*
X-1583338Y-1097917D01*
X-1557100Y-1078238D02*
Y-1065119D01*
X-1563659Y-1058560D01*
X-1583338D01*
Y-1078238D01*
X-1576778Y-1084798D01*
X-1570219Y-1078238D01*
Y-1058560D01*
X-1557100Y-1045440D02*
Y-1019202D01*
X-1583338Y-1045440D01*
Y-1019202D01*
Y-986404D02*
Y-999524D01*
X-1576778Y-1006083D01*
X-1563659D01*
X-1557100Y-999524D01*
Y-986404D01*
X-1563659Y-979845D01*
X-1570219D01*
Y-1006083D01*
X-1583338Y-966726D02*
X-1557100D01*
Y-960166D01*
X-1563659Y-953607D01*
X-1583338D01*
X-1563659D01*
X-1557100Y-947047D01*
X-1563659Y-940487D01*
X-1583338D01*
Y-927368D02*
Y-914249D01*
Y-920809D01*
X-1557100D01*
Y-927368D01*
X-1583338Y-848654D02*
X-1550540D01*
X-1563659D01*
Y-855213D01*
Y-842094D01*
Y-848654D01*
X-1550540D01*
X-1543980Y-842094D01*
X-1583338Y-815856D02*
Y-802737D01*
X-1576778Y-796177D01*
X-1563659D01*
X-1557100Y-802737D01*
Y-815856D01*
X-1563659Y-822415D01*
X-1576778D01*
X-1583338Y-815856D01*
X-1557100Y-783058D02*
X-1583338D01*
X-1570219D01*
X-1563659Y-776498D01*
X-1557100Y-769939D01*
Y-763379D01*
X-1583338Y-704343D02*
X-1543980D01*
X-1557100Y-691224D01*
X-1543980Y-678105D01*
X-1583338D01*
X-1550540Y-638747D02*
X-1543980Y-645307D01*
Y-658426D01*
X-1550540Y-664986D01*
X-1557100D01*
X-1563659Y-658426D01*
Y-645307D01*
X-1570219Y-638747D01*
X-1576778D01*
X-1583338Y-645307D01*
Y-658426D01*
X-1576778Y-664986D01*
X-1543980Y-625628D02*
X-1583338D01*
Y-605950D01*
X-1576778Y-599390D01*
X-1550540D01*
X-1543980Y-605950D01*
Y-625628D01*
X-1550540Y-520675D02*
X-1543980Y-527235D01*
Y-540354D01*
X-1550540Y-546913D01*
X-1576778D01*
X-1583338Y-540354D01*
Y-527235D01*
X-1576778Y-520675D01*
X-1563659D01*
Y-533794D01*
X-1557100Y-507556D02*
X-1583338D01*
X-1570219D01*
X-1563659Y-500997D01*
X-1557100Y-494437D01*
Y-487877D01*
X-1583338Y-461639D02*
Y-448520D01*
X-1576778Y-441961D01*
X-1563659D01*
X-1557100Y-448520D01*
Y-461639D01*
X-1563659Y-468199D01*
X-1576778D01*
X-1583338Y-461639D01*
X-1557100Y-428841D02*
X-1576778D01*
X-1583338Y-422282D01*
Y-402603D01*
X-1557100D01*
X-1596457Y-389484D02*
X-1557100D01*
Y-369805D01*
X-1563659Y-363246D01*
X-1576778D01*
X-1583338Y-369805D01*
Y-389484D01*
X-1570219Y-291090D02*
X-1563659D01*
Y-297650D01*
X-1570219D01*
Y-291090D01*
X-1563659Y-284531D01*
X-1550540D01*
X-1543980Y-291090D01*
Y-304209D01*
X-1550540Y-310769D01*
X-1576778D01*
X-1583338Y-304209D01*
Y-284531D01*
X-1543980Y-232054D02*
X-1576778D01*
X-1583338Y-225495D01*
Y-212376D01*
X-1576778Y-205816D01*
X-1543980D01*
X-1550540Y-166459D02*
X-1543980Y-173018D01*
Y-186137D01*
X-1550540Y-192697D01*
X-1576778D01*
X-1583338Y-186137D01*
Y-173018D01*
X-1576778Y-166459D01*
X-1543980Y-153339D02*
X-1583338D01*
Y-127101D01*
D13*
X296339Y-1157121D02*
X376339D01*
X376969Y-1156491D01*
X281969Y-1171491D02*
X296339Y-1157121D01*
X274147Y-1163669D02*
X281969Y-1171491D01*
D17*
X752461Y1615650D02*
X1018209Y1349901D01*
Y1217043D02*
Y1349901D01*
X875921Y1074756D02*
X1018209Y1217043D01*
X875921Y1174756D02*
X947835Y1246669D01*
Y1325787D01*
X946850Y845685D02*
Y1007874D01*
X875921Y774756D02*
X946850Y845685D01*
X822378Y1062600D02*
X861568Y1023410D01*
X931315D01*
X946850Y1007874D01*
X293307Y1109842D02*
Y1386811D01*
X445866Y1539370D02*
X672244D01*
X293307Y1386811D02*
X445866Y1539370D01*
X394685Y814370D02*
Y1455709D01*
X446850Y1507874D01*
X636811D01*
X440945Y1575787D02*
X697835D01*
X178150Y1312992D02*
X440945Y1575787D01*
X178150Y1137795D02*
Y1312992D01*
X206102Y1109842D02*
X261791D01*
X178150Y1137795D02*
X206102Y1109842D01*
X187992Y929557D02*
X207706Y909842D01*
X43307Y1239173D02*
X187992Y1094488D01*
Y929557D02*
Y1094488D01*
X43307Y1239173D02*
Y1474409D01*
X184547Y1615650D02*
X752461D01*
X43307Y1474409D02*
X184547Y1615650D01*
X822378Y1062600D02*
Y1389236D01*
X672244Y1539370D02*
X822378Y1389236D01*
X341732Y761417D02*
X394685Y814370D01*
X293307Y1109842D02*
X341732Y1061417D01*
X697835Y1575787D02*
X947835Y1325787D01*
X293307Y1009842D02*
Y1078326D01*
Y1009842D02*
X341732Y961417D01*
X261791Y1109842D02*
X293307Y1078326D01*
X207706Y909842D02*
X293307D01*
X341732Y861417D01*
X416386Y1435087D02*
X459646Y1478347D01*
X416386Y736071D02*
Y1435087D01*
X459646Y1478347D02*
X625984D01*
X636811Y1507874D02*
X695866Y1448819D01*
Y1077756D02*
X750984Y1022638D01*
X828040D02*
X875921Y974756D01*
X750984Y1022638D02*
X828040D01*
X695866Y1077756D02*
Y1448819D01*
X625984Y1478347D02*
X669291Y1435040D01*
Y1013780D02*
X756890Y926181D01*
X669291Y1013780D02*
Y1435040D01*
X-9528Y750689D02*
X-1171Y759045D01*
X-6890Y764764D02*
Y770669D01*
X-27559Y791339D02*
X-6890Y770669D01*
X-117126Y791339D02*
X-27559D01*
X-146654Y820866D02*
X-117126Y791339D01*
X-146654Y938976D02*
X-109252Y976378D01*
X-146654Y820866D02*
Y938976D01*
X-109252Y976378D02*
X0D01*
X56102Y1032480D02*
X127953D01*
X0Y976378D02*
X56102Y1032480D01*
X341732Y661417D02*
X416386Y736071D01*
X-49528Y648937D02*
Y738189D01*
Y648937D02*
X37992Y561417D01*
X241732D01*
X-97244Y461417D02*
X241732D01*
X-325118Y689291D02*
X-97244Y461417D01*
X293307Y412992D02*
X341732Y461417D01*
X140354Y412992D02*
X293307D01*
X-344488Y-71850D02*
X140354Y412992D01*
X-344488Y-1454724D02*
Y-71850D01*
X82677Y-1144094D02*
Y-205709D01*
X149803Y-138583D02*
X241732D01*
X82677Y-205709D02*
X149803Y-138583D01*
X129921Y-1342520D02*
Y-221457D01*
X293307Y-190157D02*
X341732Y-238583D01*
X161220Y-190157D02*
X293307D01*
X129921Y-221457D02*
X161220Y-190157D01*
X509252Y-287008D02*
X931102Y134843D01*
X241732Y-338583D02*
X293307Y-287008D01*
X509252D01*
X931102Y134843D02*
Y419575D01*
X467716Y-487008D02*
X1013779Y59055D01*
X970472Y109252D02*
Y480205D01*
X474213Y-387008D02*
X970472Y109252D01*
X293307Y-387008D02*
X474213D01*
X1013779Y59055D02*
Y536898D01*
X293307Y-487008D02*
X467716D01*
X241732Y-438583D02*
X293307Y-387008D01*
X241732Y-538583D02*
X293307Y-487008D01*
X822457Y-531543D02*
X876000Y-478000D01*
X756757Y-531543D02*
X822457D01*
X341732Y-638583D02*
X649718D01*
X756757Y-531543D01*
X822457Y-631543D02*
X876000Y-578000D01*
X756757Y-631543D02*
X822457D01*
X649718Y-738583D02*
X756757Y-631543D01*
X341732Y-738583D02*
X649718D01*
X822457Y-731543D02*
X876000Y-678000D01*
X756757Y-731543D02*
X822457D01*
X649718Y-838583D02*
X756757Y-731543D01*
X341732Y-838583D02*
X649718D01*
X822457Y-831543D02*
X876000Y-778000D01*
X756757Y-831543D02*
X822457D01*
X649718Y-938583D02*
X756757Y-831543D01*
X341732Y-938583D02*
X649718D01*
X-1044094Y372047D02*
X-989961Y426181D01*
X-1358268Y361417D02*
X-1349228Y370457D01*
X-1329317D01*
X-1327727Y372047D01*
X-1044094D01*
X-989961Y426181D02*
X-827181D01*
X-778606Y474756D01*
X-999016Y1227362D02*
X-840551D01*
X-1358268Y1061417D02*
X-1164961D01*
X-999016Y1227362D01*
X-989173Y1125984D02*
X-829835D01*
X-1358268Y961417D02*
X-1153740D01*
X-989173Y1125984D01*
X-997047Y1024606D02*
X-828457D01*
X-1358268Y861417D02*
X-1160236D01*
X-997047Y1024606D01*
Y926181D02*
X-830031D01*
X-1358268Y761417D02*
X-1161811D01*
X-997047Y926181D01*
X-1001968Y826772D02*
X-830622D01*
X-1358268Y661417D02*
X-1167323D01*
X-1001968Y826772D01*
X-995079Y726378D02*
X-830228D01*
X-1358268Y561417D02*
X-1160039D01*
X-995079Y726378D01*
X-978346Y627953D02*
X-831803D01*
X-1358268Y461417D02*
X-1144882D01*
X-978346Y627953D01*
X-1358268Y261417D02*
X-828740Y-268110D01*
Y-408465D02*
Y-268110D01*
X-1015748Y-436024D02*
Y-181102D01*
X-1358268Y161417D02*
X-1015748Y-181102D01*
X-1071850Y-529528D02*
Y-273622D01*
X-1358268Y-38583D02*
X-1306890D01*
X-1071850Y-273622D01*
X-1126968Y-574803D02*
Y-324803D01*
X-1358268Y-138583D02*
X-1356102Y-140748D01*
X-1311024D01*
X-1126968Y-324803D01*
X-1169291Y-630905D02*
Y-427559D01*
X-1358268Y-238583D02*
X-1169291Y-427559D01*
X-1208571Y-690052D02*
Y-488280D01*
X-1358268Y-338583D02*
X-1208571Y-488280D01*
X-1358268Y-538583D02*
X-1292323Y-604528D01*
Y-779528D02*
Y-604528D01*
X-1253937Y-740097D02*
Y-542913D01*
X-1358268Y-438583D02*
X-1253937Y-542913D01*
X-344488Y-1454724D02*
X-336221Y-1462992D01*
X-236220D02*
X82677Y-1144094D01*
X9449Y-1462992D02*
X129921Y-1342520D01*
X-136220Y-1462992D02*
X9449D01*
X-551181Y738189D02*
X-325118D01*
Y689291D02*
Y738189D01*
X-305118Y935039D02*
X-127362Y757284D01*
X-305118Y935039D02*
Y1032480D01*
X-56122Y757284D02*
X-49528Y750689D01*
Y738189D02*
Y750689D01*
X-127362Y757284D02*
X-56122D01*
X-9528Y738189D02*
Y750689D01*
X-226378Y1286417D02*
X-190945Y1321850D01*
X-403543Y1151575D02*
X-268701Y1286417D01*
X-190945Y1321850D02*
Y1323819D01*
X-268701Y1286417D02*
X-226378D01*
X-403543Y974409D02*
Y1151575D01*
Y974409D02*
X-285118Y855984D01*
Y738189D02*
Y855984D01*
X-624016Y811024D02*
X-551181Y738189D01*
X-624016Y811024D02*
Y1323819D01*
X-305118Y1032480D02*
Y1044291D01*
X1412402Y-93110D02*
X1422906Y-103615D01*
X1499016Y-510827D02*
Y-209645D01*
X1422906Y-133536D02*
X1499016Y-209645D01*
X1422906Y-133536D02*
Y-103615D01*
X612402Y-89764D02*
X720472Y18307D01*
X612402Y-93110D02*
Y-89764D01*
X720472Y18307D02*
Y21654D01*
X1412402Y6890D02*
X1622433Y-203142D01*
Y-772252D02*
Y-203142D01*
X1570991Y-823694D02*
X1622433Y-772252D01*
X1566968Y-871491D02*
X1570991Y-867468D01*
Y-823694D01*
X1328740Y-804134D02*
X1399611D01*
X1466968Y-871491D01*
X1289370Y-764764D02*
X1328740Y-804134D01*
X1373032Y-636811D02*
X1499016Y-510827D01*
X1289370Y-764764D02*
Y-672244D01*
X1324803Y-636811D02*
X1373032D01*
X1289370Y-672244D02*
X1324803Y-636811D01*
X875921Y474756D02*
X931102Y419575D01*
X875921Y574756D02*
X970472Y480205D01*
X875921Y674756D02*
X1013779Y536898D01*
X1066968Y-871491D02*
Y599370D01*
X940945Y725394D02*
X1066968Y599370D01*
X-830228Y726378D02*
X-778606Y674756D01*
X-828740Y-408465D02*
X-786855Y-450350D01*
X824496Y926181D02*
X875921Y874756D01*
X756890Y926181D02*
X824496D01*
X750000Y725394D02*
X940945D01*
X690229Y785164D02*
X750000Y725394D01*
X690229Y785164D02*
Y929062D01*
X-831803Y627953D02*
X-778606Y574756D01*
X-1292323Y-779528D02*
X-942913Y-1128937D01*
X-827669D02*
X-778606Y-1178000D01*
X-942913Y-1128937D02*
X-827669D01*
X-827078Y-1029528D02*
X-778606Y-1078000D01*
X-964506Y-1029528D02*
X-827078D01*
X-1253937Y-740097D02*
X-964506Y-1029528D01*
X-828456Y-928150D02*
X-778606Y-978000D01*
X-1208571Y-690052D02*
X-970472Y-928150D01*
X-828456D01*
X-1169291Y-630905D02*
X-973425Y-826772D01*
X-829834D02*
X-778606Y-878000D01*
X-973425Y-826772D02*
X-829834D01*
X-1126968Y-574803D02*
X-975394Y-726378D01*
X-830228D02*
X-778606Y-778000D01*
X-975394Y-726378D02*
X-830228D01*
X-831606Y-625000D02*
X-778606Y-678000D01*
X-1071850Y-529528D02*
X-976378Y-625000D01*
X-831606D01*
X-786855Y-469751D02*
X-778606Y-478000D01*
X-786855Y-469751D02*
Y-450350D01*
X-827078Y-529528D02*
X-778606Y-578000D01*
X-922244Y-529528D02*
X-827078D01*
X-1015748Y-436024D02*
X-922244Y-529528D01*
X-830622Y826772D02*
X-778606Y774756D01*
X-830031Y926181D02*
X-778606Y874756D01*
X-828457Y1024606D02*
X-778606Y974756D01*
X-829835Y1125984D02*
X-778606Y1074756D01*
X-840551Y1227362D02*
X-787945Y1174756D01*
X-778606D01*
X612402Y1006890D02*
X690229Y929062D01*
D24*
X-70866Y1523622D02*
D03*
X94488Y640748D02*
D03*
X181102Y-1511811D02*
D03*
X-298228Y113189D02*
D03*
X-1492126Y-1575787D02*
D03*
X248031Y-1570866D02*
D03*
X1555118Y-1275591D02*
D03*
X1550197Y-212598D02*
D03*
X1459646Y1442913D02*
D03*
X980315Y-640748D02*
D03*
D35*
X-826772Y0D02*
D03*
X-1456693Y-1397638D02*
D03*
X0Y0D02*
D03*
Y-826772D02*
D03*
D45*
X-464567Y1345473D02*
D03*
Y1069882D02*
D03*
X-31496Y1069882D02*
D03*
Y1345472D02*
D03*
D50*
X720472Y23622D02*
D03*
D53*
X-1358268Y1061417D02*
D03*
Y1161417D02*
D03*
X-1458268Y1061417D02*
D03*
Y961417D02*
D03*
X-1358268D02*
D03*
X-1458268Y861417D02*
D03*
X-1358268D02*
D03*
X-1458268Y761417D02*
D03*
X-1358268D02*
D03*
X-1458268Y661417D02*
D03*
X-1358268D02*
D03*
X-1458268Y561417D02*
D03*
X-1358268D02*
D03*
X-1458268Y461417D02*
D03*
X-1358268D02*
D03*
X-1458268Y361417D02*
D03*
X-1358268D02*
D03*
Y261417D02*
D03*
X-1458268Y161417D02*
D03*
X-1358268D02*
D03*
X-1458268Y61417D02*
D03*
X-1358268D02*
D03*
X-1458268Y-38583D02*
D03*
X-1358268D02*
D03*
X-1458268Y-138583D02*
D03*
X-1358268D02*
D03*
X-1458268Y-238583D02*
D03*
X-1358268D02*
D03*
X-1458268Y-338583D02*
D03*
X-1358268D02*
D03*
X-1458268Y-438583D02*
D03*
X-1358268D02*
D03*
X-1458268Y-538583D02*
D03*
X-1358268D02*
D03*
X-1458268Y261417D02*
D03*
X341732Y-738583D02*
D03*
Y-638583D02*
D03*
X241732D02*
D03*
X341732Y-538583D02*
D03*
X241732D02*
D03*
X341732Y-438583D02*
D03*
X241732D02*
D03*
X341732Y-338583D02*
D03*
X241732D02*
D03*
X341732Y-238583D02*
D03*
X241732Y-138583D02*
D03*
Y-238583D02*
D03*
Y-38583D02*
D03*
X341732Y-138583D02*
D03*
Y-38583D02*
D03*
Y61417D02*
D03*
X241732D02*
D03*
X341732Y161417D02*
D03*
X241732D02*
D03*
X341732Y261417D02*
D03*
X241732D02*
D03*
X341732Y361417D02*
D03*
X241732Y561417D02*
D03*
X341732D02*
D03*
Y661417D02*
D03*
X241732D02*
D03*
X341732Y761417D02*
D03*
X241732D02*
D03*
X341732Y861417D02*
D03*
X241732D02*
D03*
X341732Y961417D02*
D03*
X241732D02*
D03*
Y1061417D02*
D03*
X341732Y1161417D02*
D03*
Y1061417D02*
D03*
Y-938583D02*
D03*
Y-838583D02*
D03*
X241732D02*
D03*
Y-738583D02*
D03*
Y-938583D02*
D03*
X-1458268Y-638583D02*
D03*
X-1358268D02*
D03*
X-1458268Y-738583D02*
D03*
X-1358268D02*
D03*
X-1458268Y-838583D02*
D03*
X-1358268D02*
D03*
X-1458268Y-938583D02*
D03*
X-1358268D02*
D03*
X241732Y461417D02*
D03*
Y361417D02*
D03*
X341732Y461417D02*
D03*
D54*
X-1458268Y1161417D02*
D03*
X241732D02*
D03*
D55*
X1412402Y1006890D02*
D03*
Y906890D02*
D03*
Y806890D02*
D03*
Y706890D02*
D03*
Y606890D02*
D03*
Y506890D02*
D03*
Y406890D02*
D03*
Y306890D02*
D03*
Y206890D02*
D03*
Y106890D02*
D03*
Y6890D02*
D03*
Y-93110D02*
D03*
X612402D02*
D03*
Y6890D02*
D03*
Y106890D02*
D03*
Y206890D02*
D03*
Y306890D02*
D03*
Y406890D02*
D03*
Y506890D02*
D03*
Y606890D02*
D03*
Y706890D02*
D03*
Y806890D02*
D03*
Y906890D02*
D03*
Y1006890D02*
D03*
Y1206890D02*
D03*
Y1306890D02*
D03*
Y1406890D02*
D03*
Y1106890D02*
D03*
D56*
X1362402Y-243110D02*
D03*
D57*
Y1556890D02*
D03*
D58*
X1566968Y-1571491D02*
D03*
X1466968D02*
D03*
X1366968D02*
D03*
X1266968D02*
D03*
X1166968D02*
D03*
X1066968D02*
D03*
X966968D02*
D03*
X1566968Y-871491D02*
D03*
X1466968D02*
D03*
X1366968D02*
D03*
X1266968D02*
D03*
X1166968D02*
D03*
X1066968D02*
D03*
X-260543Y-1114173D02*
D03*
X-146543D02*
D03*
X-259842Y-1232284D02*
D03*
X-145843D02*
D03*
X1547244Y808772D02*
D03*
X-1279134Y-1563976D02*
D03*
Y-1463976D02*
D03*
X-1179134Y-1563976D02*
D03*
Y-1463976D02*
D03*
X-1079134Y-1563976D02*
D03*
Y-1463976D02*
D03*
X-979134Y-1563976D02*
D03*
Y-1463976D02*
D03*
X-879134Y-1563976D02*
D03*
Y-1463976D02*
D03*
X-779134Y-1563976D02*
D03*
Y-1463976D02*
D03*
X-679134Y-1563976D02*
D03*
Y-1463976D02*
D03*
X-579134Y-1563976D02*
D03*
Y-1463976D02*
D03*
X-136220Y-1462992D02*
D03*
Y-1562992D02*
D03*
X-236220Y-1462992D02*
D03*
Y-1562992D02*
D03*
X-336221Y-1462992D02*
D03*
Y-1562992D02*
D03*
X1544134Y1042716D02*
D03*
X1554134Y1142716D02*
D03*
X1544134Y1242716D02*
D03*
X1554134Y1342716D02*
D03*
X1547244Y694772D02*
D03*
X482284Y1405709D02*
D03*
X472284Y1305709D02*
D03*
X482284Y1205709D02*
D03*
X472284Y1105709D02*
D03*
X482284Y1005709D02*
D03*
X472284Y905709D02*
D03*
X482284Y805709D02*
D03*
X472284Y705709D02*
D03*
X482284Y605709D02*
D03*
X472284Y505709D02*
D03*
D59*
X376969Y-1294291D02*
D03*
D60*
Y-1156491D02*
D03*
D61*
X281969Y-1271491D02*
D03*
Y-1171491D02*
D03*
D62*
X1179528Y-551181D02*
D03*
D63*
X1279528D02*
D03*
X1379528D02*
D03*
D64*
X875921Y374756D02*
D03*
X775921D02*
D03*
X875921Y474756D02*
D03*
X775921D02*
D03*
X875921Y574756D02*
D03*
X775921D02*
D03*
X875921Y674756D02*
D03*
X775921D02*
D03*
X875921Y774756D02*
D03*
X775921D02*
D03*
X875921Y874756D02*
D03*
X775921D02*
D03*
X875921Y974756D02*
D03*
X775921D02*
D03*
X875921Y1074756D02*
D03*
X775921D02*
D03*
X875921Y1174756D02*
D03*
X775921D02*
D03*
X875921Y1274756D02*
D03*
X876000Y-378000D02*
D03*
X776000Y-478000D02*
D03*
X876000D02*
D03*
X776000Y-578000D02*
D03*
X876000D02*
D03*
X776000Y-678000D02*
D03*
X876000D02*
D03*
X776000Y-778000D02*
D03*
X876000D02*
D03*
X776000Y-878000D02*
D03*
X876000D02*
D03*
X776000Y-978000D02*
D03*
X876000D02*
D03*
X776000Y-1078000D02*
D03*
X876000D02*
D03*
X776000Y-1178000D02*
D03*
X876000D02*
D03*
X776000Y-1278000D02*
D03*
X876000D02*
D03*
X-778606Y-1278000D02*
D03*
X-878606D02*
D03*
X-778606Y-1178000D02*
D03*
X-878606D02*
D03*
X-778606Y-1078000D02*
D03*
X-878606D02*
D03*
X-778606Y-978000D02*
D03*
X-878606D02*
D03*
X-778606Y-878000D02*
D03*
X-878606D02*
D03*
X-778606Y-778000D02*
D03*
X-878606D02*
D03*
X-778606Y-678000D02*
D03*
X-878606D02*
D03*
X-778606Y-578000D02*
D03*
X-878606D02*
D03*
X-778606Y-478000D02*
D03*
X-878606D02*
D03*
X-778606Y-378000D02*
D03*
Y1274756D02*
D03*
X-878606Y1174756D02*
D03*
X-778606D02*
D03*
X-878606Y1074756D02*
D03*
X-778606D02*
D03*
X-878606Y974756D02*
D03*
X-778606D02*
D03*
X-878606Y874756D02*
D03*
X-778606D02*
D03*
X-878606Y774756D02*
D03*
X-778606D02*
D03*
X-878606Y674756D02*
D03*
X-778606D02*
D03*
X-878606Y574756D02*
D03*
X-778606D02*
D03*
X-878606Y474756D02*
D03*
X-778606D02*
D03*
X-878606Y374756D02*
D03*
X-778606D02*
D03*
D65*
X775921Y1274756D02*
D03*
X776000Y-378000D02*
D03*
X-878606Y-378000D02*
D03*
Y1274756D02*
D03*
D66*
X187008Y1552165D02*
D03*
D68*
X-624016Y1430118D02*
D03*
X-190945Y1430118D02*
D03*
D69*
X-624016Y1323819D02*
D03*
X-305118Y1398622D02*
D03*
X127953Y1398622D02*
D03*
X-190945Y1323819D02*
D03*
D70*
X-305118Y1032480D02*
D03*
X127953Y1032480D02*
D03*
D71*
X-494094Y871063D02*
D03*
X-61024Y871063D02*
D03*
D72*
X-325118Y738189D02*
D03*
X-285118D02*
D03*
X-9528D02*
D03*
X-49528D02*
D03*
D73*
X-305118Y738189D02*
D03*
X-29516Y738189D02*
D03*
M02*
