M48
;Layer_Color=9474304
;FILE_FORMAT=2:4
INCH,TZ
;TYPE=PLATED
T1F00S00C0.0197
T2F00S00C0.0280
T3F00S00C0.0354
T4F00S00C0.0394
T5F00S00C0.0400
T6F00S00C0.0472
;TYPE=NON_PLATED
T7F00S00C0.0630
T8F00S00C0.0945
T9F00S00C0.1000
T10F00S00C0.1004
%
T01
X15551Y-12756
X15502Y-2126
X9803Y-6407
X2480Y-15709
X1811Y-15118
X-14921Y-15758
X-2982Y1132
X945Y6407
X14596Y14429
X-709Y15236
T02
X1870Y15522
T03
X2417Y-9386
X3417
Y-8386
Y-7386
Y-6386
X2417
Y-5386
X3417
Y-4386
X2417
Y-3386
X3417
Y-2386
X2417
Y-1386
X3417
X2417Y-7386
Y-8386
X-13583
Y-7386
Y-6386
Y-5386
Y-4386
Y-3386
Y-2386
Y-1386
X-14583
Y-2386
Y-3386
Y-4386
Y-5386
Y-6386
Y-7386
Y-8386
Y-9386
X-13583
Y-386
Y614
Y1614
Y2614
Y3614
Y4614
Y5614
Y6614
Y7614
Y8614
Y9614
Y10614
Y11614
X-14583
Y10614
Y9614
Y8614
Y7614
Y6614
Y5614
Y4614
Y3614
Y2614
Y1614
Y614
Y-386
X2417
X3417
Y614
X2417
Y1614
X3417
Y2614
X2417
Y3614
X3417
Y4614
Y5614
X2417
Y6614
X3417
Y7614
X2417
Y8614
X3417
Y9614
X2417
Y10614
X3417
Y11614
X2417
Y4614
T04
X8760Y-12780
Y-11780
Y-10780
Y-9780
Y-8780
Y-7780
Y-6780
Y-5780
Y-4780
Y-3780
X11795Y-5512
X12795
X13795
X7760Y-5780
Y-4780
Y-3780
Y-6780
Y-7780
Y-8780
Y-9780
Y-10780
Y-11780
Y-12780
X2820Y-12715
Y-11715
X-7786Y-11780
Y-12780
X-8786
Y-11780
Y-10780
X-7786
Y-9780
X-8786
Y-8780
X-7786
Y-7780
X-8786
Y-6780
X-7786
Y-5780
X-8786
Y-4780
X-7786
Y-3780
X-8786
Y3748
Y4748
Y5748
Y6748
Y7748
Y8748
Y9748
Y10748
Y11748
Y12748
X-7786
Y11748
Y10748
Y9748
Y8748
Y7748
Y6748
Y5748
Y4748
Y3748
X6124Y4069
Y3069
Y2069
Y1069
Y69
Y-931
Y5069
Y6069
Y7069
Y8069
Y9069
Y10069
Y11069
Y12069
Y13069
Y14069
X7759Y12748
Y11748
Y10748
Y9748
Y8748
Y7748
Y6748
Y5748
Y4748
Y3748
X8759
Y4748
Y5748
Y6748
Y7748
Y8748
Y9748
Y10748
Y11748
Y12748
X14124Y10069
Y9069
Y8069
Y7069
Y6069
Y5069
Y4069
Y3069
Y2069
Y1069
Y69
Y-931
T05
X9670Y-15715
X10670
X11670
X12670
X13670
X14670
X15670
Y-8715
X14670
X13670
X12670
X11670
X10670
X-1465Y-11142
X-2605
X-2598Y-12323
X-1458
X-1362Y-14630
Y-15630
X-2362
Y-14630
X-3362
Y-15630
X-5791Y-15640
X-6791
Y-14640
X-5791
X-7791
X-8791
X-9791
X-10791
X-11791
X-12791
Y-15640
X-11791
X-10791
X-9791
X-8791
X-7791
X4723Y5057
X4823Y6057
X4723Y7057
X4823Y8057
X4723Y9057
X4823Y10057
X4723Y11057
X4823Y12057
X4723Y13057
X4823Y14057
X15541Y13427
X15441Y12427
X15541Y11427
X15441Y10427
X15472Y8088
Y6948
T06
X3770Y-12943
Y-11565
T07
X-4646Y10699
Y13455
X-315Y13455
Y10699
T08
X0Y-8268
X-14567Y-13976
X-8268Y0
X0
T09
X13624Y-2431
T10
X13624Y15569
M30
