M48
;Layer_Color=9474304
;FILE_FORMAT=2:4
INCH,TZ
;TYPE=PLATED
T1F00S00C0.0197
T2F00S00C0.0354
T3F00S00C0.0394
T4F00S00C0.0400
T5F00S00C0.0402
T6F00S00C0.0472
;TYPE=NON_PLATED
T7F00S00C0.0630
T8F00S00C0.0945
T9F00S00C0.1000
T10F00S00C0.1004
T11F00S00C0.1300
%
T01
X15551Y-12756
X15502Y-2126
X9803Y-6407
X1644Y-15669
X-14921Y-15758
X-14587Y-7992
X-2982Y1132
X14596Y14429
X-1102Y15945
T02
X2417Y-5055
Y-4055
Y-3055
Y-2055
Y-1055
X3417
Y-2055
Y-3055
Y-4055
Y-5055
X-13583
X-14583
Y-4055
X-13583
Y-3055
X-14583
Y-2055
X-13583
Y-1055
X-14583
Y-55
X-13583
Y945
X-14583
Y1945
X-13583
Y2945
X-14583
Y3945
X-13583
Y4945
X-14583
Y5945
Y6945
X-13583
Y5945
Y7945
X-14583
Y8945
X-13583
Y9945
X-14583
Y10945
X-13583
Y11945
X-14583
Y12945
X-13583
Y13945
X-14583
X2417
X3417
Y12945
X2417
Y11945
X3417
Y10945
X2417
Y9945
Y8945
X3417
Y9945
Y7945
X2417
Y6945
X3417
Y5945
X2417
Y4945
X3417
Y3945
Y2945
X2417
Y3945
Y1945
X3417
Y945
X2417
Y-55
X3417
Y14945
Y15945
X2417
Y14945
X-13583
X-14583
Y15945
X-13583
T03
X8760Y-12780
Y-11780
Y-10780
Y-9780
Y-8780
Y-7780
Y-6780
Y-5780
Y-4780
Y-3780
X11795Y-5512
X12795
X13795
X7760Y-5780
Y-4780
Y-3780
Y-6780
Y-7780
Y-8780
Y-9780
Y-10780
Y-11780
Y-12780
X2820Y-12715
Y-11715
X-7786Y-11780
Y-12780
X-8786
Y-11780
Y-10780
X-7786
Y-9780
X-8786
Y-8780
X-7786
Y-7780
X-8786
Y-6780
X-7786
Y-5780
X-8786
Y-4780
X-7786
Y-3780
X-8786
Y3748
Y4748
Y5748
Y6748
Y7748
Y8748
Y9748
Y10748
Y11748
Y12748
X-7786
Y11748
Y10748
Y9748
Y8748
Y7748
Y6748
Y5748
Y4748
Y3748
X6124Y4069
Y5069
Y6069
Y7069
Y8069
Y9069
Y10069
Y11069
Y12069
Y13069
Y14069
X7759Y12748
Y11748
Y10748
Y9748
Y8748
Y7748
Y6748
Y5748
Y4748
Y3748
X6124Y3069
Y2069
Y1069
Y69
Y-931
X8759Y3748
Y4748
Y5748
Y6748
Y7748
Y8748
Y9748
Y10748
Y11748
Y12748
X14124Y10069
Y9069
Y8069
Y7069
Y6069
Y5069
Y4069
Y3069
Y2069
Y1069
Y69
Y-931
T04
X9670Y-15715
X10670
X11670
X12670
X13670
X14670
X15670
Y-8715
X14670
X13670
X12670
X11670
X10670
X13665Y-7383
X14665Y-7283
X15665Y-7383
X1152Y-11633
Y-12773
X-1390Y-15258
X-2390Y-15158
X-3390Y-15258
X-4390Y-15158
X-5791Y-15640
X-6791
Y-14640
X-5791
X-4445Y-9661
X-3445
Y-8661
X-4445
Y-7661
X-3445
X-7791Y-14640
X-8791
X-9791
X-10791
X-11791
X-12791
Y-15640
X-11791
X-10791
X-9791
X-8791
X-7791
X4723Y5057
X4823Y6057
X4723Y7057
X4823Y8057
X4723Y9057
X4823Y10057
X4723Y11057
X4823Y12057
X4723Y13057
X4823Y14057
X15541Y13427
X15441Y12427
X15541Y11427
X15441Y10427
X15472Y8088
Y6948
T05
X12480Y-12283
Y-11283
X-7411Y14852
X-8411
X-9823
X-10823
T06
X3770Y-12943
Y-11565
T07
X-4646Y10699
Y13455
X-315Y13455
Y10699
T08
X0Y-8268
X-14567Y-13976
X-8268Y0
X0
T09
X13624Y-2431
T10
X13624Y15569
T11
X3420Y-6965
M30
