G04*
G04 #@! TF.GenerationSoftware,Altium Limited,Altium Designer,23.3.1 (30)*
G04*
G04 Layer_Color=16711935*
%FSLAX26Y26*%
%MOIN*%
G70*
G04*
G04 #@! TF.SameCoordinates,AF54F826-5E14-49BB-B143-2C6BD7E0847E*
G04*
G04*
G04 #@! TF.FilePolarity,Negative*
G04*
G01*
G75*
%ADD10C,0.007874*%
%ADD26R,0.032874X0.057874*%
G04:AMPARAMS|DCode=27|XSize=57.874mil|YSize=57.874mil|CornerRadius=28.937mil|HoleSize=0mil|Usage=FLASHONLY|Rotation=180.000|XOffset=0mil|YOffset=0mil|HoleType=Round|Shape=RoundedRectangle|*
%AMROUNDEDRECTD27*
21,1,0.057874,0.000000,0,0,180.0*
21,1,0.000000,0.057874,0,0,180.0*
1,1,0.057874,0.000000,0.000000*
1,1,0.057874,0.000000,0.000000*
1,1,0.057874,0.000000,0.000000*
1,1,0.057874,0.000000,0.000000*
%
%ADD27ROUNDEDRECTD27*%
%ADD31R,0.070866X0.070866*%
%ADD32C,0.070866*%
%ADD33R,0.070866X0.070866*%
%ADD34C,0.081874*%
%ADD35C,0.082677*%
%ADD36R,0.087874X0.087874*%
%ADD37C,0.087874*%
%ADD38C,0.137874*%
%ADD39C,0.066929*%
%ADD40C,0.157480*%
%ADD41C,0.107874*%
%ADD42C,0.077874*%
%ADD43C,0.094488*%
%ADD44C,0.062992*%
%ADD45R,0.062992X0.062992*%
%ADD46R,0.066929X0.066929*%
%ADD47C,0.070866*%
%ADD48R,0.070866X0.070866*%
%ADD49C,0.047244*%
%ADD78R,0.114173X0.110236*%
%ADD79R,0.090551X0.114173*%
%ADD80R,0.090551X0.094488*%
%ADD81R,0.090551X0.086614*%
G36*
X-300118Y728189D02*
X-315118D01*
Y748189D01*
X-300118D01*
Y728189D01*
D02*
G37*
G36*
X-24528D02*
X-39528D01*
Y748189D01*
X-24528D01*
Y728189D01*
D02*
G37*
D10*
X-1583338Y-1557087D02*
X-1543980D01*
Y-1537408D01*
X-1550540Y-1530848D01*
X-1563659D01*
X-1570218Y-1537408D01*
Y-1557087D01*
X-1550540Y-1491491D02*
X-1543980Y-1498051D01*
Y-1511170D01*
X-1550540Y-1517729D01*
X-1576778D01*
X-1583338Y-1511170D01*
Y-1498051D01*
X-1576778Y-1491491D01*
X-1543980Y-1478372D02*
X-1583338D01*
Y-1458693D01*
X-1576778Y-1452134D01*
X-1570218D01*
X-1563659Y-1458693D01*
Y-1478372D01*
Y-1458693D01*
X-1557099Y-1452134D01*
X-1550540D01*
X-1543980Y-1458693D01*
Y-1478372D01*
Y-1399657D02*
X-1583338D01*
Y-1379978D01*
X-1576778Y-1373419D01*
X-1570218D01*
X-1563659D01*
X-1557099Y-1379978D01*
Y-1399657D01*
Y-1360300D02*
X-1576778D01*
X-1583338Y-1353740D01*
Y-1334061D01*
X-1589897D01*
X-1596457Y-1340621D01*
Y-1347180D01*
X-1583338Y-1334061D02*
X-1557099D01*
X-1543980Y-1281585D02*
X-1583338D01*
Y-1261906D01*
X-1576778Y-1255347D01*
X-1570218D01*
X-1563659Y-1261906D01*
Y-1281585D01*
Y-1261906D01*
X-1557099Y-1255347D01*
X-1550540D01*
X-1543980Y-1261906D01*
Y-1281585D01*
X-1583338Y-1222549D02*
Y-1235668D01*
X-1576778Y-1242227D01*
X-1563659D01*
X-1557099Y-1235668D01*
Y-1222549D01*
X-1563659Y-1215989D01*
X-1570218D01*
Y-1242227D01*
X-1583338Y-1202870D02*
X-1557099D01*
Y-1183191D01*
X-1563659Y-1176632D01*
X-1583338D01*
X-1543980Y-1124155D02*
X-1583338D01*
X-1570218D01*
X-1543980Y-1097917D01*
X-1563659Y-1117596D01*
X-1583338Y-1097917D01*
X-1557099Y-1078238D02*
Y-1065119D01*
X-1563659Y-1058560D01*
X-1583338D01*
Y-1078238D01*
X-1576778Y-1084798D01*
X-1570218Y-1078238D01*
Y-1058560D01*
X-1557099Y-1045440D02*
Y-1019202D01*
X-1583338Y-1045440D01*
Y-1019202D01*
Y-986404D02*
Y-999523D01*
X-1576778Y-1006083D01*
X-1563659D01*
X-1557099Y-999523D01*
Y-986404D01*
X-1563659Y-979845D01*
X-1570218D01*
Y-1006083D01*
X-1583338Y-966726D02*
X-1557099D01*
Y-960166D01*
X-1563659Y-953606D01*
X-1583338D01*
X-1563659D01*
X-1557099Y-947047D01*
X-1563659Y-940487D01*
X-1583338D01*
Y-927368D02*
Y-914249D01*
Y-920809D01*
X-1557099D01*
Y-927368D01*
X-1583338Y-848653D02*
X-1550540D01*
X-1563659D01*
Y-855213D01*
Y-842094D01*
Y-848653D01*
X-1550540D01*
X-1543980Y-842094D01*
X-1583338Y-815856D02*
Y-802736D01*
X-1576778Y-796177D01*
X-1563659D01*
X-1557099Y-802736D01*
Y-815856D01*
X-1563659Y-822415D01*
X-1576778D01*
X-1583338Y-815856D01*
X-1557099Y-783058D02*
X-1583338D01*
X-1570218D01*
X-1563659Y-776498D01*
X-1557099Y-769939D01*
Y-763379D01*
X-1583338Y-704343D02*
X-1543980D01*
X-1557099Y-691224D01*
X-1543980Y-678105D01*
X-1583338D01*
X-1550540Y-638747D02*
X-1543980Y-645307D01*
Y-658426D01*
X-1550540Y-664986D01*
X-1557099D01*
X-1563659Y-658426D01*
Y-645307D01*
X-1570218Y-638747D01*
X-1576778D01*
X-1583338Y-645307D01*
Y-658426D01*
X-1576778Y-664986D01*
X-1543980Y-625628D02*
X-1583338D01*
Y-605949D01*
X-1576778Y-599390D01*
X-1550540D01*
X-1543980Y-605949D01*
Y-625628D01*
X-1550540Y-520675D02*
X-1543980Y-527235D01*
Y-540354D01*
X-1550540Y-546913D01*
X-1576778D01*
X-1583338Y-540354D01*
Y-527235D01*
X-1576778Y-520675D01*
X-1563659D01*
Y-533794D01*
X-1557099Y-507556D02*
X-1583338D01*
X-1570218D01*
X-1563659Y-500996D01*
X-1557099Y-494437D01*
Y-487877D01*
X-1583338Y-461639D02*
Y-448520D01*
X-1576778Y-441960D01*
X-1563659D01*
X-1557099Y-448520D01*
Y-461639D01*
X-1563659Y-468199D01*
X-1576778D01*
X-1583338Y-461639D01*
X-1557099Y-428841D02*
X-1576778D01*
X-1583338Y-422282D01*
Y-402603D01*
X-1557099D01*
X-1596457Y-389484D02*
X-1557099D01*
Y-369805D01*
X-1563659Y-363246D01*
X-1576778D01*
X-1583338Y-369805D01*
Y-389484D01*
X-1570218Y-291090D02*
X-1563659D01*
Y-297650D01*
X-1570218D01*
Y-291090D01*
X-1563659Y-284531D01*
X-1550540D01*
X-1543980Y-291090D01*
Y-304209D01*
X-1550540Y-310769D01*
X-1576778D01*
X-1583338Y-304209D01*
Y-284531D01*
X-1543980Y-232054D02*
X-1576778D01*
X-1583338Y-225495D01*
Y-212375D01*
X-1576778Y-205816D01*
X-1543980D01*
X-1550540Y-166459D02*
X-1543980Y-173018D01*
Y-186137D01*
X-1550540Y-192697D01*
X-1576778D01*
X-1583338Y-186137D01*
Y-173018D01*
X-1576778Y-166459D01*
X-1543980Y-153339D02*
X-1583338D01*
Y-127101D01*
D26*
X-325118Y738189D02*
D03*
X-285118D02*
D03*
X-9528D02*
D03*
X-49528D02*
D03*
D27*
X720472Y23622D02*
D03*
D31*
X1248032Y-1128347D02*
D03*
D32*
Y-1228347D02*
D03*
X-741142Y1485236D02*
D03*
X-982284D02*
D03*
X-31496Y1069882D02*
D03*
Y1345472D02*
D03*
X-464567Y1345473D02*
D03*
Y1069882D02*
D03*
D33*
X-841142Y1485236D02*
D03*
X-1082284D02*
D03*
D34*
X-1279134Y-1563976D02*
D03*
Y-1463976D02*
D03*
X-1179134Y-1563976D02*
D03*
Y-1463976D02*
D03*
X-1079134Y-1563976D02*
D03*
Y-1463976D02*
D03*
X-979134Y-1563976D02*
D03*
Y-1463976D02*
D03*
X-879134Y-1563976D02*
D03*
Y-1463976D02*
D03*
X-779134Y-1563976D02*
D03*
Y-1463976D02*
D03*
X-679134Y-1563976D02*
D03*
Y-1463976D02*
D03*
X-579134Y-1563976D02*
D03*
Y-1463976D02*
D03*
X-344488Y-966142D02*
D03*
X-444488D02*
D03*
X-344488Y-866142D02*
D03*
X-444488D02*
D03*
X-344488Y-766142D02*
D03*
X-444488D02*
D03*
X1066968Y-871491D02*
D03*
X1166968D02*
D03*
X1266968D02*
D03*
X1366968D02*
D03*
X1466968D02*
D03*
X1566968D02*
D03*
X966968Y-1571491D02*
D03*
X1066968D02*
D03*
X1166968D02*
D03*
X1266968D02*
D03*
X1366968D02*
D03*
X1466968D02*
D03*
X1566968D02*
D03*
X1544134Y1042716D02*
D03*
X1554134Y1142716D02*
D03*
X1544134Y1242716D02*
D03*
X1554134Y1342716D02*
D03*
X-438976Y-1515827D02*
D03*
X-338976Y-1525827D02*
D03*
X-238976Y-1515827D02*
D03*
X-138976Y-1525827D02*
D03*
X1547244Y694772D02*
D03*
Y808772D02*
D03*
X482284Y1405709D02*
D03*
X472284Y1305709D02*
D03*
X482284Y1205709D02*
D03*
X472284Y1105709D02*
D03*
X482284Y1005709D02*
D03*
X472284Y905709D02*
D03*
X482284Y805709D02*
D03*
X472284Y705709D02*
D03*
X482284Y605709D02*
D03*
X472284Y505709D02*
D03*
X1366535Y-738346D02*
D03*
X1466535Y-728346D02*
D03*
X1566535Y-738346D02*
D03*
X115157Y-1163276D02*
D03*
Y-1277276D02*
D03*
D35*
X281969Y-1171491D02*
D03*
Y-1271491D02*
D03*
D36*
X376969Y-1156491D02*
D03*
D37*
Y-1294291D02*
D03*
D38*
X341969Y-696491D02*
D03*
D39*
X341732Y894488D02*
D03*
X241732Y794488D02*
D03*
Y894488D02*
D03*
X-1358268Y-505512D02*
D03*
X-1458268D02*
D03*
X-1358268Y-405512D02*
D03*
X-1458268D02*
D03*
X-1358268Y-305512D02*
D03*
X-1458268D02*
D03*
X-1358268Y-205512D02*
D03*
X-1458268D02*
D03*
X241732Y-505512D02*
D03*
Y-305512D02*
D03*
Y-405512D02*
D03*
X341732D02*
D03*
Y-505512D02*
D03*
Y1494488D02*
D03*
Y1594488D02*
D03*
X241732Y1494488D02*
D03*
Y1394488D02*
D03*
X341732D02*
D03*
X241732Y1294488D02*
D03*
X341732D02*
D03*
X241732Y1194488D02*
D03*
X341732D02*
D03*
X241732Y1094488D02*
D03*
X341732D02*
D03*
Y994488D02*
D03*
X241732D02*
D03*
X341732Y794488D02*
D03*
X241732Y694488D02*
D03*
X341732D02*
D03*
X241732Y594488D02*
D03*
X341732D02*
D03*
X241732Y494488D02*
D03*
X341732D02*
D03*
Y394488D02*
D03*
Y294488D02*
D03*
X241732Y394488D02*
D03*
Y194488D02*
D03*
Y294488D02*
D03*
X341732Y194488D02*
D03*
X241732Y94488D02*
D03*
X341732D02*
D03*
X241732Y-5512D02*
D03*
X341732D02*
D03*
X241732Y-105512D02*
D03*
X341732D02*
D03*
X241732Y-205512D02*
D03*
X341732D02*
D03*
Y-305512D02*
D03*
X-1458268Y694488D02*
D03*
X-1358268Y-105512D02*
D03*
X-1458268D02*
D03*
X-1358268Y-5512D02*
D03*
X-1458268D02*
D03*
X-1358268Y94488D02*
D03*
X-1458268D02*
D03*
X-1358268Y194488D02*
D03*
X-1458268D02*
D03*
X-1358268Y294488D02*
D03*
X-1458268D02*
D03*
X-1358268Y394488D02*
D03*
X-1458268D02*
D03*
X-1358268Y494488D02*
D03*
X-1458268D02*
D03*
X-1358268Y594488D02*
D03*
X-1458268D02*
D03*
X-1358268Y694488D02*
D03*
Y794488D02*
D03*
X-1458268D02*
D03*
X-1358268Y894488D02*
D03*
X-1458268D02*
D03*
X-1358268Y994488D02*
D03*
X-1458268D02*
D03*
X-1358268Y1094488D02*
D03*
X-1458268D02*
D03*
X-1358268Y1194488D02*
D03*
X-1458268D02*
D03*
X-1358268Y1294488D02*
D03*
X-1458268D02*
D03*
X-1358268Y1394488D02*
D03*
X-1458268D02*
D03*
Y1494488D02*
D03*
X-1358268Y1594488D02*
D03*
Y1494488D02*
D03*
D40*
X1362402Y1556890D02*
D03*
D41*
Y-243110D02*
D03*
D42*
X612402Y1106890D02*
D03*
Y1406890D02*
D03*
Y1306890D02*
D03*
Y1206890D02*
D03*
Y1006890D02*
D03*
Y906890D02*
D03*
Y806890D02*
D03*
Y706890D02*
D03*
Y606890D02*
D03*
Y506890D02*
D03*
Y406890D02*
D03*
Y306890D02*
D03*
Y206890D02*
D03*
Y106890D02*
D03*
Y6890D02*
D03*
Y-93110D02*
D03*
X1412402D02*
D03*
Y6890D02*
D03*
Y106890D02*
D03*
Y206890D02*
D03*
Y306890D02*
D03*
Y406890D02*
D03*
Y506890D02*
D03*
Y606890D02*
D03*
Y706890D02*
D03*
Y806890D02*
D03*
Y906890D02*
D03*
Y1006890D02*
D03*
D43*
X-1456693Y-1397638D02*
D03*
X0Y0D02*
D03*
X-826772D02*
D03*
X0Y-826772D02*
D03*
D44*
X875921Y374756D02*
D03*
X775921D02*
D03*
X875921Y474756D02*
D03*
X775921D02*
D03*
X875921Y574756D02*
D03*
X775921D02*
D03*
X875921Y674756D02*
D03*
X775921D02*
D03*
X875921Y774756D02*
D03*
X775921D02*
D03*
X875921Y874756D02*
D03*
X775921D02*
D03*
X875921Y974756D02*
D03*
X775921D02*
D03*
X875921Y1074756D02*
D03*
X775921D02*
D03*
X875921Y1174756D02*
D03*
X775921D02*
D03*
X875921Y1274756D02*
D03*
X876000Y-378000D02*
D03*
X776000Y-478000D02*
D03*
X876000D02*
D03*
X776000Y-578000D02*
D03*
X876000D02*
D03*
X776000Y-678000D02*
D03*
X876000D02*
D03*
X776000Y-778000D02*
D03*
X876000D02*
D03*
X776000Y-878000D02*
D03*
X876000D02*
D03*
X776000Y-978000D02*
D03*
X876000D02*
D03*
X776000Y-1078000D02*
D03*
X876000D02*
D03*
X776000Y-1178000D02*
D03*
X876000D02*
D03*
X776000Y-1278000D02*
D03*
X876000D02*
D03*
X-778606Y-1278000D02*
D03*
X-878606D02*
D03*
X-778606Y-1178000D02*
D03*
X-878606D02*
D03*
X-778606Y-1078000D02*
D03*
X-878606D02*
D03*
X-778606Y-978000D02*
D03*
X-878606D02*
D03*
X-778606Y-878000D02*
D03*
X-878606D02*
D03*
X-778606Y-778000D02*
D03*
X-878606D02*
D03*
X-778606Y-678000D02*
D03*
X-878606D02*
D03*
X-778606Y-578000D02*
D03*
X-878606D02*
D03*
X-778606Y-478000D02*
D03*
X-878606D02*
D03*
X-778606Y-378000D02*
D03*
Y1274756D02*
D03*
X-878606Y1174756D02*
D03*
X-778606D02*
D03*
X-878606Y1074756D02*
D03*
X-778606D02*
D03*
X-878606Y974756D02*
D03*
X-778606D02*
D03*
X-878606Y874756D02*
D03*
X-778606D02*
D03*
X-878606Y774756D02*
D03*
X-778606D02*
D03*
X-878606Y674756D02*
D03*
X-778606D02*
D03*
X-878606Y574756D02*
D03*
X-778606D02*
D03*
X-878606Y474756D02*
D03*
X-778606D02*
D03*
X-878606Y374756D02*
D03*
X-778606D02*
D03*
D45*
X775921Y1274756D02*
D03*
X776000Y-378000D02*
D03*
X-878606Y-378000D02*
D03*
Y1274756D02*
D03*
D46*
X241732Y1594488D02*
D03*
X-1458268D02*
D03*
D47*
X1379528Y-551181D02*
D03*
X1279528D02*
D03*
D48*
X1179528D02*
D03*
D49*
X-1458661Y-799213D02*
D03*
X980315Y-640748D02*
D03*
D78*
X-61024Y871063D02*
D03*
X-494094Y871063D02*
D03*
D79*
X127953Y1032480D02*
D03*
X-305118Y1032480D02*
D03*
D80*
X127953Y1398622D02*
D03*
X-190945Y1323819D02*
D03*
X-624016Y1323819D02*
D03*
X-305118Y1398622D02*
D03*
D81*
X-190945Y1430118D02*
D03*
X-624016Y1430118D02*
D03*
M02*
