G04*
G04 #@! TF.GenerationSoftware,Altium Limited,Altium Designer,23.3.1 (30)*
G04*
G04 Layer_Physical_Order=4*
G04 Layer_Color=6736896*
%FSLAX26Y26*%
%MOIN*%
G70*
G04*
G04 #@! TF.SameCoordinates,AF54F826-5E14-49BB-B143-2C6BD7E0847E*
G04*
G04*
G04 #@! TF.FilePolarity,Positive*
G04*
G01*
G75*
%ADD13C,0.078740*%
%ADD23C,0.039370*%
%ADD43C,0.094488*%
%ADD44C,0.062992*%
%ADD45R,0.062992X0.062992*%
%ADD50C,0.011811*%
%ADD57R,0.062992X0.062992*%
%ADD58C,0.074000*%
%ADD59C,0.074803*%
%ADD61C,0.080000*%
%ADD62C,0.130000*%
%ADD63C,0.059055*%
%ADD64C,0.149606*%
%ADD65C,0.100000*%
%ADD66C,0.070000*%
%ADD67C,0.055118*%
%ADD68R,0.055118X0.055118*%
%ADD69R,0.059055X0.059055*%
%ADD70C,0.062992*%
%ADD71R,0.062992X0.062992*%
%ADD72C,0.073910*%
%ADD73C,0.039370*%
D13*
X281969Y-1171491D02*
X361969D01*
X376969Y-1156491D01*
X154528Y-1163669D02*
X274147D01*
X281969Y-1171491D01*
D23*
X-298228Y113189D02*
D03*
X-1458661Y-799213D02*
D03*
X-1492126Y-1575787D02*
D03*
X164370Y-1566929D02*
D03*
X1555118Y-1275591D02*
D03*
X1550197Y-212598D02*
D03*
X1459646Y1442913D02*
D03*
X-110236Y1594488D02*
D03*
X980315Y-640748D02*
D03*
D43*
X-1456693Y-1397638D02*
D03*
X0Y0D02*
D03*
X-826772D02*
D03*
X0Y-826772D02*
D03*
D44*
X1248032Y-1228347D02*
D03*
X-741142Y1485236D02*
D03*
X-982284D02*
D03*
X-31496Y1069882D02*
D03*
Y1345472D02*
D03*
X-464567Y1345473D02*
D03*
Y1069882D02*
D03*
D45*
X1248032Y-1128347D02*
D03*
D50*
X-444488Y-1022047D02*
X-413386Y-1053150D01*
X-236220D01*
X-444488Y-1022047D02*
Y-966142D01*
X-9842Y246063D02*
X293307D01*
X341732Y294488D01*
X-177165Y78740D02*
X-9842Y246063D01*
X-177165Y-994095D02*
Y78740D01*
X-236220Y-1053150D02*
X-177165Y-994095D01*
X-444488Y-766142D02*
Y303543D01*
X196850Y944882D01*
X292126D02*
X341732Y994488D01*
X196850Y944882D02*
X292126D01*
X541339Y-134843D02*
Y336614D01*
Y-134843D02*
X564961Y-158465D01*
X483465Y394488D02*
X541339Y336614D01*
X341732Y394488D02*
X483465D01*
X341732Y794488D02*
X403543Y732677D01*
Y478346D02*
Y732677D01*
Y478346D02*
X448819Y433071D01*
X501969D02*
X528150Y406890D01*
X612402D01*
X448819Y433071D02*
X501969D01*
X-1555118Y-577756D02*
Y-202362D01*
X-1458268Y-105512D01*
X-1555118Y-577756D02*
X-954874Y-1178000D01*
X-1305906Y46063D02*
X-1261811Y1968D01*
X-1409842Y46063D02*
X-1305906D01*
X-1261811Y-594795D02*
Y1968D01*
X-1225197Y546063D02*
X-1046260Y367126D01*
X-1409842Y546063D02*
X-1225197D01*
X-1458268Y684646D02*
X-1424187Y650565D01*
X-981299Y-375307D02*
X-878606Y-478000D01*
X-1424187Y650565D02*
X-1419685Y646063D01*
X-1228740D01*
X-1458268Y684646D02*
Y694488D01*
X-981299Y-375307D02*
Y398622D01*
X-1228740Y646063D02*
X-981299Y398622D01*
X-1046260Y-410346D02*
X-878606Y-578000D01*
X-1046260Y-410346D02*
Y367126D01*
X-1458268Y594488D02*
X-1409842Y546063D01*
Y346063D02*
X-1260433D01*
X-1458268Y394488D02*
X-1409842Y346063D01*
X-1260433D02*
X-1109252Y194882D01*
Y-447354D02*
Y194882D01*
Y-447354D02*
X-878606Y-678000D01*
X-1157480Y-499126D02*
Y95472D01*
Y-499126D02*
X-878606Y-778000D01*
X-1308071Y246063D02*
X-1157480Y95472D01*
X-1458268Y294488D02*
X-1409842Y246063D01*
X-1308071D01*
X-1409842Y146063D02*
X-1298622D01*
X-1213583Y-543023D02*
Y61024D01*
Y-543023D02*
X-878606Y-878000D01*
X-1298622Y146063D02*
X-1213583Y61024D01*
X-1458268Y194488D02*
X-1409842Y146063D01*
X-1458268Y94488D02*
X-1409842Y46063D01*
X-1261811Y-594795D02*
X-878606Y-978000D01*
X-1406693Y-549913D02*
Y-57087D01*
Y-549913D02*
X-878606Y-1078000D01*
X-1458268Y-5512D02*
X-1406693Y-57087D01*
X-954874Y-1178000D02*
X-878606D01*
X533465Y-186024D02*
X719488D01*
X1412402Y506890D01*
X505906Y-158464D02*
X533465Y-186024D01*
X647047Y-158465D02*
X1412402Y606890D01*
X564961Y-158465D02*
X647047D01*
X505906Y-158464D02*
Y288386D01*
X448228Y346063D02*
X505906Y288386D01*
X290158Y346063D02*
X448228D01*
X241732Y394488D02*
X290158Y346063D01*
D57*
X-841142Y1485236D02*
D03*
X-1082284D02*
D03*
D58*
X-1279134Y-1563976D02*
D03*
Y-1463976D02*
D03*
X-1179134Y-1563976D02*
D03*
Y-1463976D02*
D03*
X-1079134Y-1563976D02*
D03*
Y-1463976D02*
D03*
X-979134Y-1563976D02*
D03*
Y-1463976D02*
D03*
X-879134Y-1563976D02*
D03*
Y-1463976D02*
D03*
X-779134Y-1563976D02*
D03*
Y-1463976D02*
D03*
X-679134Y-1563976D02*
D03*
Y-1463976D02*
D03*
X-579134Y-1563976D02*
D03*
Y-1463976D02*
D03*
X-344488Y-966142D02*
D03*
X-444488D02*
D03*
X-344488Y-866142D02*
D03*
X-444488D02*
D03*
X-344488Y-766142D02*
D03*
X-444488D02*
D03*
X1066968Y-871491D02*
D03*
X1166968D02*
D03*
X1266968D02*
D03*
X1366968D02*
D03*
X1466968D02*
D03*
X1566968D02*
D03*
X966968Y-1571491D02*
D03*
X1066968D02*
D03*
X1166968D02*
D03*
X1266968D02*
D03*
X1366968D02*
D03*
X1466968D02*
D03*
X1566968D02*
D03*
X1544134Y1042716D02*
D03*
X1554134Y1142716D02*
D03*
X1544134Y1242716D02*
D03*
X1554134Y1342716D02*
D03*
X-438976Y-1515827D02*
D03*
X-338976Y-1525827D02*
D03*
X-238976Y-1515827D02*
D03*
X-138976Y-1525827D02*
D03*
X1547244Y694772D02*
D03*
Y808772D02*
D03*
X482284Y1405709D02*
D03*
X472284Y1305709D02*
D03*
X482284Y1205709D02*
D03*
X472284Y1105709D02*
D03*
X482284Y1005709D02*
D03*
X472284Y905709D02*
D03*
X482284Y805709D02*
D03*
X472284Y705709D02*
D03*
X482284Y605709D02*
D03*
X472284Y505709D02*
D03*
X1366535Y-738346D02*
D03*
X1466535Y-728346D02*
D03*
X1566535Y-738346D02*
D03*
X115157Y-1163276D02*
D03*
Y-1277276D02*
D03*
D59*
X281969Y-1171491D02*
D03*
Y-1271491D02*
D03*
D61*
X376969Y-1294291D02*
D03*
D62*
X341969Y-696491D02*
D03*
D63*
X341732Y894488D02*
D03*
X241732Y794488D02*
D03*
Y894488D02*
D03*
X-1358268Y-505512D02*
D03*
X-1458268D02*
D03*
X-1358268Y-405512D02*
D03*
X-1458268D02*
D03*
X-1358268Y-305512D02*
D03*
X-1458268D02*
D03*
X-1358268Y-205512D02*
D03*
X-1458268D02*
D03*
X241732Y-505512D02*
D03*
Y-305512D02*
D03*
Y-405512D02*
D03*
X341732D02*
D03*
Y-505512D02*
D03*
Y1494488D02*
D03*
Y1594488D02*
D03*
X241732Y1494488D02*
D03*
Y1394488D02*
D03*
X341732D02*
D03*
X241732Y1294488D02*
D03*
X341732D02*
D03*
X241732Y1194488D02*
D03*
X341732D02*
D03*
X241732Y1094488D02*
D03*
X341732D02*
D03*
Y994488D02*
D03*
X241732D02*
D03*
X341732Y794488D02*
D03*
X241732Y694488D02*
D03*
X341732D02*
D03*
X241732Y594488D02*
D03*
X341732D02*
D03*
X241732Y494488D02*
D03*
X341732D02*
D03*
Y394488D02*
D03*
Y294488D02*
D03*
X241732Y394488D02*
D03*
Y194488D02*
D03*
Y294488D02*
D03*
X341732Y194488D02*
D03*
X241732Y94488D02*
D03*
X341732D02*
D03*
X241732Y-5512D02*
D03*
X341732D02*
D03*
X241732Y-105512D02*
D03*
X341732D02*
D03*
X241732Y-205512D02*
D03*
X341732D02*
D03*
Y-305512D02*
D03*
X-1458268Y694488D02*
D03*
X-1358268Y-105512D02*
D03*
X-1458268D02*
D03*
X-1358268Y-5512D02*
D03*
X-1458268D02*
D03*
X-1358268Y94488D02*
D03*
X-1458268D02*
D03*
X-1358268Y194488D02*
D03*
X-1458268D02*
D03*
X-1358268Y294488D02*
D03*
X-1458268D02*
D03*
X-1358268Y394488D02*
D03*
X-1458268D02*
D03*
X-1358268Y494488D02*
D03*
X-1458268D02*
D03*
X-1358268Y594488D02*
D03*
X-1458268D02*
D03*
X-1358268Y694488D02*
D03*
Y794488D02*
D03*
X-1458268D02*
D03*
X-1358268Y894488D02*
D03*
X-1458268D02*
D03*
X-1358268Y994488D02*
D03*
X-1458268D02*
D03*
X-1358268Y1094488D02*
D03*
X-1458268D02*
D03*
X-1358268Y1194488D02*
D03*
X-1458268D02*
D03*
X-1358268Y1294488D02*
D03*
X-1458268D02*
D03*
X-1358268Y1394488D02*
D03*
X-1458268D02*
D03*
Y1494488D02*
D03*
X-1358268Y1594488D02*
D03*
Y1494488D02*
D03*
D64*
X1362402Y1556890D02*
D03*
D65*
Y-243110D02*
D03*
D66*
X612402Y1106890D02*
D03*
Y1406890D02*
D03*
Y1306890D02*
D03*
Y1206890D02*
D03*
Y1006890D02*
D03*
Y906890D02*
D03*
Y806890D02*
D03*
Y706890D02*
D03*
Y606890D02*
D03*
Y506890D02*
D03*
Y406890D02*
D03*
Y306890D02*
D03*
Y206890D02*
D03*
Y106890D02*
D03*
Y6890D02*
D03*
Y-93110D02*
D03*
X1412402D02*
D03*
Y6890D02*
D03*
Y106890D02*
D03*
Y206890D02*
D03*
Y306890D02*
D03*
Y406890D02*
D03*
Y506890D02*
D03*
Y606890D02*
D03*
Y706890D02*
D03*
Y806890D02*
D03*
Y906890D02*
D03*
Y1006890D02*
D03*
D67*
X875921Y374756D02*
D03*
X775921D02*
D03*
X875921Y474756D02*
D03*
X775921D02*
D03*
X875921Y574756D02*
D03*
X775921D02*
D03*
X875921Y674756D02*
D03*
X775921D02*
D03*
X875921Y774756D02*
D03*
X775921D02*
D03*
X875921Y874756D02*
D03*
X775921D02*
D03*
X875921Y974756D02*
D03*
X775921D02*
D03*
X875921Y1074756D02*
D03*
X775921D02*
D03*
X875921Y1174756D02*
D03*
X775921D02*
D03*
X875921Y1274756D02*
D03*
X876000Y-378000D02*
D03*
X776000Y-478000D02*
D03*
X876000D02*
D03*
X776000Y-578000D02*
D03*
X876000D02*
D03*
X776000Y-678000D02*
D03*
X876000D02*
D03*
X776000Y-778000D02*
D03*
X876000D02*
D03*
X776000Y-878000D02*
D03*
X876000D02*
D03*
X776000Y-978000D02*
D03*
X876000D02*
D03*
X776000Y-1078000D02*
D03*
X876000D02*
D03*
X776000Y-1178000D02*
D03*
X876000D02*
D03*
X776000Y-1278000D02*
D03*
X876000D02*
D03*
X-778606Y-1278000D02*
D03*
X-878606D02*
D03*
X-778606Y-1178000D02*
D03*
X-878606D02*
D03*
X-778606Y-1078000D02*
D03*
X-878606D02*
D03*
X-778606Y-978000D02*
D03*
X-878606D02*
D03*
X-778606Y-878000D02*
D03*
X-878606D02*
D03*
X-778606Y-778000D02*
D03*
X-878606D02*
D03*
X-778606Y-678000D02*
D03*
X-878606D02*
D03*
X-778606Y-578000D02*
D03*
X-878606D02*
D03*
X-778606Y-478000D02*
D03*
X-878606D02*
D03*
X-778606Y-378000D02*
D03*
Y1274756D02*
D03*
X-878606Y1174756D02*
D03*
X-778606D02*
D03*
X-878606Y1074756D02*
D03*
X-778606D02*
D03*
X-878606Y974756D02*
D03*
X-778606D02*
D03*
X-878606Y874756D02*
D03*
X-778606D02*
D03*
X-878606Y774756D02*
D03*
X-778606D02*
D03*
X-878606Y674756D02*
D03*
X-778606D02*
D03*
X-878606Y574756D02*
D03*
X-778606D02*
D03*
X-878606Y474756D02*
D03*
X-778606D02*
D03*
X-878606Y374756D02*
D03*
X-778606D02*
D03*
D68*
X775921Y1274756D02*
D03*
X776000Y-378000D02*
D03*
X-878606Y-378000D02*
D03*
Y1274756D02*
D03*
D69*
X241732Y1594488D02*
D03*
X-1458268D02*
D03*
D70*
X1379528Y-551181D02*
D03*
X1279528D02*
D03*
D71*
X1179528D02*
D03*
D72*
X376969Y-1156491D02*
D03*
D73*
X1208912Y-1223676D02*
X1243361D01*
X1248032Y-1228347D01*
X963583Y-978346D02*
X1208912Y-1223676D01*
X1394685Y-636811D02*
X1449220Y-691346D01*
X1137795Y-636811D02*
X1394685D01*
X963583Y-811024D02*
X1137795Y-636811D01*
X1466535Y-728346D02*
Y-718976D01*
X1449220Y-701661D02*
X1466535Y-718976D01*
X1449220Y-701661D02*
Y-691346D01*
X963583Y-978346D02*
Y-811024D01*
M02*
