G04*
G04 #@! TF.GenerationSoftware,Altium Limited,Altium Designer,23.3.1 (30)*
G04*
G04 Layer_Color=65535*
%FSLAX26Y26*%
%MOIN*%
G70*
G04*
G04 #@! TF.SameCoordinates,AF54F826-5E14-49BB-B143-2C6BD7E0847E*
G04*
G04*
G04 #@! TF.FilePolarity,Positive*
G04*
G01*
G75*
%ADD10C,0.007874*%
%ADD11C,0.006000*%
%ADD12C,0.005906*%
%ADD13C,0.078740*%
%ADD14C,0.009842*%
%ADD15C,0.008000*%
%ADD16C,0.005000*%
%ADD17C,0.003937*%
%ADD18C,0.009055*%
%ADD19C,0.010000*%
G36*
X572718Y-1097671D02*
X573899D01*
Y-1102791D01*
X572718D01*
Y-1103971D01*
X571538D01*
Y-1105551D01*
X570359D01*
Y-1106731D01*
X568779D01*
Y-1107911D01*
X567598D01*
Y-1109091D01*
X566418D01*
Y-1110271D01*
X565239D01*
Y-1111841D01*
X562479D01*
Y-1113031D01*
X571538D01*
Y-1114211D01*
X573899D01*
Y-1120511D01*
X572718D01*
Y-1121691D01*
X541218D01*
Y-1119321D01*
X540038D01*
Y-1116571D01*
X541218D01*
Y-1114211D01*
X543578D01*
Y-1113031D01*
X551458D01*
Y-1111841D01*
X549879D01*
Y-1110271D01*
X548698D01*
Y-1109091D01*
X547519D01*
Y-1107911D01*
X546338D01*
Y-1106731D01*
X543578D01*
Y-1105551D01*
X542399D01*
Y-1103971D01*
X541218D01*
Y-1102791D01*
X540038D01*
Y-1099251D01*
X541218D01*
Y-1097671D01*
X542399D01*
Y-1096491D01*
X547519D01*
Y-1097671D01*
X548698D01*
Y-1099251D01*
X549879D01*
Y-1100431D01*
X551458D01*
Y-1101611D01*
X552639D01*
Y-1102791D01*
X553818D01*
Y-1103971D01*
X554999D01*
Y-1105551D01*
X556178D01*
Y-1106731D01*
X558938D01*
Y-1105551D01*
X560119D01*
Y-1103971D01*
X561298D01*
Y-1102791D01*
X562479D01*
Y-1101611D01*
X564058D01*
Y-1100431D01*
X565239D01*
Y-1099251D01*
X566418D01*
Y-1097671D01*
X567598D01*
Y-1096491D01*
X572718D01*
Y-1097671D01*
D02*
G37*
G36*
X571538Y-1125621D02*
X573899D01*
Y-1131921D01*
X572718D01*
Y-1133101D01*
X571538D01*
Y-1134291D01*
X570359D01*
Y-1135471D01*
X568779D01*
Y-1137041D01*
X566418D01*
Y-1138221D01*
X565239D01*
Y-1139401D01*
X564058D01*
Y-1140581D01*
X561298D01*
Y-1141771D01*
X560119D01*
Y-1143341D01*
X558938D01*
Y-1144521D01*
X556178D01*
Y-1145701D01*
X572718D01*
Y-1146881D01*
X573899D01*
Y-1153181D01*
X572718D01*
Y-1154361D01*
X542399D01*
Y-1153181D01*
X541218D01*
Y-1150821D01*
X540038D01*
Y-1149641D01*
X541218D01*
Y-1146881D01*
X542399D01*
Y-1145701D01*
X543578D01*
Y-1144521D01*
X545159D01*
Y-1143341D01*
X547519D01*
Y-1141771D01*
X548698D01*
Y-1140581D01*
X549879D01*
Y-1139401D01*
X552639D01*
Y-1138221D01*
X553818D01*
Y-1137041D01*
X554999D01*
Y-1135471D01*
X557759D01*
Y-1134291D01*
X558938D01*
Y-1133101D01*
X541218D01*
Y-1129171D01*
X540038D01*
Y-1127991D01*
X541218D01*
Y-1125621D01*
X543578D01*
Y-1124441D01*
X571538D01*
Y-1125621D01*
D02*
G37*
G36*
X567598Y-1158301D02*
X570359D01*
Y-1159481D01*
X571538D01*
Y-1160661D01*
X572718D01*
Y-1163421D01*
X573899D01*
Y-1168541D01*
X575078D01*
Y-1170901D01*
X573899D01*
Y-1174841D01*
X572718D01*
Y-1177201D01*
X571538D01*
Y-1178381D01*
X570359D01*
Y-1179561D01*
X568779D01*
Y-1181141D01*
X564058D01*
Y-1179561D01*
X562479D01*
Y-1174841D01*
X564058D01*
Y-1173261D01*
X565239D01*
Y-1172081D01*
X566418D01*
Y-1165781D01*
X561298D01*
Y-1169721D01*
X560119D01*
Y-1174841D01*
X558938D01*
Y-1177201D01*
X557759D01*
Y-1178381D01*
X556178D01*
Y-1179561D01*
X553818D01*
Y-1181141D01*
X546338D01*
Y-1179561D01*
X543578D01*
Y-1178381D01*
X542399D01*
Y-1176021D01*
X541218D01*
Y-1173261D01*
X540038D01*
Y-1164601D01*
X541218D01*
Y-1162241D01*
X542399D01*
Y-1160661D01*
X543578D01*
Y-1159481D01*
X545159D01*
Y-1158301D01*
X546338D01*
Y-1159481D01*
X548698D01*
Y-1160661D01*
X549879D01*
Y-1165781D01*
X548698D01*
Y-1166961D01*
X547519D01*
Y-1170901D01*
X548698D01*
Y-1172081D01*
X552639D01*
Y-1168541D01*
X553818D01*
Y-1163421D01*
X554999D01*
Y-1160661D01*
X556178D01*
Y-1159481D01*
X557759D01*
Y-1158301D01*
X558938D01*
Y-1157121D01*
X567598D01*
Y-1158301D01*
D02*
G37*
G36*
X547519Y-1184681D02*
X549879D01*
Y-1185861D01*
X552639D01*
Y-1187431D01*
X554999D01*
Y-1188621D01*
X557759D01*
Y-1189801D01*
X560119D01*
Y-1190981D01*
X562479D01*
Y-1192161D01*
X565239D01*
Y-1193731D01*
X567598D01*
Y-1194921D01*
X570359D01*
Y-1196101D01*
X572718D01*
Y-1197281D01*
X573899D01*
Y-1202401D01*
X572718D01*
Y-1204761D01*
X570359D01*
Y-1206331D01*
X566418D01*
Y-1207511D01*
X564058D01*
Y-1208691D01*
X561298D01*
Y-1209881D01*
X558938D01*
Y-1211061D01*
X556178D01*
Y-1212631D01*
X553818D01*
Y-1213811D01*
X551458D01*
Y-1214991D01*
X548698D01*
Y-1216171D01*
X546338D01*
Y-1217361D01*
X542399D01*
Y-1216171D01*
X541218D01*
Y-1213811D01*
X540038D01*
Y-1211061D01*
X541218D01*
Y-1209881D01*
X542399D01*
Y-1208691D01*
X546338D01*
Y-1207511D01*
X548698D01*
Y-1206331D01*
X551458D01*
Y-1204761D01*
X553818D01*
Y-1203581D01*
X556178D01*
Y-1202401D01*
X558938D01*
Y-1201211D01*
X561298D01*
Y-1200031D01*
X560119D01*
Y-1198461D01*
X557759D01*
Y-1197281D01*
X554999D01*
Y-1196101D01*
X551458D01*
Y-1194921D01*
X548698D01*
Y-1193731D01*
X546338D01*
Y-1192161D01*
X543578D01*
Y-1190981D01*
X541218D01*
Y-1189801D01*
X540038D01*
Y-1187431D01*
X541218D01*
Y-1184681D01*
X542399D01*
Y-1183501D01*
X547519D01*
Y-1184681D01*
D02*
G37*
D10*
X1251968Y-1052756D02*
X1244094D01*
X1251968D01*
X-912795Y1485236D02*
X-920669D01*
X-912795D01*
X-1153937D02*
X-1161811D01*
X-1153937D01*
X466969Y-696691D02*
X466571Y-686628D01*
X465364Y-676629D01*
X463356Y-666759D01*
X460561Y-657083D01*
X456995Y-647664D01*
X452683Y-638562D01*
X447651Y-629837D01*
X441934Y-621546D01*
X435568Y-613741D01*
X428594Y-606475D01*
X421058Y-599793D01*
X413008Y-593740D01*
X404497Y-588355D01*
X395580Y-583672D01*
X386316Y-579722D01*
X376763Y-576532D01*
X366984Y-574120D01*
X357043Y-572504D01*
X347004Y-571693D01*
X336933D01*
X326894Y-572504D01*
X316953Y-574120D01*
X307174Y-576532D01*
X297621Y-579722D01*
X288356Y-583672D01*
X279440Y-588355D01*
X270929Y-593740D01*
X262879Y-599793D01*
X255343Y-606475D01*
X248369Y-613741D01*
X242003Y-621546D01*
X236285Y-629837D01*
X231254Y-638562D01*
X226942Y-647664D01*
X223376Y-657083D01*
X220581Y-666759D01*
X218573Y-676629D01*
X217366Y-686628D01*
X216969Y-696691D01*
X505906Y42439D02*
X495984Y41104D01*
X486768Y37192D01*
X478916Y30982D01*
X472985Y22916D01*
X469398Y13570D01*
X468411Y3607D01*
X470093Y-6262D01*
X474325Y-15334D01*
X480806Y-22965D01*
X489074Y-28610D01*
X498541Y-31867D01*
X508532Y-32505D01*
X505906Y142833D02*
X495984Y141497D01*
X486768Y137585D01*
X478916Y131375D01*
X472985Y123310D01*
X469398Y113963D01*
X468411Y104001D01*
X470093Y94132D01*
X474325Y85059D01*
X480806Y77429D01*
X489074Y71784D01*
X498541Y68527D01*
X508532Y67889D01*
X505906Y241258D02*
X495984Y239923D01*
X486768Y236011D01*
X478916Y229801D01*
X472985Y221735D01*
X469398Y212389D01*
X468411Y202426D01*
X470093Y192557D01*
X474325Y183485D01*
X480806Y175854D01*
X489074Y170209D01*
X498541Y166952D01*
X508532Y166314D01*
X505906Y342636D02*
X495984Y341300D01*
X486768Y337388D01*
X478916Y331179D01*
X472985Y323113D01*
X469398Y313767D01*
X468411Y303804D01*
X470093Y293935D01*
X474325Y284863D01*
X480806Y277232D01*
X489074Y271587D01*
X498541Y268330D01*
X508532Y267692D01*
X505906Y439093D02*
X495984Y437757D01*
X486768Y433845D01*
X478916Y427635D01*
X472985Y419570D01*
X469398Y410223D01*
X468411Y400261D01*
X470093Y390392D01*
X474325Y381319D01*
X480806Y373689D01*
X489074Y368044D01*
X498541Y364787D01*
X508532Y364149D01*
X1307087Y-1278347D02*
X1407087D01*
X1307087Y-1078347D02*
X1407087D01*
X1307087Y-1278347D02*
Y-1078347D01*
X1407087Y-1278347D02*
Y-1078347D01*
X-891142Y1644291D02*
X-691142D01*
X-891142Y1544291D02*
X-691142D01*
X-891142D02*
Y1644291D01*
X-691142Y1544291D02*
Y1644291D01*
X-932284Y1544291D02*
Y1644291D01*
X-1132284Y1544291D02*
Y1644291D01*
Y1544291D02*
X-932284D01*
X-1132284Y1644291D02*
X-932284D01*
X237969Y-1231491D02*
X511969D01*
Y-1360491D02*
Y-1231491D01*
Y-1088731D01*
X236379Y-1362041D02*
X586968D01*
Y-1345491D01*
X466969Y-821591D02*
X1366968D01*
X466969D02*
Y-696591D01*
Y-1621591D02*
X1366968D01*
X1613919D01*
X1366968Y-821591D02*
X1613919D01*
X216969Y-1621591D02*
X466969D01*
X1613919D02*
Y-821591D01*
X216969Y-1621591D02*
Y-696691D01*
X1303150Y-793307D02*
X1312008Y-802165D01*
X1008858Y-767716D02*
Y-733268D01*
Y-767716D02*
X1034449Y-793307D01*
X1049213D01*
X421260Y161909D02*
X455709Y196358D01*
X421260Y-371063D02*
Y161909D01*
Y-371063D02*
X559055Y-508858D01*
Y-669291D02*
X584646Y-694882D01*
X559055Y-669291D02*
Y-348425D01*
X580709Y-326772D01*
X455709Y-30512D02*
X480315Y-55118D01*
X455709Y-30512D02*
Y423228D01*
X478346Y445866D01*
Y446850D01*
X1364173Y753937D02*
X1520079D01*
X1318898Y716535D02*
X1345472D01*
X1364173Y735236D01*
Y772638D01*
X1347441Y789370D02*
X1364173Y772638D01*
X1317913Y789370D02*
X1347441D01*
X1312008Y-937008D02*
X1332677Y-957677D01*
X1312008Y-937008D02*
Y-802165D01*
X1049213Y-793307D02*
X1303150D01*
X1602362Y-1165354D02*
Y-920276D01*
X1333661Y-1165354D02*
X1602362D01*
X1333661D02*
Y-920276D01*
X1602362D01*
X-1513063Y-562228D02*
Y2045055D01*
X396386D01*
Y-562228D02*
Y2045055D01*
X-1513063Y-562228D02*
X396386D01*
X191732Y1644488D02*
X391732D01*
Y-555512D02*
Y1644488D01*
X191732Y-555512D02*
Y1644488D01*
Y-555512D02*
X391732D01*
X-1508268D02*
Y1644488D01*
X-1308268Y-555512D02*
Y1644488D01*
X-1508268D02*
X-1308268D01*
X-1508268Y-555512D02*
X-1308268D01*
X1490158Y-624016D02*
Y-438976D01*
X1068898Y-624016D02*
Y-438976D01*
Y-624016D02*
X1490158D01*
X1068898Y-438976D02*
X1490158D01*
X1068898Y-458661D02*
X1490158D01*
X-1206652Y-1649600D02*
Y-1610243D01*
X-1193533Y-1623362D01*
X-1180414Y-1610243D01*
Y-1649600D01*
X-1147616Y-1610243D02*
X-1160735D01*
X-1167294Y-1616802D01*
Y-1643040D01*
X-1160735Y-1649600D01*
X-1147616D01*
X-1141056Y-1643040D01*
Y-1616802D01*
X-1147616Y-1610243D01*
X-1127937Y-1649600D02*
Y-1610243D01*
X-1101699Y-1649600D01*
Y-1610243D01*
X-1088580D02*
X-1075460D01*
X-1082020D01*
Y-1649600D01*
X-1088580D01*
X-1075460D01*
X-1055782Y-1610243D02*
X-1029543D01*
X-1042663D01*
Y-1649600D01*
X-996746Y-1610243D02*
X-1009865D01*
X-1016424Y-1616802D01*
Y-1643040D01*
X-1009865Y-1649600D01*
X-996746D01*
X-990186Y-1643040D01*
Y-1616802D01*
X-996746Y-1610243D01*
X-977067Y-1649600D02*
Y-1610243D01*
X-957388D01*
X-950829Y-1616802D01*
Y-1629921D01*
X-957388Y-1636481D01*
X-977067D01*
X-963948D02*
X-950829Y-1649600D01*
X-661417Y-1354343D02*
Y-1380582D01*
X-648298Y-1393701D01*
X-635179Y-1380582D01*
Y-1354343D01*
X-595822Y-1360903D02*
X-602381Y-1354343D01*
X-615500D01*
X-622060Y-1360903D01*
Y-1367463D01*
X-615500Y-1374022D01*
X-602381D01*
X-595822Y-1380582D01*
Y-1387141D01*
X-602381Y-1393701D01*
X-615500D01*
X-622060Y-1387141D01*
X-930455Y-1354343D02*
X-956693D01*
Y-1374022D01*
X-943574Y-1367463D01*
X-937014D01*
X-930455Y-1374022D01*
Y-1387141D01*
X-937014Y-1393701D01*
X-950133D01*
X-956693Y-1387141D01*
X-917336Y-1354343D02*
Y-1380582D01*
X-904216Y-1393701D01*
X-891097Y-1380582D01*
Y-1354343D01*
X-1249352Y-1360903D02*
X-1255912Y-1354343D01*
X-1269031D01*
X-1275591Y-1360903D01*
Y-1387141D01*
X-1269031Y-1393701D01*
X-1255912D01*
X-1249352Y-1387141D01*
Y-1374022D01*
X-1262472D01*
X-1236233Y-1393701D02*
Y-1354343D01*
X-1209995Y-1393701D01*
Y-1354343D01*
X-1196876D02*
Y-1393701D01*
X-1177197D01*
X-1170638Y-1387141D01*
Y-1360903D01*
X-1177197Y-1354343D01*
X-1196876D01*
X-824155Y-251981D02*
X-837275D01*
X-830715D01*
Y-284779D01*
X-837275Y-291339D01*
X-843834D01*
X-850394Y-284779D01*
X-784798Y-291339D02*
X-811036D01*
X-784798Y-265100D01*
Y-258541D01*
X-791358Y-251981D01*
X-804477D01*
X-811036Y-258541D01*
X-279528Y-750667D02*
X-272968Y-744107D01*
X-259849D01*
X-253289Y-750667D01*
Y-757226D01*
X-259849Y-763786D01*
X-266409D01*
X-259849D01*
X-253289Y-770346D01*
Y-776905D01*
X-259849Y-783465D01*
X-272968D01*
X-279528Y-776905D01*
X-240170D02*
X-233611Y-783465D01*
X-220492D01*
X-213932Y-776905D01*
Y-750667D01*
X-220492Y-744107D01*
X-233611D01*
X-240170Y-750667D01*
Y-757226D01*
X-233611Y-763786D01*
X-213932D01*
X-562999Y-783465D02*
Y-744107D01*
X-582677Y-763786D01*
X-556439D01*
X-543320Y-750667D02*
X-536760Y-744107D01*
X-523641D01*
X-517082Y-750667D01*
Y-757226D01*
X-523641Y-763786D01*
X-530201D01*
X-523641D01*
X-517082Y-770346D01*
Y-776905D01*
X-523641Y-783465D01*
X-536760D01*
X-543320Y-776905D01*
X-559055Y-948832D02*
X-532817D01*
Y-955391D01*
X-559055Y-981629D01*
Y-988189D01*
X-551181Y-885827D02*
X-538062D01*
X-544621D01*
Y-846469D01*
X-551181Y-853029D01*
X-267717D02*
X-261157Y-846469D01*
X-248038D01*
X-241478Y-853029D01*
Y-859589D01*
X-248038Y-866148D01*
X-254597D01*
X-248038D01*
X-241478Y-872708D01*
Y-879267D01*
X-248038Y-885827D01*
X-261157D01*
X-267717Y-879267D01*
X-241478Y-986221D02*
X-267717D01*
X-241478Y-959982D01*
Y-953423D01*
X-248038Y-946863D01*
X-261157D01*
X-267717Y-953423D01*
X-139729Y1462919D02*
Y1423562D01*
X-113491D01*
X-100371Y1462919D02*
X-87252D01*
X-93812D01*
Y1423562D01*
X-100371D01*
X-87252D01*
X-67574D02*
Y1462919D01*
X-41335Y1423562D01*
Y1462919D01*
X-28216D02*
Y1423562D01*
Y1436681D01*
X-1978Y1462919D01*
X-21657Y1443241D01*
X-1978Y1423562D01*
X11141Y1417002D02*
X37379D01*
X50499Y1462919D02*
Y1423562D01*
X70177D01*
X76737Y1430121D01*
Y1436681D01*
X70177Y1443241D01*
X50499D01*
X70177D01*
X76737Y1449800D01*
Y1456360D01*
X70177Y1462919D01*
X50499D01*
X-1243428Y1427172D02*
Y1466529D01*
X-1223749D01*
X-1217189Y1459969D01*
Y1446850D01*
X-1223749Y1440291D01*
X-1243428D01*
X-1230309D02*
X-1217189Y1427172D01*
X-1177832D02*
X-1204070D01*
X-1177832Y1453410D01*
Y1459969D01*
X-1184392Y1466529D01*
X-1197511D01*
X-1204070Y1459969D01*
X-849717Y1371387D02*
X-856277Y1377946D01*
X-869396D01*
X-875956Y1371387D01*
Y1364827D01*
X-869396Y1358268D01*
X-856277D01*
X-849717Y1351708D01*
Y1345149D01*
X-856277Y1338589D01*
X-869396D01*
X-875956Y1345149D01*
X-836598Y1338589D02*
X-823479D01*
X-830039D01*
Y1377946D01*
X-836598D01*
X-797241Y1364827D02*
X-784122D01*
X-777562Y1358268D01*
Y1338589D01*
X-797241D01*
X-803801Y1345149D01*
X-797241Y1351708D01*
X-777562D01*
X-764443Y1364827D02*
X-751324Y1338589D01*
X-738205Y1364827D01*
X-705407Y1338589D02*
X-718526D01*
X-725086Y1345149D01*
Y1358268D01*
X-718526Y1364827D01*
X-705407D01*
X-698847Y1358268D01*
Y1351708D01*
X-725086D01*
X-1128575Y1338589D02*
Y1377946D01*
X-1115456Y1364827D01*
X-1102337Y1377946D01*
Y1338589D01*
X-1082658Y1364827D02*
X-1069539D01*
X-1062979Y1358268D01*
Y1338589D01*
X-1082658D01*
X-1089218Y1345149D01*
X-1082658Y1351708D01*
X-1062979D01*
X-1049860Y1338589D02*
X-1030181D01*
X-1023622Y1345149D01*
X-1030181Y1351708D01*
X-1043301D01*
X-1049860Y1358268D01*
X-1043301Y1364827D01*
X-1023622D01*
X-1003943Y1371387D02*
Y1364827D01*
X-1010503D01*
X-997384D01*
X-1003943D01*
Y1345149D01*
X-997384Y1338589D01*
X-958026D02*
X-971145D01*
X-977705Y1345149D01*
Y1358268D01*
X-971145Y1364827D01*
X-958026D01*
X-951467Y1358268D01*
Y1351708D01*
X-977705D01*
X-938348Y1364827D02*
Y1338589D01*
Y1351708D01*
X-931788Y1358268D01*
X-925229Y1364827D01*
X-918669D01*
X1359252Y-1470485D02*
Y-1509842D01*
X1378931D01*
X1385490Y-1503283D01*
Y-1477045D01*
X1378931Y-1470485D01*
X1359252D01*
X1398609Y-1490164D02*
X1424848D01*
X1207677Y-1473438D02*
Y-1512795D01*
X1227356D01*
X1233915Y-1506236D01*
Y-1479997D01*
X1227356Y-1473438D01*
X1207677D01*
X1247034Y-1493117D02*
X1273273D01*
X1260154Y-1479997D02*
Y-1506236D01*
X535942Y-1321828D02*
X529383Y-1328387D01*
Y-1341506D01*
X535942Y-1348066D01*
X562181D01*
X568740Y-1341506D01*
Y-1328387D01*
X562181Y-1321828D01*
X549062D01*
Y-1334947D01*
X568740Y-1308709D02*
X529383D01*
X568740Y-1282470D01*
X529383D01*
Y-1269351D02*
X568740D01*
Y-1249672D01*
X562181Y-1243113D01*
X535942D01*
X529383Y-1249672D01*
Y-1269351D01*
X-10827Y-1250997D02*
Y-1277235D01*
X2292Y-1290354D01*
X15411Y-1277235D01*
Y-1250997D01*
X54769Y-1257556D02*
X48209Y-1250997D01*
X35090D01*
X28531Y-1257556D01*
Y-1264116D01*
X35090Y-1270676D01*
X48209D01*
X54769Y-1277235D01*
Y-1283795D01*
X48209Y-1290354D01*
X35090D01*
X28531Y-1283795D01*
X-114173Y-1145682D02*
Y-1171920D01*
X-101054Y-1185039D01*
X-87935Y-1171920D01*
Y-1145682D01*
X-48578Y-1152242D02*
X-55137Y-1145682D01*
X-68256D01*
X-74816Y-1152242D01*
Y-1158801D01*
X-68256Y-1165361D01*
X-55137D01*
X-48578Y-1171920D01*
Y-1178480D01*
X-55137Y-1185039D01*
X-68256D01*
X-74816Y-1178480D01*
X-35458Y-1185039D02*
X-22339D01*
X-28899D01*
Y-1158801D01*
X-35458D01*
X-2661Y-1185039D02*
Y-1158801D01*
X17018D01*
X23578Y-1165361D01*
Y-1185039D01*
X36697D02*
Y-1145682D01*
Y-1171920D02*
X56376Y-1158801D01*
X36697Y-1171920D02*
X56376Y-1185039D01*
X-397638Y1057074D02*
Y1017716D01*
X-377959D01*
X-371400Y1024276D01*
Y1030836D01*
X-377959Y1037395D01*
X-397638D01*
X-377959D01*
X-371400Y1043955D01*
Y1050514D01*
X-377959Y1057074D01*
X-397638D01*
X-351721Y1017716D02*
X-338602D01*
X-332042Y1024276D01*
Y1037395D01*
X-338602Y1043955D01*
X-351721D01*
X-358280Y1037395D01*
Y1024276D01*
X-351721Y1017716D01*
X-312363Y1050514D02*
Y1043955D01*
X-318923D01*
X-305804D01*
X-312363D01*
Y1024276D01*
X-305804Y1017716D01*
X-279566Y1050514D02*
Y1043955D01*
X-286125D01*
X-273006D01*
X-279566D01*
Y1024276D01*
X-273006Y1017716D01*
X-246768D02*
X-233649D01*
X-227089Y1024276D01*
Y1037395D01*
X-233649Y1043955D01*
X-246768D01*
X-253327Y1037395D01*
Y1024276D01*
X-246768Y1017716D01*
X-213970D02*
Y1043955D01*
X-207410D01*
X-200851Y1037395D01*
Y1017716D01*
Y1037395D01*
X-194291Y1043955D01*
X-187732Y1037395D01*
Y1017716D01*
X-358268Y1267043D02*
X-332029D01*
X-345149D01*
Y1227686D01*
X-312351D02*
X-299232D01*
X-292672Y1234246D01*
Y1247365D01*
X-299232Y1253924D01*
X-312351D01*
X-318910Y1247365D01*
Y1234246D01*
X-312351Y1227686D01*
X-279553Y1214567D02*
Y1253924D01*
X-259874D01*
X-253315Y1247365D01*
Y1234246D01*
X-259874Y1227686D01*
X-279553D01*
X-1590227Y-134843D02*
X-1550870D01*
Y-154521D01*
X-1557430Y-161081D01*
X-1570549D01*
X-1577108Y-154521D01*
Y-134843D01*
X-1557430Y-200438D02*
X-1550870Y-193879D01*
Y-180760D01*
X-1557430Y-174200D01*
X-1583668D01*
X-1590227Y-180760D01*
Y-193879D01*
X-1583668Y-200438D01*
X-1550870Y-213557D02*
X-1590227D01*
Y-233236D01*
X-1583668Y-239796D01*
X-1577108D01*
X-1570549Y-233236D01*
Y-213557D01*
Y-233236D01*
X-1563989Y-239796D01*
X-1557430D01*
X-1550870Y-233236D01*
Y-213557D01*
Y-292272D02*
X-1590227D01*
Y-311951D01*
X-1583668Y-318510D01*
X-1577108D01*
X-1570549D01*
X-1563989Y-311951D01*
Y-292272D01*
Y-331630D02*
X-1583668D01*
X-1590227Y-338189D01*
Y-357868D01*
X-1596787D01*
X-1603347Y-351308D01*
Y-344749D01*
X-1590227Y-357868D02*
X-1563989D01*
X-1550870Y-410344D02*
X-1590227D01*
Y-430023D01*
X-1583668Y-436583D01*
X-1577108D01*
X-1570549Y-430023D01*
Y-410344D01*
Y-430023D01*
X-1563989Y-436583D01*
X-1557430D01*
X-1550870Y-430023D01*
Y-410344D01*
X-1590227Y-469380D02*
Y-456261D01*
X-1583668Y-449702D01*
X-1570549D01*
X-1563989Y-456261D01*
Y-469380D01*
X-1570549Y-475940D01*
X-1577108D01*
Y-449702D01*
X-1590227Y-489059D02*
X-1563989D01*
Y-508738D01*
X-1570549Y-515297D01*
X-1590227D01*
X-1550870Y-567774D02*
X-1590227D01*
X-1577108D01*
X-1550870Y-594012D01*
X-1570549Y-574334D01*
X-1590227Y-594012D01*
X-1563989Y-613691D02*
Y-626810D01*
X-1570549Y-633370D01*
X-1590227D01*
Y-613691D01*
X-1583668Y-607131D01*
X-1577108Y-613691D01*
Y-633370D01*
X-1563989Y-646489D02*
Y-672727D01*
X-1590227Y-646489D01*
Y-672727D01*
Y-705525D02*
Y-692406D01*
X-1583668Y-685846D01*
X-1570549D01*
X-1563989Y-692406D01*
Y-705525D01*
X-1570549Y-712084D01*
X-1577108D01*
Y-685846D01*
X-1590227Y-725204D02*
X-1563989D01*
Y-731763D01*
X-1570549Y-738323D01*
X-1590227D01*
X-1570549D01*
X-1563989Y-744882D01*
X-1570549Y-751442D01*
X-1590227D01*
Y-764561D02*
Y-777680D01*
Y-771121D01*
X-1563989D01*
Y-764561D01*
X-1590227Y-843276D02*
X-1557430D01*
X-1570549D01*
Y-836716D01*
Y-849835D01*
Y-843276D01*
X-1557430D01*
X-1550870Y-849835D01*
X-1590227Y-876074D02*
Y-889193D01*
X-1583668Y-895752D01*
X-1570549D01*
X-1563989Y-889193D01*
Y-876074D01*
X-1570549Y-869514D01*
X-1583668D01*
X-1590227Y-876074D01*
X-1563989Y-908871D02*
X-1590227D01*
X-1577108D01*
X-1570549Y-915431D01*
X-1563989Y-921990D01*
Y-928550D01*
X-1590227Y-987586D02*
X-1550870D01*
X-1563989Y-1000705D01*
X-1550870Y-1013824D01*
X-1590227D01*
X-1557430Y-1053182D02*
X-1550870Y-1046622D01*
Y-1033503D01*
X-1557430Y-1026944D01*
X-1563989D01*
X-1570549Y-1033503D01*
Y-1046622D01*
X-1577108Y-1053182D01*
X-1583668D01*
X-1590227Y-1046622D01*
Y-1033503D01*
X-1583668Y-1026944D01*
X-1550870Y-1066301D02*
X-1590227D01*
Y-1085980D01*
X-1583668Y-1092539D01*
X-1557430D01*
X-1550870Y-1085980D01*
Y-1066301D01*
X-1557430Y-1171254D02*
X-1550870Y-1164695D01*
Y-1151575D01*
X-1557430Y-1145016D01*
X-1583668D01*
X-1590227Y-1151575D01*
Y-1164695D01*
X-1583668Y-1171254D01*
X-1570549D01*
Y-1158135D01*
X-1563989Y-1184373D02*
X-1590227D01*
X-1577108D01*
X-1570549Y-1190933D01*
X-1563989Y-1197492D01*
Y-1204052D01*
X-1590227Y-1230290D02*
Y-1243409D01*
X-1583668Y-1249969D01*
X-1570549D01*
X-1563989Y-1243409D01*
Y-1230290D01*
X-1570549Y-1223731D01*
X-1583668D01*
X-1590227Y-1230290D01*
X-1563989Y-1263088D02*
X-1583668D01*
X-1590227Y-1269648D01*
Y-1289326D01*
X-1563989D01*
X-1603347Y-1302445D02*
X-1563989D01*
Y-1322124D01*
X-1570549Y-1328684D01*
X-1583668D01*
X-1590227Y-1322124D01*
Y-1302445D01*
X-1577108Y-1400839D02*
X-1570549D01*
Y-1394279D01*
X-1577108D01*
Y-1400839D01*
X-1570549Y-1407398D01*
X-1557430D01*
X-1550870Y-1400839D01*
Y-1387720D01*
X-1557430Y-1381160D01*
X-1583668D01*
X-1590227Y-1387720D01*
Y-1407398D01*
X-1550870Y-1459875D02*
X-1583668D01*
X-1590227Y-1466435D01*
Y-1479554D01*
X-1583668Y-1486113D01*
X-1550870D01*
X-1557430Y-1525471D02*
X-1550870Y-1518911D01*
Y-1505792D01*
X-1557430Y-1499232D01*
X-1583668D01*
X-1590227Y-1505792D01*
Y-1518911D01*
X-1583668Y-1525471D01*
X-1550870Y-1538590D02*
X-1590227D01*
Y-1564828D01*
X813640Y-1338595D02*
X800521D01*
X807080D01*
Y-1371393D01*
X800521Y-1377953D01*
X793961D01*
X787402Y-1371393D01*
X846438Y-1377953D02*
Y-1338595D01*
X826759Y-1358274D01*
X852997D01*
X813640Y326759D02*
X800521D01*
X807080D01*
Y293961D01*
X800521Y287402D01*
X793961D01*
X787402Y293961D01*
X826759Y320199D02*
X833319Y326759D01*
X846438D01*
X852997Y320199D01*
Y313640D01*
X846438Y307080D01*
X839878D01*
X846438D01*
X852997Y300521D01*
Y293961D01*
X846438Y287402D01*
X833319D01*
X826759Y293961D01*
X-835966Y322822D02*
X-849086D01*
X-842526D01*
Y290024D01*
X-849086Y283465D01*
X-855645D01*
X-862205Y290024D01*
X-822847Y283465D02*
X-809728D01*
X-816288D01*
Y322822D01*
X-822847Y316262D01*
X573819Y-364211D02*
X600057D01*
X586938D01*
Y-403569D01*
X613176Y-364211D02*
X639414Y-403569D01*
Y-364211D02*
X613176Y-403569D01*
X652534Y-364211D02*
Y-403569D01*
X672212D01*
X678772Y-397009D01*
Y-370771D01*
X672212Y-364211D01*
X652534D01*
X573819Y-469261D02*
Y-429904D01*
X593498D01*
X600057Y-436463D01*
Y-449582D01*
X593498Y-456142D01*
X573819D01*
X586938D02*
X600057Y-469261D01*
X613176Y-429904D02*
X639414Y-469261D01*
Y-429904D02*
X613176Y-469261D01*
X652534Y-429904D02*
Y-469261D01*
X672212D01*
X678772Y-462702D01*
Y-436463D01*
X672212Y-429904D01*
X652534D01*
X573819Y-534954D02*
Y-495596D01*
X586938Y-508715D01*
X600057Y-495596D01*
Y-534954D01*
X613176Y-495596D02*
X626295D01*
X619736D01*
Y-534954D01*
X613176D01*
X626295D01*
X672212Y-502156D02*
X665653Y-495596D01*
X652534D01*
X645974Y-502156D01*
Y-508715D01*
X652534Y-515275D01*
X665653D01*
X672212Y-521835D01*
Y-528394D01*
X665653Y-534954D01*
X652534D01*
X645974Y-528394D01*
X705010Y-495596D02*
X691891D01*
X685332Y-502156D01*
Y-528394D01*
X691891Y-534954D01*
X705010D01*
X711570Y-528394D01*
Y-502156D01*
X705010Y-495596D01*
X573819Y-600646D02*
Y-561289D01*
X586938Y-574408D01*
X600057Y-561289D01*
Y-600646D01*
X632855Y-561289D02*
X619736D01*
X613176Y-567848D01*
Y-594087D01*
X619736Y-600646D01*
X632855D01*
X639414Y-594087D01*
Y-567848D01*
X632855Y-561289D01*
X678772Y-567848D02*
X672212Y-561289D01*
X659093D01*
X652534Y-567848D01*
Y-574408D01*
X659093Y-580967D01*
X672212D01*
X678772Y-587527D01*
Y-594087D01*
X672212Y-600646D01*
X659093D01*
X652534Y-594087D01*
X691891Y-561289D02*
X705010D01*
X698451D01*
Y-600646D01*
X691891D01*
X705010D01*
X600057Y-633541D02*
X593498Y-626981D01*
X580379D01*
X573819Y-633541D01*
Y-640100D01*
X580379Y-646660D01*
X593498D01*
X600057Y-653220D01*
Y-659779D01*
X593498Y-666339D01*
X580379D01*
X573819Y-659779D01*
X639414Y-633541D02*
X632855Y-626981D01*
X619736D01*
X613176Y-633541D01*
Y-659779D01*
X619736Y-666339D01*
X632855D01*
X639414Y-659779D01*
X652534Y-626981D02*
Y-666339D01*
Y-653220D01*
X678772Y-626981D01*
X659093Y-646660D01*
X678772Y-666339D01*
X667323Y486221D02*
Y512459D01*
X680442Y525578D01*
X693561Y512459D01*
Y486221D01*
Y505899D01*
X667323D01*
X732918Y525578D02*
X706680D01*
Y505899D01*
X719799Y512459D01*
X726359D01*
X732918Y505899D01*
Y492780D01*
X726359Y486221D01*
X713240D01*
X706680Y492780D01*
X667323Y588583D02*
Y614821D01*
X680442Y627940D01*
X693561Y614821D01*
Y588583D01*
Y608261D01*
X667323D01*
X726359Y588583D02*
Y627940D01*
X706680Y608261D01*
X732918D01*
X667323Y688976D02*
Y715215D01*
X680442Y728334D01*
X693561Y715215D01*
Y688976D01*
Y708655D01*
X667323D01*
X706680Y721774D02*
X713240Y728334D01*
X726359D01*
X732918Y721774D01*
Y715215D01*
X726359Y708655D01*
X719799D01*
X726359D01*
X732918Y702096D01*
Y695536D01*
X726359Y688976D01*
X713240D01*
X706680Y695536D01*
X667323Y788386D02*
Y814624D01*
X680442Y827743D01*
X693561Y814624D01*
Y788386D01*
Y808064D01*
X667323D01*
X732918Y788386D02*
X706680D01*
X732918Y814624D01*
Y821184D01*
X726359Y827743D01*
X713240D01*
X706680Y821184D01*
X667323Y902559D02*
Y941916D01*
X687001D01*
X693561Y935357D01*
Y922238D01*
X687001Y915678D01*
X667323D01*
X706680Y941916D02*
Y902559D01*
X726359D01*
X732918Y909119D01*
Y935357D01*
X726359Y941916D01*
X706680D01*
X746038Y935357D02*
X752597Y941916D01*
X765716D01*
X772276Y935357D01*
Y909119D01*
X765716Y902559D01*
X752597D01*
X746038Y909119D01*
Y935357D01*
X811633Y902559D02*
X785395D01*
X811633Y928797D01*
Y935357D01*
X805074Y941916D01*
X791955D01*
X785395Y935357D01*
X667323Y999016D02*
Y1038373D01*
X687001D01*
X693561Y1031813D01*
Y1018694D01*
X687001Y1012135D01*
X667323D01*
X706680Y1038373D02*
Y999016D01*
X726359D01*
X732918Y1005575D01*
Y1031813D01*
X726359Y1038373D01*
X706680D01*
X746038Y1031813D02*
X752597Y1038373D01*
X765716D01*
X772276Y1031813D01*
Y1005575D01*
X765716Y999016D01*
X752597D01*
X746038Y1005575D01*
Y1031813D01*
X785395D02*
X791955Y1038373D01*
X805074D01*
X811633Y1031813D01*
Y1025254D01*
X805074Y1018694D01*
X798514D01*
X805074D01*
X811633Y1012135D01*
Y1005575D01*
X805074Y999016D01*
X791955D01*
X785395Y1005575D01*
X693561Y1138113D02*
X687001Y1144672D01*
X673882D01*
X667323Y1138113D01*
Y1111874D01*
X673882Y1105315D01*
X687001D01*
X693561Y1111874D01*
Y1124994D01*
X680442D01*
X706680Y1105315D02*
Y1144672D01*
X732918Y1105315D01*
Y1144672D01*
X746038D02*
Y1105315D01*
X765716D01*
X772276Y1111874D01*
Y1138113D01*
X765716Y1144672D01*
X746038D01*
X667323Y1197835D02*
Y1224073D01*
X680442Y1237192D01*
X693561Y1224073D01*
Y1197835D01*
Y1217513D01*
X667323D01*
X706680Y1197835D02*
Y1237192D01*
X726359D01*
X732918Y1230632D01*
Y1217513D01*
X726359Y1210954D01*
X706680D01*
X719799D02*
X732918Y1197835D01*
X772276Y1237192D02*
X746038D01*
Y1197835D01*
X772276D01*
X746038Y1217513D02*
X759157D01*
X811633Y1237192D02*
X785395D01*
Y1217513D01*
X798514D01*
X785395D01*
Y1197835D01*
X669291Y1350711D02*
X675851Y1357271D01*
X688970D01*
X695529Y1350711D01*
Y1344152D01*
X688970Y1337592D01*
X682410D01*
X688970D01*
X695529Y1331033D01*
Y1324473D01*
X688970Y1317913D01*
X675851D01*
X669291Y1324473D01*
X708649Y1357271D02*
Y1331033D01*
X721768Y1317913D01*
X734887Y1331033D01*
Y1357271D01*
X748006Y1350711D02*
X754566Y1357271D01*
X767685D01*
X774244Y1350711D01*
Y1344152D01*
X767685Y1337592D01*
X761125D01*
X767685D01*
X774244Y1331033D01*
Y1324473D01*
X767685Y1317913D01*
X754566D01*
X748006Y1324473D01*
X674213Y1387795D02*
Y1427153D01*
X693891D01*
X700451Y1420593D01*
Y1407474D01*
X693891Y1400914D01*
X674213D01*
X687332D02*
X700451Y1387795D01*
X739808Y1427153D02*
X713570D01*
Y1387795D01*
X739808D01*
X713570Y1407474D02*
X726689D01*
X779166Y1420593D02*
X772606Y1427153D01*
X759487D01*
X752927Y1420593D01*
Y1414034D01*
X759487Y1407474D01*
X772606D01*
X779166Y1400914D01*
Y1394355D01*
X772606Y1387795D01*
X759487D01*
X752927Y1394355D01*
X818523Y1427153D02*
X792285D01*
Y1387795D01*
X818523D01*
X792285Y1407474D02*
X805404D01*
X831642Y1427153D02*
X857880D01*
X844761D01*
Y1387795D01*
X1545276Y125972D02*
Y86614D01*
X1564954D01*
X1571514Y93174D01*
Y119412D01*
X1564954Y125972D01*
X1545276D01*
X1610871D02*
X1584633D01*
Y106293D01*
X1597752Y112852D01*
X1604312D01*
X1610871Y106293D01*
Y93174D01*
X1604312Y86614D01*
X1591193D01*
X1584633Y93174D01*
X1545276Y225381D02*
Y186024D01*
X1564954D01*
X1571514Y192583D01*
Y218821D01*
X1564954Y225381D01*
X1545276D01*
X1610871D02*
X1597752Y218821D01*
X1584633Y205702D01*
Y192583D01*
X1591193Y186024D01*
X1604312D01*
X1610871Y192583D01*
Y199143D01*
X1604312Y205702D01*
X1584633D01*
X1545276Y327743D02*
Y288386D01*
X1564954D01*
X1571514Y294945D01*
Y321184D01*
X1564954Y327743D01*
X1545276D01*
X1584633Y294945D02*
X1591193Y288386D01*
X1604312D01*
X1610871Y294945D01*
Y321184D01*
X1604312Y327743D01*
X1591193D01*
X1584633Y321184D01*
Y314624D01*
X1591193Y308065D01*
X1610871D01*
X1545276Y429121D02*
Y389764D01*
X1564954D01*
X1571514Y396323D01*
Y422562D01*
X1564954Y429121D01*
X1545276D01*
X1584633Y389764D02*
X1597752D01*
X1591193D01*
Y429121D01*
X1584633Y422562D01*
X1617431D02*
X1623990Y429121D01*
X1637110D01*
X1643669Y422562D01*
Y396323D01*
X1637110Y389764D01*
X1623990D01*
X1617431Y396323D01*
Y422562D01*
X1545276Y524594D02*
Y485236D01*
X1564954D01*
X1571514Y491796D01*
Y518034D01*
X1564954Y524594D01*
X1545276D01*
X1584633Y485236D02*
X1597752D01*
X1591193D01*
Y524594D01*
X1584633Y518034D01*
X1617431Y485236D02*
X1630550D01*
X1623990D01*
Y524594D01*
X1617431Y518034D01*
X1545276Y623019D02*
Y583661D01*
X1564954D01*
X1571514Y590221D01*
Y616459D01*
X1564954Y623019D01*
X1545276D01*
X1584633Y583661D02*
X1597752D01*
X1591193D01*
Y623019D01*
X1584633Y616459D01*
X1643669Y583661D02*
X1617431D01*
X1643669Y609900D01*
Y616459D01*
X1637110Y623019D01*
X1623990D01*
X1617431Y616459D01*
X1559722Y-13132D02*
X1553162Y-19691D01*
Y-32810D01*
X1559722Y-39370D01*
X1566281D01*
X1572841Y-32810D01*
Y-19691D01*
X1579400Y-13132D01*
X1585960D01*
X1592520Y-19691D01*
Y-32810D01*
X1585960Y-39370D01*
X1559722Y26226D02*
X1553162Y19666D01*
Y6547D01*
X1559722Y-13D01*
X1585960D01*
X1592520Y6547D01*
Y19666D01*
X1585960Y26226D01*
X1553162Y39345D02*
X1592520D01*
Y65583D01*
X1567577Y-79407D02*
X1561017Y-72847D01*
X1547898D01*
X1541339Y-79407D01*
Y-85966D01*
X1547898Y-92526D01*
X1561017D01*
X1567577Y-99086D01*
Y-105645D01*
X1561017Y-112205D01*
X1547898D01*
X1541339Y-105645D01*
X1580696Y-72847D02*
Y-112205D01*
X1600375D01*
X1606934Y-105645D01*
Y-79407D01*
X1600375Y-72847D01*
X1580696D01*
X1620053Y-112205D02*
Y-85966D01*
X1633172Y-72847D01*
X1646292Y-85966D01*
Y-112205D01*
Y-92526D01*
X1620053D01*
X1548571Y-1130220D02*
Y-1156458D01*
X1587929D01*
Y-1130220D01*
X1568250Y-1156458D02*
Y-1143339D01*
X1548571Y-1117100D02*
X1587929Y-1090862D01*
X1548571D02*
X1587929Y-1117100D01*
X1548571Y-1077743D02*
Y-1051505D01*
Y-1064624D01*
X1587929D01*
X1594488Y-1038386D02*
Y-1012147D01*
X1548571Y-972790D02*
Y-999028D01*
X1568250D01*
X1561690Y-985909D01*
Y-979350D01*
X1568250Y-972790D01*
X1581369D01*
X1587929Y-979350D01*
Y-992469D01*
X1581369Y-999028D01*
X1548571Y-959671D02*
X1574810D01*
X1587929Y-946552D01*
X1574810Y-933433D01*
X1548571D01*
X1449816Y-972790D02*
Y-999028D01*
X1469495D01*
X1462935Y-985909D01*
Y-979350D01*
X1469495Y-972790D01*
X1482614D01*
X1489173Y-979350D01*
Y-992469D01*
X1482614Y-999028D01*
X1449816Y-959671D02*
X1476054D01*
X1489173Y-946552D01*
X1476054Y-933433D01*
X1449816D01*
X1348438Y-1038386D02*
X1374676D01*
X1387795Y-1025267D01*
X1374676Y-1012148D01*
X1348438D01*
Y-999028D02*
Y-985909D01*
Y-992469D01*
X1387795D01*
Y-999028D01*
Y-985909D01*
Y-966231D02*
X1348438D01*
X1387795Y-939992D01*
X1348438D01*
X1350394Y1370066D02*
Y1330709D01*
X1370072D01*
X1376632Y1337268D01*
Y1363506D01*
X1370072Y1370066D01*
X1350394D01*
X1389751Y1330709D02*
X1402870D01*
X1396311D01*
Y1370066D01*
X1389751Y1363506D01*
X1422549D02*
X1429109Y1370066D01*
X1442228D01*
X1448787Y1363506D01*
Y1356947D01*
X1442228Y1350387D01*
X1435668D01*
X1442228D01*
X1448787Y1343828D01*
Y1337268D01*
X1442228Y1330709D01*
X1429109D01*
X1422549Y1337268D01*
X1406159Y1194869D02*
X1379921D01*
Y1155512D01*
X1406159D01*
X1379921Y1175190D02*
X1393040D01*
X1419279Y1155512D02*
Y1194869D01*
X1445517Y1155512D01*
Y1194869D01*
X1307087Y1276562D02*
Y1250324D01*
X1320206Y1237205D01*
X1333325Y1250324D01*
Y1276562D01*
X1346444D02*
Y1237205D01*
X1366123D01*
X1372682Y1243764D01*
Y1250324D01*
X1366123Y1256883D01*
X1346444D01*
X1366123D01*
X1372682Y1263443D01*
Y1270003D01*
X1366123Y1276562D01*
X1346444D01*
X1385801D02*
Y1243764D01*
X1392361Y1237205D01*
X1405480D01*
X1412040Y1243764D01*
Y1276562D01*
X1451397Y1270003D02*
X1444838Y1276562D01*
X1431718D01*
X1425159Y1270003D01*
Y1263443D01*
X1431718Y1256883D01*
X1444838D01*
X1451397Y1250324D01*
Y1243764D01*
X1444838Y1237205D01*
X1431718D01*
X1425159Y1243764D01*
X1304134Y1124003D02*
Y1097765D01*
X1317253Y1084646D01*
X1330372Y1097765D01*
Y1124003D01*
X1343491D02*
Y1084646D01*
X1363170D01*
X1369729Y1091205D01*
Y1097765D01*
X1363170Y1104324D01*
X1343491D01*
X1363170D01*
X1369729Y1110884D01*
Y1117444D01*
X1363170Y1124003D01*
X1343491D01*
X1382849Y1084646D02*
Y1110884D01*
X1395968Y1124003D01*
X1409087Y1110884D01*
Y1084646D01*
Y1104324D01*
X1382849D01*
X1422206Y1124003D02*
X1448444D01*
X1435325D01*
Y1084646D01*
X-429788Y-1432086D02*
X-469146D01*
Y-1412408D01*
X-462586Y-1405848D01*
X-449467D01*
X-442907Y-1412408D01*
Y-1432086D01*
X-469146Y-1392729D02*
X-429788D01*
Y-1373050D01*
X-436348Y-1366491D01*
X-462586D01*
X-469146Y-1373050D01*
Y-1392729D01*
X-423228Y-1353372D02*
Y-1327133D01*
X-469146Y-1314014D02*
X-442907D01*
X-429788Y-1300895D01*
X-442907Y-1287776D01*
X-469146D01*
Y-1274657D02*
Y-1261538D01*
Y-1268097D01*
X-429788D01*
Y-1274657D01*
Y-1261538D01*
Y-1241859D02*
X-469146D01*
X-429788Y-1215621D01*
X-469146D01*
X-330378Y-1432086D02*
X-369736D01*
Y-1412408D01*
X-363176Y-1405848D01*
X-350057D01*
X-343498Y-1412408D01*
Y-1432086D01*
X-369736Y-1392729D02*
X-330378D01*
Y-1373050D01*
X-336938Y-1366491D01*
X-363176D01*
X-369736Y-1373050D01*
Y-1392729D01*
X-323819Y-1353372D02*
Y-1327133D01*
X-330378Y-1314014D02*
X-356617D01*
X-369736Y-1300895D01*
X-356617Y-1287776D01*
X-330378D01*
X-350057D01*
Y-1314014D01*
X-369736Y-1274657D02*
X-330378D01*
Y-1248419D01*
X-369736Y-1209061D02*
Y-1235299D01*
X-330378D01*
Y-1209061D01*
X-350057Y-1235299D02*
Y-1222180D01*
X-330378Y-1195942D02*
X-369736D01*
Y-1176263D01*
X-363176Y-1169704D01*
X-350057D01*
X-343498Y-1176263D01*
Y-1195942D01*
Y-1182823D02*
X-330378Y-1169704D01*
X-369736Y-1156585D02*
Y-1130346D01*
Y-1143466D01*
X-330378D01*
X-229001Y-1432086D02*
X-268358D01*
Y-1412408D01*
X-261798Y-1405848D01*
X-248679D01*
X-242120Y-1412408D01*
Y-1432086D01*
X-268358Y-1392729D02*
X-229001D01*
Y-1373050D01*
X-235560Y-1366491D01*
X-261798D01*
X-268358Y-1373050D01*
Y-1392729D01*
X-222441Y-1353372D02*
Y-1327133D01*
X-229001Y-1314014D02*
X-268358D01*
Y-1294336D01*
X-261798Y-1287776D01*
X-248679D01*
X-242120Y-1294336D01*
Y-1314014D01*
Y-1300895D02*
X-229001Y-1287776D01*
X-268358Y-1248419D02*
Y-1274657D01*
X-229001D01*
Y-1248419D01*
X-248679Y-1274657D02*
Y-1261538D01*
X-261798Y-1209061D02*
X-268358Y-1215621D01*
Y-1228740D01*
X-261798Y-1235300D01*
X-255239D01*
X-248679Y-1228740D01*
Y-1215621D01*
X-242120Y-1209061D01*
X-235560D01*
X-229001Y-1215621D01*
Y-1228740D01*
X-235560Y-1235300D01*
X-268358Y-1169704D02*
Y-1195942D01*
X-229001D01*
Y-1169704D01*
X-248679Y-1195942D02*
Y-1182823D01*
X-268358Y-1156585D02*
Y-1130347D01*
Y-1143466D01*
X-229001D01*
X-126638Y-1432086D02*
X-165996D01*
Y-1412408D01*
X-159436Y-1405848D01*
X-146317D01*
X-139758Y-1412408D01*
Y-1432086D01*
X-165996Y-1392729D02*
X-126638D01*
Y-1373050D01*
X-133198Y-1366491D01*
X-159436D01*
X-165996Y-1373050D01*
Y-1392729D01*
X-120079Y-1353372D02*
Y-1327133D01*
X-159436Y-1287776D02*
X-165996Y-1294336D01*
Y-1307455D01*
X-159436Y-1314014D01*
X-133198D01*
X-126638Y-1307455D01*
Y-1294336D01*
X-133198Y-1287776D01*
X-146317D01*
Y-1300895D01*
X-126638Y-1274657D02*
X-165996D01*
Y-1254978D01*
X-159436Y-1248419D01*
X-146317D01*
X-139758Y-1254978D01*
Y-1274657D01*
X-165996Y-1235300D02*
Y-1222180D01*
Y-1228740D01*
X-126638D01*
Y-1235300D01*
Y-1222180D01*
X-165996Y-1182823D02*
Y-1195942D01*
X-159436Y-1202502D01*
X-133198D01*
X-126638Y-1195942D01*
Y-1182823D01*
X-133198Y-1176264D01*
X-159436D01*
X-165996Y-1182823D01*
X1209706Y-1296596D02*
Y-1322835D01*
X1222825Y-1335954D01*
X1235944Y-1322835D01*
Y-1296596D01*
X1249063D02*
Y-1335954D01*
X1268742D01*
X1275302Y-1329394D01*
Y-1303156D01*
X1268742Y-1296596D01*
X1249063D01*
X1288421D02*
Y-1335954D01*
X1308099D01*
X1314659Y-1329394D01*
Y-1303156D01*
X1308099Y-1296596D01*
X1288421D01*
X1327778Y-1342513D02*
X1354016D01*
X1393374Y-1296596D02*
X1380255D01*
X1386814D01*
Y-1329394D01*
X1380255Y-1335954D01*
X1373695D01*
X1367136Y-1329394D01*
X1406493Y-1309716D02*
Y-1329394D01*
X1413053Y-1335954D01*
X1432731D01*
Y-1309716D01*
X1445850Y-1335954D02*
Y-1309716D01*
X1452410D01*
X1458969Y-1316275D01*
Y-1335954D01*
Y-1316275D01*
X1465529Y-1309716D01*
X1472089Y-1316275D01*
Y-1335954D01*
X1485208Y-1349073D02*
Y-1309716D01*
X1504886D01*
X1511446Y-1316275D01*
Y-1329394D01*
X1504886Y-1335954D01*
X1485208D01*
X1544244D02*
X1531125D01*
X1524565Y-1329394D01*
Y-1316275D01*
X1531125Y-1309716D01*
X1544244D01*
X1550803Y-1316275D01*
Y-1322835D01*
X1524565D01*
X1563922Y-1309716D02*
Y-1335954D01*
Y-1322835D01*
X1570482Y-1316275D01*
X1577042Y-1309716D01*
X1583601D01*
X-576737Y1462919D02*
Y1423562D01*
X-550499D01*
X-537379Y1462919D02*
X-524260D01*
X-530820D01*
Y1423562D01*
X-537379D01*
X-524260D01*
X-504582D02*
Y1462919D01*
X-478343Y1423562D01*
Y1462919D01*
X-465224D02*
Y1423562D01*
Y1436681D01*
X-438986Y1462919D01*
X-458664Y1443241D01*
X-438986Y1423562D01*
X-425867Y1417002D02*
X-399628D01*
X-386509Y1423562D02*
Y1449800D01*
X-373390Y1462919D01*
X-360271Y1449800D01*
Y1423562D01*
Y1443241D01*
X-386509D01*
X-264091Y1607607D02*
X-257531Y1614167D01*
X-244412D01*
X-237852Y1607607D01*
Y1601048D01*
X-244412Y1594488D01*
X-250972D01*
X-244412D01*
X-237852Y1587929D01*
Y1581369D01*
X-244412Y1574810D01*
X-257531D01*
X-264091Y1581369D01*
X-224733Y1614167D02*
Y1587929D01*
X-211614Y1574810D01*
X-198495Y1587929D01*
Y1614167D01*
X-185376Y1607607D02*
X-178816Y1614167D01*
X-165697D01*
X-159138Y1607607D01*
Y1601048D01*
X-165697Y1594488D01*
X-172257D01*
X-165697D01*
X-159138Y1587929D01*
Y1581369D01*
X-165697Y1574810D01*
X-178816D01*
X-185376Y1581369D01*
X938059Y773285D02*
Y747047D01*
X951178Y733928D01*
X964297Y747047D01*
Y773285D01*
X977416D02*
Y733928D01*
X997095D01*
X1003654Y740488D01*
Y747047D01*
X997095Y753607D01*
X977416D01*
X997095D01*
X1003654Y760166D01*
Y766726D01*
X997095Y773285D01*
X977416D01*
X1016774D02*
Y740488D01*
X1023333Y733928D01*
X1036452D01*
X1043012Y740488D01*
Y773285D01*
X1082369Y766726D02*
X1075810Y773285D01*
X1062690D01*
X1056131Y766726D01*
Y760166D01*
X1062690Y753607D01*
X1075810D01*
X1082369Y747047D01*
Y740488D01*
X1075810Y733928D01*
X1062690D01*
X1056131Y740488D01*
X1095488Y727369D02*
X1121726D01*
X1161084Y773285D02*
X1147965D01*
X1154524D01*
Y740488D01*
X1147965Y733928D01*
X1141405D01*
X1134846Y740488D01*
X1174203Y760166D02*
Y740488D01*
X1180763Y733928D01*
X1200441D01*
Y760166D01*
X1213561Y733928D02*
Y760166D01*
X1220120D01*
X1226680Y753607D01*
Y733928D01*
Y753607D01*
X1233239Y760166D01*
X1239799Y753607D01*
Y733928D01*
X1252918Y720809D02*
Y760166D01*
X1272597D01*
X1279156Y753607D01*
Y740488D01*
X1272597Y733928D01*
X1252918D01*
X1311954D02*
X1298835D01*
X1292275Y740488D01*
Y753607D01*
X1298835Y760166D01*
X1311954D01*
X1318514Y753607D01*
Y747047D01*
X1292275D01*
X1331633Y760166D02*
Y733928D01*
Y747047D01*
X1338192Y753607D01*
X1344752Y760166D01*
X1351311D01*
X1056458Y-725073D02*
X1030220D01*
Y-744752D01*
X1043339Y-738192D01*
X1049898D01*
X1056458Y-744752D01*
Y-757871D01*
X1049898Y-764430D01*
X1036779D01*
X1030220Y-757871D01*
X1069577Y-725073D02*
Y-751311D01*
X1082696Y-764430D01*
X1095815Y-751311D01*
Y-725073D01*
X1108935Y-770990D02*
X1135173D01*
X1174530Y-731633D02*
X1167971Y-725073D01*
X1154851D01*
X1148292Y-731633D01*
Y-738192D01*
X1154851Y-744752D01*
X1167971D01*
X1174530Y-751311D01*
Y-757871D01*
X1167971Y-764430D01*
X1154851D01*
X1148292Y-757871D01*
X1213888Y-725073D02*
X1187649D01*
Y-764430D01*
X1213888D01*
X1187649Y-744752D02*
X1200768D01*
X1227007Y-725073D02*
Y-764430D01*
X1253245D01*
X-1420593Y-720479D02*
Y-746717D01*
X-1407474Y-759836D01*
X-1394355Y-746717D01*
Y-720479D01*
X-1354997Y-727038D02*
X-1361557Y-720479D01*
X-1374676D01*
X-1381236Y-727038D01*
Y-733598D01*
X-1374676Y-740158D01*
X-1361557D01*
X-1354997Y-746717D01*
Y-753277D01*
X-1361557Y-759836D01*
X-1374676D01*
X-1381236Y-753277D01*
X94825Y-1105261D02*
X121063D01*
X134182Y-1092142D01*
X121063Y-1079023D01*
X94825D01*
X101384Y-1039665D02*
X94825Y-1046225D01*
Y-1059344D01*
X101384Y-1065904D01*
X107944D01*
X114503Y-1059344D01*
Y-1046225D01*
X121063Y-1039665D01*
X127623D01*
X134182Y-1046225D01*
Y-1059344D01*
X127623Y-1065904D01*
X140742Y-1026546D02*
Y-1000308D01*
X94825Y-960951D02*
Y-974070D01*
Y-967510D01*
X127623D01*
X134182Y-974070D01*
Y-980629D01*
X127623Y-987189D01*
X107944Y-947831D02*
X127623D01*
X134182Y-941272D01*
Y-921593D01*
X107944D01*
X134182Y-908474D02*
X107944D01*
Y-901914D01*
X114503Y-895355D01*
X134182D01*
X114503D01*
X107944Y-888795D01*
X114503Y-882236D01*
X134182D01*
X147301Y-869117D02*
X107944D01*
Y-849438D01*
X114503Y-842878D01*
X127623D01*
X134182Y-849438D01*
Y-869117D01*
Y-810081D02*
Y-823200D01*
X127623Y-829759D01*
X114503D01*
X107944Y-823200D01*
Y-810081D01*
X114503Y-803521D01*
X121063D01*
Y-829759D01*
X107944Y-790402D02*
X134182D01*
X121063D01*
X114503Y-783842D01*
X107944Y-777283D01*
Y-770723D01*
X1213932Y-374022D02*
X1187694D01*
Y-393701D01*
X1200813Y-387141D01*
X1207372D01*
X1213932Y-393701D01*
Y-406820D01*
X1207372Y-413380D01*
X1194253D01*
X1187694Y-406820D01*
X1227051Y-374022D02*
Y-400260D01*
X1240170Y-413380D01*
X1253289Y-400260D01*
Y-374022D01*
X1266409Y-413380D02*
Y-374022D01*
X1286087D01*
X1292647Y-380582D01*
Y-393701D01*
X1286087Y-400260D01*
X1266409D01*
X1279528D02*
X1292647Y-413380D01*
X1332004Y-374022D02*
X1305766D01*
Y-413380D01*
X1332004D01*
X1305766Y-393701D02*
X1318885D01*
X1371361Y-380582D02*
X1364802Y-374022D01*
X1351683D01*
X1345123Y-380582D01*
Y-406820D01*
X1351683Y-413380D01*
X1364802D01*
X1371361Y-406820D01*
Y-393701D01*
X1358242D01*
X-1416986Y-1110230D02*
Y-1070872D01*
X-1397307D01*
X-1390748Y-1077432D01*
Y-1090551D01*
X-1397307Y-1097111D01*
X-1416986D01*
X-1403867D02*
X-1390748Y-1110230D01*
X-1377629D02*
X-1364510D01*
X-1371069D01*
Y-1070872D01*
X-1377629Y-1077432D01*
X1539700Y1451765D02*
X1526581D01*
X1533141D01*
Y1418967D01*
X1526581Y1412408D01*
X1520022D01*
X1513462Y1418967D01*
X1579058Y1451765D02*
X1565938Y1445206D01*
X1552819Y1432087D01*
Y1418967D01*
X1559379Y1412408D01*
X1572498D01*
X1579058Y1418967D01*
Y1425527D01*
X1572498Y1432087D01*
X1552819D01*
X-26245Y-1505912D02*
X-39364D01*
X-32804D01*
Y-1538710D01*
X-39364Y-1545269D01*
X-45923D01*
X-52483Y-1538710D01*
X-13125Y-1505912D02*
X13113D01*
Y-1512472D01*
X-13125Y-1538710D01*
Y-1545269D01*
X466866Y1513773D02*
X453747D01*
X460306D01*
Y1480975D01*
X453747Y1474416D01*
X447187D01*
X440627Y1480975D01*
X506223Y1513773D02*
X479985D01*
Y1494094D01*
X493104Y1500654D01*
X499663D01*
X506223Y1494094D01*
Y1480975D01*
X499663Y1474416D01*
X486544D01*
X479985Y1480975D01*
X1559055Y-281172D02*
X1552496Y-274613D01*
X1539377D01*
X1532817Y-281172D01*
Y-307410D01*
X1539377Y-313970D01*
X1552496D01*
X1559055Y-307410D01*
X1572174Y-313970D02*
X1585293D01*
X1578734D01*
Y-274613D01*
X1572174Y-281172D01*
X1007220Y-410109D02*
X1000660Y-403550D01*
X987541D01*
X980982Y-410109D01*
Y-436347D01*
X987541Y-442907D01*
X1000660D01*
X1007220Y-436347D01*
X1046577Y-442907D02*
X1020339D01*
X1046577Y-416669D01*
Y-410109D01*
X1040018Y-403550D01*
X1026899D01*
X1020339Y-410109D01*
X986913Y921911D02*
X993472Y928470D01*
X1006591D01*
X1013151Y921911D01*
Y915351D01*
X1006591Y908792D01*
X1000032D01*
X1006591D01*
X1013151Y902232D01*
Y895673D01*
X1006591Y889113D01*
X993472D01*
X986913Y895673D01*
X1026270Y928470D02*
Y902232D01*
X1039389Y889113D01*
X1052508Y902232D01*
Y928470D01*
X1065627Y921911D02*
X1072187Y928470D01*
X1085306D01*
X1091866Y921911D01*
Y915351D01*
X1085306Y908792D01*
X1078746D01*
X1085306D01*
X1091866Y902232D01*
Y895673D01*
X1085306Y889113D01*
X1072187D01*
X1065627Y895673D01*
X1104985Y882553D02*
X1131223D01*
X1170580Y928470D02*
X1144342D01*
Y889113D01*
X1170580D01*
X1144342Y908792D02*
X1157461D01*
X1183700Y889113D02*
Y928470D01*
X1209938Y889113D01*
Y928470D01*
D11*
X1231842Y883512D02*
X1234254Y874512D01*
X1240842Y867923D01*
X1249842Y865512D01*
X1309842D02*
X1318842Y867923D01*
X1325431Y874512D01*
X1327842Y883512D01*
Y927512D02*
X1325431Y936512D01*
X1318842Y943100D01*
X1309842Y945512D01*
X1249842D02*
X1240842Y943100D01*
X1234254Y936512D01*
X1231842Y927512D01*
X1249842Y865512D02*
X1309842D01*
X1249842Y945512D02*
X1309842D01*
X1231842Y883512D02*
Y927512D01*
X1327842Y883512D02*
Y927512D01*
D12*
X562402Y-243110D02*
X562883Y-252912D01*
X564323Y-262619D01*
X566708Y-272139D01*
X570014Y-281378D01*
X574210Y-290250D01*
X579255Y-298667D01*
X585101Y-306550D01*
X591691Y-313821D01*
X598962Y-320411D01*
X606845Y-326257D01*
X615262Y-331302D01*
X624133Y-335498D01*
X633373Y-338804D01*
X642893Y-341189D01*
X652600Y-342629D01*
X662402Y-343110D01*
X1362402D02*
X1372203Y-342629D01*
X1381911Y-341189D01*
X1391430Y-338804D01*
X1400670Y-335498D01*
X1409541Y-331302D01*
X1417959Y-326257D01*
X1425841Y-320411D01*
X1433112Y-313821D01*
X1439703Y-306550D01*
X1445549Y-298667D01*
X1450594Y-290250D01*
X1454790Y-281378D01*
X1458096Y-272139D01*
X1460480Y-262619D01*
X1461920Y-252912D01*
X1462402Y-243110D01*
Y1556890D02*
X1461920Y1566691D01*
X1460480Y1576399D01*
X1458096Y1585918D01*
X1454790Y1595158D01*
X1450594Y1604030D01*
X1445549Y1612447D01*
X1439703Y1620329D01*
X1433112Y1627601D01*
X1425841Y1634191D01*
X1417959Y1640037D01*
X1409541Y1645082D01*
X1400670Y1649278D01*
X1391430Y1652584D01*
X1381911Y1654968D01*
X1372203Y1656408D01*
X1362402Y1656890D01*
X662402D02*
X652600Y1656408D01*
X642893Y1654968D01*
X633373Y1652584D01*
X624133Y1649278D01*
X615262Y1645082D01*
X606845Y1640037D01*
X598962Y1634191D01*
X591691Y1627601D01*
X585101Y1620329D01*
X579255Y1612447D01*
X574210Y1604030D01*
X570014Y1595158D01*
X566708Y1585918D01*
X564323Y1576399D01*
X562883Y1566691D01*
X562402Y1556890D01*
Y-243110D02*
Y1556890D01*
X662402Y-343110D02*
X1362402D01*
X1462402Y-243110D02*
Y1556890D01*
X1102402Y1656890D02*
X1362402D01*
X1082402Y1636890D02*
X1102402Y1656890D01*
X942402Y1636890D02*
X1082402D01*
X922402Y1656890D02*
X942402Y1636890D01*
X662402Y1656890D02*
X922402D01*
D13*
X-1653543Y-79353D02*
X-1643598Y-78727D01*
X-1633809Y-76860D01*
X-1624332Y-73780D01*
X-1615315Y-69537D01*
X-1606901Y-64198D01*
X-1599222Y-57846D01*
X-1592401Y-50581D01*
X-1586543Y-42519D01*
X-1581743Y-33787D01*
X-1578074Y-24521D01*
X-1575596Y-14869D01*
X-1574347Y-4982D01*
Y4983D01*
X-1575596Y14870D01*
X-1578074Y24522D01*
X-1581743Y33787D01*
X-1586544Y42520D01*
X-1592401Y50582D01*
X-1599223Y57846D01*
X-1606901Y64198D01*
X-1615315Y69538D01*
X-1624332Y73781D01*
X-1633809Y76860D01*
X-1643598Y78727D01*
X-1653543Y79353D01*
D14*
X1099409Y-598425D02*
X1092028Y-594163D01*
Y-602687D01*
X1099409Y-598425D01*
D15*
X-1204134Y-1413976D02*
X-1154134D01*
X-1204134Y-1613976D02*
X-1154134D01*
X-1004134D02*
X-954134D01*
X-604134Y-1413976D02*
X-554134D01*
X-629134Y-1438976D02*
X-604134Y-1413976D01*
X-804134Y-1613976D02*
X-754134D01*
X-1229134Y-1438976D02*
X-1204134Y-1413976D01*
X-1104134D02*
X-1054134D01*
X-1029134Y-1588976D02*
Y-1438976D01*
Y-1588976D02*
X-1004134Y-1613976D01*
X-929134Y-1438976D02*
X-904134Y-1413976D01*
X-554134D02*
X-529134Y-1438976D01*
X-829134Y-1588976D02*
X-804134Y-1613976D01*
X-629134Y-1588976D02*
X-604134Y-1613976D01*
X-1229134Y-1588976D02*
X-1204134Y-1613976D01*
X-1154134Y-1413976D02*
X-1129134Y-1438976D01*
Y-1588976D02*
Y-1438976D01*
X-1004134Y-1413976D02*
X-954134D01*
X-929134Y-1438976D01*
X-854134Y-1613976D02*
X-829134Y-1588976D01*
X-654134Y-1413976D02*
X-629134Y-1438976D01*
X-654134Y-1613976D02*
X-629134Y-1588976D01*
X-1254134Y-1613976D02*
X-1229134Y-1588976D01*
X-1054134Y-1613976D02*
X-1029134Y-1588976D01*
Y-1438976D02*
X-1004134Y-1413976D01*
X-529134Y-1588976D02*
Y-1438976D01*
X-629134Y-1588976D02*
Y-1438976D01*
X-729134D02*
X-704134Y-1413976D01*
X-1304134Y-1613976D02*
X-1254134D01*
X-1229134Y-1588976D02*
Y-1438976D01*
X-1104134Y-1613976D02*
X-1054134D01*
X-904134Y-1413976D02*
X-854134D01*
X-904134Y-1613976D02*
X-854134D01*
X-554134D02*
X-529134Y-1588976D01*
X-754134Y-1413976D02*
X-729134Y-1438976D01*
X-704134Y-1613976D02*
X-654134D01*
X-1329134Y-1588976D02*
Y-1438976D01*
X-1129134Y-1588976D02*
X-1104134Y-1613976D01*
X-1054134Y-1413976D02*
X-1029134Y-1438976D01*
X-929134Y-1588976D02*
X-904134Y-1613976D01*
X-804134Y-1413976D02*
X-754134D01*
X-729134Y-1588976D02*
Y-1438976D01*
Y-1588976D02*
X-704134Y-1613976D01*
X-1329134Y-1438976D02*
X-1304134Y-1413976D01*
X-1329134Y-1588976D02*
X-1304134Y-1613976D01*
Y-1413976D02*
X-1254134D01*
X-1129134Y-1438976D02*
X-1104134Y-1413976D01*
X-829134Y-1588976D02*
Y-1438976D01*
X-804134Y-1413976D01*
X-754134Y-1613976D02*
X-729134Y-1588976D01*
X-1254134Y-1413976D02*
X-1229134Y-1438976D01*
X-1154134Y-1613976D02*
X-1129134Y-1588976D01*
X-954134Y-1613976D02*
X-929134Y-1588976D01*
Y-1438976D01*
X-854134Y-1413976D02*
X-829134Y-1438976D01*
X-604134Y-1613976D02*
X-554134D01*
X-704134Y-1413976D02*
X-654134D01*
X-469488Y-916142D02*
X-319488D01*
X-469488Y-716142D02*
X-319488D01*
Y-916142D02*
X-294488Y-891142D01*
X-494488Y-791142D02*
X-469488Y-816142D01*
X-494488Y-891142D02*
X-469488Y-916142D01*
X-319488Y-716142D02*
X-294488Y-741142D01*
X-469488Y-816142D02*
X-319488D01*
Y-1016142D02*
X-294488Y-991142D01*
Y-891142D02*
Y-841142D01*
Y-791142D02*
Y-741142D01*
X-494488Y-791142D02*
Y-741142D01*
Y-841142D02*
X-469488Y-816142D01*
X-494488Y-891142D02*
Y-841142D01*
Y-991142D02*
X-469488Y-1016142D01*
X-294488Y-991142D02*
Y-941142D01*
X-494488Y-741142D02*
X-469488Y-716142D01*
X-319488Y-816142D02*
X-294488Y-841142D01*
X-494488Y-991142D02*
Y-941142D01*
X-319488Y-916142D02*
X-294488Y-941142D01*
X-319488Y-816142D02*
X-294488Y-791142D01*
X-469488Y-1016142D02*
X-319488D01*
X-494488Y-941142D02*
X-469488Y-916142D01*
X511969Y-1231491D02*
X586968D01*
X235238Y-1360901D02*
X236379Y-1362041D01*
X235238Y-1360901D02*
Y-1087591D01*
X586968Y-1356491D02*
Y-1231491D01*
X236969Y-1226491D02*
X586968D01*
Y-1087491D01*
X506969D02*
X586968D01*
X235238Y-1087591D02*
X266728D01*
X510829D01*
X266728Y-1361491D02*
Y-1087591D01*
X1574134Y1092716D02*
X1599134Y1117716D01*
X1499134Y1217716D02*
X1524134Y1192716D01*
X1499134Y1317716D02*
X1524134Y1292716D01*
Y992716D02*
X1574134D01*
X1499134Y1117716D02*
X1524134Y1092716D01*
X1574134Y1292716D02*
X1599134Y1317716D01*
X1499134Y1217716D02*
Y1267716D01*
Y1017716D02*
X1524134Y992716D01*
X1499134Y1117716D02*
Y1167716D01*
X1599134Y1317716D02*
Y1367716D01*
X1499134Y1267716D02*
X1524134Y1292716D01*
X1574134D02*
X1599134Y1267716D01*
X1499134Y1317716D02*
Y1367716D01*
X1574134Y992716D02*
X1599134Y1017716D01*
X1499134Y1167716D02*
X1524134Y1192716D01*
X1574134D02*
X1599134Y1167716D01*
Y1017716D02*
Y1067716D01*
X1499134Y1017716D02*
Y1067716D01*
X1599134Y1217716D02*
Y1267716D01*
Y1117716D02*
Y1167716D01*
X1499134Y1367716D02*
X1524134Y1392716D01*
X1499134Y1067716D02*
X1524134Y1092716D01*
X1574134Y1192716D02*
X1599134Y1217716D01*
X1574134Y1392716D02*
X1599134Y1367716D01*
X1524134Y1392716D02*
X1574134D01*
Y1092716D02*
X1599134Y1067716D01*
X-188976Y-1495827D02*
X-163976Y-1470827D01*
X-488976Y-1545827D02*
Y-1495827D01*
X-463976Y-1470827D01*
X-313976D02*
X-288976Y-1495827D01*
X-188976Y-1545827D02*
X-163976Y-1570827D01*
X-488976Y-1545827D02*
X-463976Y-1570827D01*
X-263976Y-1470827D02*
X-213976D01*
X-363976D02*
X-313976D01*
X-163976Y-1570827D02*
X-113976D01*
X-163976Y-1470827D02*
X-113976D01*
X-288976Y-1495827D02*
X-263976Y-1470827D01*
X-288976Y-1545827D02*
X-263976Y-1570827D01*
X-113976Y-1470827D02*
X-88976Y-1495827D01*
X-463976Y-1570827D02*
X-413976D01*
X-388976Y-1495827D02*
X-363976Y-1470827D01*
X-388976Y-1545827D02*
X-363976Y-1570827D01*
X-463976Y-1470827D02*
X-413976D01*
X-263976Y-1570827D02*
X-213976D01*
X-113976D02*
X-88976Y-1545827D01*
X-363976Y-1570827D02*
X-313976D01*
X-413976Y-1470827D02*
X-388976Y-1495827D01*
X-213976Y-1570827D02*
X-188976Y-1545827D01*
X-88976D02*
Y-1495827D01*
X-413976Y-1570827D02*
X-388976Y-1545827D01*
X-313976Y-1570827D02*
X-288976Y-1545827D01*
X-213976Y-1470827D02*
X-188976Y-1495827D01*
X1497244Y676772D02*
Y726772D01*
X1522244Y751772D01*
X1572244D02*
X1597244Y726772D01*
X1497244Y776772D02*
X1522244Y751772D01*
X1497244Y776772D02*
Y826772D01*
X1522244Y851772D01*
X1572244D02*
X1597244Y826772D01*
Y776772D02*
Y826772D01*
X1572244Y751772D02*
X1597244Y776772D01*
X1522244Y651772D02*
X1572244D01*
X1497244Y676772D02*
X1522244Y651772D01*
X1572244D02*
X1597244Y676772D01*
Y726772D01*
X1522244Y851772D02*
X1572244D01*
X527284Y780709D02*
Y830709D01*
X502284Y755709D02*
X527284Y780709D01*
X427284D02*
X452284Y755709D01*
X502284Y955709D02*
X527284Y930709D01*
Y880709D02*
Y930709D01*
X502284Y855709D02*
X527284Y880709D01*
X427284D02*
X452284Y855709D01*
X427284Y880709D02*
Y930709D01*
X452284Y955709D01*
X502284Y855709D02*
X527284Y830709D01*
X427284D02*
X452284Y855709D01*
X427284Y780709D02*
Y830709D01*
X527284Y1080709D02*
Y1130709D01*
X502284Y1055709D02*
X527284Y1080709D01*
X427284D02*
X452284Y1055709D01*
X502284D02*
X527284Y1030709D01*
Y980709D02*
Y1030709D01*
X502284Y955709D02*
X527284Y980709D01*
X427284D02*
X452284Y955709D01*
X427284Y980709D02*
Y1030709D01*
X452284Y1055709D01*
X502284Y1255709D02*
X527284Y1230709D01*
Y1180709D02*
Y1230709D01*
X502284Y1155709D02*
X527284Y1180709D01*
X427284D02*
X452284Y1155709D01*
X427284Y1180709D02*
Y1230709D01*
X452284Y1255709D01*
X502284Y1155709D02*
X527284Y1130709D01*
X427284D02*
X452284Y1155709D01*
X427284Y1080709D02*
Y1130709D01*
X527284Y1380709D02*
Y1430709D01*
X502284Y1355709D02*
X527284Y1380709D01*
X427284D02*
X452284Y1355709D01*
X502284D02*
X527284Y1330709D01*
Y1280709D02*
Y1330709D01*
X502284Y1255709D02*
X527284Y1280709D01*
X427284D02*
X452284Y1255709D01*
X427284Y1280709D02*
Y1330709D01*
X452284Y1355709D01*
Y1455709D02*
X502284D01*
X527284Y1430709D01*
X427284D02*
X452284Y1455709D01*
X427284Y1380709D02*
Y1430709D01*
X527284Y680709D02*
Y730709D01*
X502284Y655709D02*
X527284Y680709D01*
X427284D02*
X452284Y655709D01*
X502284Y755709D02*
X527284Y730709D01*
X427284D02*
X452284Y755709D01*
X427284Y680709D02*
Y730709D01*
X527284Y580709D02*
Y630709D01*
X502284Y555709D02*
X527284Y580709D01*
X427284D02*
X452284Y555709D01*
X502284Y655709D02*
X527284Y630709D01*
X427284D02*
X452284Y655709D01*
X427284Y580709D02*
Y630709D01*
X527284Y480709D02*
Y530709D01*
X502284Y455709D02*
X527284Y480709D01*
X452284Y455709D02*
X502284D01*
X427284Y480709D02*
X452284Y455709D01*
X502284Y555709D02*
X527284Y530709D01*
X427284D02*
X452284Y555709D01*
X427284Y480709D02*
Y530709D01*
X1316535Y-758346D02*
Y-708346D01*
X1516535Y-758346D02*
X1541535Y-783346D01*
X1341535D02*
X1391535D01*
X1416535Y-708346D02*
X1441535Y-683346D01*
X1541535Y-783346D02*
X1591535D01*
X1391535D02*
X1416535Y-758346D01*
X1541535Y-683346D02*
X1591535D01*
X1391535D02*
X1416535Y-708346D01*
Y-758346D02*
X1441535Y-783346D01*
X1591535Y-683346D02*
X1616535Y-708346D01*
X1441535Y-783346D02*
X1491535D01*
X1341535Y-683346D02*
X1391535D01*
X1591535Y-783346D02*
X1616535Y-758346D01*
X1316535Y-708346D02*
X1341535Y-683346D01*
X1491535Y-783346D02*
X1516535Y-758346D01*
Y-708346D02*
X1541535Y-683346D01*
X1616535Y-758346D02*
Y-708346D01*
X1316535Y-758346D02*
X1341535Y-783346D01*
X1491535Y-683346D02*
X1516535Y-708346D01*
X1441535Y-683346D02*
X1491535D01*
X165157Y-1195276D02*
Y-1145276D01*
X140157Y-1220276D02*
X165157Y-1195276D01*
X65157D02*
X90157Y-1220276D01*
X140157D02*
X165157Y-1245276D01*
Y-1295276D02*
Y-1245276D01*
X140157Y-1320276D02*
X165157Y-1295276D01*
X65157D02*
X90157Y-1320276D01*
X65157Y-1295276D02*
Y-1245276D01*
X90157Y-1220276D01*
Y-1120276D02*
X140157D01*
X165157Y-1145276D01*
X65157D02*
X90157Y-1120276D01*
X65157Y-1195276D02*
Y-1145276D01*
X90157Y-1320276D02*
X140157D01*
D16*
X-1247047Y1555748D02*
X-1228882D01*
X-1222882Y1545748D01*
X-1217882Y1562748D01*
X-1210882Y1545748D01*
X-1204882Y1562748D01*
X-1199055Y1545906D01*
X-1195118Y1555748D01*
X-1174213D01*
X-1248130Y1485748D02*
Y1625748D01*
Y1485748D02*
X-1173130D01*
Y1625748D01*
X-1248130D02*
X-1173130D01*
X1525591Y-636223D02*
X1604331D01*
X1505901Y-620083D02*
Y-561024D01*
Y-620083D02*
X1525591Y-636223D01*
X1604331D01*
X1624021Y-620083D01*
Y-561024D01*
X1505901Y-403543D02*
Y-328344D01*
X1624021D01*
Y-403543D02*
Y-328344D01*
X-1425748Y-901083D02*
X-1355748D01*
X-1425748D02*
Y-776083D01*
X-1355748D01*
Y-901083D02*
Y-776083D01*
X-1380748Y-831083D02*
X-1370748D01*
X-1390748D02*
X-1380748D01*
X-1400748D02*
X-1390748D01*
X-1410748D02*
X-1400748D01*
X-1410748D02*
X-1400748Y-838583D01*
X-1390748Y-846083D01*
X-1370748Y-831083D01*
X-1393248Y-843583D02*
X-1370748Y-831083D01*
X-1393248Y-843583D02*
X-1380748Y-831083D01*
X-1395748Y-841083D02*
X-1380748Y-831083D01*
X-1395748Y-841083D02*
X-1390748Y-831083D01*
X-1400748Y-838583D02*
X-1390748Y-831083D01*
X-1400748Y-838583D02*
Y-831083D01*
X-1428248Y-1056220D02*
X-1353248D01*
X-1428248D02*
Y-916221D01*
X-1353248D01*
Y-1056220D02*
Y-916221D01*
X-1427165Y-986221D02*
X-1406260D01*
X-1402323Y-976378D01*
X-1396496Y-993221D01*
X-1390496Y-976221D01*
X-1383496Y-993221D01*
X-1378496Y-976221D01*
X-1372496Y-986221D01*
X-1354331D01*
X1003094Y-559339D02*
Y-524339D01*
X1022779Y-559339D02*
Y-524339D01*
X1024606Y-540354D02*
X1036417D01*
X976279Y-471339D02*
X1051280D01*
Y-611339D02*
Y-471339D01*
X976279Y-611339D02*
X1051280D01*
X976279D02*
Y-471339D01*
X991142Y-540354D02*
X1002953D01*
D17*
X768701Y-175394D02*
X1256890D01*
X768701Y-325000D02*
X1256890D01*
Y-175394D01*
X768701Y-325000D02*
Y-175394D01*
D18*
X-485532Y-649613D02*
X-511770D01*
Y-669291D01*
X-498651D01*
X-511770D01*
Y-688970D01*
X-472412D02*
Y-649613D01*
X-452734D01*
X-446174Y-656172D01*
Y-669291D01*
X-452734Y-675851D01*
X-472412D01*
X-406817Y-656172D02*
X-413376Y-649613D01*
X-426495D01*
X-433055Y-656172D01*
Y-682410D01*
X-426495Y-688970D01*
X-413376D01*
X-406817Y-682410D01*
Y-669291D01*
X-419936D01*
X-393698Y-688970D02*
Y-662732D01*
X-380579Y-649613D01*
X-367459Y-662732D01*
Y-688970D01*
Y-669291D01*
X-393698D01*
X-314983Y-649613D02*
X-301864D01*
X-308423D01*
Y-688970D01*
X-314983D01*
X-301864D01*
X-262506Y-649613D02*
X-275625D01*
X-282185Y-656172D01*
Y-682410D01*
X-275625Y-688970D01*
X-262506D01*
X-255947Y-682410D01*
Y-656172D01*
X-262506Y-649613D01*
D19*
X1203583Y-224764D02*
Y-264751D01*
X1183589Y-284744D01*
X1163596Y-264751D01*
Y-224764D01*
Y-254754D01*
X1203583D01*
X1143602Y-224764D02*
Y-284744D01*
X1103615Y-224764D01*
Y-284744D01*
X1083622D02*
X1043634D01*
X1063628D01*
Y-224764D01*
X983654Y-284744D02*
X1023641D01*
Y-224764D01*
X983654D01*
X1023641Y-254754D02*
X1003648D01*
X963660Y-224764D02*
Y-284744D01*
X923673Y-224764D01*
Y-284744D01*
X903680Y-224764D02*
Y-284744D01*
X863693Y-224764D01*
Y-284744D01*
X843699Y-224764D02*
Y-264751D01*
X823706Y-284744D01*
X803712Y-264751D01*
Y-224764D01*
Y-254754D01*
X843699D01*
X307032Y-1575266D02*
Y-1515285D01*
X337022D01*
X347019Y-1525282D01*
Y-1545276D01*
X337022Y-1555272D01*
X307032D01*
X367012Y-1515285D02*
Y-1575266D01*
X397002D01*
X406999Y-1565269D01*
Y-1525282D01*
X397002Y-1515285D01*
X367012D01*
X526961Y-1525282D02*
X516964Y-1515285D01*
X496970D01*
X486973Y-1525282D01*
Y-1535279D01*
X496970Y-1545276D01*
X516964D01*
X526961Y-1555272D01*
Y-1565269D01*
X516964Y-1575266D01*
X496970D01*
X486973Y-1565269D01*
X546954Y-1515285D02*
X566947D01*
X556951D01*
Y-1575266D01*
X546954D01*
X566947D01*
X596938D02*
Y-1515285D01*
X636925Y-1575266D01*
Y-1515285D01*
X656918D02*
Y-1575266D01*
Y-1555272D01*
X696905Y-1515285D01*
X666915Y-1545276D01*
X696905Y-1575266D01*
X-417360Y1177628D02*
X-457347D01*
Y1117647D01*
X-417360D01*
X-457347Y1147638D02*
X-437353D01*
X-397366Y1117647D02*
Y1177628D01*
X-367376D01*
X-357379Y1167631D01*
Y1147638D01*
X-367376Y1137641D01*
X-397366D01*
X-307395Y1117647D02*
Y1177628D01*
X-337385Y1147638D01*
X-297398D01*
X-237418Y1167631D02*
X-247415Y1177628D01*
X-267408D01*
X-277405Y1167631D01*
Y1127644D01*
X-267408Y1117647D01*
X-247415D01*
X-237418Y1127644D01*
X-177437Y1177628D02*
X-217424D01*
Y1117647D01*
X-177437D01*
X-217424Y1147638D02*
X-197431D01*
X-117457Y1177628D02*
X-137450Y1167631D01*
X-157444Y1147638D01*
Y1127644D01*
X-147447Y1117647D01*
X-127453D01*
X-117457Y1127644D01*
Y1137641D01*
X-127453Y1147638D01*
X-157444D01*
X791728Y1499537D02*
Y1539524D01*
X821718D01*
X831715Y1529528D01*
Y1499537D01*
X851708D02*
Y1559518D01*
X881699D01*
X891696Y1549521D01*
Y1529528D01*
X881699Y1519531D01*
X851708D01*
X871702D02*
X891696Y1499537D01*
X951676Y1559518D02*
X911689D01*
Y1529528D01*
X931683D01*
X911689D01*
Y1499537D01*
X1011657Y1559518D02*
X971670D01*
Y1529528D01*
X991663Y1539524D01*
X1001660D01*
X1011657Y1529528D01*
Y1509534D01*
X1001660Y1499537D01*
X981667D01*
X971670Y1509534D01*
X1071637Y1499537D02*
X1031650D01*
X1071637Y1539524D01*
Y1549521D01*
X1061641Y1559518D01*
X1041647D01*
X1031650Y1549521D01*
X1121621Y1499537D02*
Y1559518D01*
X1091631Y1529528D01*
X1131618D01*
X1151611Y1549521D02*
X1161608Y1559518D01*
X1181602D01*
X1191599Y1549521D01*
Y1539524D01*
X1181602Y1529528D01*
X1191599Y1519531D01*
Y1509534D01*
X1181602Y1499537D01*
X1161608D01*
X1151611Y1509534D01*
Y1519531D01*
X1161608Y1529528D01*
X1151611Y1539524D01*
Y1549521D01*
X1161608Y1529528D02*
X1181602D01*
X1211592Y1549521D02*
X1221589Y1559518D01*
X1241582D01*
X1251579Y1549521D01*
Y1509534D01*
X1241582Y1499537D01*
X1221589D01*
X1211592Y1509534D01*
Y1549521D01*
M02*
