G04*
G04 #@! TF.GenerationSoftware,Altium Limited,Altium Designer,23.5.1 (21)*
G04*
G04 Layer_Physical_Order=1*
G04 Layer_Color=255*
%FSLAX26Y26*%
%MOIN*%
G70*
G04*
G04 #@! TF.SameCoordinates,34754160-EC67-4D61-A336-4AE92D18F558*
G04*
G04*
G04 #@! TF.FilePolarity,Positive*
G04*
G01*
G75*
%ADD13C,0.078740*%
%ADD17C,0.011811*%
G04:AMPARAMS|DCode=20|XSize=40mil|YSize=55mil|CornerRadius=5mil|HoleSize=0mil|Usage=FLASHONLY|Rotation=90.000|XOffset=0mil|YOffset=0mil|HoleType=Round|Shape=RoundedRectangle|*
%AMROUNDEDRECTD20*
21,1,0.040000,0.045000,0,0,90.0*
21,1,0.030000,0.055000,0,0,90.0*
1,1,0.010000,0.022500,0.015000*
1,1,0.010000,0.022500,-0.015000*
1,1,0.010000,-0.022500,-0.015000*
1,1,0.010000,-0.022500,0.015000*
%
%ADD20ROUNDEDRECTD20*%
%ADD21R,0.087800X0.093310*%
G04:AMPARAMS|DCode=22|XSize=35mil|YSize=50mil|CornerRadius=4.375mil|HoleSize=0mil|Usage=FLASHONLY|Rotation=180.000|XOffset=0mil|YOffset=0mil|HoleType=Round|Shape=RoundedRectangle|*
%AMROUNDEDRECTD22*
21,1,0.035000,0.041250,0,0,180.0*
21,1,0.026250,0.050000,0,0,180.0*
1,1,0.008750,-0.013125,0.020625*
1,1,0.008750,0.013125,0.020625*
1,1,0.008750,0.013125,-0.020625*
1,1,0.008750,-0.013125,-0.020625*
%
%ADD22ROUNDEDRECTD22*%
G04:AMPARAMS|DCode=23|XSize=40mil|YSize=55mil|CornerRadius=5mil|HoleSize=0mil|Usage=FLASHONLY|Rotation=0.000|XOffset=0mil|YOffset=0mil|HoleType=Round|Shape=RoundedRectangle|*
%AMROUNDEDRECTD23*
21,1,0.040000,0.045000,0,0,0.0*
21,1,0.030000,0.055000,0,0,0.0*
1,1,0.010000,0.015000,-0.022500*
1,1,0.010000,-0.015000,-0.022500*
1,1,0.010000,-0.015000,0.022500*
1,1,0.010000,0.015000,0.022500*
%
%ADD23ROUNDEDRECTD23*%
%ADD24C,0.039370*%
%ADD35C,0.094488*%
%ADD45C,0.062992*%
G04:AMPARAMS|DCode=49|XSize=50mil|YSize=50mil|CornerRadius=25mil|HoleSize=0mil|Usage=FLASHONLY|Rotation=90.000|XOffset=0mil|YOffset=0mil|HoleType=Round|Shape=RoundedRectangle|*
%AMROUNDEDRECTD49*
21,1,0.050000,0.000000,0,0,90.0*
21,1,0.000000,0.050000,0,0,90.0*
1,1,0.050000,0.000000,0.000000*
1,1,0.050000,0.000000,0.000000*
1,1,0.050000,0.000000,0.000000*
1,1,0.050000,0.000000,0.000000*
%
%ADD49ROUNDEDRECTD49*%
G04:AMPARAMS|DCode=50|XSize=50mil|YSize=50mil|CornerRadius=25mil|HoleSize=0mil|Usage=FLASHONLY|Rotation=180.000|XOffset=0mil|YOffset=0mil|HoleType=Round|Shape=RoundedRectangle|*
%AMROUNDEDRECTD50*
21,1,0.050000,0.000000,0,0,180.0*
21,1,0.000000,0.050000,0,0,180.0*
1,1,0.050000,0.000000,0.000000*
1,1,0.050000,0.000000,0.000000*
1,1,0.050000,0.000000,0.000000*
1,1,0.050000,0.000000,0.000000*
%
%ADD50ROUNDEDRECTD50*%
%ADD51C,0.019685*%
%ADD52C,0.039370*%
%ADD53C,0.059055*%
%ADD54R,0.059055X0.059055*%
%ADD55C,0.070000*%
%ADD56C,0.100000*%
%ADD57C,0.149606*%
%ADD58C,0.074000*%
%ADD59C,0.080000*%
%ADD60R,0.080000X0.080000*%
%ADD61C,0.074803*%
%ADD62R,0.062992X0.062992*%
%ADD63C,0.062992*%
%ADD64C,0.055118*%
%ADD65R,0.055118X0.055118*%
%ADD66C,0.050000*%
G36*
X1558071Y1387591D02*
X1548226D01*
X1536813Y1384532D01*
X1526581Y1378625D01*
X1518226Y1370270D01*
X1512318Y1360037D01*
X1511253Y1356064D01*
X1487606D01*
X1480694Y1354689D01*
X1474833Y1350773D01*
X1258881Y1134820D01*
X1254965Y1128960D01*
X1253590Y1122047D01*
Y775591D01*
X1254965Y768678D01*
X1258881Y762818D01*
X1327581Y694117D01*
X1333442Y690201D01*
X1340354Y688826D01*
X1373324D01*
X1378094Y680564D01*
X1386076Y672582D01*
X1395853Y666938D01*
X1406757Y664016D01*
X1418046D01*
X1428950Y666938D01*
X1438727Y672582D01*
X1446709Y680564D01*
X1452354Y690341D01*
X1455276Y701245D01*
Y712534D01*
X1452354Y723439D01*
X1446709Y733215D01*
X1438727Y741198D01*
X1428950Y746842D01*
X1418046Y749764D01*
X1406757D01*
X1395853Y746842D01*
X1386076Y741198D01*
X1378094Y733215D01*
X1373324Y724953D01*
X1347836D01*
X1289717Y783073D01*
Y1114565D01*
X1495089Y1319937D01*
X1515470D01*
X1518226Y1315163D01*
X1526581Y1306808D01*
X1536813Y1300901D01*
X1548226Y1297842D01*
X1558071D01*
Y1289546D01*
X1554104Y1286502D01*
X1550042Y1287591D01*
X1538226D01*
X1526813Y1284532D01*
X1516581Y1278625D01*
X1508226Y1270270D01*
X1502318Y1260037D01*
X1499260Y1248624D01*
Y1236809D01*
X1502318Y1225396D01*
X1508226Y1215163D01*
X1516581Y1206808D01*
X1526813Y1200901D01*
X1538226Y1197842D01*
X1550042D01*
X1554104Y1198931D01*
X1558071Y1195887D01*
Y1187591D01*
X1548226D01*
X1536813Y1184532D01*
X1526581Y1178625D01*
X1518226Y1170270D01*
X1512318Y1160037D01*
X1509260Y1148624D01*
Y1136809D01*
X1512318Y1125396D01*
X1518226Y1115163D01*
X1526581Y1106808D01*
X1536813Y1100901D01*
X1548226Y1097842D01*
X1558071D01*
Y1089546D01*
X1554104Y1086502D01*
X1550042Y1087591D01*
X1538226D01*
X1526813Y1084532D01*
X1516581Y1078625D01*
X1508226Y1070270D01*
X1502318Y1060037D01*
X1499260Y1048624D01*
Y1038086D01*
X1486128Y1024953D01*
X1451479D01*
X1446709Y1033215D01*
X1438727Y1041198D01*
X1428950Y1046842D01*
X1418046Y1049764D01*
X1406757D01*
X1395853Y1046842D01*
X1386076Y1041198D01*
X1378094Y1033215D01*
X1372449Y1023439D01*
X1369528Y1012534D01*
Y1001245D01*
X1372449Y990341D01*
X1378094Y980564D01*
X1386076Y972582D01*
X1395853Y966938D01*
X1406757Y964016D01*
X1418046D01*
X1428950Y966938D01*
X1438727Y972582D01*
X1446709Y980564D01*
X1451479Y988826D01*
X1493610D01*
X1500522Y990201D01*
X1506383Y994117D01*
X1518161Y1005896D01*
X1526813Y1000901D01*
X1538226Y997842D01*
X1550042D01*
X1551708Y998289D01*
X1554297Y993806D01*
X1485444Y924953D01*
X1451479D01*
X1446709Y933215D01*
X1438727Y941198D01*
X1428950Y946842D01*
X1418046Y949764D01*
X1406757D01*
X1395853Y946842D01*
X1386076Y941198D01*
X1378094Y933215D01*
X1372449Y923439D01*
X1369528Y912534D01*
Y901245D01*
X1372449Y890341D01*
X1378094Y880564D01*
X1386076Y872582D01*
X1395853Y866938D01*
X1406757Y864016D01*
X1418046D01*
X1428950Y866938D01*
X1438727Y872582D01*
X1446709Y880564D01*
X1451479Y888826D01*
X1492926D01*
X1499839Y890201D01*
X1505699Y894117D01*
X1524561Y912979D01*
X1529180Y911066D01*
Y850159D01*
X1519691Y844680D01*
X1511336Y836325D01*
X1505428Y826092D01*
X1505375Y825894D01*
X1450936D01*
X1446709Y833215D01*
X1438727Y841198D01*
X1428950Y846842D01*
X1418046Y849764D01*
X1406757D01*
X1395853Y846842D01*
X1386076Y841198D01*
X1378094Y833215D01*
X1372449Y823439D01*
X1369528Y812534D01*
Y801245D01*
X1372449Y790341D01*
X1378094Y780564D01*
X1386076Y772582D01*
X1395853Y766938D01*
X1406757Y764016D01*
X1418046D01*
X1428950Y766938D01*
X1438727Y772582D01*
X1446709Y780564D01*
X1452023Y789767D01*
X1506400D01*
X1511336Y781218D01*
X1519691Y772864D01*
X1529923Y766956D01*
X1541336Y763898D01*
X1553152D01*
X1554104Y764153D01*
X1558071Y761109D01*
Y742434D01*
X1554104Y739391D01*
X1553152Y739646D01*
X1541336D01*
X1529923Y736588D01*
X1519691Y730680D01*
X1511336Y722325D01*
X1505428Y712092D01*
X1502370Y700679D01*
Y688864D01*
X1505428Y677451D01*
X1511336Y667218D01*
X1519691Y658864D01*
X1529923Y652956D01*
X1541336Y649898D01*
X1553152D01*
X1554104Y650153D01*
X1558071Y647109D01*
Y-328389D01*
X1511061D01*
Y-375201D01*
X1564961D01*
Y-394886D01*
X1511061D01*
Y-441699D01*
X1558071D01*
Y-457407D01*
X1499132D01*
X1345361Y-303636D01*
X1347949Y-299153D01*
X1354782Y-300984D01*
X1370021D01*
X1384740Y-297040D01*
X1397937Y-289421D01*
X1408712Y-278646D01*
X1416332Y-265449D01*
X1420276Y-250730D01*
Y-235491D01*
X1416332Y-220772D01*
X1408712Y-207575D01*
X1397937Y-196799D01*
X1384740Y-189180D01*
X1370021Y-185236D01*
X1354782D01*
X1340063Y-189180D01*
X1326866Y-196799D01*
X1316091Y-207575D01*
X1308472Y-220772D01*
X1304528Y-235491D01*
Y-250730D01*
X1306359Y-257563D01*
X1301876Y-260151D01*
X1010112Y31612D01*
Y655512D01*
X1009043Y660888D01*
X1005997Y665446D01*
X937100Y734344D01*
X932542Y737389D01*
X927165Y738459D01*
X893919D01*
X892579Y743459D01*
X897678Y746403D01*
X904275Y753000D01*
X908940Y761080D01*
X911354Y770091D01*
Y779421D01*
X908940Y788433D01*
X904275Y796512D01*
X897678Y803110D01*
X889598Y807774D01*
X880586Y810189D01*
X871256D01*
X862245Y807774D01*
X854165Y803110D01*
X847568Y796512D01*
X842903Y788433D01*
X840488Y779421D01*
Y770091D01*
X842903Y761080D01*
X847568Y753000D01*
X854165Y746403D01*
X859264Y743459D01*
X857924Y738459D01*
X793919D01*
X792579Y743459D01*
X797678Y746403D01*
X804275Y753000D01*
X808940Y761080D01*
X811354Y770091D01*
Y779421D01*
X808940Y788433D01*
X804843Y795528D01*
X810804Y801489D01*
X813850Y806047D01*
X814919Y811424D01*
Y828186D01*
X832312Y845579D01*
X835358Y850137D01*
X836428Y855513D01*
Y865928D01*
X841428Y866586D01*
X842903Y861080D01*
X847568Y853000D01*
X854165Y846403D01*
X862245Y841738D01*
X871256Y839323D01*
X880586D01*
X889598Y841738D01*
X897678Y846403D01*
X904275Y853000D01*
X908940Y861080D01*
X911354Y870091D01*
Y879421D01*
X908940Y888433D01*
X904275Y896512D01*
X897678Y903110D01*
X889598Y907774D01*
X880586Y910189D01*
X871256D01*
X862245Y907774D01*
X854165Y903110D01*
X847568Y896512D01*
X842903Y888433D01*
X841428Y882926D01*
X836428Y883584D01*
Y965928D01*
X841428Y966586D01*
X842903Y961080D01*
X847568Y953000D01*
X854165Y946403D01*
X862245Y941738D01*
X871256Y939323D01*
X880586D01*
X889598Y941738D01*
X897678Y946403D01*
X904275Y953000D01*
X908940Y961080D01*
X911354Y970091D01*
Y979421D01*
X908940Y988433D01*
X904275Y996512D01*
X897678Y1003110D01*
X889598Y1007774D01*
X880586Y1010189D01*
X871256D01*
X862245Y1007774D01*
X854165Y1003110D01*
X847568Y996512D01*
X842903Y988433D01*
X841428Y982926D01*
X836428Y983584D01*
Y1065928D01*
X841428Y1066586D01*
X842903Y1061080D01*
X847568Y1053000D01*
X854165Y1046403D01*
X862245Y1041738D01*
X871256Y1039323D01*
X880586D01*
X889598Y1041738D01*
X897678Y1046403D01*
X904275Y1053000D01*
X908940Y1061080D01*
X911354Y1070091D01*
Y1079421D01*
X908940Y1088433D01*
X904275Y1096512D01*
X897678Y1103110D01*
X889598Y1107774D01*
X880586Y1110189D01*
X871256D01*
X862245Y1107774D01*
X854165Y1103110D01*
X847568Y1096512D01*
X842903Y1088433D01*
X841428Y1082926D01*
X836428Y1083584D01*
Y1093999D01*
X835358Y1099376D01*
X832312Y1103934D01*
X801555Y1134691D01*
X796997Y1137736D01*
X793777Y1138377D01*
X792906Y1143648D01*
X797678Y1146403D01*
X804275Y1153000D01*
X808940Y1161080D01*
X811354Y1170091D01*
Y1179421D01*
X809051Y1188017D01*
X832312Y1211278D01*
X835358Y1215836D01*
X836428Y1221213D01*
Y1265928D01*
X841428Y1266586D01*
X842903Y1261080D01*
X847568Y1253000D01*
X854165Y1246403D01*
X862245Y1241738D01*
X871256Y1239323D01*
X880586D01*
X889598Y1241738D01*
X897678Y1246403D01*
X904275Y1253000D01*
X908940Y1261080D01*
X911354Y1270091D01*
Y1279421D01*
X908940Y1288433D01*
X904275Y1296512D01*
X897678Y1303110D01*
X889598Y1307774D01*
X880586Y1310189D01*
X871256D01*
X862245Y1307774D01*
X854165Y1303110D01*
X847568Y1296512D01*
X842903Y1288433D01*
X841428Y1282926D01*
X836428Y1283584D01*
Y1513252D01*
X835358Y1518628D01*
X832312Y1523186D01*
X772520Y1582979D01*
X774433Y1587598D01*
X1262384D01*
X1265362Y1583582D01*
X1263248Y1576613D01*
X1261305Y1556890D01*
X1263248Y1537167D01*
X1269001Y1518202D01*
X1278343Y1500724D01*
X1290916Y1485404D01*
X1306236Y1472831D01*
X1323714Y1463489D01*
X1342679Y1457736D01*
X1362402Y1455794D01*
X1382124Y1457736D01*
X1401089Y1463489D01*
X1418568Y1472831D01*
X1433887Y1485404D01*
X1446460Y1500724D01*
X1455802Y1518202D01*
X1461555Y1537167D01*
X1463498Y1556890D01*
X1461555Y1576613D01*
X1459441Y1583582D01*
X1462420Y1587598D01*
X1558071D01*
Y1387591D01*
D02*
G37*
G36*
X808328Y1507432D02*
Y1312315D01*
X785764D01*
Y1274756D01*
X766079D01*
Y1312315D01*
X743514D01*
Y1557937D01*
X742445Y1563313D01*
X739399Y1567871D01*
X727776Y1579495D01*
X729422Y1584920D01*
X730605Y1585156D01*
X808328Y1507432D01*
D02*
G37*
G36*
X572449Y1290341D02*
X578094Y1280564D01*
X586076Y1272582D01*
X595853Y1266938D01*
X606757Y1264016D01*
X618046D01*
X628950Y1266938D01*
X638727Y1272582D01*
X646709Y1280564D01*
X650242Y1286683D01*
X655242Y1285343D01*
Y1228436D01*
X650242Y1227097D01*
X646709Y1233215D01*
X638727Y1241198D01*
X628950Y1246842D01*
X618046Y1249764D01*
X606757D01*
X595853Y1246842D01*
X586076Y1241198D01*
X578094Y1233215D01*
X572449Y1223439D01*
X571621Y1220349D01*
X524818D01*
X524099Y1223029D01*
X518192Y1233262D01*
X509837Y1241617D01*
X499604Y1247525D01*
X488191Y1250583D01*
X476376D01*
X464963Y1247525D01*
X454730Y1241617D01*
X446375Y1233262D01*
X440468Y1223029D01*
X437409Y1211617D01*
Y1199801D01*
X440468Y1188388D01*
X446375Y1178155D01*
X454730Y1169801D01*
X464963Y1163893D01*
X476376Y1160835D01*
X488191D01*
X499604Y1163893D01*
X509837Y1169801D01*
X518192Y1178155D01*
X524099Y1188388D01*
X525134Y1192250D01*
X571938D01*
X572449Y1190341D01*
X578094Y1180564D01*
X586076Y1172582D01*
X595853Y1166938D01*
X606757Y1164016D01*
X618046D01*
X628950Y1166938D01*
X638727Y1172582D01*
X646709Y1180564D01*
X650242Y1186683D01*
X655242Y1185343D01*
Y1028436D01*
X650242Y1027097D01*
X646709Y1033215D01*
X638727Y1041198D01*
X628950Y1046842D01*
X618046Y1049764D01*
X606757D01*
X595853Y1046842D01*
X586076Y1041198D01*
X578094Y1033215D01*
X572449Y1023439D01*
X571621Y1020349D01*
X524818D01*
X524099Y1023029D01*
X518192Y1033262D01*
X509837Y1041617D01*
X499604Y1047525D01*
X488191Y1050583D01*
X476376D01*
X464963Y1047525D01*
X454730Y1041617D01*
X446375Y1033262D01*
X440468Y1023029D01*
X437409Y1011616D01*
Y999801D01*
X440468Y988388D01*
X446375Y978155D01*
X454730Y969801D01*
X464963Y963893D01*
X476376Y960835D01*
X488191D01*
X499604Y963893D01*
X509837Y969801D01*
X518192Y978155D01*
X524099Y988388D01*
X525134Y992250D01*
X571938D01*
X572449Y990341D01*
X578094Y980564D01*
X586076Y972582D01*
X595853Y966938D01*
X606757Y964016D01*
X618046D01*
X628950Y966938D01*
X638727Y972582D01*
X646709Y980564D01*
X650242Y986683D01*
X655242Y985343D01*
Y981386D01*
X656311Y976010D01*
X659357Y971452D01*
X742792Y888017D01*
X740488Y879421D01*
Y870091D01*
X742903Y861080D01*
X747568Y853000D01*
X754165Y846403D01*
X762245Y841738D01*
X771256Y839323D01*
X780586D01*
X782904Y839944D01*
X787201Y835919D01*
X786820Y834005D01*
Y817243D01*
X779766Y810189D01*
X771256D01*
X762245Y807774D01*
X754165Y803110D01*
X747568Y796512D01*
X742903Y788433D01*
X740488Y779421D01*
Y770091D01*
X742903Y761080D01*
X747568Y753000D01*
X754165Y746403D01*
X759264Y743459D01*
X757924Y738459D01*
X748930D01*
X704279Y783110D01*
Y829062D01*
X703209Y834439D01*
X700164Y838997D01*
X651060Y888100D01*
X652354Y890341D01*
X655276Y901245D01*
Y912534D01*
X652354Y923439D01*
X646709Y933215D01*
X638727Y941198D01*
X628950Y946842D01*
X618046Y949764D01*
X606757D01*
X595853Y946842D01*
X586076Y941198D01*
X578094Y933215D01*
X572449Y923439D01*
X571621Y920349D01*
X514818D01*
X514099Y923029D01*
X508192Y933262D01*
X499837Y941617D01*
X489604Y947525D01*
X478191Y950583D01*
X466376D01*
X454963Y947525D01*
X444730Y941617D01*
X436375Y933262D01*
X435435Y931634D01*
X430435Y932974D01*
Y1075012D01*
X435435Y1076089D01*
X443425Y1068099D01*
X454142Y1061912D01*
X462441Y1059688D01*
Y1105709D01*
Y1151729D01*
X454142Y1149506D01*
X443425Y1143318D01*
X435435Y1135329D01*
X430435Y1136405D01*
Y1278444D01*
X435435Y1279784D01*
X436375Y1278155D01*
X444730Y1269801D01*
X454963Y1263893D01*
X466376Y1260835D01*
X478191D01*
X489604Y1263893D01*
X499837Y1269801D01*
X508192Y1278155D01*
X514099Y1288388D01*
X515134Y1292250D01*
X571938D01*
X572449Y1290341D01*
D02*
G37*
G36*
X376185Y1446391D02*
X377683Y1445231D01*
Y1187328D01*
X372683Y1186367D01*
X366003Y1193047D01*
X356989Y1198251D01*
X351575Y1199702D01*
Y1161417D01*
X331890D01*
Y1199702D01*
X326475Y1198251D01*
X317462Y1193047D01*
X312357Y1187942D01*
X307357Y1190013D01*
Y1381976D01*
X372917Y1447536D01*
X376185Y1446391D01*
D02*
G37*
G36*
X275708Y1582979D02*
X115066Y1422336D01*
X112020Y1417778D01*
X110951Y1412402D01*
Y1078150D01*
X112020Y1072773D01*
X115066Y1068215D01*
X207080Y976201D01*
X206880Y975854D01*
X204331Y966341D01*
Y956493D01*
X206880Y946981D01*
X211804Y938452D01*
X218767Y931489D01*
X227296Y926565D01*
X236808Y924016D01*
X246656D01*
X256169Y926565D01*
X264697Y931489D01*
X271661Y938452D01*
X274258Y942950D01*
X279258Y941610D01*
Y918812D01*
X256516Y896070D01*
X256169Y896270D01*
X246656Y898819D01*
X236808D01*
X227296Y896270D01*
X218767Y891346D01*
X211804Y884382D01*
X206880Y875854D01*
X204331Y866341D01*
Y856493D01*
X206880Y846981D01*
X211804Y838452D01*
X218767Y831489D01*
X227296Y826565D01*
X236808Y824016D01*
X246656D01*
X256169Y826565D01*
X264697Y831489D01*
X271661Y838452D01*
X276585Y846981D01*
X279134Y856493D01*
Y866341D01*
X276585Y875854D01*
X276385Y876201D01*
X303242Y903058D01*
X306287Y907616D01*
X307357Y912992D01*
Y937117D01*
X312357Y937899D01*
X318767Y931489D01*
X327296Y926565D01*
X336808Y924016D01*
X346656D01*
X356169Y926565D01*
X364697Y931489D01*
X371661Y938452D01*
X372683Y940222D01*
X377683Y938883D01*
Y883952D01*
X372683Y882612D01*
X371661Y884382D01*
X364697Y891346D01*
X356169Y896270D01*
X346656Y898819D01*
X336808D01*
X327296Y896270D01*
X318767Y891346D01*
X311804Y884382D01*
X306880Y875854D01*
X304331Y866341D01*
Y856493D01*
X306880Y846981D01*
X311804Y838452D01*
X318767Y831489D01*
X323265Y828892D01*
X321925Y823892D01*
X290158D01*
X284781Y822822D01*
X280223Y819777D01*
X256516Y796070D01*
X256169Y796270D01*
X246656Y798819D01*
X236808D01*
X227296Y796270D01*
X218767Y791346D01*
X211804Y784382D01*
X206880Y775854D01*
X204331Y766341D01*
Y756493D01*
X206880Y746981D01*
X211804Y738452D01*
X218767Y731489D01*
X227296Y726565D01*
X236808Y724016D01*
X246656D01*
X256169Y726565D01*
X264697Y731489D01*
X271661Y738452D01*
X276585Y746981D01*
X279134Y756493D01*
Y766341D01*
X276585Y775854D01*
X276385Y776201D01*
X295977Y795793D01*
X317432D01*
X318214Y790793D01*
X311804Y784382D01*
X306880Y775854D01*
X304331Y766341D01*
Y756493D01*
X306880Y746981D01*
X311804Y738452D01*
X318767Y731489D01*
X323265Y728892D01*
X321925Y723892D01*
X290158D01*
X284781Y722822D01*
X280223Y719777D01*
X256516Y696070D01*
X256169Y696270D01*
X246656Y698819D01*
X236808D01*
X227296Y696270D01*
X218767Y691346D01*
X211804Y684382D01*
X206880Y675854D01*
X204331Y666341D01*
Y656493D01*
X206880Y646981D01*
X211804Y638452D01*
X218767Y631489D01*
X227296Y626565D01*
X236808Y624016D01*
X246656D01*
X256169Y626565D01*
X264697Y631489D01*
X271661Y638452D01*
X276585Y646981D01*
X279134Y656493D01*
Y666341D01*
X276585Y675854D01*
X276385Y676201D01*
X295977Y695793D01*
X317432D01*
X318214Y690793D01*
X311804Y684382D01*
X306880Y675854D01*
X304331Y666341D01*
Y656493D01*
X306880Y646981D01*
X311804Y638452D01*
X318767Y631489D01*
X327296Y626565D01*
X336808Y624016D01*
X346656D01*
X356169Y626565D01*
X364697Y631489D01*
X371661Y638452D01*
X376585Y646981D01*
X379134Y656493D01*
Y666341D01*
X376585Y675854D01*
X371661Y684382D01*
X364697Y691346D01*
X363984Y691758D01*
X364002Y694585D01*
X364539Y697211D01*
X368575Y699908D01*
X426320Y757653D01*
X429366Y762211D01*
X430435Y767587D01*
Y878444D01*
X435435Y879784D01*
X436375Y878155D01*
X444730Y869801D01*
X454963Y863893D01*
X466376Y860835D01*
X478191D01*
X489604Y863893D01*
X499837Y869801D01*
X508192Y878155D01*
X514099Y888388D01*
X515134Y892250D01*
X571938D01*
X572449Y890341D01*
X578094Y880564D01*
X586076Y872582D01*
X595853Y866938D01*
X606757Y864016D01*
X618046D01*
X628950Y866938D01*
X631191Y868231D01*
X676180Y823243D01*
Y777290D01*
X677249Y771914D01*
X680295Y767356D01*
X733176Y714475D01*
X737734Y711429D01*
X743110Y710360D01*
X756723D01*
X758063Y705360D01*
X754165Y703110D01*
X747568Y696512D01*
X742903Y688433D01*
X740488Y679421D01*
Y670091D01*
X742792Y661495D01*
X674121Y592824D01*
X671075Y588266D01*
X670006Y582890D01*
Y-91860D01*
X659238Y-102628D01*
X654908Y-100128D01*
X655276Y-98755D01*
Y-87466D01*
X652354Y-76561D01*
X646709Y-66785D01*
X638727Y-58802D01*
X628950Y-53158D01*
X618046Y-50236D01*
X606757D01*
X595853Y-53158D01*
X586076Y-58802D01*
X578094Y-66785D01*
X572449Y-76561D01*
X569528Y-87466D01*
Y-98755D01*
X572449Y-109659D01*
X578094Y-119436D01*
X586076Y-127418D01*
X595853Y-133062D01*
X606757Y-135984D01*
X618046D01*
X619419Y-135616D01*
X621919Y-139946D01*
X437332Y-324533D01*
X376689D01*
X376585Y-324146D01*
X371661Y-315618D01*
X364697Y-308654D01*
X356169Y-303730D01*
X346656Y-301181D01*
X336808D01*
X327296Y-303730D01*
X318767Y-308654D01*
X311804Y-315618D01*
X306880Y-324146D01*
X304331Y-333659D01*
Y-343507D01*
X306880Y-353019D01*
X311804Y-361548D01*
X318767Y-368511D01*
X327296Y-373435D01*
X336808Y-375984D01*
X346656D01*
X356169Y-373435D01*
X364697Y-368511D01*
X371661Y-361548D01*
X376585Y-353019D01*
X376689Y-352632D01*
X443152D01*
X446976Y-351872D01*
X449439Y-356480D01*
X383157Y-422762D01*
X375785D01*
X371661Y-415618D01*
X364697Y-408654D01*
X356169Y-403730D01*
X346656Y-401181D01*
X336808D01*
X327296Y-403730D01*
X318767Y-408654D01*
X311804Y-415618D01*
X306880Y-424146D01*
X304331Y-433659D01*
Y-443507D01*
X306880Y-453019D01*
X311804Y-461548D01*
X318767Y-468511D01*
X327296Y-473435D01*
X336808Y-475984D01*
X346656D01*
X356169Y-473435D01*
X364697Y-468511D01*
X371661Y-461548D01*
X376585Y-453019D01*
X377163Y-450861D01*
X388976D01*
X394353Y-449791D01*
X398911Y-446745D01*
X733360Y-112297D01*
X736405Y-107739D01*
X737475Y-102362D01*
Y356229D01*
X742475Y357569D01*
X745867Y351694D01*
X752860Y344701D01*
X761424Y339757D01*
X766079Y338510D01*
Y374756D01*
Y411003D01*
X761424Y409755D01*
X752860Y404811D01*
X745867Y397818D01*
X742475Y391943D01*
X737475Y393283D01*
Y462020D01*
X742475Y462678D01*
X742903Y461079D01*
X747568Y453000D01*
X754165Y446403D01*
X762245Y441738D01*
X771256Y439323D01*
X780586D01*
X789182Y441626D01*
X808328Y422480D01*
Y402536D01*
X803328Y400465D01*
X798983Y404811D01*
X790418Y409755D01*
X785764Y411003D01*
Y374756D01*
Y338510D01*
X790418Y339757D01*
X798983Y344701D01*
X803328Y349047D01*
X808328Y346976D01*
Y-52117D01*
X356516Y-503930D01*
X356169Y-503730D01*
X346656Y-501181D01*
X336808D01*
X327296Y-503730D01*
X318767Y-508654D01*
X311804Y-515618D01*
X306880Y-524146D01*
X304331Y-533659D01*
Y-543507D01*
X306880Y-553019D01*
X311804Y-561548D01*
X318214Y-567958D01*
X317432Y-572958D01*
X293307D01*
X287931Y-574028D01*
X283373Y-577073D01*
X256516Y-603930D01*
X256169Y-603730D01*
X246656Y-601181D01*
X236808D01*
X227296Y-603730D01*
X218767Y-608654D01*
X211804Y-615618D01*
X206880Y-624146D01*
X204331Y-633659D01*
Y-643507D01*
X206880Y-653019D01*
X211804Y-661548D01*
X218767Y-668511D01*
X227296Y-673435D01*
X236808Y-675984D01*
X246656D01*
X256169Y-673435D01*
X264697Y-668511D01*
X271661Y-661548D01*
X276585Y-653019D01*
X279134Y-643507D01*
Y-633659D01*
X276585Y-624146D01*
X276385Y-623799D01*
X299127Y-601057D01*
X321925D01*
X323265Y-606057D01*
X318767Y-608654D01*
X311804Y-615618D01*
X306880Y-624146D01*
X304331Y-633659D01*
Y-643507D01*
X306880Y-653019D01*
X311804Y-661548D01*
X318214Y-667958D01*
X317432Y-672958D01*
X293307D01*
X287931Y-674028D01*
X283373Y-677073D01*
X256516Y-703930D01*
X256169Y-703730D01*
X246656Y-701181D01*
X236808D01*
X227296Y-703730D01*
X218767Y-708654D01*
X211804Y-715618D01*
X206880Y-724146D01*
X204331Y-733659D01*
Y-743507D01*
X206880Y-753019D01*
X211804Y-761548D01*
X218767Y-768511D01*
X227296Y-773435D01*
X236808Y-775984D01*
X246656D01*
X256169Y-773435D01*
X264697Y-768511D01*
X271661Y-761548D01*
X276585Y-753019D01*
X279134Y-743507D01*
Y-733659D01*
X276585Y-724146D01*
X276385Y-723799D01*
X299127Y-701057D01*
X321925D01*
X323265Y-706057D01*
X318767Y-708654D01*
X311804Y-715618D01*
X306880Y-724146D01*
X304331Y-733659D01*
Y-743507D01*
X306880Y-753019D01*
X311804Y-761548D01*
X318214Y-767958D01*
X317432Y-772958D01*
X293307D01*
X287931Y-774028D01*
X283373Y-777073D01*
X256516Y-803930D01*
X256169Y-803730D01*
X246656Y-801181D01*
X236808D01*
X227296Y-803730D01*
X218767Y-808654D01*
X211804Y-815618D01*
X206880Y-824146D01*
X204331Y-833659D01*
Y-843507D01*
X206880Y-853019D01*
X211804Y-861548D01*
X218767Y-868511D01*
X227296Y-873435D01*
X236808Y-875984D01*
X246656D01*
X256169Y-873435D01*
X264697Y-868511D01*
X271661Y-861548D01*
X276585Y-853019D01*
X279134Y-843507D01*
Y-833659D01*
X276585Y-824146D01*
X276385Y-823799D01*
X299127Y-801057D01*
X321925D01*
X323265Y-806057D01*
X318767Y-808654D01*
X311804Y-815618D01*
X306880Y-824146D01*
X304331Y-833659D01*
Y-843507D01*
X306880Y-853019D01*
X311804Y-861548D01*
X318214Y-867958D01*
X317432Y-872958D01*
X293307D01*
X287931Y-874028D01*
X283373Y-877073D01*
X256516Y-903930D01*
X256169Y-903730D01*
X246656Y-901181D01*
X236808D01*
X227296Y-903730D01*
X218767Y-908654D01*
X211804Y-915618D01*
X206880Y-924146D01*
X204331Y-933659D01*
Y-943507D01*
X206880Y-953019D01*
X211804Y-961548D01*
X218767Y-968511D01*
X227296Y-973435D01*
X236808Y-975984D01*
X246656D01*
X256169Y-973435D01*
X264697Y-968511D01*
X271661Y-961548D01*
X276585Y-953019D01*
X279134Y-943507D01*
Y-933659D01*
X276585Y-924146D01*
X276385Y-923799D01*
X299127Y-901057D01*
X321925D01*
X323265Y-906057D01*
X318767Y-908654D01*
X311804Y-915618D01*
X306880Y-924146D01*
X304331Y-933659D01*
Y-943507D01*
X306880Y-953019D01*
X311804Y-961548D01*
X318767Y-968511D01*
X327296Y-973435D01*
X336808Y-975984D01*
X346656D01*
X356169Y-973435D01*
X364697Y-968511D01*
X371661Y-961548D01*
X376585Y-953019D01*
X379134Y-943507D01*
Y-933659D01*
X376585Y-924146D01*
X371661Y-915618D01*
X364697Y-908654D01*
X360200Y-906057D01*
X361539Y-901057D01*
X361791D01*
X367167Y-899988D01*
X371725Y-896942D01*
X476618Y-792049D01*
X743197D01*
X747647Y-799756D01*
X754244Y-806353D01*
X762323Y-811018D01*
X771335Y-813433D01*
X780665D01*
X789677Y-811018D01*
X797756Y-806353D01*
X804353Y-799756D01*
X809018Y-791677D01*
X811433Y-782665D01*
Y-773335D01*
X809018Y-764323D01*
X804353Y-756244D01*
X797756Y-749647D01*
X789677Y-744982D01*
X780665Y-742567D01*
X771335D01*
X762323Y-744982D01*
X754244Y-749647D01*
X747647Y-756244D01*
X743197Y-763951D01*
X470798D01*
X465422Y-765020D01*
X460864Y-768066D01*
X383222Y-845707D01*
X379134Y-842725D01*
Y-833659D01*
X376585Y-824146D01*
X371661Y-815618D01*
X364697Y-808654D01*
X360200Y-806057D01*
X361539Y-801057D01*
X361791D01*
X367167Y-799988D01*
X371725Y-796942D01*
X476618Y-692049D01*
X743197D01*
X747647Y-699756D01*
X754244Y-706353D01*
X762323Y-711018D01*
X771335Y-713433D01*
X780665D01*
X789677Y-711018D01*
X797756Y-706353D01*
X804353Y-699756D01*
X809018Y-691677D01*
X811433Y-682665D01*
Y-673335D01*
X809018Y-664323D01*
X804353Y-656244D01*
X797756Y-649647D01*
X789677Y-644982D01*
X780665Y-642567D01*
X771335D01*
X762323Y-644982D01*
X754244Y-649647D01*
X747647Y-656244D01*
X743197Y-663951D01*
X470798D01*
X465422Y-665020D01*
X460864Y-668066D01*
X383222Y-745707D01*
X379134Y-742725D01*
Y-733659D01*
X376585Y-724146D01*
X371661Y-715618D01*
X364697Y-708654D01*
X360200Y-706057D01*
X361539Y-701057D01*
X361791D01*
X367167Y-699988D01*
X371725Y-696942D01*
X476618Y-592049D01*
X743197D01*
X747647Y-599756D01*
X754244Y-606353D01*
X762323Y-611018D01*
X771335Y-613433D01*
X780665D01*
X789677Y-611018D01*
X797756Y-606353D01*
X804353Y-599756D01*
X809018Y-591677D01*
X811433Y-582665D01*
Y-573335D01*
X809018Y-564323D01*
X804353Y-556244D01*
X797756Y-549647D01*
X789677Y-544982D01*
X780665Y-542567D01*
X771335D01*
X762323Y-544982D01*
X754244Y-549647D01*
X747647Y-556244D01*
X743197Y-563951D01*
X470798D01*
X465422Y-565020D01*
X460864Y-568066D01*
X383222Y-645707D01*
X379134Y-642725D01*
Y-633659D01*
X376585Y-624146D01*
X371661Y-615618D01*
X364697Y-608654D01*
X360200Y-606057D01*
X361539Y-601057D01*
X361791D01*
X367167Y-599988D01*
X371725Y-596942D01*
X476618Y-492050D01*
X743197D01*
X747647Y-499756D01*
X754244Y-506353D01*
X762323Y-511018D01*
X771335Y-513433D01*
X780665D01*
X789677Y-511018D01*
X797756Y-506353D01*
X804353Y-499756D01*
X809018Y-491677D01*
X811433Y-482665D01*
Y-473335D01*
X809018Y-464323D01*
X804353Y-456244D01*
X797756Y-449647D01*
X789677Y-444982D01*
X780665Y-442567D01*
X771335D01*
X762323Y-444982D01*
X754244Y-449647D01*
X747647Y-456244D01*
X743197Y-463950D01*
X470798D01*
X465422Y-465020D01*
X460864Y-468065D01*
X383222Y-545707D01*
X379134Y-542725D01*
Y-533659D01*
X376585Y-524146D01*
X376385Y-523799D01*
X832312Y-67871D01*
X835358Y-63313D01*
X836428Y-57937D01*
Y365928D01*
X841428Y366586D01*
X842903Y361079D01*
X847568Y353000D01*
X854165Y346403D01*
X862245Y341738D01*
X871256Y339323D01*
X880586D01*
X889598Y341738D01*
X897678Y346403D01*
X904275Y353000D01*
X908940Y361079D01*
X911354Y370091D01*
Y379421D01*
X908940Y388433D01*
X904275Y396512D01*
X897678Y403110D01*
X889598Y407774D01*
X880586Y410189D01*
X871256D01*
X862245Y407774D01*
X854165Y403110D01*
X847568Y396512D01*
X842903Y388433D01*
X841428Y382926D01*
X836428Y383584D01*
Y428299D01*
X835358Y433676D01*
X832312Y438234D01*
X809051Y461495D01*
X811354Y470091D01*
Y479421D01*
X808940Y488433D01*
X804275Y496512D01*
X797678Y503110D01*
X789598Y507774D01*
X780586Y510189D01*
X771256D01*
X762245Y507774D01*
X754165Y503110D01*
X747568Y496512D01*
X742903Y488433D01*
X742475Y486834D01*
X737475Y487493D01*
Y516441D01*
X762661Y541626D01*
X771256Y539323D01*
X780586D01*
X789598Y541738D01*
X797678Y546403D01*
X804275Y553000D01*
X808940Y561080D01*
X811354Y570091D01*
Y579421D01*
X808940Y588433D01*
X804275Y596512D01*
X797678Y603110D01*
X789598Y607774D01*
X780586Y610189D01*
X771256D01*
X762245Y607774D01*
X754165Y603110D01*
X747568Y596512D01*
X742903Y588433D01*
X740488Y579421D01*
Y570091D01*
X742792Y561495D01*
X713491Y532194D01*
X710445Y527636D01*
X709376Y522260D01*
Y-96543D01*
X701952Y-103966D01*
X697344Y-101503D01*
X698105Y-97679D01*
Y577070D01*
X762661Y641626D01*
X771256Y639323D01*
X780586D01*
X789598Y641738D01*
X797678Y646403D01*
X804275Y653000D01*
X808940Y661080D01*
X811354Y670091D01*
Y679421D01*
X808940Y688433D01*
X804275Y696512D01*
X797678Y703110D01*
X793780Y705360D01*
X795120Y710360D01*
X856723D01*
X858063Y705360D01*
X854165Y703110D01*
X847568Y696512D01*
X842903Y688433D01*
X840488Y679421D01*
Y670091D01*
X842903Y661080D01*
X847568Y653000D01*
X854165Y646403D01*
X862245Y641738D01*
X871256Y639323D01*
X880586D01*
X889598Y641738D01*
X897678Y646403D01*
X904275Y653000D01*
X908940Y661080D01*
X911354Y670091D01*
Y679421D01*
X908940Y688433D01*
X904275Y696512D01*
X897678Y703110D01*
X893780Y705360D01*
X895120Y710360D01*
X921346D01*
X982014Y649692D01*
Y25793D01*
X983083Y20416D01*
X986129Y15858D01*
X1483378Y-481391D01*
X1487936Y-484437D01*
X1493312Y-485506D01*
X1558071D01*
Y-524995D01*
X1513187D01*
Y-539132D01*
X1417058D01*
X1416215Y-535985D01*
X1411031Y-527007D01*
X1403701Y-519677D01*
X1394724Y-514494D01*
X1384711Y-511811D01*
X1374344D01*
X1364331Y-514494D01*
X1355354Y-519677D01*
X1348024Y-527007D01*
X1342841Y-535985D01*
X1340158Y-545998D01*
Y-556364D01*
X1342841Y-566377D01*
X1348024Y-575355D01*
X1355354Y-582685D01*
X1364331Y-587868D01*
X1374344Y-590551D01*
X1384711D01*
X1386542Y-590060D01*
X1387769Y-591002D01*
X1394473Y-593779D01*
X1401668Y-594726D01*
X1513187D01*
Y-634053D01*
X1558071D01*
Y-787132D01*
X1200787D01*
X1195411Y-788201D01*
X1190853Y-791247D01*
X1165668Y-816432D01*
X1162622Y-820990D01*
X1161553Y-826366D01*
Y-826617D01*
X1161061D01*
X1149648Y-829675D01*
X1139415Y-835583D01*
X1131060Y-843938D01*
X1125153Y-854171D01*
X1122094Y-865583D01*
Y-877399D01*
X1125153Y-888812D01*
X1131060Y-899045D01*
X1139415Y-907399D01*
X1149648Y-913307D01*
X1161061Y-916365D01*
X1172876D01*
X1184289Y-913307D01*
X1194522Y-907399D01*
X1202877Y-899045D01*
X1208784Y-888812D01*
X1211842Y-877399D01*
Y-865583D01*
X1208784Y-854171D01*
X1202877Y-843938D01*
X1194522Y-835583D01*
X1193763Y-835145D01*
X1192941Y-828897D01*
X1206607Y-815231D01*
X1558071D01*
Y-827418D01*
X1549648Y-829675D01*
X1539415Y-835583D01*
X1531060Y-843938D01*
X1525153Y-854171D01*
X1522094Y-865583D01*
Y-877399D01*
X1525153Y-888812D01*
X1531060Y-899045D01*
X1539415Y-907399D01*
X1549648Y-913307D01*
X1558071Y-915564D01*
Y-1527418D01*
X1549648Y-1529675D01*
X1539415Y-1535583D01*
X1531060Y-1543938D01*
X1525153Y-1554171D01*
X1522094Y-1565583D01*
Y-1577399D01*
X1523101Y-1581154D01*
X1520062Y-1585114D01*
X1516076Y-1585114D01*
X1513037Y-1581154D01*
X1513968Y-1577679D01*
Y-1565304D01*
X1510766Y-1553350D01*
X1504578Y-1542633D01*
X1495827Y-1533882D01*
X1485110Y-1527694D01*
X1476811Y-1525471D01*
Y-1571491D01*
X1457126D01*
Y-1525471D01*
X1448827Y-1527694D01*
X1438110Y-1533882D01*
X1429359Y-1542633D01*
X1423171Y-1553350D01*
X1419968Y-1565304D01*
Y-1577679D01*
X1420900Y-1581154D01*
X1417861Y-1585114D01*
X1413875Y-1585114D01*
X1410836Y-1581154D01*
X1411842Y-1577399D01*
Y-1565583D01*
X1408784Y-1554171D01*
X1402877Y-1543938D01*
X1394522Y-1535583D01*
X1384289Y-1529675D01*
X1381018Y-1528799D01*
Y-1515818D01*
X1385449Y-1512858D01*
X1386334Y-1511972D01*
X1389380Y-1507414D01*
X1390449Y-1502038D01*
Y-1486093D01*
X1389380Y-1480716D01*
X1386334Y-1476158D01*
X1385449Y-1475272D01*
X1382913Y-1473578D01*
X1382448Y-1468647D01*
X1385961Y-1464961D01*
X1392123D01*
X1400484Y-1462720D01*
X1407980Y-1458392D01*
X1414101Y-1452272D01*
X1418429Y-1444775D01*
X1420669Y-1436415D01*
Y-1427759D01*
X1418429Y-1419398D01*
X1414101Y-1411901D01*
X1407980Y-1405781D01*
X1400484Y-1401453D01*
X1392123Y-1399213D01*
X1383467D01*
X1375106Y-1401453D01*
X1367610Y-1405781D01*
X1361489Y-1411901D01*
X1357162Y-1419398D01*
X1354921Y-1427759D01*
Y-1436415D01*
X1357162Y-1444775D01*
X1360240Y-1450107D01*
X1357034Y-1453313D01*
X1353988Y-1457871D01*
X1352919Y-1463247D01*
Y-1478288D01*
X1353988Y-1483665D01*
X1357034Y-1488223D01*
X1362350Y-1493539D01*
Y-1494591D01*
X1357034Y-1499908D01*
X1353988Y-1504466D01*
X1352919Y-1509842D01*
Y-1528799D01*
X1349648Y-1529675D01*
X1339415Y-1535583D01*
X1331060Y-1543938D01*
X1325153Y-1554171D01*
X1322094Y-1565583D01*
Y-1577399D01*
X1323237Y-1581663D01*
X1320193Y-1585630D01*
X1313744D01*
X1310700Y-1581663D01*
X1311842Y-1577399D01*
Y-1565583D01*
X1308784Y-1554171D01*
X1302877Y-1543938D01*
X1294522Y-1535583D01*
X1284289Y-1529675D01*
X1281018Y-1528799D01*
Y-1471693D01*
X1279948Y-1466316D01*
X1276903Y-1461758D01*
X1258402Y-1443258D01*
X1260236Y-1436415D01*
Y-1427759D01*
X1257996Y-1419398D01*
X1253668Y-1411901D01*
X1247547Y-1405781D01*
X1240051Y-1401453D01*
X1231690Y-1399213D01*
X1223034D01*
X1214673Y-1401453D01*
X1207177Y-1405781D01*
X1201056Y-1411901D01*
X1196728Y-1419398D01*
X1194488Y-1427759D01*
Y-1436415D01*
X1196728Y-1444775D01*
X1201056Y-1452272D01*
X1207177Y-1458392D01*
X1214673Y-1462720D01*
X1223034Y-1464961D01*
X1231690D01*
X1238534Y-1463127D01*
X1252919Y-1477512D01*
Y-1528799D01*
X1249648Y-1529675D01*
X1239415Y-1535583D01*
X1231060Y-1543938D01*
X1225153Y-1554171D01*
X1222094Y-1565583D01*
Y-1577399D01*
X1223237Y-1581663D01*
X1220193Y-1585630D01*
X1213744D01*
X1210700Y-1581663D01*
X1211842Y-1577399D01*
Y-1565583D01*
X1208784Y-1554171D01*
X1202877Y-1543938D01*
X1194522Y-1535583D01*
X1184289Y-1529675D01*
X1172876Y-1526617D01*
X1161061D01*
X1149648Y-1529675D01*
X1139415Y-1535583D01*
X1131060Y-1543938D01*
X1125153Y-1554171D01*
X1122094Y-1565583D01*
Y-1577399D01*
X1123237Y-1581663D01*
X1120193Y-1585630D01*
X1113744D01*
X1110700Y-1581663D01*
X1111842Y-1577399D01*
Y-1565583D01*
X1108784Y-1554171D01*
X1102877Y-1543938D01*
X1094522Y-1535583D01*
X1084289Y-1529675D01*
X1072876Y-1526617D01*
X1061061D01*
X1049648Y-1529675D01*
X1039415Y-1535583D01*
X1031060Y-1543938D01*
X1025153Y-1554171D01*
X1022095Y-1565583D01*
Y-1577399D01*
X1023237Y-1581663D01*
X1020193Y-1585630D01*
X1013744D01*
X1010700Y-1581663D01*
X1011842Y-1577399D01*
Y-1565583D01*
X1008784Y-1554171D01*
X1002877Y-1543938D01*
X994522Y-1535583D01*
X984289Y-1529675D01*
X972876Y-1526617D01*
X961061D01*
X949648Y-1529675D01*
X939415Y-1535583D01*
X931060Y-1543938D01*
X925153Y-1554171D01*
X922095Y-1565583D01*
Y-1577399D01*
X923237Y-1581663D01*
X920193Y-1585630D01*
X-27732D01*
X-29645Y-1581011D01*
X-25499Y-1576864D01*
X-22453Y-1572306D01*
X-21384Y-1566929D01*
Y-1005819D01*
X124108Y-860328D01*
X127153Y-855770D01*
X128223Y-850394D01*
Y-371961D01*
X226949Y-273235D01*
X227296Y-273435D01*
X236808Y-275984D01*
X246656D01*
X256169Y-273435D01*
X264697Y-268511D01*
X271661Y-261548D01*
X276585Y-253019D01*
X279134Y-243507D01*
Y-233659D01*
X276585Y-224146D01*
X271661Y-215618D01*
X264697Y-208654D01*
X256169Y-203730D01*
X246656Y-201181D01*
X236808D01*
X227296Y-203730D01*
X218767Y-208654D01*
X211804Y-215618D01*
X206880Y-224146D01*
X204331Y-233659D01*
Y-243507D01*
X206880Y-253019D01*
X207080Y-253366D01*
X104239Y-356207D01*
X101193Y-360765D01*
X100124Y-366142D01*
Y-844574D01*
X-45368Y-990066D01*
X-48413Y-994624D01*
X-49483Y-1000000D01*
Y-1561110D01*
X-74003Y-1585630D01*
X-92474D01*
X-94974Y-1581300D01*
X-94405Y-1580313D01*
X-91347Y-1568900D01*
Y-1557084D01*
X-94405Y-1545671D01*
X-100312Y-1535439D01*
X-108667Y-1527084D01*
X-118900Y-1521176D01*
X-130313Y-1518118D01*
X-142128D01*
X-153541Y-1521176D01*
X-163774Y-1527084D01*
X-172129Y-1535439D01*
X-178036Y-1545671D01*
X-181095Y-1557084D01*
Y-1568900D01*
X-178036Y-1580313D01*
X-177467Y-1581300D01*
X-179967Y-1585630D01*
X-191701D01*
X-194862Y-1581106D01*
X-194405Y-1580313D01*
X-191346Y-1568900D01*
Y-1557084D01*
X-194405Y-1545671D01*
X-200312Y-1535439D01*
X-208667Y-1527084D01*
X-218900Y-1521176D01*
X-230313Y-1518118D01*
X-242128D01*
X-253541Y-1521176D01*
X-263774Y-1527084D01*
X-272129Y-1535439D01*
X-278036Y-1545671D01*
X-281094Y-1557084D01*
Y-1568900D01*
X-278036Y-1580313D01*
X-277467Y-1581300D01*
X-279967Y-1585630D01*
X-292474D01*
X-294974Y-1581300D01*
X-294405Y-1580313D01*
X-291346Y-1568900D01*
Y-1557084D01*
X-294405Y-1545671D01*
X-300312Y-1535439D01*
X-308667Y-1527084D01*
X-318900Y-1521176D01*
X-330313Y-1518118D01*
X-342128D01*
X-353541Y-1521176D01*
X-363774Y-1527084D01*
X-372129Y-1535439D01*
X-378036Y-1545671D01*
X-381094Y-1557084D01*
Y-1568900D01*
X-378036Y-1580313D01*
X-377467Y-1581300D01*
X-379967Y-1585630D01*
X-534819D01*
X-534912Y-1585470D01*
X-537139Y-1580630D01*
X-534260Y-1569884D01*
Y-1558069D01*
X-537318Y-1546656D01*
X-543226Y-1536423D01*
X-551581Y-1528068D01*
X-561813Y-1522160D01*
X-573226Y-1519102D01*
X-585042D01*
X-596455Y-1522160D01*
X-606687Y-1528068D01*
X-615042Y-1536423D01*
X-620950Y-1546656D01*
X-624008Y-1558069D01*
Y-1569884D01*
X-621129Y-1580630D01*
X-623356Y-1585470D01*
X-623448Y-1585630D01*
X-634819D01*
X-634912Y-1585470D01*
X-637139Y-1580630D01*
X-634260Y-1569884D01*
Y-1558069D01*
X-637318Y-1546656D01*
X-643226Y-1536423D01*
X-651581Y-1528068D01*
X-661813Y-1522160D01*
X-673226Y-1519102D01*
X-685042D01*
X-696455Y-1522160D01*
X-706687Y-1528068D01*
X-715042Y-1536423D01*
X-720950Y-1546656D01*
X-724008Y-1558069D01*
Y-1569884D01*
X-721129Y-1580630D01*
X-723356Y-1585470D01*
X-723448Y-1585630D01*
X-734819D01*
X-734912Y-1585470D01*
X-737139Y-1580630D01*
X-734260Y-1569884D01*
Y-1558069D01*
X-737318Y-1546656D01*
X-743226Y-1536423D01*
X-751581Y-1528068D01*
X-761813Y-1522160D01*
X-773226Y-1519102D01*
X-785042D01*
X-796455Y-1522160D01*
X-806687Y-1528068D01*
X-815042Y-1536423D01*
X-820950Y-1546656D01*
X-824008Y-1558069D01*
Y-1569884D01*
X-821129Y-1580630D01*
X-823356Y-1585470D01*
X-823448Y-1585630D01*
X-834819D01*
X-834912Y-1585470D01*
X-837139Y-1580630D01*
X-834260Y-1569884D01*
Y-1558069D01*
X-837318Y-1546656D01*
X-843226Y-1536423D01*
X-851581Y-1528068D01*
X-861813Y-1522160D01*
X-873226Y-1519102D01*
X-885042D01*
X-896455Y-1522160D01*
X-906687Y-1528068D01*
X-915042Y-1536423D01*
X-920950Y-1546656D01*
X-924008Y-1558069D01*
Y-1569884D01*
X-921129Y-1580630D01*
X-923356Y-1585470D01*
X-923448Y-1585630D01*
X-934819D01*
X-934912Y-1585470D01*
X-937139Y-1580630D01*
X-934260Y-1569884D01*
Y-1558069D01*
X-937318Y-1546656D01*
X-943226Y-1536423D01*
X-951581Y-1528068D01*
X-961813Y-1522160D01*
X-973226Y-1519102D01*
X-985042D01*
X-996455Y-1522160D01*
X-1006687Y-1528068D01*
X-1015042Y-1536423D01*
X-1020950Y-1546656D01*
X-1024008Y-1558069D01*
Y-1569884D01*
X-1021129Y-1580630D01*
X-1023356Y-1585470D01*
X-1023448Y-1585630D01*
X-1034820D01*
X-1034912Y-1585470D01*
X-1037139Y-1580630D01*
X-1034260Y-1569884D01*
Y-1558069D01*
X-1037318Y-1546656D01*
X-1043226Y-1536423D01*
X-1051581Y-1528068D01*
X-1061813Y-1522160D01*
X-1073226Y-1519102D01*
X-1085042D01*
X-1096455Y-1522160D01*
X-1106687Y-1528068D01*
X-1115042Y-1536423D01*
X-1120950Y-1546656D01*
X-1124008Y-1558069D01*
Y-1569884D01*
X-1121129Y-1580630D01*
X-1123356Y-1585470D01*
X-1123448Y-1585630D01*
X-1132209D01*
X-1134938Y-1580630D01*
X-1133113Y-1573819D01*
X-1179134D01*
X-1225155D01*
X-1223330Y-1580630D01*
X-1226059Y-1585630D01*
X-1232209D01*
X-1234938Y-1580630D01*
X-1233113Y-1573819D01*
X-1279134D01*
X-1325155D01*
X-1323330Y-1580630D01*
X-1326059Y-1585630D01*
X-1556188D01*
X-1557132Y1584062D01*
X-1553597Y1587598D01*
X273795D01*
X275708Y1582979D01*
D02*
G37*
%LPC*%
G36*
X1519376Y1543307D02*
X1512120D01*
X1505111Y1541429D01*
X1498826Y1537801D01*
X1493695Y1532670D01*
X1490067Y1526385D01*
X1488189Y1519376D01*
Y1512120D01*
X1490067Y1505111D01*
X1493695Y1498826D01*
X1498826Y1493695D01*
X1505111Y1490067D01*
X1512120Y1488189D01*
X1519376D01*
X1526385Y1490067D01*
X1532670Y1493695D01*
X1537801Y1498826D01*
X1541429Y1505111D01*
X1543307Y1512120D01*
Y1519376D01*
X1541429Y1526385D01*
X1537801Y1532670D01*
X1532670Y1537801D01*
X1526385Y1541429D01*
X1519376Y1543307D01*
D02*
G37*
G36*
X880586Y1210189D02*
X871256D01*
X862245Y1207774D01*
X854165Y1203110D01*
X847568Y1196512D01*
X842903Y1188433D01*
X840488Y1179421D01*
Y1170091D01*
X842903Y1161080D01*
X847568Y1153000D01*
X854165Y1146403D01*
X862245Y1141738D01*
X871256Y1139323D01*
X880586D01*
X889598Y1141738D01*
X897678Y1146403D01*
X904275Y1153000D01*
X908940Y1161080D01*
X911354Y1170091D01*
Y1179421D01*
X908940Y1188433D01*
X904275Y1196512D01*
X897678Y1203110D01*
X889598Y1207774D01*
X880586Y1210189D01*
D02*
G37*
G36*
X1418046Y649764D02*
X1406757D01*
X1395853Y646842D01*
X1386076Y641198D01*
X1378094Y633215D01*
X1372449Y623439D01*
X1369528Y612534D01*
Y601245D01*
X1372449Y590341D01*
X1378094Y580564D01*
X1386076Y572582D01*
X1395853Y566938D01*
X1406757Y564016D01*
X1418046D01*
X1428950Y566938D01*
X1438727Y572582D01*
X1446709Y580564D01*
X1452354Y590341D01*
X1452549Y591069D01*
X1479099D01*
X1479209Y590658D01*
X1483537Y583161D01*
X1489658Y577041D01*
X1497154Y572713D01*
X1505515Y570472D01*
X1514171D01*
X1522532Y572713D01*
X1530028Y577041D01*
X1536149Y583161D01*
X1540476Y590658D01*
X1542717Y599019D01*
Y607674D01*
X1540476Y616035D01*
X1536149Y623532D01*
X1530028Y629652D01*
X1522532Y633980D01*
X1514171Y636220D01*
X1505515D01*
X1497154Y633980D01*
X1489658Y629652D01*
X1483537Y623532D01*
X1481017Y619168D01*
X1453498D01*
X1452354Y623439D01*
X1446709Y633215D01*
X1438727Y641198D01*
X1428950Y646842D01*
X1418046Y649764D01*
D02*
G37*
G36*
Y549764D02*
X1406757D01*
X1395853Y546842D01*
X1386076Y541198D01*
X1378094Y533215D01*
X1372449Y523439D01*
X1369528Y512534D01*
Y501245D01*
X1372449Y490341D01*
X1378094Y480565D01*
X1386076Y472582D01*
X1395853Y466938D01*
X1406757Y464016D01*
X1418046D01*
X1428950Y466938D01*
X1438727Y472582D01*
X1446709Y480565D01*
X1452354Y490341D01*
X1452760Y491856D01*
X1479426D01*
X1483537Y484736D01*
X1489658Y478615D01*
X1497154Y474288D01*
X1505515Y472047D01*
X1514171D01*
X1522532Y474288D01*
X1530028Y478615D01*
X1536149Y484736D01*
X1540476Y492232D01*
X1542717Y500593D01*
Y509249D01*
X1540476Y517610D01*
X1536149Y525106D01*
X1530028Y531227D01*
X1522532Y535555D01*
X1514171Y537795D01*
X1505515D01*
X1497154Y535555D01*
X1489658Y531227D01*
X1483537Y525106D01*
X1480563Y519955D01*
X1453287D01*
X1452354Y523439D01*
X1446709Y533215D01*
X1438727Y541198D01*
X1428950Y546842D01*
X1418046Y549764D01*
D02*
G37*
G36*
Y449764D02*
X1406757D01*
X1395853Y446842D01*
X1386076Y441198D01*
X1378094Y433215D01*
X1372449Y423439D01*
X1369528Y412534D01*
Y401245D01*
X1372449Y390341D01*
X1378094Y380565D01*
X1386076Y372582D01*
X1395853Y366938D01*
X1406757Y364016D01*
X1418046D01*
X1428950Y366938D01*
X1438727Y372582D01*
X1446709Y380565D01*
X1452354Y390341D01*
X1453103Y393135D01*
X1480165D01*
X1483537Y387295D01*
X1489658Y381175D01*
X1497154Y376847D01*
X1505515Y374606D01*
X1514171D01*
X1522532Y376847D01*
X1530028Y381175D01*
X1536149Y387295D01*
X1540476Y394791D01*
X1542717Y403152D01*
Y411808D01*
X1540476Y420169D01*
X1536149Y427665D01*
X1530028Y433786D01*
X1522532Y438114D01*
X1514171Y440354D01*
X1505515D01*
X1497154Y438114D01*
X1489658Y433786D01*
X1483537Y427665D01*
X1479824Y421235D01*
X1452944D01*
X1452354Y423439D01*
X1446709Y433215D01*
X1438727Y441198D01*
X1428950Y446842D01*
X1418046Y449764D01*
D02*
G37*
G36*
Y349764D02*
X1406757D01*
X1395853Y346842D01*
X1386076Y341198D01*
X1378094Y333215D01*
X1372449Y323439D01*
X1369528Y312534D01*
Y301245D01*
X1372449Y290341D01*
X1378094Y280565D01*
X1386076Y272582D01*
X1395853Y266938D01*
X1406757Y264016D01*
X1418046D01*
X1428950Y266938D01*
X1438727Y272582D01*
X1446709Y280565D01*
X1452354Y290341D01*
X1452918Y292447D01*
X1479767D01*
X1483537Y285917D01*
X1489658Y279796D01*
X1497154Y275469D01*
X1505515Y273228D01*
X1514171D01*
X1522532Y275469D01*
X1530028Y279796D01*
X1536149Y285917D01*
X1540476Y293413D01*
X1542717Y301774D01*
Y310430D01*
X1540476Y318791D01*
X1536149Y326287D01*
X1530028Y332408D01*
X1522532Y336736D01*
X1514171Y338976D01*
X1505515D01*
X1497154Y336736D01*
X1489658Y332408D01*
X1483537Y326287D01*
X1480222Y320546D01*
X1453129D01*
X1452354Y323439D01*
X1446709Y333215D01*
X1438727Y341198D01*
X1428950Y346842D01*
X1418046Y349764D01*
D02*
G37*
G36*
Y249764D02*
X1406757D01*
X1395853Y246842D01*
X1386076Y241198D01*
X1378094Y233215D01*
X1372449Y223439D01*
X1369528Y212534D01*
Y201245D01*
X1372449Y190341D01*
X1378094Y180565D01*
X1386076Y172582D01*
X1395853Y166938D01*
X1406757Y164016D01*
X1418046D01*
X1428950Y166938D01*
X1438727Y172582D01*
X1446709Y180565D01*
X1452354Y190341D01*
X1452733Y191758D01*
X1479369D01*
X1483537Y184539D01*
X1489658Y178419D01*
X1497154Y174091D01*
X1505515Y171850D01*
X1514171D01*
X1522532Y174091D01*
X1530028Y178419D01*
X1536149Y184539D01*
X1540476Y192036D01*
X1542717Y200397D01*
Y209052D01*
X1540476Y217413D01*
X1536149Y224910D01*
X1530028Y231030D01*
X1522532Y235358D01*
X1514171Y237598D01*
X1505515D01*
X1497154Y235358D01*
X1489658Y231030D01*
X1483537Y224910D01*
X1480620Y219857D01*
X1453314D01*
X1452354Y223439D01*
X1446709Y233215D01*
X1438727Y241198D01*
X1428950Y246842D01*
X1418046Y249764D01*
D02*
G37*
G36*
Y149764D02*
X1406757D01*
X1395853Y146842D01*
X1386076Y141198D01*
X1378094Y133215D01*
X1372449Y123439D01*
X1369528Y112534D01*
Y101245D01*
X1372449Y90341D01*
X1378094Y80564D01*
X1386076Y72582D01*
X1395853Y66938D01*
X1406757Y64016D01*
X1418046D01*
X1428950Y66938D01*
X1438727Y72582D01*
X1446709Y80564D01*
X1452354Y90341D01*
X1452944Y92545D01*
X1479824D01*
X1483537Y86114D01*
X1489658Y79993D01*
X1497154Y75665D01*
X1505515Y73425D01*
X1514171D01*
X1522532Y75665D01*
X1530028Y79993D01*
X1536149Y86114D01*
X1540476Y93610D01*
X1542717Y101971D01*
Y110627D01*
X1540476Y118988D01*
X1536149Y126484D01*
X1530028Y132605D01*
X1522532Y136933D01*
X1514171Y139173D01*
X1505515D01*
X1497154Y136933D01*
X1489658Y132605D01*
X1483537Y126484D01*
X1480165Y120644D01*
X1453103D01*
X1452354Y123439D01*
X1446709Y133215D01*
X1438727Y141198D01*
X1428950Y146842D01*
X1418046Y149764D01*
D02*
G37*
G36*
Y49764D02*
X1406757D01*
X1395853Y46842D01*
X1386076Y41198D01*
X1378094Y33215D01*
X1372449Y23439D01*
X1369528Y12534D01*
Y1245D01*
X1372449Y-9659D01*
X1378094Y-19436D01*
X1386076Y-27418D01*
X1395853Y-33062D01*
X1406757Y-35984D01*
X1418046D01*
X1428950Y-33062D01*
X1438727Y-27418D01*
X1446709Y-19436D01*
X1452354Y-9659D01*
X1453024Y-7160D01*
X1479995D01*
X1483537Y-13295D01*
X1489658Y-19416D01*
X1497154Y-23744D01*
X1505515Y-25984D01*
X1514171D01*
X1522532Y-23744D01*
X1530028Y-19416D01*
X1536149Y-13295D01*
X1540476Y-5799D01*
X1542717Y2562D01*
Y11218D01*
X1540476Y19579D01*
X1536149Y27075D01*
X1530028Y33196D01*
X1522532Y37523D01*
X1514171Y39764D01*
X1505515D01*
X1497154Y37523D01*
X1489658Y33196D01*
X1483537Y27075D01*
X1479995Y20939D01*
X1453024D01*
X1452354Y23439D01*
X1446709Y33215D01*
X1438727Y41198D01*
X1428950Y46842D01*
X1418046Y49764D01*
D02*
G37*
G36*
Y-50236D02*
X1406757D01*
X1395853Y-53158D01*
X1386076Y-58802D01*
X1378094Y-66785D01*
X1372449Y-76561D01*
X1369528Y-87466D01*
Y-98755D01*
X1372449Y-109659D01*
X1378094Y-119436D01*
X1386076Y-127418D01*
X1395853Y-133062D01*
X1406757Y-135984D01*
X1418046D01*
X1428950Y-133062D01*
X1438727Y-127418D01*
X1446709Y-119436D01*
X1452354Y-109659D01*
X1453103Y-106864D01*
X1480165D01*
X1483537Y-112705D01*
X1489658Y-118826D01*
X1497154Y-123153D01*
X1505515Y-125394D01*
X1514171D01*
X1522532Y-123153D01*
X1530028Y-118826D01*
X1536149Y-112705D01*
X1540476Y-105209D01*
X1542717Y-96848D01*
Y-88192D01*
X1540476Y-79831D01*
X1536149Y-72335D01*
X1530028Y-66214D01*
X1522532Y-61886D01*
X1514171Y-59646D01*
X1505515D01*
X1497154Y-61886D01*
X1489658Y-66214D01*
X1483537Y-72335D01*
X1479824Y-78765D01*
X1452944D01*
X1452354Y-76561D01*
X1446709Y-66785D01*
X1438727Y-58802D01*
X1428950Y-53158D01*
X1418046Y-50236D01*
D02*
G37*
G36*
X482126Y1151729D02*
Y1115551D01*
X518304D01*
X516081Y1123850D01*
X509893Y1134567D01*
X501142Y1143318D01*
X490425Y1149506D01*
X482126Y1151729D01*
D02*
G37*
G36*
X518304Y1095866D02*
X482126D01*
Y1059688D01*
X490425Y1061912D01*
X501142Y1068099D01*
X509893Y1076850D01*
X516081Y1087567D01*
X518304Y1095866D01*
D02*
G37*
G36*
X-66538Y1556496D02*
X-75194D01*
X-83555Y1554256D01*
X-91051Y1549928D01*
X-97172Y1543807D01*
X-101500Y1536311D01*
X-103740Y1527950D01*
Y1519294D01*
X-101500Y1510933D01*
X-97172Y1503437D01*
X-91051Y1497316D01*
X-83555Y1492988D01*
X-75194Y1490748D01*
X-66538D01*
X-58177Y1492988D01*
X-50681Y1497316D01*
X-44560Y1503437D01*
X-40232Y1510933D01*
X-37992Y1519294D01*
Y1527950D01*
X-40232Y1536311D01*
X-44560Y1543807D01*
X-50681Y1549928D01*
X-58177Y1554256D01*
X-66538Y1556496D01*
D02*
G37*
G36*
X-459384Y1384842D02*
X-469750D01*
X-479763Y1382159D01*
X-488741Y1376976D01*
X-496071Y1369646D01*
X-501254Y1360669D01*
X-503937Y1350656D01*
Y1340289D01*
X-501254Y1330276D01*
X-496071Y1321299D01*
X-488741Y1313969D01*
X-479763Y1308785D01*
X-469750Y1306102D01*
X-459384D01*
X-449371Y1308785D01*
X-440393Y1313969D01*
X-433063Y1321299D01*
X-427880Y1330276D01*
X-425197Y1340289D01*
Y1350656D01*
X-427880Y1360669D01*
X-433063Y1369646D01*
X-440393Y1376976D01*
X-449371Y1382159D01*
X-459384Y1384842D01*
D02*
G37*
G36*
X-26313Y1384842D02*
X-36679D01*
X-46692Y1382159D01*
X-55670Y1376976D01*
X-63000Y1369646D01*
X-68183Y1360669D01*
X-70866Y1350656D01*
Y1340289D01*
X-68183Y1330276D01*
X-63000Y1321299D01*
X-55670Y1313969D01*
X-46692Y1308785D01*
X-36679Y1306102D01*
X-26313D01*
X-16300Y1308785D01*
X-7322Y1313969D01*
X8Y1321299D01*
X5191Y1330276D01*
X7874Y1340289D01*
Y1350656D01*
X5191Y1360669D01*
X8Y1369646D01*
X-7322Y1376976D01*
X-16300Y1382159D01*
X-26313Y1384842D01*
D02*
G37*
G36*
X-841047Y1312315D02*
X-868764D01*
Y1284598D01*
X-841047D01*
Y1312315D01*
D02*
G37*
G36*
X-888449D02*
X-916165D01*
Y1284598D01*
X-888449D01*
Y1312315D01*
D02*
G37*
G36*
X-773942Y1310189D02*
X-783271D01*
X-792283Y1307774D01*
X-800363Y1303110D01*
X-806960Y1296512D01*
X-811625Y1288433D01*
X-814039Y1279421D01*
Y1270091D01*
X-811625Y1261080D01*
X-806960Y1253000D01*
X-800363Y1246403D01*
X-792283Y1241738D01*
X-783271Y1239323D01*
X-773942D01*
X-764930Y1241738D01*
X-756850Y1246403D01*
X-750253Y1253000D01*
X-745588Y1261080D01*
X-743173Y1270091D01*
Y1279421D01*
X-745588Y1288433D01*
X-750253Y1296512D01*
X-756850Y1303110D01*
X-764930Y1307774D01*
X-773942Y1310189D01*
D02*
G37*
G36*
X-841047Y1264913D02*
X-868764D01*
Y1237197D01*
X-841047D01*
Y1264913D01*
D02*
G37*
G36*
X-888449D02*
X-916165D01*
Y1237197D01*
X-888449D01*
Y1264913D01*
D02*
G37*
G36*
X-1418740Y1200945D02*
X-1448425D01*
Y1171260D01*
X-1418740D01*
Y1200945D01*
D02*
G37*
G36*
X-1468110D02*
X-1497795D01*
Y1171260D01*
X-1468110D01*
Y1200945D01*
D02*
G37*
G36*
X-873942Y1210189D02*
X-883271D01*
X-892283Y1207774D01*
X-900363Y1203110D01*
X-906960Y1196512D01*
X-911409Y1188806D01*
X-1276445D01*
X-1281822Y1187736D01*
X-1286380Y1184691D01*
X-1316778Y1154293D01*
X-1320866Y1157275D01*
Y1166341D01*
X-1323415Y1175854D01*
X-1328339Y1184382D01*
X-1335303Y1191346D01*
X-1343831Y1196270D01*
X-1353344Y1198819D01*
X-1363192D01*
X-1372704Y1196270D01*
X-1381233Y1191346D01*
X-1388196Y1184382D01*
X-1393120Y1175854D01*
X-1395669Y1166341D01*
Y1156493D01*
X-1393120Y1146981D01*
X-1388196Y1138452D01*
X-1381786Y1132042D01*
X-1382568Y1127042D01*
X-1406693D01*
X-1412069Y1125972D01*
X-1413740Y1124856D01*
X-1418740Y1127528D01*
Y1151575D01*
X-1448425D01*
Y1121890D01*
X-1424735D01*
X-1422664Y1116890D01*
X-1443484Y1096070D01*
X-1443831Y1096270D01*
X-1453344Y1098819D01*
X-1463192D01*
X-1472704Y1096270D01*
X-1481233Y1091346D01*
X-1488196Y1084382D01*
X-1493120Y1075854D01*
X-1495669Y1066341D01*
Y1056493D01*
X-1493120Y1046981D01*
X-1488196Y1038452D01*
X-1481233Y1031489D01*
X-1472704Y1026565D01*
X-1463192Y1024016D01*
X-1453344D01*
X-1443831Y1026565D01*
X-1435303Y1031489D01*
X-1428339Y1038452D01*
X-1423415Y1046981D01*
X-1420866Y1056493D01*
Y1066341D01*
X-1423415Y1075854D01*
X-1423615Y1076201D01*
X-1400873Y1098943D01*
X-1378075D01*
X-1376735Y1093943D01*
X-1381233Y1091346D01*
X-1388196Y1084382D01*
X-1393120Y1075854D01*
X-1395669Y1066341D01*
Y1056493D01*
X-1393120Y1046981D01*
X-1388196Y1038452D01*
X-1381786Y1032042D01*
X-1382568Y1027042D01*
X-1406693D01*
X-1412069Y1025972D01*
X-1416627Y1022927D01*
X-1443484Y996070D01*
X-1443831Y996270D01*
X-1453344Y998819D01*
X-1463192D01*
X-1472704Y996270D01*
X-1481233Y991346D01*
X-1488196Y984382D01*
X-1493120Y975854D01*
X-1495669Y966341D01*
Y956493D01*
X-1493120Y946981D01*
X-1488196Y938452D01*
X-1481233Y931489D01*
X-1472704Y926565D01*
X-1463192Y924016D01*
X-1453344D01*
X-1443831Y926565D01*
X-1435303Y931489D01*
X-1428339Y938452D01*
X-1423415Y946981D01*
X-1420866Y956493D01*
Y966341D01*
X-1423415Y975854D01*
X-1423615Y976201D01*
X-1400873Y998943D01*
X-1378075D01*
X-1376735Y993943D01*
X-1381233Y991346D01*
X-1388196Y984382D01*
X-1393120Y975854D01*
X-1395669Y966341D01*
Y956493D01*
X-1393120Y946981D01*
X-1388196Y938452D01*
X-1381786Y932042D01*
X-1382568Y927042D01*
X-1406693D01*
X-1412069Y925972D01*
X-1416627Y922927D01*
X-1443484Y896070D01*
X-1443831Y896270D01*
X-1453344Y898819D01*
X-1463192D01*
X-1472704Y896270D01*
X-1481233Y891346D01*
X-1488196Y884382D01*
X-1493120Y875854D01*
X-1495669Y866341D01*
Y856493D01*
X-1493120Y846981D01*
X-1488196Y838452D01*
X-1481233Y831489D01*
X-1472704Y826565D01*
X-1463192Y824016D01*
X-1453344D01*
X-1443831Y826565D01*
X-1435303Y831489D01*
X-1428339Y838452D01*
X-1423415Y846981D01*
X-1420866Y856493D01*
Y866341D01*
X-1423415Y875854D01*
X-1423615Y876201D01*
X-1400873Y898943D01*
X-1378075D01*
X-1376735Y893943D01*
X-1381233Y891346D01*
X-1388196Y884382D01*
X-1393120Y875854D01*
X-1395669Y866341D01*
Y856493D01*
X-1393120Y846981D01*
X-1388196Y838452D01*
X-1381786Y832042D01*
X-1382568Y827042D01*
X-1406693D01*
X-1412069Y825972D01*
X-1416627Y822927D01*
X-1443484Y796070D01*
X-1443831Y796270D01*
X-1453344Y798819D01*
X-1463192D01*
X-1472704Y796270D01*
X-1481233Y791346D01*
X-1488196Y784382D01*
X-1493120Y775854D01*
X-1495669Y766341D01*
Y756493D01*
X-1493120Y746981D01*
X-1488196Y738452D01*
X-1481233Y731489D01*
X-1472704Y726565D01*
X-1463192Y724016D01*
X-1453344D01*
X-1443831Y726565D01*
X-1435303Y731489D01*
X-1428339Y738452D01*
X-1423415Y746981D01*
X-1420866Y756493D01*
Y766341D01*
X-1423415Y775854D01*
X-1423615Y776201D01*
X-1400873Y798943D01*
X-1378075D01*
X-1376735Y793943D01*
X-1381233Y791346D01*
X-1388196Y784382D01*
X-1393120Y775854D01*
X-1395669Y766341D01*
Y756493D01*
X-1393120Y746981D01*
X-1388196Y738452D01*
X-1381786Y732042D01*
X-1382568Y727042D01*
X-1406693D01*
X-1412069Y725972D01*
X-1416627Y722927D01*
X-1443484Y696070D01*
X-1443831Y696270D01*
X-1453344Y698819D01*
X-1463192D01*
X-1472704Y696270D01*
X-1481233Y691346D01*
X-1488196Y684382D01*
X-1493120Y675854D01*
X-1495669Y666341D01*
Y656493D01*
X-1493120Y646981D01*
X-1488196Y638452D01*
X-1481233Y631489D01*
X-1472704Y626565D01*
X-1463192Y624016D01*
X-1453344D01*
X-1443831Y626565D01*
X-1435303Y631489D01*
X-1428339Y638452D01*
X-1423415Y646981D01*
X-1420866Y656493D01*
Y666341D01*
X-1423415Y675854D01*
X-1423615Y676201D01*
X-1400873Y698943D01*
X-1378075D01*
X-1376735Y693943D01*
X-1381233Y691346D01*
X-1388196Y684382D01*
X-1393120Y675854D01*
X-1395669Y666341D01*
Y656493D01*
X-1393120Y646981D01*
X-1388196Y638452D01*
X-1381786Y632042D01*
X-1382568Y627042D01*
X-1406693D01*
X-1412069Y625972D01*
X-1416627Y622927D01*
X-1443484Y596070D01*
X-1443831Y596270D01*
X-1453344Y598819D01*
X-1463192D01*
X-1472704Y596270D01*
X-1481233Y591346D01*
X-1488196Y584382D01*
X-1493120Y575854D01*
X-1495669Y566341D01*
Y556493D01*
X-1493120Y546981D01*
X-1488196Y538452D01*
X-1481233Y531489D01*
X-1472704Y526565D01*
X-1463192Y524016D01*
X-1453344D01*
X-1443831Y526565D01*
X-1435303Y531489D01*
X-1428339Y538452D01*
X-1423415Y546981D01*
X-1420866Y556493D01*
Y566341D01*
X-1423415Y575854D01*
X-1423615Y576201D01*
X-1400873Y598943D01*
X-1378075D01*
X-1376735Y593943D01*
X-1381233Y591346D01*
X-1388196Y584382D01*
X-1393120Y575854D01*
X-1395669Y566341D01*
Y556493D01*
X-1393120Y546981D01*
X-1388196Y538452D01*
X-1381786Y532042D01*
X-1382568Y527042D01*
X-1406693D01*
X-1412069Y525972D01*
X-1416627Y522927D01*
X-1443484Y496070D01*
X-1443831Y496270D01*
X-1453344Y498819D01*
X-1463192D01*
X-1472704Y496270D01*
X-1481233Y491346D01*
X-1488196Y484382D01*
X-1493120Y475854D01*
X-1495669Y466341D01*
Y456493D01*
X-1493120Y446981D01*
X-1488196Y438452D01*
X-1481233Y431489D01*
X-1472704Y426565D01*
X-1463192Y424016D01*
X-1453344D01*
X-1443831Y426565D01*
X-1435303Y431489D01*
X-1428339Y438452D01*
X-1423415Y446981D01*
X-1420866Y456493D01*
Y466341D01*
X-1423415Y475854D01*
X-1423615Y476201D01*
X-1400873Y498943D01*
X-1378075D01*
X-1376735Y493943D01*
X-1381233Y491346D01*
X-1388196Y484382D01*
X-1393120Y475854D01*
X-1395669Y466341D01*
Y456493D01*
X-1393120Y446981D01*
X-1388196Y438452D01*
X-1381786Y432042D01*
X-1382568Y427042D01*
X-1406693D01*
X-1412069Y425972D01*
X-1416627Y422927D01*
X-1443484Y396070D01*
X-1443831Y396270D01*
X-1453344Y398819D01*
X-1463192D01*
X-1472704Y396270D01*
X-1481233Y391346D01*
X-1488196Y384382D01*
X-1493120Y375854D01*
X-1495669Y366341D01*
Y356493D01*
X-1493120Y346981D01*
X-1488196Y338452D01*
X-1481233Y331489D01*
X-1472704Y326565D01*
X-1463192Y324016D01*
X-1453344D01*
X-1443831Y326565D01*
X-1435303Y331489D01*
X-1428339Y338452D01*
X-1423415Y346981D01*
X-1420866Y356493D01*
Y366341D01*
X-1423415Y375854D01*
X-1423615Y376201D01*
X-1400873Y398943D01*
X-1378075D01*
X-1376735Y393943D01*
X-1381233Y391346D01*
X-1388196Y384382D01*
X-1393120Y375854D01*
X-1395669Y366341D01*
Y356493D01*
X-1393120Y346981D01*
X-1388196Y338452D01*
X-1381233Y331489D01*
X-1372704Y326565D01*
X-1363192Y324016D01*
X-1353344D01*
X-1343831Y326565D01*
X-1335303Y331489D01*
X-1328339Y338452D01*
X-1323415Y346981D01*
X-1320866Y356493D01*
Y366341D01*
X-1323415Y375854D01*
X-1328339Y384382D01*
X-1335303Y391346D01*
X-1339800Y393943D01*
X-1338460Y398943D01*
X-1338209D01*
X-1332833Y400012D01*
X-1328275Y403058D01*
X-1270626Y460707D01*
X-911409D01*
X-906960Y453000D01*
X-900363Y446403D01*
X-892283Y441738D01*
X-883271Y439323D01*
X-873942D01*
X-864930Y441738D01*
X-856850Y446403D01*
X-850253Y453000D01*
X-845588Y461079D01*
X-843173Y470091D01*
Y479421D01*
X-845588Y488433D01*
X-850253Y496512D01*
X-856850Y503110D01*
X-864930Y507774D01*
X-873942Y510189D01*
X-883271D01*
X-892283Y507774D01*
X-900363Y503110D01*
X-906960Y496512D01*
X-911409Y488806D01*
X-1276445D01*
X-1281822Y487736D01*
X-1286380Y484691D01*
X-1316778Y454293D01*
X-1320866Y457275D01*
Y466341D01*
X-1323415Y475854D01*
X-1328339Y484382D01*
X-1335303Y491346D01*
X-1339800Y493943D01*
X-1338460Y498943D01*
X-1338209D01*
X-1332833Y500012D01*
X-1328275Y503058D01*
X-1270626Y560707D01*
X-911409D01*
X-906960Y553000D01*
X-900363Y546403D01*
X-892283Y541738D01*
X-883271Y539323D01*
X-873942D01*
X-864930Y541738D01*
X-856850Y546403D01*
X-850253Y553000D01*
X-845588Y561080D01*
X-843173Y570091D01*
Y579421D01*
X-845588Y588433D01*
X-850253Y596512D01*
X-856850Y603110D01*
X-864930Y607774D01*
X-873942Y610189D01*
X-883271D01*
X-892283Y607774D01*
X-900363Y603110D01*
X-906960Y596512D01*
X-911409Y588806D01*
X-1276445D01*
X-1281822Y587736D01*
X-1286380Y584691D01*
X-1316778Y554293D01*
X-1320866Y557275D01*
Y566341D01*
X-1323415Y575854D01*
X-1328339Y584382D01*
X-1335303Y591346D01*
X-1339800Y593943D01*
X-1338460Y598943D01*
X-1338209D01*
X-1332833Y600012D01*
X-1328275Y603058D01*
X-1270626Y660707D01*
X-911409D01*
X-906960Y653000D01*
X-900363Y646403D01*
X-892283Y641738D01*
X-883271Y639323D01*
X-873942D01*
X-864930Y641738D01*
X-856850Y646403D01*
X-850253Y653000D01*
X-845588Y661080D01*
X-843173Y670091D01*
Y679421D01*
X-845588Y688433D01*
X-850253Y696512D01*
X-856850Y703110D01*
X-864930Y707774D01*
X-873942Y710189D01*
X-883271D01*
X-892283Y707774D01*
X-900363Y703110D01*
X-906960Y696512D01*
X-911409Y688806D01*
X-1276445D01*
X-1281822Y687736D01*
X-1286380Y684691D01*
X-1316778Y654293D01*
X-1320866Y657275D01*
Y666341D01*
X-1323415Y675854D01*
X-1328339Y684382D01*
X-1335303Y691346D01*
X-1339800Y693943D01*
X-1338460Y698943D01*
X-1338209D01*
X-1332833Y700012D01*
X-1328275Y703058D01*
X-1270626Y760707D01*
X-911409D01*
X-906960Y753000D01*
X-900363Y746403D01*
X-892283Y741738D01*
X-883271Y739323D01*
X-873942D01*
X-864930Y741738D01*
X-856850Y746403D01*
X-850253Y753000D01*
X-845588Y761080D01*
X-843173Y770091D01*
Y779421D01*
X-845588Y788433D01*
X-850253Y796512D01*
X-856850Y803110D01*
X-864930Y807774D01*
X-873942Y810189D01*
X-883271D01*
X-892283Y807774D01*
X-900363Y803110D01*
X-906960Y796512D01*
X-911409Y788806D01*
X-1276445D01*
X-1281822Y787736D01*
X-1286380Y784691D01*
X-1316778Y754293D01*
X-1320866Y757275D01*
Y766341D01*
X-1323415Y775854D01*
X-1328339Y784382D01*
X-1335303Y791346D01*
X-1339800Y793943D01*
X-1338460Y798943D01*
X-1338209D01*
X-1332833Y800012D01*
X-1328275Y803058D01*
X-1270626Y860707D01*
X-911409D01*
X-906960Y853000D01*
X-900363Y846403D01*
X-892283Y841738D01*
X-883271Y839323D01*
X-873942D01*
X-864930Y841738D01*
X-856850Y846403D01*
X-850253Y853000D01*
X-845588Y861080D01*
X-843173Y870091D01*
Y879421D01*
X-845588Y888433D01*
X-850253Y896512D01*
X-856850Y903110D01*
X-864930Y907774D01*
X-873942Y910189D01*
X-883271D01*
X-892283Y907774D01*
X-900363Y903110D01*
X-906960Y896512D01*
X-911409Y888806D01*
X-1276445D01*
X-1281822Y887736D01*
X-1286380Y884691D01*
X-1316778Y854293D01*
X-1320866Y857275D01*
Y866341D01*
X-1323415Y875854D01*
X-1328339Y884382D01*
X-1335303Y891346D01*
X-1339800Y893943D01*
X-1338460Y898943D01*
X-940370D01*
X-934994Y900012D01*
X-930436Y903058D01*
X-891867Y941626D01*
X-883271Y939323D01*
X-873942D01*
X-864930Y941738D01*
X-856850Y946403D01*
X-850253Y953000D01*
X-845588Y961080D01*
X-843173Y970091D01*
Y979421D01*
X-845588Y988433D01*
X-850253Y996512D01*
X-856850Y1003110D01*
X-864930Y1007774D01*
X-873942Y1010189D01*
X-883271D01*
X-892283Y1007774D01*
X-900363Y1003110D01*
X-906960Y996512D01*
X-911625Y988433D01*
X-914039Y979421D01*
Y970091D01*
X-911736Y961495D01*
X-946190Y927042D01*
X-1333968D01*
X-1334750Y932042D01*
X-1328339Y938452D01*
X-1323415Y946981D01*
X-1320866Y956493D01*
Y966341D01*
X-1323415Y975854D01*
X-1328339Y984382D01*
X-1335303Y991346D01*
X-1339800Y993943D01*
X-1338460Y998943D01*
X-1338209D01*
X-1332833Y1000012D01*
X-1328275Y1003058D01*
X-1270626Y1060707D01*
X-911409D01*
X-906960Y1053000D01*
X-900363Y1046403D01*
X-892283Y1041738D01*
X-883271Y1039323D01*
X-873942D01*
X-864930Y1041738D01*
X-856850Y1046403D01*
X-850253Y1053000D01*
X-845588Y1061080D01*
X-843173Y1070091D01*
Y1079421D01*
X-845588Y1088433D01*
X-850253Y1096512D01*
X-856850Y1103110D01*
X-864930Y1107774D01*
X-873942Y1110189D01*
X-883271D01*
X-892283Y1107774D01*
X-900363Y1103110D01*
X-906960Y1096512D01*
X-911409Y1088806D01*
X-1276445D01*
X-1281822Y1087736D01*
X-1286380Y1084691D01*
X-1316778Y1054293D01*
X-1320866Y1057275D01*
Y1066341D01*
X-1323415Y1075854D01*
X-1328339Y1084382D01*
X-1335303Y1091346D01*
X-1339800Y1093943D01*
X-1338460Y1098943D01*
X-1338209D01*
X-1332833Y1100012D01*
X-1328275Y1103058D01*
X-1270626Y1160707D01*
X-911409D01*
X-906960Y1153000D01*
X-900363Y1146403D01*
X-892283Y1141738D01*
X-883271Y1139323D01*
X-873942D01*
X-864930Y1141738D01*
X-856850Y1146403D01*
X-850253Y1153000D01*
X-845588Y1161080D01*
X-843173Y1170091D01*
Y1179421D01*
X-845588Y1188433D01*
X-850253Y1196512D01*
X-856850Y1203110D01*
X-864930Y1207774D01*
X-873942Y1210189D01*
D02*
G37*
G36*
X-773942D02*
X-783271D01*
X-792283Y1207774D01*
X-800363Y1203110D01*
X-806960Y1196512D01*
X-811625Y1188433D01*
X-814039Y1179421D01*
Y1170091D01*
X-811625Y1161080D01*
X-806960Y1153000D01*
X-800363Y1146403D01*
X-792283Y1141738D01*
X-783271Y1139323D01*
X-773942D01*
X-764930Y1141738D01*
X-756850Y1146403D01*
X-750253Y1153000D01*
X-745588Y1161080D01*
X-743173Y1170091D01*
Y1179421D01*
X-745588Y1188433D01*
X-750253Y1196512D01*
X-756850Y1203110D01*
X-764930Y1207774D01*
X-773942Y1210189D01*
D02*
G37*
G36*
X-1468110Y1151575D02*
X-1497795D01*
Y1121890D01*
X-1468110D01*
Y1151575D01*
D02*
G37*
G36*
X-773942Y1110189D02*
X-783271D01*
X-792283Y1107774D01*
X-800363Y1103110D01*
X-806960Y1096512D01*
X-811625Y1088433D01*
X-814039Y1079421D01*
Y1070091D01*
X-811625Y1061080D01*
X-806960Y1053000D01*
X-800363Y1046403D01*
X-792283Y1041738D01*
X-783271Y1039323D01*
X-773942D01*
X-764930Y1041738D01*
X-756850Y1046403D01*
X-750253Y1053000D01*
X-745588Y1061080D01*
X-743173Y1070091D01*
Y1079421D01*
X-745588Y1088433D01*
X-750253Y1096512D01*
X-756850Y1103110D01*
X-764930Y1107774D01*
X-773942Y1110189D01*
D02*
G37*
G36*
X-459384Y1109252D02*
X-469750D01*
X-479763Y1106569D01*
X-488741Y1101386D01*
X-496071Y1094056D01*
X-501254Y1085078D01*
X-503937Y1075065D01*
Y1064699D01*
X-501254Y1054686D01*
X-496071Y1045708D01*
X-488741Y1038378D01*
X-479763Y1033195D01*
X-469750Y1030512D01*
X-459384D01*
X-449371Y1033195D01*
X-440393Y1038378D01*
X-433063Y1045708D01*
X-427880Y1054686D01*
X-425197Y1064699D01*
Y1075065D01*
X-427880Y1085078D01*
X-433063Y1094056D01*
X-440393Y1101386D01*
X-449371Y1106569D01*
X-459384Y1109252D01*
D02*
G37*
G36*
X-26313Y1109252D02*
X-36679D01*
X-46692Y1106569D01*
X-55670Y1101386D01*
X-63000Y1094055D01*
X-68183Y1085078D01*
X-70866Y1075065D01*
Y1064699D01*
X-68183Y1054686D01*
X-63000Y1045708D01*
X-55670Y1038378D01*
X-46692Y1033195D01*
X-36679Y1030512D01*
X-26313D01*
X-16300Y1033195D01*
X-7322Y1038378D01*
X8Y1045708D01*
X5191Y1054686D01*
X7874Y1064699D01*
Y1075065D01*
X5191Y1085078D01*
X8Y1094055D01*
X-7322Y1101386D01*
X-16300Y1106569D01*
X-26313Y1109252D01*
D02*
G37*
G36*
X-773942Y1010189D02*
X-783271D01*
X-792283Y1007774D01*
X-800363Y1003110D01*
X-806960Y996512D01*
X-811625Y988433D01*
X-814039Y979421D01*
Y970091D01*
X-811625Y961080D01*
X-806960Y953000D01*
X-800363Y946403D01*
X-792283Y941738D01*
X-783271Y939323D01*
X-773942D01*
X-764930Y941738D01*
X-756850Y946403D01*
X-750253Y953000D01*
X-745588Y961080D01*
X-743173Y970091D01*
Y979421D01*
X-745588Y988433D01*
X-750253Y996512D01*
X-756850Y1003110D01*
X-764930Y1007774D01*
X-773942Y1010189D01*
D02*
G37*
G36*
X-575112Y909449D02*
X-582368D01*
X-589378Y907571D01*
X-595662Y903942D01*
X-600793Y898811D01*
X-604421Y892527D01*
X-606299Y885518D01*
Y878262D01*
X-604421Y871252D01*
X-600793Y864968D01*
X-595662Y859837D01*
X-589378Y856209D01*
X-582368Y854331D01*
X-575112D01*
X-568103Y856209D01*
X-561819Y859837D01*
X-556688Y864968D01*
X-553059Y871252D01*
X-551181Y878262D01*
Y885518D01*
X-553059Y892527D01*
X-556688Y898811D01*
X-561819Y903942D01*
X-568103Y907571D01*
X-575112Y909449D01*
D02*
G37*
G36*
X-773942Y910189D02*
X-783271D01*
X-792283Y907774D01*
X-800363Y903110D01*
X-806960Y896512D01*
X-811625Y888433D01*
X-814039Y879421D01*
Y870091D01*
X-811625Y861080D01*
X-806960Y853000D01*
X-800363Y846403D01*
X-792283Y841738D01*
X-783271Y839323D01*
X-773942D01*
X-764930Y841738D01*
X-756850Y846403D01*
X-750253Y853000D01*
X-745588Y861080D01*
X-743173Y870091D01*
Y879421D01*
X-745588Y888433D01*
X-750253Y896512D01*
X-756850Y903110D01*
X-764930Y907774D01*
X-773942Y910189D01*
D02*
G37*
G36*
X488191Y850583D02*
X476376D01*
X464963Y847525D01*
X454730Y841617D01*
X446375Y833262D01*
X440468Y823029D01*
X437409Y811616D01*
Y799801D01*
X440468Y788388D01*
X446375Y778155D01*
X454730Y769801D01*
X464963Y763893D01*
X476376Y760835D01*
X488191D01*
X499604Y763893D01*
X509837Y769801D01*
X518192Y778155D01*
X524099Y788388D01*
X525134Y792250D01*
X571938D01*
X572449Y790341D01*
X578094Y780564D01*
X586076Y772582D01*
X595853Y766938D01*
X606757Y764016D01*
X618046D01*
X628950Y766938D01*
X638727Y772582D01*
X646709Y780564D01*
X652354Y790341D01*
X655276Y801245D01*
Y812534D01*
X652354Y823439D01*
X646709Y833215D01*
X638727Y841198D01*
X628950Y846842D01*
X618046Y849764D01*
X606757D01*
X595853Y846842D01*
X586076Y841198D01*
X578094Y833215D01*
X572449Y823439D01*
X571621Y820349D01*
X524818D01*
X524099Y823029D01*
X518192Y833262D01*
X509837Y841617D01*
X499604Y847525D01*
X488191Y850583D01*
D02*
G37*
G36*
X-773942Y810189D02*
X-783271D01*
X-792283Y807774D01*
X-800363Y803110D01*
X-806960Y796512D01*
X-811625Y788433D01*
X-814039Y779421D01*
Y770091D01*
X-811625Y761080D01*
X-806960Y753000D01*
X-800363Y746403D01*
X-792283Y741738D01*
X-783271Y739323D01*
X-773942D01*
X-764930Y741738D01*
X-756850Y746403D01*
X-750253Y753000D01*
X-745588Y761080D01*
X-743173Y770091D01*
Y779421D01*
X-745588Y788433D01*
X-750253Y796512D01*
X-756850Y803110D01*
X-764930Y807774D01*
X-773942Y810189D01*
D02*
G37*
G36*
X478191Y750583D02*
X466376D01*
X454963Y747525D01*
X444730Y741617D01*
X436375Y733262D01*
X430468Y723029D01*
X427409Y711616D01*
Y699801D01*
X430468Y688388D01*
X436375Y678155D01*
X444730Y669801D01*
X454963Y663893D01*
X466376Y660835D01*
X478191D01*
X489604Y663893D01*
X499837Y669801D01*
X508192Y678155D01*
X514099Y688388D01*
X515134Y692250D01*
X571938D01*
X572449Y690341D01*
X578094Y680564D01*
X586076Y672582D01*
X595853Y666938D01*
X606757Y664016D01*
X618046D01*
X628950Y666938D01*
X638727Y672582D01*
X646709Y680564D01*
X652354Y690341D01*
X655276Y701245D01*
Y712534D01*
X652354Y723439D01*
X646709Y733215D01*
X638727Y741198D01*
X628950Y746842D01*
X618046Y749764D01*
X606757D01*
X595853Y746842D01*
X586076Y741198D01*
X578094Y733215D01*
X572449Y723439D01*
X571621Y720349D01*
X514818D01*
X514099Y723029D01*
X508192Y733262D01*
X499837Y741617D01*
X489604Y747525D01*
X478191Y750583D01*
D02*
G37*
G36*
X-773942Y710189D02*
X-783271D01*
X-792283Y707774D01*
X-800363Y703110D01*
X-806960Y696512D01*
X-811625Y688433D01*
X-814039Y679421D01*
Y670091D01*
X-811625Y661080D01*
X-806960Y653000D01*
X-800363Y646403D01*
X-792283Y641738D01*
X-783271Y639323D01*
X-773942D01*
X-764930Y641738D01*
X-756850Y646403D01*
X-750253Y653000D01*
X-745588Y661080D01*
X-743173Y670091D01*
Y679421D01*
X-745588Y688433D01*
X-750253Y696512D01*
X-756850Y703110D01*
X-764930Y707774D01*
X-773942Y710189D01*
D02*
G37*
G36*
X488191Y650583D02*
X476376D01*
X464963Y647525D01*
X454730Y641617D01*
X446375Y633262D01*
X440468Y623029D01*
X437409Y611616D01*
Y599801D01*
X440468Y588388D01*
X446375Y578155D01*
X454730Y569801D01*
X464963Y563893D01*
X476376Y560835D01*
X488191D01*
X499604Y563893D01*
X509837Y569801D01*
X518192Y578155D01*
X524099Y588388D01*
X525134Y592250D01*
X571938D01*
X572449Y590341D01*
X578094Y580564D01*
X586076Y572582D01*
X595853Y566938D01*
X606757Y564016D01*
X618046D01*
X628950Y566938D01*
X638727Y572582D01*
X646709Y580564D01*
X652354Y590341D01*
X655276Y601245D01*
Y612534D01*
X652354Y623439D01*
X646709Y633215D01*
X638727Y641198D01*
X628950Y646842D01*
X618046Y649764D01*
X606757D01*
X595853Y646842D01*
X586076Y641198D01*
X578094Y633215D01*
X572449Y623439D01*
X571621Y620349D01*
X524818D01*
X524099Y623029D01*
X518192Y633262D01*
X509837Y641617D01*
X499604Y647525D01*
X488191Y650583D01*
D02*
G37*
G36*
X880586Y610189D02*
X871256D01*
X862245Y607774D01*
X854165Y603110D01*
X847568Y596512D01*
X842903Y588433D01*
X840488Y579421D01*
Y570091D01*
X842903Y561080D01*
X847568Y553000D01*
X854165Y546403D01*
X862245Y541738D01*
X871256Y539323D01*
X880586D01*
X889598Y541738D01*
X897678Y546403D01*
X904275Y553000D01*
X908940Y561080D01*
X911354Y570091D01*
Y579421D01*
X908940Y588433D01*
X904275Y596512D01*
X897678Y603110D01*
X889598Y607774D01*
X880586Y610189D01*
D02*
G37*
G36*
X-773942D02*
X-783271D01*
X-792283Y607774D01*
X-800363Y603110D01*
X-806960Y596512D01*
X-811625Y588433D01*
X-814039Y579421D01*
Y570091D01*
X-811625Y561080D01*
X-806960Y553000D01*
X-800363Y546403D01*
X-792283Y541738D01*
X-783271Y539323D01*
X-773942D01*
X-764930Y541738D01*
X-756850Y546403D01*
X-750253Y553000D01*
X-745588Y561080D01*
X-743173Y570091D01*
Y579421D01*
X-745588Y588433D01*
X-750253Y596512D01*
X-756850Y603110D01*
X-764930Y607774D01*
X-773942Y610189D01*
D02*
G37*
G36*
X346656Y598819D02*
X336808D01*
X327296Y596270D01*
X318767Y591346D01*
X311804Y584382D01*
X306880Y575854D01*
X304331Y566341D01*
Y556493D01*
X306880Y546981D01*
X311804Y538452D01*
X318767Y531489D01*
X327296Y526565D01*
X336808Y524016D01*
X346656D01*
X356169Y526565D01*
X364697Y531489D01*
X371661Y538452D01*
X376585Y546981D01*
X379134Y556493D01*
Y566341D01*
X376585Y575854D01*
X371661Y584382D01*
X364697Y591346D01*
X356169Y596270D01*
X346656Y598819D01*
D02*
G37*
G36*
X246656D02*
X236808D01*
X227296Y596270D01*
X218767Y591346D01*
X211804Y584382D01*
X206880Y575854D01*
X204331Y566341D01*
Y556493D01*
X206880Y546981D01*
X211804Y538452D01*
X218767Y531489D01*
X227296Y526565D01*
X236808Y524016D01*
X246656D01*
X256169Y526565D01*
X264697Y531489D01*
X271661Y538452D01*
X276585Y546981D01*
X279134Y556493D01*
Y566341D01*
X276585Y575854D01*
X271661Y584382D01*
X264697Y591346D01*
X256169Y596270D01*
X246656Y598819D01*
D02*
G37*
G36*
X98116Y668307D02*
X90860D01*
X83851Y666429D01*
X77567Y662801D01*
X72436Y657670D01*
X68807Y651385D01*
X66929Y644376D01*
Y637120D01*
X68807Y630111D01*
X72436Y623826D01*
X77567Y618695D01*
X80191Y617180D01*
Y556910D01*
X79439Y556408D01*
X76594Y552149D01*
X75594Y547126D01*
Y517126D01*
X76594Y512103D01*
X79439Y507844D01*
X83697Y504999D01*
X88721Y504000D01*
X133720D01*
X138744Y504999D01*
X143002Y507844D01*
X145847Y512103D01*
X146847Y517126D01*
Y547126D01*
X145847Y552149D01*
X143002Y556408D01*
X138744Y559253D01*
X133720Y560252D01*
X116318D01*
Y623604D01*
X116541Y623826D01*
X120169Y630111D01*
X122047Y637120D01*
Y644376D01*
X120169Y651385D01*
X116541Y657670D01*
X111410Y662801D01*
X105126Y666429D01*
X98116Y668307D01*
D02*
G37*
G36*
X478191Y550583D02*
X466376D01*
X454963Y547525D01*
X444730Y541617D01*
X436375Y533262D01*
X430468Y523029D01*
X427409Y511616D01*
Y499801D01*
X430468Y488388D01*
X436375Y478155D01*
X444730Y469801D01*
X454963Y463893D01*
X466376Y460835D01*
X478191D01*
X489604Y463893D01*
X499837Y469801D01*
X508192Y478155D01*
X514099Y488388D01*
X515134Y492250D01*
X571938D01*
X572449Y490341D01*
X578094Y480565D01*
X586076Y472582D01*
X595853Y466938D01*
X606757Y464016D01*
X618046D01*
X628950Y466938D01*
X638727Y472582D01*
X646709Y480565D01*
X652354Y490341D01*
X655276Y501245D01*
Y512534D01*
X652354Y523439D01*
X646709Y533215D01*
X638727Y541198D01*
X628950Y546842D01*
X618046Y549764D01*
X606757D01*
X595853Y546842D01*
X586076Y541198D01*
X578094Y533215D01*
X572449Y523439D01*
X571621Y520349D01*
X514818D01*
X514099Y523029D01*
X508192Y533262D01*
X499837Y541617D01*
X489604Y547525D01*
X478191Y550583D01*
D02*
G37*
G36*
X880586Y510189D02*
X871256D01*
X862245Y507774D01*
X854165Y503110D01*
X847568Y496512D01*
X842903Y488433D01*
X840488Y479421D01*
Y470091D01*
X842903Y461079D01*
X847568Y453000D01*
X854165Y446403D01*
X862245Y441738D01*
X871256Y439323D01*
X880586D01*
X889598Y441738D01*
X897678Y446403D01*
X904275Y453000D01*
X908940Y461079D01*
X911354Y470091D01*
Y479421D01*
X908940Y488433D01*
X904275Y496512D01*
X897678Y503110D01*
X889598Y507774D01*
X880586Y510189D01*
D02*
G37*
G36*
X-773942D02*
X-783271D01*
X-792283Y507774D01*
X-800363Y503110D01*
X-806960Y496512D01*
X-811625Y488433D01*
X-814039Y479421D01*
Y470091D01*
X-811625Y461079D01*
X-806960Y453000D01*
X-800363Y446403D01*
X-792283Y441738D01*
X-783271Y439323D01*
X-773942D01*
X-764930Y441738D01*
X-756850Y446403D01*
X-750253Y453000D01*
X-745588Y461079D01*
X-743173Y470091D01*
Y479421D01*
X-745588Y488433D01*
X-750253Y496512D01*
X-756850Y503110D01*
X-764930Y507774D01*
X-773942Y510189D01*
D02*
G37*
G36*
X346656Y498819D02*
X336808D01*
X327296Y496270D01*
X318767Y491346D01*
X311804Y484382D01*
X306880Y475854D01*
X304331Y466341D01*
Y456493D01*
X306880Y446981D01*
X311804Y438452D01*
X318767Y431489D01*
X327296Y426565D01*
X336808Y424016D01*
X346656D01*
X356169Y426565D01*
X364697Y431489D01*
X371661Y438452D01*
X376585Y446981D01*
X379134Y456493D01*
Y466341D01*
X376585Y475854D01*
X371661Y484382D01*
X364697Y491346D01*
X356169Y496270D01*
X346656Y498819D01*
D02*
G37*
G36*
X246656D02*
X236808D01*
X227296Y496270D01*
X218767Y491346D01*
X211804Y484382D01*
X206880Y475854D01*
X204331Y466341D01*
Y456493D01*
X206880Y446981D01*
X211804Y438452D01*
X218767Y431489D01*
X227296Y426565D01*
X236808Y424016D01*
X246656D01*
X256169Y426565D01*
X264697Y431489D01*
X271661Y438452D01*
X276585Y446981D01*
X279134Y456493D01*
Y466341D01*
X276585Y475854D01*
X271661Y484382D01*
X264697Y491346D01*
X256169Y496270D01*
X246656Y498819D01*
D02*
G37*
G36*
X618046Y449764D02*
X606757D01*
X595853Y446842D01*
X586076Y441198D01*
X578094Y433215D01*
X572449Y423439D01*
X571199Y418774D01*
X534504D01*
X532211Y422744D01*
X526091Y428865D01*
X518594Y433193D01*
X510233Y435433D01*
X501578D01*
X493217Y433193D01*
X485720Y428865D01*
X479600Y422744D01*
X476057Y416609D01*
X382874D01*
X377498Y415539D01*
X372940Y412494D01*
X356516Y396070D01*
X356169Y396270D01*
X346656Y398819D01*
X336808D01*
X327296Y396270D01*
X318767Y391346D01*
X311804Y384382D01*
X306880Y375854D01*
X304331Y366341D01*
Y356493D01*
X306880Y346981D01*
X311804Y338452D01*
X318767Y331489D01*
X327296Y326565D01*
X336808Y324016D01*
X346656D01*
X356169Y326565D01*
X364697Y331489D01*
X371661Y338452D01*
X376585Y346981D01*
X379134Y356493D01*
Y366341D01*
X376585Y375854D01*
X376385Y376201D01*
X388694Y388510D01*
X476057D01*
X479600Y382374D01*
X485720Y376253D01*
X493217Y371925D01*
X501578Y369685D01*
X510233D01*
X518594Y371925D01*
X526091Y376253D01*
X532211Y382374D01*
X536539Y389870D01*
X536755Y390675D01*
X572360D01*
X572449Y390341D01*
X578094Y380565D01*
X586076Y372582D01*
X595853Y366938D01*
X606757Y364016D01*
X618046D01*
X628950Y366938D01*
X638727Y372582D01*
X646709Y380565D01*
X652354Y390341D01*
X655276Y401245D01*
Y412534D01*
X652354Y423439D01*
X646709Y433215D01*
X638727Y441198D01*
X628950Y446842D01*
X618046Y449764D01*
D02*
G37*
G36*
X-868764Y411003D02*
Y384598D01*
X-842360D01*
X-843607Y389253D01*
X-848552Y397818D01*
X-855544Y404811D01*
X-864109Y409755D01*
X-868764Y411003D01*
D02*
G37*
G36*
X-888449D02*
X-893104Y409755D01*
X-901668Y404811D01*
X-908661Y397818D01*
X-913606Y389253D01*
X-914853Y384598D01*
X-888449D01*
Y411003D01*
D02*
G37*
G36*
X-773942Y410189D02*
X-783271D01*
X-792283Y407774D01*
X-800363Y403110D01*
X-806960Y396512D01*
X-811625Y388433D01*
X-814039Y379421D01*
Y370091D01*
X-811625Y361079D01*
X-806960Y353000D01*
X-800363Y346403D01*
X-792283Y341738D01*
X-783271Y339323D01*
X-773942D01*
X-764930Y341738D01*
X-756850Y346403D01*
X-750253Y353000D01*
X-745588Y361079D01*
X-743173Y370091D01*
Y379421D01*
X-745588Y388433D01*
X-750253Y396512D01*
X-756850Y403110D01*
X-764930Y407774D01*
X-773942Y410189D01*
D02*
G37*
G36*
X-842360Y364913D02*
X-868764D01*
Y338510D01*
X-864109Y339757D01*
X-855544Y344701D01*
X-848552Y351694D01*
X-843607Y360259D01*
X-842360Y364913D01*
D02*
G37*
G36*
X-888449D02*
X-914853D01*
X-913606Y360259D01*
X-908661Y351694D01*
X-901668Y344701D01*
X-893104Y339757D01*
X-888449Y338510D01*
Y364913D01*
D02*
G37*
G36*
X133720Y480252D02*
X88721D01*
X83697Y479253D01*
X79439Y476408D01*
X76594Y472149D01*
X75594Y467126D01*
Y437126D01*
X76594Y432103D01*
X79439Y427844D01*
X83697Y424999D01*
X88721Y424000D01*
X97171D01*
Y376378D01*
X98240Y371001D01*
X101286Y366443D01*
X106312Y361417D01*
X-91627Y163478D01*
X-94673Y158920D01*
X-95742Y153543D01*
Y-1162314D01*
X-125589Y-1192161D01*
X-128522Y-1190468D01*
X-139935Y-1187409D01*
X-151750D01*
X-163163Y-1190468D01*
X-173396Y-1196375D01*
X-181751Y-1204730D01*
X-187658Y-1214963D01*
X-190716Y-1226376D01*
Y-1238191D01*
X-187658Y-1249604D01*
X-181751Y-1259837D01*
X-173396Y-1268192D01*
X-163163Y-1274099D01*
X-151750Y-1277158D01*
X-139935D01*
X-128522Y-1274099D01*
X-118289Y-1268192D01*
X-109934Y-1259837D01*
X-104027Y-1249604D01*
X-100969Y-1238191D01*
Y-1226376D01*
X-104027Y-1214963D01*
X-105720Y-1212030D01*
X-71758Y-1178068D01*
X-68713Y-1173510D01*
X-67643Y-1168134D01*
Y-869211D01*
X-62793Y-867996D01*
X-62505Y-868536D01*
X-53156Y-879928D01*
X-41764Y-889276D01*
X-28768Y-896223D01*
X-14666Y-900501D01*
X0Y-901945D01*
X14666Y-900501D01*
X28768Y-896223D01*
X41764Y-889276D01*
X53156Y-879928D01*
X62505Y-868536D01*
X69451Y-855539D01*
X73729Y-841437D01*
X75174Y-826772D01*
X73729Y-812106D01*
X69451Y-798004D01*
X62505Y-785008D01*
X53156Y-773616D01*
X41764Y-764267D01*
X28768Y-757320D01*
X14666Y-753043D01*
X0Y-751598D01*
X-14666Y-753043D01*
X-28768Y-757320D01*
X-41764Y-764267D01*
X-53156Y-773616D01*
X-62505Y-785008D01*
X-62793Y-785548D01*
X-67643Y-784332D01*
Y-42439D01*
X-62793Y-41224D01*
X-62505Y-41764D01*
X-53156Y-53156D01*
X-41764Y-62505D01*
X-28768Y-69451D01*
X-14666Y-73729D01*
X0Y-75174D01*
X14666Y-73729D01*
X28768Y-69451D01*
X41764Y-62505D01*
X53156Y-53156D01*
X62505Y-41764D01*
X69451Y-28768D01*
X73729Y-14666D01*
X75174Y0D01*
X73729Y14666D01*
X69451Y28768D01*
X62505Y41764D01*
X53156Y53156D01*
X41764Y62505D01*
X28768Y69451D01*
X14666Y73729D01*
X0Y75174D01*
X-14666Y73729D01*
X-28768Y69451D01*
X-41764Y62505D01*
X-53156Y53156D01*
X-62505Y41764D01*
X-62793Y41224D01*
X-67643Y42439D01*
Y147724D01*
X132001Y347368D01*
X206776D01*
X206880Y346981D01*
X211804Y338452D01*
X218767Y331489D01*
X227296Y326565D01*
X236808Y324016D01*
X246656D01*
X256169Y326565D01*
X264697Y331489D01*
X271661Y338452D01*
X276585Y346981D01*
X279134Y356493D01*
Y366341D01*
X276585Y375854D01*
X271661Y384382D01*
X264697Y391346D01*
X256169Y396270D01*
X246656Y398819D01*
X236808D01*
X227296Y396270D01*
X218767Y391346D01*
X211804Y384382D01*
X206880Y375854D01*
X206776Y375467D01*
X132001D01*
X125270Y382197D01*
Y424000D01*
X133720D01*
X138744Y424999D01*
X143002Y427844D01*
X145847Y432103D01*
X146847Y437126D01*
Y467126D01*
X145847Y472149D01*
X143002Y476408D01*
X138744Y479253D01*
X133720Y480252D01*
D02*
G37*
G36*
X618046Y349764D02*
X606757D01*
X595853Y346842D01*
X586076Y341198D01*
X578094Y333215D01*
X572449Y323439D01*
X571542Y320053D01*
X534868D01*
X531326Y326189D01*
X525205Y332310D01*
X517709Y336638D01*
X509348Y338878D01*
X500692D01*
X492331Y336638D01*
X484835Y332310D01*
X478714Y326189D01*
X475171Y320053D01*
X386319D01*
X380942Y318984D01*
X376384Y315938D01*
X356516Y296070D01*
X356169Y296270D01*
X346656Y298819D01*
X336808D01*
X327296Y296270D01*
X318767Y291346D01*
X311804Y284382D01*
X306880Y275854D01*
X304331Y266341D01*
Y256493D01*
X306880Y246981D01*
X311804Y238452D01*
X318767Y231489D01*
X327296Y226565D01*
X336808Y224016D01*
X346656D01*
X356169Y226565D01*
X364697Y231489D01*
X371661Y238452D01*
X376585Y246981D01*
X379134Y256493D01*
Y266341D01*
X376585Y275854D01*
X376385Y276201D01*
X392138Y291954D01*
X475171D01*
X478714Y285819D01*
X484835Y279698D01*
X492331Y275370D01*
X500692Y273130D01*
X509348D01*
X517709Y275370D01*
X525205Y279698D01*
X531326Y285819D01*
X534868Y291954D01*
X572017D01*
X572449Y290341D01*
X578094Y280565D01*
X586076Y272582D01*
X595853Y266938D01*
X606757Y264016D01*
X618046D01*
X628950Y266938D01*
X638727Y272582D01*
X646709Y280565D01*
X652354Y290341D01*
X655276Y301245D01*
Y312534D01*
X652354Y323439D01*
X646709Y333215D01*
X638727Y341198D01*
X628950Y346842D01*
X618046Y349764D01*
D02*
G37*
G36*
X-1353344Y298819D02*
X-1363192D01*
X-1372704Y296270D01*
X-1381233Y291346D01*
X-1388196Y284382D01*
X-1393120Y275854D01*
X-1395669Y266341D01*
Y256493D01*
X-1393120Y246981D01*
X-1388196Y238452D01*
X-1381233Y231489D01*
X-1372704Y226565D01*
X-1363192Y224016D01*
X-1353344D01*
X-1343831Y226565D01*
X-1335303Y231489D01*
X-1328339Y238452D01*
X-1323415Y246981D01*
X-1320866Y256493D01*
Y266341D01*
X-1323415Y275854D01*
X-1328339Y284382D01*
X-1335303Y291346D01*
X-1343831Y296270D01*
X-1353344Y298819D01*
D02*
G37*
G36*
X-1453344D02*
X-1463192D01*
X-1472704Y296270D01*
X-1481233Y291346D01*
X-1488196Y284382D01*
X-1493120Y275854D01*
X-1495669Y266341D01*
Y256493D01*
X-1493120Y246981D01*
X-1488196Y238452D01*
X-1481233Y231489D01*
X-1472704Y226565D01*
X-1463192Y224016D01*
X-1453344D01*
X-1443831Y226565D01*
X-1435303Y231489D01*
X-1428339Y238452D01*
X-1423415Y246981D01*
X-1420866Y256493D01*
Y266341D01*
X-1423415Y275854D01*
X-1428339Y284382D01*
X-1435303Y291346D01*
X-1443831Y296270D01*
X-1453344Y298819D01*
D02*
G37*
G36*
X246656D02*
X236808D01*
X227296Y296270D01*
X218767Y291346D01*
X211804Y284382D01*
X206880Y275854D01*
X204331Y266341D01*
Y256493D01*
X206880Y246981D01*
X211804Y238452D01*
X218767Y231489D01*
X227296Y226565D01*
X236808Y224016D01*
X246656D01*
X256169Y226565D01*
X256516Y226765D01*
X276108Y207173D01*
Y185717D01*
X271108Y184935D01*
X264697Y191346D01*
X256169Y196270D01*
X246656Y198819D01*
X236808D01*
X227296Y196270D01*
X218767Y191346D01*
X211804Y184382D01*
X206880Y175854D01*
X204331Y166341D01*
Y156493D01*
X206880Y146981D01*
X211804Y138452D01*
X218767Y131489D01*
X227296Y126565D01*
X236808Y124016D01*
X246656D01*
X256169Y126565D01*
X256516Y126765D01*
X276108Y107173D01*
Y85717D01*
X271108Y84935D01*
X264697Y91346D01*
X256169Y96270D01*
X246656Y98819D01*
X236808D01*
X227296Y96270D01*
X218767Y91346D01*
X211804Y84382D01*
X206880Y75854D01*
X204331Y66341D01*
Y56493D01*
X206880Y46981D01*
X211804Y38452D01*
X218767Y31489D01*
X227296Y26565D01*
X236808Y24016D01*
X246656D01*
X256169Y26565D01*
X264697Y31489D01*
X271661Y38452D01*
X272073Y39166D01*
X274900Y39147D01*
X277526Y38611D01*
X280223Y34574D01*
X314889Y-92D01*
X318926Y-2789D01*
X319462Y-5415D01*
X319481Y-8242D01*
X318767Y-8654D01*
X311804Y-15618D01*
X306880Y-24146D01*
X304331Y-33659D01*
Y-43507D01*
X306880Y-53019D01*
X311804Y-61548D01*
X318767Y-68511D01*
X327296Y-73435D01*
X336808Y-75984D01*
X346656D01*
X356169Y-73435D01*
X364697Y-68511D01*
X371661Y-61548D01*
X376585Y-53019D01*
X379134Y-43507D01*
Y-33659D01*
X376585Y-24146D01*
X371661Y-15618D01*
X365250Y-9207D01*
X366032Y-4207D01*
X475566D01*
X476256Y-6783D01*
X480584Y-14280D01*
X486705Y-20400D01*
X494201Y-24728D01*
X502562Y-26968D01*
X511218D01*
X519579Y-24728D01*
X527075Y-20400D01*
X533196Y-14280D01*
X536738Y-8144D01*
X572043D01*
X572449Y-9659D01*
X578094Y-19436D01*
X586076Y-27418D01*
X595853Y-33062D01*
X606757Y-35984D01*
X618046D01*
X628950Y-33062D01*
X638727Y-27418D01*
X646709Y-19436D01*
X652354Y-9659D01*
X655276Y1245D01*
Y12534D01*
X652354Y23439D01*
X646709Y33215D01*
X638727Y41198D01*
X628950Y46842D01*
X618046Y49764D01*
X606757D01*
X595853Y46842D01*
X586076Y41198D01*
X578094Y33215D01*
X572449Y23439D01*
X571516Y19955D01*
X536738D01*
X533196Y26091D01*
X527075Y32211D01*
X519579Y36539D01*
X511218Y38779D01*
X502562D01*
X494201Y36539D01*
X486705Y32211D01*
X480584Y26091D01*
X479315Y23892D01*
X365792D01*
X364452Y28892D01*
X366003Y29787D01*
X373362Y37147D01*
X378566Y46160D01*
X380017Y51575D01*
X341733D01*
Y71260D01*
X380017D01*
X378566Y76674D01*
X373362Y85688D01*
X368257Y90793D01*
X370328Y95793D01*
X474423D01*
X475272Y92626D01*
X479600Y85130D01*
X485720Y79009D01*
X493217Y74681D01*
X501578Y72441D01*
X510233D01*
X518594Y74681D01*
X526091Y79009D01*
X532211Y85130D01*
X536208Y92053D01*
X571991D01*
X572449Y90341D01*
X578094Y80564D01*
X586076Y72582D01*
X595853Y66938D01*
X606757Y64016D01*
X618046D01*
X628950Y66938D01*
X638727Y72582D01*
X646709Y80564D01*
X652354Y90341D01*
X655276Y101245D01*
Y112534D01*
X652354Y123439D01*
X646709Y133215D01*
X638727Y141198D01*
X628950Y146842D01*
X618046Y149764D01*
X606757D01*
X595853Y146842D01*
X586076Y141198D01*
X578094Y133215D01*
X572449Y123439D01*
X571569Y120152D01*
X535299D01*
X532211Y125500D01*
X526091Y131621D01*
X518594Y135949D01*
X510233Y138189D01*
X501578D01*
X493217Y135949D01*
X485720Y131621D01*
X479600Y125500D01*
X478671Y123892D01*
X361539D01*
X360200Y128892D01*
X364697Y131489D01*
X371661Y138452D01*
X376585Y146981D01*
X376689Y147368D01*
X463583D01*
X468959Y148437D01*
X473517Y151483D01*
X494734Y172700D01*
X501578Y170866D01*
X510233D01*
X518594Y173107D01*
X526091Y177434D01*
X532211Y183555D01*
X536539Y191051D01*
X536597Y191266D01*
X572202D01*
X572449Y190341D01*
X578094Y180565D01*
X586076Y172582D01*
X595853Y166938D01*
X606757Y164016D01*
X618046D01*
X628950Y166938D01*
X638727Y172582D01*
X646709Y180565D01*
X652354Y190341D01*
X655276Y201245D01*
Y212534D01*
X652354Y223439D01*
X646709Y233215D01*
X638727Y241198D01*
X628950Y246842D01*
X618046Y249764D01*
X606757D01*
X595853Y246842D01*
X586076Y241198D01*
X578094Y233215D01*
X572449Y223439D01*
X571358Y219364D01*
X534845D01*
X532211Y223925D01*
X526091Y230046D01*
X518594Y234374D01*
X510233Y236614D01*
X501578D01*
X493217Y234374D01*
X485720Y230046D01*
X479600Y223925D01*
X475272Y216429D01*
X473031Y208068D01*
Y199412D01*
X474865Y192569D01*
X457763Y175467D01*
X376689D01*
X376585Y175854D01*
X371661Y184382D01*
X364697Y191346D01*
X356169Y196270D01*
X346656Y198819D01*
X336808D01*
X327296Y196270D01*
X318767Y191346D01*
X311804Y184382D01*
X309207Y179885D01*
X304207Y181225D01*
Y212992D01*
X303137Y218369D01*
X300092Y222927D01*
X276385Y246634D01*
X276585Y246981D01*
X279134Y256493D01*
Y266341D01*
X276585Y275854D01*
X271661Y284382D01*
X264697Y291346D01*
X256169Y296270D01*
X246656Y298819D01*
D02*
G37*
G36*
X-1353344Y198819D02*
X-1363192D01*
X-1372704Y196270D01*
X-1381233Y191346D01*
X-1388196Y184382D01*
X-1393120Y175854D01*
X-1395669Y166341D01*
Y156493D01*
X-1393120Y146981D01*
X-1388196Y138452D01*
X-1381233Y131489D01*
X-1372704Y126565D01*
X-1363192Y124016D01*
X-1353344D01*
X-1343831Y126565D01*
X-1335303Y131489D01*
X-1328339Y138452D01*
X-1323415Y146981D01*
X-1320866Y156493D01*
Y166341D01*
X-1323415Y175854D01*
X-1328339Y184382D01*
X-1335303Y191346D01*
X-1343831Y196270D01*
X-1353344Y198819D01*
D02*
G37*
G36*
X-1453344D02*
X-1463192D01*
X-1472704Y196270D01*
X-1481233Y191346D01*
X-1488196Y184382D01*
X-1493120Y175854D01*
X-1495669Y166341D01*
Y156493D01*
X-1493120Y146981D01*
X-1488196Y138452D01*
X-1481233Y131489D01*
X-1472704Y126565D01*
X-1463192Y124016D01*
X-1453344D01*
X-1443831Y126565D01*
X-1435303Y131489D01*
X-1428339Y138452D01*
X-1423415Y146981D01*
X-1420866Y156493D01*
Y166341D01*
X-1423415Y175854D01*
X-1428339Y184382D01*
X-1435303Y191346D01*
X-1443831Y196270D01*
X-1453344Y198819D01*
D02*
G37*
G36*
X-1448425Y99702D02*
Y71260D01*
X-1419983D01*
X-1421434Y76674D01*
X-1426638Y85688D01*
X-1433997Y93047D01*
X-1443011Y98251D01*
X-1448425Y99702D01*
D02*
G37*
G36*
X-1468110Y99702D02*
X-1473525Y98251D01*
X-1482538Y93047D01*
X-1489898Y85688D01*
X-1495101Y76674D01*
X-1496552Y71260D01*
X-1468110D01*
Y99702D01*
D02*
G37*
G36*
X-1353344Y98819D02*
X-1363192D01*
X-1372704Y96270D01*
X-1381233Y91346D01*
X-1388196Y84382D01*
X-1393120Y75854D01*
X-1395669Y66341D01*
Y56493D01*
X-1393120Y46981D01*
X-1388196Y38452D01*
X-1381233Y31489D01*
X-1372704Y26565D01*
X-1363192Y24016D01*
X-1353344D01*
X-1343831Y26565D01*
X-1335303Y31489D01*
X-1328339Y38452D01*
X-1323415Y46981D01*
X-1320866Y56493D01*
Y66341D01*
X-1323415Y75854D01*
X-1328339Y84382D01*
X-1335303Y91346D01*
X-1343831Y96270D01*
X-1353344Y98819D01*
D02*
G37*
G36*
X-1419983Y51575D02*
X-1448425D01*
Y23133D01*
X-1443011Y24584D01*
X-1433997Y29787D01*
X-1426638Y37147D01*
X-1421434Y46160D01*
X-1419983Y51575D01*
D02*
G37*
G36*
X-1468110D02*
X-1496552D01*
X-1495101Y46160D01*
X-1489898Y37147D01*
X-1482538Y29787D01*
X-1473525Y24584D01*
X-1468110Y23133D01*
Y51575D01*
D02*
G37*
G36*
X-826772Y75174D02*
X-841437Y73729D01*
X-855539Y69451D01*
X-868536Y62505D01*
X-879928Y53156D01*
X-889276Y41764D01*
X-896223Y28768D01*
X-900501Y14666D01*
X-901945Y0D01*
X-900501Y-14666D01*
X-896223Y-28768D01*
X-889276Y-41764D01*
X-879928Y-53156D01*
X-868536Y-62505D01*
X-855539Y-69451D01*
X-841437Y-73729D01*
X-826772Y-75174D01*
X-812106Y-73729D01*
X-798004Y-69451D01*
X-785008Y-62505D01*
X-773616Y-53156D01*
X-764267Y-41764D01*
X-757320Y-28768D01*
X-753043Y-14666D01*
X-751598Y0D01*
X-753043Y14666D01*
X-757320Y28768D01*
X-764267Y41764D01*
X-773616Y53156D01*
X-785008Y62505D01*
X-798004Y69451D01*
X-812106Y73729D01*
X-826772Y75174D01*
D02*
G37*
G36*
X246656Y-1181D02*
X236808D01*
X227296Y-3730D01*
X218767Y-8654D01*
X211804Y-15618D01*
X206880Y-24146D01*
X204331Y-33659D01*
Y-43507D01*
X206880Y-53019D01*
X211804Y-61548D01*
X218767Y-68511D01*
X227296Y-73435D01*
X236808Y-75984D01*
X246656D01*
X256169Y-73435D01*
X264697Y-68511D01*
X271661Y-61548D01*
X276585Y-53019D01*
X279134Y-43507D01*
Y-33659D01*
X276585Y-24146D01*
X271661Y-15618D01*
X264697Y-8654D01*
X256169Y-3730D01*
X246656Y-1181D01*
D02*
G37*
G36*
X-1353344D02*
X-1363192D01*
X-1372704Y-3730D01*
X-1381233Y-8654D01*
X-1388196Y-15618D01*
X-1393120Y-24146D01*
X-1395669Y-33659D01*
Y-43507D01*
X-1393120Y-53019D01*
X-1388196Y-61548D01*
X-1381233Y-68511D01*
X-1372704Y-73435D01*
X-1363192Y-75984D01*
X-1353344D01*
X-1343831Y-73435D01*
X-1335303Y-68511D01*
X-1328339Y-61548D01*
X-1323415Y-53019D01*
X-1320866Y-43507D01*
Y-33659D01*
X-1323415Y-24146D01*
X-1328339Y-15618D01*
X-1335303Y-8654D01*
X-1343831Y-3730D01*
X-1353344Y-1181D01*
D02*
G37*
G36*
X-1453344D02*
X-1463192D01*
X-1472704Y-3730D01*
X-1481233Y-8654D01*
X-1488196Y-15618D01*
X-1493120Y-24146D01*
X-1495669Y-33659D01*
Y-43507D01*
X-1493120Y-53019D01*
X-1488196Y-61548D01*
X-1481233Y-68511D01*
X-1472704Y-73435D01*
X-1463192Y-75984D01*
X-1453344D01*
X-1443831Y-73435D01*
X-1435303Y-68511D01*
X-1428339Y-61548D01*
X-1423415Y-53019D01*
X-1420866Y-43507D01*
Y-33659D01*
X-1423415Y-24146D01*
X-1428339Y-15618D01*
X-1435303Y-8654D01*
X-1443831Y-3730D01*
X-1453344Y-1181D01*
D02*
G37*
G36*
X346656Y-101181D02*
X336808D01*
X327296Y-103730D01*
X318767Y-108654D01*
X311804Y-115618D01*
X306880Y-124146D01*
X304331Y-133659D01*
Y-143507D01*
X306880Y-153019D01*
X311804Y-161548D01*
X318767Y-168511D01*
X327296Y-173435D01*
X336808Y-175984D01*
X346656D01*
X356169Y-173435D01*
X364697Y-168511D01*
X371661Y-161548D01*
X376585Y-153019D01*
X379134Y-143507D01*
Y-133659D01*
X376585Y-124146D01*
X371661Y-115618D01*
X364697Y-108654D01*
X356169Y-103730D01*
X346656Y-101181D01*
D02*
G37*
G36*
X246656D02*
X236808D01*
X227296Y-103730D01*
X218767Y-108654D01*
X211804Y-115618D01*
X206880Y-124146D01*
X204331Y-133659D01*
Y-143507D01*
X206880Y-153019D01*
X211804Y-161548D01*
X218767Y-168511D01*
X227296Y-173435D01*
X236808Y-175984D01*
X246656D01*
X256169Y-173435D01*
X264697Y-168511D01*
X271661Y-161548D01*
X276585Y-153019D01*
X279134Y-143507D01*
Y-133659D01*
X276585Y-124146D01*
X271661Y-115618D01*
X264697Y-108654D01*
X256169Y-103730D01*
X246656Y-101181D01*
D02*
G37*
G36*
X-1353344D02*
X-1363192D01*
X-1372704Y-103730D01*
X-1381233Y-108654D01*
X-1388196Y-115618D01*
X-1393120Y-124146D01*
X-1395669Y-133659D01*
Y-143507D01*
X-1393120Y-153019D01*
X-1388196Y-161548D01*
X-1381233Y-168511D01*
X-1372704Y-173435D01*
X-1363192Y-175984D01*
X-1353344D01*
X-1343831Y-173435D01*
X-1335303Y-168511D01*
X-1328339Y-161548D01*
X-1323415Y-153019D01*
X-1320866Y-143507D01*
Y-133659D01*
X-1323415Y-124146D01*
X-1328339Y-115618D01*
X-1335303Y-108654D01*
X-1343831Y-103730D01*
X-1353344Y-101181D01*
D02*
G37*
G36*
X-1453344D02*
X-1463192D01*
X-1472704Y-103730D01*
X-1481233Y-108654D01*
X-1488196Y-115618D01*
X-1493120Y-124146D01*
X-1495669Y-133659D01*
Y-143507D01*
X-1493120Y-153019D01*
X-1488196Y-161548D01*
X-1481233Y-168511D01*
X-1472704Y-173435D01*
X-1463192Y-175984D01*
X-1453344D01*
X-1443831Y-173435D01*
X-1435303Y-168511D01*
X-1428339Y-161548D01*
X-1423415Y-153019D01*
X-1420866Y-143507D01*
Y-133659D01*
X-1423415Y-124146D01*
X-1428339Y-115618D01*
X-1435303Y-108654D01*
X-1443831Y-103730D01*
X-1453344Y-101181D01*
D02*
G37*
G36*
X346656Y-201181D02*
X336808D01*
X327296Y-203730D01*
X318767Y-208654D01*
X311804Y-215618D01*
X306880Y-224146D01*
X304331Y-233659D01*
Y-243507D01*
X306880Y-253019D01*
X311804Y-261548D01*
X318767Y-268511D01*
X327296Y-273435D01*
X336808Y-275984D01*
X346656D01*
X356169Y-273435D01*
X364697Y-268511D01*
X371661Y-261548D01*
X376585Y-253019D01*
X379134Y-243507D01*
Y-233659D01*
X376585Y-224146D01*
X371661Y-215618D01*
X364697Y-208654D01*
X356169Y-203730D01*
X346656Y-201181D01*
D02*
G37*
G36*
X-1353344D02*
X-1363192D01*
X-1372704Y-203730D01*
X-1381233Y-208654D01*
X-1388196Y-215618D01*
X-1393120Y-224146D01*
X-1395669Y-233659D01*
Y-243507D01*
X-1393120Y-253019D01*
X-1388196Y-261548D01*
X-1381233Y-268511D01*
X-1372704Y-273435D01*
X-1363192Y-275984D01*
X-1353344D01*
X-1343831Y-273435D01*
X-1335303Y-268511D01*
X-1328339Y-261548D01*
X-1323415Y-253019D01*
X-1320866Y-243507D01*
Y-233659D01*
X-1323415Y-224146D01*
X-1328339Y-215618D01*
X-1335303Y-208654D01*
X-1343831Y-203730D01*
X-1353344Y-201181D01*
D02*
G37*
G36*
X-1453344D02*
X-1463192D01*
X-1472704Y-203730D01*
X-1481233Y-208654D01*
X-1488196Y-215618D01*
X-1493120Y-224146D01*
X-1495669Y-233659D01*
Y-243507D01*
X-1493120Y-253019D01*
X-1488196Y-261548D01*
X-1481233Y-268511D01*
X-1472704Y-273435D01*
X-1463192Y-275984D01*
X-1453344D01*
X-1443831Y-273435D01*
X-1435303Y-268511D01*
X-1428339Y-261548D01*
X-1423415Y-253019D01*
X-1420866Y-243507D01*
Y-233659D01*
X-1423415Y-224146D01*
X-1428339Y-215618D01*
X-1435303Y-208654D01*
X-1443831Y-203730D01*
X-1453344Y-201181D01*
D02*
G37*
G36*
X-841047Y-340441D02*
X-868764D01*
Y-368157D01*
X-841047D01*
Y-340441D01*
D02*
G37*
G36*
X-888449D02*
X-916165D01*
Y-368157D01*
X-888449D01*
Y-340441D01*
D02*
G37*
G36*
X813559Y-340441D02*
X785842D01*
Y-368158D01*
X813559D01*
Y-340441D01*
D02*
G37*
G36*
X766158D02*
X738441D01*
Y-368158D01*
X766158D01*
Y-340441D01*
D02*
G37*
G36*
X246656Y-301181D02*
X236808D01*
X227296Y-303730D01*
X218767Y-308654D01*
X211804Y-315618D01*
X206880Y-324146D01*
X204331Y-333659D01*
Y-343507D01*
X206880Y-353019D01*
X211804Y-361548D01*
X218767Y-368511D01*
X227296Y-373435D01*
X236808Y-375984D01*
X246656D01*
X256169Y-373435D01*
X264697Y-368511D01*
X271661Y-361548D01*
X276585Y-353019D01*
X279134Y-343507D01*
Y-333659D01*
X276585Y-324146D01*
X271661Y-315618D01*
X264697Y-308654D01*
X256169Y-303730D01*
X246656Y-301181D01*
D02*
G37*
G36*
X-1353344D02*
X-1363192D01*
X-1372704Y-303730D01*
X-1381233Y-308654D01*
X-1388196Y-315618D01*
X-1393120Y-324146D01*
X-1395669Y-333659D01*
Y-343507D01*
X-1393120Y-353019D01*
X-1388196Y-361548D01*
X-1381233Y-368511D01*
X-1372704Y-373435D01*
X-1363192Y-375984D01*
X-1353344D01*
X-1343831Y-373435D01*
X-1335303Y-368511D01*
X-1328339Y-361548D01*
X-1323415Y-353019D01*
X-1320866Y-343507D01*
Y-333659D01*
X-1323415Y-324146D01*
X-1328339Y-315618D01*
X-1335303Y-308654D01*
X-1343831Y-303730D01*
X-1353344Y-301181D01*
D02*
G37*
G36*
X-1453344D02*
X-1463192D01*
X-1472704Y-303730D01*
X-1481233Y-308654D01*
X-1488196Y-315618D01*
X-1493120Y-324146D01*
X-1495669Y-333659D01*
Y-343507D01*
X-1493120Y-353019D01*
X-1488196Y-361548D01*
X-1481233Y-368511D01*
X-1472704Y-373435D01*
X-1463192Y-375984D01*
X-1453344D01*
X-1443831Y-373435D01*
X-1435303Y-368511D01*
X-1428339Y-361548D01*
X-1423415Y-353019D01*
X-1420866Y-343507D01*
Y-333659D01*
X-1423415Y-324146D01*
X-1428339Y-315618D01*
X-1435303Y-308654D01*
X-1443831Y-303730D01*
X-1453344Y-301181D01*
D02*
G37*
G36*
X-773942Y-342567D02*
X-783271D01*
X-792283Y-344981D01*
X-800363Y-349646D01*
X-806960Y-356243D01*
X-811625Y-364323D01*
X-814039Y-373335D01*
Y-382664D01*
X-811625Y-391676D01*
X-806960Y-399756D01*
X-800363Y-406353D01*
X-792283Y-411018D01*
X-783271Y-413433D01*
X-773942D01*
X-764930Y-411018D01*
X-756850Y-406353D01*
X-750253Y-399756D01*
X-745588Y-391676D01*
X-743173Y-382664D01*
Y-373335D01*
X-745588Y-364323D01*
X-750253Y-356243D01*
X-756850Y-349646D01*
X-764930Y-344981D01*
X-773942Y-342567D01*
D02*
G37*
G36*
X880665Y-342567D02*
X871335D01*
X862323Y-344982D01*
X854244Y-349647D01*
X847647Y-356244D01*
X842982Y-364323D01*
X840567Y-373335D01*
Y-382665D01*
X842982Y-391677D01*
X847647Y-399756D01*
X854244Y-406353D01*
X862323Y-411018D01*
X871335Y-413433D01*
X880665D01*
X889677Y-411018D01*
X897756Y-406353D01*
X904353Y-399756D01*
X909018Y-391677D01*
X911433Y-382665D01*
Y-373335D01*
X909018Y-364323D01*
X904353Y-356244D01*
X897756Y-349647D01*
X889677Y-344982D01*
X880665Y-342567D01*
D02*
G37*
G36*
X-841047Y-387842D02*
X-868764D01*
Y-415559D01*
X-841047D01*
Y-387842D01*
D02*
G37*
G36*
X-888449D02*
X-916165D01*
Y-415559D01*
X-888449D01*
Y-387842D01*
D02*
G37*
G36*
X813559Y-387842D02*
X785842D01*
Y-415559D01*
X813559D01*
Y-387842D01*
D02*
G37*
G36*
X766158D02*
X738441D01*
Y-415559D01*
X766158D01*
Y-387842D01*
D02*
G37*
G36*
X246656Y-401181D02*
X236808D01*
X227296Y-403730D01*
X218767Y-408654D01*
X211804Y-415618D01*
X206880Y-424146D01*
X204331Y-433659D01*
Y-443507D01*
X206880Y-453019D01*
X211804Y-461548D01*
X218767Y-468511D01*
X227296Y-473435D01*
X236808Y-475984D01*
X246656D01*
X256169Y-473435D01*
X264697Y-468511D01*
X271661Y-461548D01*
X276585Y-453019D01*
X279134Y-443507D01*
Y-433659D01*
X276585Y-424146D01*
X271661Y-415618D01*
X264697Y-408654D01*
X256169Y-403730D01*
X246656Y-401181D01*
D02*
G37*
G36*
X-1353344D02*
X-1363192D01*
X-1372704Y-403730D01*
X-1381233Y-408654D01*
X-1388196Y-415618D01*
X-1393120Y-424146D01*
X-1395669Y-433659D01*
Y-443507D01*
X-1393120Y-453019D01*
X-1388196Y-461548D01*
X-1381233Y-468511D01*
X-1372704Y-473435D01*
X-1363192Y-475984D01*
X-1353344D01*
X-1343831Y-473435D01*
X-1335303Y-468511D01*
X-1328339Y-461548D01*
X-1323415Y-453019D01*
X-1320866Y-443507D01*
Y-433659D01*
X-1323415Y-424146D01*
X-1328339Y-415618D01*
X-1335303Y-408654D01*
X-1343831Y-403730D01*
X-1353344Y-401181D01*
D02*
G37*
G36*
X-1453344D02*
X-1463192D01*
X-1472704Y-403730D01*
X-1481233Y-408654D01*
X-1488196Y-415618D01*
X-1493120Y-424146D01*
X-1495669Y-433659D01*
Y-443507D01*
X-1493120Y-453019D01*
X-1488196Y-461548D01*
X-1481233Y-468511D01*
X-1472704Y-473435D01*
X-1463192Y-475984D01*
X-1453344D01*
X-1443831Y-473435D01*
X-1435303Y-468511D01*
X-1428339Y-461548D01*
X-1423415Y-453019D01*
X-1420866Y-443507D01*
Y-433659D01*
X-1423415Y-424146D01*
X-1428339Y-415618D01*
X-1435303Y-408654D01*
X-1443831Y-403730D01*
X-1453344Y-401181D01*
D02*
G37*
G36*
X1036280Y-471045D02*
X1023622D01*
Y-491496D01*
X1051573D01*
Y-486339D01*
X1050409Y-480486D01*
X1047094Y-475524D01*
X1042132Y-472209D01*
X1036280Y-471045D01*
D02*
G37*
G36*
X1003937D02*
X991279D01*
X985427Y-472209D01*
X980465Y-475524D01*
X977150Y-480486D01*
X975986Y-486339D01*
Y-491496D01*
X1003937D01*
Y-471045D01*
D02*
G37*
G36*
X-773942Y-442567D02*
X-783271D01*
X-792283Y-444981D01*
X-800363Y-449646D01*
X-806960Y-456243D01*
X-811625Y-464323D01*
X-814039Y-473335D01*
Y-482664D01*
X-811625Y-491676D01*
X-806960Y-499756D01*
X-800363Y-506353D01*
X-792283Y-511018D01*
X-783271Y-513433D01*
X-773942D01*
X-764930Y-511018D01*
X-756850Y-506353D01*
X-750253Y-499756D01*
X-745588Y-491676D01*
X-743173Y-482664D01*
Y-473335D01*
X-745588Y-464323D01*
X-750253Y-456243D01*
X-756850Y-449646D01*
X-764930Y-444981D01*
X-773942Y-442567D01*
D02*
G37*
G36*
X-873942D02*
X-883271D01*
X-892283Y-444981D01*
X-900363Y-449646D01*
X-906960Y-456243D01*
X-911625Y-464323D01*
X-914039Y-473335D01*
Y-482664D01*
X-911625Y-491676D01*
X-906960Y-499756D01*
X-900363Y-506353D01*
X-892283Y-511018D01*
X-883271Y-513433D01*
X-873942D01*
X-864930Y-511018D01*
X-856850Y-506353D01*
X-850253Y-499756D01*
X-845588Y-491676D01*
X-843173Y-482664D01*
Y-473335D01*
X-845588Y-464323D01*
X-850253Y-456243D01*
X-856850Y-449646D01*
X-864930Y-444981D01*
X-873942Y-442567D01*
D02*
G37*
G36*
X880665Y-442567D02*
X871335D01*
X862323Y-444982D01*
X854244Y-449647D01*
X847647Y-456244D01*
X842982Y-464323D01*
X840567Y-473335D01*
Y-482665D01*
X842982Y-491677D01*
X847647Y-499756D01*
X854244Y-506353D01*
X862323Y-511018D01*
X871335Y-513433D01*
X880665D01*
X889677Y-511018D01*
X897756Y-506353D01*
X904353Y-499756D01*
X909018Y-491677D01*
X911433Y-482665D01*
Y-473335D01*
X909018Y-464323D01*
X904353Y-456244D01*
X897756Y-449647D01*
X889677Y-444982D01*
X880665Y-442567D01*
D02*
G37*
G36*
X1051573Y-511181D02*
X1023622D01*
Y-531633D01*
X1036280D01*
X1042132Y-530468D01*
X1047094Y-527153D01*
X1050409Y-522191D01*
X1051573Y-516339D01*
Y-511181D01*
D02*
G37*
G36*
X1003937D02*
X975986D01*
Y-516339D01*
X977150Y-522191D01*
X980465Y-527153D01*
X985427Y-530468D01*
X991279Y-531633D01*
X1003937D01*
Y-511181D01*
D02*
G37*
G36*
X1289370Y-510859D02*
Y-541339D01*
X1319850D01*
X1318196Y-535164D01*
X1312733Y-525702D01*
X1305007Y-517976D01*
X1295544Y-512513D01*
X1289370Y-510859D01*
D02*
G37*
G36*
X1269685D02*
X1263511Y-512513D01*
X1254048Y-517976D01*
X1246322Y-525702D01*
X1240860Y-535164D01*
X1239205Y-541339D01*
X1269685D01*
Y-510859D01*
D02*
G37*
G36*
X246656Y-501181D02*
X236808D01*
X227296Y-503730D01*
X218767Y-508654D01*
X211804Y-515618D01*
X206880Y-524146D01*
X204331Y-533659D01*
Y-543507D01*
X206880Y-553019D01*
X211804Y-561548D01*
X218767Y-568511D01*
X227296Y-573435D01*
X236808Y-575984D01*
X246656D01*
X256169Y-573435D01*
X264697Y-568511D01*
X271661Y-561548D01*
X276585Y-553019D01*
X279134Y-543507D01*
Y-533659D01*
X276585Y-524146D01*
X271661Y-515618D01*
X264697Y-508654D01*
X256169Y-503730D01*
X246656Y-501181D01*
D02*
G37*
G36*
X-1353344D02*
X-1363192D01*
X-1372704Y-503730D01*
X-1381233Y-508654D01*
X-1388196Y-515618D01*
X-1393120Y-524146D01*
X-1395669Y-533659D01*
Y-543507D01*
X-1393120Y-553019D01*
X-1388196Y-561548D01*
X-1381233Y-568511D01*
X-1372704Y-573435D01*
X-1363192Y-575984D01*
X-1353344D01*
X-1343831Y-573435D01*
X-1335303Y-568511D01*
X-1328339Y-561548D01*
X-1323415Y-553019D01*
X-1320866Y-543507D01*
Y-533659D01*
X-1323415Y-524146D01*
X-1328339Y-515618D01*
X-1335303Y-508654D01*
X-1343831Y-503730D01*
X-1353344Y-501181D01*
D02*
G37*
G36*
X-1453344D02*
X-1463192D01*
X-1472704Y-503730D01*
X-1481233Y-508654D01*
X-1488196Y-515618D01*
X-1493120Y-524146D01*
X-1495669Y-533659D01*
Y-543507D01*
X-1493120Y-553019D01*
X-1488196Y-561548D01*
X-1481233Y-568511D01*
X-1472704Y-573435D01*
X-1463192Y-575984D01*
X-1453344D01*
X-1443831Y-573435D01*
X-1435303Y-568511D01*
X-1428339Y-561548D01*
X-1423415Y-553019D01*
X-1420866Y-543507D01*
Y-533659D01*
X-1423415Y-524146D01*
X-1428339Y-515618D01*
X-1435303Y-508654D01*
X-1443831Y-503730D01*
X-1453344Y-501181D01*
D02*
G37*
G36*
X1218898Y-511811D02*
X1140158D01*
Y-590551D01*
X1218898D01*
Y-511811D01*
D02*
G37*
G36*
X1319850Y-561024D02*
X1289370D01*
Y-591504D01*
X1295544Y-589849D01*
X1305007Y-584386D01*
X1312733Y-576660D01*
X1318196Y-567198D01*
X1319850Y-561024D01*
D02*
G37*
G36*
X1269685D02*
X1239205D01*
X1240860Y-567198D01*
X1246322Y-576660D01*
X1254048Y-584386D01*
X1263511Y-589849D01*
X1269685Y-591504D01*
Y-561024D01*
D02*
G37*
G36*
X-773942Y-542567D02*
X-783271D01*
X-792283Y-544981D01*
X-800363Y-549646D01*
X-806960Y-556243D01*
X-811625Y-564323D01*
X-814039Y-573335D01*
Y-582664D01*
X-811625Y-591676D01*
X-806960Y-599756D01*
X-800363Y-606353D01*
X-792283Y-611018D01*
X-783271Y-613433D01*
X-773942D01*
X-764930Y-611018D01*
X-756850Y-606353D01*
X-750253Y-599756D01*
X-745588Y-591676D01*
X-743173Y-582664D01*
Y-573335D01*
X-745588Y-564323D01*
X-750253Y-556243D01*
X-756850Y-549646D01*
X-764930Y-544981D01*
X-773942Y-542567D01*
D02*
G37*
G36*
X-873942D02*
X-883271D01*
X-892283Y-544981D01*
X-900363Y-549646D01*
X-906960Y-556243D01*
X-911625Y-564323D01*
X-914039Y-573335D01*
Y-582664D01*
X-911625Y-591676D01*
X-906960Y-599756D01*
X-900363Y-606353D01*
X-892283Y-611018D01*
X-883271Y-613433D01*
X-873942D01*
X-864930Y-611018D01*
X-856850Y-606353D01*
X-850253Y-599756D01*
X-845588Y-591676D01*
X-843173Y-582664D01*
Y-573335D01*
X-845588Y-564323D01*
X-850253Y-556243D01*
X-856850Y-549646D01*
X-864930Y-544981D01*
X-873942Y-542567D01*
D02*
G37*
G36*
X880665Y-542567D02*
X871335D01*
X862323Y-544982D01*
X854244Y-549647D01*
X847647Y-556244D01*
X842982Y-564323D01*
X840567Y-573335D01*
Y-582665D01*
X842982Y-591677D01*
X847647Y-599756D01*
X854244Y-606353D01*
X862323Y-611018D01*
X871335Y-613433D01*
X880665D01*
X889677Y-611018D01*
X897756Y-606353D01*
X904353Y-599756D01*
X909018Y-591677D01*
X911433Y-582665D01*
Y-573335D01*
X909018Y-564323D01*
X904353Y-556244D01*
X897756Y-549647D01*
X889677Y-544982D01*
X880665Y-542567D01*
D02*
G37*
G36*
X1036280Y-553212D02*
X991279D01*
X986256Y-554212D01*
X981998Y-557057D01*
X979153Y-561315D01*
X978153Y-566339D01*
Y-591019D01*
X978058Y-591496D01*
Y-612132D01*
X977001Y-613189D01*
X976687D01*
X969678Y-615067D01*
X963393Y-618695D01*
X958262Y-623826D01*
X954634Y-630111D01*
X952756Y-637120D01*
Y-644376D01*
X954634Y-651385D01*
X958262Y-657670D01*
X963393Y-662801D01*
X969678Y-666429D01*
X976687Y-668307D01*
X983943D01*
X990952Y-666429D01*
X997237Y-662801D01*
X1002368Y-657670D01*
X1005996Y-651385D01*
X1007874Y-644376D01*
Y-637120D01*
X1007090Y-634192D01*
X1008895Y-632387D01*
X1012811Y-626527D01*
X1014186Y-619614D01*
Y-609465D01*
X1036280D01*
X1041303Y-608466D01*
X1045561Y-605620D01*
X1048407Y-601362D01*
X1049406Y-596339D01*
Y-566339D01*
X1048407Y-561315D01*
X1045561Y-557057D01*
X1041303Y-554212D01*
X1036280Y-553212D01*
D02*
G37*
G36*
X-1353344Y-601181D02*
X-1363192D01*
X-1372704Y-603730D01*
X-1381233Y-608654D01*
X-1388196Y-615618D01*
X-1393120Y-624146D01*
X-1395669Y-633659D01*
Y-643507D01*
X-1393120Y-653019D01*
X-1388196Y-661548D01*
X-1381233Y-668511D01*
X-1372704Y-673435D01*
X-1363192Y-675984D01*
X-1353344D01*
X-1343831Y-673435D01*
X-1335303Y-668511D01*
X-1328339Y-661548D01*
X-1323415Y-653019D01*
X-1320866Y-643507D01*
Y-633659D01*
X-1323415Y-624146D01*
X-1328339Y-615618D01*
X-1335303Y-608654D01*
X-1343831Y-603730D01*
X-1353344Y-601181D01*
D02*
G37*
G36*
X-1453344D02*
X-1463192D01*
X-1472704Y-603730D01*
X-1481233Y-608654D01*
X-1488196Y-615618D01*
X-1493120Y-624146D01*
X-1495669Y-633659D01*
Y-643507D01*
X-1493120Y-653019D01*
X-1488196Y-661548D01*
X-1481233Y-668511D01*
X-1472704Y-673435D01*
X-1463192Y-675984D01*
X-1453344D01*
X-1443831Y-673435D01*
X-1435303Y-668511D01*
X-1428339Y-661548D01*
X-1423415Y-653019D01*
X-1420866Y-643507D01*
Y-633659D01*
X-1423415Y-624146D01*
X-1428339Y-615618D01*
X-1435303Y-608654D01*
X-1443831Y-603730D01*
X-1453344Y-601181D01*
D02*
G37*
G36*
X-773942Y-642567D02*
X-783271D01*
X-792283Y-644981D01*
X-800363Y-649646D01*
X-806960Y-656243D01*
X-811625Y-664323D01*
X-814039Y-673335D01*
Y-682664D01*
X-811625Y-691676D01*
X-806960Y-699756D01*
X-800363Y-706353D01*
X-792283Y-711018D01*
X-783271Y-713433D01*
X-773942D01*
X-764930Y-711018D01*
X-756850Y-706353D01*
X-750253Y-699756D01*
X-745588Y-691676D01*
X-743173Y-682664D01*
Y-673335D01*
X-745588Y-664323D01*
X-750253Y-656243D01*
X-756850Y-649646D01*
X-764930Y-644981D01*
X-773942Y-642567D01*
D02*
G37*
G36*
X-873942D02*
X-883271D01*
X-892283Y-644981D01*
X-900363Y-649646D01*
X-906960Y-656243D01*
X-911625Y-664323D01*
X-914039Y-673335D01*
Y-682664D01*
X-911625Y-691676D01*
X-906960Y-699756D01*
X-900363Y-706353D01*
X-892283Y-711018D01*
X-883271Y-713433D01*
X-873942D01*
X-864930Y-711018D01*
X-856850Y-706353D01*
X-850253Y-699756D01*
X-845588Y-691676D01*
X-843173Y-682664D01*
Y-673335D01*
X-845588Y-664323D01*
X-850253Y-656243D01*
X-856850Y-649646D01*
X-864930Y-644981D01*
X-873942Y-642567D01*
D02*
G37*
G36*
X880665Y-642567D02*
X871335D01*
X862323Y-644982D01*
X854244Y-649647D01*
X847647Y-656244D01*
X842982Y-664323D01*
X840567Y-673335D01*
Y-682665D01*
X842982Y-691677D01*
X847647Y-699756D01*
X854244Y-706353D01*
X862323Y-711018D01*
X871335Y-713433D01*
X880665D01*
X889677Y-711018D01*
X897756Y-706353D01*
X904353Y-699756D01*
X909018Y-691677D01*
X911433Y-682665D01*
Y-673335D01*
X909018Y-664323D01*
X904353Y-656244D01*
X897756Y-649647D01*
X889677Y-644982D01*
X880665Y-642567D01*
D02*
G37*
G36*
X-1353344Y-701181D02*
X-1363192D01*
X-1372704Y-703730D01*
X-1381233Y-708654D01*
X-1388196Y-715618D01*
X-1393120Y-724146D01*
X-1395669Y-733659D01*
Y-743507D01*
X-1393120Y-753019D01*
X-1388196Y-761548D01*
X-1381233Y-768511D01*
X-1372704Y-773435D01*
X-1363192Y-775984D01*
X-1353344D01*
X-1343831Y-773435D01*
X-1335303Y-768511D01*
X-1328339Y-761548D01*
X-1323415Y-753019D01*
X-1320866Y-743507D01*
Y-733659D01*
X-1323415Y-724146D01*
X-1328339Y-715618D01*
X-1335303Y-708654D01*
X-1343831Y-703730D01*
X-1353344Y-701181D01*
D02*
G37*
G36*
X-1453344D02*
X-1463192D01*
X-1472704Y-703730D01*
X-1481233Y-708654D01*
X-1488196Y-715618D01*
X-1493120Y-724146D01*
X-1495669Y-733659D01*
Y-743507D01*
X-1493120Y-753019D01*
X-1488196Y-761548D01*
X-1481233Y-768511D01*
X-1472704Y-773435D01*
X-1463192Y-775984D01*
X-1453344D01*
X-1443831Y-773435D01*
X-1435303Y-768511D01*
X-1428339Y-761548D01*
X-1423415Y-753019D01*
X-1420866Y-743507D01*
Y-733659D01*
X-1423415Y-724146D01*
X-1428339Y-715618D01*
X-1435303Y-708654D01*
X-1443831Y-703730D01*
X-1453344Y-701181D01*
D02*
G37*
G36*
X-773942Y-742567D02*
X-783271D01*
X-792283Y-744981D01*
X-800363Y-749646D01*
X-806960Y-756243D01*
X-811625Y-764323D01*
X-814039Y-773335D01*
Y-782664D01*
X-811625Y-791676D01*
X-806960Y-799756D01*
X-800363Y-806353D01*
X-792283Y-811018D01*
X-783271Y-813433D01*
X-773942D01*
X-764930Y-811018D01*
X-756850Y-806353D01*
X-750253Y-799756D01*
X-745588Y-791676D01*
X-743173Y-782664D01*
Y-773335D01*
X-745588Y-764323D01*
X-750253Y-756243D01*
X-756850Y-749646D01*
X-764930Y-744981D01*
X-773942Y-742567D01*
D02*
G37*
G36*
X-873942D02*
X-883271D01*
X-892283Y-744981D01*
X-900363Y-749646D01*
X-906960Y-756243D01*
X-911625Y-764323D01*
X-914039Y-773335D01*
Y-782664D01*
X-911625Y-791676D01*
X-906960Y-799756D01*
X-900363Y-806353D01*
X-892283Y-811018D01*
X-883271Y-813433D01*
X-873942D01*
X-864930Y-811018D01*
X-856850Y-806353D01*
X-850253Y-799756D01*
X-845588Y-791676D01*
X-843173Y-782664D01*
Y-773335D01*
X-845588Y-764323D01*
X-850253Y-756243D01*
X-856850Y-749646D01*
X-864930Y-744981D01*
X-873942Y-742567D01*
D02*
G37*
G36*
X880665Y-742567D02*
X871335D01*
X862323Y-744982D01*
X854244Y-749647D01*
X847647Y-756244D01*
X842982Y-764323D01*
X840567Y-773335D01*
Y-782665D01*
X842982Y-791677D01*
X847647Y-799756D01*
X854244Y-806353D01*
X862323Y-811018D01*
X871335Y-813433D01*
X880665D01*
X889677Y-811018D01*
X897756Y-806353D01*
X904353Y-799756D01*
X909018Y-791677D01*
X911433Y-782665D01*
Y-773335D01*
X909018Y-764323D01*
X904353Y-756244D01*
X897756Y-749647D01*
X889677Y-744982D01*
X880665Y-742567D01*
D02*
G37*
G36*
X1276811Y-825471D02*
Y-861649D01*
X1312989D01*
X1310766Y-853350D01*
X1304578Y-842633D01*
X1295827Y-833882D01*
X1285110Y-827694D01*
X1276811Y-825471D01*
D02*
G37*
G36*
X1257126Y-825471D02*
X1248827Y-827694D01*
X1238110Y-833882D01*
X1229359Y-842633D01*
X1223171Y-853350D01*
X1220948Y-861649D01*
X1257126D01*
Y-825471D01*
D02*
G37*
G36*
X-1353344Y-801181D02*
X-1363192D01*
X-1372704Y-803730D01*
X-1381233Y-808654D01*
X-1388196Y-815618D01*
X-1393120Y-824146D01*
X-1395669Y-833659D01*
Y-843507D01*
X-1393120Y-853019D01*
X-1388196Y-861548D01*
X-1381233Y-868511D01*
X-1372704Y-873435D01*
X-1363192Y-875984D01*
X-1353344D01*
X-1343831Y-873435D01*
X-1335303Y-868511D01*
X-1328339Y-861548D01*
X-1323415Y-853019D01*
X-1320866Y-843507D01*
Y-833659D01*
X-1323415Y-824146D01*
X-1328339Y-815618D01*
X-1335303Y-808654D01*
X-1343831Y-803730D01*
X-1353344Y-801181D01*
D02*
G37*
G36*
X-1453344D02*
X-1463192D01*
X-1472704Y-803730D01*
X-1481233Y-808654D01*
X-1488196Y-815618D01*
X-1493120Y-824146D01*
X-1495669Y-833659D01*
Y-843507D01*
X-1493120Y-853019D01*
X-1488196Y-861548D01*
X-1481233Y-868511D01*
X-1472704Y-873435D01*
X-1463192Y-875984D01*
X-1453344D01*
X-1443831Y-873435D01*
X-1435303Y-868511D01*
X-1428339Y-861548D01*
X-1423415Y-853019D01*
X-1420866Y-843507D01*
Y-833659D01*
X-1423415Y-824146D01*
X-1428339Y-815618D01*
X-1435303Y-808654D01*
X-1443831Y-803730D01*
X-1453344Y-801181D01*
D02*
G37*
G36*
X-773942Y-842567D02*
X-783271D01*
X-792283Y-844981D01*
X-800363Y-849646D01*
X-806960Y-856243D01*
X-811625Y-864323D01*
X-814039Y-873335D01*
Y-882664D01*
X-811625Y-891676D01*
X-806960Y-899756D01*
X-800363Y-906353D01*
X-792283Y-911018D01*
X-783271Y-913433D01*
X-773942D01*
X-764930Y-911018D01*
X-756850Y-906353D01*
X-750253Y-899756D01*
X-745588Y-891676D01*
X-743173Y-882664D01*
Y-873335D01*
X-745588Y-864323D01*
X-750253Y-856243D01*
X-756850Y-849646D01*
X-764930Y-844981D01*
X-773942Y-842567D01*
D02*
G37*
G36*
X-873942D02*
X-883271D01*
X-892283Y-844981D01*
X-900363Y-849646D01*
X-906960Y-856243D01*
X-911625Y-864323D01*
X-914039Y-873335D01*
Y-882664D01*
X-911625Y-891676D01*
X-906960Y-899756D01*
X-900363Y-906353D01*
X-892283Y-911018D01*
X-883271Y-913433D01*
X-873942D01*
X-864930Y-911018D01*
X-856850Y-906353D01*
X-850253Y-899756D01*
X-845588Y-891676D01*
X-843173Y-882664D01*
Y-873335D01*
X-845588Y-864323D01*
X-850253Y-856243D01*
X-856850Y-849646D01*
X-864930Y-844981D01*
X-873942Y-842567D01*
D02*
G37*
G36*
X880665Y-842567D02*
X871335D01*
X862323Y-844982D01*
X854244Y-849647D01*
X847647Y-856244D01*
X842982Y-864323D01*
X840567Y-873335D01*
Y-882665D01*
X842982Y-891677D01*
X847647Y-899756D01*
X854244Y-906353D01*
X862323Y-911018D01*
X871335Y-913433D01*
X880665D01*
X889677Y-911018D01*
X897756Y-906353D01*
X904353Y-899756D01*
X909018Y-891677D01*
X911433Y-882665D01*
Y-873335D01*
X909018Y-864323D01*
X904353Y-856244D01*
X897756Y-849647D01*
X889677Y-844982D01*
X880665Y-842567D01*
D02*
G37*
G36*
X780665D02*
X771335D01*
X762323Y-844982D01*
X754244Y-849647D01*
X747647Y-856244D01*
X742982Y-864323D01*
X740567Y-873335D01*
Y-882665D01*
X742982Y-891677D01*
X747647Y-899756D01*
X754244Y-906353D01*
X762323Y-911018D01*
X771335Y-913433D01*
X780665D01*
X789677Y-911018D01*
X797756Y-906353D01*
X804353Y-899756D01*
X809018Y-891677D01*
X811433Y-882665D01*
Y-873335D01*
X809018Y-864323D01*
X804353Y-856244D01*
X797756Y-849647D01*
X789677Y-844982D01*
X780665Y-842567D01*
D02*
G37*
G36*
X1472876Y-826617D02*
X1461061D01*
X1449648Y-829675D01*
X1439415Y-835583D01*
X1431060Y-843938D01*
X1425153Y-854171D01*
X1422094Y-865583D01*
Y-877399D01*
X1425153Y-888812D01*
X1431060Y-899045D01*
X1439415Y-907399D01*
X1449648Y-913307D01*
X1461061Y-916365D01*
X1472876D01*
X1484289Y-913307D01*
X1494522Y-907399D01*
X1502877Y-899045D01*
X1508784Y-888812D01*
X1511842Y-877399D01*
Y-865583D01*
X1508784Y-854171D01*
X1502877Y-843938D01*
X1494522Y-835583D01*
X1484289Y-829675D01*
X1472876Y-826617D01*
D02*
G37*
G36*
X1372876D02*
X1361061D01*
X1349648Y-829675D01*
X1339415Y-835583D01*
X1331060Y-843938D01*
X1325153Y-854171D01*
X1322094Y-865583D01*
Y-877399D01*
X1325153Y-888812D01*
X1331060Y-899045D01*
X1339415Y-907399D01*
X1349648Y-913307D01*
X1361061Y-916365D01*
X1372876D01*
X1384289Y-913307D01*
X1394522Y-907399D01*
X1402877Y-899045D01*
X1408784Y-888812D01*
X1411842Y-877399D01*
Y-865583D01*
X1408784Y-854171D01*
X1402877Y-843938D01*
X1394522Y-835583D01*
X1384289Y-829675D01*
X1372876Y-826617D01*
D02*
G37*
G36*
X1072876D02*
X1061061D01*
X1049648Y-829675D01*
X1039415Y-835583D01*
X1031060Y-843938D01*
X1025153Y-854171D01*
X1022095Y-865583D01*
Y-877399D01*
X1025153Y-888812D01*
X1031060Y-899045D01*
X1039415Y-907399D01*
X1049648Y-913307D01*
X1061061Y-916365D01*
X1072876D01*
X1084289Y-913307D01*
X1094522Y-907399D01*
X1102877Y-899045D01*
X1108784Y-888812D01*
X1111842Y-877399D01*
Y-865583D01*
X1108784Y-854171D01*
X1102877Y-843938D01*
X1094522Y-835583D01*
X1084289Y-829675D01*
X1072876Y-826617D01*
D02*
G37*
G36*
X1257126Y-881334D02*
X1220948D01*
X1223171Y-889633D01*
X1229359Y-900350D01*
X1238110Y-909101D01*
X1248827Y-915288D01*
X1257126Y-917512D01*
Y-881334D01*
D02*
G37*
G36*
X1312989D02*
X1276811D01*
Y-917512D01*
X1285110Y-915288D01*
X1295827Y-909101D01*
X1304578Y-900350D01*
X1310766Y-889633D01*
X1312989Y-881334D01*
D02*
G37*
G36*
X-1353344Y-901181D02*
X-1363192D01*
X-1372704Y-903730D01*
X-1381233Y-908654D01*
X-1388196Y-915618D01*
X-1393120Y-924146D01*
X-1395669Y-933659D01*
Y-943507D01*
X-1393120Y-953019D01*
X-1388196Y-961548D01*
X-1381233Y-968511D01*
X-1372704Y-973435D01*
X-1363192Y-975984D01*
X-1353344D01*
X-1343831Y-973435D01*
X-1335303Y-968511D01*
X-1328339Y-961548D01*
X-1323415Y-953019D01*
X-1320866Y-943507D01*
Y-933659D01*
X-1323415Y-924146D01*
X-1328339Y-915618D01*
X-1335303Y-908654D01*
X-1343831Y-903730D01*
X-1353344Y-901181D01*
D02*
G37*
G36*
X-1453344D02*
X-1463192D01*
X-1472704Y-903730D01*
X-1481233Y-908654D01*
X-1488196Y-915618D01*
X-1493120Y-924146D01*
X-1495669Y-933659D01*
Y-943507D01*
X-1493120Y-953019D01*
X-1488196Y-961548D01*
X-1481233Y-968511D01*
X-1472704Y-973435D01*
X-1463192Y-975984D01*
X-1453344D01*
X-1443831Y-973435D01*
X-1435303Y-968511D01*
X-1428339Y-961548D01*
X-1423415Y-953019D01*
X-1420866Y-943507D01*
Y-933659D01*
X-1423415Y-924146D01*
X-1428339Y-915618D01*
X-1435303Y-908654D01*
X-1443831Y-903730D01*
X-1453344Y-901181D01*
D02*
G37*
G36*
X-773942Y-942567D02*
X-783271D01*
X-792283Y-944981D01*
X-800363Y-949646D01*
X-806960Y-956243D01*
X-811625Y-964323D01*
X-814039Y-973335D01*
Y-982664D01*
X-811625Y-991676D01*
X-806960Y-999756D01*
X-800363Y-1006353D01*
X-792283Y-1011018D01*
X-783271Y-1013433D01*
X-773942D01*
X-764930Y-1011018D01*
X-756850Y-1006353D01*
X-750253Y-999756D01*
X-745588Y-991676D01*
X-743173Y-982664D01*
Y-973335D01*
X-745588Y-964323D01*
X-750253Y-956243D01*
X-756850Y-949646D01*
X-764930Y-944981D01*
X-773942Y-942567D01*
D02*
G37*
G36*
X-873942D02*
X-883271D01*
X-892283Y-944981D01*
X-900363Y-949646D01*
X-906960Y-956243D01*
X-911625Y-964323D01*
X-914039Y-973335D01*
Y-982664D01*
X-911625Y-991676D01*
X-906960Y-999756D01*
X-900363Y-1006353D01*
X-892283Y-1011018D01*
X-883271Y-1013433D01*
X-873942D01*
X-864930Y-1011018D01*
X-856850Y-1006353D01*
X-850253Y-999756D01*
X-845588Y-991676D01*
X-843173Y-982664D01*
Y-973335D01*
X-845588Y-964323D01*
X-850253Y-956243D01*
X-856850Y-949646D01*
X-864930Y-944981D01*
X-873942Y-942567D01*
D02*
G37*
G36*
X880665Y-942567D02*
X871335D01*
X862323Y-944982D01*
X854244Y-949647D01*
X847647Y-956244D01*
X842982Y-964323D01*
X840567Y-973335D01*
Y-982665D01*
X842982Y-991677D01*
X847647Y-999756D01*
X854244Y-1006353D01*
X862323Y-1011018D01*
X871335Y-1013433D01*
X880665D01*
X889677Y-1011018D01*
X897756Y-1006353D01*
X904353Y-999756D01*
X909018Y-991677D01*
X911433Y-982665D01*
Y-973335D01*
X909018Y-964323D01*
X904353Y-956244D01*
X897756Y-949647D01*
X889677Y-944982D01*
X880665Y-942567D01*
D02*
G37*
G36*
X780665D02*
X771335D01*
X762323Y-944982D01*
X754244Y-949647D01*
X747647Y-956244D01*
X742982Y-964323D01*
X740567Y-973335D01*
Y-982665D01*
X742982Y-991677D01*
X747647Y-999756D01*
X754244Y-1006353D01*
X762323Y-1011018D01*
X771335Y-1013433D01*
X780665D01*
X789677Y-1011018D01*
X797756Y-1006353D01*
X804353Y-999756D01*
X809018Y-991677D01*
X811433Y-982665D01*
Y-973335D01*
X809018Y-964323D01*
X804353Y-956244D01*
X797756Y-949647D01*
X789677Y-944982D01*
X780665Y-942567D01*
D02*
G37*
G36*
X-773942Y-1042567D02*
X-783271D01*
X-792283Y-1044981D01*
X-800363Y-1049646D01*
X-806960Y-1056243D01*
X-811625Y-1064323D01*
X-814039Y-1073335D01*
Y-1082665D01*
X-811625Y-1091676D01*
X-806960Y-1099756D01*
X-800363Y-1106353D01*
X-792283Y-1111018D01*
X-783271Y-1113433D01*
X-773942D01*
X-764930Y-1111018D01*
X-756850Y-1106353D01*
X-750253Y-1099756D01*
X-745588Y-1091676D01*
X-743173Y-1082665D01*
Y-1073335D01*
X-745588Y-1064323D01*
X-750253Y-1056243D01*
X-756850Y-1049646D01*
X-764930Y-1044981D01*
X-773942Y-1042567D01*
D02*
G37*
G36*
X-873942D02*
X-883271D01*
X-892283Y-1044981D01*
X-900363Y-1049646D01*
X-906960Y-1056243D01*
X-911625Y-1064323D01*
X-914039Y-1073335D01*
Y-1082665D01*
X-911625Y-1091676D01*
X-906960Y-1099756D01*
X-900363Y-1106353D01*
X-892283Y-1111018D01*
X-883271Y-1113433D01*
X-873942D01*
X-864930Y-1111018D01*
X-856850Y-1106353D01*
X-850253Y-1099756D01*
X-845588Y-1091676D01*
X-843173Y-1082665D01*
Y-1073335D01*
X-845588Y-1064323D01*
X-850253Y-1056243D01*
X-856850Y-1049646D01*
X-864930Y-1044981D01*
X-873942Y-1042567D01*
D02*
G37*
G36*
X880665Y-1042567D02*
X871335D01*
X862323Y-1044982D01*
X854244Y-1049647D01*
X847647Y-1056244D01*
X842982Y-1064323D01*
X840567Y-1073335D01*
Y-1082665D01*
X842982Y-1091677D01*
X847647Y-1099756D01*
X854244Y-1106353D01*
X862323Y-1111018D01*
X871335Y-1113433D01*
X880665D01*
X889677Y-1111018D01*
X897756Y-1106353D01*
X904353Y-1099756D01*
X909018Y-1091677D01*
X911433Y-1082665D01*
Y-1073335D01*
X909018Y-1064323D01*
X904353Y-1056244D01*
X897756Y-1049647D01*
X889677Y-1044982D01*
X880665Y-1042567D01*
D02*
G37*
G36*
X780665D02*
X771335D01*
X762323Y-1044982D01*
X754244Y-1049647D01*
X747647Y-1056244D01*
X742982Y-1064323D01*
X740567Y-1073335D01*
Y-1082665D01*
X742982Y-1091677D01*
X747647Y-1099756D01*
X754244Y-1106353D01*
X762323Y-1111018D01*
X771335Y-1113433D01*
X780665D01*
X789677Y-1111018D01*
X797756Y-1106353D01*
X804353Y-1099756D01*
X809018Y-1091677D01*
X811433Y-1082665D01*
Y-1073335D01*
X809018Y-1064323D01*
X804353Y-1056244D01*
X797756Y-1049647D01*
X789677Y-1044982D01*
X780665Y-1042567D01*
D02*
G37*
G36*
X-145278Y-994685D02*
X-153934D01*
X-162295Y-996925D01*
X-169791Y-1001253D01*
X-175912Y-1007374D01*
X-180240Y-1014870D01*
X-182480Y-1023231D01*
Y-1031887D01*
X-180240Y-1040248D01*
X-175912Y-1047744D01*
X-169791Y-1053865D01*
X-162295Y-1058193D01*
X-162124Y-1058239D01*
Y-1071891D01*
X-163864Y-1072357D01*
X-174097Y-1078265D01*
X-182451Y-1086620D01*
X-188359Y-1096852D01*
X-191417Y-1108265D01*
Y-1120081D01*
X-188359Y-1131494D01*
X-182451Y-1141726D01*
X-174097Y-1150081D01*
X-163864Y-1155989D01*
X-152451Y-1159047D01*
X-140636D01*
X-129223Y-1155989D01*
X-118990Y-1150081D01*
X-110635Y-1141726D01*
X-104727Y-1131494D01*
X-101669Y-1120081D01*
Y-1108265D01*
X-104727Y-1096852D01*
X-110635Y-1086620D01*
X-118990Y-1078265D01*
X-129223Y-1072357D01*
X-134025Y-1071070D01*
Y-1056523D01*
X-129421Y-1053865D01*
X-123300Y-1047744D01*
X-118973Y-1040248D01*
X-116732Y-1031887D01*
Y-1023231D01*
X-118973Y-1014870D01*
X-123300Y-1007374D01*
X-129421Y-1001253D01*
X-136917Y-996925D01*
X-145278Y-994685D01*
D02*
G37*
G36*
X-251578D02*
X-260233D01*
X-268594Y-996925D01*
X-276091Y-1001253D01*
X-282211Y-1007374D01*
X-286539Y-1014870D01*
X-288779Y-1023231D01*
Y-1031887D01*
X-286539Y-1040248D01*
X-282211Y-1047744D01*
X-276091Y-1053865D01*
X-272274Y-1056069D01*
Y-1070859D01*
X-277864Y-1072357D01*
X-288097Y-1078265D01*
X-296451Y-1086620D01*
X-302359Y-1096852D01*
X-305417Y-1108265D01*
Y-1120081D01*
X-302359Y-1131494D01*
X-296451Y-1141726D01*
X-288097Y-1150081D01*
X-277864Y-1155989D01*
X-266451Y-1159047D01*
X-254636D01*
X-243223Y-1155989D01*
X-232990Y-1150081D01*
X-224635Y-1141726D01*
X-218727Y-1131494D01*
X-215669Y-1120081D01*
Y-1108265D01*
X-218727Y-1096852D01*
X-224635Y-1086620D01*
X-232990Y-1078265D01*
X-243223Y-1072357D01*
X-244175Y-1072102D01*
Y-1058450D01*
X-243217Y-1058193D01*
X-235720Y-1053865D01*
X-229600Y-1047744D01*
X-225272Y-1040248D01*
X-223031Y-1031887D01*
Y-1023231D01*
X-225272Y-1014870D01*
X-229600Y-1007374D01*
X-235720Y-1001253D01*
X-243217Y-996925D01*
X-251578Y-994685D01*
D02*
G37*
G36*
X-773942Y-1142567D02*
X-783271D01*
X-792283Y-1144981D01*
X-800363Y-1149646D01*
X-806960Y-1156243D01*
X-811625Y-1164323D01*
X-814039Y-1173335D01*
Y-1182665D01*
X-811625Y-1191676D01*
X-806960Y-1199756D01*
X-800363Y-1206353D01*
X-792283Y-1211018D01*
X-783271Y-1213433D01*
X-773942D01*
X-764930Y-1211018D01*
X-756850Y-1206353D01*
X-750253Y-1199756D01*
X-745588Y-1191676D01*
X-743173Y-1182665D01*
Y-1173335D01*
X-745588Y-1164323D01*
X-750253Y-1156243D01*
X-756850Y-1149646D01*
X-764930Y-1144981D01*
X-773942Y-1142567D01*
D02*
G37*
G36*
X-873942D02*
X-883271D01*
X-892283Y-1144981D01*
X-900363Y-1149646D01*
X-906960Y-1156243D01*
X-911625Y-1164323D01*
X-914039Y-1173335D01*
Y-1182665D01*
X-911625Y-1191676D01*
X-906960Y-1199756D01*
X-900363Y-1206353D01*
X-892283Y-1211018D01*
X-883271Y-1213433D01*
X-873942D01*
X-864930Y-1211018D01*
X-856850Y-1206353D01*
X-850253Y-1199756D01*
X-845588Y-1191676D01*
X-843173Y-1182665D01*
Y-1173335D01*
X-845588Y-1164323D01*
X-850253Y-1156243D01*
X-856850Y-1149646D01*
X-864930Y-1144981D01*
X-873942Y-1142567D01*
D02*
G37*
G36*
X880665Y-1142567D02*
X871335D01*
X862323Y-1144982D01*
X854244Y-1149647D01*
X847647Y-1156244D01*
X842982Y-1164323D01*
X840567Y-1173335D01*
Y-1182665D01*
X842982Y-1191677D01*
X847647Y-1199756D01*
X854244Y-1206353D01*
X862323Y-1211018D01*
X871335Y-1213433D01*
X880665D01*
X889677Y-1211018D01*
X897756Y-1206353D01*
X904353Y-1199756D01*
X909018Y-1191677D01*
X911433Y-1182665D01*
Y-1173335D01*
X909018Y-1164323D01*
X904353Y-1156244D01*
X897756Y-1149647D01*
X889677Y-1144982D01*
X880665Y-1142567D01*
D02*
G37*
G36*
X780665D02*
X771335D01*
X762323Y-1144982D01*
X754244Y-1149647D01*
X747647Y-1156244D01*
X742982Y-1164323D01*
X740567Y-1173335D01*
Y-1182665D01*
X742982Y-1191677D01*
X747647Y-1199756D01*
X754244Y-1206353D01*
X762323Y-1211018D01*
X771335Y-1213433D01*
X780665D01*
X789677Y-1211018D01*
X797756Y-1206353D01*
X804353Y-1199756D01*
X809018Y-1191677D01*
X811433Y-1182665D01*
Y-1173335D01*
X809018Y-1164323D01*
X804353Y-1156244D01*
X797756Y-1149647D01*
X789677Y-1144982D01*
X780665Y-1142567D01*
D02*
G37*
G36*
X-250000Y-1186263D02*
Y-1222441D01*
X-213822D01*
X-216045Y-1214142D01*
X-222233Y-1203425D01*
X-230984Y-1194674D01*
X-241701Y-1188486D01*
X-250000Y-1186263D01*
D02*
G37*
G36*
X-269685Y-1186263D02*
X-277984Y-1188486D01*
X-288701Y-1194674D01*
X-297452Y-1203425D01*
X-303640Y-1214142D01*
X-305863Y-1222441D01*
X-269685D01*
Y-1186263D01*
D02*
G37*
G36*
X-868764Y-1241753D02*
Y-1268157D01*
X-842360D01*
X-843607Y-1263503D01*
X-848552Y-1254938D01*
X-855544Y-1247945D01*
X-864109Y-1243000D01*
X-868764Y-1241753D01*
D02*
G37*
G36*
X-888449Y-1241753D02*
X-893104Y-1243000D01*
X-901668Y-1247945D01*
X-908661Y-1254938D01*
X-913606Y-1263503D01*
X-914853Y-1268157D01*
X-888449D01*
Y-1241753D01*
D02*
G37*
G36*
X785842Y-1241753D02*
Y-1268158D01*
X812247D01*
X810999Y-1263503D01*
X806055Y-1254938D01*
X799062Y-1247945D01*
X790497Y-1243001D01*
X785842Y-1241753D01*
D02*
G37*
G36*
X766158D02*
X761503Y-1243001D01*
X752938Y-1247945D01*
X745945Y-1254938D01*
X741001Y-1263503D01*
X739753Y-1268158D01*
X766158D01*
Y-1241753D01*
D02*
G37*
G36*
X-213822Y-1242126D02*
X-250000D01*
Y-1278304D01*
X-241701Y-1276081D01*
X-230984Y-1269893D01*
X-222233Y-1261142D01*
X-216045Y-1250425D01*
X-213822Y-1242126D01*
D02*
G37*
G36*
X-269685D02*
X-305863D01*
X-303640Y-1250425D01*
X-297452Y-1261142D01*
X-288701Y-1269893D01*
X-277984Y-1276081D01*
X-269685Y-1278304D01*
Y-1242126D01*
D02*
G37*
G36*
X386811Y-1245165D02*
Y-1284449D01*
X426095D01*
X423561Y-1274992D01*
X416978Y-1263591D01*
X407669Y-1254281D01*
X396268Y-1247699D01*
X386811Y-1245165D01*
D02*
G37*
G36*
X-773942Y-1242567D02*
X-783271D01*
X-792283Y-1244981D01*
X-800363Y-1249646D01*
X-806960Y-1256243D01*
X-811625Y-1264323D01*
X-814039Y-1273335D01*
Y-1282665D01*
X-811625Y-1291676D01*
X-806960Y-1299756D01*
X-800363Y-1306353D01*
X-792283Y-1311018D01*
X-783271Y-1313433D01*
X-773942D01*
X-764930Y-1311018D01*
X-756850Y-1306353D01*
X-750253Y-1299756D01*
X-745588Y-1291676D01*
X-743173Y-1282665D01*
Y-1273335D01*
X-745588Y-1264323D01*
X-750253Y-1256243D01*
X-756850Y-1249646D01*
X-764930Y-1244981D01*
X-773942Y-1242567D01*
D02*
G37*
G36*
X880665Y-1242567D02*
X871335D01*
X862323Y-1244982D01*
X854244Y-1249647D01*
X847647Y-1256244D01*
X842982Y-1264323D01*
X840567Y-1273335D01*
Y-1282665D01*
X842982Y-1291677D01*
X847647Y-1299756D01*
X854244Y-1306353D01*
X862323Y-1311018D01*
X871335Y-1313433D01*
X880665D01*
X889677Y-1311018D01*
X897756Y-1306353D01*
X904353Y-1299756D01*
X909018Y-1291677D01*
X911433Y-1282665D01*
Y-1273335D01*
X909018Y-1264323D01*
X904353Y-1256244D01*
X897756Y-1249647D01*
X889677Y-1244982D01*
X880665Y-1242567D01*
D02*
G37*
G36*
X-888449Y-1287842D02*
X-914853D01*
X-913606Y-1292497D01*
X-908661Y-1301062D01*
X-901668Y-1308054D01*
X-893104Y-1312999D01*
X-888449Y-1314246D01*
Y-1287842D01*
D02*
G37*
G36*
X-842360D02*
X-868764D01*
Y-1314246D01*
X-864109Y-1312999D01*
X-855544Y-1308054D01*
X-848552Y-1301062D01*
X-843607Y-1292497D01*
X-842360Y-1287842D01*
D02*
G37*
G36*
X812247Y-1287842D02*
X785842D01*
Y-1314247D01*
X790497Y-1312999D01*
X799062Y-1308055D01*
X806055Y-1301062D01*
X810999Y-1292497D01*
X812247Y-1287842D01*
D02*
G37*
G36*
X766158D02*
X739753D01*
X741001Y-1292497D01*
X745945Y-1301062D01*
X752938Y-1308055D01*
X761503Y-1312999D01*
X766158Y-1314247D01*
Y-1287842D01*
D02*
G37*
G36*
X272126Y-1281334D02*
X235532D01*
X237797Y-1289788D01*
X244038Y-1300597D01*
X252863Y-1309422D01*
X263672Y-1315662D01*
X272126Y-1317928D01*
Y-1281334D01*
D02*
G37*
G36*
X424842Y-1108617D02*
X329094D01*
Y-1109469D01*
X296339D01*
X284005Y-1111093D01*
X272513Y-1115853D01*
X271916Y-1116311D01*
X261813Y-1117641D01*
X250321Y-1122402D01*
X240452Y-1129974D01*
X232879Y-1139843D01*
X228118Y-1151336D01*
X226495Y-1163669D01*
X228118Y-1176003D01*
X232879Y-1187495D01*
X240452Y-1197364D01*
X248274Y-1205186D01*
X258143Y-1212759D01*
X269635Y-1217519D01*
X277669Y-1218577D01*
X281563Y-1219090D01*
X281236Y-1224090D01*
X275728D01*
X263672Y-1227320D01*
X252863Y-1233561D01*
X244038Y-1242386D01*
X237797Y-1253195D01*
X235532Y-1261649D01*
X281968D01*
Y-1271491D01*
X291811D01*
Y-1317928D01*
X300265Y-1315662D01*
X311074Y-1309422D01*
X319899Y-1300597D01*
X321969Y-1297012D01*
X326969Y-1298352D01*
Y-1300874D01*
X330376Y-1313591D01*
X336959Y-1324992D01*
X346268Y-1334301D01*
X357669Y-1340884D01*
X367126Y-1343418D01*
Y-1294291D01*
Y-1245165D01*
X357669Y-1247699D01*
X346268Y-1254281D01*
X336959Y-1263591D01*
X334370Y-1268074D01*
X329370Y-1266734D01*
Y-1265251D01*
X326140Y-1253195D01*
X319899Y-1242386D01*
X311074Y-1233561D01*
X300265Y-1227320D01*
X288209Y-1224090D01*
X282701D01*
X282374Y-1219090D01*
X286268Y-1218577D01*
X294302Y-1217519D01*
X305794Y-1212759D01*
X315663Y-1205186D01*
X316077Y-1204773D01*
X376339D01*
X379435Y-1204365D01*
X424842D01*
Y-1108617D01*
D02*
G37*
G36*
X426095Y-1304134D02*
X386811D01*
Y-1343418D01*
X396268Y-1340884D01*
X407669Y-1334301D01*
X416978Y-1324992D01*
X423561Y-1313591D01*
X426095Y-1304134D01*
D02*
G37*
G36*
X114055Y-1418899D02*
X108898D01*
Y-1446850D01*
X129349D01*
Y-1434193D01*
X128185Y-1428340D01*
X124870Y-1423379D01*
X119908Y-1420063D01*
X114055Y-1418899D01*
D02*
G37*
G36*
X89213D02*
X84055D01*
X78202Y-1420063D01*
X73241Y-1423379D01*
X69925Y-1428340D01*
X68761Y-1434193D01*
Y-1446850D01*
X89213D01*
Y-1418899D01*
D02*
G37*
G36*
X-1269292Y-1417956D02*
Y-1454134D01*
X-1233113D01*
X-1235337Y-1445835D01*
X-1241524Y-1435118D01*
X-1250275Y-1426367D01*
X-1260993Y-1420179D01*
X-1269292Y-1417956D01*
D02*
G37*
G36*
X-1169292D02*
Y-1454134D01*
X-1133113D01*
X-1135337Y-1445835D01*
X-1141524Y-1435118D01*
X-1150275Y-1426367D01*
X-1160993Y-1420179D01*
X-1169292Y-1417956D01*
D02*
G37*
G36*
X-1288977Y-1417956D02*
X-1297275Y-1420179D01*
X-1307993Y-1426367D01*
X-1316743Y-1435118D01*
X-1322931Y-1445835D01*
X-1325155Y-1454134D01*
X-1288977D01*
Y-1417956D01*
D02*
G37*
G36*
X-1188977D02*
X-1197275Y-1420179D01*
X-1207993Y-1426367D01*
X-1216743Y-1435118D01*
X-1222931Y-1445835D01*
X-1225155Y-1454134D01*
X-1188977D01*
Y-1417956D01*
D02*
G37*
G36*
X-1456693Y-1322464D02*
X-1471359Y-1323909D01*
X-1485461Y-1328186D01*
X-1498457Y-1335133D01*
X-1509849Y-1344482D01*
X-1519197Y-1355874D01*
X-1526144Y-1368870D01*
X-1530422Y-1382972D01*
X-1531867Y-1397638D01*
X-1530422Y-1412303D01*
X-1526144Y-1426406D01*
X-1519197Y-1439402D01*
X-1509849Y-1450794D01*
X-1498457Y-1460142D01*
X-1485461Y-1467089D01*
X-1471359Y-1471367D01*
X-1456693Y-1472811D01*
X-1442027Y-1471367D01*
X-1427925Y-1467089D01*
X-1414929Y-1460142D01*
X-1403537Y-1450794D01*
X-1394188Y-1439402D01*
X-1387242Y-1426406D01*
X-1382964Y-1412303D01*
X-1381519Y-1397638D01*
X-1382964Y-1382972D01*
X-1387242Y-1368870D01*
X-1394188Y-1355874D01*
X-1403537Y-1344482D01*
X-1414929Y-1335133D01*
X-1427925Y-1328186D01*
X-1442027Y-1323909D01*
X-1456693Y-1322464D01*
D02*
G37*
G36*
X129349Y-1466535D02*
X108898D01*
Y-1494487D01*
X114055D01*
X119908Y-1493323D01*
X124870Y-1490007D01*
X128185Y-1485046D01*
X129349Y-1479193D01*
Y-1466535D01*
D02*
G37*
G36*
X89213D02*
X68761D01*
Y-1479193D01*
X69925Y-1485046D01*
X73241Y-1490007D01*
X78202Y-1493323D01*
X84055Y-1494487D01*
X89213D01*
Y-1466535D01*
D02*
G37*
G36*
X-130313Y-1418118D02*
X-142128D01*
X-153541Y-1421176D01*
X-163774Y-1427084D01*
X-172129Y-1435439D01*
X-178036Y-1445671D01*
X-181095Y-1457084D01*
Y-1468900D01*
X-178036Y-1480313D01*
X-172129Y-1490545D01*
X-163774Y-1498900D01*
X-153541Y-1504808D01*
X-142128Y-1507866D01*
X-130313D01*
X-118900Y-1504808D01*
X-108667Y-1498900D01*
X-100312Y-1490545D01*
X-94405Y-1480313D01*
X-91347Y-1468900D01*
Y-1457084D01*
X-94405Y-1445671D01*
X-100312Y-1435439D01*
X-108667Y-1427084D01*
X-118900Y-1421176D01*
X-130313Y-1418118D01*
D02*
G37*
G36*
X-230313D02*
X-242128D01*
X-253541Y-1421176D01*
X-263774Y-1427084D01*
X-272129Y-1435439D01*
X-278036Y-1445671D01*
X-281094Y-1457084D01*
Y-1468900D01*
X-278036Y-1480313D01*
X-272129Y-1490545D01*
X-263774Y-1498900D01*
X-253541Y-1504808D01*
X-242128Y-1507866D01*
X-230313D01*
X-218900Y-1504808D01*
X-208667Y-1498900D01*
X-200312Y-1490545D01*
X-194405Y-1480313D01*
X-191346Y-1468900D01*
Y-1457084D01*
X-194405Y-1445671D01*
X-200312Y-1435439D01*
X-208667Y-1427084D01*
X-218900Y-1421176D01*
X-230313Y-1418118D01*
D02*
G37*
G36*
X-330313D02*
X-342128D01*
X-353541Y-1421176D01*
X-363774Y-1427084D01*
X-372129Y-1435439D01*
X-378036Y-1445671D01*
X-381094Y-1457084D01*
Y-1468900D01*
X-378036Y-1480313D01*
X-372129Y-1490545D01*
X-363774Y-1498900D01*
X-353541Y-1504808D01*
X-342128Y-1507866D01*
X-330313D01*
X-318900Y-1504808D01*
X-308667Y-1498900D01*
X-300312Y-1490545D01*
X-294405Y-1480313D01*
X-291346Y-1468900D01*
Y-1457084D01*
X-294405Y-1445671D01*
X-300312Y-1435439D01*
X-308667Y-1427084D01*
X-318900Y-1421176D01*
X-330313Y-1418118D01*
D02*
G37*
G36*
X-573226Y-1419102D02*
X-585042D01*
X-596455Y-1422160D01*
X-606687Y-1428068D01*
X-615042Y-1436423D01*
X-620950Y-1446656D01*
X-624008Y-1458069D01*
Y-1469884D01*
X-620950Y-1481297D01*
X-615042Y-1491530D01*
X-606687Y-1499884D01*
X-596455Y-1505792D01*
X-585042Y-1508850D01*
X-573226D01*
X-561813Y-1505792D01*
X-551581Y-1499884D01*
X-543226Y-1491530D01*
X-537318Y-1481297D01*
X-534260Y-1469884D01*
Y-1458069D01*
X-537318Y-1446656D01*
X-543226Y-1436423D01*
X-551581Y-1428068D01*
X-561813Y-1422160D01*
X-573226Y-1419102D01*
D02*
G37*
G36*
X-673226D02*
X-685042D01*
X-696455Y-1422160D01*
X-706687Y-1428068D01*
X-715042Y-1436423D01*
X-720950Y-1446656D01*
X-724008Y-1458069D01*
Y-1469884D01*
X-720950Y-1481297D01*
X-715042Y-1491530D01*
X-706687Y-1499884D01*
X-696455Y-1505792D01*
X-685042Y-1508850D01*
X-673226D01*
X-661813Y-1505792D01*
X-651581Y-1499884D01*
X-643226Y-1491530D01*
X-637318Y-1481297D01*
X-634260Y-1469884D01*
Y-1458069D01*
X-637318Y-1446656D01*
X-643226Y-1436423D01*
X-651581Y-1428068D01*
X-661813Y-1422160D01*
X-673226Y-1419102D01*
D02*
G37*
G36*
X-773226D02*
X-785042D01*
X-796455Y-1422160D01*
X-806687Y-1428068D01*
X-815042Y-1436423D01*
X-820950Y-1446656D01*
X-824008Y-1458069D01*
Y-1469884D01*
X-820950Y-1481297D01*
X-815042Y-1491530D01*
X-806687Y-1499884D01*
X-796455Y-1505792D01*
X-785042Y-1508850D01*
X-773226D01*
X-761813Y-1505792D01*
X-751581Y-1499884D01*
X-743226Y-1491530D01*
X-737318Y-1481297D01*
X-734260Y-1469884D01*
Y-1458069D01*
X-737318Y-1446656D01*
X-743226Y-1436423D01*
X-751581Y-1428068D01*
X-761813Y-1422160D01*
X-773226Y-1419102D01*
D02*
G37*
G36*
X-873226D02*
X-885042D01*
X-896455Y-1422160D01*
X-906687Y-1428068D01*
X-915042Y-1436423D01*
X-920950Y-1446656D01*
X-924008Y-1458069D01*
Y-1469884D01*
X-920950Y-1481297D01*
X-915042Y-1491530D01*
X-906687Y-1499884D01*
X-896455Y-1505792D01*
X-885042Y-1508850D01*
X-873226D01*
X-861813Y-1505792D01*
X-851581Y-1499884D01*
X-843226Y-1491530D01*
X-837318Y-1481297D01*
X-834260Y-1469884D01*
Y-1458069D01*
X-837318Y-1446656D01*
X-843226Y-1436423D01*
X-851581Y-1428068D01*
X-861813Y-1422160D01*
X-873226Y-1419102D01*
D02*
G37*
G36*
X-973226D02*
X-985042D01*
X-996455Y-1422160D01*
X-1006687Y-1428068D01*
X-1015042Y-1436423D01*
X-1020950Y-1446656D01*
X-1024008Y-1458069D01*
Y-1469884D01*
X-1020950Y-1481297D01*
X-1015042Y-1491530D01*
X-1006687Y-1499884D01*
X-996455Y-1505792D01*
X-985042Y-1508850D01*
X-973226D01*
X-961813Y-1505792D01*
X-951581Y-1499884D01*
X-943226Y-1491530D01*
X-937318Y-1481297D01*
X-934260Y-1469884D01*
Y-1458069D01*
X-937318Y-1446656D01*
X-943226Y-1436423D01*
X-951581Y-1428068D01*
X-961813Y-1422160D01*
X-973226Y-1419102D01*
D02*
G37*
G36*
X-1073226D02*
X-1085042D01*
X-1096455Y-1422160D01*
X-1106687Y-1428068D01*
X-1115042Y-1436423D01*
X-1120950Y-1446656D01*
X-1124008Y-1458069D01*
Y-1469884D01*
X-1120950Y-1481297D01*
X-1115042Y-1491530D01*
X-1106687Y-1499884D01*
X-1096455Y-1505792D01*
X-1085042Y-1508850D01*
X-1073226D01*
X-1061813Y-1505792D01*
X-1051581Y-1499884D01*
X-1043226Y-1491530D01*
X-1037318Y-1481297D01*
X-1034260Y-1469884D01*
Y-1458069D01*
X-1037318Y-1446656D01*
X-1043226Y-1436423D01*
X-1051581Y-1428068D01*
X-1061813Y-1422160D01*
X-1073226Y-1419102D01*
D02*
G37*
G36*
X-1188977Y-1473819D02*
X-1225155D01*
X-1222931Y-1482118D01*
X-1216743Y-1492835D01*
X-1207993Y-1501586D01*
X-1197275Y-1507774D01*
X-1188977Y-1509997D01*
Y-1473819D01*
D02*
G37*
G36*
X-1288977D02*
X-1325155D01*
X-1322931Y-1482118D01*
X-1316743Y-1492835D01*
X-1307993Y-1501586D01*
X-1297275Y-1507774D01*
X-1288977Y-1509997D01*
Y-1473819D01*
D02*
G37*
G36*
X-1133113D02*
X-1169292D01*
Y-1509997D01*
X-1160993Y-1507774D01*
X-1150275Y-1501586D01*
X-1141524Y-1492835D01*
X-1135337Y-1482118D01*
X-1133113Y-1473819D01*
D02*
G37*
G36*
X-1233113D02*
X-1269292D01*
Y-1509997D01*
X-1260993Y-1507774D01*
X-1250275Y-1501586D01*
X-1241524Y-1492835D01*
X-1235337Y-1482118D01*
X-1233113Y-1473819D01*
D02*
G37*
G36*
X184731Y-1484252D02*
X177474D01*
X170465Y-1486130D01*
X164181Y-1489758D01*
X159050Y-1494889D01*
X155422Y-1501174D01*
X153543Y-1508183D01*
Y-1508497D01*
X136797Y-1525244D01*
X119669D01*
Y-1522682D01*
X118718Y-1517903D01*
X116011Y-1513851D01*
X111959Y-1511144D01*
X107180Y-1510193D01*
X80930D01*
X76151Y-1511144D01*
X72099Y-1513851D01*
X69392Y-1517903D01*
X68441Y-1522682D01*
Y-1563932D01*
X69392Y-1568711D01*
X72099Y-1572763D01*
X76151Y-1575470D01*
X80930Y-1576421D01*
X107180D01*
X111959Y-1575470D01*
X116011Y-1572763D01*
X118718Y-1568711D01*
X119669Y-1563932D01*
Y-1561371D01*
X144280D01*
X151192Y-1559996D01*
X157052Y-1556080D01*
X174547Y-1538586D01*
X177474Y-1539370D01*
X184731D01*
X191740Y-1537492D01*
X198024Y-1533864D01*
X203155Y-1528733D01*
X206783Y-1522448D01*
X208661Y-1515439D01*
Y-1508183D01*
X206783Y-1501174D01*
X203155Y-1494889D01*
X198024Y-1489758D01*
X191740Y-1486130D01*
X184731Y-1484252D01*
D02*
G37*
G36*
X-1374325Y-1488189D02*
X-1381581D01*
X-1388590Y-1490067D01*
X-1394874Y-1493695D01*
X-1400005Y-1498826D01*
X-1403634Y-1505111D01*
X-1405512Y-1512120D01*
Y-1519376D01*
X-1403634Y-1526385D01*
X-1400005Y-1532670D01*
X-1394874Y-1537801D01*
X-1388590Y-1541429D01*
X-1381581Y-1543307D01*
X-1374325D01*
X-1367315Y-1541429D01*
X-1361031Y-1537801D01*
X-1355900Y-1532670D01*
X-1352272Y-1526385D01*
X-1350394Y-1519376D01*
Y-1512120D01*
X-1352272Y-1505111D01*
X-1355900Y-1498826D01*
X-1361031Y-1493695D01*
X-1367315Y-1490067D01*
X-1374325Y-1488189D01*
D02*
G37*
G36*
X-1269292Y-1517956D02*
Y-1554134D01*
X-1233113D01*
X-1235337Y-1545835D01*
X-1241524Y-1535118D01*
X-1250275Y-1526367D01*
X-1260993Y-1520179D01*
X-1269292Y-1517956D01*
D02*
G37*
G36*
X-1169292D02*
Y-1554134D01*
X-1133113D01*
X-1135337Y-1545835D01*
X-1141524Y-1535118D01*
X-1150275Y-1526367D01*
X-1160993Y-1520179D01*
X-1169292Y-1517956D01*
D02*
G37*
G36*
X-1288977Y-1517956D02*
X-1297275Y-1520179D01*
X-1307993Y-1526367D01*
X-1316743Y-1535118D01*
X-1322931Y-1545835D01*
X-1325155Y-1554134D01*
X-1288977D01*
Y-1517956D01*
D02*
G37*
G36*
X-1188977D02*
X-1197275Y-1520179D01*
X-1207993Y-1526367D01*
X-1216743Y-1535118D01*
X-1222931Y-1545835D01*
X-1225155Y-1554134D01*
X-1188977D01*
Y-1517956D01*
D02*
G37*
G36*
X34055Y-1421067D02*
X4055D01*
X-968Y-1422066D01*
X-5226Y-1424911D01*
X-8072Y-1429170D01*
X-9071Y-1434193D01*
Y-1479193D01*
X-8072Y-1484216D01*
X-5226Y-1488475D01*
X-968Y-1491320D01*
X4055Y-1492319D01*
X7506D01*
Y-1510874D01*
X6151Y-1511144D01*
X2099Y-1513851D01*
X-608Y-1517903D01*
X-1559Y-1522682D01*
Y-1563932D01*
X-608Y-1568711D01*
X2099Y-1572763D01*
X6151Y-1575470D01*
X10930Y-1576421D01*
X37180D01*
X41959Y-1575470D01*
X46011Y-1572763D01*
X48718Y-1568711D01*
X49669Y-1563932D01*
Y-1522682D01*
X48718Y-1517903D01*
X46011Y-1513851D01*
X41959Y-1511144D01*
X37180Y-1510193D01*
X35605D01*
Y-1492011D01*
X39078Y-1491320D01*
X43337Y-1488475D01*
X46182Y-1484216D01*
X47181Y-1479193D01*
Y-1434193D01*
X46182Y-1429170D01*
X43337Y-1424911D01*
X39078Y-1422066D01*
X34055Y-1421067D01*
D02*
G37*
%LPD*%
D13*
X376339Y-1157121D02*
X376969Y-1156491D01*
X281969Y-1171491D02*
X296339Y-1157121D01*
X376339D01*
X274147Y-1163669D02*
X281969Y-1171491D01*
D17*
X125000Y1412402D02*
X325787Y1613189D01*
X722441D01*
X125000Y1078150D02*
Y1412402D01*
X290158Y144509D02*
Y212992D01*
X241732Y261417D02*
X290158Y212992D01*
Y144509D02*
X324824Y109843D01*
X501378D01*
X505906Y105315D01*
X324824Y9842D02*
X502953D01*
X506890Y5906D01*
X290158Y44509D02*
Y112992D01*
Y44509D02*
X324824Y9842D01*
X241732Y161417D02*
X290158Y112992D01*
X173228Y1129921D02*
Y1351378D01*
Y1129921D02*
X241732Y1061417D01*
X125000Y1078150D02*
X241732Y961417D01*
X822378Y1221213D02*
Y1513252D01*
X722441Y1613189D02*
X822378Y1513252D01*
X775921Y1174756D02*
X822378Y1221213D01*
X391732Y842934D02*
Y1445866D01*
X358641Y809842D02*
X391732Y842934D01*
Y1445866D02*
X451772Y1505906D01*
X650591D01*
X293307Y912992D02*
Y1387795D01*
X445866Y1540354D02*
X681270D01*
X293307Y1387795D02*
X445866Y1540354D01*
X709617Y1577785D02*
X729465Y1557937D01*
X399635Y1577785D02*
X709617D01*
X173228Y1351378D02*
X399635Y1577785D01*
X681270Y1540354D02*
X707677Y1513947D01*
X636811Y1466535D02*
X669291Y1434055D01*
Y981386D02*
X775921Y874756D01*
X650591Y1505906D02*
X689272Y1467224D01*
Y1061406D02*
X775921Y974756D01*
X707677Y1143000D02*
X775921Y1074756D01*
X707677Y1143000D02*
Y1513947D01*
X729465Y1155513D02*
Y1557937D01*
Y1155513D02*
X760222Y1124756D01*
X791621D01*
X822378Y1093999D01*
Y855513D02*
Y1093999D01*
X800870Y834005D02*
X822378Y855513D01*
X800870Y811424D02*
Y834005D01*
X775921Y786475D02*
X800870Y811424D01*
X775921Y774756D02*
Y786475D01*
X689272Y1061406D02*
Y1467224D01*
X669291Y981386D02*
Y1434055D01*
X464059Y1466535D02*
X636811D01*
X241732Y861417D02*
X293307Y912992D01*
X241732Y761417D02*
X290158Y809842D01*
X416386Y767587D02*
Y1418862D01*
X464059Y1466535D01*
X358641Y709842D02*
X416386Y767587D01*
X290158Y809842D02*
X358641D01*
X290158Y709842D02*
X358641D01*
X241732Y661417D02*
X290158Y709842D01*
X382874Y402559D02*
X505906D01*
X341732Y361417D02*
X382874Y402559D01*
X386319Y306004D02*
X505020D01*
X341732Y261417D02*
X386319Y306004D01*
X505906Y203740D02*
X507480Y205315D01*
X463583Y161417D02*
X505906Y203740D01*
X341732Y161417D02*
X463583D01*
X341732Y-338583D02*
X443152D01*
X684055Y-97679D01*
Y582890D01*
X775921Y674756D01*
X341732Y-438583D02*
X343504Y-436811D01*
X388976D01*
X723425Y-102362D02*
Y522260D01*
X388976Y-436811D02*
X723425Y-102362D01*
Y522260D02*
X775921Y574756D01*
Y474756D02*
X822378Y428299D01*
Y-57937D02*
Y428299D01*
X341732Y-538583D02*
X822378Y-57937D01*
X470798Y-478000D02*
X776000D01*
X361791Y-587008D02*
X470798Y-478000D01*
X293307Y-587008D02*
X361791D01*
X241732Y-638583D02*
X293307Y-587008D01*
X470798Y-578000D02*
X776000D01*
X361791Y-687008D02*
X470798Y-578000D01*
X241732Y-738583D02*
X293307Y-687008D01*
X361791D01*
X470798Y-678000D02*
X776000D01*
X361791Y-787008D02*
X470798Y-678000D01*
X293307Y-787008D02*
X361791D01*
X241732Y-838583D02*
X293307Y-787008D01*
X470798Y-778000D02*
X776000D01*
X361791Y-887008D02*
X470798Y-778000D01*
X293307Y-887008D02*
X361791D01*
X241732Y-938583D02*
X293307Y-887008D01*
X111221Y376378D02*
Y452126D01*
Y376378D02*
X126181Y361417D01*
X-81693Y-1168134D02*
Y153543D01*
X126181Y361417D02*
X241732D01*
X-81693Y153543D02*
X126181Y361417D01*
X114173Y-850394D02*
Y-366142D01*
X241732Y-238583D01*
X-145843Y-1232284D02*
X-81693Y-1168134D01*
X-98425Y-1629921D02*
X-35433Y-1566929D01*
Y-1000000D01*
X114173Y-850394D01*
X-1276445Y1174756D02*
X-878606D01*
X-1458268Y1061417D02*
X-1406693Y1112992D01*
X-1338209D01*
X-1276445Y1174756D01*
Y1074756D02*
X-878606D01*
X-1406693Y1012992D02*
X-1338209D01*
X-1276445Y1074756D01*
X-1458268Y961417D02*
X-1406693Y1012992D01*
X-1458268Y861417D02*
X-1406693Y912992D01*
X-940370D01*
X-878606Y974756D01*
X-1276445Y874756D02*
X-878606D01*
X-1338209Y812992D02*
X-1276445Y874756D01*
X-1406693Y812992D02*
X-1338209D01*
X-1458268Y761417D02*
X-1406693Y812992D01*
X-1276445Y774756D02*
X-878606D01*
X-1338209Y712992D02*
X-1276445Y774756D01*
X-1406693Y712992D02*
X-1338209D01*
X-1458268Y661417D02*
X-1406693Y712992D01*
X-1458268Y561417D02*
X-1406693Y612992D01*
X-1338209D01*
X-1276445Y674756D01*
X-878606D01*
X-1276445Y574756D02*
X-878606D01*
X-1338209Y512992D02*
X-1276445Y574756D01*
X-1406693Y512992D02*
X-1338209D01*
X-1458268Y461417D02*
X-1406693Y512992D01*
X-1276445Y474756D02*
X-878606D01*
X-1458268Y361417D02*
X-1406693Y412992D01*
X-1338209D01*
X-1276445Y474756D01*
X-149606Y-1027559D02*
X-148075Y-1029091D01*
Y-1112642D02*
Y-1029091D01*
Y-1112642D02*
X-146543Y-1114173D01*
X-260543D02*
X-258224Y-1111854D01*
Y-1029878D01*
X-255905Y-1027559D01*
X21555Y-1540807D02*
X24055Y-1543307D01*
X21555Y-1540807D02*
Y-1459193D01*
X19055Y-1456693D02*
X21555Y-1459193D01*
X-169291Y-1629921D02*
X-98425D01*
X-236220Y-1562992D02*
X-169291Y-1629921D01*
X1175602Y-826366D02*
X1200787Y-801181D01*
X1166968Y-871491D02*
X1175602Y-862858D01*
X1200787Y-801181D02*
X1582751D01*
X1175602Y-862858D02*
Y-826366D01*
X1582751Y-801181D02*
X1631890Y-752043D01*
Y-520669D01*
X1493312Y-471457D02*
X1582677D01*
X1631890Y-520669D01*
X996063Y25793D02*
X1493312Y-471457D01*
X996063Y25793D02*
Y655512D01*
X1366968Y-1463247D02*
X1376903Y-1453313D01*
X1366968Y-1478288D02*
Y-1463247D01*
Y-1478288D02*
X1373887Y-1485207D01*
X1375514D01*
X1376400Y-1486093D01*
Y-1502038D02*
Y-1486093D01*
X1375514Y-1502923D02*
X1376400Y-1502038D01*
X1373887Y-1502923D02*
X1375514D01*
X1366968Y-1509842D02*
X1373887Y-1502923D01*
X1366968Y-1533465D02*
Y-1509842D01*
X472284Y905709D02*
X472874Y906299D01*
X611811D01*
X612402Y906890D01*
X482874Y1006299D02*
X611811D01*
X612402Y1006890D01*
X482284Y1005709D02*
X482874Y1006299D01*
X743110Y724409D02*
X927165D01*
X690229Y777290D02*
X743110Y724409D01*
X690229Y777290D02*
Y829062D01*
X927165Y724409D02*
X996063Y655512D01*
X612402Y906890D02*
X690229Y829062D01*
X1376903Y-1453313D02*
X1387795Y-1442420D01*
X1366968Y-1571491D02*
Y-1533465D01*
X1387795Y-1442420D02*
Y-1432087D01*
X1266968Y-1533465D02*
Y-1471693D01*
X1253937Y-1458661D02*
X1266968Y-1471693D01*
Y-1571491D02*
Y-1533465D01*
X1227362Y-1432087D02*
X1253937Y-1458661D01*
X1412697Y-92815D02*
X1509547D01*
X1509843Y-92520D01*
X1412402Y-93110D02*
X1412697Y-92815D01*
X1412402Y6890D02*
X1509843D01*
X1412402Y6890D02*
X1412402Y6890D01*
X1509547Y106594D02*
X1509843Y106299D01*
X1412402Y106890D02*
X1412697Y106594D01*
X1509547D01*
X1412402Y206890D02*
X1413484Y205807D01*
X1508760D01*
X1509843Y204724D01*
X1412795Y306496D02*
X1509449D01*
X1509843Y306102D01*
X1412402Y306890D02*
X1412795Y306496D01*
X1412697Y407185D02*
X1509547D01*
X1509843Y407480D01*
X1412402Y406890D02*
X1412697Y407185D01*
X1508858Y505906D02*
X1509843Y504921D01*
X1412402Y506890D02*
X1413386Y505906D01*
X1508858D01*
X1412402Y606890D02*
X1414173Y605118D01*
X1508071D01*
X1509843Y603346D01*
X1066457Y-870980D02*
X1066968Y-871491D01*
X611811Y1406299D02*
X612402Y1406890D01*
X482284Y1405709D02*
X482874Y1406299D01*
X611811D01*
X472874Y1306299D02*
X611811D01*
X612402Y1306890D01*
X472284Y1305709D02*
X472874Y1306299D01*
X482284Y1205709D02*
X482874Y1206299D01*
X611811D02*
X612402Y1206890D01*
X482874Y1206299D02*
X611811D01*
X482874Y806299D02*
X611811D01*
X482284Y805709D02*
X482874Y806299D01*
X611811D02*
X612402Y806890D01*
X472874Y706299D02*
X611811D01*
X612402Y706890D01*
X472284Y705709D02*
X472874Y706299D01*
X482874Y606299D02*
X611811D01*
X482284Y605709D02*
X482874Y606299D01*
X611811D02*
X612402Y606890D01*
X611811Y506299D02*
X612402Y506890D01*
X472284Y505709D02*
X472874Y506299D01*
X611811D01*
X505906Y402559D02*
X508071Y404724D01*
X610236D01*
X612402Y406890D01*
X505020Y306004D02*
X611516D01*
X612402Y306890D01*
X610827Y205315D02*
X612402Y206890D01*
X507480Y205315D02*
X610827D01*
X506693Y106102D02*
X611614D01*
X612402Y106890D01*
X505906Y105315D02*
X506693Y106102D01*
X506890Y5906D02*
X611417D01*
X612402Y6890D01*
D20*
X111221Y532126D02*
D03*
Y452126D02*
D03*
X1013779Y-581339D02*
D03*
Y-501339D02*
D03*
D21*
X1564961Y-579524D02*
D03*
Y-385043D02*
D03*
D22*
X94055Y-1543307D02*
D03*
X24055D02*
D03*
D23*
X19055Y-1456693D02*
D03*
X99055D02*
D03*
D24*
X1515748Y1515748D02*
D03*
X-578740Y881890D02*
D03*
X-1377953Y-1515748D02*
D03*
X-70866Y1523622D02*
D03*
X94488Y640748D02*
D03*
X181102Y-1511811D02*
D03*
X-298228Y113189D02*
D03*
X-1492126Y-1575787D02*
D03*
X248031Y-1570866D02*
D03*
X1555118Y-1275591D02*
D03*
X1550197Y-212598D02*
D03*
X1459646Y1442913D02*
D03*
X980315Y-640748D02*
D03*
D35*
X-826772Y0D02*
D03*
X-1456693Y-1397638D02*
D03*
X0Y0D02*
D03*
Y-826772D02*
D03*
D45*
X-464567Y1345473D02*
D03*
Y1069882D02*
D03*
X-31496Y1069882D02*
D03*
Y1345472D02*
D03*
D49*
X-149606Y-1027559D02*
D03*
X-255905D02*
D03*
X1509843Y306102D02*
D03*
X505906Y402559D02*
D03*
X1387795Y-1432087D02*
D03*
X1227362D02*
D03*
X-70866Y1523622D02*
D03*
X1509843Y204724D02*
D03*
Y504921D02*
D03*
X505906Y105315D02*
D03*
X506890Y5906D02*
D03*
D50*
X1509843Y6890D02*
D03*
Y-92520D02*
D03*
Y106299D02*
D03*
Y407480D02*
D03*
Y603346D02*
D03*
X505906Y203740D02*
D03*
X505020Y306004D02*
D03*
D51*
X98255Y542284D02*
Y636981D01*
X108412Y532126D02*
X111221D01*
X98255Y542284D02*
X108412Y532126D01*
X94488Y640748D02*
X98255Y636981D01*
X1271653Y775591D02*
X1340354Y706890D01*
X1271653Y775591D02*
Y1122047D01*
X1487606Y1338000D01*
X101713Y-1543307D02*
X144280D01*
X175776Y-1511811D01*
X181102D01*
X96240Y-1537835D02*
X101713Y-1543307D01*
X1554134Y1137609D02*
X1603968Y1087774D01*
Y1017932D02*
Y1087774D01*
X1628378Y1007822D02*
Y1158473D01*
X1544134Y1242716D02*
X1628378Y1158473D01*
X1492926Y906890D02*
X1603968Y1017932D01*
X1623032Y1002475D02*
X1628378Y1007822D01*
X1623032Y1001073D02*
Y1002475D01*
X1547244Y925286D02*
X1623032Y1001073D01*
X1554134Y1137609D02*
Y1142716D01*
X1411024Y905512D02*
X1412402Y906890D01*
X1340354Y706890D02*
X1412402D01*
X996122Y-591496D02*
X1006279Y-581339D01*
X980315Y-640748D02*
Y-635421D01*
X1006279Y-581339D02*
X1013779D01*
X996122Y-619614D02*
Y-591496D01*
X980315Y-635421D02*
X996122Y-619614D01*
X1547244Y808772D02*
Y925286D01*
X1412402Y906890D02*
X1492926D01*
X1493610Y1006890D02*
X1529436Y1042716D01*
X1412402Y1006890D02*
X1493610D01*
X1529436Y1042716D02*
X1544134D01*
X1487606Y1338000D02*
X1549418D01*
X1554134Y1342716D01*
X1413342Y807831D02*
X1546303D01*
X1412402Y806890D02*
X1413342Y807831D01*
X1546303D02*
X1547244Y808772D01*
D52*
X1379528Y-551181D02*
X1385920D01*
X1401668Y-566929D01*
X1552366D01*
X1564961Y-579524D01*
D53*
X-1358268Y1061417D02*
D03*
Y1161417D02*
D03*
X-1458268Y1061417D02*
D03*
Y961417D02*
D03*
X-1358268D02*
D03*
X-1458268Y861417D02*
D03*
X-1358268D02*
D03*
X-1458268Y761417D02*
D03*
X-1358268D02*
D03*
X-1458268Y661417D02*
D03*
X-1358268D02*
D03*
X-1458268Y561417D02*
D03*
X-1358268D02*
D03*
X-1458268Y461417D02*
D03*
X-1358268D02*
D03*
X-1458268Y361417D02*
D03*
X-1358268D02*
D03*
Y261417D02*
D03*
X-1458268Y161417D02*
D03*
X-1358268D02*
D03*
X-1458268Y61417D02*
D03*
X-1358268D02*
D03*
X-1458268Y-38583D02*
D03*
X-1358268D02*
D03*
X-1458268Y-138583D02*
D03*
X-1358268D02*
D03*
X-1458268Y-238583D02*
D03*
X-1358268D02*
D03*
X-1458268Y-338583D02*
D03*
X-1358268D02*
D03*
X-1458268Y-438583D02*
D03*
X-1358268D02*
D03*
X-1458268Y-538583D02*
D03*
X-1358268D02*
D03*
X-1458268Y261417D02*
D03*
X341732Y-738583D02*
D03*
Y-638583D02*
D03*
X241732D02*
D03*
X341732Y-538583D02*
D03*
X241732D02*
D03*
X341732Y-438583D02*
D03*
X241732D02*
D03*
X341732Y-338583D02*
D03*
X241732D02*
D03*
X341732Y-238583D02*
D03*
X241732Y-138583D02*
D03*
Y-238583D02*
D03*
Y-38583D02*
D03*
X341732Y-138583D02*
D03*
Y-38583D02*
D03*
Y61417D02*
D03*
X241732D02*
D03*
X341732Y161417D02*
D03*
X241732D02*
D03*
X341732Y261417D02*
D03*
X241732D02*
D03*
X341732Y361417D02*
D03*
X241732Y561417D02*
D03*
X341732D02*
D03*
Y661417D02*
D03*
X241732D02*
D03*
X341732Y761417D02*
D03*
X241732D02*
D03*
X341732Y861417D02*
D03*
X241732D02*
D03*
X341732Y961417D02*
D03*
X241732D02*
D03*
Y1061417D02*
D03*
X341732Y1161417D02*
D03*
Y1061417D02*
D03*
Y-938583D02*
D03*
Y-838583D02*
D03*
X241732D02*
D03*
Y-738583D02*
D03*
Y-938583D02*
D03*
X-1458268Y-638583D02*
D03*
X-1358268D02*
D03*
X-1458268Y-738583D02*
D03*
X-1358268D02*
D03*
X-1458268Y-838583D02*
D03*
X-1358268D02*
D03*
X-1458268Y-938583D02*
D03*
X-1358268D02*
D03*
X241732Y461417D02*
D03*
Y361417D02*
D03*
X341732Y461417D02*
D03*
D54*
X-1458268Y1161417D02*
D03*
X241732D02*
D03*
D55*
X1412402Y1006890D02*
D03*
Y906890D02*
D03*
Y806890D02*
D03*
Y706890D02*
D03*
Y606890D02*
D03*
Y506890D02*
D03*
Y406890D02*
D03*
Y306890D02*
D03*
Y206890D02*
D03*
Y106890D02*
D03*
Y6890D02*
D03*
Y-93110D02*
D03*
X612402D02*
D03*
Y6890D02*
D03*
Y106890D02*
D03*
Y206890D02*
D03*
Y306890D02*
D03*
Y406890D02*
D03*
Y506890D02*
D03*
Y606890D02*
D03*
Y706890D02*
D03*
Y806890D02*
D03*
Y906890D02*
D03*
Y1006890D02*
D03*
Y1206890D02*
D03*
Y1306890D02*
D03*
Y1406890D02*
D03*
Y1106890D02*
D03*
D56*
X1362402Y-243110D02*
D03*
D57*
Y1556890D02*
D03*
D58*
X1566968Y-1571491D02*
D03*
X1466968D02*
D03*
X1366968D02*
D03*
X1266968D02*
D03*
X1166968D02*
D03*
X1066968D02*
D03*
X966968D02*
D03*
X1566968Y-871491D02*
D03*
X1466968D02*
D03*
X1366968D02*
D03*
X1266968D02*
D03*
X1166968D02*
D03*
X1066968D02*
D03*
X-260543Y-1114173D02*
D03*
X-146543D02*
D03*
X-259842Y-1232284D02*
D03*
X-145843D02*
D03*
X1547244Y808772D02*
D03*
X-1279134Y-1563976D02*
D03*
Y-1463976D02*
D03*
X-1179134Y-1563976D02*
D03*
Y-1463976D02*
D03*
X-1079134Y-1563976D02*
D03*
Y-1463976D02*
D03*
X-979134Y-1563976D02*
D03*
Y-1463976D02*
D03*
X-879134Y-1563976D02*
D03*
Y-1463976D02*
D03*
X-779134Y-1563976D02*
D03*
Y-1463976D02*
D03*
X-679134Y-1563976D02*
D03*
Y-1463976D02*
D03*
X-579134Y-1563976D02*
D03*
Y-1463976D02*
D03*
X-136220Y-1462992D02*
D03*
Y-1562992D02*
D03*
X-236220Y-1462992D02*
D03*
Y-1562992D02*
D03*
X-336221Y-1462992D02*
D03*
Y-1562992D02*
D03*
X1544134Y1042716D02*
D03*
X1554134Y1142716D02*
D03*
X1544134Y1242716D02*
D03*
X1554134Y1342716D02*
D03*
X1547244Y694772D02*
D03*
X482284Y1405709D02*
D03*
X472284Y1305709D02*
D03*
X482284Y1205709D02*
D03*
X472284Y1105709D02*
D03*
X482284Y1005709D02*
D03*
X472284Y905709D02*
D03*
X482284Y805709D02*
D03*
X472284Y705709D02*
D03*
X482284Y605709D02*
D03*
X472284Y505709D02*
D03*
D59*
X376969Y-1294291D02*
D03*
D60*
Y-1156491D02*
D03*
D61*
X281969Y-1271491D02*
D03*
Y-1171491D02*
D03*
D62*
X1179528Y-551181D02*
D03*
D63*
X1279528D02*
D03*
X1379528D02*
D03*
D64*
X875921Y374756D02*
D03*
X775921D02*
D03*
X875921Y474756D02*
D03*
X775921D02*
D03*
X875921Y574756D02*
D03*
X775921D02*
D03*
X875921Y674756D02*
D03*
X775921D02*
D03*
X875921Y774756D02*
D03*
X775921D02*
D03*
X875921Y874756D02*
D03*
X775921D02*
D03*
X875921Y974756D02*
D03*
X775921D02*
D03*
X875921Y1074756D02*
D03*
X775921D02*
D03*
X875921Y1174756D02*
D03*
X775921D02*
D03*
X875921Y1274756D02*
D03*
X876000Y-378000D02*
D03*
X776000Y-478000D02*
D03*
X876000D02*
D03*
X776000Y-578000D02*
D03*
X876000D02*
D03*
X776000Y-678000D02*
D03*
X876000D02*
D03*
X776000Y-778000D02*
D03*
X876000D02*
D03*
X776000Y-878000D02*
D03*
X876000D02*
D03*
X776000Y-978000D02*
D03*
X876000D02*
D03*
X776000Y-1078000D02*
D03*
X876000D02*
D03*
X776000Y-1178000D02*
D03*
X876000D02*
D03*
X776000Y-1278000D02*
D03*
X876000D02*
D03*
X-778606Y-1278000D02*
D03*
X-878606D02*
D03*
X-778606Y-1178000D02*
D03*
X-878606D02*
D03*
X-778606Y-1078000D02*
D03*
X-878606D02*
D03*
X-778606Y-978000D02*
D03*
X-878606D02*
D03*
X-778606Y-878000D02*
D03*
X-878606D02*
D03*
X-778606Y-778000D02*
D03*
X-878606D02*
D03*
X-778606Y-678000D02*
D03*
X-878606D02*
D03*
X-778606Y-578000D02*
D03*
X-878606D02*
D03*
X-778606Y-478000D02*
D03*
X-878606D02*
D03*
X-778606Y-378000D02*
D03*
Y1274756D02*
D03*
X-878606Y1174756D02*
D03*
X-778606D02*
D03*
X-878606Y1074756D02*
D03*
X-778606D02*
D03*
X-878606Y974756D02*
D03*
X-778606D02*
D03*
X-878606Y874756D02*
D03*
X-778606D02*
D03*
X-878606Y774756D02*
D03*
X-778606D02*
D03*
X-878606Y674756D02*
D03*
X-778606D02*
D03*
X-878606Y574756D02*
D03*
X-778606D02*
D03*
X-878606Y474756D02*
D03*
X-778606D02*
D03*
X-878606Y374756D02*
D03*
X-778606D02*
D03*
D65*
X775921Y1274756D02*
D03*
X776000Y-378000D02*
D03*
X-878606Y-378000D02*
D03*
Y1274756D02*
D03*
D66*
X187008Y1552165D02*
D03*
M02*
